<svg width="366" height="283" viewBox="0 0 366 283" fill="none" xmlns="http://www.w3.org/2000/svg">
<path d="M39.9453 0.321289C39.6338 1.16044 39.3391 1.99171 39.0156 2.74316C37.3342 6.65348 35.4723 10.4771 33.9385 14.4443C32.7574 17.4977 31.6991 20.6355 30.6328 23.7188C31.3354 23.7132 31.259 22.7499 31.4941 22.2021C31.6174 21.9172 32.0982 21.1689 32.3633 21.0469C32.7734 20.8598 33.5277 21.1803 33.4648 21.625C32.642 23.5828 32.2598 25.6845 31.5244 27.6748C30.9011 29.3615 30.3349 31.0402 29.7197 32.7432C27.8688 37.8601 25.5552 42.9445 23.8164 48.0615C21.3449 55.337 19.42 62.8133 16.6504 69.9912C15.4803 73.0229 14.8241 76.0493 13.8535 79.1162C13.2794 80.9276 12.3035 83.3685 12.041 85.1826C11.9864 85.5649 12.0908 85.9961 12.0088 86.3594C11.954 86.5953 11.5984 87.029 11.4727 87.3408C10.7727 89.0872 10.0205 92.7534 9.71973 94.6787C9.63498 95.2237 9.64093 96.753 9.46875 97.0488C9.30749 97.3226 9.13502 97.2523 9.08301 96.9678C8.99552 96.477 9.04434 95.0989 9.07715 94.543C9.17013 93.0326 9.56976 91.4976 9.78027 89.998C9.94699 88.8106 9.85908 88.6555 10.3184 87.5059C10.7776 86.3535 10.9012 85.4557 11.1035 84.249C12.2136 77.5973 14.6663 71.7294 16.375 65.2783C16.6949 64.0662 17.2227 62.3848 17.3184 61.1699C17.3266 61.0587 17.3944 60.7961 17.2197 60.8203C15.0243 69.0448 11.8476 76.9819 9.62207 85.1982C8.86474 87.9995 8.15387 90.8419 7.86133 93.7354C7.81217 94.2153 7.91834 94.7605 7.85547 95.2432C7.78431 95.7935 7.47853 96.4821 7.38281 97.0947C7.0192 99.4647 7.0871 103.687 7.98926 105.916C8.77393 107.855 9.73689 107.977 11.1641 109.219C11.6341 109.628 12.2528 110.357 12.9062 110.906H0V45.7666C0 22.4516 17.4142 3.20438 39.9453 0.321289ZM50.0527 77.2129C50.1184 77.137 50.441 76.6321 50.5586 76.7568C47.7972 82.1179 45.3284 87.7611 44.1035 93.6943C42.9005 99.5164 43.056 103.598 45.9678 108.889C46.3353 109.556 46.9382 110.255 47.6699 110.906H16.7666C18.7844 110.166 21.1762 109.112 22.8105 108.159C23.1084 107.986 24.3901 107.129 24.4922 106.896C24.5441 106.776 24.2899 106.675 24.3418 106.461C24.4214 106.133 25.1152 105.767 25.293 105.577C25.6483 105.198 25.8808 104.696 26.3125 104.271C26.5886 103.997 27.7477 103.018 28.0488 102.969C28.8827 102.833 30.157 103.831 30.1133 102.627C29.1618 102.041 29.5202 101.447 30.5127 101.371C30.7918 101.35 31.6414 101.821 31.5107 101.149C31.3494 100.32 31.1636 100.29 31.9072 99.6416C33.1402 98.5678 35.1169 97.4341 35.4014 95.6445C35.4369 95.4141 35.2016 95.2215 35.5186 94.9531C36.3169 94.2779 37.894 95.0664 38.3916 93.6699C38.4709 93.4503 38.4463 93.1356 38.5557 92.9512C38.6186 92.8454 38.8569 92.7883 38.9717 92.6338C39.3732 92.0832 39.0835 90.8335 39.1709 90.1611L38.5615 90.0088L39.1191 89.5586C39.3267 89.6426 39.2399 90.0244 39.2725 90.0576C39.3244 90.1119 39.8578 90.0332 39.959 89.9355C40.0385 89.855 40.234 89.2001 40.1855 89.1553H39.7285C39.5344 88.8109 40.0708 88.6075 40.2295 88.3418C40.3498 88.1385 40.355 87.8671 40.4697 87.6719C41.197 86.4489 42.4302 85.9171 43.3379 84.9707C43.6058 84.6914 43.756 84.3361 44.0977 84.0107C44.2917 83.8264 44.6309 83.6939 44.7568 83.5557C44.94 83.3523 44.9129 83.0536 45.0469 82.834C45.7523 81.6599 47.4198 80.4534 48.374 79.377C48.9755 78.6964 49.465 77.9071 50.0527 77.2129ZM47.9854 0C72.2842 1.13123 91.6377 21.188 91.6377 45.7666V110.906H62.749C63.428 110.409 63.8634 109.705 64.5977 109.181C65.6665 108.419 66.9378 108.08 67.9766 107.392C74.2649 103.21 80.7424 96.9481 85.6309 91.2236C87.438 89.1085 90.2399 86.0147 91.123 83.4658C91.3773 82.7337 91.6917 81.9826 91.6289 81.1963L91.6348 81.1904C91.4926 81.1796 91.3584 81.1902 91.2217 81.2363C90.8362 81.3719 88.4033 84.0919 87.9219 84.6182C82.2706 90.7873 77.1112 97.8434 69.9727 102.407C66.2571 104.783 62.4297 106.35 58.3916 108.062C56.579 108.829 52.9811 109.308 51.0508 108.988C49.2819 108.695 48.716 108.46 48.2539 106.719C47.8875 105.341 47.3264 102.261 47.3154 100.886C47.31 100.04 47.7477 98.9331 47.9062 98.0654C49.2624 90.5947 52.9266 81.6701 57.249 75.3682C59.2202 72.4913 61.178 70.7337 63.5264 68.2852C64.4858 67.2846 65.2292 66.0833 66.1641 65.0557C68.0751 62.9568 70.3718 61.2349 72.7285 59.6621L72.9502 59.6299C73.713 59.9905 74.4239 60.0558 74.957 60.7744C76.8786 63.3614 72.8762 67.1357 71.583 69.2236C71.4135 69.5599 71.3731 70.0757 71.6328 70.374C71.7726 70.5364 72.2416 70.6796 72.4658 70.7041C73.0973 70.7746 75.0087 70.7914 75.6104 70.6992C77.2945 70.4389 79.4707 66.0971 79.6895 64.5596C80.2854 60.3647 77.3085 57.5312 73.3525 56.9209C71.7834 56.6796 71.7937 56.994 70.5283 57.1865C68.8469 57.4441 68.0943 57.0377 66.3828 58.0166C62.7247 60.1156 57.8578 65.3436 55.3535 68.7549C54.0249 70.5662 53.0904 72.7115 51.625 74.333C50.5615 75.5126 49.3366 76.5809 48.2676 77.7578C46.4221 79.7916 44.7673 82.0095 42.8809 84.0107C41.3006 85.692 39.4257 87.2436 37.8975 88.9492C34.696 92.5205 31.8002 95.4244 28.041 98.4316C27.2563 99.058 26.6081 99.8472 25.8535 100.498C23.2809 102.708 19.9129 105.255 16.9355 106.879C15.6123 107.6 14.1849 108.647 13.3701 106.824C12.5583 105.004 12.7682 100.744 12.9404 98.6836C13.0171 97.7673 13.4496 96.9052 13.5371 95.9482C13.6574 94.6385 13.5479 93.6317 13.9307 92.3057C14.286 91.0776 14.521 90.3237 14.7998 89.0332C15.2919 86.7581 16.0161 85.1254 16.6504 83.0049C17.7549 79.3143 18.5732 75.4827 19.8555 71.8652C21.9743 65.8861 23.7152 59.7791 25.8477 53.8135C28.5325 46.3075 31.683 38.9531 34.417 31.458C35.2481 29.1748 36.1558 26.9319 37.0088 24.6514C38.9035 19.5723 40.8413 14.4411 43.25 9.56543C44.2233 7.59137 45.399 6.17858 46.4707 4.3916C46.8665 3.73277 47.6789 1.32218 47.9854 0ZM8.88867 99.9854H8.8916L8.58301 100.04C8.38895 99.7039 8.60436 99.3915 8.98145 99.3398L8.88867 99.9854ZM37.0908 91.4736C37.2136 91.4086 37.2818 91.3355 37.4482 91.376C37.4018 91.7013 37.5632 92.2946 37.3477 92.5361L37.1641 92.6699C36.8562 92.8839 36.271 93.273 36.1992 93.3096C35.8958 93.4641 35.5509 93.5183 35.2119 93.4912C34.9774 93.282 36.8229 91.6119 37.0908 91.4736ZM47.4385 87.3135C47.2581 87.7933 46.873 86.7859 47.4111 86.8369L47.4385 87.3135ZM47.7207 85.2256C47.9665 85.1797 48.0021 85.4263 48.125 85.5781H48.1221L47.9717 85.7275L47.7314 85.5645L47.7207 85.2256ZM48.4287 83.3086C48.5244 83.2463 48.7645 83.3306 48.8301 83.458L48.4775 84.1113C48.2126 84.0297 48.3713 83.3436 48.4287 83.3057V83.3086ZM50.46 79.9814C50.4846 80.3584 50.4815 80.9518 49.9512 80.8867C49.9293 80.461 49.9187 79.9815 50.46 79.9814ZM51.2666 77.9229C51.286 77.8229 51.5444 77.8499 51.5752 77.8662C51.7801 77.999 51.5594 78.5652 51.3271 78.666C51.0565 78.4708 51.19 78.164 51.2666 77.9199V77.9229ZM53.3086 74.5361C53.2813 74.8588 53.4396 75.0921 53.3467 75.4229C53.2236 75.8648 52.6884 76.2196 52.5381 75.6475C52.454 75.3272 53.1908 74.3957 53.3086 74.5361ZM35.2891 13.8584C36.1035 13.6905 35.9966 14.6499 35.4443 14.7285C34.843 14.815 34.6439 13.9913 35.2891 13.8584ZM36.7402 11.8223C36.5762 11.1226 36.4427 10.2845 37.457 10.5557C37.7604 11.117 37.4155 11.8412 36.7402 11.8223Z" fill="#99948B"/>
<path d="M0 134.906H2.46094L13.3848 159.434C13.5488 159.826 13.7266 160.021 13.918 160.021C14.1185 160.021 14.2871 159.798 14.4238 159.352L21.4512 134.906H23.9121L14 162.906H12.4824L0 134.906ZM26.1406 162.906V134.906H28.3828V162.906H26.1406ZM32.3066 134.906H53.8672V137.395C52.819 136.939 51.3516 136.506 49.4648 136.096C47.5872 135.676 46.3294 135.467 45.6914 135.467C45.1628 135.467 44.7799 135.604 44.543 135.877C44.3151 136.141 44.2012 136.638 44.2012 137.367V162.906H41.959V137.367C41.959 136.638 41.8451 136.141 41.6172 135.877C41.3893 135.604 41.0111 135.467 40.4824 135.467C39.8444 135.467 38.582 135.676 36.6953 136.096C34.8177 136.506 33.3548 136.939 32.3066 137.395V134.906ZM51.8301 162.906H49.3691L58.9121 136.219L58.3242 134.906H60.7988L73.2812 162.906H70.8203L68.7695 158.34C68.332 157.355 67.612 156.48 66.6094 155.715C65.6159 154.94 64.5404 154.361 63.3828 153.979C62.2253 153.587 61.1087 153.391 60.0332 153.391C58.1829 153.391 56.4557 153.969 54.8516 155.127C54.5508 155.346 54.25 155.71 53.9492 156.221C53.6576 156.722 53.4479 157.205 53.3203 157.67L51.8301 162.906ZM54.8789 152.297C54.7422 152.798 54.7923 153.049 55.0293 153.049C55.1478 153.049 55.3529 152.976 55.6445 152.83C56.7383 152.229 57.9232 151.928 59.1992 151.928C60.4661 151.928 61.7422 152.201 63.0273 152.748C64.3216 153.286 65.5293 154.01 66.6504 154.922C66.9694 155.186 67.1699 155.286 67.252 155.223C67.334 155.159 67.2884 154.94 67.1152 154.566L59.8965 138.379C59.7324 137.987 59.5547 137.791 59.3633 137.791C59.1628 137.791 58.9941 138.014 58.8574 138.461L54.8789 152.297ZM77.957 162.906H75.6055V134.906H77.9023L87.1445 152.215C87.3359 152.589 87.5501 152.775 87.7871 152.775C88.0059 152.775 88.2109 152.579 88.4023 152.188L96.4961 134.906H99.0664V162.906H96.7148V137.955C96.7148 137.718 96.6829 137.536 96.6191 137.408C96.5553 137.271 96.4733 137.203 96.373 137.203C96.2181 137.203 96.0632 137.354 95.9082 137.654C95.7624 137.919 94.9557 139.614 93.4883 142.74C92.0299 145.857 90.6035 148.911 89.209 151.9L87.1172 156.385C80.7096 144.363 77.3646 138.119 77.082 137.654C76.9271 137.354 76.763 137.203 76.5898 137.203C76.4896 137.203 76.4076 137.271 76.3438 137.408C76.2891 137.545 76.2663 137.727 76.2754 137.955L77.957 162.906ZM103.551 162.906V134.906H105.793V162.906H103.551ZM110.277 162.906V134.906H112.574C117.76 142.262 123.712 150.679 130.43 160.158C130.63 160.441 130.808 160.582 130.963 160.582C131.182 160.582 131.277 160.34 131.25 159.857L129.568 134.906H131.92V162.906H129.678C128.456 161.184 125.831 157.492 121.803 151.832C117.783 146.163 114.434 141.437 111.754 137.654C111.553 137.372 111.376 137.23 111.221 137.23C111.011 137.23 110.92 137.472 110.947 137.955L112.629 162.906H110.277ZM157.664 162.906H144.785V134.906H157.049C157.96 134.906 158.794 134.993 159.551 135.166C160.307 135.33 160.936 135.544 161.438 135.809C161.939 136.073 162.381 136.392 162.764 136.766C163.146 137.139 163.443 137.513 163.652 137.887C163.862 138.251 164.031 138.648 164.158 139.076C164.295 139.495 164.382 139.86 164.418 140.17C164.454 140.48 164.473 140.79 164.473 141.1C164.473 141.464 164.418 141.861 164.309 142.289C164.208 142.708 164.021 143.173 163.748 143.684C163.475 144.194 163.133 144.663 162.723 145.092C162.312 145.52 161.761 145.908 161.068 146.254C160.385 146.6 159.615 146.842 158.758 146.979C159.615 147.051 160.408 147.206 161.137 147.443C161.866 147.68 162.486 147.967 162.996 148.305C163.507 148.642 163.962 149.034 164.363 149.48C164.773 149.927 165.102 150.378 165.348 150.834C165.603 151.29 165.808 151.768 165.963 152.27C166.127 152.771 166.241 153.236 166.305 153.664C166.368 154.092 166.4 154.512 166.4 154.922C166.4 155.35 166.364 155.792 166.291 156.248C166.227 156.704 166.1 157.201 165.908 157.738C165.726 158.267 165.493 158.773 165.211 159.256C164.928 159.73 164.555 160.195 164.09 160.65C163.634 161.097 163.11 161.484 162.518 161.812C161.934 162.141 161.223 162.405 160.385 162.605C159.555 162.806 158.648 162.906 157.664 162.906ZM147 160.445C147 161.174 147.114 161.676 147.342 161.949C147.57 162.214 147.948 162.346 148.477 162.346H155.203C157.965 162.346 160.075 161.689 161.533 160.377C163.001 159.064 163.734 157.246 163.734 154.922C163.734 152.598 163.001 150.766 161.533 149.426C160.066 148.086 157.956 147.416 155.203 147.416H148.422C148.003 147.416 147.665 147.548 147.41 147.812C147.155 148.068 147.027 148.405 147.027 148.824C147.009 152.725 147 156.599 147 160.445ZM147.027 136.807V145.461C147.027 145.88 147.155 146.217 147.41 146.473C147.665 146.728 148.003 146.855 148.422 146.855H155.367C156.434 146.855 157.4 146.701 158.266 146.391C159.141 146.072 159.856 145.648 160.412 145.119C160.968 144.581 161.396 143.962 161.697 143.26C161.998 142.549 162.148 141.797 162.148 141.004C162.148 139.382 161.551 138.055 160.357 137.025C159.163 135.986 157.5 135.467 155.367 135.467H148.477C148.021 135.467 147.679 135.562 147.451 135.754C147.223 135.945 147.082 136.296 147.027 136.807ZM169.914 141.906C169.914 140.849 169.873 140.188 169.791 139.924C169.673 139.514 169.381 139.254 168.916 139.145C168.606 139.062 168.146 139.021 167.535 139.021C168.246 138.52 169.071 137.796 170.01 136.848C170.958 135.891 171.673 135.057 172.156 134.346V162.906H169.914V141.906ZM179.156 146.076C178.217 146.076 177.443 145.712 176.832 144.982C176.221 144.244 175.916 143.31 175.916 142.18C175.916 141.159 176.112 140.22 176.504 139.363C176.896 138.497 177.424 137.764 178.09 137.162C178.764 136.551 179.548 136.032 180.441 135.604C181.344 135.175 182.301 134.861 183.312 134.66C184.333 134.451 185.386 134.346 186.471 134.346C187.619 134.346 188.736 134.455 189.82 134.674C190.905 134.893 191.953 135.248 192.965 135.74C193.986 136.223 194.874 136.825 195.631 137.545C196.396 138.265 197.007 139.167 197.463 140.252C197.919 141.327 198.146 142.521 198.146 143.834C198.146 144.673 198.051 145.461 197.859 146.199C197.677 146.938 197.417 147.598 197.08 148.182C196.743 148.756 196.342 149.289 195.877 149.781C195.412 150.273 194.893 150.715 194.318 151.107C193.753 151.49 193.156 151.846 192.527 152.174C191.908 152.502 191.251 152.798 190.559 153.062C189.866 153.327 189.178 153.577 188.494 153.814C187.82 154.042 187.136 154.266 186.443 154.484C185.714 154.712 185.172 154.885 184.816 155.004C183.659 155.387 182.679 155.815 181.877 156.289C181.084 156.763 180.473 157.269 180.045 157.807C179.617 158.344 179.302 158.864 179.102 159.365C178.91 159.857 178.778 160.413 178.705 161.033C178.65 161.452 178.751 161.785 179.006 162.031C179.27 162.268 179.63 162.364 180.086 162.318L198.174 160.418V162.906H176.723C176.504 162.906 176.331 162.82 176.203 162.646C176.085 162.473 176.025 162.282 176.025 162.072C176.025 161.452 176.112 160.874 176.285 160.336C176.467 159.798 176.691 159.324 176.955 158.914C177.229 158.495 177.598 158.094 178.062 157.711C178.536 157.328 178.992 157 179.43 156.727C179.876 156.453 180.432 156.166 181.098 155.865C181.772 155.564 182.369 155.314 182.889 155.113C183.408 154.913 184.055 154.671 184.83 154.389C185.814 154.024 186.562 153.746 187.072 153.555C187.583 153.354 188.28 153.049 189.164 152.639C190.057 152.229 190.745 151.859 191.229 151.531C191.712 151.194 192.268 150.752 192.896 150.205C193.525 149.649 193.999 149.084 194.318 148.51C194.646 147.936 194.924 147.257 195.152 146.473C195.389 145.68 195.508 144.827 195.508 143.916C195.508 142.695 195.339 141.578 195.002 140.566C194.665 139.555 194.209 138.707 193.635 138.023C193.061 137.331 192.386 136.747 191.611 136.273C190.837 135.799 190.016 135.453 189.15 135.234C188.294 135.016 187.4 134.906 186.471 134.906C185.35 134.906 184.329 135.043 183.408 135.316C182.488 135.581 181.727 135.936 181.125 136.383C180.533 136.82 180.031 137.331 179.621 137.914C179.22 138.488 178.928 139.072 178.746 139.664C178.573 140.257 178.486 140.854 178.486 141.455C178.486 142.394 178.687 143.191 179.088 143.848C179.489 144.495 180.018 144.818 180.674 144.818C180.674 145.064 180.523 145.338 180.223 145.639C179.922 145.93 179.566 146.076 179.156 146.076ZM2.24219 201.906V173.906H4.48438V201.906H2.24219ZM8.96875 201.906V173.906H11.2656C16.4518 181.262 22.4036 189.679 29.1211 199.158C29.3216 199.441 29.4993 199.582 29.6543 199.582C29.873 199.582 29.9688 199.34 29.9414 198.857L28.2598 173.906H30.6113V201.906H28.3691C27.1478 200.184 24.5228 196.492 20.4941 190.832C16.4746 185.163 13.125 180.437 10.4453 176.654C10.2448 176.372 10.0671 176.23 9.91211 176.23C9.70247 176.23 9.61133 176.472 9.63867 176.955L11.3203 201.906H8.96875ZM26.9473 205.488L27.2891 204.955C28.0638 205.611 29.194 205.939 30.6797 205.939C31.5091 205.939 32.2337 205.789 32.8535 205.488C33.4824 205.188 33.9746 204.782 34.3301 204.271C34.6855 203.761 34.9499 203.21 35.123 202.617C35.2962 202.025 35.3828 201.396 35.3828 200.73V173.906H37.625V199.979C37.625 200.535 37.5521 201.1 37.4062 201.674C37.2604 202.248 37.0143 202.827 36.668 203.41C36.3307 203.993 35.9115 204.508 35.4102 204.955C34.9089 205.411 34.2663 205.78 33.4824 206.062C32.7077 206.354 31.8464 206.5 30.8984 206.5C29.2669 206.5 27.9499 206.163 26.9473 205.488ZM42.1094 201.906V173.906H61.5098V176.395C60.0697 175.911 57.7227 175.469 54.4688 175.068C51.224 174.667 48.3346 174.467 45.8008 174.467C45.2721 174.467 44.8939 174.604 44.666 174.877C44.4382 175.141 44.3242 175.638 44.3242 176.367V185.213C44.3242 185.632 44.4518 185.974 44.707 186.238C44.9622 186.493 45.2995 186.621 45.7188 186.621H58.7617V188.973C57.0846 188.562 54.8789 188.18 52.1445 187.824C49.4102 187.469 47.2773 187.291 45.7461 187.291C45.3177 187.291 44.9759 187.396 44.7207 187.605C44.4746 187.815 44.3516 188.12 44.3516 188.521L44.3242 199.445C44.3242 200.174 44.4382 200.676 44.666 200.949C44.8939 201.214 45.2721 201.346 45.8008 201.346C48.3346 201.346 51.224 201.145 54.4688 200.744C57.7227 200.343 60.0697 199.901 61.5098 199.418V201.906H42.1094ZM64.1758 192.773C63.7018 191.242 63.4648 189.62 63.4648 187.906C63.4648 186.193 63.7018 184.575 64.1758 183.053C64.6497 181.521 65.3151 180.173 66.1719 179.006C67.0286 177.83 68.0312 176.818 69.1797 175.971C70.3372 175.114 71.6178 174.462 73.0215 174.016C74.4342 173.569 75.9062 173.346 77.4375 173.346C78.7318 173.346 79.9941 173.464 81.2246 173.701C82.4642 173.938 83.5898 174.275 84.6016 174.713C85.6224 175.15 86.4427 175.725 87.0625 176.436C87.6823 177.146 87.9922 177.935 87.9922 178.801C87.9922 179.102 87.9466 179.361 87.8555 179.58C87.7734 179.79 87.6686 179.945 87.541 180.045C87.4225 180.136 87.2995 180.209 87.1719 180.264C87.0534 180.309 86.9531 180.332 86.8711 180.332L86.7344 180.346C86.625 179.571 86.3014 178.796 85.7637 178.021C85.2259 177.247 84.5469 176.559 83.7266 175.957C82.9154 175.346 81.9538 174.854 80.8418 174.48C79.7298 174.098 78.5951 173.906 77.4375 173.906C75.8333 173.906 74.3112 174.248 72.8711 174.932C71.4401 175.606 70.196 176.545 69.1387 177.748C68.0814 178.951 67.2428 180.432 66.623 182.191C66.0124 183.951 65.707 185.855 65.707 187.906C65.707 189.957 66.0124 191.862 66.623 193.621C67.2428 195.38 68.0814 196.861 69.1387 198.064C70.196 199.268 71.4401 200.211 72.8711 200.895C74.3112 201.569 75.8333 201.906 77.4375 201.906C78.4948 201.906 79.5658 201.733 80.6504 201.387C81.7441 201.04 82.7513 200.576 83.6719 199.992C84.5924 199.4 85.4355 198.748 86.2012 198.037C86.9759 197.317 87.6413 196.561 88.1973 195.768V198.912C87.5137 199.942 86.151 200.794 84.1094 201.469C82.0677 202.134 79.8438 202.467 77.4375 202.467C75.9062 202.467 74.4342 202.243 73.0215 201.797C71.6178 201.35 70.3372 200.703 69.1797 199.855C68.0312 198.999 67.0286 197.987 66.1719 196.82C65.3151 195.645 64.6497 194.296 64.1758 192.773ZM90.1387 173.906H111.699V176.395C110.651 175.939 109.184 175.506 107.297 175.096C105.419 174.676 104.161 174.467 103.523 174.467C102.995 174.467 102.612 174.604 102.375 174.877C102.147 175.141 102.033 175.638 102.033 176.367V201.906H99.791V176.367C99.791 175.638 99.6771 175.141 99.4492 174.877C99.2214 174.604 98.8431 174.467 98.3145 174.467C97.6764 174.467 96.4141 174.676 94.5273 175.096C92.6497 175.506 91.1868 175.939 90.1387 176.395V173.906ZM115.609 201.906V173.906H117.852V201.906H115.609ZM135.461 202.467C133.93 202.467 132.458 202.243 131.045 201.797C129.641 201.35 128.361 200.703 127.203 199.855C126.055 198.999 125.052 197.987 124.195 196.82C123.339 195.645 122.673 194.296 122.199 192.773C121.725 191.242 121.488 189.62 121.488 187.906C121.488 186.193 121.725 184.575 122.199 183.053C122.673 181.521 123.339 180.173 124.195 179.006C125.052 177.83 126.055 176.818 127.203 175.971C128.361 175.114 129.641 174.462 131.045 174.016C132.458 173.569 133.93 173.346 135.461 173.346C137.375 173.346 139.184 173.701 140.889 174.412C142.602 175.114 144.088 176.089 145.346 177.338C146.613 178.587 147.615 180.127 148.354 181.959C149.092 183.791 149.461 185.773 149.461 187.906C149.461 190.039 149.092 192.021 148.354 193.854C147.615 195.686 146.613 197.226 145.346 198.475C144.088 199.723 142.602 200.703 140.889 201.414C139.184 202.116 137.375 202.467 135.461 202.467ZM124.646 182.191C124.036 183.951 123.73 185.855 123.73 187.906C123.73 189.957 124.036 191.862 124.646 193.621C125.266 195.38 126.105 196.861 127.162 198.064C128.219 199.268 129.464 200.211 130.895 200.895C132.335 201.569 133.857 201.906 135.461 201.906C137.065 201.906 138.587 201.569 140.027 200.895C141.467 200.211 142.716 199.268 143.773 198.064C144.84 196.861 145.683 195.38 146.303 193.621C146.923 191.862 147.232 189.957 147.232 187.906C147.232 185.855 146.923 183.951 146.303 182.191C145.683 180.432 144.84 178.951 143.773 177.748C142.716 176.545 141.467 175.606 140.027 174.932C138.587 174.248 137.065 173.906 135.461 173.906C133.857 173.906 132.335 174.248 130.895 174.932C129.464 175.606 128.219 176.545 127.162 177.748C126.105 178.951 125.266 180.432 124.646 182.191ZM153.098 201.906V173.906H155.395C160.581 181.262 166.533 189.679 173.25 199.158C173.451 199.441 173.628 199.582 173.783 199.582C174.002 199.582 174.098 199.34 174.07 198.857L172.389 173.906H174.74V201.906H172.498C171.277 200.184 168.652 196.492 164.623 190.832C160.604 185.163 157.254 180.437 154.574 176.654C154.374 176.372 154.196 176.23 154.041 176.23C153.831 176.23 153.74 176.472 153.768 176.955L155.449 201.906H153.098Z" fill="#383637"/>
<path d="M1.808 237.906V226.706H2.784V237.906H1.808ZM6.24175 237.906V229.634H7.02575L7.10575 231.234C7.76175 230.05 8.91375 229.426 10.2418 229.426C12.4018 229.426 13.7298 230.946 13.7298 233.33V237.906H12.8018V233.41C12.8018 231.506 11.7778 230.322 10.1298 230.322C8.38575 230.322 7.16975 231.65 7.16975 233.618V237.906H6.24175ZM17.4793 228.674C17.4793 226.786 18.4073 225.858 20.2473 225.858H21.5433V226.738H20.3273C18.9833 226.738 18.4073 227.33 18.4073 228.738V229.634H21.4633V230.482H18.4073V237.906H17.4793V230.482H15.5913V229.634H17.4793V228.674ZM26.7175 238.114C24.1575 238.114 22.3655 236.322 22.3655 233.762C22.3655 231.218 24.1575 229.426 26.7175 229.426C29.2615 229.426 31.0535 231.218 31.0535 233.762C31.0535 236.322 29.2615 238.114 26.7175 238.114ZM23.2935 233.762C23.2935 235.81 24.6855 237.218 26.7175 237.218C28.7335 237.218 30.1255 235.81 30.1255 233.762C30.1255 231.73 28.7335 230.322 26.7175 230.322C24.6855 230.322 23.2935 231.73 23.2935 233.762ZM33.6324 237.906V229.634H34.4164L34.5124 231.49C35.0724 230.242 36.0164 229.634 37.5524 229.634H38.2404V230.498H37.5204C35.7444 230.498 34.5604 231.586 34.5604 234.098V237.906H33.6324ZM40.5699 237.906V229.634H41.3539L41.4339 230.978C42.0099 229.97 43.0179 229.426 44.2979 229.426C45.7379 229.426 46.8419 230.146 47.3219 231.41C47.8819 230.146 49.0179 229.426 50.4739 229.426C52.5539 229.426 53.8979 230.85 53.8979 233.154V237.906H52.9699V233.298C52.9699 231.458 51.9459 230.322 50.3619 230.322C48.7459 230.322 47.6899 231.49 47.6899 233.362V237.906H46.7619V233.298C46.7619 231.458 45.7539 230.322 44.1699 230.322C42.5539 230.322 41.4979 231.49 41.4979 233.362V237.906H40.5699ZM60.5114 238.114C57.9994 238.114 56.2874 236.338 56.2874 233.762C56.2874 231.202 58.0154 229.426 60.5274 229.426C63.1354 229.426 64.8154 231.346 64.7514 234.146H57.2314C57.3914 236.018 58.6714 237.234 60.5114 237.234C61.8554 237.234 62.9274 236.61 63.4714 235.538L64.5114 235.554C63.8714 237.138 62.3674 238.114 60.5114 238.114ZM57.2314 233.33H63.8394C63.6154 231.458 62.3354 230.306 60.5274 230.306C58.6874 230.306 57.3914 231.506 57.2314 233.33ZM70.8086 238.114C68.3126 238.114 66.5686 236.274 66.5686 233.762C66.5686 231.25 68.3126 229.426 70.8086 229.426C72.3286 229.426 73.5606 230.098 74.2966 231.17V226.066H75.2246V237.906H74.4566L74.3446 236.274C73.6246 237.41 72.3606 238.114 70.8086 238.114ZM67.4966 233.762C67.4966 235.794 68.8886 237.218 70.9206 237.218C72.9366 237.218 74.3286 235.794 74.3286 233.762C74.3286 231.746 72.9366 230.322 70.9206 230.322C68.8886 230.322 67.4966 231.746 67.4966 233.762ZM87.4071 238.114C84.1111 238.114 81.7271 235.714 81.7271 232.306C81.7271 228.898 84.1111 226.498 87.4071 226.498C89.9671 226.498 92.0631 227.986 92.7991 230.338H91.7751C91.1351 228.562 89.4711 227.474 87.4231 227.474C84.6871 227.474 82.7191 229.442 82.7191 232.306C82.7191 235.17 84.6871 237.138 87.4231 237.138C89.5191 237.138 91.2471 236.002 91.8711 234.146H92.8951C92.2071 236.562 90.0471 238.114 87.4071 238.114ZM99.03 238.114C96.47 238.114 94.678 236.322 94.678 233.762C94.678 231.218 96.47 229.426 99.03 229.426C101.574 229.426 103.366 231.218 103.366 233.762C103.366 236.322 101.574 238.114 99.03 238.114ZM95.606 233.762C95.606 235.81 96.998 237.218 99.03 237.218C101.046 237.218 102.438 235.81 102.438 233.762C102.438 231.73 101.046 230.322 99.03 230.322C96.998 230.322 95.606 231.73 95.606 233.762ZM105.945 237.906V229.634H106.729L106.809 231.234C107.465 230.05 108.617 229.426 109.945 229.426C112.105 229.426 113.433 230.946 113.433 233.33V237.906H112.505V233.41C112.505 231.506 111.481 230.322 109.833 230.322C108.089 230.322 106.873 231.65 106.873 233.618V237.906H105.945ZM119.402 238.114C117.306 238.114 115.978 237.058 115.914 235.41H116.826C116.922 236.578 117.834 237.266 119.418 237.266C120.874 237.266 121.754 236.706 121.754 235.794C121.754 234.93 120.97 234.402 119.21 234.098C117.05 233.73 116.074 232.962 116.074 231.698C116.074 230.29 117.274 229.426 119.21 229.426C121.162 229.426 122.394 230.354 122.522 231.938H121.594C121.498 230.85 120.65 230.258 119.21 230.258C117.834 230.258 117.002 230.818 117.002 231.714C117.002 232.53 117.69 232.978 119.53 233.33C121.626 233.73 122.666 234.562 122.666 235.81C122.666 237.202 121.402 238.114 119.402 238.114ZM128.855 238.114C126.343 238.114 124.631 236.338 124.631 233.762C124.631 231.202 126.359 229.426 128.871 229.426C131.479 229.426 133.159 231.346 133.095 234.146H125.575C125.735 236.018 127.015 237.234 128.855 237.234C130.199 237.234 131.271 236.61 131.815 235.538L132.855 235.554C132.215 237.138 130.711 238.114 128.855 238.114ZM125.575 233.33H132.183C131.959 231.458 130.679 230.306 128.871 230.306C127.031 230.306 125.735 231.506 125.575 233.33ZM135.632 237.906V229.634H136.416L136.496 231.234C137.152 230.05 138.304 229.426 139.632 229.426C141.792 229.426 143.12 230.946 143.12 233.33V237.906H142.192V233.41C142.192 231.506 141.168 230.322 139.52 230.322C137.776 230.322 136.56 231.65 136.56 233.618V237.906H135.632ZM149.336 237.906C147.576 237.906 146.632 236.914 146.632 235.042V230.482H144.824V229.634H145.88C146.504 229.634 146.68 229.474 146.744 228.866L146.824 227.602H147.56V229.634H150.424V230.482H147.56V235.01C147.56 236.37 148.12 237.01 149.368 237.01H150.536V237.906H149.336ZM160.196 237.906C158.436 237.906 157.492 236.914 157.492 235.042V230.482H155.684V229.634H156.74C157.364 229.634 157.539 229.474 157.604 228.866L157.684 227.602H158.42V229.634H161.284V230.482H158.42V235.01C158.42 236.37 158.98 237.01 160.228 237.01H161.396V237.906H160.196ZM167.108 238.114C164.548 238.114 162.756 236.322 162.756 233.762C162.756 231.218 164.548 229.426 167.108 229.426C169.652 229.426 171.444 231.218 171.444 233.762C171.444 236.322 169.652 238.114 167.108 238.114ZM163.684 233.762C163.684 235.81 165.076 237.218 167.108 237.218C169.124 237.218 170.516 235.81 170.516 233.762C170.516 231.73 169.124 230.322 167.108 230.322C165.076 230.322 163.684 231.73 163.684 233.762ZM179.902 237.906V227.634H176.046V226.706H184.734V227.634H180.862V237.906H179.902ZM185.242 237.906V229.634H186.026L186.122 231.49C186.682 230.242 187.626 229.634 189.162 229.634H189.85V230.498H189.13C187.354 230.498 186.17 231.586 186.17 234.098V237.906H185.242ZM195.043 238.114C192.531 238.114 190.819 236.338 190.819 233.762C190.819 231.202 192.547 229.426 195.059 229.426C197.667 229.426 199.347 231.346 199.283 234.146H191.763C191.923 236.018 193.203 237.234 195.043 237.234C196.387 237.234 197.459 236.61 198.003 235.538L199.043 235.554C198.403 237.138 196.899 238.114 195.043 238.114ZM191.763 233.33H198.371C198.147 231.458 196.867 230.306 195.059 230.306C193.219 230.306 191.923 231.506 191.763 233.33ZM204.303 238.034C202.383 238.034 201.183 237.09 201.183 235.57C201.183 234.098 202.303 233.17 203.999 233.17H207.647V232.578C207.647 231.202 206.639 230.29 205.103 230.29C203.855 230.29 202.879 230.93 202.543 231.922H201.599C201.999 230.386 203.327 229.426 205.087 229.426C207.151 229.426 208.575 230.69 208.575 232.53V237.906H207.807L207.711 236.482C206.991 237.474 205.775 238.034 204.303 238.034ZM202.111 235.554C202.111 236.562 202.959 237.202 204.335 237.202C206.255 237.202 207.663 236.002 207.663 234.338V233.986H204.031C202.895 233.986 202.111 234.61 202.111 235.554ZM214.789 237.906C213.029 237.906 212.085 236.914 212.085 235.042V230.482H210.277V229.634H211.333C211.957 229.634 212.133 229.474 212.197 228.866L212.277 227.602H213.013V229.634H215.877V230.482H213.013V235.01C213.013 236.37 213.573 237.01 214.821 237.01H215.989V237.906H214.789ZM218.476 237.906V229.634H219.26L219.34 230.978C219.916 229.97 220.924 229.426 222.204 229.426C223.644 229.426 224.748 230.146 225.228 231.41C225.788 230.146 226.924 229.426 228.38 229.426C230.46 229.426 231.804 230.85 231.804 233.154V237.906H230.876V233.298C230.876 231.458 229.852 230.322 228.268 230.322C226.652 230.322 225.596 231.49 225.596 233.362V237.906H224.668V233.298C224.668 231.458 223.66 230.322 222.076 230.322C220.46 230.322 219.404 231.49 219.404 233.362V237.906H218.476ZM238.418 238.114C235.906 238.114 234.194 236.338 234.194 233.762C234.194 231.202 235.922 229.426 238.434 229.426C241.042 229.426 242.722 231.346 242.658 234.146H235.138C235.298 236.018 236.578 237.234 238.418 237.234C239.762 237.234 240.834 236.61 241.378 235.538L242.418 235.554C241.778 237.138 240.274 238.114 238.418 238.114ZM235.138 233.33H241.746C241.522 231.458 240.242 230.306 238.434 230.306C236.594 230.306 235.298 231.506 235.138 233.33ZM245.195 237.906V229.634H245.979L246.059 231.234C246.715 230.05 247.867 229.426 249.195 229.426C251.355 229.426 252.683 230.946 252.683 233.33V237.906H251.755V233.41C251.755 231.506 250.731 230.322 249.083 230.322C247.339 230.322 246.123 231.65 246.123 233.618V237.906H245.195ZM258.899 237.906C257.139 237.906 256.195 236.914 256.195 235.042V230.482H254.387V229.634H255.443C256.067 229.634 256.243 229.474 256.307 228.866L256.387 227.602H257.123V229.634H259.987V230.482H257.123V235.01C257.123 236.37 257.683 237.01 258.931 237.01H260.099V237.906H258.899Z" fill="#5B5852"/>
</svg>
