<svg width="366" height="284" viewBox="0 0 366 284" fill="none" xmlns="http://www.w3.org/2000/svg">
<path d="M39.9453 0.321289C39.6338 1.16044 39.3391 1.99171 39.0156 2.74316C37.3342 6.65348 35.4723 10.4771 33.9385 14.4443C32.7574 17.4977 31.6991 20.6355 30.6328 23.7188C31.3354 23.7132 31.259 22.7499 31.4941 22.2021C31.6174 21.9172 32.0982 21.1689 32.3633 21.0469C32.7734 20.8598 33.5277 21.1803 33.4648 21.625C32.642 23.5828 32.2598 25.6845 31.5244 27.6748C30.9011 29.3615 30.3349 31.0402 29.7197 32.7432C27.8688 37.8601 25.5552 42.9445 23.8164 48.0615C21.3449 55.337 19.42 62.8133 16.6504 69.9912C15.4803 73.0229 14.8241 76.0493 13.8535 79.1162C13.2794 80.9276 12.3035 83.3685 12.041 85.1826C11.9864 85.5649 12.0908 85.9961 12.0088 86.3594C11.954 86.5953 11.5984 87.029 11.4727 87.3408C10.7727 89.0872 10.0205 92.7534 9.71973 94.6787C9.63498 95.2237 9.64093 96.753 9.46875 97.0488C9.30749 97.3226 9.13502 97.2523 9.08301 96.9678C8.99552 96.477 9.04434 95.0989 9.07715 94.543C9.17013 93.0326 9.56976 91.4976 9.78027 89.998C9.94699 88.8106 9.85908 88.6555 10.3184 87.5059C10.7776 86.3535 10.9012 85.4557 11.1035 84.249C12.2136 77.5973 14.6663 71.7294 16.375 65.2783C16.6949 64.0662 17.2227 62.3848 17.3184 61.1699C17.3266 61.0587 17.3944 60.7961 17.2197 60.8203C15.0243 69.0448 11.8476 76.9819 9.62207 85.1982C8.86474 87.9995 8.15387 90.8419 7.86133 93.7354C7.81217 94.2153 7.91834 94.7605 7.85547 95.2432C7.78431 95.7935 7.47853 96.4821 7.38281 97.0947C7.0192 99.4647 7.0871 103.687 7.98926 105.916C8.77393 107.855 9.73689 107.977 11.1641 109.219C11.6341 109.628 12.2528 110.357 12.9062 110.906H0V45.7666C0 22.4516 17.4142 3.20438 39.9453 0.321289ZM50.0527 77.2129C50.1184 77.137 50.441 76.6321 50.5586 76.7568C47.7972 82.1179 45.3284 87.7611 44.1035 93.6943C42.9005 99.5164 43.056 103.598 45.9678 108.889C46.3353 109.556 46.9382 110.255 47.6699 110.906H16.7666C18.7844 110.166 21.1762 109.112 22.8105 108.159C23.1084 107.986 24.3901 107.129 24.4922 106.896C24.5441 106.776 24.2899 106.675 24.3418 106.461C24.4214 106.133 25.1152 105.767 25.293 105.577C25.6483 105.198 25.8808 104.696 26.3125 104.271C26.5886 103.997 27.7477 103.018 28.0488 102.969C28.8827 102.833 30.157 103.831 30.1133 102.627C29.1618 102.041 29.5202 101.447 30.5127 101.371C30.7918 101.35 31.6414 101.821 31.5107 101.149C31.3494 100.32 31.1636 100.29 31.9072 99.6416C33.1402 98.5678 35.1169 97.4341 35.4014 95.6445C35.4369 95.4141 35.2016 95.2215 35.5186 94.9531C36.3169 94.2779 37.894 95.0664 38.3916 93.6699C38.4709 93.4503 38.4463 93.1356 38.5557 92.9512C38.6186 92.8454 38.8569 92.7883 38.9717 92.6338C39.3732 92.0832 39.0835 90.8335 39.1709 90.1611L38.5615 90.0088L39.1191 89.5586C39.3267 89.6426 39.2399 90.0244 39.2725 90.0576C39.3244 90.1119 39.8578 90.0332 39.959 89.9355C40.0385 89.855 40.234 89.2001 40.1855 89.1553H39.7285C39.5344 88.8109 40.0708 88.6075 40.2295 88.3418C40.3498 88.1385 40.355 87.8671 40.4697 87.6719C41.197 86.4489 42.4302 85.9171 43.3379 84.9707C43.6058 84.6914 43.756 84.3361 44.0977 84.0107C44.2917 83.8264 44.6309 83.6939 44.7568 83.5557C44.94 83.3523 44.9129 83.0536 45.0469 82.834C45.7523 81.6599 47.4198 80.4534 48.374 79.377C48.9755 78.6964 49.465 77.9071 50.0527 77.2129ZM47.9854 0C72.2842 1.13123 91.6377 21.188 91.6377 45.7666V110.906H62.749C63.428 110.409 63.8634 109.705 64.5977 109.181C65.6665 108.419 66.9378 108.08 67.9766 107.392C74.2649 103.21 80.7424 96.9481 85.6309 91.2236C87.438 89.1085 90.2399 86.0147 91.123 83.4658C91.3773 82.7337 91.6917 81.9826 91.6289 81.1963L91.6348 81.1904C91.4926 81.1796 91.3584 81.1902 91.2217 81.2363C90.8362 81.3719 88.4033 84.0919 87.9219 84.6182C82.2706 90.7873 77.1112 97.8434 69.9727 102.407C66.2571 104.783 62.4297 106.35 58.3916 108.062C56.579 108.829 52.9811 109.308 51.0508 108.988C49.2819 108.695 48.716 108.46 48.2539 106.719C47.8875 105.341 47.3264 102.261 47.3154 100.886C47.31 100.04 47.7477 98.9331 47.9062 98.0654C49.2624 90.5947 52.9266 81.6701 57.249 75.3682C59.2202 72.4913 61.178 70.7337 63.5264 68.2852C64.4858 67.2846 65.2291 66.0833 66.1641 65.0557C68.0751 62.9568 70.3718 61.2349 72.7285 59.6621L72.9502 59.6299C73.713 59.9905 74.4239 60.0558 74.957 60.7744C76.8786 63.3614 72.8762 67.1357 71.583 69.2236C71.4135 69.5599 71.3731 70.0757 71.6328 70.374C71.7726 70.5364 72.2417 70.6796 72.4658 70.7041C73.0973 70.7746 75.0087 70.7914 75.6104 70.6992C77.2945 70.4389 79.4707 66.0971 79.6895 64.5596C80.2854 60.3647 77.3085 57.5312 73.3525 56.9209C71.7834 56.6796 71.7937 56.994 70.5283 57.1865C68.8469 57.4441 68.0943 57.0377 66.3828 58.0166C62.7247 60.1156 57.8578 65.3436 55.3535 68.7549C54.0249 70.5662 53.0904 72.7115 51.625 74.333C50.5615 75.5126 49.3366 76.5809 48.2676 77.7578C46.4221 79.7916 44.7673 82.0095 42.8809 84.0107C41.3006 85.692 39.4257 87.2436 37.8975 88.9492C34.696 92.5205 31.8002 95.4244 28.041 98.4316C27.2563 99.0581 26.6081 99.8472 25.8535 100.498C23.2809 102.708 19.9129 105.255 16.9355 106.879C15.6123 107.6 14.1849 108.646 13.3701 106.824C12.5583 105.004 12.7682 100.744 12.9404 98.6836C13.0171 97.7673 13.4496 96.9052 13.5371 95.9482C13.6574 94.6385 13.5479 93.6317 13.9307 92.3057C14.286 91.0776 14.521 90.3237 14.7998 89.0332C15.2919 86.7581 16.0161 85.1254 16.6504 83.0049C17.7549 79.3142 18.5732 75.4827 19.8555 71.8652C21.9743 65.8861 23.7152 59.7791 25.8477 53.8135C28.5325 46.3075 31.683 38.9531 34.417 31.458C35.2481 29.1748 36.1558 26.9319 37.0088 24.6514C38.9035 19.5723 40.8413 14.4411 43.25 9.56543C44.2233 7.59137 45.399 6.17859 46.4707 4.3916C46.8665 3.73277 47.6789 1.32218 47.9854 0ZM8.88867 99.9854H8.8916L8.58301 100.04C8.38895 99.7039 8.60436 99.3915 8.98145 99.3398L8.88867 99.9854ZM37.0908 91.4736C37.2136 91.4086 37.2818 91.3355 37.4482 91.376C37.4018 91.7013 37.5632 92.2946 37.3477 92.5361L37.1641 92.6699C36.8562 92.8839 36.271 93.273 36.1992 93.3096C35.8958 93.4641 35.5509 93.5183 35.2119 93.4912C34.9774 93.282 36.8229 91.6119 37.0908 91.4736ZM47.4385 87.3135C47.2581 87.7934 46.873 86.7859 47.4111 86.8369L47.4385 87.3135ZM47.7207 85.2256C47.9665 85.1797 48.0021 85.4263 48.125 85.5781H48.1221L47.9717 85.7275L47.7314 85.5645L47.7207 85.2256ZM48.4287 83.3086C48.5244 83.2463 48.7645 83.3306 48.8301 83.458L48.4775 84.1113C48.2126 84.0297 48.3713 83.3436 48.4287 83.3057V83.3086ZM50.46 79.9814C50.4846 80.3584 50.4815 80.9518 49.9512 80.8867C49.9293 80.461 49.9187 79.9815 50.46 79.9814ZM51.2666 77.9229C51.286 77.8229 51.5444 77.8499 51.5752 77.8662C51.7801 77.999 51.5594 78.5652 51.3271 78.666C51.0565 78.4708 51.19 78.164 51.2666 77.9199V77.9229ZM53.3086 74.5361C53.2813 74.8588 53.4396 75.092 53.3467 75.4229C53.2236 75.8648 52.6884 76.2196 52.5381 75.6475C52.4539 75.3272 53.1908 74.3957 53.3086 74.5361ZM35.2891 13.8584C36.1035 13.6905 35.9966 14.6499 35.4443 14.7285C34.843 14.815 34.6439 13.9913 35.2891 13.8584ZM36.7402 11.8223C36.5762 11.1226 36.4427 10.2845 37.457 10.5557C37.7604 11.117 37.4155 11.8412 36.7402 11.8223Z" fill="#778059"/>
<path d="M2.10547 153.773C1.63151 152.242 1.39453 150.62 1.39453 148.906C1.39453 147.193 1.63151 145.575 2.10547 144.053C2.57943 142.521 3.24479 141.173 4.10156 140.006C4.95833 138.83 5.96094 137.818 7.10938 136.971C8.26693 136.114 9.54753 135.462 10.9512 135.016C12.3639 134.569 13.8359 134.346 15.3672 134.346C16.6615 134.346 17.9238 134.464 19.1543 134.701C20.3939 134.938 21.5195 135.275 22.5312 135.713C23.5521 136.15 24.3724 136.725 24.9922 137.436C25.612 138.146 25.9219 138.935 25.9219 139.801C25.9219 140.102 25.8763 140.361 25.7852 140.58C25.7031 140.79 25.5983 140.945 25.4707 141.045C25.3522 141.136 25.2292 141.209 25.1016 141.264C24.9831 141.309 24.8828 141.332 24.8008 141.332L24.6641 141.346C24.5547 140.571 24.2311 139.796 23.6934 139.021C23.1556 138.247 22.4766 137.559 21.6562 136.957C20.8451 136.346 19.8835 135.854 18.7715 135.48C17.6595 135.098 16.5247 134.906 15.3672 134.906C13.763 134.906 12.2409 135.248 10.8008 135.932C9.36979 136.606 8.12565 137.545 7.06836 138.748C6.01107 139.951 5.17253 141.432 4.55273 143.191C3.94206 144.951 3.63672 146.855 3.63672 148.906C3.63672 150.957 3.94206 152.862 4.55273 154.621C5.17253 156.38 6.01107 157.861 7.06836 159.064C8.12565 160.268 9.36979 161.211 10.8008 161.895C12.2409 162.569 13.763 162.906 15.3672 162.906C16.4245 162.906 17.4954 162.733 18.5801 162.387C19.6738 162.04 20.681 161.576 21.6016 160.992C22.5221 160.4 23.3652 159.748 24.1309 159.037C24.9056 158.317 25.571 157.561 26.127 156.768V159.912C25.4434 160.942 24.0807 161.794 22.0391 162.469C19.9974 163.134 17.7734 163.467 15.3672 163.467C13.8359 163.467 12.3639 163.243 10.9512 162.797C9.54753 162.35 8.26693 161.703 7.10938 160.855C5.96094 159.999 4.95833 158.987 4.10156 157.82C3.24479 156.645 2.57943 155.296 2.10547 153.773ZM42.875 163.467C41.3438 163.467 39.8717 163.243 38.459 162.797C37.0553 162.35 35.7747 161.703 34.6172 160.855C33.4688 159.999 32.4661 158.987 31.6094 157.82C30.7526 156.645 30.0872 155.296 29.6133 153.773C29.1393 152.242 28.9023 150.62 28.9023 148.906C28.9023 147.193 29.1393 145.575 29.6133 144.053C30.0872 142.521 30.7526 141.173 31.6094 140.006C32.4661 138.83 33.4688 137.818 34.6172 136.971C35.7747 136.114 37.0553 135.462 38.459 135.016C39.8717 134.569 41.3438 134.346 42.875 134.346C44.7891 134.346 46.5983 134.701 48.3027 135.412C50.0163 136.114 51.502 137.089 52.7598 138.338C54.0267 139.587 55.0293 141.127 55.7676 142.959C56.5059 144.791 56.875 146.773 56.875 148.906C56.875 151.039 56.5059 153.021 55.7676 154.854C55.0293 156.686 54.0267 158.226 52.7598 159.475C51.502 160.723 50.0163 161.703 48.3027 162.414C46.5983 163.116 44.7891 163.467 42.875 163.467ZM32.0605 143.191C31.4499 144.951 31.1445 146.855 31.1445 148.906C31.1445 150.957 31.4499 152.862 32.0605 154.621C32.6803 156.38 33.5189 157.861 34.5762 159.064C35.6335 160.268 36.8776 161.211 38.3086 161.895C39.7487 162.569 41.2708 162.906 42.875 162.906C44.4792 162.906 46.0013 162.569 47.4414 161.895C48.8815 161.211 50.1302 160.268 51.1875 159.064C52.2539 157.861 53.097 156.38 53.7168 154.621C54.3366 152.862 54.6465 150.957 54.6465 148.906C54.6465 146.855 54.3366 144.951 53.7168 143.191C53.097 141.432 52.2539 139.951 51.1875 138.748C50.1302 137.545 48.8815 136.606 47.4414 135.932C46.0013 135.248 44.4792 134.906 42.875 134.906C41.2708 134.906 39.7487 135.248 38.3086 135.932C36.8776 136.606 35.6335 137.545 34.5762 138.748C33.5189 139.951 32.6803 141.432 32.0605 143.191ZM60.5117 162.906V134.906H62.8086C67.9948 142.262 73.9466 150.679 80.6641 160.158C80.8646 160.441 81.0423 160.582 81.1973 160.582C81.416 160.582 81.5117 160.34 81.4844 159.857L79.8027 134.906H82.1543V162.906H79.9121C78.6908 161.184 76.0658 157.492 72.0371 151.832C68.0176 146.163 64.668 141.437 61.9883 137.654C61.7878 137.372 61.61 137.23 61.4551 137.23C61.2454 137.23 61.1543 137.472 61.1816 137.955L62.8633 162.906H60.5117ZM85.9277 157C85.9277 156.271 86.1283 155.669 86.5293 155.195C86.9395 154.721 87.4271 154.484 87.9922 154.484C88.4388 154.484 88.8398 154.639 89.1953 154.949C88.4479 155.204 88.0742 155.824 88.0742 156.809C88.0742 157.802 88.5117 158.773 89.3867 159.721C90.2617 160.66 91.4284 161.425 92.8867 162.018C94.3542 162.61 95.8854 162.906 97.4805 162.906C98.4557 162.906 99.3945 162.815 100.297 162.633C101.199 162.441 102.038 162.154 102.812 161.771C103.596 161.389 104.275 160.924 104.85 160.377C105.424 159.83 105.875 159.174 106.203 158.408C106.531 157.643 106.695 156.809 106.695 155.906C106.695 155.186 106.59 154.535 106.381 153.951C106.18 153.368 105.925 152.871 105.615 152.461C105.305 152.051 104.877 151.682 104.33 151.354C103.792 151.016 103.273 150.747 102.771 150.547C102.279 150.337 101.65 150.141 100.885 149.959C100.128 149.777 99.4629 149.635 98.8887 149.535C98.3145 149.435 97.599 149.316 96.7422 149.18C95.9766 149.061 95.3978 148.97 95.0059 148.906C94.6139 148.842 94.0671 148.738 93.3652 148.592C92.6634 148.446 92.1211 148.314 91.7383 148.195C91.3555 148.068 90.877 147.895 90.3027 147.676C89.7285 147.457 89.2819 147.229 88.9629 146.992C88.6439 146.755 88.293 146.464 87.9102 146.117C87.5273 145.771 87.2357 145.402 87.0352 145.01C86.8438 144.609 86.6797 144.144 86.543 143.615C86.4062 143.087 86.3379 142.517 86.3379 141.906C86.3379 140.849 86.5566 139.892 86.9941 139.035C87.4316 138.169 88.0104 137.454 88.7305 136.889C89.4596 136.314 90.3073 135.831 91.2734 135.439C92.2487 135.048 93.2513 134.77 94.2812 134.605C95.3112 134.432 96.3685 134.346 97.4531 134.346C98.3828 134.346 99.3125 134.4 100.242 134.51C101.172 134.619 102.092 134.801 103.004 135.057C103.924 135.303 104.736 135.608 105.438 135.973C106.139 136.337 106.704 136.802 107.133 137.367C107.57 137.932 107.789 138.557 107.789 139.24C107.789 140.225 107.415 140.844 106.668 141.1C106.404 139.833 105.793 138.725 104.836 137.777C103.888 136.829 102.73 136.114 101.363 135.631C100.005 135.148 98.5469 134.906 96.9883 134.906C94.2995 134.906 92.1849 135.503 90.6445 136.697C89.1042 137.882 88.334 139.573 88.334 141.77C88.334 142.326 88.4342 142.827 88.6348 143.273C88.8444 143.72 89.1589 144.103 89.5781 144.422C90.0065 144.741 90.4577 145.014 90.9316 145.242C91.4147 145.47 92.0163 145.675 92.7363 145.857C93.4564 146.04 94.1217 146.19 94.7324 146.309C95.3522 146.427 96.0996 146.564 96.9746 146.719C97.804 146.855 98.4329 146.965 98.8613 147.047C99.2897 147.129 99.8958 147.257 100.68 147.43C101.464 147.594 102.074 147.753 102.512 147.908C102.949 148.054 103.492 148.255 104.139 148.51C104.786 148.765 105.296 149.029 105.67 149.303C106.044 149.576 106.449 149.913 106.887 150.314C107.333 150.715 107.671 151.144 107.898 151.6C108.126 152.055 108.318 152.584 108.473 153.186C108.637 153.787 108.719 154.434 108.719 155.127C108.719 156.239 108.509 157.26 108.09 158.189C107.671 159.11 107.101 159.894 106.381 160.541C105.661 161.179 104.818 161.721 103.852 162.168C102.895 162.615 101.878 162.943 100.803 163.152C99.7272 163.362 98.6198 163.467 97.4805 163.467C95.2201 163.467 93.2103 163.198 91.4512 162.66C89.7012 162.113 88.3431 161.352 87.377 160.377C86.4108 159.393 85.9277 158.267 85.9277 157ZM112.246 162.906V134.906H131.646V137.395C130.206 136.911 127.859 136.469 124.605 136.068C121.361 135.667 118.471 135.467 115.938 135.467C115.409 135.467 115.031 135.604 114.803 135.877C114.575 136.141 114.461 136.638 114.461 137.367V146.213C114.461 146.632 114.589 146.974 114.844 147.238C115.099 147.493 115.436 147.621 115.855 147.621H128.898V149.973C127.221 149.562 125.016 149.18 122.281 148.824C119.547 148.469 117.414 148.291 115.883 148.291C115.454 148.291 115.113 148.396 114.857 148.605C114.611 148.815 114.488 149.12 114.488 149.521L114.461 160.445C114.461 161.174 114.575 161.676 114.803 161.949C115.031 162.214 115.409 162.346 115.938 162.346C118.471 162.346 121.361 162.145 124.605 161.744C127.859 161.343 130.206 160.901 131.646 160.418V162.906H112.246ZM135.57 162.906V134.906H137.867C143.053 142.262 149.005 150.679 155.723 160.158C155.923 160.441 156.101 160.582 156.256 160.582C156.475 160.582 156.57 160.34 156.543 159.857L154.861 134.906H157.213V162.906H154.971C153.749 161.184 151.124 157.492 147.096 151.832C143.076 146.163 139.727 141.437 137.047 137.654C136.846 137.372 136.669 137.23 136.514 137.23C136.304 137.23 136.213 137.472 136.24 137.955L137.922 162.906H135.57ZM161.123 134.906H182.684V137.395C181.635 136.939 180.168 136.506 178.281 136.096C176.404 135.676 175.146 135.467 174.508 135.467C173.979 135.467 173.596 135.604 173.359 135.877C173.132 136.141 173.018 136.638 173.018 137.367V162.906H170.775V137.367C170.775 136.638 170.661 136.141 170.434 135.877C170.206 135.604 169.827 135.467 169.299 135.467C168.661 135.467 167.398 135.676 165.512 136.096C163.634 136.506 162.171 136.939 161.123 137.395V134.906ZM194.428 134.906H215.988V137.395C214.94 136.939 213.473 136.506 211.586 136.096C209.708 135.676 208.451 135.467 207.812 135.467C207.284 135.467 206.901 135.604 206.664 135.877C206.436 136.141 206.322 136.638 206.322 137.367V162.906H204.08V137.367C204.08 136.638 203.966 136.141 203.738 135.877C203.51 135.604 203.132 135.467 202.604 135.467C201.965 135.467 200.703 135.676 198.816 136.096C196.939 136.506 195.476 136.939 194.428 137.395V134.906ZM229.934 163.467C228.402 163.467 226.93 163.243 225.518 162.797C224.114 162.35 222.833 161.703 221.676 160.855C220.527 159.999 219.525 158.987 218.668 157.82C217.811 156.645 217.146 155.296 216.672 153.773C216.198 152.242 215.961 150.62 215.961 148.906C215.961 147.193 216.198 145.575 216.672 144.053C217.146 142.521 217.811 141.173 218.668 140.006C219.525 138.83 220.527 137.818 221.676 136.971C222.833 136.114 224.114 135.462 225.518 135.016C226.93 134.569 228.402 134.346 229.934 134.346C231.848 134.346 233.657 134.701 235.361 135.412C237.075 136.114 238.561 137.089 239.818 138.338C241.085 139.587 242.088 141.127 242.826 142.959C243.564 144.791 243.934 146.773 243.934 148.906C243.934 151.039 243.564 153.021 242.826 154.854C242.088 156.686 241.085 158.226 239.818 159.475C238.561 160.723 237.075 161.703 235.361 162.414C233.657 163.116 231.848 163.467 229.934 163.467ZM219.119 143.191C218.508 144.951 218.203 146.855 218.203 148.906C218.203 150.957 218.508 152.862 219.119 154.621C219.739 156.38 220.577 157.861 221.635 159.064C222.692 160.268 223.936 161.211 225.367 161.895C226.807 162.569 228.329 162.906 229.934 162.906C231.538 162.906 233.06 162.569 234.5 161.895C235.94 161.211 237.189 160.268 238.246 159.064C239.312 157.861 240.156 156.38 240.775 154.621C241.395 152.862 241.705 150.957 241.705 148.906C241.705 146.855 241.395 144.951 240.775 143.191C240.156 141.432 239.312 139.951 238.246 138.748C237.189 137.545 235.94 136.606 234.5 135.932C233.06 135.248 231.538 134.906 229.934 134.906C228.329 134.906 226.807 135.248 225.367 135.932C223.936 136.606 222.692 137.545 221.635 138.748C220.577 139.951 219.739 141.432 219.119 143.191ZM2.24219 201.906V173.906H15.1211C16.1055 173.906 17.0124 174.007 17.8418 174.207C18.6803 174.408 19.3913 174.672 19.9746 175C20.5671 175.328 21.0911 175.72 21.5469 176.176C22.0117 176.622 22.3854 177.087 22.668 177.57C22.9505 178.044 23.1829 178.55 23.3652 179.088C23.5566 179.617 23.6842 180.109 23.748 180.564C23.821 181.02 23.8574 181.462 23.8574 181.891C23.8574 182.319 23.821 182.761 23.748 183.217C23.6842 183.663 23.5566 184.151 23.3652 184.68C23.1829 185.208 22.9505 185.71 22.668 186.184C22.3854 186.658 22.0117 187.122 21.5469 187.578C21.0911 188.025 20.5671 188.412 19.9746 188.74C19.3913 189.068 18.6803 189.337 17.8418 189.547C17.0124 189.747 16.1055 189.852 15.1211 189.861H14.3145C14.1048 189.861 13.9544 189.88 13.8633 189.916C13.7721 189.943 13.7357 189.993 13.7539 190.066C13.7721 190.13 13.8223 190.208 13.9043 190.299C13.9954 190.39 14.1322 190.508 14.3145 190.654C14.7793 191.019 15.2897 191.511 15.8457 192.131C16.4017 192.751 16.8848 193.329 17.2949 193.867C17.7142 194.405 18.3158 195.198 19.0996 196.246C19.1452 196.31 19.1816 196.365 19.209 196.41C19.2454 196.447 19.2865 196.497 19.332 196.561C19.3776 196.615 19.4186 196.67 19.4551 196.725C20.2663 197.818 21.1595 198.844 22.1348 199.801C23.11 200.749 23.944 201.451 24.6367 201.906H21.4785C20.9499 201.587 20.3757 201.118 19.7559 200.498C19.1361 199.869 18.5436 199.195 17.9785 198.475C17.4134 197.745 16.8301 196.98 16.2285 196.178C15.627 195.367 15.0391 194.592 14.4648 193.854C13.8906 193.115 13.3301 192.445 12.7832 191.844C12.2454 191.242 11.7031 190.764 11.1562 190.408C10.6185 190.044 10.1217 189.861 9.66602 189.861H7.16406V189.301H12.6602C15.4219 189.301 17.5319 188.649 18.9902 187.346C20.4577 186.033 21.1914 184.215 21.1914 181.891C21.1914 179.566 20.4577 177.748 18.9902 176.436C17.5319 175.123 15.4219 174.467 12.6602 174.467H5.93359C5.38672 174.467 5.00391 174.581 4.78516 174.809C4.56641 175.036 4.45703 175.51 4.45703 176.23L4.48438 201.906H2.24219ZM27.4531 201.906V173.906H46.8535V176.395C45.4134 175.911 43.0664 175.469 39.8125 175.068C36.5677 174.667 33.6784 174.467 31.1445 174.467C30.6159 174.467 30.2376 174.604 30.0098 174.877C29.7819 175.141 29.668 175.638 29.668 176.367V185.213C29.668 185.632 29.7956 185.974 30.0508 186.238C30.306 186.493 30.6432 186.621 31.0625 186.621H44.1055V188.973C42.4284 188.562 40.2227 188.18 37.4883 187.824C34.7539 187.469 32.6211 187.291 31.0898 187.291C30.6615 187.291 30.3197 187.396 30.0645 187.605C29.8184 187.815 29.6953 188.12 29.6953 188.521L29.668 199.445C29.668 200.174 29.7819 200.676 30.0098 200.949C30.2376 201.214 30.6159 201.346 31.1445 201.346C33.6784 201.346 36.5677 201.145 39.8125 200.744C43.0664 200.343 45.4134 199.901 46.8535 199.418V201.906H27.4531ZM49.5195 192.773C49.0456 191.242 48.8086 189.62 48.8086 187.906C48.8086 186.193 49.0456 184.575 49.5195 183.053C49.9935 181.521 50.6589 180.173 51.5156 179.006C52.3724 177.83 53.375 176.818 54.5234 175.971C55.681 175.114 56.9616 174.462 58.3652 174.016C59.778 173.569 61.25 173.346 62.7812 173.346C64.0755 173.346 65.3379 173.464 66.5684 173.701C67.8079 173.938 68.9336 174.275 69.9453 174.713C70.9661 175.15 71.7865 175.725 72.4062 176.436C73.026 177.146 73.3359 177.935 73.3359 178.801C73.3359 179.102 73.2904 179.361 73.1992 179.58C73.1172 179.79 73.0124 179.945 72.8848 180.045C72.7663 180.136 72.6432 180.209 72.5156 180.264C72.3971 180.309 72.2969 180.332 72.2148 180.332L72.0781 180.346C71.9688 179.571 71.6452 178.796 71.1074 178.021C70.5697 177.247 69.8906 176.559 69.0703 175.957C68.2591 175.346 67.2975 174.854 66.1855 174.48C65.0736 174.098 63.9388 173.906 62.7812 173.906C61.1771 173.906 59.6549 174.248 58.2148 174.932C56.7839 175.606 55.5397 176.545 54.4824 177.748C53.4251 178.951 52.5866 180.432 51.9668 182.191C51.3561 183.951 51.0508 185.855 51.0508 187.906C51.0508 189.957 51.3561 191.862 51.9668 193.621C52.5866 195.38 53.4251 196.861 54.4824 198.064C55.5397 199.268 56.7839 200.211 58.2148 200.895C59.6549 201.569 61.1771 201.906 62.7812 201.906C63.8385 201.906 64.9095 201.733 65.9941 201.387C67.0879 201.04 68.0951 200.576 69.0156 199.992C69.9362 199.4 70.7793 198.748 71.5449 198.037C72.3197 197.317 72.985 196.561 73.541 195.768V198.912C72.8574 199.942 71.4948 200.794 69.4531 201.469C67.4115 202.134 65.1875 202.467 62.7812 202.467C61.25 202.467 59.778 202.243 58.3652 201.797C56.9616 201.35 55.681 200.703 54.5234 199.855C53.375 198.999 52.3724 197.987 51.5156 196.82C50.6589 195.645 49.9935 194.296 49.5195 192.773ZM77.1641 201.906V173.906H96.5645V176.395C95.1243 175.911 92.7773 175.469 89.5234 175.068C86.2786 174.667 83.3893 174.467 80.8555 174.467C80.3268 174.467 79.9486 174.604 79.7207 174.877C79.4928 175.141 79.3789 175.638 79.3789 176.367V185.213C79.3789 185.632 79.5065 185.974 79.7617 186.238C80.0169 186.493 80.3542 186.621 80.7734 186.621H93.8164V188.973C92.1393 188.562 89.9336 188.18 87.1992 187.824C84.4648 187.469 82.332 187.291 80.8008 187.291C80.3724 187.291 80.0306 187.396 79.7754 187.605C79.5293 187.815 79.4062 188.12 79.4062 188.521L79.3789 199.445C79.3789 200.174 79.4928 200.676 79.7207 200.949C79.9486 201.214 80.3268 201.346 80.8555 201.346C83.3893 201.346 86.2786 201.145 89.5234 200.744C92.7773 200.343 95.1243 199.901 96.5645 199.418V201.906H77.1641ZM100.488 201.906V173.906H102.73V201.906H100.488ZM104.973 173.906H107.434L118.357 198.434C118.521 198.826 118.699 199.021 118.891 199.021C119.091 199.021 119.26 198.798 119.396 198.352L126.424 173.906H128.885L118.973 201.906H117.455L104.973 173.906ZM131.113 201.906V173.906H150.514V176.395C149.074 175.911 146.727 175.469 143.473 175.068C140.228 174.667 137.339 174.467 134.805 174.467C134.276 174.467 133.898 174.604 133.67 174.877C133.442 175.141 133.328 175.638 133.328 176.367V185.213C133.328 185.632 133.456 185.974 133.711 186.238C133.966 186.493 134.303 186.621 134.723 186.621H147.766V188.973C146.089 188.562 143.883 188.18 141.148 187.824C138.414 187.469 136.281 187.291 134.75 187.291C134.322 187.291 133.98 187.396 133.725 187.605C133.479 187.815 133.355 188.12 133.355 188.521L133.328 199.445C133.328 200.174 133.442 200.676 133.67 200.949C133.898 201.214 134.276 201.346 134.805 201.346C137.339 201.346 140.228 201.145 143.473 200.744C146.727 200.343 149.074 199.901 150.514 199.418V201.906H131.113ZM165.074 201.906H162.832V173.906H165.074V188.631C166.25 187.264 167.74 186.234 169.545 185.541C171.359 184.839 173.264 184.488 175.26 184.488C177.912 184.488 180.209 185.04 182.15 186.143V173.906H184.393V201.906H182.15V188.412C182.15 187.41 181.672 186.648 180.715 186.129C179.767 185.6 178.536 185.336 177.023 185.336C176.176 185.336 175.296 185.423 174.385 185.596C173.482 185.769 172.585 186.02 171.691 186.348C170.807 186.667 169.964 187.081 169.162 187.592C168.369 188.093 167.667 188.658 167.057 189.287C166.446 189.907 165.963 190.627 165.607 191.447C165.252 192.268 165.074 193.133 165.074 194.045V201.906ZM188.863 201.906V173.906H208.264V176.395C206.824 175.911 204.477 175.469 201.223 175.068C197.978 174.667 195.089 174.467 192.555 174.467C192.026 174.467 191.648 174.604 191.42 174.877C191.192 175.141 191.078 175.638 191.078 176.367V185.213C191.078 185.632 191.206 185.974 191.461 186.238C191.716 186.493 192.053 186.621 192.473 186.621H205.516V188.973C203.839 188.562 201.633 188.18 198.898 187.824C196.164 187.469 194.031 187.291 192.5 187.291C192.072 187.291 191.73 187.396 191.475 187.605C191.229 187.815 191.105 188.12 191.105 188.521L191.078 199.445C191.078 200.174 191.192 200.676 191.42 200.949C191.648 201.214 192.026 201.346 192.555 201.346C195.089 201.346 197.978 201.145 201.223 200.744C204.477 200.343 206.824 199.901 208.264 199.418V201.906H188.863ZM212.967 201.906H210.506L220.049 175.219L219.461 173.906H221.936L234.418 201.906H231.957L229.906 197.34C229.469 196.355 228.749 195.48 227.746 194.715C226.753 193.94 225.677 193.361 224.52 192.979C223.362 192.587 222.245 192.391 221.17 192.391C219.32 192.391 217.592 192.969 215.988 194.127C215.688 194.346 215.387 194.71 215.086 195.221C214.794 195.722 214.585 196.205 214.457 196.67L212.967 201.906ZM216.016 191.297C215.879 191.798 215.929 192.049 216.166 192.049C216.285 192.049 216.49 191.976 216.781 191.83C217.875 191.229 219.06 190.928 220.336 190.928C221.603 190.928 222.879 191.201 224.164 191.748C225.458 192.286 226.666 193.01 227.787 193.922C228.106 194.186 228.307 194.286 228.389 194.223C228.471 194.159 228.425 193.94 228.252 193.566L221.033 177.379C220.869 176.987 220.691 176.791 220.5 176.791C220.299 176.791 220.131 177.014 219.994 177.461L216.016 191.297ZM256.143 201.906H236.742V173.906H238.957V199.445C238.957 200.174 239.071 200.676 239.299 200.949C239.527 201.214 239.905 201.346 240.434 201.346C242.967 201.346 245.857 201.145 249.102 200.744C252.355 200.343 254.702 199.901 256.143 199.418V201.906ZM250.373 173.906H271.934V176.395C270.885 175.939 269.418 175.506 267.531 175.096C265.654 174.676 264.396 174.467 263.758 174.467C263.229 174.467 262.846 174.604 262.609 174.877C262.382 175.141 262.268 175.638 262.268 176.367V201.906H260.025V176.367C260.025 175.638 259.911 175.141 259.684 174.877C259.456 174.604 259.077 174.467 258.549 174.467C257.911 174.467 256.648 174.676 254.762 175.096C252.884 175.506 251.421 175.939 250.373 176.395V173.906ZM278.086 201.906H275.844V173.906H278.086V188.631C279.262 187.264 280.752 186.234 282.557 185.541C284.37 184.839 286.275 184.488 288.271 184.488C290.924 184.488 293.221 185.04 295.162 186.143V173.906H297.404V201.906H295.162V188.412C295.162 187.41 294.684 186.648 293.727 186.129C292.779 185.6 291.548 185.336 290.035 185.336C289.188 185.336 288.308 185.423 287.396 185.596C286.494 185.769 285.596 186.02 284.703 186.348C283.819 186.667 282.976 187.081 282.174 187.592C281.381 188.093 280.679 188.658 280.068 189.287C279.458 189.907 278.975 190.627 278.619 191.447C278.264 192.268 278.086 193.133 278.086 194.045V201.906ZM2.24219 240.906V212.906H4.48438V240.906H2.24219ZM8.96875 240.906V212.906H11.2656C16.4518 220.262 22.4036 228.679 29.1211 238.158C29.3216 238.441 29.4993 238.582 29.6543 238.582C29.873 238.582 29.9688 238.34 29.9414 237.857L28.2598 212.906H30.6113V240.906H28.3691C27.1478 239.184 24.5228 235.492 20.4941 229.832C16.4746 224.163 13.125 219.437 10.4453 215.654C10.2448 215.372 10.0671 215.23 9.91211 215.23C9.70247 215.23 9.61133 215.472 9.63867 215.955L11.3203 240.906H8.96875ZM37.3242 240.906H35.082V212.906H54.4824V215.395C53.0423 214.911 50.6953 214.469 47.4414 214.068C44.1966 213.667 41.3073 213.467 38.7734 213.467C38.2448 213.467 37.8665 213.604 37.6387 213.877C37.4108 214.141 37.2969 214.638 37.2969 215.367V224.213C37.2969 224.632 37.4245 224.974 37.6797 225.238C37.9349 225.493 38.2721 225.621 38.6914 225.621H51.7344V227.973C50.0573 227.562 47.8516 227.18 45.1172 226.824C42.3828 226.469 40.25 226.291 38.7188 226.291C38.2904 226.291 37.9486 226.396 37.6934 226.605C37.4473 226.815 37.3242 227.12 37.3242 227.521V240.906ZM70.4102 241.467C68.8789 241.467 67.4069 241.243 65.9941 240.797C64.5905 240.35 63.3099 239.703 62.1523 238.855C61.0039 237.999 60.0013 236.987 59.1445 235.82C58.2878 234.645 57.6224 233.296 57.1484 231.773C56.6745 230.242 56.4375 228.62 56.4375 226.906C56.4375 225.193 56.6745 223.575 57.1484 222.053C57.6224 220.521 58.2878 219.173 59.1445 218.006C60.0013 216.83 61.0039 215.818 62.1523 214.971C63.3099 214.114 64.5905 213.462 65.9941 213.016C67.4069 212.569 68.8789 212.346 70.4102 212.346C72.3242 212.346 74.1335 212.701 75.8379 213.412C77.5514 214.114 79.0371 215.089 80.2949 216.338C81.5618 217.587 82.5645 219.127 83.3027 220.959C84.041 222.791 84.4102 224.773 84.4102 226.906C84.4102 229.039 84.041 231.021 83.3027 232.854C82.5645 234.686 81.5618 236.226 80.2949 237.475C79.0371 238.723 77.5514 239.703 75.8379 240.414C74.1335 241.116 72.3242 241.467 70.4102 241.467ZM59.5957 221.191C58.985 222.951 58.6797 224.855 58.6797 226.906C58.6797 228.957 58.985 230.862 59.5957 232.621C60.2155 234.38 61.054 235.861 62.1113 237.064C63.1686 238.268 64.4128 239.211 65.8438 239.895C67.2839 240.569 68.806 240.906 70.4102 240.906C72.0143 240.906 73.5365 240.569 74.9766 239.895C76.4167 239.211 77.6654 238.268 78.7227 237.064C79.7891 235.861 80.6322 234.38 81.252 232.621C81.8717 230.862 82.1816 228.957 82.1816 226.906C82.1816 224.855 81.8717 222.951 81.252 221.191C80.6322 219.432 79.7891 217.951 78.7227 216.748C77.6654 215.545 76.4167 214.606 74.9766 213.932C73.5365 213.248 72.0143 212.906 70.4102 212.906C68.806 212.906 67.2839 213.248 65.8438 213.932C64.4128 214.606 63.1686 215.545 62.1113 216.748C61.054 217.951 60.2155 219.432 59.5957 221.191ZM88.0469 240.906V212.906H100.926C101.91 212.906 102.817 213.007 103.646 213.207C104.485 213.408 105.196 213.672 105.779 214C106.372 214.328 106.896 214.72 107.352 215.176C107.816 215.622 108.19 216.087 108.473 216.57C108.755 217.044 108.988 217.55 109.17 218.088C109.361 218.617 109.489 219.109 109.553 219.564C109.626 220.02 109.662 220.462 109.662 220.891C109.662 221.319 109.626 221.761 109.553 222.217C109.489 222.663 109.361 223.151 109.17 223.68C108.988 224.208 108.755 224.71 108.473 225.184C108.19 225.658 107.816 226.122 107.352 226.578C106.896 227.025 106.372 227.412 105.779 227.74C105.196 228.068 104.485 228.337 103.646 228.547C102.817 228.747 101.91 228.852 100.926 228.861H100.119C99.9095 228.861 99.7591 228.88 99.668 228.916C99.5768 228.943 99.5404 228.993 99.5586 229.066C99.5768 229.13 99.627 229.208 99.709 229.299C99.8001 229.39 99.9368 229.508 100.119 229.654C100.584 230.019 101.094 230.511 101.65 231.131C102.206 231.751 102.689 232.329 103.1 232.867C103.519 233.405 104.12 234.198 104.904 235.246C104.95 235.31 104.986 235.365 105.014 235.41C105.05 235.447 105.091 235.497 105.137 235.561C105.182 235.615 105.223 235.67 105.26 235.725C106.071 236.818 106.964 237.844 107.939 238.801C108.915 239.749 109.749 240.451 110.441 240.906H107.283C106.755 240.587 106.18 240.118 105.561 239.498C104.941 238.869 104.348 238.195 103.783 237.475C103.218 236.745 102.635 235.98 102.033 235.178C101.432 234.367 100.844 233.592 100.27 232.854C99.6953 232.115 99.1348 231.445 98.5879 230.844C98.0501 230.242 97.5078 229.764 96.9609 229.408C96.4232 229.044 95.9264 228.861 95.4707 228.861H92.9688V228.301H98.4648C101.227 228.301 103.337 227.649 104.795 226.346C106.262 225.033 106.996 223.215 106.996 220.891C106.996 218.566 106.262 216.748 104.795 215.436C103.337 214.123 101.227 213.467 98.4648 213.467H91.7383C91.1914 213.467 90.8086 213.581 90.5898 213.809C90.3711 214.036 90.2617 214.51 90.2617 215.23L90.2891 240.906H88.0469ZM115.609 240.906H113.258V212.906H115.555L124.797 230.215C124.988 230.589 125.202 230.775 125.439 230.775C125.658 230.775 125.863 230.579 126.055 230.188L134.148 212.906H136.719V240.906H134.367V215.955C134.367 215.718 134.335 215.536 134.271 215.408C134.208 215.271 134.126 215.203 134.025 215.203C133.87 215.203 133.715 215.354 133.561 215.654C133.415 215.919 132.608 217.614 131.141 220.74C129.682 223.857 128.256 226.911 126.861 229.9L124.77 234.385C118.362 222.363 115.017 216.119 114.734 215.654C114.579 215.354 114.415 215.203 114.242 215.203C114.142 215.203 114.06 215.271 113.996 215.408C113.941 215.545 113.919 215.727 113.928 215.955L115.609 240.906ZM141.982 240.906H139.521L149.064 214.219L148.477 212.906H150.951L163.434 240.906H160.973L158.922 236.34C158.484 235.355 157.764 234.48 156.762 233.715C155.768 232.94 154.693 232.361 153.535 231.979C152.378 231.587 151.261 231.391 150.186 231.391C148.335 231.391 146.608 231.969 145.004 233.127C144.703 233.346 144.402 233.71 144.102 234.221C143.81 234.722 143.6 235.205 143.473 235.67L141.982 240.906ZM145.031 230.297C144.895 230.798 144.945 231.049 145.182 231.049C145.3 231.049 145.505 230.976 145.797 230.83C146.891 230.229 148.076 229.928 149.352 229.928C150.618 229.928 151.895 230.201 153.18 230.748C154.474 231.286 155.682 232.01 156.803 232.922C157.122 233.186 157.322 233.286 157.404 233.223C157.486 233.159 157.441 232.94 157.268 232.566L150.049 216.379C149.885 215.987 149.707 215.791 149.516 215.791C149.315 215.791 149.146 216.014 149.01 216.461L145.031 230.297ZM158.471 212.906H180.031V215.395C178.983 214.939 177.516 214.506 175.629 214.096C173.751 213.676 172.493 213.467 171.855 213.467C171.327 213.467 170.944 213.604 170.707 213.877C170.479 214.141 170.365 214.638 170.365 215.367V240.906H168.123V215.367C168.123 214.638 168.009 214.141 167.781 213.877C167.553 213.604 167.175 213.467 166.646 213.467C166.008 213.467 164.746 213.676 162.859 214.096C160.982 214.506 159.519 214.939 158.471 215.395V212.906ZM183.941 240.906V212.906H186.184V240.906H183.941ZM203.793 241.467C202.262 241.467 200.79 241.243 199.377 240.797C197.973 240.35 196.693 239.703 195.535 238.855C194.387 237.999 193.384 236.987 192.527 235.82C191.671 234.645 191.005 233.296 190.531 231.773C190.057 230.242 189.82 228.62 189.82 226.906C189.82 225.193 190.057 223.575 190.531 222.053C191.005 220.521 191.671 219.173 192.527 218.006C193.384 216.83 194.387 215.818 195.535 214.971C196.693 214.114 197.973 213.462 199.377 213.016C200.79 212.569 202.262 212.346 203.793 212.346C205.707 212.346 207.516 212.701 209.221 213.412C210.934 214.114 212.42 215.089 213.678 216.338C214.945 217.587 215.947 219.127 216.686 220.959C217.424 222.791 217.793 224.773 217.793 226.906C217.793 229.039 217.424 231.021 216.686 232.854C215.947 234.686 214.945 236.226 213.678 237.475C212.42 238.723 210.934 239.703 209.221 240.414C207.516 241.116 205.707 241.467 203.793 241.467ZM192.979 221.191C192.368 222.951 192.062 224.855 192.062 226.906C192.062 228.957 192.368 230.862 192.979 232.621C193.598 234.38 194.437 235.861 195.494 237.064C196.551 238.268 197.796 239.211 199.227 239.895C200.667 240.569 202.189 240.906 203.793 240.906C205.397 240.906 206.919 240.569 208.359 239.895C209.799 239.211 211.048 238.268 212.105 237.064C213.172 235.861 214.015 234.38 214.635 232.621C215.255 230.862 215.564 228.957 215.564 226.906C215.564 224.855 215.255 222.951 214.635 221.191C214.015 219.432 213.172 217.951 212.105 216.748C211.048 215.545 209.799 214.606 208.359 213.932C206.919 213.248 205.397 212.906 203.793 212.906C202.189 212.906 200.667 213.248 199.227 213.932C197.796 214.606 196.551 215.545 195.494 216.748C194.437 217.951 193.598 219.432 192.979 221.191ZM221.43 240.906V212.906H223.727C228.913 220.262 234.865 228.679 241.582 238.158C241.783 238.441 241.96 238.582 242.115 238.582C242.334 238.582 242.43 238.34 242.402 237.857L240.721 212.906H243.072V240.906H240.83C239.609 239.184 236.984 235.492 232.955 229.832C228.936 224.163 225.586 219.437 222.906 215.654C222.706 215.372 222.528 215.23 222.373 215.23C222.163 215.23 222.072 215.472 222.1 215.955L223.781 240.906H221.43Z" fill="#383637"/>
<path d="M5 275.653V277.906C5 278.171 5.10536 278.426 5.29289 278.613C5.48043 278.801 5.73478 278.906 6 278.906H18C18.2652 278.906 18.5196 278.801 18.7071 278.613C18.8946 278.426 19 278.171 19 277.906V275.653M12.202 273.406V264.906M15.546 271.056L12.202 274.322L8.858 271.056" stroke="#778059" stroke-linecap="round" stroke-linejoin="round"/>
<path d="M37.808 276.906V265.706H43.984V266.618H38.784V271.018H43.568V271.914H38.784V276.906H37.808ZM49.78 277.114C47.22 277.114 45.428 275.322 45.428 272.762C45.428 270.218 47.22 268.426 49.78 268.426C52.324 268.426 54.116 270.218 54.116 272.762C54.116 275.322 52.324 277.114 49.78 277.114ZM46.356 272.762C46.356 274.81 47.748 276.218 49.78 276.218C51.796 276.218 53.188 274.81 53.188 272.762C53.188 270.73 51.796 269.322 49.78 269.322C47.748 269.322 46.356 270.73 46.356 272.762ZM56.6949 276.906V268.634H57.4789L57.5749 270.49C58.1349 269.242 59.0789 268.634 60.6149 268.634H61.3029V269.498H60.5829C58.8069 269.498 57.6229 270.586 57.6229 273.098V276.906H56.6949ZM67.808 276.906V265.706H68.784V275.978H74.464V276.906H67.808ZM80.7509 277.114C77.4549 277.114 75.0709 274.714 75.0709 271.306C75.0709 267.898 77.4549 265.498 80.7509 265.498C83.3109 265.498 85.4069 266.986 86.1429 269.338H85.1189C84.4789 267.562 82.8149 266.474 80.7669 266.474C78.0309 266.474 76.0629 268.442 76.0629 271.306C76.0629 274.17 78.0309 276.138 80.7669 276.138C82.8629 276.138 84.5909 275.002 85.2149 273.146H86.2389C85.5509 275.562 83.3909 277.114 80.7509 277.114ZM91.0395 276.906L95.6795 265.706H96.6075L101.248 276.906H100.224L99.0555 274.09H93.2315L92.0795 276.906H91.0395ZM93.6155 273.194H98.6875L96.1435 267.034L93.6155 273.194ZM106.48 277.114C103.968 277.114 102.256 275.338 102.256 272.762C102.256 270.202 103.984 268.426 106.496 268.426C109.104 268.426 110.784 270.346 110.72 273.146H103.2C103.36 275.018 104.64 276.234 106.48 276.234C107.824 276.234 108.896 275.61 109.44 274.538L110.48 274.554C109.84 276.138 108.336 277.114 106.48 277.114ZM103.2 272.33H109.808C109.584 270.458 108.304 269.306 106.496 269.306C104.656 269.306 103.36 270.506 103.2 272.33ZM116.105 277.114C114.009 277.114 112.681 276.058 112.617 274.41H113.529C113.625 275.578 114.537 276.266 116.121 276.266C117.577 276.266 118.457 275.706 118.457 274.794C118.457 273.93 117.673 273.402 115.913 273.098C113.753 272.73 112.777 271.962 112.777 270.698C112.777 269.29 113.977 268.426 115.913 268.426C117.865 268.426 119.097 269.354 119.225 270.938H118.297C118.201 269.85 117.353 269.258 115.913 269.258C114.537 269.258 113.705 269.818 113.705 270.714C113.705 271.53 114.393 271.978 116.233 272.33C118.329 272.73 119.369 273.562 119.369 274.81C119.369 276.202 118.105 277.114 116.105 277.114ZM125.18 276.906C123.42 276.906 122.476 275.914 122.476 274.042V269.482H120.668V268.634H121.724C122.348 268.634 122.524 268.474 122.588 267.866L122.668 266.602H123.404V268.634H126.268V269.482H123.404V274.01C123.404 275.37 123.964 276.01 125.212 276.01H126.38V276.906H125.18ZM128.867 276.906V265.066H129.795V270.138C130.451 269.002 131.603 268.426 132.899 268.426C135.043 268.426 136.355 269.914 136.355 272.298V276.906H135.427V272.378C135.427 270.474 134.419 269.322 132.771 269.322C131.027 269.322 129.795 270.618 129.795 272.602V276.906H128.867ZM142.98 277.114C140.468 277.114 138.756 275.338 138.756 272.762C138.756 270.202 140.484 268.426 142.996 268.426C145.604 268.426 147.284 270.346 147.22 273.146H139.7C139.86 275.018 141.14 276.234 142.98 276.234C144.324 276.234 145.396 275.61 145.94 274.538L146.98 274.554C146.34 276.138 144.836 277.114 142.98 277.114ZM139.7 272.33H146.308C146.084 270.458 144.804 269.306 142.996 269.306C141.156 269.306 139.86 270.506 139.7 272.33ZM152.852 276.906C151.092 276.906 150.148 275.914 150.148 274.042V269.482H148.34V268.634H149.396C150.02 268.634 150.196 268.474 150.26 267.866L150.34 266.602H151.076V268.634H153.94V269.482H151.076V274.01C151.076 275.37 151.636 276.01 152.884 276.01H154.052V276.906H152.852ZM156.539 276.906V268.634H157.467V276.906H156.539ZM156.155 266.282C156.155 265.818 156.491 265.45 157.003 265.45C157.515 265.45 157.851 265.818 157.851 266.282C157.851 266.762 157.515 267.13 157.003 267.13C156.491 267.13 156.155 266.762 156.155 266.282ZM164.261 277.114C161.781 277.114 160.037 275.306 160.037 272.762C160.037 270.218 161.781 268.426 164.261 268.426C166.229 268.426 167.845 269.594 168.325 271.386H167.381C166.837 270.074 165.685 269.322 164.261 269.322C162.309 269.322 160.965 270.73 160.965 272.762C160.965 274.81 162.309 276.218 164.261 276.218C165.781 276.218 166.965 275.37 167.429 274.01H168.405C167.845 275.946 166.293 277.114 164.261 277.114ZM173.777 277.114C171.681 277.114 170.353 276.058 170.289 274.41H171.201C171.297 275.578 172.209 276.266 173.793 276.266C175.249 276.266 176.129 275.706 176.129 274.794C176.129 273.93 175.345 273.402 173.585 273.098C171.425 272.73 170.449 271.962 170.449 270.698C170.449 269.29 171.649 268.426 173.585 268.426C175.537 268.426 176.769 269.354 176.897 270.938H175.969C175.873 269.85 175.025 269.258 173.585 269.258C172.209 269.258 171.377 269.818 171.377 270.714C171.377 271.53 172.065 271.978 173.905 272.33C176.001 272.73 177.041 273.562 177.041 274.81C177.041 276.202 175.777 277.114 173.777 277.114ZM186.64 277.114C184.368 277.114 182.96 276.01 182.96 274.186C182.96 272.81 183.76 271.77 185.424 271.018C184.448 269.946 183.872 269.05 183.872 268.042C183.872 266.522 185.136 265.498 186.992 265.498C188.864 265.498 190.128 266.57 190.128 268.122C190.128 269.514 189.152 270.522 187.008 271.338L190.032 274.442C190.48 273.674 190.72 272.682 190.736 271.482H191.664C191.648 272.97 191.328 274.202 190.704 275.13L192.448 276.906H191.2L190.144 275.818C189.296 276.666 188.112 277.114 186.64 277.114ZM183.888 274.17C183.888 275.45 184.944 276.218 186.656 276.218C187.84 276.218 188.8 275.85 189.472 275.162L186.08 271.69C184.608 272.298 183.888 273.13 183.888 274.17ZM184.784 268.042C184.784 268.746 185.216 269.466 186.352 270.666C188.4 269.882 189.216 269.162 189.216 268.122C189.216 267.05 188.352 266.362 186.992 266.362C185.648 266.362 184.784 267.018 184.784 268.042ZM200.673 276.906L197.009 265.706H198.033L199.697 270.81L201.169 275.386L202.849 270.81L204.705 265.706H205.633L209.185 275.402L210.673 270.81L212.321 265.706H213.345L209.665 276.906H208.753L205.169 267.178L203.185 272.586L201.601 276.906H200.673ZM218.011 277.114C215.499 277.114 213.787 275.338 213.787 272.762C213.787 270.202 215.515 268.426 218.027 268.426C220.635 268.426 222.315 270.346 222.251 273.146H214.731C214.891 275.018 216.171 276.234 218.011 276.234C219.355 276.234 220.427 275.61 220.971 274.538L222.011 274.554C221.371 276.138 219.867 277.114 218.011 277.114ZM214.731 272.33H221.339C221.115 270.458 219.835 269.306 218.027 269.306C216.187 269.306 214.891 270.506 214.731 272.33ZM224.789 276.906V265.066H225.717V276.906H224.789ZM229.007 276.906V265.066H229.935V276.906H229.007ZM233.226 276.906V268.634H234.01L234.09 270.234C234.746 269.05 235.898 268.426 237.226 268.426C239.386 268.426 240.714 269.946 240.714 272.33V276.906H239.786V272.41C239.786 270.506 238.762 269.322 237.114 269.322C235.37 269.322 234.154 270.65 234.154 272.618V276.906H233.226ZM247.34 277.114C244.828 277.114 243.116 275.338 243.116 272.762C243.116 270.202 244.844 268.426 247.356 268.426C249.964 268.426 251.644 270.346 251.58 273.146H244.06C244.22 275.018 245.5 276.234 247.34 276.234C248.684 276.234 249.756 275.61 250.3 274.538L251.34 274.554C250.7 276.138 249.196 277.114 247.34 277.114ZM244.06 272.33H250.668C250.444 270.458 249.164 269.306 247.356 269.306C245.516 269.306 244.22 270.506 244.06 272.33ZM256.965 277.114C254.869 277.114 253.541 276.058 253.477 274.41H254.389C254.485 275.578 255.397 276.266 256.981 276.266C258.437 276.266 259.317 275.706 259.317 274.794C259.317 273.93 258.533 273.402 256.773 273.098C254.613 272.73 253.637 271.962 253.637 270.698C253.637 269.29 254.837 268.426 256.773 268.426C258.725 268.426 259.957 269.354 260.085 270.938H259.157C259.061 269.85 258.213 269.258 256.773 269.258C255.397 269.258 254.565 269.818 254.565 270.714C254.565 271.53 255.253 271.978 257.093 272.33C259.189 272.73 260.229 273.562 260.229 274.81C260.229 276.202 258.965 277.114 256.965 277.114ZM265.762 277.114C263.666 277.114 262.338 276.058 262.274 274.41H263.186C263.282 275.578 264.194 276.266 265.778 276.266C267.234 276.266 268.114 275.706 268.114 274.794C268.114 273.93 267.33 273.402 265.57 273.098C263.41 272.73 262.434 271.962 262.434 270.698C262.434 269.29 263.634 268.426 265.57 268.426C267.522 268.426 268.754 269.354 268.882 270.938H267.954C267.858 269.85 267.01 269.258 265.57 269.258C264.194 269.258 263.362 269.818 263.362 270.714C263.362 271.53 264.05 271.978 265.89 272.33C267.986 272.73 269.026 273.562 269.026 274.81C269.026 276.202 267.762 277.114 265.762 277.114Z" fill="#5B5852"/>
</svg>
