<svg width="366" height="284" viewBox="0 0 366 284" fill="none" xmlns="http://www.w3.org/2000/svg">
<path d="M39.9453 0.321289C39.6338 1.16044 39.3391 1.99171 39.0156 2.74316C37.3342 6.65348 35.4723 10.4771 33.9385 14.4443C32.7574 17.4977 31.6991 20.6355 30.6328 23.7188C31.3354 23.7132 31.259 22.7499 31.4941 22.2021C31.6174 21.9172 32.0982 21.1689 32.3633 21.0469C32.7734 20.8598 33.5277 21.1803 33.4648 21.625C32.642 23.5828 32.2598 25.6845 31.5244 27.6748C30.9011 29.3615 30.3349 31.0402 29.7197 32.7432C27.8688 37.8601 25.5552 42.9445 23.8164 48.0615C21.3449 55.337 19.42 62.8133 16.6504 69.9912C15.4803 73.0229 14.8241 76.0493 13.8535 79.1162C13.2794 80.9276 12.3035 83.3685 12.041 85.1826C11.9864 85.5649 12.0908 85.9961 12.0088 86.3594C11.954 86.5953 11.5984 87.029 11.4727 87.3408C10.7727 89.0872 10.0205 92.7534 9.71973 94.6787C9.63498 95.2237 9.64093 96.753 9.46875 97.0488C9.30749 97.3226 9.13502 97.2523 9.08301 96.9678C8.99552 96.477 9.04434 95.0989 9.07715 94.543C9.17013 93.0326 9.56976 91.4976 9.78027 89.998C9.94699 88.8106 9.85908 88.6555 10.3184 87.5059C10.7776 86.3535 10.9012 85.4557 11.1035 84.249C12.2136 77.5973 14.6663 71.7294 16.375 65.2783C16.6949 64.0662 17.2227 62.3848 17.3184 61.1699C17.3266 61.0587 17.3944 60.7961 17.2197 60.8203C15.0243 69.0448 11.8476 76.9819 9.62207 85.1982C8.86474 87.9995 8.15387 90.8419 7.86133 93.7354C7.81217 94.2153 7.91834 94.7605 7.85547 95.2432C7.78431 95.7935 7.47853 96.4821 7.38281 97.0947C7.0192 99.4647 7.0871 103.687 7.98926 105.916C8.77393 107.855 9.73689 107.977 11.1641 109.219C11.6341 109.628 12.2528 110.357 12.9062 110.906H0V45.7666C0 22.4516 17.4142 3.20438 39.9453 0.321289ZM50.0527 77.2129C50.1184 77.137 50.441 76.6321 50.5586 76.7568C47.7972 82.1179 45.3284 87.7611 44.1035 93.6943C42.9005 99.5164 43.056 103.598 45.9678 108.889C46.3353 109.556 46.9382 110.255 47.6699 110.906H16.7666C18.7844 110.166 21.1762 109.112 22.8105 108.159C23.1084 107.986 24.3901 107.129 24.4922 106.896C24.5441 106.776 24.2899 106.675 24.3418 106.461C24.4214 106.133 25.1152 105.767 25.293 105.577C25.6483 105.198 25.8808 104.696 26.3125 104.271C26.5886 103.997 27.7477 103.018 28.0488 102.969C28.8827 102.833 30.157 103.831 30.1133 102.627C29.1618 102.041 29.5202 101.447 30.5127 101.371C30.7918 101.35 31.6414 101.821 31.5107 101.149C31.3494 100.32 31.1636 100.29 31.9072 99.6416C33.1402 98.5678 35.1169 97.4341 35.4014 95.6445C35.4369 95.4141 35.2016 95.2215 35.5186 94.9531C36.3169 94.2779 37.894 95.0664 38.3916 93.6699C38.4709 93.4503 38.4463 93.1356 38.5557 92.9512C38.6186 92.8454 38.8569 92.7883 38.9717 92.6338C39.3732 92.0832 39.0835 90.8335 39.1709 90.1611L38.5615 90.0088L39.1191 89.5586C39.3267 89.6426 39.2399 90.0244 39.2725 90.0576C39.3244 90.1119 39.8578 90.0332 39.959 89.9355C40.0385 89.855 40.234 89.2001 40.1855 89.1553H39.7285C39.5344 88.8109 40.0708 88.6075 40.2295 88.3418C40.3498 88.1385 40.355 87.8671 40.4697 87.6719C41.197 86.4489 42.4302 85.9171 43.3379 84.9707C43.6058 84.6914 43.756 84.3361 44.0977 84.0107C44.2917 83.8264 44.6309 83.6939 44.7568 83.5557C44.94 83.3523 44.9129 83.0536 45.0469 82.834C45.7523 81.6599 47.4198 80.4534 48.374 79.377C48.9755 78.6964 49.465 77.9071 50.0527 77.2129ZM47.9854 0C72.2842 1.13123 91.6377 21.188 91.6377 45.7666V110.906H62.749C63.428 110.409 63.8634 109.705 64.5977 109.181C65.6665 108.419 66.9378 108.08 67.9766 107.392C74.2649 103.21 80.7424 96.9481 85.6309 91.2236C87.438 89.1085 90.2399 86.0147 91.123 83.4658C91.3773 82.7337 91.6917 81.9826 91.6289 81.1963L91.6348 81.1904C91.4926 81.1796 91.3584 81.1902 91.2217 81.2363C90.8362 81.3719 88.4033 84.0919 87.9219 84.6182C82.2706 90.7873 77.1112 97.8434 69.9727 102.407C66.2571 104.783 62.4297 106.35 58.3916 108.062C56.579 108.829 52.9811 109.308 51.0508 108.988C49.2819 108.695 48.716 108.46 48.2539 106.719C47.8875 105.341 47.3264 102.261 47.3154 100.886C47.31 100.04 47.7477 98.9331 47.9062 98.0654C49.2624 90.5947 52.9266 81.6701 57.249 75.3682C59.2202 72.4913 61.178 70.7337 63.5264 68.2852C64.4858 67.2846 65.2291 66.0833 66.1641 65.0557C68.0751 62.9568 70.3718 61.2349 72.7285 59.6621L72.9502 59.6299C73.713 59.9905 74.4239 60.0558 74.957 60.7744C76.8786 63.3614 72.8762 67.1357 71.583 69.2236C71.4135 69.5599 71.3731 70.0757 71.6328 70.374C71.7726 70.5364 72.2417 70.6796 72.4658 70.7041C73.0973 70.7746 75.0087 70.7914 75.6104 70.6992C77.2945 70.4389 79.4707 66.0971 79.6895 64.5596C80.2854 60.3647 77.3085 57.5312 73.3525 56.9209C71.7834 56.6796 71.7937 56.994 70.5283 57.1865C68.8469 57.4441 68.0943 57.0377 66.3828 58.0166C62.7247 60.1156 57.8578 65.3436 55.3535 68.7549C54.0249 70.5662 53.0904 72.7115 51.625 74.333C50.5615 75.5126 49.3366 76.5809 48.2676 77.7578C46.4221 79.7916 44.7673 82.0095 42.8809 84.0107C41.3006 85.692 39.4257 87.2436 37.8975 88.9492C34.696 92.5205 31.8002 95.4244 28.041 98.4316C27.2563 99.0581 26.6081 99.8472 25.8535 100.498C23.2809 102.708 19.9129 105.255 16.9355 106.879C15.6123 107.6 14.1849 108.646 13.3701 106.824C12.5583 105.004 12.7682 100.744 12.9404 98.6836C13.0171 97.7673 13.4496 96.9052 13.5371 95.9482C13.6574 94.6385 13.5479 93.6317 13.9307 92.3057C14.286 91.0776 14.521 90.3237 14.7998 89.0332C15.2919 86.7581 16.0161 85.1254 16.6504 83.0049C17.7549 79.3142 18.5732 75.4827 19.8555 71.8652C21.9743 65.8861 23.7152 59.7791 25.8477 53.8135C28.5325 46.3075 31.683 38.9531 34.417 31.458C35.2481 29.1748 36.1558 26.9319 37.0088 24.6514C38.9035 19.5723 40.8413 14.4411 43.25 9.56543C44.2233 7.59137 45.399 6.17859 46.4707 4.3916C46.8665 3.73277 47.6789 1.32218 47.9854 0ZM8.88867 99.9854H8.8916L8.58301 100.04C8.38895 99.7039 8.60436 99.3915 8.98145 99.3398L8.88867 99.9854ZM37.0908 91.4736C37.2136 91.4086 37.2818 91.3355 37.4482 91.376C37.4018 91.7013 37.5632 92.2946 37.3477 92.5361L37.1641 92.6699C36.8562 92.8839 36.271 93.273 36.1992 93.3096C35.8958 93.4641 35.5509 93.5183 35.2119 93.4912C34.9774 93.282 36.8229 91.6119 37.0908 91.4736ZM47.4385 87.3135C47.2581 87.7934 46.873 86.7859 47.4111 86.8369L47.4385 87.3135ZM47.7207 85.2256C47.9665 85.1797 48.0021 85.4263 48.125 85.5781H48.1221L47.9717 85.7275L47.7314 85.5645L47.7207 85.2256ZM48.4287 83.3086C48.5244 83.2463 48.7645 83.3306 48.8301 83.458L48.4775 84.1113C48.2126 84.0297 48.3713 83.3436 48.4287 83.3057V83.3086ZM50.46 79.9814C50.4846 80.3584 50.4815 80.9518 49.9512 80.8867C49.9293 80.461 49.9187 79.9815 50.46 79.9814ZM51.2666 77.9229C51.286 77.8229 51.5444 77.8499 51.5752 77.8662C51.7801 77.999 51.5594 78.5652 51.3271 78.666C51.0565 78.4708 51.19 78.164 51.2666 77.9199V77.9229ZM53.3086 74.5361C53.2813 74.8588 53.4396 75.092 53.3467 75.4229C53.2236 75.8648 52.6884 76.2196 52.5381 75.6475C52.4539 75.3272 53.1908 74.3957 53.3086 74.5361ZM35.2891 13.8584C36.1035 13.6905 35.9966 14.6499 35.4443 14.7285C34.843 14.815 34.6439 13.9913 35.2891 13.8584ZM36.7402 11.8223C36.5762 11.1226 36.4427 10.2845 37.457 10.5557C37.7604 11.117 37.4155 11.8412 36.7402 11.8223Z" fill="#8C9EA8"/>
<path d="M2.10547 153.773C1.63151 152.242 1.39453 150.62 1.39453 148.906C1.39453 147.193 1.63151 145.575 2.10547 144.053C2.57943 142.521 3.24479 141.173 4.10156 140.006C4.95833 138.83 5.96094 137.818 7.10938 136.971C8.26693 136.114 9.54753 135.462 10.9512 135.016C12.3639 134.569 13.8359 134.346 15.3672 134.346C16.6615 134.346 17.9238 134.464 19.1543 134.701C20.3939 134.938 21.5195 135.275 22.5312 135.713C23.5521 136.15 24.3724 136.725 24.9922 137.436C25.612 138.146 25.9219 138.935 25.9219 139.801C25.9219 140.102 25.8763 140.361 25.7852 140.58C25.7031 140.79 25.5983 140.945 25.4707 141.045C25.3522 141.136 25.2292 141.209 25.1016 141.264C24.9831 141.309 24.8828 141.332 24.8008 141.332L24.6641 141.346C24.5547 140.571 24.2311 139.796 23.6934 139.021C23.1556 138.247 22.4766 137.559 21.6562 136.957C20.8451 136.346 19.8835 135.854 18.7715 135.48C17.6595 135.098 16.5247 134.906 15.3672 134.906C13.763 134.906 12.2409 135.248 10.8008 135.932C9.36979 136.606 8.12565 137.545 7.06836 138.748C6.01107 139.951 5.17253 141.432 4.55273 143.191C3.94206 144.951 3.63672 146.855 3.63672 148.906C3.63672 150.957 3.94206 152.862 4.55273 154.621C5.17253 156.38 6.01107 157.861 7.06836 159.064C8.12565 160.268 9.36979 161.211 10.8008 161.895C12.2409 162.569 13.763 162.906 15.3672 162.906C16.4245 162.906 17.4954 162.733 18.5801 162.387C19.6738 162.04 20.681 161.576 21.6016 160.992C22.5221 160.4 23.3652 159.748 24.1309 159.037C24.9056 158.317 25.571 157.561 26.127 156.768V159.912C25.4434 160.942 24.0807 161.794 22.0391 162.469C19.9974 163.134 17.7734 163.467 15.3672 163.467C13.8359 163.467 12.3639 163.243 10.9512 162.797C9.54753 162.35 8.26693 161.703 7.10938 160.855C5.96094 159.999 4.95833 158.987 4.10156 157.82C3.24479 156.645 2.57943 155.296 2.10547 153.773ZM42.875 163.467C41.3438 163.467 39.8717 163.243 38.459 162.797C37.0553 162.35 35.7747 161.703 34.6172 160.855C33.4688 159.999 32.4661 158.987 31.6094 157.82C30.7526 156.645 30.0872 155.296 29.6133 153.773C29.1393 152.242 28.9023 150.62 28.9023 148.906C28.9023 147.193 29.1393 145.575 29.6133 144.053C30.0872 142.521 30.7526 141.173 31.6094 140.006C32.4661 138.83 33.4688 137.818 34.6172 136.971C35.7747 136.114 37.0553 135.462 38.459 135.016C39.8717 134.569 41.3438 134.346 42.875 134.346C44.7891 134.346 46.5983 134.701 48.3027 135.412C50.0163 136.114 51.502 137.089 52.7598 138.338C54.0267 139.587 55.0293 141.127 55.7676 142.959C56.5059 144.791 56.875 146.773 56.875 148.906C56.875 151.039 56.5059 153.021 55.7676 154.854C55.0293 156.686 54.0267 158.226 52.7598 159.475C51.502 160.723 50.0163 161.703 48.3027 162.414C46.5983 163.116 44.7891 163.467 42.875 163.467ZM32.0605 143.191C31.4499 144.951 31.1445 146.855 31.1445 148.906C31.1445 150.957 31.4499 152.862 32.0605 154.621C32.6803 156.38 33.5189 157.861 34.5762 159.064C35.6335 160.268 36.8776 161.211 38.3086 161.895C39.7487 162.569 41.2708 162.906 42.875 162.906C44.4792 162.906 46.0013 162.569 47.4414 161.895C48.8815 161.211 50.1302 160.268 51.1875 159.064C52.2539 157.861 53.097 156.38 53.7168 154.621C54.3366 152.862 54.6465 150.957 54.6465 148.906C54.6465 146.855 54.3366 144.951 53.7168 143.191C53.097 141.432 52.2539 139.951 51.1875 138.748C50.1302 137.545 48.8815 136.606 47.4414 135.932C46.0013 135.248 44.4792 134.906 42.875 134.906C41.2708 134.906 39.7487 135.248 38.3086 135.932C36.8776 136.606 35.6335 137.545 34.5762 138.748C33.5189 139.951 32.6803 141.432 32.0605 143.191ZM60.5117 162.906V134.906H62.8086C67.9948 142.262 73.9466 150.679 80.6641 160.158C80.8646 160.441 81.0423 160.582 81.1973 160.582C81.416 160.582 81.5117 160.34 81.4844 159.857L79.8027 134.906H82.1543V162.906H79.9121C78.6908 161.184 76.0658 157.492 72.0371 151.832C68.0176 146.163 64.668 141.437 61.9883 137.654C61.7878 137.372 61.61 137.23 61.4551 137.23C61.2454 137.23 61.1543 137.472 61.1816 137.955L62.8633 162.906H60.5117ZM85.9277 157C85.9277 156.271 86.1283 155.669 86.5293 155.195C86.9395 154.721 87.4271 154.484 87.9922 154.484C88.4388 154.484 88.8398 154.639 89.1953 154.949C88.4479 155.204 88.0742 155.824 88.0742 156.809C88.0742 157.802 88.5117 158.773 89.3867 159.721C90.2617 160.66 91.4284 161.425 92.8867 162.018C94.3542 162.61 95.8854 162.906 97.4805 162.906C98.4557 162.906 99.3945 162.815 100.297 162.633C101.199 162.441 102.038 162.154 102.812 161.771C103.596 161.389 104.275 160.924 104.85 160.377C105.424 159.83 105.875 159.174 106.203 158.408C106.531 157.643 106.695 156.809 106.695 155.906C106.695 155.186 106.59 154.535 106.381 153.951C106.18 153.368 105.925 152.871 105.615 152.461C105.305 152.051 104.877 151.682 104.33 151.354C103.792 151.016 103.273 150.747 102.771 150.547C102.279 150.337 101.65 150.141 100.885 149.959C100.128 149.777 99.4629 149.635 98.8887 149.535C98.3145 149.435 97.599 149.316 96.7422 149.18C95.9766 149.061 95.3978 148.97 95.0059 148.906C94.6139 148.842 94.0671 148.738 93.3652 148.592C92.6634 148.446 92.1211 148.314 91.7383 148.195C91.3555 148.068 90.877 147.895 90.3027 147.676C89.7285 147.457 89.2819 147.229 88.9629 146.992C88.6439 146.755 88.293 146.464 87.9102 146.117C87.5273 145.771 87.2357 145.402 87.0352 145.01C86.8438 144.609 86.6797 144.144 86.543 143.615C86.4062 143.087 86.3379 142.517 86.3379 141.906C86.3379 140.849 86.5566 139.892 86.9941 139.035C87.4316 138.169 88.0104 137.454 88.7305 136.889C89.4596 136.314 90.3073 135.831 91.2734 135.439C92.2487 135.048 93.2513 134.77 94.2812 134.605C95.3112 134.432 96.3685 134.346 97.4531 134.346C98.3828 134.346 99.3125 134.4 100.242 134.51C101.172 134.619 102.092 134.801 103.004 135.057C103.924 135.303 104.736 135.608 105.438 135.973C106.139 136.337 106.704 136.802 107.133 137.367C107.57 137.932 107.789 138.557 107.789 139.24C107.789 140.225 107.415 140.844 106.668 141.1C106.404 139.833 105.793 138.725 104.836 137.777C103.888 136.829 102.73 136.114 101.363 135.631C100.005 135.148 98.5469 134.906 96.9883 134.906C94.2995 134.906 92.1849 135.503 90.6445 136.697C89.1042 137.882 88.334 139.573 88.334 141.77C88.334 142.326 88.4342 142.827 88.6348 143.273C88.8444 143.72 89.1589 144.103 89.5781 144.422C90.0065 144.741 90.4577 145.014 90.9316 145.242C91.4147 145.47 92.0163 145.675 92.7363 145.857C93.4564 146.04 94.1217 146.19 94.7324 146.309C95.3522 146.427 96.0996 146.564 96.9746 146.719C97.804 146.855 98.4329 146.965 98.8613 147.047C99.2897 147.129 99.8958 147.257 100.68 147.43C101.464 147.594 102.074 147.753 102.512 147.908C102.949 148.054 103.492 148.255 104.139 148.51C104.786 148.765 105.296 149.029 105.67 149.303C106.044 149.576 106.449 149.913 106.887 150.314C107.333 150.715 107.671 151.144 107.898 151.6C108.126 152.055 108.318 152.584 108.473 153.186C108.637 153.787 108.719 154.434 108.719 155.127C108.719 156.239 108.509 157.26 108.09 158.189C107.671 159.11 107.101 159.894 106.381 160.541C105.661 161.179 104.818 161.721 103.852 162.168C102.895 162.615 101.878 162.943 100.803 163.152C99.7272 163.362 98.6198 163.467 97.4805 163.467C95.2201 163.467 93.2103 163.198 91.4512 162.66C89.7012 162.113 88.3431 161.352 87.377 160.377C86.4108 159.393 85.9277 158.267 85.9277 157ZM112.246 162.906V134.906H131.646V137.395C130.206 136.911 127.859 136.469 124.605 136.068C121.361 135.667 118.471 135.467 115.938 135.467C115.409 135.467 115.031 135.604 114.803 135.877C114.575 136.141 114.461 136.638 114.461 137.367V146.213C114.461 146.632 114.589 146.974 114.844 147.238C115.099 147.493 115.436 147.621 115.855 147.621H128.898V149.973C127.221 149.562 125.016 149.18 122.281 148.824C119.547 148.469 117.414 148.291 115.883 148.291C115.454 148.291 115.113 148.396 114.857 148.605C114.611 148.815 114.488 149.12 114.488 149.521L114.461 160.445C114.461 161.174 114.575 161.676 114.803 161.949C115.031 162.214 115.409 162.346 115.938 162.346C118.471 162.346 121.361 162.145 124.605 161.744C127.859 161.343 130.206 160.901 131.646 160.418V162.906H112.246ZM135.57 162.906V134.906H137.867C143.053 142.262 149.005 150.679 155.723 160.158C155.923 160.441 156.101 160.582 156.256 160.582C156.475 160.582 156.57 160.34 156.543 159.857L154.861 134.906H157.213V162.906H154.971C153.749 161.184 151.124 157.492 147.096 151.832C143.076 146.163 139.727 141.437 137.047 137.654C136.846 137.372 136.669 137.23 136.514 137.23C136.304 137.23 136.213 137.472 136.24 137.955L137.922 162.906H135.57ZM161.123 134.906H182.684V137.395C181.635 136.939 180.168 136.506 178.281 136.096C176.404 135.676 175.146 135.467 174.508 135.467C173.979 135.467 173.596 135.604 173.359 135.877C173.132 136.141 173.018 136.638 173.018 137.367V162.906H170.775V137.367C170.775 136.638 170.661 136.141 170.434 135.877C170.206 135.604 169.827 135.467 169.299 135.467C168.661 135.467 167.398 135.676 165.512 136.096C163.634 136.506 162.171 136.939 161.123 137.395V134.906ZM194.428 134.906H215.988V137.395C214.94 136.939 213.473 136.506 211.586 136.096C209.708 135.676 208.451 135.467 207.812 135.467C207.284 135.467 206.901 135.604 206.664 135.877C206.436 136.141 206.322 136.638 206.322 137.367V162.906H204.08V137.367C204.08 136.638 203.966 136.141 203.738 135.877C203.51 135.604 203.132 135.467 202.604 135.467C201.965 135.467 200.703 135.676 198.816 136.096C196.939 136.506 195.476 136.939 194.428 137.395V134.906ZM229.934 163.467C228.402 163.467 226.93 163.243 225.518 162.797C224.114 162.35 222.833 161.703 221.676 160.855C220.527 159.999 219.525 158.987 218.668 157.82C217.811 156.645 217.146 155.296 216.672 153.773C216.198 152.242 215.961 150.62 215.961 148.906C215.961 147.193 216.198 145.575 216.672 144.053C217.146 142.521 217.811 141.173 218.668 140.006C219.525 138.83 220.527 137.818 221.676 136.971C222.833 136.114 224.114 135.462 225.518 135.016C226.93 134.569 228.402 134.346 229.934 134.346C231.848 134.346 233.657 134.701 235.361 135.412C237.075 136.114 238.561 137.089 239.818 138.338C241.085 139.587 242.088 141.127 242.826 142.959C243.564 144.791 243.934 146.773 243.934 148.906C243.934 151.039 243.564 153.021 242.826 154.854C242.088 156.686 241.085 158.226 239.818 159.475C238.561 160.723 237.075 161.703 235.361 162.414C233.657 163.116 231.848 163.467 229.934 163.467ZM219.119 143.191C218.508 144.951 218.203 146.855 218.203 148.906C218.203 150.957 218.508 152.862 219.119 154.621C219.739 156.38 220.577 157.861 221.635 159.064C222.692 160.268 223.936 161.211 225.367 161.895C226.807 162.569 228.329 162.906 229.934 162.906C231.538 162.906 233.06 162.569 234.5 161.895C235.94 161.211 237.189 160.268 238.246 159.064C239.312 157.861 240.156 156.38 240.775 154.621C241.395 152.862 241.705 150.957 241.705 148.906C241.705 146.855 241.395 144.951 240.775 143.191C240.156 141.432 239.312 139.951 238.246 138.748C237.189 137.545 235.94 136.606 234.5 135.932C233.06 135.248 231.538 134.906 229.934 134.906C228.329 134.906 226.807 135.248 225.367 135.932C223.936 136.606 222.692 137.545 221.635 138.748C220.577 139.951 219.739 141.432 219.119 143.191ZM1.54492 196C1.54492 195.271 1.74544 194.669 2.14648 194.195C2.55664 193.721 3.04427 193.484 3.60938 193.484C4.05599 193.484 4.45703 193.639 4.8125 193.949C4.0651 194.204 3.69141 194.824 3.69141 195.809C3.69141 196.802 4.12891 197.773 5.00391 198.721C5.87891 199.66 7.04557 200.425 8.50391 201.018C9.97135 201.61 11.5026 201.906 13.0977 201.906C14.0729 201.906 15.0117 201.815 15.9141 201.633C16.8164 201.441 17.6549 201.154 18.4297 200.771C19.2135 200.389 19.8926 199.924 20.4668 199.377C21.041 198.83 21.4922 198.174 21.8203 197.408C22.1484 196.643 22.3125 195.809 22.3125 194.906C22.3125 194.186 22.2077 193.535 21.998 192.951C21.7975 192.368 21.5423 191.871 21.2324 191.461C20.9225 191.051 20.4941 190.682 19.9473 190.354C19.4095 190.016 18.89 189.747 18.3887 189.547C17.8965 189.337 17.2676 189.141 16.502 188.959C15.7454 188.777 15.0801 188.635 14.5059 188.535C13.9316 188.435 13.2161 188.316 12.3594 188.18C11.5938 188.061 11.015 187.97 10.623 187.906C10.2311 187.842 9.68424 187.738 8.98242 187.592C8.2806 187.446 7.73828 187.314 7.35547 187.195C6.97266 187.068 6.49414 186.895 5.91992 186.676C5.3457 186.457 4.89909 186.229 4.58008 185.992C4.26107 185.755 3.91016 185.464 3.52734 185.117C3.14453 184.771 2.85286 184.402 2.65234 184.01C2.46094 183.609 2.29688 183.144 2.16016 182.615C2.02344 182.087 1.95508 181.517 1.95508 180.906C1.95508 179.849 2.17383 178.892 2.61133 178.035C3.04883 177.169 3.6276 176.454 4.34766 175.889C5.07682 175.314 5.92448 174.831 6.89062 174.439C7.86589 174.048 8.86849 173.77 9.89844 173.605C10.9284 173.432 11.9857 173.346 13.0703 173.346C14 173.346 14.9297 173.4 15.8594 173.51C16.7891 173.619 17.7096 173.801 18.6211 174.057C19.5417 174.303 20.3529 174.608 21.0547 174.973C21.7565 175.337 22.3216 175.802 22.75 176.367C23.1875 176.932 23.4062 177.557 23.4062 178.24C23.4062 179.225 23.0326 179.844 22.2852 180.1C22.0208 178.833 21.4102 177.725 20.4531 176.777C19.5052 175.829 18.3477 175.114 16.9805 174.631C15.6224 174.148 14.1641 173.906 12.6055 173.906C9.91667 173.906 7.80208 174.503 6.26172 175.697C4.72135 176.882 3.95117 178.573 3.95117 180.77C3.95117 181.326 4.05143 181.827 4.25195 182.273C4.46159 182.72 4.77604 183.103 5.19531 183.422C5.6237 183.741 6.07487 184.014 6.54883 184.242C7.0319 184.47 7.63346 184.675 8.35352 184.857C9.07357 185.04 9.73893 185.19 10.3496 185.309C10.9694 185.427 11.7168 185.564 12.5918 185.719C13.4212 185.855 14.0501 185.965 14.4785 186.047C14.9069 186.129 15.513 186.257 16.2969 186.43C17.0807 186.594 17.6914 186.753 18.1289 186.908C18.5664 187.054 19.1087 187.255 19.7559 187.51C20.403 187.765 20.9134 188.029 21.2871 188.303C21.6608 188.576 22.0664 188.913 22.5039 189.314C22.9505 189.715 23.2878 190.144 23.5156 190.6C23.7435 191.055 23.9349 191.584 24.0898 192.186C24.2539 192.787 24.3359 193.434 24.3359 194.127C24.3359 195.239 24.1263 196.26 23.707 197.189C23.2878 198.11 22.7181 198.894 21.998 199.541C21.278 200.179 20.4349 200.721 19.4688 201.168C18.5117 201.615 17.4954 201.943 16.4199 202.152C15.3444 202.362 14.237 202.467 13.0977 202.467C10.8372 202.467 8.82747 202.198 7.06836 201.66C5.31836 201.113 3.96029 200.352 2.99414 199.377C2.02799 198.393 1.54492 197.267 1.54492 196ZM30.1055 201.906H27.8633V173.906H30.1055V188.631C31.2812 187.264 32.7715 186.234 34.5762 185.541C36.39 184.839 38.2949 184.488 40.291 184.488C42.9434 184.488 45.2402 185.04 47.1816 186.143V173.906H49.4238V201.906H47.1816V188.412C47.1816 187.41 46.7031 186.648 45.7461 186.129C44.7982 185.6 43.5677 185.336 42.0547 185.336C41.207 185.336 40.3275 185.423 39.416 185.596C38.5137 185.769 37.6159 186.02 36.7227 186.348C35.8385 186.667 34.9954 187.081 34.1934 187.592C33.4004 188.093 32.6986 188.658 32.0879 189.287C31.4772 189.907 30.9941 190.627 30.6387 191.447C30.2832 192.268 30.1055 193.133 30.1055 194.045V201.906ZM54.6738 201.906H52.2129L61.7559 175.219L61.168 173.906H63.6426L76.125 201.906H73.6641L71.6133 197.34C71.1758 196.355 70.4557 195.48 69.4531 194.715C68.4596 193.94 67.3841 193.361 66.2266 192.979C65.069 192.587 63.9525 192.391 62.877 192.391C61.0267 192.391 59.2995 192.969 57.6953 194.127C57.3945 194.346 57.0938 194.71 56.793 195.221C56.5013 195.722 56.2917 196.205 56.1641 196.67L54.6738 201.906ZM57.7227 191.297C57.5859 191.798 57.6361 192.049 57.873 192.049C57.9915 192.049 58.1966 191.976 58.4883 191.83C59.582 191.229 60.7669 190.928 62.043 190.928C63.3099 190.928 64.5859 191.201 65.8711 191.748C67.1654 192.286 68.373 193.01 69.4941 193.922C69.8132 194.186 70.0137 194.286 70.0957 194.223C70.1777 194.159 70.1322 193.94 69.959 193.566L62.7402 177.379C62.5762 176.987 62.3984 176.791 62.207 176.791C62.0065 176.791 61.8379 177.014 61.7012 177.461L57.7227 191.297ZM78.4492 201.906V173.906H91.3281C92.3125 173.906 93.2194 174.007 94.0488 174.207C94.8874 174.408 95.5983 174.672 96.1816 175C96.7741 175.328 97.2982 175.72 97.7539 176.176C98.2188 176.622 98.5924 177.087 98.875 177.57C99.1576 178.044 99.39 178.55 99.5723 179.088C99.7637 179.617 99.8913 180.109 99.9551 180.564C100.028 181.02 100.064 181.462 100.064 181.891C100.064 182.319 100.028 182.761 99.9551 183.217C99.8913 183.663 99.7637 184.151 99.5723 184.68C99.39 185.208 99.1576 185.71 98.875 186.184C98.5924 186.658 98.2188 187.122 97.7539 187.578C97.2982 188.025 96.7741 188.412 96.1816 188.74C95.5983 189.068 94.8874 189.337 94.0488 189.547C93.2194 189.747 92.3125 189.852 91.3281 189.861H90.5215C90.3118 189.861 90.1615 189.88 90.0703 189.916C89.9792 189.943 89.9427 189.993 89.9609 190.066C89.9792 190.13 90.0293 190.208 90.1113 190.299C90.2025 190.39 90.3392 190.508 90.5215 190.654C90.9863 191.019 91.4967 191.511 92.0527 192.131C92.6087 192.751 93.0918 193.329 93.502 193.867C93.9212 194.405 94.5228 195.198 95.3066 196.246C95.3522 196.31 95.3887 196.365 95.416 196.41C95.4525 196.447 95.4935 196.497 95.5391 196.561C95.5846 196.615 95.6257 196.67 95.6621 196.725C96.4733 197.818 97.3665 198.844 98.3418 199.801C99.3171 200.749 100.151 201.451 100.844 201.906H97.6855C97.1569 201.587 96.5827 201.118 95.9629 200.498C95.3431 199.869 94.7507 199.195 94.1855 198.475C93.6204 197.745 93.0371 196.98 92.4355 196.178C91.834 195.367 91.2461 194.592 90.6719 193.854C90.0977 193.115 89.5371 192.445 88.9902 191.844C88.4525 191.242 87.9102 190.764 87.3633 190.408C86.8255 190.044 86.3288 189.861 85.873 189.861H83.3711V189.301H88.8672C91.6289 189.301 93.7389 188.649 95.1973 187.346C96.6647 186.033 97.3984 184.215 97.3984 181.891C97.3984 179.566 96.6647 177.748 95.1973 176.436C93.7389 175.123 91.6289 174.467 88.8672 174.467H82.1406C81.5938 174.467 81.2109 174.581 80.9922 174.809C80.7734 175.036 80.6641 175.51 80.6641 176.23L80.6914 201.906H78.4492ZM103.66 201.906V173.906H123.061V176.395C121.62 175.911 119.273 175.469 116.02 175.068C112.775 174.667 109.885 174.467 107.352 174.467C106.823 174.467 106.445 174.604 106.217 174.877C105.989 175.141 105.875 175.638 105.875 176.367V185.213C105.875 185.632 106.003 185.974 106.258 186.238C106.513 186.493 106.85 186.621 107.27 186.621H120.312V188.973C118.635 188.562 116.43 188.18 113.695 187.824C110.961 187.469 108.828 187.291 107.297 187.291C106.868 187.291 106.527 187.396 106.271 187.605C106.025 187.815 105.902 188.12 105.902 188.521L105.875 199.445C105.875 200.174 105.989 200.676 106.217 200.949C106.445 201.214 106.823 201.346 107.352 201.346C109.885 201.346 112.775 201.145 116.02 200.744C119.273 200.343 121.62 199.901 123.061 199.418V201.906H103.66ZM137.621 201.906H135.379V173.906H137.621V188.631C138.797 187.264 140.287 186.234 142.092 185.541C143.906 184.839 145.811 184.488 147.807 184.488C150.459 184.488 152.756 185.04 154.697 186.143V173.906H156.939V201.906H154.697V188.412C154.697 187.41 154.219 186.648 153.262 186.129C152.314 185.6 151.083 185.336 149.57 185.336C148.723 185.336 147.843 185.423 146.932 185.596C146.029 185.769 145.132 186.02 144.238 186.348C143.354 186.667 142.511 187.081 141.709 187.592C140.916 188.093 140.214 188.658 139.604 189.287C138.993 189.907 138.51 190.627 138.154 191.447C137.799 192.268 137.621 193.133 137.621 194.045V201.906ZM161.41 201.906V173.906H180.811V176.395C179.37 175.911 177.023 175.469 173.77 175.068C170.525 174.667 167.635 174.467 165.102 174.467C164.573 174.467 164.195 174.604 163.967 174.877C163.739 175.141 163.625 175.638 163.625 176.367V185.213C163.625 185.632 163.753 185.974 164.008 186.238C164.263 186.493 164.6 186.621 165.02 186.621H178.062V188.973C176.385 188.562 174.18 188.18 171.445 187.824C168.711 187.469 166.578 187.291 165.047 187.291C164.618 187.291 164.277 187.396 164.021 187.605C163.775 187.815 163.652 188.12 163.652 188.521L163.625 199.445C163.625 200.174 163.739 200.676 163.967 200.949C164.195 201.214 164.573 201.346 165.102 201.346C167.635 201.346 170.525 201.145 173.77 200.744C177.023 200.343 179.37 199.901 180.811 199.418V201.906H161.41ZM185.514 201.906H183.053L192.596 175.219L192.008 173.906H194.482L206.965 201.906H204.504L202.453 197.34C202.016 196.355 201.296 195.48 200.293 194.715C199.299 193.94 198.224 193.361 197.066 192.979C195.909 192.587 194.792 192.391 193.717 192.391C191.867 192.391 190.139 192.969 188.535 194.127C188.234 194.346 187.934 194.71 187.633 195.221C187.341 195.722 187.132 196.205 187.004 196.67L185.514 201.906ZM188.562 191.297C188.426 191.798 188.476 192.049 188.713 192.049C188.831 192.049 189.036 191.976 189.328 191.83C190.422 191.229 191.607 190.928 192.883 190.928C194.15 190.928 195.426 191.201 196.711 191.748C198.005 192.286 199.213 193.01 200.334 193.922C200.653 194.186 200.854 194.286 200.936 194.223C201.018 194.159 200.972 193.94 200.799 193.566L193.58 177.379C193.416 176.987 193.238 176.791 193.047 176.791C192.846 176.791 192.678 177.014 192.541 177.461L188.562 191.297ZM228.689 201.906H209.289V173.906H211.504V199.445C211.504 200.174 211.618 200.676 211.846 200.949C212.074 201.214 212.452 201.346 212.98 201.346C215.514 201.346 218.404 201.145 221.648 200.744C224.902 200.343 227.249 199.901 228.689 199.418V201.906ZM222.92 173.906H244.48V176.395C243.432 175.939 241.965 175.506 240.078 175.096C238.201 174.676 236.943 174.467 236.305 174.467C235.776 174.467 235.393 174.604 235.156 174.877C234.928 175.141 234.814 175.638 234.814 176.367V201.906H232.572V176.367C232.572 175.638 232.458 175.141 232.23 174.877C232.003 174.604 231.624 174.467 231.096 174.467C230.458 174.467 229.195 174.676 227.309 175.096C225.431 175.506 223.968 175.939 222.92 176.395V173.906ZM250.633 201.906H248.391V173.906H250.633V188.631C251.809 187.264 253.299 186.234 255.104 185.541C256.917 184.839 258.822 184.488 260.818 184.488C263.471 184.488 265.768 185.04 267.709 186.143V173.906H269.951V201.906H267.709V188.412C267.709 187.41 267.23 186.648 266.273 186.129C265.326 185.6 264.095 185.336 262.582 185.336C261.734 185.336 260.855 185.423 259.943 185.596C259.041 185.769 258.143 186.02 257.25 186.348C256.366 186.667 255.523 187.081 254.721 187.592C253.928 188.093 253.226 188.658 252.615 189.287C252.005 189.907 251.521 190.627 251.166 191.447C250.811 192.268 250.633 193.133 250.633 194.045V201.906ZM2.24219 240.906V212.906H4.48438V240.906H2.24219ZM8.96875 240.906V212.906H11.2656C16.4518 220.262 22.4036 228.679 29.1211 238.158C29.3216 238.441 29.4993 238.582 29.6543 238.582C29.873 238.582 29.9688 238.34 29.9414 237.857L28.2598 212.906H30.6113V240.906H28.3691C27.1478 239.184 24.5228 235.492 20.4941 229.832C16.4746 224.163 13.125 219.437 10.4453 215.654C10.2448 215.372 10.0671 215.23 9.91211 215.23C9.70247 215.23 9.61133 215.472 9.63867 215.955L11.3203 240.906H8.96875ZM37.3242 240.906H35.082V212.906H54.4824V215.395C53.0423 214.911 50.6953 214.469 47.4414 214.068C44.1966 213.667 41.3073 213.467 38.7734 213.467C38.2448 213.467 37.8665 213.604 37.6387 213.877C37.4108 214.141 37.2969 214.638 37.2969 215.367V224.213C37.2969 224.632 37.4245 224.974 37.6797 225.238C37.9349 225.493 38.2721 225.621 38.6914 225.621H51.7344V227.973C50.0573 227.562 47.8516 227.18 45.1172 226.824C42.3828 226.469 40.25 226.291 38.7188 226.291C38.2904 226.291 37.9486 226.396 37.6934 226.605C37.4473 226.815 37.3242 227.12 37.3242 227.521V240.906ZM70.4102 241.467C68.8789 241.467 67.4069 241.243 65.9941 240.797C64.5905 240.35 63.3099 239.703 62.1523 238.855C61.0039 237.999 60.0013 236.987 59.1445 235.82C58.2878 234.645 57.6224 233.296 57.1484 231.773C56.6745 230.242 56.4375 228.62 56.4375 226.906C56.4375 225.193 56.6745 223.575 57.1484 222.053C57.6224 220.521 58.2878 219.173 59.1445 218.006C60.0013 216.83 61.0039 215.818 62.1523 214.971C63.3099 214.114 64.5905 213.462 65.9941 213.016C67.4069 212.569 68.8789 212.346 70.4102 212.346C72.3242 212.346 74.1335 212.701 75.8379 213.412C77.5514 214.114 79.0371 215.089 80.2949 216.338C81.5618 217.587 82.5645 219.127 83.3027 220.959C84.041 222.791 84.4102 224.773 84.4102 226.906C84.4102 229.039 84.041 231.021 83.3027 232.854C82.5645 234.686 81.5618 236.226 80.2949 237.475C79.0371 238.723 77.5514 239.703 75.8379 240.414C74.1335 241.116 72.3242 241.467 70.4102 241.467ZM59.5957 221.191C58.985 222.951 58.6797 224.855 58.6797 226.906C58.6797 228.957 58.985 230.862 59.5957 232.621C60.2155 234.38 61.054 235.861 62.1113 237.064C63.1686 238.268 64.4128 239.211 65.8438 239.895C67.2839 240.569 68.806 240.906 70.4102 240.906C72.0143 240.906 73.5365 240.569 74.9766 239.895C76.4167 239.211 77.6654 238.268 78.7227 237.064C79.7891 235.861 80.6322 234.38 81.252 232.621C81.8717 230.862 82.1816 228.957 82.1816 226.906C82.1816 224.855 81.8717 222.951 81.252 221.191C80.6322 219.432 79.7891 217.951 78.7227 216.748C77.6654 215.545 76.4167 214.606 74.9766 213.932C73.5365 213.248 72.0143 212.906 70.4102 212.906C68.806 212.906 67.2839 213.248 65.8438 213.932C64.4128 214.606 63.1686 215.545 62.1113 216.748C61.054 217.951 60.2155 219.432 59.5957 221.191ZM88.0469 240.906V212.906H100.926C101.91 212.906 102.817 213.007 103.646 213.207C104.485 213.408 105.196 213.672 105.779 214C106.372 214.328 106.896 214.72 107.352 215.176C107.816 215.622 108.19 216.087 108.473 216.57C108.755 217.044 108.988 217.55 109.17 218.088C109.361 218.617 109.489 219.109 109.553 219.564C109.626 220.02 109.662 220.462 109.662 220.891C109.662 221.319 109.626 221.761 109.553 222.217C109.489 222.663 109.361 223.151 109.17 223.68C108.988 224.208 108.755 224.71 108.473 225.184C108.19 225.658 107.816 226.122 107.352 226.578C106.896 227.025 106.372 227.412 105.779 227.74C105.196 228.068 104.485 228.337 103.646 228.547C102.817 228.747 101.91 228.852 100.926 228.861H100.119C99.9095 228.861 99.7591 228.88 99.668 228.916C99.5768 228.943 99.5404 228.993 99.5586 229.066C99.5768 229.13 99.627 229.208 99.709 229.299C99.8001 229.39 99.9368 229.508 100.119 229.654C100.584 230.019 101.094 230.511 101.65 231.131C102.206 231.751 102.689 232.329 103.1 232.867C103.519 233.405 104.12 234.198 104.904 235.246C104.95 235.31 104.986 235.365 105.014 235.41C105.05 235.447 105.091 235.497 105.137 235.561C105.182 235.615 105.223 235.67 105.26 235.725C106.071 236.818 106.964 237.844 107.939 238.801C108.915 239.749 109.749 240.451 110.441 240.906H107.283C106.755 240.587 106.18 240.118 105.561 239.498C104.941 238.869 104.348 238.195 103.783 237.475C103.218 236.745 102.635 235.98 102.033 235.178C101.432 234.367 100.844 233.592 100.27 232.854C99.6953 232.115 99.1348 231.445 98.5879 230.844C98.0501 230.242 97.5078 229.764 96.9609 229.408C96.4232 229.044 95.9264 228.861 95.4707 228.861H92.9688V228.301H98.4648C101.227 228.301 103.337 227.649 104.795 226.346C106.262 225.033 106.996 223.215 106.996 220.891C106.996 218.566 106.262 216.748 104.795 215.436C103.337 214.123 101.227 213.467 98.4648 213.467H91.7383C91.1914 213.467 90.8086 213.581 90.5898 213.809C90.3711 214.036 90.2617 214.51 90.2617 215.23L90.2891 240.906H88.0469ZM115.609 240.906H113.258V212.906H115.555L124.797 230.215C124.988 230.589 125.202 230.775 125.439 230.775C125.658 230.775 125.863 230.579 126.055 230.188L134.148 212.906H136.719V240.906H134.367V215.955C134.367 215.718 134.335 215.536 134.271 215.408C134.208 215.271 134.126 215.203 134.025 215.203C133.87 215.203 133.715 215.354 133.561 215.654C133.415 215.919 132.608 217.614 131.141 220.74C129.682 223.857 128.256 226.911 126.861 229.9L124.77 234.385C118.362 222.363 115.017 216.119 114.734 215.654C114.579 215.354 114.415 215.203 114.242 215.203C114.142 215.203 114.06 215.271 113.996 215.408C113.941 215.545 113.919 215.727 113.928 215.955L115.609 240.906ZM141.982 240.906H139.521L149.064 214.219L148.477 212.906H150.951L163.434 240.906H160.973L158.922 236.34C158.484 235.355 157.764 234.48 156.762 233.715C155.768 232.94 154.693 232.361 153.535 231.979C152.378 231.587 151.261 231.391 150.186 231.391C148.335 231.391 146.608 231.969 145.004 233.127C144.703 233.346 144.402 233.71 144.102 234.221C143.81 234.722 143.6 235.205 143.473 235.67L141.982 240.906ZM145.031 230.297C144.895 230.798 144.945 231.049 145.182 231.049C145.3 231.049 145.505 230.976 145.797 230.83C146.891 230.229 148.076 229.928 149.352 229.928C150.618 229.928 151.895 230.201 153.18 230.748C154.474 231.286 155.682 232.01 156.803 232.922C157.122 233.186 157.322 233.286 157.404 233.223C157.486 233.159 157.441 232.94 157.268 232.566L150.049 216.379C149.885 215.987 149.707 215.791 149.516 215.791C149.315 215.791 149.146 216.014 149.01 216.461L145.031 230.297ZM158.471 212.906H180.031V215.395C178.983 214.939 177.516 214.506 175.629 214.096C173.751 213.676 172.493 213.467 171.855 213.467C171.327 213.467 170.944 213.604 170.707 213.877C170.479 214.141 170.365 214.638 170.365 215.367V240.906H168.123V215.367C168.123 214.638 168.009 214.141 167.781 213.877C167.553 213.604 167.175 213.467 166.646 213.467C166.008 213.467 164.746 213.676 162.859 214.096C160.982 214.506 159.519 214.939 158.471 215.395V212.906ZM183.941 240.906V212.906H186.184V240.906H183.941ZM203.793 241.467C202.262 241.467 200.79 241.243 199.377 240.797C197.973 240.35 196.693 239.703 195.535 238.855C194.387 237.999 193.384 236.987 192.527 235.82C191.671 234.645 191.005 233.296 190.531 231.773C190.057 230.242 189.82 228.62 189.82 226.906C189.82 225.193 190.057 223.575 190.531 222.053C191.005 220.521 191.671 219.173 192.527 218.006C193.384 216.83 194.387 215.818 195.535 214.971C196.693 214.114 197.973 213.462 199.377 213.016C200.79 212.569 202.262 212.346 203.793 212.346C205.707 212.346 207.516 212.701 209.221 213.412C210.934 214.114 212.42 215.089 213.678 216.338C214.945 217.587 215.947 219.127 216.686 220.959C217.424 222.791 217.793 224.773 217.793 226.906C217.793 229.039 217.424 231.021 216.686 232.854C215.947 234.686 214.945 236.226 213.678 237.475C212.42 238.723 210.934 239.703 209.221 240.414C207.516 241.116 205.707 241.467 203.793 241.467ZM192.979 221.191C192.368 222.951 192.062 224.855 192.062 226.906C192.062 228.957 192.368 230.862 192.979 232.621C193.598 234.38 194.437 235.861 195.494 237.064C196.551 238.268 197.796 239.211 199.227 239.895C200.667 240.569 202.189 240.906 203.793 240.906C205.397 240.906 206.919 240.569 208.359 239.895C209.799 239.211 211.048 238.268 212.105 237.064C213.172 235.861 214.015 234.38 214.635 232.621C215.255 230.862 215.564 228.957 215.564 226.906C215.564 224.855 215.255 222.951 214.635 221.191C214.015 219.432 213.172 217.951 212.105 216.748C211.048 215.545 209.799 214.606 208.359 213.932C206.919 213.248 205.397 212.906 203.793 212.906C202.189 212.906 200.667 213.248 199.227 213.932C197.796 214.606 196.551 215.545 195.494 216.748C194.437 217.951 193.598 219.432 192.979 221.191ZM221.43 240.906V212.906H223.727C228.913 220.262 234.865 228.679 241.582 238.158C241.783 238.441 241.96 238.582 242.115 238.582C242.334 238.582 242.43 238.34 242.402 237.857L240.721 212.906H243.072V240.906H240.83C239.609 239.184 236.984 235.492 232.955 229.832C228.936 224.163 225.586 219.437 222.906 215.654C222.706 215.372 222.528 215.23 222.373 215.23C222.163 215.23 222.072 215.472 222.1 215.955L223.781 240.906H221.43Z" fill="#383637"/>
<path d="M12 267.406H7C6.60218 267.406 6.22064 267.564 5.93934 267.846C5.65804 268.127 5.5 268.508 5.5 268.906V276.906C5.5 277.304 5.65804 277.686 5.93934 277.967C6.22064 278.248 6.60218 278.406 7 278.406H15C15.3978 278.406 15.7794 278.248 16.0607 277.967C16.342 277.686 16.5 277.304 16.5 276.906V271.906" stroke="#8C9EA8" stroke-linecap="round"/>
<path d="M12.5 271.406L18.864 265.042M14.5 264.406H19.5V269.406" stroke="#8C9EA8" stroke-linecap="round" stroke-linejoin="round"/>
<path d="M37.808 277.906V266.706H43.984V267.618H38.784V272.018H43.568V272.914H38.784V277.906H37.808ZM46.1636 277.906V269.634H46.9476L47.0436 271.49C47.6036 270.242 48.5476 269.634 50.0836 269.634H50.7716V270.498H50.0516C48.2756 270.498 47.0916 271.586 47.0916 274.098V277.906H46.1636ZM56.0925 278.114C53.5325 278.114 51.7405 276.322 51.7405 273.762C51.7405 271.218 53.5325 269.426 56.0925 269.426C58.6365 269.426 60.4285 271.218 60.4285 273.762C60.4285 276.322 58.6365 278.114 56.0925 278.114ZM52.6685 273.762C52.6685 275.81 54.0605 277.218 56.0925 277.218C58.1085 277.218 59.5005 275.81 59.5005 273.762C59.5005 271.73 58.1085 270.322 56.0925 270.322C54.0605 270.322 52.6685 271.73 52.6685 273.762ZM63.0074 277.906V269.634H63.7914L63.8714 270.978C64.4474 269.97 65.4554 269.426 66.7354 269.426C68.1754 269.426 69.2794 270.146 69.7594 271.41C70.3194 270.146 71.4554 269.426 72.9114 269.426C74.9914 269.426 76.3354 270.85 76.3354 273.154V277.906H75.4074V273.298C75.4074 271.458 74.3834 270.322 72.7994 270.322C71.1834 270.322 70.1274 271.49 70.1274 273.362V277.906H69.1994V273.298C69.1994 271.458 68.1914 270.322 66.6074 270.322C64.9914 270.322 63.9354 271.49 63.9354 273.362V277.906H63.0074ZM83.8861 277.906V266.706H84.8621V276.978H90.5421V277.906H83.8861ZM96.829 278.114C93.533 278.114 91.149 275.714 91.149 272.306C91.149 268.898 93.533 266.498 96.829 266.498C99.389 266.498 101.485 267.986 102.221 270.338H101.197C100.557 268.562 98.893 267.474 96.845 267.474C94.109 267.474 92.141 269.442 92.141 272.306C92.141 275.17 94.109 277.138 96.845 277.138C98.941 277.138 100.669 276.002 101.293 274.146H102.317C101.629 276.562 99.469 278.114 96.829 278.114ZM107.118 277.906L111.758 266.706H112.686L117.326 277.906H116.302L115.134 275.09H109.31L108.158 277.906H107.118ZM109.694 274.194H114.766L112.222 268.034L109.694 274.194ZM122.558 278.114C120.046 278.114 118.334 276.338 118.334 273.762C118.334 271.202 120.062 269.426 122.574 269.426C125.182 269.426 126.862 271.346 126.798 274.146H119.278C119.438 276.018 120.718 277.234 122.558 277.234C123.902 277.234 124.974 276.61 125.518 275.538L126.558 275.554C125.918 277.138 124.414 278.114 122.558 278.114ZM119.278 273.33H125.886C125.662 271.458 124.382 270.306 122.574 270.306C120.734 270.306 119.438 271.506 119.278 273.33ZM132.184 278.114C130.088 278.114 128.76 277.058 128.696 275.41H129.608C129.704 276.578 130.616 277.266 132.2 277.266C133.656 277.266 134.536 276.706 134.536 275.794C134.536 274.93 133.752 274.402 131.992 274.098C129.832 273.73 128.856 272.962 128.856 271.698C128.856 270.29 130.056 269.426 131.992 269.426C133.944 269.426 135.176 270.354 135.304 271.938H134.376C134.28 270.85 133.432 270.258 131.992 270.258C130.616 270.258 129.784 270.818 129.784 271.714C129.784 272.53 130.472 272.978 132.312 273.33C134.408 273.73 135.448 274.562 135.448 275.81C135.448 277.202 134.184 278.114 132.184 278.114ZM141.258 277.906C139.498 277.906 138.554 276.914 138.554 275.042V270.482H136.746V269.634H137.802C138.426 269.634 138.602 269.474 138.666 268.866L138.746 267.602H139.482V269.634H142.346V270.482H139.482V275.01C139.482 276.37 140.042 277.01 141.29 277.01H142.458V277.906H141.258ZM144.945 277.906V266.066H145.873V271.138C146.529 270.002 147.681 269.426 148.977 269.426C151.121 269.426 152.433 270.914 152.433 273.298V277.906H151.505V273.378C151.505 271.474 150.497 270.322 148.849 270.322C147.105 270.322 145.873 271.618 145.873 273.602V277.906H144.945ZM159.058 278.114C156.546 278.114 154.834 276.338 154.834 273.762C154.834 271.202 156.562 269.426 159.074 269.426C161.682 269.426 163.362 271.346 163.298 274.146H155.778C155.938 276.018 157.218 277.234 159.058 277.234C160.402 277.234 161.474 276.61 162.018 275.538L163.058 275.554C162.418 277.138 160.914 278.114 159.058 278.114ZM155.778 273.33H162.386C162.162 271.458 160.882 270.306 159.074 270.306C157.234 270.306 155.938 271.506 155.778 273.33ZM168.93 277.906C167.17 277.906 166.226 276.914 166.226 275.042V270.482H164.418V269.634H165.474C166.098 269.634 166.274 269.474 166.338 268.866L166.418 267.602H167.154V269.634H170.018V270.482H167.154V275.01C167.154 276.37 167.714 277.01 168.962 277.01H170.13V277.906H168.93ZM172.617 277.906V269.634H173.545V277.906H172.617ZM172.233 267.282C172.233 266.818 172.569 266.45 173.081 266.45C173.593 266.45 173.929 266.818 173.929 267.282C173.929 267.762 173.593 268.13 173.081 268.13C172.569 268.13 172.233 267.762 172.233 267.282ZM180.34 278.114C177.86 278.114 176.116 276.306 176.116 273.762C176.116 271.218 177.86 269.426 180.34 269.426C182.308 269.426 183.924 270.594 184.404 272.386H183.46C182.916 271.074 181.764 270.322 180.34 270.322C178.388 270.322 177.044 271.73 177.044 273.762C177.044 275.81 178.388 277.218 180.34 277.218C181.86 277.218 183.044 276.37 183.508 275.01H184.484C183.924 276.946 182.372 278.114 180.34 278.114ZM189.855 278.114C187.759 278.114 186.431 277.058 186.367 275.41H187.279C187.375 276.578 188.287 277.266 189.871 277.266C191.327 277.266 192.207 276.706 192.207 275.794C192.207 274.93 191.423 274.402 189.663 274.098C187.503 273.73 186.527 272.962 186.527 271.698C186.527 270.29 187.727 269.426 189.663 269.426C191.615 269.426 192.847 270.354 192.975 271.938H192.047C191.951 270.85 191.103 270.258 189.663 270.258C188.287 270.258 187.455 270.818 187.455 271.714C187.455 272.53 188.143 272.978 189.983 273.33C192.079 273.73 193.119 274.562 193.119 275.81C193.119 277.202 191.855 278.114 189.855 278.114ZM202.718 278.114C200.446 278.114 199.038 277.01 199.038 275.186C199.038 273.81 199.838 272.77 201.502 272.018C200.526 270.946 199.95 270.05 199.95 269.042C199.95 267.522 201.214 266.498 203.07 266.498C204.942 266.498 206.206 267.57 206.206 269.122C206.206 270.514 205.23 271.522 203.086 272.338L206.11 275.442C206.558 274.674 206.798 273.682 206.814 272.482H207.742C207.726 273.97 207.406 275.202 206.782 276.13L208.526 277.906H207.278L206.222 276.818C205.374 277.666 204.19 278.114 202.718 278.114ZM199.966 275.17C199.966 276.45 201.022 277.218 202.734 277.218C203.918 277.218 204.878 276.85 205.55 276.162L202.158 272.69C200.686 273.298 199.966 274.13 199.966 275.17ZM200.862 269.042C200.862 269.746 201.294 270.466 202.43 271.666C204.478 270.882 205.294 270.162 205.294 269.122C205.294 268.05 204.43 267.362 203.07 267.362C201.726 267.362 200.862 268.018 200.862 269.042ZM216.751 277.906L213.087 266.706H214.111L215.775 271.81L217.247 276.386L218.927 271.81L220.783 266.706H221.711L225.263 276.402L226.751 271.81L228.399 266.706H229.423L225.743 277.906H224.831L221.247 268.178L219.263 273.586L217.679 277.906H216.751ZM234.09 278.114C231.578 278.114 229.866 276.338 229.866 273.762C229.866 271.202 231.594 269.426 234.106 269.426C236.714 269.426 238.394 271.346 238.33 274.146H230.81C230.97 276.018 232.25 277.234 234.09 277.234C235.434 277.234 236.506 276.61 237.05 275.538L238.09 275.554C237.45 277.138 235.946 278.114 234.09 278.114ZM230.81 273.33H237.418C237.194 271.458 235.914 270.306 234.106 270.306C232.266 270.306 230.97 271.506 230.81 273.33ZM240.867 277.906V266.066H241.795V277.906H240.867ZM245.086 277.906V266.066H246.014V277.906H245.086ZM249.304 277.906V269.634H250.088L250.168 271.234C250.824 270.05 251.976 269.426 253.304 269.426C255.464 269.426 256.792 270.946 256.792 273.33V277.906H255.864V273.41C255.864 271.506 254.84 270.322 253.192 270.322C251.448 270.322 250.232 271.65 250.232 273.618V277.906H249.304ZM263.418 278.114C260.906 278.114 259.194 276.338 259.194 273.762C259.194 271.202 260.922 269.426 263.434 269.426C266.042 269.426 267.722 271.346 267.658 274.146H260.138C260.298 276.018 261.578 277.234 263.418 277.234C264.762 277.234 265.834 276.61 266.378 275.538L267.418 275.554C266.778 277.138 265.274 278.114 263.418 278.114ZM260.138 273.33H266.746C266.522 271.458 265.242 270.306 263.434 270.306C261.594 270.306 260.298 271.506 260.138 273.33ZM273.043 278.114C270.947 278.114 269.619 277.058 269.555 275.41H270.467C270.563 276.578 271.475 277.266 273.059 277.266C274.515 277.266 275.395 276.706 275.395 275.794C275.395 274.93 274.611 274.402 272.851 274.098C270.691 273.73 269.715 272.962 269.715 271.698C269.715 270.29 270.915 269.426 272.851 269.426C274.803 269.426 276.035 270.354 276.163 271.938H275.235C275.139 270.85 274.291 270.258 272.851 270.258C271.475 270.258 270.643 270.818 270.643 271.714C270.643 272.53 271.331 272.978 273.171 273.33C275.267 273.73 276.307 274.562 276.307 275.81C276.307 277.202 275.043 278.114 273.043 278.114ZM281.84 278.114C279.744 278.114 278.416 277.058 278.352 275.41H279.264C279.36 276.578 280.272 277.266 281.856 277.266C283.312 277.266 284.192 276.706 284.192 275.794C284.192 274.93 283.408 274.402 281.648 274.098C279.488 273.73 278.512 272.962 278.512 271.698C278.512 270.29 279.712 269.426 281.648 269.426C283.6 269.426 284.832 270.354 284.96 271.938H284.032C283.936 270.85 283.088 270.258 281.648 270.258C280.272 270.258 279.44 270.818 279.44 271.714C279.44 272.53 280.128 272.978 281.968 273.33C284.064 273.73 285.104 274.562 285.104 275.81C285.104 277.202 283.84 278.114 281.84 278.114Z" fill="#5B5852"/>
</svg>
