<svg width="366" height="283" viewBox="0 0 366 283" fill="none" xmlns="http://www.w3.org/2000/svg">
<path d="M39.9453 0.321289C39.6338 1.16044 39.3391 1.99171 39.0156 2.74316C37.3342 6.65348 35.4723 10.4771 33.9385 14.4443C32.7574 17.4977 31.6991 20.6355 30.6328 23.7188C31.3354 23.7132 31.259 22.7499 31.4941 22.2021C31.6174 21.9172 32.0982 21.1689 32.3633 21.0469C32.7734 20.8598 33.5277 21.1803 33.4648 21.625C32.642 23.5828 32.2598 25.6845 31.5244 27.6748C30.9011 29.3615 30.3349 31.0402 29.7197 32.7432C27.8688 37.8601 25.5552 42.9445 23.8164 48.0615C21.3449 55.337 19.42 62.8133 16.6504 69.9912C15.4803 73.0229 14.8241 76.0493 13.8535 79.1162C13.2794 80.9276 12.3035 83.3685 12.041 85.1826C11.9864 85.5649 12.0908 85.9961 12.0088 86.3594C11.954 86.5953 11.5984 87.029 11.4727 87.3408C10.7727 89.0872 10.0205 92.7534 9.71973 94.6787C9.63498 95.2237 9.64093 96.753 9.46875 97.0488C9.30749 97.3226 9.13502 97.2523 9.08301 96.9678C8.99552 96.477 9.04434 95.0989 9.07715 94.543C9.17013 93.0326 9.56976 91.4976 9.78027 89.998C9.94699 88.8106 9.85908 88.6555 10.3184 87.5059C10.7776 86.3535 10.9012 85.4557 11.1035 84.249C12.2136 77.5973 14.6663 71.7294 16.375 65.2783C16.6949 64.0662 17.2227 62.3848 17.3184 61.1699C17.3266 61.0587 17.3944 60.7961 17.2197 60.8203C15.0243 69.0448 11.8476 76.9819 9.62207 85.1982C8.86474 87.9995 8.15387 90.8419 7.86133 93.7354C7.81217 94.2153 7.91834 94.7605 7.85547 95.2432C7.78431 95.7935 7.47853 96.4821 7.38281 97.0947C7.0192 99.4647 7.0871 103.687 7.98926 105.916C8.77393 107.855 9.73689 107.977 11.1641 109.219C11.6341 109.628 12.2528 110.357 12.9062 110.906H0V45.7666C0 22.4516 17.4142 3.20438 39.9453 0.321289ZM50.0527 77.2129C50.1184 77.137 50.441 76.6321 50.5586 76.7568C47.7972 82.1179 45.3284 87.7611 44.1035 93.6943C42.9005 99.5164 43.056 103.598 45.9678 108.889C46.3353 109.556 46.9382 110.255 47.6699 110.906H16.7666C18.7844 110.166 21.1762 109.112 22.8105 108.159C23.1084 107.986 24.3901 107.129 24.4922 106.896C24.5441 106.776 24.2899 106.675 24.3418 106.461C24.4214 106.133 25.1152 105.767 25.293 105.577C25.6483 105.198 25.8808 104.696 26.3125 104.271C26.5886 103.997 27.7477 103.018 28.0488 102.969C28.8827 102.833 30.157 103.831 30.1133 102.627C29.1618 102.041 29.5202 101.447 30.5127 101.371C30.7918 101.35 31.6414 101.821 31.5107 101.149C31.3494 100.32 31.1636 100.29 31.9072 99.6416C33.1402 98.5678 35.1169 97.4341 35.4014 95.6445C35.4369 95.4141 35.2016 95.2215 35.5186 94.9531C36.3169 94.2779 37.894 95.0664 38.3916 93.6699C38.4709 93.4503 38.4463 93.1356 38.5557 92.9512C38.6186 92.8454 38.8569 92.7883 38.9717 92.6338C39.3732 92.0832 39.0835 90.8335 39.1709 90.1611L38.5615 90.0088L39.1191 89.5586C39.3267 89.6426 39.2399 90.0244 39.2725 90.0576C39.3244 90.1119 39.8578 90.0332 39.959 89.9355C40.0385 89.855 40.234 89.2001 40.1855 89.1553H39.7285C39.5344 88.8109 40.0708 88.6075 40.2295 88.3418C40.3498 88.1385 40.355 87.8671 40.4697 87.6719C41.197 86.4489 42.4302 85.9171 43.3379 84.9707C43.6058 84.6914 43.756 84.3361 44.0977 84.0107C44.2917 83.8264 44.6309 83.6939 44.7568 83.5557C44.94 83.3523 44.9129 83.0536 45.0469 82.834C45.7523 81.6599 47.4198 80.4534 48.374 79.377C48.9755 78.6964 49.465 77.9071 50.0527 77.2129ZM47.9854 0C72.2842 1.13123 91.6377 21.188 91.6377 45.7666V110.906H62.749C63.428 110.409 63.8634 109.705 64.5977 109.181C65.6665 108.419 66.9378 108.08 67.9766 107.392C74.2649 103.21 80.7424 96.9481 85.6309 91.2236C87.438 89.1085 90.2399 86.0147 91.123 83.4658C91.3773 82.7337 91.6917 81.9826 91.6289 81.1963L91.6348 81.1904C91.4926 81.1796 91.3584 81.1902 91.2217 81.2363C90.8362 81.3719 88.4033 84.0919 87.9219 84.6182C82.2706 90.7873 77.1112 97.8434 69.9727 102.407C66.2571 104.783 62.4297 106.35 58.3916 108.062C56.579 108.829 52.9811 109.308 51.0508 108.988C49.2819 108.695 48.716 108.46 48.2539 106.719C47.8875 105.341 47.3264 102.261 47.3154 100.886C47.31 100.04 47.7477 98.9331 47.9062 98.0654C49.2624 90.5947 52.9266 81.6701 57.249 75.3682C59.2202 72.4913 61.178 70.7337 63.5264 68.2852C64.4858 67.2846 65.2292 66.0833 66.1641 65.0557C68.0751 62.9568 70.3718 61.2349 72.7285 59.6621L72.9502 59.6299C73.713 59.9905 74.4239 60.0558 74.957 60.7744C76.8786 63.3614 72.8762 67.1357 71.583 69.2236C71.4135 69.5599 71.3731 70.0757 71.6328 70.374C71.7726 70.5364 72.2416 70.6796 72.4658 70.7041C73.0973 70.7746 75.0087 70.7914 75.6104 70.6992C77.2945 70.4389 79.4707 66.0971 79.6895 64.5596C80.2854 60.3647 77.3085 57.5312 73.3525 56.9209C71.7834 56.6796 71.7937 56.994 70.5283 57.1865C68.8469 57.4441 68.0943 57.0377 66.3828 58.0166C62.7247 60.1156 57.8578 65.3436 55.3535 68.7549C54.0249 70.5662 53.0904 72.7115 51.625 74.333C50.5615 75.5126 49.3366 76.5809 48.2676 77.7578C46.4221 79.7916 44.7673 82.0095 42.8809 84.0107C41.3006 85.692 39.4257 87.2436 37.8975 88.9492C34.696 92.5205 31.8002 95.4244 28.041 98.4316C27.2563 99.058 26.6081 99.8472 25.8535 100.498C23.2809 102.708 19.9129 105.255 16.9355 106.879C15.6123 107.6 14.1849 108.647 13.3701 106.824C12.5583 105.004 12.7682 100.744 12.9404 98.6836C13.0171 97.7673 13.4496 96.9052 13.5371 95.9482C13.6574 94.6385 13.5479 93.6317 13.9307 92.3057C14.286 91.0776 14.521 90.3237 14.7998 89.0332C15.2919 86.7581 16.0161 85.1254 16.6504 83.0049C17.7549 79.3143 18.5732 75.4827 19.8555 71.8652C21.9743 65.8861 23.7152 59.7791 25.8477 53.8135C28.5325 46.3075 31.683 38.9531 34.417 31.458C35.2481 29.1748 36.1558 26.9319 37.0088 24.6514C38.9035 19.5723 40.8413 14.4411 43.25 9.56543C44.2233 7.59137 45.399 6.17858 46.4707 4.3916C46.8665 3.73277 47.6789 1.32218 47.9854 0ZM8.88867 99.9854H8.8916L8.58301 100.04C8.38895 99.7039 8.60436 99.3915 8.98145 99.3398L8.88867 99.9854ZM37.0908 91.4736C37.2136 91.4086 37.2818 91.3355 37.4482 91.376C37.4018 91.7013 37.5632 92.2946 37.3477 92.5361L37.1641 92.6699C36.8562 92.8839 36.271 93.273 36.1992 93.3096C35.8958 93.4641 35.5509 93.5183 35.2119 93.4912C34.9774 93.282 36.8229 91.6119 37.0908 91.4736ZM47.4385 87.3135C47.2581 87.7933 46.873 86.7859 47.4111 86.8369L47.4385 87.3135ZM47.7207 85.2256C47.9665 85.1797 48.0021 85.4263 48.125 85.5781H48.1221L47.9717 85.7275L47.7314 85.5645L47.7207 85.2256ZM48.4287 83.3086C48.5244 83.2463 48.7645 83.3306 48.8301 83.458L48.4775 84.1113C48.2126 84.0297 48.3713 83.3436 48.4287 83.3057V83.3086ZM50.46 79.9814C50.4846 80.3584 50.4815 80.9518 49.9512 80.8867C49.9293 80.461 49.9187 79.9815 50.46 79.9814ZM51.2666 77.9229C51.286 77.8229 51.5444 77.8499 51.5752 77.8662C51.7801 77.999 51.5594 78.5652 51.3271 78.666C51.0565 78.4708 51.19 78.164 51.2666 77.9199V77.9229ZM53.3086 74.5361C53.2813 74.8588 53.4396 75.0921 53.3467 75.4229C53.2236 75.8648 52.6884 76.2196 52.5381 75.6475C52.454 75.3272 53.1908 74.3957 53.3086 74.5361ZM35.2891 13.8584C36.1035 13.6905 35.9966 14.6499 35.4443 14.7285C34.843 14.815 34.6439 13.9913 35.2891 13.8584ZM36.7402 11.8223C36.5762 11.1226 36.4427 10.2845 37.457 10.5557C37.7604 11.117 37.4155 11.8412 36.7402 11.8223Z" fill="#BDC4C4"/>
<path d="M4.48438 162.906H2.24219V134.906H21.6426V137.395C20.2025 136.911 17.8555 136.469 14.6016 136.068C11.3568 135.667 8.46745 135.467 5.93359 135.467C5.40495 135.467 5.02669 135.604 4.79883 135.877C4.57096 136.141 4.45703 136.638 4.45703 137.367V146.213C4.45703 146.632 4.58464 146.974 4.83984 147.238C5.09505 147.493 5.43229 147.621 5.85156 147.621H18.8945V149.973C17.2174 149.562 15.0117 149.18 12.2773 148.824C9.54297 148.469 7.41016 148.291 5.87891 148.291C5.45052 148.291 5.10872 148.396 4.85352 148.605C4.60742 148.815 4.48438 149.12 4.48438 149.521V162.906ZM20.4668 162.906H18.0059L27.5488 136.219L26.9609 134.906H29.4355L41.918 162.906H39.457L37.4062 158.34C36.9688 157.355 36.2487 156.48 35.2461 155.715C34.2526 154.94 33.1771 154.361 32.0195 153.979C30.862 153.587 29.7454 153.391 28.6699 153.391C26.8197 153.391 25.0924 153.969 23.4883 155.127C23.1875 155.346 22.8867 155.71 22.5859 156.221C22.2943 156.722 22.0846 157.205 21.957 157.67L20.4668 162.906ZM23.5156 152.297C23.3789 152.798 23.429 153.049 23.666 153.049C23.7845 153.049 23.9896 152.976 24.2812 152.83C25.375 152.229 26.5599 151.928 27.8359 151.928C29.1029 151.928 30.3789 152.201 31.6641 152.748C32.9583 153.286 34.166 154.01 35.2871 154.922C35.6061 155.186 35.8066 155.286 35.8887 155.223C35.9707 155.159 35.9251 154.94 35.752 154.566L28.5332 138.379C28.3691 137.987 28.1914 137.791 28 137.791C27.7995 137.791 27.6309 138.014 27.4941 138.461L23.5156 152.297ZM41.8633 153.773C41.3893 152.242 41.1523 150.62 41.1523 148.906C41.1523 147.193 41.3893 145.575 41.8633 144.053C42.3372 142.521 43.0026 141.173 43.8594 140.006C44.7161 138.83 45.7188 137.818 46.8672 136.971C48.0247 136.114 49.3053 135.462 50.709 135.016C52.1217 134.569 53.5938 134.346 55.125 134.346C56.4193 134.346 57.6816 134.464 58.9121 134.701C60.1517 134.938 61.2773 135.275 62.2891 135.713C63.3099 136.15 64.1302 136.725 64.75 137.436C65.3698 138.146 65.6797 138.935 65.6797 139.801C65.6797 140.102 65.6341 140.361 65.543 140.58C65.4609 140.79 65.3561 140.945 65.2285 141.045C65.11 141.136 64.987 141.209 64.8594 141.264C64.7409 141.309 64.6406 141.332 64.5586 141.332L64.4219 141.346C64.3125 140.571 63.9889 139.796 63.4512 139.021C62.9134 138.247 62.2344 137.559 61.4141 136.957C60.6029 136.346 59.6413 135.854 58.5293 135.48C57.4173 135.098 56.2826 134.906 55.125 134.906C53.5208 134.906 51.9987 135.248 50.5586 135.932C49.1276 136.606 47.8835 137.545 46.8262 138.748C45.7689 139.951 44.9303 141.432 44.3105 143.191C43.6999 144.951 43.3945 146.855 43.3945 148.906C43.3945 150.957 43.6999 152.862 44.3105 154.621C44.9303 156.38 45.7689 157.861 46.8262 159.064C47.8835 160.268 49.1276 161.211 50.5586 161.895C51.9987 162.569 53.5208 162.906 55.125 162.906C56.1823 162.906 57.2533 162.733 58.3379 162.387C59.4316 162.04 60.4388 161.576 61.3594 160.992C62.2799 160.4 63.123 159.748 63.8887 159.037C64.6634 158.317 65.3288 157.561 65.8848 156.768V159.912C65.2012 160.942 63.8385 161.794 61.7969 162.469C59.7552 163.134 57.5312 163.467 55.125 163.467C53.5938 163.467 52.1217 163.243 50.709 162.797C49.3053 162.35 48.0247 161.703 46.8672 160.855C45.7188 159.999 44.7161 158.987 43.8594 157.82C43.0026 156.645 42.3372 155.296 41.8633 153.773ZM69.5078 162.906V134.906H71.75V162.906H69.5078ZM77.0137 162.906H74.5527L84.0957 136.219L83.5078 134.906H85.9824L98.4648 162.906H96.0039L93.9531 158.34C93.5156 157.355 92.7956 156.48 91.793 155.715C90.7995 154.94 89.724 154.361 88.5664 153.979C87.4089 153.587 86.2923 153.391 85.2168 153.391C83.3665 153.391 81.6393 153.969 80.0352 155.127C79.7344 155.346 79.4336 155.71 79.1328 156.221C78.8411 156.722 78.6315 157.205 78.5039 157.67L77.0137 162.906ZM80.0625 152.297C79.9258 152.798 79.9759 153.049 80.2129 153.049C80.3314 153.049 80.5365 152.976 80.8281 152.83C81.9219 152.229 83.1068 151.928 84.3828 151.928C85.6497 151.928 86.9258 152.201 88.2109 152.748C89.5052 153.286 90.7129 154.01 91.834 154.922C92.153 155.186 92.3535 155.286 92.4355 155.223C92.5176 155.159 92.472 154.94 92.2988 154.566L85.0801 138.379C84.916 137.987 84.7383 137.791 84.5469 137.791C84.3464 137.791 84.1777 138.014 84.041 138.461L80.0625 152.297ZM120.189 162.906H100.789V134.906H103.004V160.445C103.004 161.174 103.118 161.676 103.346 161.949C103.574 162.214 103.952 162.346 104.48 162.346C107.014 162.346 109.904 162.145 113.148 161.744C116.402 161.343 118.749 160.901 120.189 160.418V162.906ZM134.312 162.906H132.07V134.906H151.471V137.395C150.031 136.911 147.684 136.469 144.43 136.068C141.185 135.667 138.296 135.467 135.762 135.467C135.233 135.467 134.855 135.604 134.627 135.877C134.399 136.141 134.285 136.638 134.285 137.367V146.213C134.285 146.632 134.413 146.974 134.668 147.238C134.923 147.493 135.26 147.621 135.68 147.621H148.723V149.973C147.046 149.562 144.84 149.18 142.105 148.824C139.371 148.469 137.238 148.291 135.707 148.291C135.279 148.291 134.937 148.396 134.682 148.605C134.436 148.815 134.312 149.12 134.312 149.521V162.906ZM155.395 162.906V134.906H157.637V162.906H155.395ZM181.521 162.906H162.121V134.906H164.336V160.445C164.336 161.174 164.45 161.676 164.678 161.949C164.906 162.214 165.284 162.346 165.812 162.346C168.346 162.346 171.236 162.145 174.48 161.744C177.734 161.343 180.081 160.901 181.521 160.418V162.906ZM204.408 162.906H185.008V134.906H187.223V160.445C187.223 161.174 187.337 161.676 187.564 161.949C187.792 162.214 188.171 162.346 188.699 162.346C191.233 162.346 194.122 162.145 197.367 161.744C200.621 161.343 202.968 160.901 204.408 160.418V162.906ZM207.895 162.906V134.906H227.295V137.395C225.855 136.911 223.508 136.469 220.254 136.068C217.009 135.667 214.12 135.467 211.586 135.467C211.057 135.467 210.679 135.604 210.451 135.877C210.223 136.141 210.109 136.638 210.109 137.367V146.213C210.109 146.632 210.237 146.974 210.492 147.238C210.747 147.493 211.085 147.621 211.504 147.621H224.547V149.973C222.87 149.562 220.664 149.18 217.93 148.824C215.195 148.469 213.062 148.291 211.531 148.291C211.103 148.291 210.761 148.396 210.506 148.605C210.26 148.815 210.137 149.12 210.137 149.521L210.109 160.445C210.109 161.174 210.223 161.676 210.451 161.949C210.679 162.214 211.057 162.346 211.586 162.346C214.12 162.346 217.009 162.145 220.254 161.744C223.508 161.343 225.855 160.901 227.295 160.418V162.906H207.895ZM231.219 162.906V134.906H244.098C245.082 134.906 245.989 135.007 246.818 135.207C247.657 135.408 248.368 135.672 248.951 136C249.544 136.328 250.068 136.72 250.523 137.176C250.988 137.622 251.362 138.087 251.645 138.57C251.927 139.044 252.16 139.55 252.342 140.088C252.533 140.617 252.661 141.109 252.725 141.564C252.798 142.02 252.834 142.462 252.834 142.891C252.834 143.319 252.798 143.761 252.725 144.217C252.661 144.663 252.533 145.151 252.342 145.68C252.16 146.208 251.927 146.71 251.645 147.184C251.362 147.658 250.988 148.122 250.523 148.578C250.068 149.025 249.544 149.412 248.951 149.74C248.368 150.068 247.657 150.337 246.818 150.547C245.989 150.747 245.082 150.852 244.098 150.861H243.291C243.081 150.861 242.931 150.88 242.84 150.916C242.749 150.943 242.712 150.993 242.73 151.066C242.749 151.13 242.799 151.208 242.881 151.299C242.972 151.39 243.109 151.508 243.291 151.654C243.756 152.019 244.266 152.511 244.822 153.131C245.378 153.751 245.861 154.329 246.271 154.867C246.691 155.405 247.292 156.198 248.076 157.246C248.122 157.31 248.158 157.365 248.186 157.41C248.222 157.447 248.263 157.497 248.309 157.561C248.354 157.615 248.395 157.67 248.432 157.725C249.243 158.818 250.136 159.844 251.111 160.801C252.087 161.749 252.921 162.451 253.613 162.906H250.455C249.926 162.587 249.352 162.118 248.732 161.498C248.113 160.869 247.52 160.195 246.955 159.475C246.39 158.745 245.807 157.98 245.205 157.178C244.604 156.367 244.016 155.592 243.441 154.854C242.867 154.115 242.307 153.445 241.76 152.844C241.222 152.242 240.68 151.764 240.133 151.408C239.595 151.044 239.098 150.861 238.643 150.861H236.141V150.301H241.637C244.398 150.301 246.508 149.649 247.967 148.346C249.434 147.033 250.168 145.215 250.168 142.891C250.168 140.566 249.434 138.748 247.967 137.436C246.508 136.123 244.398 135.467 241.637 135.467H234.91C234.363 135.467 233.98 135.581 233.762 135.809C233.543 136.036 233.434 136.51 233.434 137.23L233.461 162.906H231.219ZM2.24219 201.906V173.906H4.48438V201.906H2.24219ZM8.96875 201.906V173.906H11.2656C16.4518 181.262 22.4036 189.679 29.1211 199.158C29.3216 199.441 29.4993 199.582 29.6543 199.582C29.873 199.582 29.9688 199.34 29.9414 198.857L28.2598 173.906H30.6113V201.906H28.3691C27.1478 200.184 24.5228 196.492 20.4941 190.832C16.4746 185.163 13.125 180.437 10.4453 176.654C10.2448 176.372 10.0671 176.23 9.91211 176.23C9.70247 176.23 9.61133 176.472 9.63867 176.955L11.3203 201.906H8.96875ZM26.9473 205.488L27.2891 204.955C28.0638 205.611 29.194 205.939 30.6797 205.939C31.5091 205.939 32.2337 205.789 32.8535 205.488C33.4824 205.188 33.9746 204.782 34.3301 204.271C34.6855 203.761 34.9499 203.21 35.123 202.617C35.2962 202.025 35.3828 201.396 35.3828 200.73V173.906H37.625V199.979C37.625 200.535 37.5521 201.1 37.4062 201.674C37.2604 202.248 37.0143 202.827 36.668 203.41C36.3307 203.993 35.9115 204.508 35.4102 204.955C34.9089 205.411 34.2663 205.78 33.4824 206.062C32.7077 206.354 31.8464 206.5 30.8984 206.5C29.2669 206.5 27.9499 206.163 26.9473 205.488ZM42.1094 201.906V173.906H61.5098V176.395C60.0697 175.911 57.7227 175.469 54.4688 175.068C51.224 174.667 48.3346 174.467 45.8008 174.467C45.2721 174.467 44.8939 174.604 44.666 174.877C44.4382 175.141 44.3242 175.638 44.3242 176.367V185.213C44.3242 185.632 44.4518 185.974 44.707 186.238C44.9622 186.493 45.2995 186.621 45.7188 186.621H58.7617V188.973C57.0846 188.562 54.8789 188.18 52.1445 187.824C49.4102 187.469 47.2773 187.291 45.7461 187.291C45.3177 187.291 44.9759 187.396 44.7207 187.605C44.4746 187.815 44.3516 188.12 44.3516 188.521L44.3242 199.445C44.3242 200.174 44.4382 200.676 44.666 200.949C44.8939 201.214 45.2721 201.346 45.8008 201.346C48.3346 201.346 51.224 201.145 54.4688 200.744C57.7227 200.343 60.0697 199.901 61.5098 199.418V201.906H42.1094ZM64.1758 192.773C63.7018 191.242 63.4648 189.62 63.4648 187.906C63.4648 186.193 63.7018 184.575 64.1758 183.053C64.6497 181.521 65.3151 180.173 66.1719 179.006C67.0286 177.83 68.0312 176.818 69.1797 175.971C70.3372 175.114 71.6178 174.462 73.0215 174.016C74.4342 173.569 75.9062 173.346 77.4375 173.346C78.7318 173.346 79.9941 173.464 81.2246 173.701C82.4642 173.938 83.5898 174.275 84.6016 174.713C85.6224 175.15 86.4427 175.725 87.0625 176.436C87.6823 177.146 87.9922 177.935 87.9922 178.801C87.9922 179.102 87.9466 179.361 87.8555 179.58C87.7734 179.79 87.6686 179.945 87.541 180.045C87.4225 180.136 87.2995 180.209 87.1719 180.264C87.0534 180.309 86.9531 180.332 86.8711 180.332L86.7344 180.346C86.625 179.571 86.3014 178.796 85.7637 178.021C85.2259 177.247 84.5469 176.559 83.7266 175.957C82.9154 175.346 81.9538 174.854 80.8418 174.48C79.7298 174.098 78.5951 173.906 77.4375 173.906C75.8333 173.906 74.3112 174.248 72.8711 174.932C71.4401 175.606 70.196 176.545 69.1387 177.748C68.0814 178.951 67.2428 180.432 66.623 182.191C66.0124 183.951 65.707 185.855 65.707 187.906C65.707 189.957 66.0124 191.862 66.623 193.621C67.2428 195.38 68.0814 196.861 69.1387 198.064C70.196 199.268 71.4401 200.211 72.8711 200.895C74.3112 201.569 75.8333 201.906 77.4375 201.906C78.4948 201.906 79.5658 201.733 80.6504 201.387C81.7441 201.04 82.7513 200.576 83.6719 199.992C84.5924 199.4 85.4355 198.748 86.2012 198.037C86.9759 197.317 87.6413 196.561 88.1973 195.768V198.912C87.5137 199.942 86.151 200.794 84.1094 201.469C82.0677 202.134 79.8438 202.467 77.4375 202.467C75.9062 202.467 74.4342 202.243 73.0215 201.797C71.6178 201.35 70.3372 200.703 69.1797 199.855C68.0312 198.999 67.0286 197.987 66.1719 196.82C65.3151 195.645 64.6497 194.296 64.1758 192.773ZM90.1387 173.906H111.699V176.395C110.651 175.939 109.184 175.506 107.297 175.096C105.419 174.676 104.161 174.467 103.523 174.467C102.995 174.467 102.612 174.604 102.375 174.877C102.147 175.141 102.033 175.638 102.033 176.367V201.906H99.791V176.367C99.791 175.638 99.6771 175.141 99.4492 174.877C99.2214 174.604 98.8431 174.467 98.3145 174.467C97.6764 174.467 96.4141 174.676 94.5273 175.096C92.6497 175.506 91.1868 175.939 90.1387 176.395V173.906ZM109.662 201.906H107.201L116.744 175.219L116.156 173.906H118.631L131.113 201.906H128.652L126.602 197.34C126.164 196.355 125.444 195.48 124.441 194.715C123.448 193.94 122.372 193.361 121.215 192.979C120.057 192.587 118.941 192.391 117.865 192.391C116.015 192.391 114.288 192.969 112.684 194.127C112.383 194.346 112.082 194.71 111.781 195.221C111.49 195.722 111.28 196.205 111.152 196.67L109.662 201.906ZM112.711 191.297C112.574 191.798 112.624 192.049 112.861 192.049C112.98 192.049 113.185 191.976 113.477 191.83C114.57 191.229 115.755 190.928 117.031 190.928C118.298 190.928 119.574 191.201 120.859 191.748C122.154 192.286 123.361 193.01 124.482 193.922C124.801 194.186 125.002 194.286 125.084 194.223C125.166 194.159 125.12 193.94 124.947 193.566L117.729 177.379C117.564 176.987 117.387 176.791 117.195 176.791C116.995 176.791 116.826 177.014 116.689 177.461L112.711 191.297ZM146.316 201.906H133.438V173.906H145.701C146.613 173.906 147.447 173.993 148.203 174.166C148.96 174.33 149.589 174.544 150.09 174.809C150.591 175.073 151.033 175.392 151.416 175.766C151.799 176.139 152.095 176.513 152.305 176.887C152.514 177.251 152.683 177.648 152.811 178.076C152.947 178.495 153.034 178.86 153.07 179.17C153.107 179.48 153.125 179.79 153.125 180.1C153.125 180.464 153.07 180.861 152.961 181.289C152.861 181.708 152.674 182.173 152.4 182.684C152.127 183.194 151.785 183.663 151.375 184.092C150.965 184.52 150.413 184.908 149.721 185.254C149.037 185.6 148.267 185.842 147.41 185.979C148.267 186.051 149.06 186.206 149.789 186.443C150.518 186.68 151.138 186.967 151.648 187.305C152.159 187.642 152.615 188.034 153.016 188.48C153.426 188.927 153.754 189.378 154 189.834C154.255 190.29 154.46 190.768 154.615 191.27C154.779 191.771 154.893 192.236 154.957 192.664C155.021 193.092 155.053 193.512 155.053 193.922C155.053 194.35 155.016 194.792 154.943 195.248C154.88 195.704 154.752 196.201 154.561 196.738C154.378 197.267 154.146 197.773 153.863 198.256C153.581 198.73 153.207 199.195 152.742 199.65C152.286 200.097 151.762 200.484 151.17 200.812C150.587 201.141 149.876 201.405 149.037 201.605C148.208 201.806 147.301 201.906 146.316 201.906ZM135.652 199.445C135.652 200.174 135.766 200.676 135.994 200.949C136.222 201.214 136.6 201.346 137.129 201.346H143.855C146.617 201.346 148.727 200.689 150.186 199.377C151.653 198.064 152.387 196.246 152.387 193.922C152.387 191.598 151.653 189.766 150.186 188.426C148.718 187.086 146.608 186.416 143.855 186.416H137.074C136.655 186.416 136.318 186.548 136.062 186.812C135.807 187.068 135.68 187.405 135.68 187.824C135.661 191.725 135.652 195.599 135.652 199.445ZM135.68 175.807V184.461C135.68 184.88 135.807 185.217 136.062 185.473C136.318 185.728 136.655 185.855 137.074 185.855H144.02C145.086 185.855 146.052 185.701 146.918 185.391C147.793 185.072 148.508 184.648 149.064 184.119C149.62 183.581 150.049 182.962 150.35 182.26C150.65 181.549 150.801 180.797 150.801 180.004C150.801 178.382 150.204 177.055 149.01 176.025C147.816 174.986 146.152 174.467 144.02 174.467H137.129C136.673 174.467 136.331 174.562 136.104 174.754C135.876 174.945 135.734 175.296 135.68 175.807ZM177.994 201.906H158.594V173.906H160.809V199.445C160.809 200.174 160.923 200.676 161.15 200.949C161.378 201.214 161.757 201.346 162.285 201.346C164.819 201.346 167.708 201.145 170.953 200.744C174.207 200.343 176.554 199.901 177.994 199.418V201.906ZM181.48 201.906V173.906H200.881V176.395C199.441 175.911 197.094 175.469 193.84 175.068C190.595 174.667 187.706 174.467 185.172 174.467C184.643 174.467 184.265 174.604 184.037 174.877C183.809 175.141 183.695 175.638 183.695 176.367V185.213C183.695 185.632 183.823 185.974 184.078 186.238C184.333 186.493 184.671 186.621 185.09 186.621H198.133V188.973C196.456 188.562 194.25 188.18 191.516 187.824C188.781 187.469 186.648 187.291 185.117 187.291C184.689 187.291 184.347 187.396 184.092 187.605C183.846 187.815 183.723 188.12 183.723 188.521L183.695 199.445C183.695 200.174 183.809 200.676 184.037 200.949C184.265 201.214 184.643 201.346 185.172 201.346C187.706 201.346 190.595 201.145 193.84 200.744C197.094 200.343 199.441 199.901 200.881 199.418V201.906H181.48ZM202.986 196C202.986 195.271 203.187 194.669 203.588 194.195C203.998 193.721 204.486 193.484 205.051 193.484C205.497 193.484 205.898 193.639 206.254 193.949C205.507 194.204 205.133 194.824 205.133 195.809C205.133 196.802 205.57 197.773 206.445 198.721C207.32 199.66 208.487 200.425 209.945 201.018C211.413 201.61 212.944 201.906 214.539 201.906C215.514 201.906 216.453 201.815 217.355 201.633C218.258 201.441 219.096 201.154 219.871 200.771C220.655 200.389 221.334 199.924 221.908 199.377C222.482 198.83 222.934 198.174 223.262 197.408C223.59 196.643 223.754 195.809 223.754 194.906C223.754 194.186 223.649 193.535 223.439 192.951C223.239 192.368 222.984 191.871 222.674 191.461C222.364 191.051 221.936 190.682 221.389 190.354C220.851 190.016 220.331 189.747 219.83 189.547C219.338 189.337 218.709 189.141 217.943 188.959C217.187 188.777 216.521 188.635 215.947 188.535C215.373 188.435 214.658 188.316 213.801 188.18C213.035 188.061 212.456 187.97 212.064 187.906C211.673 187.842 211.126 187.738 210.424 187.592C209.722 187.446 209.18 187.314 208.797 187.195C208.414 187.068 207.936 186.895 207.361 186.676C206.787 186.457 206.34 186.229 206.021 185.992C205.702 185.755 205.352 185.464 204.969 185.117C204.586 184.771 204.294 184.402 204.094 184.01C203.902 183.609 203.738 183.144 203.602 182.615C203.465 182.087 203.396 181.517 203.396 180.906C203.396 179.849 203.615 178.892 204.053 178.035C204.49 177.169 205.069 176.454 205.789 175.889C206.518 175.314 207.366 174.831 208.332 174.439C209.307 174.048 210.31 173.77 211.34 173.605C212.37 173.432 213.427 173.346 214.512 173.346C215.441 173.346 216.371 173.4 217.301 173.51C218.23 173.619 219.151 173.801 220.062 174.057C220.983 174.303 221.794 174.608 222.496 174.973C223.198 175.337 223.763 175.802 224.191 176.367C224.629 176.932 224.848 177.557 224.848 178.24C224.848 179.225 224.474 179.844 223.727 180.1C223.462 178.833 222.852 177.725 221.895 176.777C220.947 175.829 219.789 175.114 218.422 174.631C217.064 174.148 215.605 173.906 214.047 173.906C211.358 173.906 209.243 174.503 207.703 175.697C206.163 176.882 205.393 178.573 205.393 180.77C205.393 181.326 205.493 181.827 205.693 182.273C205.903 182.72 206.217 183.103 206.637 183.422C207.065 183.741 207.516 184.014 207.99 184.242C208.473 184.47 209.075 184.675 209.795 184.857C210.515 185.04 211.18 185.19 211.791 185.309C212.411 185.427 213.158 185.564 214.033 185.719C214.863 185.855 215.492 185.965 215.92 186.047C216.348 186.129 216.954 186.257 217.738 186.43C218.522 186.594 219.133 186.753 219.57 186.908C220.008 187.054 220.55 187.255 221.197 187.51C221.844 187.765 222.355 188.029 222.729 188.303C223.102 188.576 223.508 188.913 223.945 189.314C224.392 189.715 224.729 190.144 224.957 190.6C225.185 191.055 225.376 191.584 225.531 192.186C225.695 192.787 225.777 193.434 225.777 194.127C225.777 195.239 225.568 196.26 225.148 197.189C224.729 198.11 224.16 198.894 223.439 199.541C222.719 200.179 221.876 200.721 220.91 201.168C219.953 201.615 218.937 201.943 217.861 202.152C216.786 202.362 215.678 202.467 214.539 202.467C212.279 202.467 210.269 202.198 208.51 201.66C206.76 201.113 205.402 200.352 204.436 199.377C203.469 198.393 202.986 197.267 202.986 196Z" fill="#383637"/>
<path d="M1.808 237.906V226.706H2.784V237.906H1.808ZM6.24175 237.906V229.634H7.02575L7.10575 231.234C7.76175 230.05 8.91375 229.426 10.2418 229.426C12.4018 229.426 13.7298 230.946 13.7298 233.33V237.906H12.8018V233.41C12.8018 231.506 11.7778 230.322 10.1298 230.322C8.38575 230.322 7.16975 231.65 7.16975 233.618V237.906H6.24175ZM17.4793 228.674C17.4793 226.786 18.4073 225.858 20.2473 225.858H21.5433V226.738H20.3273C18.9833 226.738 18.4073 227.33 18.4073 228.738V229.634H21.4633V230.482H18.4073V237.906H17.4793V230.482H15.5913V229.634H17.4793V228.674ZM26.7175 238.114C24.1575 238.114 22.3655 236.322 22.3655 233.762C22.3655 231.218 24.1575 229.426 26.7175 229.426C29.2615 229.426 31.0535 231.218 31.0535 233.762C31.0535 236.322 29.2615 238.114 26.7175 238.114ZM23.2935 233.762C23.2935 235.81 24.6855 237.218 26.7175 237.218C28.7335 237.218 30.1255 235.81 30.1255 233.762C30.1255 231.73 28.7335 230.322 26.7175 230.322C24.6855 230.322 23.2935 231.73 23.2935 233.762ZM33.6324 237.906V229.634H34.4164L34.5124 231.49C35.0724 230.242 36.0164 229.634 37.5524 229.634H38.2404V230.498H37.5204C35.7444 230.498 34.5604 231.586 34.5604 234.098V237.906H33.6324ZM40.5699 237.906V229.634H41.3539L41.4339 230.978C42.0099 229.97 43.0179 229.426 44.2979 229.426C45.7379 229.426 46.8419 230.146 47.3219 231.41C47.8819 230.146 49.0179 229.426 50.4739 229.426C52.5539 229.426 53.8979 230.85 53.8979 233.154V237.906H52.9699V233.298C52.9699 231.458 51.9459 230.322 50.3619 230.322C48.7459 230.322 47.6899 231.49 47.6899 233.362V237.906H46.7619V233.298C46.7619 231.458 45.7539 230.322 44.1699 230.322C42.5539 230.322 41.4979 231.49 41.4979 233.362V237.906H40.5699ZM60.5114 238.114C57.9994 238.114 56.2874 236.338 56.2874 233.762C56.2874 231.202 58.0154 229.426 60.5274 229.426C63.1354 229.426 64.8154 231.346 64.7514 234.146H57.2314C57.3914 236.018 58.6714 237.234 60.5114 237.234C61.8554 237.234 62.9274 236.61 63.4714 235.538L64.5114 235.554C63.8714 237.138 62.3674 238.114 60.5114 238.114ZM57.2314 233.33H63.8394C63.6154 231.458 62.3354 230.306 60.5274 230.306C58.6874 230.306 57.3914 231.506 57.2314 233.33ZM70.8086 238.114C68.3126 238.114 66.5686 236.274 66.5686 233.762C66.5686 231.25 68.3126 229.426 70.8086 229.426C72.3286 229.426 73.5606 230.098 74.2966 231.17V226.066H75.2246V237.906H74.4566L74.3446 236.274C73.6246 237.41 72.3606 238.114 70.8086 238.114ZM67.4966 233.762C67.4966 235.794 68.8886 237.218 70.9206 237.218C72.9366 237.218 74.3286 235.794 74.3286 233.762C74.3286 231.746 72.9366 230.322 70.9206 230.322C68.8886 230.322 67.4966 231.746 67.4966 233.762ZM87.4071 238.114C84.1111 238.114 81.7271 235.714 81.7271 232.306C81.7271 228.898 84.1111 226.498 87.4071 226.498C89.9671 226.498 92.0631 227.986 92.7991 230.338H91.7751C91.1351 228.562 89.4711 227.474 87.4231 227.474C84.6871 227.474 82.7191 229.442 82.7191 232.306C82.7191 235.17 84.6871 237.138 87.4231 237.138C89.5191 237.138 91.2471 236.002 91.8711 234.146H92.8951C92.2071 236.562 90.0471 238.114 87.4071 238.114ZM99.03 238.114C96.47 238.114 94.678 236.322 94.678 233.762C94.678 231.218 96.47 229.426 99.03 229.426C101.574 229.426 103.366 231.218 103.366 233.762C103.366 236.322 101.574 238.114 99.03 238.114ZM95.606 233.762C95.606 235.81 96.998 237.218 99.03 237.218C101.046 237.218 102.438 235.81 102.438 233.762C102.438 231.73 101.046 230.322 99.03 230.322C96.998 230.322 95.606 231.73 95.606 233.762ZM105.945 237.906V229.634H106.729L106.809 231.234C107.465 230.05 108.617 229.426 109.945 229.426C112.105 229.426 113.433 230.946 113.433 233.33V237.906H112.505V233.41C112.505 231.506 111.481 230.322 109.833 230.322C108.089 230.322 106.873 231.65 106.873 233.618V237.906H105.945ZM119.402 238.114C117.306 238.114 115.978 237.058 115.914 235.41H116.826C116.922 236.578 117.834 237.266 119.418 237.266C120.874 237.266 121.754 236.706 121.754 235.794C121.754 234.93 120.97 234.402 119.21 234.098C117.05 233.73 116.074 232.962 116.074 231.698C116.074 230.29 117.274 229.426 119.21 229.426C121.162 229.426 122.394 230.354 122.522 231.938H121.594C121.498 230.85 120.65 230.258 119.21 230.258C117.834 230.258 117.002 230.818 117.002 231.714C117.002 232.53 117.69 232.978 119.53 233.33C121.626 233.73 122.666 234.562 122.666 235.81C122.666 237.202 121.402 238.114 119.402 238.114ZM128.855 238.114C126.343 238.114 124.631 236.338 124.631 233.762C124.631 231.202 126.359 229.426 128.871 229.426C131.479 229.426 133.159 231.346 133.095 234.146H125.575C125.735 236.018 127.015 237.234 128.855 237.234C130.199 237.234 131.271 236.61 131.815 235.538L132.855 235.554C132.215 237.138 130.711 238.114 128.855 238.114ZM125.575 233.33H132.183C131.959 231.458 130.679 230.306 128.871 230.306C127.031 230.306 125.735 231.506 125.575 233.33ZM135.632 237.906V229.634H136.416L136.496 231.234C137.152 230.05 138.304 229.426 139.632 229.426C141.792 229.426 143.12 230.946 143.12 233.33V237.906H142.192V233.41C142.192 231.506 141.168 230.322 139.52 230.322C137.776 230.322 136.56 231.65 136.56 233.618V237.906H135.632ZM149.336 237.906C147.576 237.906 146.632 236.914 146.632 235.042V230.482H144.824V229.634H145.88C146.504 229.634 146.68 229.474 146.744 228.866L146.824 227.602H147.56V229.634H150.424V230.482H147.56V235.01C147.56 236.37 148.12 237.01 149.368 237.01H150.536V237.906H149.336ZM160.196 237.906C158.436 237.906 157.492 236.914 157.492 235.042V230.482H155.684V229.634H156.74C157.364 229.634 157.539 229.474 157.604 228.866L157.684 227.602H158.42V229.634H161.284V230.482H158.42V235.01C158.42 236.37 158.98 237.01 160.228 237.01H161.396V237.906H160.196ZM167.108 238.114C164.548 238.114 162.756 236.322 162.756 233.762C162.756 231.218 164.548 229.426 167.108 229.426C169.652 229.426 171.444 231.218 171.444 233.762C171.444 236.322 169.652 238.114 167.108 238.114ZM163.684 233.762C163.684 235.81 165.076 237.218 167.108 237.218C169.124 237.218 170.516 235.81 170.516 233.762C170.516 231.73 169.124 230.322 167.108 230.322C165.076 230.322 163.684 231.73 163.684 233.762ZM179.902 237.906V227.634H176.046V226.706H184.734V227.634H180.862V237.906H179.902ZM185.242 237.906V229.634H186.026L186.122 231.49C186.682 230.242 187.626 229.634 189.162 229.634H189.85V230.498H189.13C187.354 230.498 186.17 231.586 186.17 234.098V237.906H185.242ZM195.043 238.114C192.531 238.114 190.819 236.338 190.819 233.762C190.819 231.202 192.547 229.426 195.059 229.426C197.667 229.426 199.347 231.346 199.283 234.146H191.763C191.923 236.018 193.203 237.234 195.043 237.234C196.387 237.234 197.459 236.61 198.003 235.538L199.043 235.554C198.403 237.138 196.899 238.114 195.043 238.114ZM191.763 233.33H198.371C198.147 231.458 196.867 230.306 195.059 230.306C193.219 230.306 191.923 231.506 191.763 233.33ZM204.303 238.034C202.383 238.034 201.183 237.09 201.183 235.57C201.183 234.098 202.303 233.17 203.999 233.17H207.647V232.578C207.647 231.202 206.639 230.29 205.103 230.29C203.855 230.29 202.879 230.93 202.543 231.922H201.599C201.999 230.386 203.327 229.426 205.087 229.426C207.151 229.426 208.575 230.69 208.575 232.53V237.906H207.807L207.711 236.482C206.991 237.474 205.775 238.034 204.303 238.034ZM202.111 235.554C202.111 236.562 202.959 237.202 204.335 237.202C206.255 237.202 207.663 236.002 207.663 234.338V233.986H204.031C202.895 233.986 202.111 234.61 202.111 235.554ZM214.789 237.906C213.029 237.906 212.085 236.914 212.085 235.042V230.482H210.277V229.634H211.333C211.957 229.634 212.133 229.474 212.197 228.866L212.277 227.602H213.013V229.634H215.877V230.482H213.013V235.01C213.013 236.37 213.573 237.01 214.821 237.01H215.989V237.906H214.789ZM218.476 237.906V229.634H219.26L219.34 230.978C219.916 229.97 220.924 229.426 222.204 229.426C223.644 229.426 224.748 230.146 225.228 231.41C225.788 230.146 226.924 229.426 228.38 229.426C230.46 229.426 231.804 230.85 231.804 233.154V237.906H230.876V233.298C230.876 231.458 229.852 230.322 228.268 230.322C226.652 230.322 225.596 231.49 225.596 233.362V237.906H224.668V233.298C224.668 231.458 223.66 230.322 222.076 230.322C220.46 230.322 219.404 231.49 219.404 233.362V237.906H218.476ZM238.418 238.114C235.906 238.114 234.194 236.338 234.194 233.762C234.194 231.202 235.922 229.426 238.434 229.426C241.042 229.426 242.722 231.346 242.658 234.146H235.138C235.298 236.018 236.578 237.234 238.418 237.234C239.762 237.234 240.834 236.61 241.378 235.538L242.418 235.554C241.778 237.138 240.274 238.114 238.418 238.114ZM235.138 233.33H241.746C241.522 231.458 240.242 230.306 238.434 230.306C236.594 230.306 235.298 231.506 235.138 233.33ZM245.195 237.906V229.634H245.979L246.059 231.234C246.715 230.05 247.867 229.426 249.195 229.426C251.355 229.426 252.683 230.946 252.683 233.33V237.906H251.755V233.41C251.755 231.506 250.731 230.322 249.083 230.322C247.339 230.322 246.123 231.65 246.123 233.618V237.906H245.195ZM258.899 237.906C257.139 237.906 256.195 236.914 256.195 235.042V230.482H254.387V229.634H255.443C256.067 229.634 256.243 229.474 256.307 228.866L256.387 227.602H257.123V229.634H259.987V230.482H257.123V235.01C257.123 236.37 257.683 237.01 258.931 237.01H260.099V237.906H258.899Z" fill="#5B5852"/>
</svg>
