<svg width="366" height="283" viewBox="0 0 366 283" fill="none" xmlns="http://www.w3.org/2000/svg">
<path d="M39.9453 0.321289C39.6338 1.16044 39.3391 1.99171 39.0156 2.74316C37.3342 6.65348 35.4723 10.4771 33.9385 14.4443C32.7574 17.4977 31.6991 20.6355 30.6328 23.7188C31.3354 23.7132 31.259 22.7499 31.4941 22.2021C31.6174 21.9172 32.0982 21.1689 32.3633 21.0469C32.7734 20.8598 33.5277 21.1803 33.4648 21.625C32.642 23.5828 32.2598 25.6845 31.5244 27.6748C30.9011 29.3615 30.3349 31.0402 29.7197 32.7432C27.8688 37.8601 25.5552 42.9445 23.8164 48.0615C21.3449 55.337 19.42 62.8133 16.6504 69.9912C15.4803 73.0229 14.8241 76.0493 13.8535 79.1162C13.2794 80.9276 12.3035 83.3685 12.041 85.1826C11.9864 85.5649 12.0908 85.9961 12.0088 86.3594C11.954 86.5953 11.5984 87.029 11.4727 87.3408C10.7727 89.0872 10.0205 92.7534 9.71973 94.6787C9.63498 95.2237 9.64093 96.753 9.46875 97.0488C9.30749 97.3226 9.13502 97.2523 9.08301 96.9678C8.99552 96.477 9.04434 95.0989 9.07715 94.543C9.17013 93.0326 9.56976 91.4976 9.78027 89.998C9.94699 88.8106 9.85908 88.6555 10.3184 87.5059C10.7776 86.3535 10.9012 85.4557 11.1035 84.249C12.2136 77.5973 14.6663 71.7294 16.375 65.2783C16.6949 64.0662 17.2227 62.3848 17.3184 61.1699C17.3266 61.0587 17.3944 60.7961 17.2197 60.8203C15.0243 69.0448 11.8476 76.9819 9.62207 85.1982C8.86474 87.9995 8.15387 90.8419 7.86133 93.7354C7.81217 94.2153 7.91834 94.7605 7.85547 95.2432C7.78431 95.7935 7.47853 96.4821 7.38281 97.0947C7.0192 99.4647 7.0871 103.687 7.98926 105.916C8.77393 107.855 9.73689 107.977 11.1641 109.219C11.6341 109.628 12.2528 110.357 12.9062 110.906H0V45.7666C0 22.4516 17.4142 3.20438 39.9453 0.321289ZM50.0527 77.2129C50.1184 77.137 50.441 76.6321 50.5586 76.7568C47.7972 82.1179 45.3284 87.7611 44.1035 93.6943C42.9005 99.5164 43.056 103.598 45.9678 108.889C46.3353 109.556 46.9382 110.255 47.6699 110.906H16.7666C18.7844 110.166 21.1762 109.112 22.8105 108.159C23.1084 107.986 24.3901 107.129 24.4922 106.896C24.5441 106.776 24.2899 106.675 24.3418 106.461C24.4214 106.133 25.1152 105.767 25.293 105.577C25.6483 105.198 25.8808 104.696 26.3125 104.271C26.5886 103.997 27.7477 103.018 28.0488 102.969C28.8827 102.833 30.157 103.831 30.1133 102.627C29.1618 102.041 29.5202 101.447 30.5127 101.371C30.7918 101.35 31.6414 101.821 31.5107 101.149C31.3494 100.32 31.1636 100.29 31.9072 99.6416C33.1402 98.5678 35.1169 97.4341 35.4014 95.6445C35.4369 95.4141 35.2016 95.2215 35.5186 94.9531C36.3169 94.2779 37.894 95.0664 38.3916 93.6699C38.4709 93.4503 38.4463 93.1356 38.5557 92.9512C38.6186 92.8454 38.8569 92.7883 38.9717 92.6338C39.3732 92.0832 39.0835 90.8335 39.1709 90.1611L38.5615 90.0088L39.1191 89.5586C39.3267 89.6426 39.2399 90.0244 39.2725 90.0576C39.3244 90.1119 39.8578 90.0332 39.959 89.9355C40.0385 89.855 40.234 89.2001 40.1855 89.1553H39.7285C39.5344 88.8109 40.0708 88.6075 40.2295 88.3418C40.3498 88.1385 40.355 87.8671 40.4697 87.6719C41.197 86.4489 42.4302 85.9171 43.3379 84.9707C43.6058 84.6914 43.756 84.3361 44.0977 84.0107C44.2917 83.8264 44.6309 83.6939 44.7568 83.5557C44.94 83.3523 44.9129 83.0536 45.0469 82.834C45.7523 81.6599 47.4198 80.4534 48.374 79.377C48.9755 78.6964 49.465 77.9071 50.0527 77.2129ZM47.9854 0C72.2842 1.13123 91.6377 21.188 91.6377 45.7666V110.906H62.749C63.428 110.409 63.8634 109.705 64.5977 109.181C65.6665 108.419 66.9378 108.08 67.9766 107.392C74.2649 103.21 80.7424 96.9481 85.6309 91.2236C87.438 89.1085 90.2399 86.0147 91.123 83.4658C91.3773 82.7337 91.6917 81.9826 91.6289 81.1963L91.6348 81.1904C91.4926 81.1796 91.3584 81.1902 91.2217 81.2363C90.8362 81.3719 88.4033 84.0919 87.9219 84.6182C82.2706 90.7873 77.1112 97.8434 69.9727 102.407C66.2571 104.783 62.4297 106.35 58.3916 108.062C56.579 108.829 52.9811 109.308 51.0508 108.988C49.2819 108.695 48.716 108.46 48.2539 106.719C47.8875 105.341 47.3264 102.261 47.3154 100.886C47.31 100.04 47.7477 98.9331 47.9062 98.0654C49.2624 90.5947 52.9266 81.6701 57.249 75.3682C59.2202 72.4913 61.178 70.7337 63.5264 68.2852C64.4858 67.2846 65.2292 66.0833 66.1641 65.0557C68.0751 62.9568 70.3718 61.2349 72.7285 59.6621L72.9502 59.6299C73.713 59.9905 74.4239 60.0558 74.957 60.7744C76.8786 63.3614 72.8762 67.1357 71.583 69.2236C71.4135 69.5599 71.3731 70.0757 71.6328 70.374C71.7726 70.5364 72.2416 70.6796 72.4658 70.7041C73.0973 70.7746 75.0087 70.7914 75.6104 70.6992C77.2945 70.4389 79.4707 66.0971 79.6895 64.5596C80.2854 60.3647 77.3085 57.5312 73.3525 56.9209C71.7834 56.6796 71.7937 56.994 70.5283 57.1865C68.8469 57.4441 68.0943 57.0377 66.3828 58.0166C62.7247 60.1156 57.8578 65.3436 55.3535 68.7549C54.0249 70.5662 53.0904 72.7115 51.625 74.333C50.5615 75.5126 49.3366 76.5809 48.2676 77.7578C46.4221 79.7916 44.7673 82.0095 42.8809 84.0107C41.3006 85.692 39.4257 87.2436 37.8975 88.9492C34.696 92.5205 31.8002 95.4244 28.041 98.4316C27.2563 99.058 26.6081 99.8472 25.8535 100.498C23.2809 102.708 19.9129 105.255 16.9355 106.879C15.6123 107.6 14.1849 108.647 13.3701 106.824C12.5583 105.004 12.7682 100.744 12.9404 98.6836C13.0171 97.7673 13.4496 96.9052 13.5371 95.9482C13.6574 94.6385 13.5479 93.6317 13.9307 92.3057C14.286 91.0776 14.521 90.3237 14.7998 89.0332C15.2919 86.7581 16.0161 85.1254 16.6504 83.0049C17.7549 79.3143 18.5732 75.4827 19.8555 71.8652C21.9743 65.8861 23.7152 59.7791 25.8477 53.8135C28.5325 46.3075 31.683 38.9531 34.417 31.458C35.2481 29.1748 36.1558 26.9319 37.0088 24.6514C38.9035 19.5723 40.8413 14.4411 43.25 9.56543C44.2233 7.59137 45.399 6.17858 46.4707 4.3916C46.8665 3.73277 47.6789 1.32218 47.9854 0ZM8.88867 99.9854H8.8916L8.58301 100.04C8.38895 99.7039 8.60436 99.3915 8.98145 99.3398L8.88867 99.9854ZM37.0908 91.4736C37.2136 91.4086 37.2818 91.3355 37.4482 91.376C37.4018 91.7013 37.5632 92.2946 37.3477 92.5361L37.1641 92.6699C36.8562 92.8839 36.271 93.273 36.1992 93.3096C35.8958 93.4641 35.5509 93.5183 35.2119 93.4912C34.9774 93.282 36.8229 91.6119 37.0908 91.4736ZM47.4385 87.3135C47.2581 87.7933 46.873 86.7859 47.4111 86.8369L47.4385 87.3135ZM47.7207 85.2256C47.9665 85.1797 48.0021 85.4263 48.125 85.5781H48.1221L47.9717 85.7275L47.7314 85.5645L47.7207 85.2256ZM48.4287 83.3086C48.5244 83.2463 48.7645 83.3306 48.8301 83.458L48.4775 84.1113C48.2126 84.0297 48.3713 83.3436 48.4287 83.3057V83.3086ZM50.46 79.9814C50.4846 80.3584 50.4815 80.9518 49.9512 80.8867C49.9293 80.461 49.9187 79.9815 50.46 79.9814ZM51.2666 77.9229C51.286 77.8229 51.5444 77.8499 51.5752 77.8662C51.7801 77.999 51.5594 78.5652 51.3271 78.666C51.0565 78.4708 51.19 78.164 51.2666 77.9199V77.9229ZM53.3086 74.5361C53.2813 74.8588 53.4396 75.0921 53.3467 75.4229C53.2236 75.8648 52.6884 76.2196 52.5381 75.6475C52.454 75.3272 53.1908 74.3957 53.3086 74.5361ZM35.2891 13.8584C36.1035 13.6905 35.9966 14.6499 35.4443 14.7285C34.843 14.815 34.6439 13.9913 35.2891 13.8584ZM36.7402 11.8223C36.5762 11.1226 36.4427 10.2845 37.457 10.5557C37.7604 11.117 37.4155 11.8412 36.7402 11.8223Z" fill="#867A6A"/>
<path d="M2.10547 153.773C1.63151 152.242 1.39453 150.62 1.39453 148.906C1.39453 147.193 1.63151 145.575 2.10547 144.053C2.57943 142.521 3.24479 141.173 4.10156 140.006C4.95833 138.83 5.96094 137.818 7.10938 136.971C8.26693 136.114 9.54753 135.462 10.9512 135.016C12.3639 134.569 13.8359 134.346 15.3672 134.346C16.6615 134.346 17.9238 134.464 19.1543 134.701C20.3939 134.938 21.5195 135.275 22.5312 135.713C23.5521 136.15 24.3724 136.725 24.9922 137.436C25.612 138.146 25.9219 138.935 25.9219 139.801C25.9219 140.102 25.8763 140.361 25.7852 140.58C25.7031 140.79 25.5983 140.945 25.4707 141.045C25.3522 141.136 25.2292 141.209 25.1016 141.264C24.9831 141.309 24.8828 141.332 24.8008 141.332L24.6641 141.346C24.5547 140.571 24.2311 139.796 23.6934 139.021C23.1556 138.247 22.4766 137.559 21.6562 136.957C20.8451 136.346 19.8835 135.854 18.7715 135.48C17.6595 135.098 16.5247 134.906 15.3672 134.906C13.763 134.906 12.2409 135.248 10.8008 135.932C9.36979 136.606 8.12565 137.545 7.06836 138.748C6.01107 139.951 5.17253 141.432 4.55273 143.191C3.94206 144.951 3.63672 146.855 3.63672 148.906C3.63672 150.957 3.94206 152.862 4.55273 154.621C5.17253 156.38 6.01107 157.861 7.06836 159.064C8.12565 160.268 9.36979 161.211 10.8008 161.895C12.2409 162.569 13.763 162.906 15.3672 162.906C15.9961 162.906 16.6797 162.824 17.418 162.66C18.1562 162.487 18.8945 162.232 19.6328 161.895C20.3802 161.557 21.0547 161.161 21.6562 160.705C22.2669 160.249 22.7637 159.702 23.1465 159.064C23.5293 158.426 23.7207 157.757 23.7207 157.055V147.73H26.127V159.912C25.4434 160.942 24.0807 161.794 22.0391 162.469C19.9974 163.134 17.7734 163.467 15.3672 163.467C13.8359 163.467 12.3639 163.243 10.9512 162.797C9.54753 162.35 8.26693 161.703 7.10938 160.855C5.96094 159.999 4.95833 158.987 4.10156 157.82C3.24479 156.645 2.57943 155.296 2.10547 153.773ZM30.3789 162.906V134.906H49.7793V137.395C48.3392 136.911 45.9922 136.469 42.7383 136.068C39.4935 135.667 36.6042 135.467 34.0703 135.467C33.5417 135.467 33.1634 135.604 32.9355 135.877C32.7077 136.141 32.5938 136.638 32.5938 137.367V146.213C32.5938 146.632 32.7214 146.974 32.9766 147.238C33.2318 147.493 33.569 147.621 33.9883 147.621H47.0312V149.973C45.3542 149.562 43.1484 149.18 40.4141 148.824C37.6797 148.469 35.5469 148.291 34.0156 148.291C33.5872 148.291 33.2454 148.396 32.9902 148.605C32.7441 148.815 32.6211 149.12 32.6211 149.521L32.5938 160.445C32.5938 161.174 32.7077 161.676 32.9355 161.949C33.1634 162.214 33.5417 162.346 34.0703 162.346C36.6042 162.346 39.4935 162.145 42.7383 161.744C45.9922 161.343 48.3392 160.901 49.7793 160.418V162.906H30.3789ZM53.7031 162.906V134.906H56C61.1862 142.262 67.138 150.679 73.8555 160.158C74.056 160.441 74.2337 160.582 74.3887 160.582C74.6074 160.582 74.7031 160.34 74.6758 159.857L72.9941 134.906H75.3457V162.906H73.1035C71.8822 161.184 69.2572 157.492 65.2285 151.832C61.209 146.163 57.8594 141.437 55.1797 137.654C54.9792 137.372 54.8014 137.23 54.6465 137.23C54.4368 137.23 54.3457 137.472 54.373 137.955L56.0547 162.906H53.7031ZM79.8164 162.906V134.906H99.2168V137.395C97.7767 136.911 95.4297 136.469 92.1758 136.068C88.931 135.667 86.0417 135.467 83.5078 135.467C82.9792 135.467 82.6009 135.604 82.373 135.877C82.1452 136.141 82.0312 136.638 82.0312 137.367V146.213C82.0312 146.632 82.1589 146.974 82.4141 147.238C82.6693 147.493 83.0065 147.621 83.4258 147.621H96.4688V149.973C94.7917 149.562 92.5859 149.18 89.8516 148.824C87.1172 148.469 84.9844 148.291 83.4531 148.291C83.0247 148.291 82.6829 148.396 82.4277 148.605C82.1816 148.815 82.0586 149.12 82.0586 149.521L82.0312 160.445C82.0312 161.174 82.1452 161.676 82.373 161.949C82.6009 162.214 82.9792 162.346 83.5078 162.346C86.0417 162.346 88.931 162.145 92.1758 161.744C95.4297 161.343 97.7767 160.901 99.2168 160.418V162.906H79.8164ZM103.141 162.906V134.906H116.02C117.004 134.906 117.911 135.007 118.74 135.207C119.579 135.408 120.29 135.672 120.873 136C121.465 136.328 121.99 136.72 122.445 137.176C122.91 137.622 123.284 138.087 123.566 138.57C123.849 139.044 124.081 139.55 124.264 140.088C124.455 140.617 124.583 141.109 124.646 141.564C124.719 142.02 124.756 142.462 124.756 142.891C124.756 143.319 124.719 143.761 124.646 144.217C124.583 144.663 124.455 145.151 124.264 145.68C124.081 146.208 123.849 146.71 123.566 147.184C123.284 147.658 122.91 148.122 122.445 148.578C121.99 149.025 121.465 149.412 120.873 149.74C120.29 150.068 119.579 150.337 118.74 150.547C117.911 150.747 117.004 150.852 116.02 150.861H115.213C115.003 150.861 114.853 150.88 114.762 150.916C114.671 150.943 114.634 150.993 114.652 151.066C114.671 151.13 114.721 151.208 114.803 151.299C114.894 151.39 115.031 151.508 115.213 151.654C115.678 152.019 116.188 152.511 116.744 153.131C117.3 153.751 117.783 154.329 118.193 154.867C118.613 155.405 119.214 156.198 119.998 157.246C120.044 157.31 120.08 157.365 120.107 157.41C120.144 157.447 120.185 157.497 120.23 157.561C120.276 157.615 120.317 157.67 120.354 157.725C121.165 158.818 122.058 159.844 123.033 160.801C124.008 161.749 124.842 162.451 125.535 162.906H122.377C121.848 162.587 121.274 162.118 120.654 161.498C120.035 160.869 119.442 160.195 118.877 159.475C118.312 158.745 117.729 157.98 117.127 157.178C116.525 156.367 115.938 155.592 115.363 154.854C114.789 154.115 114.229 153.445 113.682 152.844C113.144 152.242 112.602 151.764 112.055 151.408C111.517 151.044 111.02 150.861 110.564 150.861H108.062V150.301H113.559C116.32 150.301 118.43 149.649 119.889 148.346C121.356 147.033 122.09 145.215 122.09 142.891C122.09 140.566 121.356 138.748 119.889 137.436C118.43 136.123 116.32 135.467 113.559 135.467H106.832C106.285 135.467 105.902 135.581 105.684 135.809C105.465 136.036 105.355 136.51 105.355 137.23L105.383 162.906H103.141ZM129.131 162.906H126.67L136.213 136.219L135.625 134.906H138.1L150.582 162.906H148.121L146.07 158.34C145.633 157.355 144.913 156.48 143.91 155.715C142.917 154.94 141.841 154.361 140.684 153.979C139.526 153.587 138.41 153.391 137.334 153.391C135.484 153.391 133.757 153.969 132.152 155.127C131.852 155.346 131.551 155.71 131.25 156.221C130.958 156.722 130.749 157.205 130.621 157.67L129.131 162.906ZM132.18 152.297C132.043 152.798 132.093 153.049 132.33 153.049C132.449 153.049 132.654 152.976 132.945 152.83C134.039 152.229 135.224 151.928 136.5 151.928C137.767 151.928 139.043 152.201 140.328 152.748C141.622 153.286 142.83 154.01 143.951 154.922C144.27 155.186 144.471 155.286 144.553 155.223C144.635 155.159 144.589 154.94 144.416 154.566L137.197 138.379C137.033 137.987 136.855 137.791 136.664 137.791C136.464 137.791 136.295 138.014 136.158 138.461L132.18 152.297ZM172.307 162.906H152.906V134.906H155.121V160.445C155.121 161.174 155.235 161.676 155.463 161.949C155.691 162.214 156.069 162.346 156.598 162.346C159.132 162.346 162.021 162.145 165.266 161.744C168.52 161.343 170.867 160.901 172.307 160.418V162.906ZM3.02148 201.906H0.560547L10.1035 175.219L9.51562 173.906H11.9902L24.4727 201.906H22.0117L19.9609 197.34C19.5234 196.355 18.8034 195.48 17.8008 194.715C16.8073 193.94 15.7318 193.361 14.5742 192.979C13.4167 192.587 12.3001 192.391 11.2246 192.391C9.37435 192.391 7.64714 192.969 6.04297 194.127C5.74219 194.346 5.44141 194.71 5.14062 195.221C4.84896 195.722 4.63932 196.205 4.51172 196.67L3.02148 201.906ZM6.07031 191.297C5.93359 191.798 5.98372 192.049 6.2207 192.049C6.33919 192.049 6.54427 191.976 6.83594 191.83C7.92969 191.229 9.11458 190.928 10.3906 190.928C11.6576 190.928 12.9336 191.201 14.2188 191.748C15.513 192.286 16.7207 193.01 17.8418 193.922C18.1608 194.186 18.3613 194.286 18.4434 194.223C18.5254 194.159 18.4798 193.94 18.3066 193.566L11.0879 177.379C10.9238 176.987 10.7461 176.791 10.5547 176.791C10.3542 176.791 10.1855 177.014 10.0488 177.461L6.07031 191.297ZM26.7969 201.906V173.906H46.1973V176.395C44.7572 175.911 42.4102 175.469 39.1562 175.068C35.9115 174.667 33.0221 174.467 30.4883 174.467C29.9596 174.467 29.5814 174.604 29.3535 174.877C29.1257 175.141 29.0117 175.638 29.0117 176.367V185.213C29.0117 185.632 29.1393 185.974 29.3945 186.238C29.6497 186.493 29.987 186.621 30.4062 186.621H43.4492V188.973C41.7721 188.562 39.5664 188.18 36.832 187.824C34.0977 187.469 31.9648 187.291 30.4336 187.291C30.0052 187.291 29.6634 187.396 29.4082 187.605C29.1621 187.815 29.0391 188.12 29.0391 188.521L29.0117 199.445C29.0117 200.174 29.1257 200.676 29.3535 200.949C29.5814 201.214 29.9596 201.346 30.4883 201.346C33.0221 201.346 35.9115 201.145 39.1562 200.744C42.4102 200.343 44.7572 199.901 46.1973 199.418V201.906H26.7969ZM48.3027 196C48.3027 195.271 48.5033 194.669 48.9043 194.195C49.3145 193.721 49.8021 193.484 50.3672 193.484C50.8138 193.484 51.2148 193.639 51.5703 193.949C50.8229 194.204 50.4492 194.824 50.4492 195.809C50.4492 196.802 50.8867 197.773 51.7617 198.721C52.6367 199.66 53.8034 200.425 55.2617 201.018C56.7292 201.61 58.2604 201.906 59.8555 201.906C60.8307 201.906 61.7695 201.815 62.6719 201.633C63.5742 201.441 64.4128 201.154 65.1875 200.771C65.9714 200.389 66.6504 199.924 67.2246 199.377C67.7988 198.83 68.25 198.174 68.5781 197.408C68.9062 196.643 69.0703 195.809 69.0703 194.906C69.0703 194.186 68.9655 193.535 68.7559 192.951C68.5553 192.368 68.3001 191.871 67.9902 191.461C67.6803 191.051 67.252 190.682 66.7051 190.354C66.1673 190.016 65.6478 189.747 65.1465 189.547C64.6543 189.337 64.0254 189.141 63.2598 188.959C62.5033 188.777 61.8379 188.635 61.2637 188.535C60.6895 188.435 59.974 188.316 59.1172 188.18C58.3516 188.061 57.7728 187.97 57.3809 187.906C56.9889 187.842 56.4421 187.738 55.7402 187.592C55.0384 187.446 54.4961 187.314 54.1133 187.195C53.7305 187.068 53.252 186.895 52.6777 186.676C52.1035 186.457 51.6569 186.229 51.3379 185.992C51.0189 185.755 50.668 185.464 50.2852 185.117C49.9023 184.771 49.6107 184.402 49.4102 184.01C49.2188 183.609 49.0547 183.144 48.918 182.615C48.7812 182.087 48.7129 181.517 48.7129 180.906C48.7129 179.849 48.9316 178.892 49.3691 178.035C49.8066 177.169 50.3854 176.454 51.1055 175.889C51.8346 175.314 52.6823 174.831 53.6484 174.439C54.6237 174.048 55.6263 173.77 56.6562 173.605C57.6862 173.432 58.7435 173.346 59.8281 173.346C60.7578 173.346 61.6875 173.4 62.6172 173.51C63.5469 173.619 64.4674 173.801 65.3789 174.057C66.2995 174.303 67.1107 174.608 67.8125 174.973C68.5143 175.337 69.0794 175.802 69.5078 176.367C69.9453 176.932 70.1641 177.557 70.1641 178.24C70.1641 179.225 69.7904 179.844 69.043 180.1C68.7786 178.833 68.168 177.725 67.2109 176.777C66.263 175.829 65.1055 175.114 63.7383 174.631C62.3802 174.148 60.9219 173.906 59.3633 173.906C56.6745 173.906 54.5599 174.503 53.0195 175.697C51.4792 176.882 50.709 178.573 50.709 180.77C50.709 181.326 50.8092 181.827 51.0098 182.273C51.2194 182.72 51.5339 183.103 51.9531 183.422C52.3815 183.741 52.8327 184.014 53.3066 184.242C53.7897 184.47 54.3913 184.675 55.1113 184.857C55.8314 185.04 56.4967 185.19 57.1074 185.309C57.7272 185.427 58.4746 185.564 59.3496 185.719C60.179 185.855 60.8079 185.965 61.2363 186.047C61.6647 186.129 62.2708 186.257 63.0547 186.43C63.8385 186.594 64.4492 186.753 64.8867 186.908C65.3242 187.054 65.8665 187.255 66.5137 187.51C67.1608 187.765 67.6712 188.029 68.0449 188.303C68.4186 188.576 68.8242 188.913 69.2617 189.314C69.7083 189.715 70.0456 190.144 70.2734 190.6C70.5013 191.055 70.6927 191.584 70.8477 192.186C71.0117 192.787 71.0938 193.434 71.0938 194.127C71.0938 195.239 70.8841 196.26 70.4648 197.189C70.0456 198.11 69.4759 198.894 68.7559 199.541C68.0358 200.179 67.1927 200.721 66.2266 201.168C65.2695 201.615 64.2533 201.943 63.1777 202.152C62.1022 202.362 60.9948 202.467 59.8555 202.467C57.5951 202.467 55.5853 202.198 53.8262 201.66C52.0762 201.113 50.7181 200.352 49.752 199.377C48.7858 198.393 48.3027 197.267 48.3027 196ZM72.3652 173.906H93.9258V176.395C92.8776 175.939 91.4102 175.506 89.5234 175.096C87.6458 174.676 86.388 174.467 85.75 174.467C85.2214 174.467 84.8385 174.604 84.6016 174.877C84.3737 175.141 84.2598 175.638 84.2598 176.367V201.906H82.0176V176.367C82.0176 175.638 81.9036 175.141 81.6758 174.877C81.4479 174.604 81.0697 174.467 80.541 174.467C79.903 174.467 78.6406 174.676 76.7539 175.096C74.8763 175.506 73.4134 175.939 72.3652 176.395V173.906ZM100.078 201.906H97.8359V173.906H100.078V188.631C101.254 187.264 102.744 186.234 104.549 185.541C106.363 184.839 108.268 184.488 110.264 184.488C112.916 184.488 115.213 185.04 117.154 186.143V173.906H119.396V201.906H117.154V188.412C117.154 187.41 116.676 186.648 115.719 186.129C114.771 185.6 113.54 185.336 112.027 185.336C111.18 185.336 110.3 185.423 109.389 185.596C108.486 185.769 107.589 186.02 106.695 186.348C105.811 186.667 104.968 187.081 104.166 187.592C103.373 188.093 102.671 188.658 102.061 189.287C101.45 189.907 100.967 190.627 100.611 191.447C100.256 192.268 100.078 193.133 100.078 194.045V201.906ZM123.867 201.906V173.906H143.268V176.395C141.827 175.911 139.48 175.469 136.227 175.068C132.982 174.667 130.092 174.467 127.559 174.467C127.03 174.467 126.652 174.604 126.424 174.877C126.196 175.141 126.082 175.638 126.082 176.367V185.213C126.082 185.632 126.21 185.974 126.465 186.238C126.72 186.493 127.057 186.621 127.477 186.621H140.52V188.973C138.842 188.562 136.637 188.18 133.902 187.824C131.168 187.469 129.035 187.291 127.504 187.291C127.076 187.291 126.734 187.396 126.479 187.605C126.232 187.815 126.109 188.12 126.109 188.521L126.082 199.445C126.082 200.174 126.196 200.676 126.424 200.949C126.652 201.214 127.03 201.346 127.559 201.346C130.092 201.346 132.982 201.145 136.227 200.744C139.48 200.343 141.827 199.901 143.268 199.418V201.906H123.867ZM146.631 173.906H168.191V176.395C167.143 175.939 165.676 175.506 163.789 175.096C161.911 174.676 160.654 174.467 160.016 174.467C159.487 174.467 159.104 174.604 158.867 174.877C158.639 175.141 158.525 175.638 158.525 176.367V201.906H156.283V176.367C156.283 175.638 156.169 175.141 155.941 174.877C155.714 174.604 155.335 174.467 154.807 174.467C154.169 174.467 152.906 174.676 151.02 175.096C149.142 175.506 147.679 175.939 146.631 176.395V173.906ZM172.102 201.906V173.906H174.344V201.906H172.102ZM178.691 192.773C178.217 191.242 177.98 189.62 177.98 187.906C177.98 186.193 178.217 184.575 178.691 183.053C179.165 181.521 179.831 180.173 180.688 179.006C181.544 177.83 182.547 176.818 183.695 175.971C184.853 175.114 186.133 174.462 187.537 174.016C188.95 173.569 190.422 173.346 191.953 173.346C193.247 173.346 194.51 173.464 195.74 173.701C196.98 173.938 198.105 174.275 199.117 174.713C200.138 175.15 200.958 175.725 201.578 176.436C202.198 177.146 202.508 177.935 202.508 178.801C202.508 179.102 202.462 179.361 202.371 179.58C202.289 179.79 202.184 179.945 202.057 180.045C201.938 180.136 201.815 180.209 201.688 180.264C201.569 180.309 201.469 180.332 201.387 180.332L201.25 180.346C201.141 179.571 200.817 178.796 200.279 178.021C199.742 177.247 199.062 176.559 198.242 175.957C197.431 175.346 196.469 174.854 195.357 174.48C194.245 174.098 193.111 173.906 191.953 173.906C190.349 173.906 188.827 174.248 187.387 174.932C185.956 175.606 184.712 176.545 183.654 177.748C182.597 178.951 181.758 180.432 181.139 182.191C180.528 183.951 180.223 185.855 180.223 187.906C180.223 189.957 180.528 191.862 181.139 193.621C181.758 195.38 182.597 196.861 183.654 198.064C184.712 199.268 185.956 200.211 187.387 200.895C188.827 201.569 190.349 201.906 191.953 201.906C193.01 201.906 194.081 201.733 195.166 201.387C196.26 201.04 197.267 200.576 198.188 199.992C199.108 199.4 199.951 198.748 200.717 198.037C201.492 197.317 202.157 196.561 202.713 195.768V198.912C202.029 199.942 200.667 200.794 198.625 201.469C196.583 202.134 194.359 202.467 191.953 202.467C190.422 202.467 188.95 202.243 187.537 201.797C186.133 201.35 184.853 200.703 183.695 199.855C182.547 198.999 181.544 197.987 180.688 196.82C179.831 195.645 179.165 194.296 178.691 192.773ZM205.639 196C205.639 195.271 205.839 194.669 206.24 194.195C206.65 193.721 207.138 193.484 207.703 193.484C208.15 193.484 208.551 193.639 208.906 193.949C208.159 194.204 207.785 194.824 207.785 195.809C207.785 196.802 208.223 197.773 209.098 198.721C209.973 199.66 211.139 200.425 212.598 201.018C214.065 201.61 215.596 201.906 217.191 201.906C218.167 201.906 219.105 201.815 220.008 201.633C220.91 201.441 221.749 201.154 222.523 200.771C223.307 200.389 223.986 199.924 224.561 199.377C225.135 198.83 225.586 198.174 225.914 197.408C226.242 196.643 226.406 195.809 226.406 194.906C226.406 194.186 226.301 193.535 226.092 192.951C225.891 192.368 225.636 191.871 225.326 191.461C225.016 191.051 224.588 190.682 224.041 190.354C223.503 190.016 222.984 189.747 222.482 189.547C221.99 189.337 221.361 189.141 220.596 188.959C219.839 188.777 219.174 188.635 218.6 188.535C218.025 188.435 217.31 188.316 216.453 188.18C215.688 188.061 215.109 187.97 214.717 187.906C214.325 187.842 213.778 187.738 213.076 187.592C212.374 187.446 211.832 187.314 211.449 187.195C211.066 187.068 210.588 186.895 210.014 186.676C209.439 186.457 208.993 186.229 208.674 185.992C208.355 185.755 208.004 185.464 207.621 185.117C207.238 184.771 206.947 184.402 206.746 184.01C206.555 183.609 206.391 183.144 206.254 182.615C206.117 182.087 206.049 181.517 206.049 180.906C206.049 179.849 206.268 178.892 206.705 178.035C207.143 177.169 207.721 176.454 208.441 175.889C209.171 175.314 210.018 174.831 210.984 174.439C211.96 174.048 212.962 173.77 213.992 173.605C215.022 173.432 216.079 173.346 217.164 173.346C218.094 173.346 219.023 173.4 219.953 173.51C220.883 173.619 221.803 173.801 222.715 174.057C223.635 174.303 224.447 174.608 225.148 174.973C225.85 175.337 226.415 175.802 226.844 176.367C227.281 176.932 227.5 177.557 227.5 178.24C227.5 179.225 227.126 179.844 226.379 180.1C226.115 178.833 225.504 177.725 224.547 176.777C223.599 175.829 222.441 175.114 221.074 174.631C219.716 174.148 218.258 173.906 216.699 173.906C214.01 173.906 211.896 174.503 210.355 175.697C208.815 176.882 208.045 178.573 208.045 180.77C208.045 181.326 208.145 181.827 208.346 182.273C208.555 182.72 208.87 183.103 209.289 183.422C209.717 183.741 210.169 184.014 210.643 184.242C211.126 184.47 211.727 184.675 212.447 184.857C213.167 185.04 213.833 185.19 214.443 185.309C215.063 185.427 215.811 185.564 216.686 185.719C217.515 185.855 218.144 185.965 218.572 186.047C219.001 186.129 219.607 186.257 220.391 186.43C221.174 186.594 221.785 186.753 222.223 186.908C222.66 187.054 223.202 187.255 223.85 187.51C224.497 187.765 225.007 188.029 225.381 188.303C225.755 188.576 226.16 188.913 226.598 189.314C227.044 189.715 227.382 190.144 227.609 190.6C227.837 191.055 228.029 191.584 228.184 192.186C228.348 192.787 228.43 193.434 228.43 194.127C228.43 195.239 228.22 196.26 227.801 197.189C227.382 198.11 226.812 198.894 226.092 199.541C225.372 200.179 224.529 200.721 223.562 201.168C222.605 201.615 221.589 201.943 220.514 202.152C219.438 202.362 218.331 202.467 217.191 202.467C214.931 202.467 212.921 202.198 211.162 201.66C209.412 201.113 208.054 200.352 207.088 199.377C206.122 198.393 205.639 197.267 205.639 196Z" fill="#383637"/>
<path d="M1.808 237.906V226.706H2.784V237.906H1.808ZM6.24175 237.906V229.634H7.02575L7.10575 231.234C7.76175 230.05 8.91375 229.426 10.2418 229.426C12.4018 229.426 13.7298 230.946 13.7298 233.33V237.906H12.8018V233.41C12.8018 231.506 11.7778 230.322 10.1298 230.322C8.38575 230.322 7.16975 231.65 7.16975 233.618V237.906H6.24175ZM17.4793 228.674C17.4793 226.786 18.4073 225.858 20.2473 225.858H21.5433V226.738H20.3273C18.9833 226.738 18.4073 227.33 18.4073 228.738V229.634H21.4633V230.482H18.4073V237.906H17.4793V230.482H15.5913V229.634H17.4793V228.674ZM26.7175 238.114C24.1575 238.114 22.3655 236.322 22.3655 233.762C22.3655 231.218 24.1575 229.426 26.7175 229.426C29.2615 229.426 31.0535 231.218 31.0535 233.762C31.0535 236.322 29.2615 238.114 26.7175 238.114ZM23.2935 233.762C23.2935 235.81 24.6855 237.218 26.7175 237.218C28.7335 237.218 30.1255 235.81 30.1255 233.762C30.1255 231.73 28.7335 230.322 26.7175 230.322C24.6855 230.322 23.2935 231.73 23.2935 233.762ZM33.6324 237.906V229.634H34.4164L34.5124 231.49C35.0724 230.242 36.0164 229.634 37.5524 229.634H38.2404V230.498H37.5204C35.7444 230.498 34.5604 231.586 34.5604 234.098V237.906H33.6324ZM40.5699 237.906V229.634H41.3539L41.4339 230.978C42.0099 229.97 43.0179 229.426 44.2979 229.426C45.7379 229.426 46.8419 230.146 47.3219 231.41C47.8819 230.146 49.0179 229.426 50.4739 229.426C52.5539 229.426 53.8979 230.85 53.8979 233.154V237.906H52.9699V233.298C52.9699 231.458 51.9459 230.322 50.3619 230.322C48.7459 230.322 47.6899 231.49 47.6899 233.362V237.906H46.7619V233.298C46.7619 231.458 45.7539 230.322 44.1699 230.322C42.5539 230.322 41.4979 231.49 41.4979 233.362V237.906H40.5699ZM60.5114 238.114C57.9994 238.114 56.2874 236.338 56.2874 233.762C56.2874 231.202 58.0154 229.426 60.5274 229.426C63.1354 229.426 64.8154 231.346 64.7514 234.146H57.2314C57.3914 236.018 58.6714 237.234 60.5114 237.234C61.8554 237.234 62.9274 236.61 63.4714 235.538L64.5114 235.554C63.8714 237.138 62.3674 238.114 60.5114 238.114ZM57.2314 233.33H63.8394C63.6154 231.458 62.3354 230.306 60.5274 230.306C58.6874 230.306 57.3914 231.506 57.2314 233.33ZM70.8086 238.114C68.3126 238.114 66.5686 236.274 66.5686 233.762C66.5686 231.25 68.3126 229.426 70.8086 229.426C72.3286 229.426 73.5606 230.098 74.2966 231.17V226.066H75.2246V237.906H74.4566L74.3446 236.274C73.6246 237.41 72.3606 238.114 70.8086 238.114ZM67.4966 233.762C67.4966 235.794 68.8886 237.218 70.9206 237.218C72.9366 237.218 74.3286 235.794 74.3286 233.762C74.3286 231.746 72.9366 230.322 70.9206 230.322C68.8886 230.322 67.4966 231.746 67.4966 233.762ZM87.4071 238.114C84.1111 238.114 81.7271 235.714 81.7271 232.306C81.7271 228.898 84.1111 226.498 87.4071 226.498C89.9671 226.498 92.0631 227.986 92.7991 230.338H91.7751C91.1351 228.562 89.4711 227.474 87.4231 227.474C84.6871 227.474 82.7191 229.442 82.7191 232.306C82.7191 235.17 84.6871 237.138 87.4231 237.138C89.5191 237.138 91.2471 236.002 91.8711 234.146H92.8951C92.2071 236.562 90.0471 238.114 87.4071 238.114ZM99.03 238.114C96.47 238.114 94.678 236.322 94.678 233.762C94.678 231.218 96.47 229.426 99.03 229.426C101.574 229.426 103.366 231.218 103.366 233.762C103.366 236.322 101.574 238.114 99.03 238.114ZM95.606 233.762C95.606 235.81 96.998 237.218 99.03 237.218C101.046 237.218 102.438 235.81 102.438 233.762C102.438 231.73 101.046 230.322 99.03 230.322C96.998 230.322 95.606 231.73 95.606 233.762ZM105.945 237.906V229.634H106.729L106.809 231.234C107.465 230.05 108.617 229.426 109.945 229.426C112.105 229.426 113.433 230.946 113.433 233.33V237.906H112.505V233.41C112.505 231.506 111.481 230.322 109.833 230.322C108.089 230.322 106.873 231.65 106.873 233.618V237.906H105.945ZM119.402 238.114C117.306 238.114 115.978 237.058 115.914 235.41H116.826C116.922 236.578 117.834 237.266 119.418 237.266C120.874 237.266 121.754 236.706 121.754 235.794C121.754 234.93 120.97 234.402 119.21 234.098C117.05 233.73 116.074 232.962 116.074 231.698C116.074 230.29 117.274 229.426 119.21 229.426C121.162 229.426 122.394 230.354 122.522 231.938H121.594C121.498 230.85 120.65 230.258 119.21 230.258C117.834 230.258 117.002 230.818 117.002 231.714C117.002 232.53 117.69 232.978 119.53 233.33C121.626 233.73 122.666 234.562 122.666 235.81C122.666 237.202 121.402 238.114 119.402 238.114ZM128.855 238.114C126.343 238.114 124.631 236.338 124.631 233.762C124.631 231.202 126.359 229.426 128.871 229.426C131.479 229.426 133.159 231.346 133.095 234.146H125.575C125.735 236.018 127.015 237.234 128.855 237.234C130.199 237.234 131.271 236.61 131.815 235.538L132.855 235.554C132.215 237.138 130.711 238.114 128.855 238.114ZM125.575 233.33H132.183C131.959 231.458 130.679 230.306 128.871 230.306C127.031 230.306 125.735 231.506 125.575 233.33ZM135.632 237.906V229.634H136.416L136.496 231.234C137.152 230.05 138.304 229.426 139.632 229.426C141.792 229.426 143.12 230.946 143.12 233.33V237.906H142.192V233.41C142.192 231.506 141.168 230.322 139.52 230.322C137.776 230.322 136.56 231.65 136.56 233.618V237.906H135.632ZM149.336 237.906C147.576 237.906 146.632 236.914 146.632 235.042V230.482H144.824V229.634H145.88C146.504 229.634 146.68 229.474 146.744 228.866L146.824 227.602H147.56V229.634H150.424V230.482H147.56V235.01C147.56 236.37 148.12 237.01 149.368 237.01H150.536V237.906H149.336ZM160.196 237.906C158.436 237.906 157.492 236.914 157.492 235.042V230.482H155.684V229.634H156.74C157.364 229.634 157.539 229.474 157.604 228.866L157.684 227.602H158.42V229.634H161.284V230.482H158.42V235.01C158.42 236.37 158.98 237.01 160.228 237.01H161.396V237.906H160.196ZM167.108 238.114C164.548 238.114 162.756 236.322 162.756 233.762C162.756 231.218 164.548 229.426 167.108 229.426C169.652 229.426 171.444 231.218 171.444 233.762C171.444 236.322 169.652 238.114 167.108 238.114ZM163.684 233.762C163.684 235.81 165.076 237.218 167.108 237.218C169.124 237.218 170.516 235.81 170.516 233.762C170.516 231.73 169.124 230.322 167.108 230.322C165.076 230.322 163.684 231.73 163.684 233.762ZM179.902 237.906V227.634H176.046V226.706H184.734V227.634H180.862V237.906H179.902ZM185.242 237.906V229.634H186.026L186.122 231.49C186.682 230.242 187.626 229.634 189.162 229.634H189.85V230.498H189.13C187.354 230.498 186.17 231.586 186.17 234.098V237.906H185.242ZM195.043 238.114C192.531 238.114 190.819 236.338 190.819 233.762C190.819 231.202 192.547 229.426 195.059 229.426C197.667 229.426 199.347 231.346 199.283 234.146H191.763C191.923 236.018 193.203 237.234 195.043 237.234C196.387 237.234 197.459 236.61 198.003 235.538L199.043 235.554C198.403 237.138 196.899 238.114 195.043 238.114ZM191.763 233.33H198.371C198.147 231.458 196.867 230.306 195.059 230.306C193.219 230.306 191.923 231.506 191.763 233.33ZM204.303 238.034C202.383 238.034 201.183 237.09 201.183 235.57C201.183 234.098 202.303 233.17 203.999 233.17H207.647V232.578C207.647 231.202 206.639 230.29 205.103 230.29C203.855 230.29 202.879 230.93 202.543 231.922H201.599C201.999 230.386 203.327 229.426 205.087 229.426C207.151 229.426 208.575 230.69 208.575 232.53V237.906H207.807L207.711 236.482C206.991 237.474 205.775 238.034 204.303 238.034ZM202.111 235.554C202.111 236.562 202.959 237.202 204.335 237.202C206.255 237.202 207.663 236.002 207.663 234.338V233.986H204.031C202.895 233.986 202.111 234.61 202.111 235.554ZM214.789 237.906C213.029 237.906 212.085 236.914 212.085 235.042V230.482H210.277V229.634H211.333C211.957 229.634 212.133 229.474 212.197 228.866L212.277 227.602H213.013V229.634H215.877V230.482H213.013V235.01C213.013 236.37 213.573 237.01 214.821 237.01H215.989V237.906H214.789ZM218.476 237.906V229.634H219.26L219.34 230.978C219.916 229.97 220.924 229.426 222.204 229.426C223.644 229.426 224.748 230.146 225.228 231.41C225.788 230.146 226.924 229.426 228.38 229.426C230.46 229.426 231.804 230.85 231.804 233.154V237.906H230.876V233.298C230.876 231.458 229.852 230.322 228.268 230.322C226.652 230.322 225.596 231.49 225.596 233.362V237.906H224.668V233.298C224.668 231.458 223.66 230.322 222.076 230.322C220.46 230.322 219.404 231.49 219.404 233.362V237.906H218.476ZM238.418 238.114C235.906 238.114 234.194 236.338 234.194 233.762C234.194 231.202 235.922 229.426 238.434 229.426C241.042 229.426 242.722 231.346 242.658 234.146H235.138C235.298 236.018 236.578 237.234 238.418 237.234C239.762 237.234 240.834 236.61 241.378 235.538L242.418 235.554C241.778 237.138 240.274 238.114 238.418 238.114ZM235.138 233.33H241.746C241.522 231.458 240.242 230.306 238.434 230.306C236.594 230.306 235.298 231.506 235.138 233.33ZM245.195 237.906V229.634H245.979L246.059 231.234C246.715 230.05 247.867 229.426 249.195 229.426C251.355 229.426 252.683 230.946 252.683 233.33V237.906H251.755V233.41C251.755 231.506 250.731 230.322 249.083 230.322C247.339 230.322 246.123 231.65 246.123 233.618V237.906H245.195ZM258.899 237.906C257.139 237.906 256.195 236.914 256.195 235.042V230.482H254.387V229.634H255.443C256.067 229.634 256.243 229.474 256.307 228.866L256.387 227.602H257.123V229.634H259.987V230.482H257.123V235.01C257.123 236.37 257.683 237.01 258.931 237.01H260.099V237.906H258.899Z" fill="#5B5852"/>
</svg>
