<svg width="366" height="283" viewBox="0 0 366 283" fill="none" xmlns="http://www.w3.org/2000/svg">
<path d="M39.9453 0.321289C39.6338 1.16044 39.3391 1.99171 39.0156 2.74316C37.3342 6.65348 35.4723 10.4771 33.9385 14.4443C32.7574 17.4977 31.6991 20.6355 30.6328 23.7188C31.3354 23.7132 31.259 22.7499 31.4941 22.2021C31.6174 21.9172 32.0982 21.1689 32.3633 21.0469C32.7734 20.8598 33.5277 21.1803 33.4648 21.625C32.642 23.5828 32.2598 25.6845 31.5244 27.6748C30.9011 29.3615 30.3349 31.0402 29.7197 32.7432C27.8688 37.8601 25.5552 42.9445 23.8164 48.0615C21.3449 55.337 19.42 62.8133 16.6504 69.9912C15.4803 73.0229 14.8241 76.0493 13.8535 79.1162C13.2794 80.9276 12.3035 83.3685 12.041 85.1826C11.9864 85.5649 12.0908 85.9961 12.0088 86.3594C11.954 86.5953 11.5984 87.029 11.4727 87.3408C10.7727 89.0872 10.0205 92.7534 9.71973 94.6787C9.63498 95.2237 9.64093 96.753 9.46875 97.0488C9.30749 97.3226 9.13502 97.2523 9.08301 96.9678C8.99552 96.477 9.04434 95.0989 9.07715 94.543C9.17013 93.0326 9.56976 91.4976 9.78027 89.998C9.94699 88.8106 9.85908 88.6555 10.3184 87.5059C10.7776 86.3535 10.9012 85.4557 11.1035 84.249C12.2136 77.5973 14.6663 71.7294 16.375 65.2783C16.6949 64.0662 17.2227 62.3848 17.3184 61.1699C17.3266 61.0587 17.3944 60.7961 17.2197 60.8203C15.0243 69.0448 11.8476 76.9819 9.62207 85.1982C8.86474 87.9995 8.15387 90.8419 7.86133 93.7354C7.81217 94.2153 7.91834 94.7605 7.85547 95.2432C7.78431 95.7935 7.47853 96.4821 7.38281 97.0947C7.0192 99.4647 7.0871 103.687 7.98926 105.916C8.77393 107.855 9.73689 107.977 11.1641 109.219C11.6341 109.628 12.2528 110.357 12.9062 110.906H0V45.7666C0 22.4516 17.4142 3.20438 39.9453 0.321289ZM50.0527 77.2129C50.1184 77.137 50.441 76.6321 50.5586 76.7568C47.7972 82.1179 45.3284 87.7611 44.1035 93.6943C42.9005 99.5164 43.056 103.598 45.9678 108.889C46.3353 109.556 46.9382 110.255 47.6699 110.906H16.7666C18.7844 110.166 21.1762 109.112 22.8105 108.159C23.1084 107.986 24.3901 107.129 24.4922 106.896C24.5441 106.776 24.2899 106.675 24.3418 106.461C24.4214 106.133 25.1152 105.767 25.293 105.577C25.6483 105.198 25.8808 104.696 26.3125 104.271C26.5886 103.997 27.7477 103.018 28.0488 102.969C28.8827 102.833 30.157 103.831 30.1133 102.627C29.1618 102.041 29.5202 101.447 30.5127 101.371C30.7918 101.35 31.6414 101.821 31.5107 101.149C31.3494 100.32 31.1636 100.29 31.9072 99.6416C33.1402 98.5678 35.1169 97.4341 35.4014 95.6445C35.4369 95.4141 35.2016 95.2215 35.5186 94.9531C36.3169 94.2779 37.894 95.0664 38.3916 93.6699C38.4709 93.4503 38.4463 93.1356 38.5557 92.9512C38.6186 92.8454 38.8569 92.7883 38.9717 92.6338C39.3732 92.0832 39.0835 90.8335 39.1709 90.1611L38.5615 90.0088L39.1191 89.5586C39.3267 89.6426 39.2399 90.0244 39.2725 90.0576C39.3244 90.1119 39.8578 90.0332 39.959 89.9355C40.0385 89.855 40.234 89.2001 40.1855 89.1553H39.7285C39.5344 88.8109 40.0708 88.6075 40.2295 88.3418C40.3498 88.1385 40.355 87.8671 40.4697 87.6719C41.197 86.4489 42.4302 85.9171 43.3379 84.9707C43.6058 84.6914 43.756 84.3361 44.0977 84.0107C44.2917 83.8264 44.6309 83.6939 44.7568 83.5557C44.94 83.3523 44.9129 83.0536 45.0469 82.834C45.7523 81.6599 47.4198 80.4534 48.374 79.377C48.9755 78.6964 49.465 77.9071 50.0527 77.2129ZM47.9854 0C72.2842 1.13123 91.6377 21.188 91.6377 45.7666V110.906H62.749C63.428 110.409 63.8634 109.705 64.5977 109.181C65.6665 108.419 66.9378 108.08 67.9766 107.392C74.2649 103.21 80.7424 96.9481 85.6309 91.2236C87.438 89.1085 90.2399 86.0147 91.123 83.4658C91.3773 82.7337 91.6917 81.9826 91.6289 81.1963L91.6348 81.1904C91.4926 81.1796 91.3584 81.1902 91.2217 81.2363C90.8362 81.3719 88.4033 84.0919 87.9219 84.6182C82.2706 90.7873 77.1112 97.8434 69.9727 102.407C66.2571 104.783 62.4297 106.35 58.3916 108.062C56.579 108.829 52.9811 109.308 51.0508 108.988C49.2819 108.695 48.716 108.46 48.2539 106.719C47.8875 105.341 47.3264 102.261 47.3154 100.886C47.31 100.04 47.7477 98.9331 47.9062 98.0654C49.2624 90.5947 52.9266 81.6701 57.249 75.3682C59.2202 72.4913 61.178 70.7337 63.5264 68.2852C64.4858 67.2846 65.2292 66.0833 66.1641 65.0557C68.0751 62.9568 70.3718 61.2349 72.7285 59.6621L72.9502 59.6299C73.713 59.9905 74.4239 60.0558 74.957 60.7744C76.8786 63.3614 72.8762 67.1357 71.583 69.2236C71.4135 69.5599 71.3731 70.0757 71.6328 70.374C71.7726 70.5364 72.2416 70.6796 72.4658 70.7041C73.0973 70.7746 75.0087 70.7914 75.6104 70.6992C77.2945 70.4389 79.4707 66.0971 79.6895 64.5596C80.2854 60.3647 77.3085 57.5312 73.3525 56.9209C71.7834 56.6796 71.7937 56.994 70.5283 57.1865C68.8469 57.4441 68.0943 57.0377 66.3828 58.0166C62.7247 60.1156 57.8578 65.3436 55.3535 68.7549C54.0249 70.5662 53.0904 72.7115 51.625 74.333C50.5615 75.5126 49.3366 76.5809 48.2676 77.7578C46.4221 79.7916 44.7673 82.0095 42.8809 84.0107C41.3006 85.692 39.4257 87.2436 37.8975 88.9492C34.696 92.5205 31.8002 95.4244 28.041 98.4316C27.2563 99.058 26.6081 99.8472 25.8535 100.498C23.2809 102.708 19.9129 105.255 16.9355 106.879C15.6123 107.6 14.1849 108.647 13.3701 106.824C12.5583 105.004 12.7682 100.744 12.9404 98.6836C13.0171 97.7673 13.4496 96.9052 13.5371 95.9482C13.6574 94.6385 13.5479 93.6317 13.9307 92.3057C14.286 91.0776 14.521 90.3237 14.7998 89.0332C15.2919 86.7581 16.0161 85.1254 16.6504 83.0049C17.7549 79.3143 18.5732 75.4827 19.8555 71.8652C21.9743 65.8861 23.7152 59.7791 25.8477 53.8135C28.5325 46.3075 31.683 38.9531 34.417 31.458C35.2481 29.1748 36.1558 26.9319 37.0088 24.6514C38.9035 19.5723 40.8413 14.4411 43.25 9.56543C44.2233 7.59137 45.399 6.17858 46.4707 4.3916C46.8665 3.73277 47.6789 1.32218 47.9854 0ZM8.88867 99.9854H8.8916L8.58301 100.04C8.38895 99.7039 8.60436 99.3915 8.98145 99.3398L8.88867 99.9854ZM37.0908 91.4736C37.2136 91.4086 37.2818 91.3355 37.4482 91.376C37.4018 91.7013 37.5632 92.2946 37.3477 92.5361L37.1641 92.6699C36.8562 92.8839 36.271 93.273 36.1992 93.3096C35.8958 93.4641 35.5509 93.5183 35.2119 93.4912C34.9774 93.282 36.8229 91.6119 37.0908 91.4736ZM47.4385 87.3135C47.2581 87.7933 46.873 86.7859 47.4111 86.8369L47.4385 87.3135ZM47.7207 85.2256C47.9665 85.1797 48.0021 85.4263 48.125 85.5781H48.1221L47.9717 85.7275L47.7314 85.5645L47.7207 85.2256ZM48.4287 83.3086C48.5244 83.2463 48.7645 83.3306 48.8301 83.458L48.4775 84.1113C48.2126 84.0297 48.3713 83.3436 48.4287 83.3057V83.3086ZM50.46 79.9814C50.4846 80.3584 50.4815 80.9518 49.9512 80.8867C49.9293 80.461 49.9187 79.9815 50.46 79.9814ZM51.2666 77.9229C51.286 77.8229 51.5444 77.8499 51.5752 77.8662C51.7801 77.999 51.5594 78.5652 51.3271 78.666C51.0565 78.4708 51.19 78.164 51.2666 77.9199V77.9229ZM53.3086 74.5361C53.2813 74.8588 53.4396 75.0921 53.3467 75.4229C53.2236 75.8648 52.6884 76.2196 52.5381 75.6475C52.454 75.3272 53.1908 74.3957 53.3086 74.5361ZM35.2891 13.8584C36.1035 13.6905 35.9966 14.6499 35.4443 14.7285C34.843 14.815 34.6439 13.9913 35.2891 13.8584ZM36.7402 11.8223C36.5762 11.1226 36.4427 10.2845 37.457 10.5557C37.7604 11.117 37.4155 11.8412 36.7402 11.8223Z" fill="#383637"/>
<path d="M2.10547 153.773C1.63151 152.242 1.39453 150.62 1.39453 148.906C1.39453 147.193 1.63151 145.575 2.10547 144.053C2.57943 142.521 3.24479 141.173 4.10156 140.006C4.95833 138.83 5.96094 137.818 7.10938 136.971C8.26693 136.114 9.54753 135.462 10.9512 135.016C12.3639 134.569 13.8359 134.346 15.3672 134.346C16.6615 134.346 17.9238 134.464 19.1543 134.701C20.3939 134.938 21.5195 135.275 22.5312 135.713C23.5521 136.15 24.3724 136.725 24.9922 137.436C25.612 138.146 25.9219 138.935 25.9219 139.801C25.9219 140.102 25.8763 140.361 25.7852 140.58C25.7031 140.79 25.5983 140.945 25.4707 141.045C25.3522 141.136 25.2292 141.209 25.1016 141.264C24.9831 141.309 24.8828 141.332 24.8008 141.332L24.6641 141.346C24.5547 140.571 24.2311 139.796 23.6934 139.021C23.1556 138.247 22.4766 137.559 21.6562 136.957C20.8451 136.346 19.8835 135.854 18.7715 135.48C17.6595 135.098 16.5247 134.906 15.3672 134.906C13.763 134.906 12.2409 135.248 10.8008 135.932C9.36979 136.606 8.12565 137.545 7.06836 138.748C6.01107 139.951 5.17253 141.432 4.55273 143.191C3.94206 144.951 3.63672 146.855 3.63672 148.906C3.63672 150.957 3.94206 152.862 4.55273 154.621C5.17253 156.38 6.01107 157.861 7.06836 159.064C8.12565 160.268 9.36979 161.211 10.8008 161.895C12.2409 162.569 13.763 162.906 15.3672 162.906C15.9961 162.906 16.6797 162.824 17.418 162.66C18.1562 162.487 18.8945 162.232 19.6328 161.895C20.3802 161.557 21.0547 161.161 21.6562 160.705C22.2669 160.249 22.7637 159.702 23.1465 159.064C23.5293 158.426 23.7207 157.757 23.7207 157.055V147.73H26.127V159.912C25.4434 160.942 24.0807 161.794 22.0391 162.469C19.9974 163.134 17.7734 163.467 15.3672 163.467C13.8359 163.467 12.3639 163.243 10.9512 162.797C9.54753 162.35 8.26693 161.703 7.10938 160.855C5.96094 159.999 4.95833 158.987 4.10156 157.82C3.24479 156.645 2.57943 155.296 2.10547 153.773ZM30.3789 162.906V134.906H49.7793V137.395C48.3392 136.911 45.9922 136.469 42.7383 136.068C39.4935 135.667 36.6042 135.467 34.0703 135.467C33.5417 135.467 33.1634 135.604 32.9355 135.877C32.7077 136.141 32.5938 136.638 32.5938 137.367V146.213C32.5938 146.632 32.7214 146.974 32.9766 147.238C33.2318 147.493 33.569 147.621 33.9883 147.621H47.0312V149.973C45.3542 149.562 43.1484 149.18 40.4141 148.824C37.6797 148.469 35.5469 148.291 34.0156 148.291C33.5872 148.291 33.2454 148.396 32.9902 148.605C32.7441 148.815 32.6211 149.12 32.6211 149.521L32.5938 160.445C32.5938 161.174 32.7077 161.676 32.9355 161.949C33.1634 162.214 33.5417 162.346 34.0703 162.346C36.6042 162.346 39.4935 162.145 42.7383 161.744C45.9922 161.343 48.3392 160.901 49.7793 160.418V162.906H30.3789ZM53.7031 162.906V134.906H56C61.1862 142.262 67.138 150.679 73.8555 160.158C74.056 160.441 74.2337 160.582 74.3887 160.582C74.6074 160.582 74.7031 160.34 74.6758 159.857L72.9941 134.906H75.3457V162.906H73.1035C71.8822 161.184 69.2572 157.492 65.2285 151.832C61.209 146.163 57.8594 141.437 55.1797 137.654C54.9792 137.372 54.8014 137.23 54.6465 137.23C54.4368 137.23 54.3457 137.472 54.373 137.955L56.0547 162.906H53.7031ZM79.8164 162.906V134.906H99.2168V137.395C97.7767 136.911 95.4297 136.469 92.1758 136.068C88.931 135.667 86.0417 135.467 83.5078 135.467C82.9792 135.467 82.6009 135.604 82.373 135.877C82.1452 136.141 82.0312 136.638 82.0312 137.367V146.213C82.0312 146.632 82.1589 146.974 82.4141 147.238C82.6693 147.493 83.0065 147.621 83.4258 147.621H96.4688V149.973C94.7917 149.562 92.5859 149.18 89.8516 148.824C87.1172 148.469 84.9844 148.291 83.4531 148.291C83.0247 148.291 82.6829 148.396 82.4277 148.605C82.1816 148.815 82.0586 149.12 82.0586 149.521L82.0312 160.445C82.0312 161.174 82.1452 161.676 82.373 161.949C82.6009 162.214 82.9792 162.346 83.5078 162.346C86.0417 162.346 88.931 162.145 92.1758 161.744C95.4297 161.343 97.7767 160.901 99.2168 160.418V162.906H79.8164ZM103.141 162.906V134.906H116.02C117.004 134.906 117.911 135.007 118.74 135.207C119.579 135.408 120.29 135.672 120.873 136C121.465 136.328 121.99 136.72 122.445 137.176C122.91 137.622 123.284 138.087 123.566 138.57C123.849 139.044 124.081 139.55 124.264 140.088C124.455 140.617 124.583 141.109 124.646 141.564C124.719 142.02 124.756 142.462 124.756 142.891C124.756 143.319 124.719 143.761 124.646 144.217C124.583 144.663 124.455 145.151 124.264 145.68C124.081 146.208 123.849 146.71 123.566 147.184C123.284 147.658 122.91 148.122 122.445 148.578C121.99 149.025 121.465 149.412 120.873 149.74C120.29 150.068 119.579 150.337 118.74 150.547C117.911 150.747 117.004 150.852 116.02 150.861H115.213C115.003 150.861 114.853 150.88 114.762 150.916C114.671 150.943 114.634 150.993 114.652 151.066C114.671 151.13 114.721 151.208 114.803 151.299C114.894 151.39 115.031 151.508 115.213 151.654C115.678 152.019 116.188 152.511 116.744 153.131C117.3 153.751 117.783 154.329 118.193 154.867C118.613 155.405 119.214 156.198 119.998 157.246C120.044 157.31 120.08 157.365 120.107 157.41C120.144 157.447 120.185 157.497 120.23 157.561C120.276 157.615 120.317 157.67 120.354 157.725C121.165 158.818 122.058 159.844 123.033 160.801C124.008 161.749 124.842 162.451 125.535 162.906H122.377C121.848 162.587 121.274 162.118 120.654 161.498C120.035 160.869 119.442 160.195 118.877 159.475C118.312 158.745 117.729 157.98 117.127 157.178C116.525 156.367 115.938 155.592 115.363 154.854C114.789 154.115 114.229 153.445 113.682 152.844C113.144 152.242 112.602 151.764 112.055 151.408C111.517 151.044 111.02 150.861 110.564 150.861H108.062V150.301H113.559C116.32 150.301 118.43 149.649 119.889 148.346C121.356 147.033 122.09 145.215 122.09 142.891C122.09 140.566 121.356 138.748 119.889 137.436C118.43 136.123 116.32 135.467 113.559 135.467H106.832C106.285 135.467 105.902 135.581 105.684 135.809C105.465 136.036 105.355 136.51 105.355 137.23L105.383 162.906H103.141ZM129.131 162.906H126.67L136.213 136.219L135.625 134.906H138.1L150.582 162.906H148.121L146.07 158.34C145.633 157.355 144.913 156.48 143.91 155.715C142.917 154.94 141.841 154.361 140.684 153.979C139.526 153.587 138.41 153.391 137.334 153.391C135.484 153.391 133.757 153.969 132.152 155.127C131.852 155.346 131.551 155.71 131.25 156.221C130.958 156.722 130.749 157.205 130.621 157.67L129.131 162.906ZM132.18 152.297C132.043 152.798 132.093 153.049 132.33 153.049C132.449 153.049 132.654 152.976 132.945 152.83C134.039 152.229 135.224 151.928 136.5 151.928C137.767 151.928 139.043 152.201 140.328 152.748C141.622 153.286 142.83 154.01 143.951 154.922C144.27 155.186 144.471 155.286 144.553 155.223C144.635 155.159 144.589 154.94 144.416 154.566L137.197 138.379C137.033 137.987 136.855 137.791 136.664 137.791C136.464 137.791 136.295 138.014 136.158 138.461L132.18 152.297ZM172.307 162.906H152.906V134.906H155.121V160.445C155.121 161.174 155.235 161.676 155.463 161.949C155.691 162.214 156.069 162.346 156.598 162.346C159.132 162.346 162.021 162.145 165.266 161.744C168.52 161.343 170.867 160.901 172.307 160.418V162.906ZM2.10547 192.773C1.63151 191.242 1.39453 189.62 1.39453 187.906C1.39453 186.193 1.63151 184.575 2.10547 183.053C2.57943 181.521 3.24479 180.173 4.10156 179.006C4.95833 177.83 5.96094 176.818 7.10938 175.971C8.26693 175.114 9.54753 174.462 10.9512 174.016C12.3639 173.569 13.8359 173.346 15.3672 173.346C16.6615 173.346 17.9238 173.464 19.1543 173.701C20.3939 173.938 21.5195 174.275 22.5312 174.713C23.5521 175.15 24.3724 175.725 24.9922 176.436C25.612 177.146 25.9219 177.935 25.9219 178.801C25.9219 179.102 25.8763 179.361 25.7852 179.58C25.7031 179.79 25.5983 179.945 25.4707 180.045C25.3522 180.136 25.2292 180.209 25.1016 180.264C24.9831 180.309 24.8828 180.332 24.8008 180.332L24.6641 180.346C24.5547 179.571 24.2311 178.796 23.6934 178.021C23.1556 177.247 22.4766 176.559 21.6562 175.957C20.8451 175.346 19.8835 174.854 18.7715 174.48C17.6595 174.098 16.5247 173.906 15.3672 173.906C13.763 173.906 12.2409 174.248 10.8008 174.932C9.36979 175.606 8.12565 176.545 7.06836 177.748C6.01107 178.951 5.17253 180.432 4.55273 182.191C3.94206 183.951 3.63672 185.855 3.63672 187.906C3.63672 189.957 3.94206 191.862 4.55273 193.621C5.17253 195.38 6.01107 196.861 7.06836 198.064C8.12565 199.268 9.36979 200.211 10.8008 200.895C12.2409 201.569 13.763 201.906 15.3672 201.906C16.4245 201.906 17.4954 201.733 18.5801 201.387C19.6738 201.04 20.681 200.576 21.6016 199.992C22.5221 199.4 23.3652 198.748 24.1309 198.037C24.9056 197.317 25.571 196.561 26.127 195.768V198.912C25.4434 199.942 24.0807 200.794 22.0391 201.469C19.9974 202.134 17.7734 202.467 15.3672 202.467C13.8359 202.467 12.3639 202.243 10.9512 201.797C9.54753 201.35 8.26693 200.703 7.10938 199.855C5.96094 198.999 4.95833 197.987 4.10156 196.82C3.24479 195.645 2.57943 194.296 2.10547 192.773ZM42.875 202.467C41.3438 202.467 39.8717 202.243 38.459 201.797C37.0553 201.35 35.7747 200.703 34.6172 199.855C33.4688 198.999 32.4661 197.987 31.6094 196.82C30.7526 195.645 30.0872 194.296 29.6133 192.773C29.1393 191.242 28.9023 189.62 28.9023 187.906C28.9023 186.193 29.1393 184.575 29.6133 183.053C30.0872 181.521 30.7526 180.173 31.6094 179.006C32.4661 177.83 33.4688 176.818 34.6172 175.971C35.7747 175.114 37.0553 174.462 38.459 174.016C39.8717 173.569 41.3438 173.346 42.875 173.346C44.7891 173.346 46.5983 173.701 48.3027 174.412C50.0163 175.114 51.502 176.089 52.7598 177.338C54.0267 178.587 55.0293 180.127 55.7676 181.959C56.5059 183.791 56.875 185.773 56.875 187.906C56.875 190.039 56.5059 192.021 55.7676 193.854C55.0293 195.686 54.0267 197.226 52.7598 198.475C51.502 199.723 50.0163 200.703 48.3027 201.414C46.5983 202.116 44.7891 202.467 42.875 202.467ZM32.0605 182.191C31.4499 183.951 31.1445 185.855 31.1445 187.906C31.1445 189.957 31.4499 191.862 32.0605 193.621C32.6803 195.38 33.5189 196.861 34.5762 198.064C35.6335 199.268 36.8776 200.211 38.3086 200.895C39.7487 201.569 41.2708 201.906 42.875 201.906C44.4792 201.906 46.0013 201.569 47.4414 200.895C48.8815 200.211 50.1302 199.268 51.1875 198.064C52.2539 196.861 53.097 195.38 53.7168 193.621C54.3366 191.862 54.6465 189.957 54.6465 187.906C54.6465 185.855 54.3366 183.951 53.7168 182.191C53.097 180.432 52.2539 178.951 51.1875 177.748C50.1302 176.545 48.8815 175.606 47.4414 174.932C46.0013 174.248 44.4792 173.906 42.875 173.906C41.2708 173.906 39.7487 174.248 38.3086 174.932C36.8776 175.606 35.6335 176.545 34.5762 177.748C33.5189 178.951 32.6803 180.432 32.0605 182.191ZM60.5117 201.906V173.906H62.8086C67.9948 181.262 73.9466 189.679 80.6641 199.158C80.8646 199.441 81.0423 199.582 81.1973 199.582C81.416 199.582 81.5117 199.34 81.4844 198.857L79.8027 173.906H82.1543V201.906H79.9121C78.6908 200.184 76.0658 196.492 72.0371 190.832C68.0176 185.163 64.668 180.437 61.9883 176.654C61.7878 176.372 61.61 176.23 61.4551 176.23C61.2454 176.23 61.1543 176.472 61.1816 176.955L62.8633 201.906H60.5117ZM85.9277 196C85.9277 195.271 86.1283 194.669 86.5293 194.195C86.9395 193.721 87.4271 193.484 87.9922 193.484C88.4388 193.484 88.8398 193.639 89.1953 193.949C88.4479 194.204 88.0742 194.824 88.0742 195.809C88.0742 196.802 88.5117 197.773 89.3867 198.721C90.2617 199.66 91.4284 200.425 92.8867 201.018C94.3542 201.61 95.8854 201.906 97.4805 201.906C98.4557 201.906 99.3945 201.815 100.297 201.633C101.199 201.441 102.038 201.154 102.812 200.771C103.596 200.389 104.275 199.924 104.85 199.377C105.424 198.83 105.875 198.174 106.203 197.408C106.531 196.643 106.695 195.809 106.695 194.906C106.695 194.186 106.59 193.535 106.381 192.951C106.18 192.368 105.925 191.871 105.615 191.461C105.305 191.051 104.877 190.682 104.33 190.354C103.792 190.016 103.273 189.747 102.771 189.547C102.279 189.337 101.65 189.141 100.885 188.959C100.128 188.777 99.4629 188.635 98.8887 188.535C98.3145 188.435 97.599 188.316 96.7422 188.18C95.9766 188.061 95.3978 187.97 95.0059 187.906C94.6139 187.842 94.0671 187.738 93.3652 187.592C92.6634 187.446 92.1211 187.314 91.7383 187.195C91.3555 187.068 90.877 186.895 90.3027 186.676C89.7285 186.457 89.2819 186.229 88.9629 185.992C88.6439 185.755 88.293 185.464 87.9102 185.117C87.5273 184.771 87.2357 184.402 87.0352 184.01C86.8438 183.609 86.6797 183.144 86.543 182.615C86.4062 182.087 86.3379 181.517 86.3379 180.906C86.3379 179.849 86.5566 178.892 86.9941 178.035C87.4316 177.169 88.0104 176.454 88.7305 175.889C89.4596 175.314 90.3073 174.831 91.2734 174.439C92.2487 174.048 93.2513 173.77 94.2812 173.605C95.3112 173.432 96.3685 173.346 97.4531 173.346C98.3828 173.346 99.3125 173.4 100.242 173.51C101.172 173.619 102.092 173.801 103.004 174.057C103.924 174.303 104.736 174.608 105.438 174.973C106.139 175.337 106.704 175.802 107.133 176.367C107.57 176.932 107.789 177.557 107.789 178.24C107.789 179.225 107.415 179.844 106.668 180.1C106.404 178.833 105.793 177.725 104.836 176.777C103.888 175.829 102.73 175.114 101.363 174.631C100.005 174.148 98.5469 173.906 96.9883 173.906C94.2995 173.906 92.1849 174.503 90.6445 175.697C89.1042 176.882 88.334 178.573 88.334 180.77C88.334 181.326 88.4342 181.827 88.6348 182.273C88.8444 182.72 89.1589 183.103 89.5781 183.422C90.0065 183.741 90.4577 184.014 90.9316 184.242C91.4147 184.47 92.0163 184.675 92.7363 184.857C93.4564 185.04 94.1217 185.19 94.7324 185.309C95.3522 185.427 96.0996 185.564 96.9746 185.719C97.804 185.855 98.4329 185.965 98.8613 186.047C99.2897 186.129 99.8958 186.257 100.68 186.43C101.464 186.594 102.074 186.753 102.512 186.908C102.949 187.054 103.492 187.255 104.139 187.51C104.786 187.765 105.296 188.029 105.67 188.303C106.044 188.576 106.449 188.913 106.887 189.314C107.333 189.715 107.671 190.144 107.898 190.6C108.126 191.055 108.318 191.584 108.473 192.186C108.637 192.787 108.719 193.434 108.719 194.127C108.719 195.239 108.509 196.26 108.09 197.189C107.671 198.11 107.101 198.894 106.381 199.541C105.661 200.179 104.818 200.721 103.852 201.168C102.895 201.615 101.878 201.943 100.803 202.152C99.7272 202.362 98.6198 202.467 97.4805 202.467C95.2201 202.467 93.2103 202.198 91.4512 201.66C89.7012 201.113 88.3431 200.352 87.377 199.377C86.4108 198.393 85.9277 197.267 85.9277 196ZM112.246 201.906V173.906H131.646V176.395C130.206 175.911 127.859 175.469 124.605 175.068C121.361 174.667 118.471 174.467 115.938 174.467C115.409 174.467 115.031 174.604 114.803 174.877C114.575 175.141 114.461 175.638 114.461 176.367V185.213C114.461 185.632 114.589 185.974 114.844 186.238C115.099 186.493 115.436 186.621 115.855 186.621H128.898V188.973C127.221 188.562 125.016 188.18 122.281 187.824C119.547 187.469 117.414 187.291 115.883 187.291C115.454 187.291 115.113 187.396 114.857 187.605C114.611 187.815 114.488 188.12 114.488 188.521L114.461 199.445C114.461 200.174 114.575 200.676 114.803 200.949C115.031 201.214 115.409 201.346 115.938 201.346C118.471 201.346 121.361 201.145 124.605 200.744C127.859 200.343 130.206 199.901 131.646 199.418V201.906H112.246ZM135.57 201.906V173.906H137.867C143.053 181.262 149.005 189.679 155.723 199.158C155.923 199.441 156.101 199.582 156.256 199.582C156.475 199.582 156.57 199.34 156.543 198.857L154.861 173.906H157.213V201.906H154.971C153.749 200.184 151.124 196.492 147.096 190.832C143.076 185.163 139.727 180.437 137.047 176.654C136.846 176.372 136.669 176.23 136.514 176.23C136.304 176.23 136.213 176.472 136.24 176.955L137.922 201.906H135.57ZM161.123 173.906H182.684V176.395C181.635 175.939 180.168 175.506 178.281 175.096C176.404 174.676 175.146 174.467 174.508 174.467C173.979 174.467 173.596 174.604 173.359 174.877C173.132 175.141 173.018 175.638 173.018 176.367V201.906H170.775V176.367C170.775 175.638 170.661 175.141 170.434 174.877C170.206 174.604 169.827 174.467 169.299 174.467C168.661 174.467 167.398 174.676 165.512 175.096C163.634 175.506 162.171 175.939 161.123 176.395V173.906ZM194.988 192.691C194.988 191.105 195.467 189.629 196.424 188.262C197.381 186.885 198.552 185.91 199.938 185.336C200.803 184.962 200.972 184.456 200.443 183.818C198.949 181.977 198.201 180.464 198.201 179.279C198.201 178.24 198.461 177.324 198.98 176.531C199.5 175.738 200.225 175.1 201.154 174.617C202.084 174.134 203.155 173.774 204.367 173.537C205.589 173.3 206.933 173.182 208.4 173.182C210.36 173.182 212.11 173.355 213.65 173.701C215.191 174.038 216.439 174.581 217.396 175.328C218.363 176.076 218.846 176.982 218.846 178.049C218.846 178.541 218.759 178.942 218.586 179.252C218.413 179.553 218.071 179.776 217.561 179.922C217.333 179.129 216.954 178.377 216.426 177.666C215.906 176.946 215.259 176.308 214.484 175.752C213.719 175.187 212.798 174.74 211.723 174.412C210.656 174.075 209.512 173.906 208.291 173.906C207.553 173.906 206.865 173.929 206.227 173.975C205.589 174.02 204.937 174.098 204.271 174.207C203.606 174.307 203.014 174.458 202.494 174.658C201.984 174.85 201.514 175.091 201.086 175.383C200.667 175.665 200.334 176.021 200.088 176.449C199.851 176.878 199.719 177.365 199.691 177.912C199.664 178.404 199.805 178.965 200.115 179.594C200.434 180.214 200.904 180.888 201.523 181.617C202.152 182.346 202.763 183.021 203.355 183.641C203.948 184.26 204.673 184.999 205.529 185.855C206.395 186.712 207.061 187.396 207.525 187.906L216.795 197.285C217.059 197.549 217.273 197.682 217.438 197.682C217.684 197.682 217.807 197.44 217.807 196.957C217.779 193.548 217.643 190.992 217.396 189.287C217.15 187.574 216.663 185.992 215.934 184.543H218.449V197.6C218.449 198.019 218.54 198.447 218.723 198.885C218.905 199.322 219.151 199.696 219.461 200.006L221.334 201.906H218.258C218.203 201.852 218.121 201.76 218.012 201.633C217.902 201.505 217.816 201.41 217.752 201.346C217.515 201.081 217.196 201.008 216.795 201.127C215.61 201.519 214.133 201.838 212.365 202.084C210.606 202.339 208.76 202.467 206.828 202.467C204.96 202.467 203.269 202.212 201.756 201.701C200.243 201.191 198.999 200.493 198.023 199.609C197.048 198.716 196.296 197.682 195.768 196.506C195.248 195.321 194.988 194.049 194.988 192.691ZM197.203 191.994C197.203 193.863 197.718 195.508 198.748 196.93C199.778 198.352 201.214 199.445 203.055 200.211C204.905 200.967 207.024 201.346 209.412 201.346C212.128 201.346 214.17 201.195 215.537 200.895C215.984 200.803 216.248 200.612 216.33 200.32C216.421 200.02 216.307 199.71 215.988 199.391C215.086 198.461 213.573 196.962 211.449 194.893C209.326 192.814 207.881 191.393 207.115 190.627C207.106 190.618 207.001 190.513 206.801 190.312C206.6 190.112 206.345 189.857 206.035 189.547C205.725 189.228 205.393 188.891 205.037 188.535C204.682 188.171 204.303 187.788 203.902 187.387C203.501 186.986 203.15 186.635 202.85 186.334C202.403 185.887 201.902 185.664 201.346 185.664C201.027 185.664 200.735 185.751 200.471 185.924C199.559 186.544 198.785 187.437 198.146 188.604C197.518 189.761 197.203 190.891 197.203 191.994ZM2.24219 212.906H15.1211C16.1055 212.906 17.0124 213.007 17.8418 213.207C18.6803 213.408 19.3913 213.672 19.9746 214C20.5671 214.328 21.0911 214.72 21.5469 215.176C22.0117 215.622 22.3854 216.087 22.668 216.57C22.9505 217.044 23.1829 217.55 23.3652 218.088C23.5566 218.617 23.6842 219.109 23.748 219.564C23.821 220.02 23.8574 220.462 23.8574 220.891C23.8574 221.319 23.821 221.761 23.748 222.217C23.6842 222.673 23.5566 223.165 23.3652 223.693C23.1829 224.222 22.9505 224.728 22.668 225.211C22.3854 225.685 22.0117 226.15 21.5469 226.605C21.0911 227.052 20.5671 227.439 19.9746 227.768C19.3913 228.096 18.6803 228.36 17.8418 228.561C17.0124 228.761 16.1055 228.861 15.1211 228.861H4.48438V240.906H2.24219V212.906ZM4.48438 226.906C4.48438 227.326 4.61198 227.663 4.86719 227.918C5.1224 228.173 5.45964 228.301 5.87891 228.301H12.6602C15.4219 228.301 17.5319 227.649 18.9902 226.346C20.4577 225.033 21.1914 223.215 21.1914 220.891C21.1914 218.566 20.4577 216.743 18.9902 215.422C17.5319 214.1 15.4219 213.439 12.6602 213.439C11.8398 213.439 10.5957 213.444 8.92773 213.453C7.25977 213.462 6.27083 213.467 5.96094 213.467C5.43229 213.467 5.05404 213.604 4.82617 213.877C4.59831 214.141 4.48438 214.638 4.48438 215.367V226.906ZM40.7422 241.467C39.2109 241.467 37.7389 241.243 36.3262 240.797C34.9225 240.35 33.6419 239.703 32.4844 238.855C31.3359 237.999 30.3333 236.987 29.4766 235.82C28.6198 234.645 27.9544 233.296 27.4805 231.773C27.0065 230.242 26.7695 228.62 26.7695 226.906C26.7695 225.193 27.0065 223.575 27.4805 222.053C27.9544 220.521 28.6198 219.173 29.4766 218.006C30.3333 216.83 31.3359 215.818 32.4844 214.971C33.6419 214.114 34.9225 213.462 36.3262 213.016C37.7389 212.569 39.2109 212.346 40.7422 212.346C42.6562 212.346 44.4655 212.701 46.1699 213.412C47.8835 214.114 49.3691 215.089 50.627 216.338C51.8939 217.587 52.8965 219.127 53.6348 220.959C54.373 222.791 54.7422 224.773 54.7422 226.906C54.7422 229.039 54.373 231.021 53.6348 232.854C52.8965 234.686 51.8939 236.226 50.627 237.475C49.3691 238.723 47.8835 239.703 46.1699 240.414C44.4655 241.116 42.6562 241.467 40.7422 241.467ZM29.9277 221.191C29.3171 222.951 29.0117 224.855 29.0117 226.906C29.0117 228.957 29.3171 230.862 29.9277 232.621C30.5475 234.38 31.3861 235.861 32.4434 237.064C33.5007 238.268 34.7448 239.211 36.1758 239.895C37.6159 240.569 39.138 240.906 40.7422 240.906C42.3464 240.906 43.8685 240.569 45.3086 239.895C46.7487 239.211 47.9974 238.268 49.0547 237.064C50.1211 235.861 50.9642 234.38 51.584 232.621C52.2038 230.862 52.5137 228.957 52.5137 226.906C52.5137 224.855 52.2038 222.951 51.584 221.191C50.9642 219.432 50.1211 217.951 49.0547 216.748C47.9974 215.545 46.7487 214.606 45.3086 213.932C43.8685 213.248 42.3464 212.906 40.7422 212.906C39.138 212.906 37.6159 213.248 36.1758 213.932C34.7448 214.606 33.5007 215.545 32.4434 216.748C31.3861 217.951 30.5475 219.432 29.9277 221.191ZM77.7793 240.906H58.3789V212.906H60.5938V238.445C60.5938 239.174 60.7077 239.676 60.9355 239.949C61.1634 240.214 61.5417 240.346 62.0703 240.346C64.6042 240.346 67.4935 240.145 70.7383 239.744C73.9922 239.343 76.3392 238.901 77.7793 238.418V240.906ZM81.2656 240.906V212.906H83.5078V240.906H81.2656ZM87.8555 231.773C87.3815 230.242 87.1445 228.62 87.1445 226.906C87.1445 225.193 87.3815 223.575 87.8555 222.053C88.3294 220.521 88.9948 219.173 89.8516 218.006C90.7083 216.83 91.7109 215.818 92.8594 214.971C94.0169 214.114 95.2975 213.462 96.7012 213.016C98.1139 212.569 99.5859 212.346 101.117 212.346C102.411 212.346 103.674 212.464 104.904 212.701C106.144 212.938 107.27 213.275 108.281 213.713C109.302 214.15 110.122 214.725 110.742 215.436C111.362 216.146 111.672 216.935 111.672 217.801C111.672 218.102 111.626 218.361 111.535 218.58C111.453 218.79 111.348 218.945 111.221 219.045C111.102 219.136 110.979 219.209 110.852 219.264C110.733 219.309 110.633 219.332 110.551 219.332L110.414 219.346C110.305 218.571 109.981 217.796 109.443 217.021C108.906 216.247 108.227 215.559 107.406 214.957C106.595 214.346 105.633 213.854 104.521 213.48C103.41 213.098 102.275 212.906 101.117 212.906C99.513 212.906 97.9909 213.248 96.5508 213.932C95.1198 214.606 93.8757 215.545 92.8184 216.748C91.7611 217.951 90.9225 219.432 90.3027 221.191C89.6921 222.951 89.3867 224.855 89.3867 226.906C89.3867 228.957 89.6921 230.862 90.3027 232.621C90.9225 234.38 91.7611 235.861 92.8184 237.064C93.8757 238.268 95.1198 239.211 96.5508 239.895C97.9909 240.569 99.513 240.906 101.117 240.906C102.174 240.906 103.245 240.733 104.33 240.387C105.424 240.04 106.431 239.576 107.352 238.992C108.272 238.4 109.115 237.748 109.881 237.037C110.656 236.317 111.321 235.561 111.877 234.768V237.912C111.193 238.942 109.831 239.794 107.789 240.469C105.747 241.134 103.523 241.467 101.117 241.467C99.5859 241.467 98.1139 241.243 96.7012 240.797C95.2975 240.35 94.0169 239.703 92.8594 238.855C91.7109 237.999 90.7083 236.987 89.8516 235.82C88.9948 234.645 88.3294 233.296 87.8555 231.773ZM115.5 240.906V212.906H117.742V240.906H115.5ZM122.227 240.906V212.906H141.627V215.395C140.187 214.911 137.84 214.469 134.586 214.068C131.341 213.667 128.452 213.467 125.918 213.467C125.389 213.467 125.011 213.604 124.783 213.877C124.555 214.141 124.441 214.638 124.441 215.367V224.213C124.441 224.632 124.569 224.974 124.824 225.238C125.079 225.493 125.417 225.621 125.836 225.621H138.879V227.973C137.202 227.562 134.996 227.18 132.262 226.824C129.527 226.469 127.395 226.291 125.863 226.291C125.435 226.291 125.093 226.396 124.838 226.605C124.592 226.815 124.469 227.12 124.469 227.521L124.441 238.445C124.441 239.174 124.555 239.676 124.783 239.949C125.011 240.214 125.389 240.346 125.918 240.346C128.452 240.346 131.341 240.145 134.586 239.744C137.84 239.343 140.187 238.901 141.627 238.418V240.906H122.227ZM143.732 235C143.732 234.271 143.933 233.669 144.334 233.195C144.744 232.721 145.232 232.484 145.797 232.484C146.243 232.484 146.645 232.639 147 232.949C146.253 233.204 145.879 233.824 145.879 234.809C145.879 235.802 146.316 236.773 147.191 237.721C148.066 238.66 149.233 239.425 150.691 240.018C152.159 240.61 153.69 240.906 155.285 240.906C156.26 240.906 157.199 240.815 158.102 240.633C159.004 240.441 159.842 240.154 160.617 239.771C161.401 239.389 162.08 238.924 162.654 238.377C163.229 237.83 163.68 237.174 164.008 236.408C164.336 235.643 164.5 234.809 164.5 233.906C164.5 233.186 164.395 232.535 164.186 231.951C163.985 231.368 163.73 230.871 163.42 230.461C163.11 230.051 162.682 229.682 162.135 229.354C161.597 229.016 161.077 228.747 160.576 228.547C160.084 228.337 159.455 228.141 158.689 227.959C157.933 227.777 157.268 227.635 156.693 227.535C156.119 227.435 155.404 227.316 154.547 227.18C153.781 227.061 153.202 226.97 152.811 226.906C152.419 226.842 151.872 226.738 151.17 226.592C150.468 226.446 149.926 226.314 149.543 226.195C149.16 226.068 148.682 225.895 148.107 225.676C147.533 225.457 147.087 225.229 146.768 224.992C146.449 224.755 146.098 224.464 145.715 224.117C145.332 223.771 145.04 223.402 144.84 223.01C144.648 222.609 144.484 222.144 144.348 221.615C144.211 221.087 144.143 220.517 144.143 219.906C144.143 218.849 144.361 217.892 144.799 217.035C145.236 216.169 145.815 215.454 146.535 214.889C147.264 214.314 148.112 213.831 149.078 213.439C150.053 213.048 151.056 212.77 152.086 212.605C153.116 212.432 154.173 212.346 155.258 212.346C156.188 212.346 157.117 212.4 158.047 212.51C158.977 212.619 159.897 212.801 160.809 213.057C161.729 213.303 162.54 213.608 163.242 213.973C163.944 214.337 164.509 214.802 164.938 215.367C165.375 215.932 165.594 216.557 165.594 217.24C165.594 218.225 165.22 218.844 164.473 219.1C164.208 217.833 163.598 216.725 162.641 215.777C161.693 214.829 160.535 214.114 159.168 213.631C157.81 213.148 156.352 212.906 154.793 212.906C152.104 212.906 149.99 213.503 148.449 214.697C146.909 215.882 146.139 217.573 146.139 219.77C146.139 220.326 146.239 220.827 146.439 221.273C146.649 221.72 146.964 222.103 147.383 222.422C147.811 222.741 148.262 223.014 148.736 223.242C149.219 223.47 149.821 223.675 150.541 223.857C151.261 224.04 151.926 224.19 152.537 224.309C153.157 224.427 153.904 224.564 154.779 224.719C155.609 224.855 156.238 224.965 156.666 225.047C157.094 225.129 157.701 225.257 158.484 225.43C159.268 225.594 159.879 225.753 160.316 225.908C160.754 226.054 161.296 226.255 161.943 226.51C162.59 226.765 163.101 227.029 163.475 227.303C163.848 227.576 164.254 227.913 164.691 228.314C165.138 228.715 165.475 229.144 165.703 229.6C165.931 230.055 166.122 230.584 166.277 231.186C166.441 231.787 166.523 232.434 166.523 233.127C166.523 234.239 166.314 235.26 165.895 236.189C165.475 237.11 164.906 237.894 164.186 238.541C163.465 239.179 162.622 239.721 161.656 240.168C160.699 240.615 159.683 240.943 158.607 241.152C157.532 241.362 156.424 241.467 155.285 241.467C153.025 241.467 151.015 241.198 149.256 240.66C147.506 240.113 146.148 239.352 145.182 238.377C144.215 237.393 143.732 236.267 143.732 235Z" fill="#383637"/>
<path d="M0.352 276.906L4.992 265.706H5.92L10.56 276.906H9.536L8.368 274.09H2.544L1.392 276.906H0.352ZM2.928 273.194H8L5.456 267.034L2.928 273.194ZM15.7926 277.114C13.3126 277.114 11.5686 275.306 11.5686 272.762C11.5686 270.218 13.3126 268.426 15.7926 268.426C17.7606 268.426 19.3766 269.594 19.8566 271.386H18.9126C18.3686 270.074 17.2166 269.322 15.7926 269.322C13.8406 269.322 12.4966 270.73 12.4966 272.762C12.4966 274.81 13.8406 276.218 15.7926 276.218C17.3126 276.218 18.4966 275.37 18.9606 274.01H19.9366C19.3766 275.946 17.8246 277.114 15.7926 277.114ZM22.4605 276.906V265.066H23.3885V272.266H24.6045C26.1405 272.266 26.8125 271.866 27.3405 270.474L28.0445 268.634H29.0365L28.2045 270.826C27.8365 271.754 27.4045 272.346 26.7485 272.698L29.4365 276.906H28.3325L25.8845 273.018C25.5005 273.098 25.0685 273.13 24.5725 273.13H23.3885V276.906H22.4605ZM31.7261 276.906V268.634H32.5101L32.5901 270.234C33.2461 269.05 34.3981 268.426 35.7261 268.426C37.8861 268.426 39.2141 269.946 39.2141 272.33V276.906H38.2861V272.41C38.2861 270.506 37.2621 269.322 35.6141 269.322C33.8701 269.322 32.6541 270.65 32.6541 272.618V276.906H31.7261ZM45.9675 277.114C43.4075 277.114 41.6155 275.322 41.6155 272.762C41.6155 270.218 43.4075 268.426 45.9675 268.426C48.5115 268.426 50.3035 270.218 50.3035 272.762C50.3035 275.322 48.5115 277.114 45.9675 277.114ZM42.5435 272.762C42.5435 274.81 43.9355 276.218 45.9675 276.218C47.9835 276.218 49.3755 274.81 49.3755 272.762C49.3755 270.73 47.9835 269.322 45.9675 269.322C43.9355 269.322 42.5435 270.73 42.5435 272.762ZM54.2499 276.906L51.2739 268.634H52.2659L54.7139 275.514L55.8819 272.506L57.3699 268.634H58.2339L59.7379 272.506L60.9059 275.514L63.3699 268.634H64.3459L61.3539 276.906H60.4579L59.0339 273.21L57.8019 269.994L55.1459 276.906H54.2499ZM66.3511 276.906V265.066H67.2791V276.906H66.3511ZM74.0739 277.114C71.5619 277.114 69.8499 275.338 69.8499 272.762C69.8499 270.202 71.5779 268.426 74.0899 268.426C76.6979 268.426 78.3779 270.346 78.3139 273.146H70.7939C70.9539 275.018 72.2339 276.234 74.0739 276.234C75.4179 276.234 76.4899 275.61 77.0339 274.538L78.0739 274.554C77.4339 276.138 75.9299 277.114 74.0739 277.114ZM70.7939 272.33H77.4019C77.1779 270.458 75.8979 269.306 74.0899 269.306C72.2499 269.306 70.9539 270.506 70.7939 272.33ZM84.3711 277.114C81.8751 277.114 80.1311 275.274 80.1311 272.762C80.1311 270.25 81.8751 268.426 84.3711 268.426C85.8911 268.426 87.1231 269.098 87.8591 270.17V265.066H88.7871V276.906H88.0191L87.9071 275.274C87.1871 276.41 85.9231 277.114 84.3711 277.114ZM81.0591 272.762C81.0591 274.794 82.4511 276.218 84.4831 276.218C86.4991 276.218 87.8911 274.794 87.8911 272.762C87.8911 270.746 86.4991 269.322 84.4831 269.322C82.4511 269.322 81.0591 270.746 81.0591 272.762ZM95.7175 280.314C93.6855 280.314 92.1815 279.242 91.8615 277.562H92.8055C93.0775 278.714 94.1975 279.434 95.7175 279.434C97.6215 279.434 98.8375 278.314 98.8375 276.538V275.194C98.1015 276.202 96.9175 276.81 95.5095 276.81C93.0935 276.81 91.3655 275.05 91.3655 272.618C91.3655 270.186 93.0935 268.426 95.5095 268.426C96.9655 268.426 98.1655 269.066 98.9015 270.122L98.9815 268.634H99.7655V276.57C99.7655 278.794 98.1335 280.314 95.7175 280.314ZM92.2935 272.618C92.2935 274.554 93.6535 275.898 95.6055 275.898C97.5415 275.898 98.9015 274.554 98.9015 272.618C98.9015 270.682 97.5415 269.322 95.6055 269.322C93.6535 269.322 92.2935 270.682 92.2935 272.618ZM106.558 277.114C104.046 277.114 102.334 275.338 102.334 272.762C102.334 270.202 104.062 268.426 106.574 268.426C109.182 268.426 110.862 270.346 110.798 273.146H103.278C103.438 275.018 104.718 276.234 106.558 276.234C107.902 276.234 108.974 275.61 109.518 274.538L110.558 274.554C109.918 276.138 108.414 277.114 106.558 277.114ZM103.278 272.33H109.886C109.662 270.458 108.382 269.306 106.574 269.306C104.734 269.306 103.438 270.506 103.278 272.33ZM113.336 276.906V268.634H114.12L114.2 269.978C114.776 268.97 115.784 268.426 117.064 268.426C118.504 268.426 119.608 269.146 120.088 270.41C120.648 269.146 121.784 268.426 123.24 268.426C125.32 268.426 126.664 269.85 126.664 272.154V276.906H125.736V272.298C125.736 270.458 124.712 269.322 123.128 269.322C121.512 269.322 120.456 270.49 120.456 272.362V276.906H119.528V272.298C119.528 270.458 118.52 269.322 116.936 269.322C115.32 269.322 114.264 270.49 114.264 272.362V276.906H113.336ZM133.277 277.114C130.765 277.114 129.053 275.338 129.053 272.762C129.053 270.202 130.781 268.426 133.293 268.426C135.901 268.426 137.581 270.346 137.517 273.146H129.997C130.157 275.018 131.437 276.234 133.277 276.234C134.621 276.234 135.693 275.61 136.237 274.538L137.277 274.554C136.637 276.138 135.133 277.114 133.277 277.114ZM129.997 272.33H136.605C136.381 270.458 135.101 269.306 133.293 269.306C131.453 269.306 130.157 270.506 129.997 272.33ZM140.054 276.906V268.634H140.838L140.918 270.234C141.574 269.05 142.726 268.426 144.054 268.426C146.214 268.426 147.542 269.946 147.542 272.33V276.906H146.614V272.41C146.614 270.506 145.59 269.322 143.942 269.322C142.198 269.322 140.982 270.65 140.982 272.618V276.906H140.054ZM153.758 276.906C151.998 276.906 151.054 275.914 151.054 274.042V269.482H149.246V268.634H150.302C150.926 268.634 151.102 268.474 151.166 267.866L151.246 266.602H151.982V268.634H154.846V269.482H151.982V274.01C151.982 275.37 152.542 276.01 153.79 276.01H154.958V276.906H153.758ZM164.702 277.114C162.43 277.114 161.022 276.01 161.022 274.186C161.022 272.81 161.822 271.77 163.486 271.018C162.51 269.946 161.934 269.05 161.934 268.042C161.934 266.522 163.198 265.498 165.054 265.498C166.926 265.498 168.19 266.57 168.19 268.122C168.19 269.514 167.214 270.522 165.07 271.338L168.094 274.442C168.542 273.674 168.782 272.682 168.798 271.482H169.726C169.71 272.97 169.39 274.202 168.766 275.13L170.51 276.906H169.262L168.206 275.818C167.358 276.666 166.174 277.114 164.702 277.114ZM161.95 274.17C161.95 275.45 163.006 276.218 164.718 276.218C165.902 276.218 166.862 275.85 167.534 275.162L164.142 271.69C162.67 272.298 161.95 273.13 161.95 274.17ZM162.846 268.042C162.846 268.746 163.278 269.466 164.414 270.666C166.462 269.882 167.278 269.162 167.278 268.122C167.278 267.05 166.414 266.362 165.054 266.362C163.71 266.362 162.846 267.018 162.846 268.042ZM175.04 276.906L179.68 265.706H180.608L185.248 276.906H184.224L183.056 274.09H177.232L176.08 276.906H175.04ZM177.616 273.194H182.688L180.144 267.034L177.616 273.194ZM190.608 280.314C188.576 280.314 187.072 279.242 186.752 277.562H187.696C187.968 278.714 189.088 279.434 190.608 279.434C192.512 279.434 193.728 278.314 193.728 276.538V275.194C192.992 276.202 191.808 276.81 190.4 276.81C187.984 276.81 186.256 275.05 186.256 272.618C186.256 270.186 187.984 268.426 190.4 268.426C191.856 268.426 193.056 269.066 193.792 270.122L193.872 268.634H194.656V276.57C194.656 278.794 193.024 280.314 190.608 280.314ZM187.184 272.618C187.184 274.554 188.544 275.898 190.496 275.898C192.432 275.898 193.792 274.554 193.792 272.618C193.792 270.682 192.432 269.322 190.496 269.322C188.544 269.322 187.184 270.682 187.184 272.618ZM197.945 276.906V268.634H198.729L198.825 270.49C199.385 269.242 200.329 268.634 201.865 268.634H202.553V269.498H201.833C200.057 269.498 198.873 270.586 198.873 273.098V276.906H197.945ZM207.746 277.114C205.234 277.114 203.522 275.338 203.522 272.762C203.522 270.202 205.25 268.426 207.762 268.426C210.37 268.426 212.05 270.346 211.986 273.146H204.466C204.626 275.018 205.906 276.234 207.746 276.234C209.09 276.234 210.162 275.61 210.706 274.538L211.746 274.554C211.106 276.138 209.602 277.114 207.746 277.114ZM204.466 272.33H211.074C210.85 270.458 209.57 269.306 207.762 269.306C205.922 269.306 204.626 270.506 204.466 272.33ZM218.027 277.114C215.515 277.114 213.803 275.338 213.803 272.762C213.803 270.202 215.531 268.426 218.043 268.426C220.651 268.426 222.331 270.346 222.267 273.146H214.747C214.907 275.018 216.187 276.234 218.027 276.234C219.371 276.234 220.443 275.61 220.987 274.538L222.027 274.554C221.387 276.138 219.883 277.114 218.027 277.114ZM214.747 272.33H221.355C221.131 270.458 219.851 269.306 218.043 269.306C216.203 269.306 214.907 270.506 214.747 272.33ZM224.804 276.906V268.634H225.588L225.668 269.978C226.244 268.97 227.252 268.426 228.532 268.426C229.972 268.426 231.076 269.146 231.556 270.41C232.116 269.146 233.252 268.426 234.708 268.426C236.788 268.426 238.132 269.85 238.132 272.154V276.906H237.204V272.298C237.204 270.458 236.18 269.322 234.596 269.322C232.98 269.322 231.924 270.49 231.924 272.362V276.906H230.996V272.298C230.996 270.458 229.988 269.322 228.404 269.322C226.788 269.322 225.732 270.49 225.732 272.362V276.906H224.804ZM244.746 277.114C242.234 277.114 240.522 275.338 240.522 272.762C240.522 270.202 242.25 268.426 244.762 268.426C247.37 268.426 249.05 270.346 248.986 273.146H241.466C241.626 275.018 242.906 276.234 244.746 276.234C246.09 276.234 247.162 275.61 247.706 274.538L248.746 274.554C248.106 276.138 246.602 277.114 244.746 277.114ZM241.466 272.33H248.074C247.85 270.458 246.57 269.306 244.762 269.306C242.922 269.306 241.626 270.506 241.466 272.33ZM251.523 276.906V268.634H252.307L252.387 270.234C253.043 269.05 254.195 268.426 255.523 268.426C257.683 268.426 259.011 269.946 259.011 272.33V276.906H258.083V272.41C258.083 270.506 257.059 269.322 255.411 269.322C253.667 269.322 252.451 270.65 252.451 272.618V276.906H251.523ZM265.227 276.906C263.467 276.906 262.523 275.914 262.523 274.042V269.482H260.715V268.634H261.771C262.395 268.634 262.571 268.474 262.635 267.866L262.715 266.602H263.451V268.634H266.315V269.482H263.451V274.01C263.451 275.37 264.011 276.01 265.259 276.01H266.427V276.906H265.227Z" fill="#5B5852"/>
</svg>
