<svg width="366" height="283" viewBox="0 0 366 283" fill="none" xmlns="http://www.w3.org/2000/svg">
<path d="M39.9453 0.321289C39.6338 1.16044 39.3391 1.99171 39.0156 2.74316C37.3342 6.65348 35.4723 10.4771 33.9385 14.4443C32.7574 17.4977 31.6991 20.6355 30.6328 23.7188C31.3354 23.7132 31.259 22.7499 31.4941 22.2021C31.6174 21.9172 32.0982 21.1689 32.3633 21.0469C32.7734 20.8598 33.5277 21.1803 33.4648 21.625C32.642 23.5828 32.2598 25.6845 31.5244 27.6748C30.9011 29.3615 30.3349 31.0402 29.7197 32.7432C27.8688 37.8601 25.5552 42.9445 23.8164 48.0615C21.3449 55.337 19.42 62.8133 16.6504 69.9912C15.4803 73.0229 14.8241 76.0493 13.8535 79.1162C13.2794 80.9276 12.3035 83.3685 12.041 85.1826C11.9864 85.5649 12.0908 85.9961 12.0088 86.3594C11.954 86.5953 11.5984 87.029 11.4727 87.3408C10.7727 89.0872 10.0205 92.7534 9.71973 94.6787C9.63498 95.2237 9.64093 96.753 9.46875 97.0488C9.30749 97.3226 9.13502 97.2523 9.08301 96.9678C8.99552 96.477 9.04434 95.0989 9.07715 94.543C9.17013 93.0326 9.56976 91.4976 9.78027 89.998C9.94699 88.8106 9.85908 88.6555 10.3184 87.5059C10.7776 86.3535 10.9012 85.4557 11.1035 84.249C12.2136 77.5973 14.6663 71.7294 16.375 65.2783C16.6949 64.0662 17.2227 62.3848 17.3184 61.1699C17.3266 61.0587 17.3944 60.7961 17.2197 60.8203C15.0243 69.0448 11.8476 76.9819 9.62207 85.1982C8.86474 87.9995 8.15387 90.8419 7.86133 93.7354C7.81217 94.2153 7.91834 94.7605 7.85547 95.2432C7.78431 95.7935 7.47853 96.4821 7.38281 97.0947C7.0192 99.4647 7.0871 103.687 7.98926 105.916C8.77393 107.855 9.73689 107.977 11.1641 109.219C11.6341 109.628 12.2528 110.357 12.9062 110.906H0V45.7666C0 22.4516 17.4142 3.20438 39.9453 0.321289ZM50.0527 77.2129C50.1184 77.137 50.441 76.6321 50.5586 76.7568C47.7972 82.1179 45.3284 87.7611 44.1035 93.6943C42.9005 99.5164 43.056 103.598 45.9678 108.889C46.3353 109.556 46.9382 110.255 47.6699 110.906H16.7666C18.7844 110.166 21.1762 109.112 22.8105 108.159C23.1084 107.986 24.3901 107.129 24.4922 106.896C24.5441 106.776 24.2899 106.675 24.3418 106.461C24.4214 106.133 25.1152 105.767 25.293 105.577C25.6483 105.198 25.8808 104.696 26.3125 104.271C26.5886 103.997 27.7477 103.018 28.0488 102.969C28.8827 102.833 30.157 103.831 30.1133 102.627C29.1618 102.041 29.5202 101.447 30.5127 101.371C30.7918 101.35 31.6414 101.821 31.5107 101.149C31.3494 100.32 31.1636 100.29 31.9072 99.6416C33.1402 98.5678 35.1169 97.4341 35.4014 95.6445C35.4369 95.4141 35.2016 95.2215 35.5186 94.9531C36.3169 94.2779 37.894 95.0664 38.3916 93.6699C38.4709 93.4503 38.4463 93.1356 38.5557 92.9512C38.6186 92.8454 38.8569 92.7883 38.9717 92.6338C39.3732 92.0832 39.0835 90.8335 39.1709 90.1611L38.5615 90.0088L39.1191 89.5586C39.3267 89.6426 39.2399 90.0244 39.2725 90.0576C39.3244 90.1119 39.8578 90.0332 39.959 89.9355C40.0385 89.855 40.234 89.2001 40.1855 89.1553H39.7285C39.5344 88.8109 40.0708 88.6075 40.2295 88.3418C40.3498 88.1385 40.355 87.8671 40.4697 87.6719C41.197 86.4489 42.4302 85.9171 43.3379 84.9707C43.6058 84.6914 43.756 84.3361 44.0977 84.0107C44.2917 83.8264 44.6309 83.6939 44.7568 83.5557C44.94 83.3523 44.9129 83.0536 45.0469 82.834C45.7523 81.6599 47.4198 80.4534 48.374 79.377C48.9755 78.6964 49.465 77.9071 50.0527 77.2129ZM47.9854 0C72.2842 1.13123 91.6377 21.188 91.6377 45.7666V110.906H62.749C63.428 110.409 63.8634 109.705 64.5977 109.181C65.6665 108.419 66.9378 108.08 67.9766 107.392C74.2649 103.21 80.7424 96.9481 85.6309 91.2236C87.438 89.1085 90.2399 86.0147 91.123 83.4658C91.3773 82.7337 91.6917 81.9826 91.6289 81.1963L91.6348 81.1904C91.4926 81.1796 91.3584 81.1902 91.2217 81.2363C90.8362 81.3719 88.4033 84.0919 87.9219 84.6182C82.2706 90.7873 77.1112 97.8434 69.9727 102.407C66.2571 104.783 62.4297 106.35 58.3916 108.062C56.579 108.829 52.9811 109.308 51.0508 108.988C49.2819 108.695 48.716 108.46 48.2539 106.719C47.8875 105.341 47.3264 102.261 47.3154 100.886C47.31 100.04 47.7477 98.9331 47.9062 98.0654C49.2624 90.5947 52.9266 81.6701 57.249 75.3682C59.2202 72.4913 61.178 70.7337 63.5264 68.2852C64.4858 67.2846 65.2291 66.0833 66.1641 65.0557C68.0751 62.9568 70.3718 61.2349 72.7285 59.6621L72.9502 59.6299C73.713 59.9905 74.4239 60.0558 74.957 60.7744C76.8786 63.3614 72.8762 67.1357 71.583 69.2236C71.4135 69.5599 71.3731 70.0757 71.6328 70.374C71.7726 70.5364 72.2417 70.6796 72.4658 70.7041C73.0973 70.7746 75.0087 70.7914 75.6104 70.6992C77.2945 70.4389 79.4707 66.0971 79.6895 64.5596C80.2854 60.3647 77.3085 57.5312 73.3525 56.9209C71.7834 56.6796 71.7937 56.994 70.5283 57.1865C68.8469 57.4441 68.0943 57.0377 66.3828 58.0166C62.7247 60.1156 57.8578 65.3436 55.3535 68.7549C54.0249 70.5662 53.0904 72.7115 51.625 74.333C50.5615 75.5126 49.3366 76.5809 48.2676 77.7578C46.4221 79.7916 44.7673 82.0095 42.8809 84.0107C41.3006 85.692 39.4257 87.2436 37.8975 88.9492C34.696 92.5205 31.8002 95.4244 28.041 98.4316C27.2563 99.0581 26.6081 99.8472 25.8535 100.498C23.2809 102.708 19.9129 105.255 16.9355 106.879C15.6123 107.6 14.1849 108.646 13.3701 106.824C12.5583 105.004 12.7682 100.744 12.9404 98.6836C13.0171 97.7673 13.4496 96.9052 13.5371 95.9482C13.6574 94.6385 13.5479 93.6317 13.9307 92.3057C14.286 91.0776 14.521 90.3237 14.7998 89.0332C15.2919 86.7581 16.0161 85.1254 16.6504 83.0049C17.7549 79.3142 18.5732 75.4827 19.8555 71.8652C21.9743 65.8861 23.7152 59.7791 25.8477 53.8135C28.5325 46.3075 31.683 38.9531 34.417 31.458C35.2481 29.1748 36.1558 26.9319 37.0088 24.6514C38.9035 19.5723 40.8413 14.4411 43.25 9.56543C44.2233 7.59137 45.399 6.17859 46.4707 4.3916C46.8665 3.73277 47.6789 1.32218 47.9854 0ZM8.88867 99.9854H8.8916L8.58301 100.04C8.38895 99.7039 8.60436 99.3915 8.98145 99.3398L8.88867 99.9854ZM37.0908 91.4736C37.2136 91.4086 37.2818 91.3355 37.4482 91.376C37.4018 91.7013 37.5632 92.2946 37.3477 92.5361L37.1641 92.6699C36.8562 92.8839 36.271 93.273 36.1992 93.3096C35.8958 93.4641 35.5509 93.5183 35.2119 93.4912C34.9774 93.282 36.8229 91.6119 37.0908 91.4736ZM47.4385 87.3135C47.2581 87.7934 46.873 86.7859 47.4111 86.8369L47.4385 87.3135ZM47.7207 85.2256C47.9665 85.1797 48.0021 85.4263 48.125 85.5781H48.1221L47.9717 85.7275L47.7314 85.5645L47.7207 85.2256ZM48.4287 83.3086C48.5244 83.2463 48.7645 83.3306 48.8301 83.458L48.4775 84.1113C48.2126 84.0297 48.3713 83.3436 48.4287 83.3057V83.3086ZM50.46 79.9814C50.4846 80.3584 50.4815 80.9518 49.9512 80.8867C49.9293 80.461 49.9187 79.9815 50.46 79.9814ZM51.2666 77.9229C51.286 77.8229 51.5444 77.8499 51.5752 77.8662C51.7801 77.999 51.5594 78.5652 51.3271 78.666C51.0565 78.4708 51.19 78.164 51.2666 77.9199V77.9229ZM53.3086 74.5361C53.2813 74.8588 53.4396 75.092 53.3467 75.4229C53.2236 75.8648 52.6884 76.2196 52.5381 75.6475C52.4539 75.3272 53.1908 74.3957 53.3086 74.5361ZM35.2891 13.8584C36.1035 13.6905 35.9966 14.6499 35.4443 14.7285C34.843 14.815 34.6439 13.9913 35.2891 13.8584ZM36.7402 11.8223C36.5762 11.1226 36.4427 10.2845 37.457 10.5557C37.7604 11.117 37.4155 11.8412 36.7402 11.8223Z" fill="#E0DCD0"/>
<path d="M4.59375 162.906H2.24219V134.906H4.53906L13.7812 152.215C13.9727 152.589 14.1868 152.775 14.4238 152.775C14.6426 152.775 14.8477 152.579 15.0391 152.188L23.1328 134.906H25.7031V162.906H23.3516V137.955C23.3516 137.718 23.3197 137.536 23.2559 137.408C23.1921 137.271 23.11 137.203 23.0098 137.203C22.8548 137.203 22.6999 137.354 22.5449 137.654C22.3991 137.919 21.5924 139.614 20.125 142.74C18.6667 145.857 17.2402 148.911 15.8457 151.9L13.7539 156.385C7.34635 144.363 4.0013 138.119 3.71875 137.654C3.5638 137.354 3.39974 137.203 3.22656 137.203C3.1263 137.203 3.04427 137.271 2.98047 137.408C2.92578 137.545 2.90299 137.727 2.91211 137.955L4.59375 162.906ZM30.1875 162.906V134.906H32.4297V162.906H30.1875ZM36.9141 162.906V134.906H39.2109C44.3971 142.262 50.349 150.679 57.0664 160.158C57.2669 160.441 57.4447 160.582 57.5996 160.582C57.8184 160.582 57.9141 160.34 57.8867 159.857L56.2051 134.906H58.5566V162.906H56.3145C55.0931 161.184 52.4681 157.492 48.4395 151.832C44.4199 146.163 41.0703 141.437 38.3906 137.654C38.1901 137.372 38.0124 137.23 37.8574 137.23C37.6478 137.23 37.5566 137.472 37.584 137.955L39.2656 162.906H36.9141ZM76.1523 163.467C74.6211 163.467 73.1491 163.243 71.7363 162.797C70.3327 162.35 69.0521 161.703 67.8945 160.855C66.7461 159.999 65.7435 158.987 64.8867 157.82C64.0299 156.645 63.3646 155.296 62.8906 153.773C62.4167 152.242 62.1797 150.62 62.1797 148.906C62.1797 147.193 62.4167 145.575 62.8906 144.053C63.3646 142.521 64.0299 141.173 64.8867 140.006C65.7435 138.83 66.7461 137.818 67.8945 136.971C69.0521 136.114 70.3327 135.462 71.7363 135.016C73.1491 134.569 74.6211 134.346 76.1523 134.346C78.0664 134.346 79.8757 134.701 81.5801 135.412C83.2936 136.114 84.7793 137.089 86.0371 138.338C87.304 139.587 88.3066 141.127 89.0449 142.959C89.7832 144.791 90.1523 146.773 90.1523 148.906C90.1523 151.039 89.7832 153.021 89.0449 154.854C88.3066 156.686 87.304 158.226 86.0371 159.475C84.7793 160.723 83.2936 161.703 81.5801 162.414C79.8757 163.116 78.0664 163.467 76.1523 163.467ZM65.3379 143.191C64.7272 144.951 64.4219 146.855 64.4219 148.906C64.4219 150.957 64.7272 152.862 65.3379 154.621C65.9577 156.38 66.7962 157.861 67.8535 159.064C68.9108 160.268 70.1549 161.211 71.5859 161.895C73.026 162.569 74.5482 162.906 76.1523 162.906C77.7565 162.906 79.2786 162.569 80.7188 161.895C82.1589 161.211 83.4076 160.268 84.4648 159.064C85.5312 157.861 86.3743 156.38 86.9941 154.621C87.6139 152.862 87.9238 150.957 87.9238 148.906C87.9238 146.855 87.6139 144.951 86.9941 143.191C86.3743 141.432 85.5312 139.951 84.4648 138.748C83.4076 137.545 82.1589 136.606 80.7188 135.932C79.2786 135.248 77.7565 134.906 76.1523 134.906C74.5482 134.906 73.026 135.248 71.5859 135.932C70.1549 136.606 68.9108 137.545 67.8535 138.748C66.7962 139.951 65.9577 141.432 65.3379 143.191ZM93.7891 162.906V134.906H106.668C107.652 134.906 108.559 135.007 109.389 135.207C110.227 135.408 110.938 135.672 111.521 136C112.114 136.328 112.638 136.72 113.094 137.176C113.559 137.622 113.932 138.087 114.215 138.57C114.497 139.044 114.73 139.55 114.912 140.088C115.104 140.617 115.231 141.109 115.295 141.564C115.368 142.02 115.404 142.462 115.404 142.891C115.404 143.319 115.368 143.761 115.295 144.217C115.231 144.663 115.104 145.151 114.912 145.68C114.73 146.208 114.497 146.71 114.215 147.184C113.932 147.658 113.559 148.122 113.094 148.578C112.638 149.025 112.114 149.412 111.521 149.74C110.938 150.068 110.227 150.337 109.389 150.547C108.559 150.747 107.652 150.852 106.668 150.861H105.861C105.652 150.861 105.501 150.88 105.41 150.916C105.319 150.943 105.283 150.993 105.301 151.066C105.319 151.13 105.369 151.208 105.451 151.299C105.542 151.39 105.679 151.508 105.861 151.654C106.326 152.019 106.837 152.511 107.393 153.131C107.949 153.751 108.432 154.329 108.842 154.867C109.261 155.405 109.863 156.198 110.646 157.246C110.692 157.31 110.729 157.365 110.756 157.41C110.792 157.447 110.833 157.497 110.879 157.561C110.924 157.615 110.965 157.67 111.002 157.725C111.813 158.818 112.706 159.844 113.682 160.801C114.657 161.749 115.491 162.451 116.184 162.906H113.025C112.497 162.587 111.923 162.118 111.303 161.498C110.683 160.869 110.09 160.195 109.525 159.475C108.96 158.745 108.377 157.98 107.775 157.178C107.174 156.367 106.586 155.592 106.012 154.854C105.438 154.115 104.877 153.445 104.33 152.844C103.792 152.242 103.25 151.764 102.703 151.408C102.165 151.044 101.669 150.861 101.213 150.861H98.7109V150.301H104.207C106.969 150.301 109.079 149.649 110.537 148.346C112.005 147.033 112.738 145.215 112.738 142.891C112.738 140.566 112.005 138.748 110.537 137.436C109.079 136.123 106.969 135.467 104.207 135.467H97.4805C96.9336 135.467 96.5508 135.581 96.332 135.809C96.1133 136.036 96.0039 136.51 96.0039 137.23L96.0312 162.906H93.7891ZM127.395 134.906H140.273C141.258 134.906 142.165 135.007 142.994 135.207C143.833 135.408 144.544 135.672 145.127 136C145.719 136.328 146.243 136.72 146.699 137.176C147.164 137.622 147.538 138.087 147.82 138.57C148.103 139.044 148.335 139.55 148.518 140.088C148.709 140.617 148.837 141.109 148.9 141.564C148.973 142.02 149.01 142.462 149.01 142.891C149.01 143.319 148.973 143.761 148.9 144.217C148.837 144.673 148.709 145.165 148.518 145.693C148.335 146.222 148.103 146.728 147.82 147.211C147.538 147.685 147.164 148.15 146.699 148.605C146.243 149.052 145.719 149.439 145.127 149.768C144.544 150.096 143.833 150.36 142.994 150.561C142.165 150.761 141.258 150.861 140.273 150.861H129.637V162.906H127.395V134.906ZM129.637 148.906C129.637 149.326 129.764 149.663 130.02 149.918C130.275 150.173 130.612 150.301 131.031 150.301H137.812C140.574 150.301 142.684 149.649 144.143 148.346C145.61 147.033 146.344 145.215 146.344 142.891C146.344 140.566 145.61 138.743 144.143 137.422C142.684 136.1 140.574 135.439 137.812 135.439C136.992 135.439 135.748 135.444 134.08 135.453C132.412 135.462 131.423 135.467 131.113 135.467C130.585 135.467 130.206 135.604 129.979 135.877C129.751 136.141 129.637 136.638 129.637 137.367V148.906ZM149.064 162.906H146.604L156.146 136.219L155.559 134.906H158.033L170.516 162.906H168.055L166.004 158.34C165.566 157.355 164.846 156.48 163.844 155.715C162.85 154.94 161.775 154.361 160.617 153.979C159.46 153.587 158.343 153.391 157.268 153.391C155.417 153.391 153.69 153.969 152.086 155.127C151.785 155.346 151.484 155.71 151.184 156.221C150.892 156.722 150.682 157.205 150.555 157.67L149.064 162.906ZM152.113 152.297C151.977 152.798 152.027 153.049 152.264 153.049C152.382 153.049 152.587 152.976 152.879 152.83C153.973 152.229 155.158 151.928 156.434 151.928C157.701 151.928 158.977 152.201 160.262 152.748C161.556 153.286 162.764 154.01 163.885 154.922C164.204 155.186 164.404 155.286 164.486 155.223C164.568 155.159 164.523 154.94 164.35 154.566L157.131 138.379C156.967 137.987 156.789 137.791 156.598 137.791C156.397 137.791 156.229 138.014 156.092 138.461L152.113 152.297ZM165.553 134.906H187.113V137.395C186.065 136.939 184.598 136.506 182.711 136.096C180.833 135.676 179.576 135.467 178.938 135.467C178.409 135.467 178.026 135.604 177.789 135.877C177.561 136.141 177.447 136.638 177.447 137.367V162.906H175.205V137.367C175.205 136.638 175.091 136.141 174.863 135.877C174.635 135.604 174.257 135.467 173.729 135.467C173.09 135.467 171.828 135.676 169.941 136.096C168.064 136.506 166.601 136.939 165.553 137.395V134.906ZM191.023 162.906V134.906H193.266V162.906H191.023ZM197.75 162.906V134.906H217.15V137.395C215.71 136.911 213.363 136.469 210.109 136.068C206.865 135.667 203.975 135.467 201.441 135.467C200.913 135.467 200.535 135.604 200.307 135.877C200.079 136.141 199.965 136.638 199.965 137.367V146.213C199.965 146.632 200.092 146.974 200.348 147.238C200.603 147.493 200.94 147.621 201.359 147.621H214.402V149.973C212.725 149.562 210.52 149.18 207.785 148.824C205.051 148.469 202.918 148.291 201.387 148.291C200.958 148.291 200.617 148.396 200.361 148.605C200.115 148.815 199.992 149.12 199.992 149.521L199.965 160.445C199.965 161.174 200.079 161.676 200.307 161.949C200.535 162.214 200.913 162.346 201.441 162.346C203.975 162.346 206.865 162.145 210.109 161.744C213.363 161.343 215.71 160.901 217.15 160.418V162.906H197.75ZM221.074 162.906V134.906H223.371C228.557 142.262 234.509 150.679 241.227 160.158C241.427 160.441 241.605 160.582 241.76 160.582C241.979 160.582 242.074 160.34 242.047 159.857L240.365 134.906H242.717V162.906H240.475C239.253 161.184 236.628 157.492 232.6 151.832C228.58 146.163 225.23 141.437 222.551 137.654C222.35 137.372 222.173 137.23 222.018 137.23C221.808 137.23 221.717 137.472 221.744 137.955L223.426 162.906H221.074ZM246.627 134.906H268.188V137.395C267.139 136.939 265.672 136.506 263.785 136.096C261.908 135.676 260.65 135.467 260.012 135.467C259.483 135.467 259.1 135.604 258.863 135.877C258.635 136.141 258.521 136.638 258.521 137.367V162.906H256.279V137.367C256.279 136.638 256.165 136.141 255.938 135.877C255.71 135.604 255.331 135.467 254.803 135.467C254.165 135.467 252.902 135.676 251.016 136.096C249.138 136.506 247.675 136.939 246.627 137.395V134.906ZM280.205 163.467L288.531 134.346H289.119L280.793 163.467H280.205ZM2.10547 192.773C1.63151 191.242 1.39453 189.62 1.39453 187.906C1.39453 186.193 1.63151 184.575 2.10547 183.053C2.57943 181.521 3.24479 180.173 4.10156 179.006C4.95833 177.83 5.96094 176.818 7.10938 175.971C8.26693 175.114 9.54753 174.462 10.9512 174.016C12.3639 173.569 13.8359 173.346 15.3672 173.346C16.6615 173.346 17.9238 173.464 19.1543 173.701C20.3939 173.938 21.5195 174.275 22.5312 174.713C23.5521 175.15 24.3724 175.725 24.9922 176.436C25.612 177.146 25.9219 177.935 25.9219 178.801C25.9219 179.102 25.8763 179.361 25.7852 179.58C25.7031 179.79 25.5983 179.945 25.4707 180.045C25.3522 180.136 25.2292 180.209 25.1016 180.264C24.9831 180.309 24.8828 180.332 24.8008 180.332L24.6641 180.346C24.5547 179.571 24.2311 178.796 23.6934 178.021C23.1556 177.247 22.4766 176.559 21.6562 175.957C20.8451 175.346 19.8835 174.854 18.7715 174.48C17.6595 174.098 16.5247 173.906 15.3672 173.906C13.763 173.906 12.2409 174.248 10.8008 174.932C9.36979 175.606 8.12565 176.545 7.06836 177.748C6.01107 178.951 5.17253 180.432 4.55273 182.191C3.94206 183.951 3.63672 185.855 3.63672 187.906C3.63672 189.957 3.94206 191.862 4.55273 193.621C5.17253 195.38 6.01107 196.861 7.06836 198.064C8.12565 199.268 9.36979 200.211 10.8008 200.895C12.2409 201.569 13.763 201.906 15.3672 201.906C15.9961 201.906 16.6797 201.824 17.418 201.66C18.1562 201.487 18.8945 201.232 19.6328 200.895C20.3802 200.557 21.0547 200.161 21.6562 199.705C22.2669 199.249 22.7637 198.702 23.1465 198.064C23.5293 197.426 23.7207 196.757 23.7207 196.055V186.73H26.127V198.912C25.4434 199.942 24.0807 200.794 22.0391 201.469C19.9974 202.134 17.7734 202.467 15.3672 202.467C13.8359 202.467 12.3639 202.243 10.9512 201.797C9.54753 201.35 8.26693 200.703 7.10938 199.855C5.96094 198.999 4.95833 197.987 4.10156 196.82C3.24479 195.645 2.57943 194.296 2.10547 192.773ZM40.9883 202.467C39.4388 202.467 38.0488 202.312 36.8184 202.002C35.597 201.701 34.5762 201.286 33.7559 200.758C32.9447 200.229 32.2702 199.591 31.7324 198.844C31.2038 198.096 30.821 197.303 30.584 196.465C30.3561 195.617 30.2422 194.706 30.2422 193.73V173.906H32.4707C32.4342 183.176 32.416 188.503 32.416 189.889V194.906C32.416 195.717 32.5254 196.465 32.7441 197.148C32.972 197.823 33.2682 198.397 33.6328 198.871C33.9974 199.336 34.4303 199.755 34.9316 200.129C35.4329 200.493 35.9388 200.785 36.4492 201.004C36.9688 201.223 37.5156 201.405 38.0898 201.551C38.6641 201.688 39.1836 201.783 39.6484 201.838C40.1133 201.883 40.5599 201.906 40.9883 201.906C41.4531 201.906 41.8997 201.893 42.3281 201.865C42.7565 201.838 43.2669 201.77 43.8594 201.66C44.4609 201.551 45.0124 201.41 45.5137 201.236C46.015 201.063 46.5208 200.812 47.0312 200.484C47.5508 200.156 47.9883 199.778 48.3438 199.35C48.6992 198.912 48.9909 198.365 49.2188 197.709C49.4466 197.044 49.5605 196.305 49.5605 195.494V173.906H51.8027V198.488C50.8639 199.746 49.4329 200.726 47.5098 201.428C45.5957 202.12 43.4219 202.467 40.9883 202.467ZM57.0527 201.906H54.5918L64.1348 175.219L63.5469 173.906H66.0215L78.5039 201.906H76.043L73.9922 197.34C73.5547 196.355 72.8346 195.48 71.832 194.715C70.8385 193.94 69.763 193.361 68.6055 192.979C67.4479 192.587 66.3314 192.391 65.2559 192.391C63.4056 192.391 61.6784 192.969 60.0742 194.127C59.7734 194.346 59.4727 194.71 59.1719 195.221C58.8802 195.722 58.6706 196.205 58.543 196.67L57.0527 201.906ZM60.1016 191.297C59.9648 191.798 60.015 192.049 60.252 192.049C60.3704 192.049 60.5755 191.976 60.8672 191.83C61.9609 191.229 63.1458 190.928 64.4219 190.928C65.6888 190.928 66.9648 191.201 68.25 191.748C69.5443 192.286 70.752 193.01 71.873 193.922C72.1921 194.186 72.3926 194.286 72.4746 194.223C72.5566 194.159 72.5111 193.94 72.3379 193.566L65.1191 177.379C64.9551 176.987 64.7773 176.791 64.5859 176.791C64.3854 176.791 64.2168 177.014 64.0801 177.461L60.1016 191.297ZM80.8281 201.906V173.906H93.707C94.6914 173.906 95.5983 174.007 96.4277 174.207C97.2663 174.408 97.9772 174.672 98.5605 175C99.153 175.328 99.6771 175.72 100.133 176.176C100.598 176.622 100.971 177.087 101.254 177.57C101.536 178.044 101.769 178.55 101.951 179.088C102.143 179.617 102.27 180.109 102.334 180.564C102.407 181.02 102.443 181.462 102.443 181.891C102.443 182.319 102.407 182.761 102.334 183.217C102.27 183.663 102.143 184.151 101.951 184.68C101.769 185.208 101.536 185.71 101.254 186.184C100.971 186.658 100.598 187.122 100.133 187.578C99.6771 188.025 99.153 188.412 98.5605 188.74C97.9772 189.068 97.2663 189.337 96.4277 189.547C95.5983 189.747 94.6914 189.852 93.707 189.861H92.9004C92.6908 189.861 92.5404 189.88 92.4492 189.916C92.3581 189.943 92.3216 189.993 92.3398 190.066C92.3581 190.13 92.4082 190.208 92.4902 190.299C92.5814 190.39 92.7181 190.508 92.9004 190.654C93.3652 191.019 93.8757 191.511 94.4316 192.131C94.9876 192.751 95.4707 193.329 95.8809 193.867C96.3001 194.405 96.9017 195.198 97.6855 196.246C97.7311 196.31 97.7676 196.365 97.7949 196.41C97.8314 196.447 97.8724 196.497 97.918 196.561C97.9635 196.615 98.0046 196.67 98.041 196.725C98.8522 197.818 99.7454 198.844 100.721 199.801C101.696 200.749 102.53 201.451 103.223 201.906H100.064C99.5358 201.587 98.9616 201.118 98.3418 200.498C97.722 199.869 97.1296 199.195 96.5645 198.475C95.9993 197.745 95.416 196.98 94.8145 196.178C94.2129 195.367 93.625 194.592 93.0508 193.854C92.4766 193.115 91.916 192.445 91.3691 191.844C90.8314 191.242 90.2891 190.764 89.7422 190.408C89.2044 190.044 88.7077 189.861 88.252 189.861H85.75V189.301H91.2461C94.0078 189.301 96.1178 188.649 97.5762 187.346C99.0436 186.033 99.7773 184.215 99.7773 181.891C99.7773 179.566 99.0436 177.748 97.5762 176.436C96.1178 175.123 94.0078 174.467 91.2461 174.467H84.5195C83.9727 174.467 83.5898 174.581 83.3711 174.809C83.1523 175.036 83.043 175.51 83.043 176.23L83.0703 201.906H80.8281ZM106.039 173.906H114.885C116.735 173.906 118.476 174.257 120.107 174.959C121.748 175.661 123.156 176.627 124.332 177.857C125.508 179.079 126.433 180.56 127.107 182.301C127.791 184.042 128.133 185.91 128.133 187.906C128.133 189.902 127.791 191.771 127.107 193.512C126.433 195.253 125.508 196.738 124.332 197.969C123.156 199.19 121.748 200.152 120.107 200.854C118.476 201.555 116.735 201.906 114.885 201.906H106.039V173.906ZM108.281 175.807C108.281 176.326 108.277 180.09 108.268 187.1C108.258 194.1 108.254 198.26 108.254 199.582C108.254 200.311 108.368 200.812 108.596 201.086C108.824 201.35 109.202 201.482 109.73 201.482C110.022 201.482 110.601 201.487 111.467 201.496C112.333 201.505 112.884 201.51 113.121 201.51C114.552 201.51 115.883 201.327 117.113 200.963C118.353 200.589 119.424 200.079 120.326 199.432C121.229 198.775 122.031 198.014 122.732 197.148C123.434 196.283 123.999 195.339 124.428 194.318C124.856 193.298 125.18 192.249 125.398 191.174C125.617 190.098 125.727 189.009 125.727 187.906C125.727 186.576 125.576 185.277 125.275 184.01C124.975 182.743 124.492 181.526 123.826 180.359C123.161 179.193 122.345 178.176 121.379 177.311C120.422 176.436 119.232 175.738 117.811 175.219C116.398 174.699 114.835 174.439 113.121 174.439C112.884 174.439 112.333 174.444 111.467 174.453C110.601 174.462 110.022 174.467 109.73 174.467C109.275 174.467 108.933 174.562 108.705 174.754C108.477 174.945 108.336 175.296 108.281 175.807ZM131.77 201.906V173.906H134.012V201.906H131.77ZM139.275 201.906H136.814L146.357 175.219L145.77 173.906H148.244L160.727 201.906H158.266L156.215 197.34C155.777 196.355 155.057 195.48 154.055 194.715C153.061 193.94 151.986 193.361 150.828 192.979C149.671 192.587 148.554 192.391 147.479 192.391C145.628 192.391 143.901 192.969 142.297 194.127C141.996 194.346 141.695 194.71 141.395 195.221C141.103 195.722 140.893 196.205 140.766 196.67L139.275 201.906ZM142.324 191.297C142.188 191.798 142.238 192.049 142.475 192.049C142.593 192.049 142.798 191.976 143.09 191.83C144.184 191.229 145.368 190.928 146.645 190.928C147.911 190.928 149.188 191.201 150.473 191.748C151.767 192.286 152.975 193.01 154.096 193.922C154.415 194.186 154.615 194.286 154.697 194.223C154.779 194.159 154.734 193.94 154.561 193.566L147.342 177.379C147.178 176.987 147 176.791 146.809 176.791C146.608 176.791 146.439 177.014 146.303 177.461L142.324 191.297ZM163.051 201.906V173.906H165.348C170.534 181.262 176.486 189.679 183.203 199.158C183.404 199.441 183.581 199.582 183.736 199.582C183.955 199.582 184.051 199.34 184.023 198.857L182.342 173.906H184.693V201.906H182.451C181.23 200.184 178.605 196.492 174.576 190.832C170.557 185.163 167.207 180.437 164.527 176.654C164.327 176.372 164.149 176.23 163.994 176.23C163.785 176.23 163.693 176.472 163.721 176.955L165.402 201.906H163.051ZM3.02148 240.906H0.560547L10.1035 214.219L9.51562 212.906H11.9902L24.4727 240.906H22.0117L19.9609 236.34C19.5234 235.355 18.8034 234.48 17.8008 233.715C16.8073 232.94 15.7318 232.361 14.5742 231.979C13.4167 231.587 12.3001 231.391 11.2246 231.391C9.37435 231.391 7.64714 231.969 6.04297 233.127C5.74219 233.346 5.44141 233.71 5.14062 234.221C4.84896 234.722 4.63932 235.205 4.51172 235.67L3.02148 240.906ZM6.07031 230.297C5.93359 230.798 5.98372 231.049 6.2207 231.049C6.33919 231.049 6.54427 230.976 6.83594 230.83C7.92969 230.229 9.11458 229.928 10.3906 229.928C11.6576 229.928 12.9336 230.201 14.2188 230.748C15.513 231.286 16.7207 232.01 17.8418 232.922C18.1608 233.186 18.3613 233.286 18.4434 233.223C18.5254 233.159 18.4798 232.94 18.3066 232.566L11.0879 216.379C10.9238 215.987 10.7461 215.791 10.5547 215.791C10.3542 215.791 10.1855 216.014 10.0488 216.461L6.07031 230.297ZM36.5586 241.467C35.0091 241.467 33.6191 241.312 32.3887 241.002C31.1673 240.701 30.1465 240.286 29.3262 239.758C28.515 239.229 27.8405 238.591 27.3027 237.844C26.7741 237.096 26.3913 236.303 26.1543 235.465C25.9264 234.617 25.8125 233.706 25.8125 232.73V212.906H28.041C28.0046 222.176 27.9863 227.503 27.9863 228.889V233.906C27.9863 234.717 28.0957 235.465 28.3145 236.148C28.5423 236.823 28.8385 237.397 29.2031 237.871C29.5677 238.336 30.0007 238.755 30.502 239.129C31.0033 239.493 31.5091 239.785 32.0195 240.004C32.5391 240.223 33.0859 240.405 33.6602 240.551C34.2344 240.688 34.7539 240.783 35.2188 240.838C35.6836 240.883 36.1302 240.906 36.5586 240.906C37.0234 240.906 37.4701 240.893 37.8984 240.865C38.3268 240.838 38.8372 240.77 39.4297 240.66C40.0312 240.551 40.5827 240.41 41.084 240.236C41.5853 240.063 42.0911 239.812 42.6016 239.484C43.1211 239.156 43.5586 238.778 43.9141 238.35C44.2695 237.912 44.5612 237.365 44.7891 236.709C45.0169 236.044 45.1309 235.305 45.1309 234.494V212.906H47.373V237.488C46.4342 238.746 45.0033 239.726 43.0801 240.428C41.166 241.12 38.9922 241.467 36.5586 241.467ZM51.2832 212.906H72.8438V215.395C71.7956 214.939 70.3281 214.506 68.4414 214.096C66.5638 213.676 65.306 213.467 64.668 213.467C64.1393 213.467 63.7565 213.604 63.5195 213.877C63.2917 214.141 63.1777 214.638 63.1777 215.367V240.906H60.9355V215.367C60.9355 214.638 60.8216 214.141 60.5938 213.877C60.3659 213.604 59.9876 213.467 59.459 213.467C58.821 213.467 57.5586 213.676 55.6719 214.096C53.7943 214.506 52.3314 214.939 51.2832 215.395V212.906ZM78.9961 240.906H76.7539V212.906H78.9961V227.631C80.1719 226.264 81.6621 225.234 83.4668 224.541C85.2806 223.839 87.1855 223.488 89.1816 223.488C91.834 223.488 94.1309 224.04 96.0723 225.143V212.906H98.3145V240.906H96.0723V227.412C96.0723 226.41 95.5938 225.648 94.6367 225.129C93.6888 224.6 92.4583 224.336 90.9453 224.336C90.0977 224.336 89.2181 224.423 88.3066 224.596C87.4043 224.769 86.5065 225.02 85.6133 225.348C84.7292 225.667 83.8861 226.081 83.084 226.592C82.291 227.093 81.5892 227.658 80.9785 228.287C80.3678 228.907 79.8848 229.627 79.5293 230.447C79.1738 231.268 78.9961 232.133 78.9961 233.045V240.906ZM115.91 241.467C114.379 241.467 112.907 241.243 111.494 240.797C110.09 240.35 108.81 239.703 107.652 238.855C106.504 237.999 105.501 236.987 104.645 235.82C103.788 234.645 103.122 233.296 102.648 231.773C102.174 230.242 101.938 228.62 101.938 226.906C101.938 225.193 102.174 223.575 102.648 222.053C103.122 220.521 103.788 219.173 104.645 218.006C105.501 216.83 106.504 215.818 107.652 214.971C108.81 214.114 110.09 213.462 111.494 213.016C112.907 212.569 114.379 212.346 115.91 212.346C117.824 212.346 119.633 212.701 121.338 213.412C123.051 214.114 124.537 215.089 125.795 216.338C127.062 217.587 128.064 219.127 128.803 220.959C129.541 222.791 129.91 224.773 129.91 226.906C129.91 229.039 129.541 231.021 128.803 232.854C128.064 234.686 127.062 236.226 125.795 237.475C124.537 238.723 123.051 239.703 121.338 240.414C119.633 241.116 117.824 241.467 115.91 241.467ZM105.096 221.191C104.485 222.951 104.18 224.855 104.18 226.906C104.18 228.957 104.485 230.862 105.096 232.621C105.715 234.38 106.554 235.861 107.611 237.064C108.669 238.268 109.913 239.211 111.344 239.895C112.784 240.569 114.306 240.906 115.91 240.906C117.514 240.906 119.036 240.569 120.477 239.895C121.917 239.211 123.165 238.268 124.223 237.064C125.289 235.861 126.132 234.38 126.752 232.621C127.372 230.862 127.682 228.957 127.682 226.906C127.682 224.855 127.372 222.951 126.752 221.191C126.132 219.432 125.289 217.951 124.223 216.748C123.165 215.545 121.917 214.606 120.477 213.932C119.036 213.248 117.514 212.906 115.91 212.906C114.306 212.906 112.784 213.248 111.344 213.932C109.913 214.606 108.669 215.545 107.611 216.748C106.554 217.951 105.715 219.432 105.096 221.191ZM133.547 240.906V212.906H146.426C147.41 212.906 148.317 213.007 149.146 213.207C149.985 213.408 150.696 213.672 151.279 214C151.872 214.328 152.396 214.72 152.852 215.176C153.316 215.622 153.69 216.087 153.973 216.57C154.255 217.044 154.488 217.55 154.67 218.088C154.861 218.617 154.989 219.109 155.053 219.564C155.126 220.02 155.162 220.462 155.162 220.891C155.162 221.319 155.126 221.761 155.053 222.217C154.989 222.663 154.861 223.151 154.67 223.68C154.488 224.208 154.255 224.71 153.973 225.184C153.69 225.658 153.316 226.122 152.852 226.578C152.396 227.025 151.872 227.412 151.279 227.74C150.696 228.068 149.985 228.337 149.146 228.547C148.317 228.747 147.41 228.852 146.426 228.861H145.619C145.41 228.861 145.259 228.88 145.168 228.916C145.077 228.943 145.04 228.993 145.059 229.066C145.077 229.13 145.127 229.208 145.209 229.299C145.3 229.39 145.437 229.508 145.619 229.654C146.084 230.019 146.594 230.511 147.15 231.131C147.706 231.751 148.189 232.329 148.6 232.867C149.019 233.405 149.62 234.198 150.404 235.246C150.45 235.31 150.486 235.365 150.514 235.41C150.55 235.447 150.591 235.497 150.637 235.561C150.682 235.615 150.723 235.67 150.76 235.725C151.571 236.818 152.464 237.844 153.439 238.801C154.415 239.749 155.249 240.451 155.941 240.906H152.783C152.255 240.587 151.68 240.118 151.061 239.498C150.441 238.869 149.848 238.195 149.283 237.475C148.718 236.745 148.135 235.98 147.533 235.178C146.932 234.367 146.344 233.592 145.77 232.854C145.195 232.115 144.635 231.445 144.088 230.844C143.55 230.242 143.008 229.764 142.461 229.408C141.923 229.044 141.426 228.861 140.971 228.861H138.469V228.301H143.965C146.727 228.301 148.837 227.649 150.295 226.346C151.762 225.033 152.496 223.215 152.496 220.891C152.496 218.566 151.762 216.748 150.295 215.436C148.837 214.123 146.727 213.467 143.965 213.467H137.238C136.691 213.467 136.309 213.581 136.09 213.809C135.871 214.036 135.762 214.51 135.762 215.23L135.789 240.906H133.547ZM158.758 240.906V212.906H161V240.906H158.758ZM186.006 240.906H163.803L182.26 214.643C182.497 214.296 182.561 214.023 182.451 213.822C182.351 213.613 182.091 213.512 181.672 213.521C175.283 213.713 169.96 214.255 165.703 215.148V212.906H186.197L167.754 239.197C167.517 239.544 167.449 239.822 167.549 240.031C167.658 240.232 167.923 240.327 168.342 240.318C176.08 240.063 181.968 239.512 186.006 238.664V240.906ZM189.779 240.906H187.318L196.861 214.219L196.273 212.906H198.748L211.23 240.906H208.77L206.719 236.34C206.281 235.355 205.561 234.48 204.559 233.715C203.565 232.94 202.49 232.361 201.332 231.979C200.174 231.587 199.058 231.391 197.982 231.391C196.132 231.391 194.405 231.969 192.801 233.127C192.5 233.346 192.199 233.71 191.898 234.221C191.607 234.722 191.397 235.205 191.27 235.67L189.779 240.906ZM192.828 230.297C192.691 230.798 192.742 231.049 192.979 231.049C193.097 231.049 193.302 230.976 193.594 230.83C194.688 230.229 195.872 229.928 197.148 229.928C198.415 229.928 199.691 230.201 200.977 230.748C202.271 231.286 203.479 232.01 204.6 232.922C204.919 233.186 205.119 233.286 205.201 233.223C205.283 233.159 205.238 232.94 205.064 232.566L197.846 216.379C197.682 215.987 197.504 215.791 197.312 215.791C197.112 215.791 196.943 216.014 196.807 216.461L192.828 230.297ZM206.268 212.906H227.828V215.395C226.78 214.939 225.312 214.506 223.426 214.096C221.548 213.676 220.29 213.467 219.652 213.467C219.124 213.467 218.741 213.604 218.504 213.877C218.276 214.141 218.162 214.638 218.162 215.367V240.906H215.92V215.367C215.92 214.638 215.806 214.141 215.578 213.877C215.35 213.604 214.972 213.467 214.443 213.467C213.805 213.467 212.543 213.676 210.656 214.096C208.779 214.506 207.316 214.939 206.268 215.395V212.906ZM231.738 240.906V212.906H233.98V240.906H231.738ZM251.59 241.467C250.059 241.467 248.587 241.243 247.174 240.797C245.77 240.35 244.49 239.703 243.332 238.855C242.184 237.999 241.181 236.987 240.324 235.82C239.467 234.645 238.802 233.296 238.328 231.773C237.854 230.242 237.617 228.62 237.617 226.906C237.617 225.193 237.854 223.575 238.328 222.053C238.802 220.521 239.467 219.173 240.324 218.006C241.181 216.83 242.184 215.818 243.332 214.971C244.49 214.114 245.77 213.462 247.174 213.016C248.587 212.569 250.059 212.346 251.59 212.346C253.504 212.346 255.313 212.701 257.018 213.412C258.731 214.114 260.217 215.089 261.475 216.338C262.742 217.587 263.744 219.127 264.482 220.959C265.221 222.791 265.59 224.773 265.59 226.906C265.59 229.039 265.221 231.021 264.482 232.854C263.744 234.686 262.742 236.226 261.475 237.475C260.217 238.723 258.731 239.703 257.018 240.414C255.313 241.116 253.504 241.467 251.59 241.467ZM240.775 221.191C240.165 222.951 239.859 224.855 239.859 226.906C239.859 228.957 240.165 230.862 240.775 232.621C241.395 234.38 242.234 235.861 243.291 237.064C244.348 238.268 245.592 239.211 247.023 239.895C248.464 240.569 249.986 240.906 251.59 240.906C253.194 240.906 254.716 240.569 256.156 239.895C257.596 239.211 258.845 238.268 259.902 237.064C260.969 235.861 261.812 234.38 262.432 232.621C263.051 230.862 263.361 228.957 263.361 226.906C263.361 224.855 263.051 222.951 262.432 221.191C261.812 219.432 260.969 217.951 259.902 216.748C258.845 215.545 257.596 214.606 256.156 213.932C254.716 213.248 253.194 212.906 251.59 212.906C249.986 212.906 248.464 213.248 247.023 213.932C245.592 214.606 244.348 215.545 243.291 216.748C242.234 217.951 241.395 219.432 240.775 221.191ZM269.227 240.906V212.906H271.523C276.71 220.262 282.661 228.679 289.379 238.158C289.579 238.441 289.757 238.582 289.912 238.582C290.131 238.582 290.227 238.34 290.199 237.857L288.518 212.906H290.869V240.906H288.627C287.406 239.184 284.781 235.492 280.752 229.832C276.732 224.163 273.383 219.437 270.703 215.654C270.503 215.372 270.325 215.23 270.17 215.23C269.96 215.23 269.869 215.472 269.896 215.955L271.578 240.906H269.227Z" fill="#383637"/>
<path d="M0.352 276.906L4.992 265.706H5.92L10.56 276.906H9.536L8.368 274.09H2.544L1.392 276.906H0.352ZM2.928 273.194H8L5.456 267.034L2.928 273.194ZM15.7926 277.114C13.3126 277.114 11.5686 275.306 11.5686 272.762C11.5686 270.218 13.3126 268.426 15.7926 268.426C17.7606 268.426 19.3766 269.594 19.8566 271.386H18.9126C18.3686 270.074 17.2166 269.322 15.7926 269.322C13.8406 269.322 12.4966 270.73 12.4966 272.762C12.4966 274.81 13.8406 276.218 15.7926 276.218C17.3126 276.218 18.4966 275.37 18.9606 274.01H19.9366C19.3766 275.946 17.8246 277.114 15.7926 277.114ZM22.4605 276.906V265.066H23.3885V272.266H24.6045C26.1405 272.266 26.8125 271.866 27.3405 270.474L28.0445 268.634H29.0365L28.2045 270.826C27.8365 271.754 27.4045 272.346 26.7485 272.698L29.4365 276.906H28.3325L25.8845 273.018C25.5005 273.098 25.0685 273.13 24.5725 273.13H23.3885V276.906H22.4605ZM31.7261 276.906V268.634H32.5101L32.5901 270.234C33.2461 269.05 34.3981 268.426 35.7261 268.426C37.8861 268.426 39.2141 269.946 39.2141 272.33V276.906H38.2861V272.41C38.2861 270.506 37.2621 269.322 35.6141 269.322C33.8701 269.322 32.6541 270.65 32.6541 272.618V276.906H31.7261ZM45.9675 277.114C43.4075 277.114 41.6155 275.322 41.6155 272.762C41.6155 270.218 43.4075 268.426 45.9675 268.426C48.5115 268.426 50.3035 270.218 50.3035 272.762C50.3035 275.322 48.5115 277.114 45.9675 277.114ZM42.5435 272.762C42.5435 274.81 43.9355 276.218 45.9675 276.218C47.9835 276.218 49.3755 274.81 49.3755 272.762C49.3755 270.73 47.9835 269.322 45.9675 269.322C43.9355 269.322 42.5435 270.73 42.5435 272.762ZM54.2499 276.906L51.2739 268.634H52.2659L54.7139 275.514L55.8819 272.506L57.3699 268.634H58.2339L59.7379 272.506L60.9059 275.514L63.3699 268.634H64.3459L61.3539 276.906H60.4579L59.0339 273.21L57.8019 269.994L55.1459 276.906H54.2499ZM66.3511 276.906V265.066H67.2791V276.906H66.3511ZM74.0739 277.114C71.5619 277.114 69.8499 275.338 69.8499 272.762C69.8499 270.202 71.5779 268.426 74.0899 268.426C76.6979 268.426 78.3779 270.346 78.3139 273.146H70.7939C70.9539 275.018 72.2339 276.234 74.0739 276.234C75.4179 276.234 76.4899 275.61 77.0339 274.538L78.0739 274.554C77.4339 276.138 75.9299 277.114 74.0739 277.114ZM70.7939 272.33H77.4019C77.1779 270.458 75.8979 269.306 74.0899 269.306C72.2499 269.306 70.9539 270.506 70.7939 272.33ZM84.3711 277.114C81.8751 277.114 80.1311 275.274 80.1311 272.762C80.1311 270.25 81.8751 268.426 84.3711 268.426C85.8911 268.426 87.1231 269.098 87.8591 270.17V265.066H88.7871V276.906H88.0191L87.9071 275.274C87.1871 276.41 85.9231 277.114 84.3711 277.114ZM81.0591 272.762C81.0591 274.794 82.4511 276.218 84.4831 276.218C86.4991 276.218 87.8911 274.794 87.8911 272.762C87.8911 270.746 86.4991 269.322 84.4831 269.322C82.4511 269.322 81.0591 270.746 81.0591 272.762ZM95.7175 280.314C93.6855 280.314 92.1815 279.242 91.8615 277.562H92.8055C93.0775 278.714 94.1975 279.434 95.7175 279.434C97.6215 279.434 98.8375 278.314 98.8375 276.538V275.194C98.1015 276.202 96.9175 276.81 95.5095 276.81C93.0935 276.81 91.3655 275.05 91.3655 272.618C91.3655 270.186 93.0935 268.426 95.5095 268.426C96.9655 268.426 98.1655 269.066 98.9015 270.122L98.9815 268.634H99.7655V276.57C99.7655 278.794 98.1335 280.314 95.7175 280.314ZM92.2935 272.618C92.2935 274.554 93.6535 275.898 95.6055 275.898C97.5415 275.898 98.9015 274.554 98.9015 272.618C98.9015 270.682 97.5415 269.322 95.6055 269.322C93.6535 269.322 92.2935 270.682 92.2935 272.618ZM106.558 277.114C104.046 277.114 102.334 275.338 102.334 272.762C102.334 270.202 104.062 268.426 106.574 268.426C109.182 268.426 110.862 270.346 110.798 273.146H103.278C103.438 275.018 104.718 276.234 106.558 276.234C107.902 276.234 108.974 275.61 109.518 274.538L110.558 274.554C109.918 276.138 108.414 277.114 106.558 277.114ZM103.278 272.33H109.886C109.662 270.458 108.382 269.306 106.574 269.306C104.734 269.306 103.438 270.506 103.278 272.33ZM113.336 276.906V268.634H114.12L114.2 269.978C114.776 268.97 115.784 268.426 117.064 268.426C118.504 268.426 119.608 269.146 120.088 270.41C120.648 269.146 121.784 268.426 123.24 268.426C125.32 268.426 126.664 269.85 126.664 272.154V276.906H125.736V272.298C125.736 270.458 124.712 269.322 123.128 269.322C121.512 269.322 120.456 270.49 120.456 272.362V276.906H119.528V272.298C119.528 270.458 118.52 269.322 116.936 269.322C115.32 269.322 114.264 270.49 114.264 272.362V276.906H113.336ZM133.277 277.114C130.765 277.114 129.053 275.338 129.053 272.762C129.053 270.202 130.781 268.426 133.293 268.426C135.901 268.426 137.581 270.346 137.517 273.146H129.997C130.157 275.018 131.437 276.234 133.277 276.234C134.621 276.234 135.693 275.61 136.237 274.538L137.277 274.554C136.637 276.138 135.133 277.114 133.277 277.114ZM129.997 272.33H136.605C136.381 270.458 135.101 269.306 133.293 269.306C131.453 269.306 130.157 270.506 129.997 272.33ZM140.054 276.906V268.634H140.838L140.918 270.234C141.574 269.05 142.726 268.426 144.054 268.426C146.214 268.426 147.542 269.946 147.542 272.33V276.906H146.614V272.41C146.614 270.506 145.59 269.322 143.942 269.322C142.198 269.322 140.982 270.65 140.982 272.618V276.906H140.054ZM153.758 276.906C151.998 276.906 151.054 275.914 151.054 274.042V269.482H149.246V268.634H150.302C150.926 268.634 151.102 268.474 151.166 267.866L151.246 266.602H151.982V268.634H154.846V269.482H151.982V274.01C151.982 275.37 152.542 276.01 153.79 276.01H154.958V276.906H153.758ZM164.702 277.114C162.43 277.114 161.022 276.01 161.022 274.186C161.022 272.81 161.822 271.77 163.486 271.018C162.51 269.946 161.934 269.05 161.934 268.042C161.934 266.522 163.198 265.498 165.054 265.498C166.926 265.498 168.19 266.57 168.19 268.122C168.19 269.514 167.214 270.522 165.07 271.338L168.094 274.442C168.542 273.674 168.782 272.682 168.798 271.482H169.726C169.71 272.97 169.39 274.202 168.766 275.13L170.51 276.906H169.262L168.206 275.818C167.358 276.666 166.174 277.114 164.702 277.114ZM161.95 274.17C161.95 275.45 163.006 276.218 164.718 276.218C165.902 276.218 166.862 275.85 167.534 275.162L164.142 271.69C162.67 272.298 161.95 273.13 161.95 274.17ZM162.846 268.042C162.846 268.746 163.278 269.466 164.414 270.666C166.462 269.882 167.278 269.162 167.278 268.122C167.278 267.05 166.414 266.362 165.054 266.362C163.71 266.362 162.846 267.018 162.846 268.042ZM181.282 277.114C177.986 277.114 175.602 274.714 175.602 271.306C175.602 267.898 177.986 265.498 181.282 265.498C183.842 265.498 185.938 266.986 186.674 269.338H185.65C185.01 267.562 183.346 266.474 181.298 266.474C178.562 266.474 176.594 268.442 176.594 271.306C176.594 274.17 178.562 276.138 181.298 276.138C183.394 276.138 185.122 275.002 185.746 273.146H186.77C186.082 275.562 183.922 277.114 181.282 277.114ZM192.905 277.114C190.345 277.114 188.553 275.322 188.553 272.762C188.553 270.218 190.345 268.426 192.905 268.426C195.449 268.426 197.241 270.218 197.241 272.762C197.241 275.322 195.449 277.114 192.905 277.114ZM189.481 272.762C189.481 274.81 190.873 276.218 192.905 276.218C194.921 276.218 196.313 274.81 196.313 272.762C196.313 270.73 194.921 269.322 192.905 269.322C190.873 269.322 189.481 270.73 189.481 272.762ZM199.82 276.906V268.634H200.604L200.684 270.234C201.34 269.05 202.492 268.426 203.82 268.426C205.98 268.426 207.308 269.946 207.308 272.33V276.906H206.38V272.41C206.38 270.506 205.356 269.322 203.708 269.322C201.964 269.322 200.748 270.65 200.748 272.618V276.906H199.82ZM213.277 277.114C211.181 277.114 209.853 276.058 209.789 274.41H210.701C210.797 275.578 211.709 276.266 213.293 276.266C214.749 276.266 215.629 275.706 215.629 274.794C215.629 273.93 214.845 273.402 213.085 273.098C210.925 272.73 209.949 271.962 209.949 270.698C209.949 269.29 211.149 268.426 213.085 268.426C215.037 268.426 216.269 269.354 216.397 270.938H215.469C215.373 269.85 214.525 269.258 213.085 269.258C211.709 269.258 210.877 269.818 210.877 270.714C210.877 271.53 211.565 271.978 213.405 272.33C215.501 272.73 216.541 273.562 216.541 274.81C216.541 276.202 215.277 277.114 213.277 277.114ZM222.73 277.114C220.218 277.114 218.506 275.338 218.506 272.762C218.506 270.202 220.234 268.426 222.746 268.426C225.354 268.426 227.034 270.346 226.97 273.146H219.45C219.61 275.018 220.89 276.234 222.73 276.234C224.074 276.234 225.146 275.61 225.69 274.538L226.73 274.554C226.09 276.138 224.586 277.114 222.73 277.114ZM219.45 272.33H226.058C225.834 270.458 224.554 269.306 222.746 269.306C220.906 269.306 219.61 270.506 219.45 272.33ZM229.507 276.906V268.634H230.291L230.371 270.234C231.027 269.05 232.179 268.426 233.507 268.426C235.667 268.426 236.995 269.946 236.995 272.33V276.906H236.067V272.41C236.067 270.506 235.043 269.322 233.395 269.322C231.651 269.322 230.435 270.65 230.435 272.618V276.906H229.507ZM243.211 276.906C241.451 276.906 240.507 275.914 240.507 274.042V269.482H238.699V268.634H239.755C240.379 268.634 240.555 268.474 240.619 267.866L240.699 266.602H241.435V268.634H244.299V269.482H241.435V274.01C241.435 275.37 241.995 276.01 243.243 276.01H244.411V276.906H243.211Z" fill="#5B5852"/>
</svg>
