<svg width="366" height="283" viewBox="0 0 366 283" fill="none" xmlns="http://www.w3.org/2000/svg">
<path d="M39.9453 0.321289C39.6338 1.16044 39.3391 1.99171 39.0156 2.74316C37.3342 6.65348 35.4723 10.4771 33.9385 14.4443C32.7574 17.4977 31.6991 20.6355 30.6328 23.7188C31.3354 23.7132 31.259 22.7499 31.4941 22.2021C31.6174 21.9172 32.0982 21.1689 32.3633 21.0469C32.7734 20.8598 33.5277 21.1803 33.4648 21.625C32.642 23.5828 32.2598 25.6845 31.5244 27.6748C30.9011 29.3615 30.3349 31.0402 29.7197 32.7432C27.8688 37.8601 25.5552 42.9445 23.8164 48.0615C21.3449 55.337 19.42 62.8133 16.6504 69.9912C15.4803 73.0229 14.8241 76.0493 13.8535 79.1162C13.2794 80.9276 12.3035 83.3685 12.041 85.1826C11.9864 85.5649 12.0908 85.9961 12.0088 86.3594C11.954 86.5953 11.5984 87.029 11.4727 87.3408C10.7727 89.0872 10.0205 92.7534 9.71973 94.6787C9.63498 95.2237 9.64093 96.753 9.46875 97.0488C9.30749 97.3226 9.13502 97.2523 9.08301 96.9678C8.99552 96.477 9.04434 95.0989 9.07715 94.543C9.17013 93.0326 9.56976 91.4976 9.78027 89.998C9.94699 88.8106 9.85908 88.6555 10.3184 87.5059C10.7776 86.3535 10.9012 85.4557 11.1035 84.249C12.2136 77.5973 14.6663 71.7294 16.375 65.2783C16.6949 64.0662 17.2227 62.3848 17.3184 61.1699C17.3266 61.0587 17.3944 60.7961 17.2197 60.8203C15.0243 69.0448 11.8476 76.9819 9.62207 85.1982C8.86474 87.9995 8.15387 90.8419 7.86133 93.7354C7.81217 94.2153 7.91834 94.7605 7.85547 95.2432C7.78431 95.7935 7.47853 96.4821 7.38281 97.0947C7.0192 99.4647 7.0871 103.687 7.98926 105.916C8.77393 107.855 9.73689 107.977 11.1641 109.219C11.6341 109.628 12.2528 110.357 12.9062 110.906H0V45.7666C0 22.4516 17.4142 3.20438 39.9453 0.321289ZM50.0527 77.2129C50.1184 77.137 50.441 76.6321 50.5586 76.7568C47.7972 82.1179 45.3284 87.7611 44.1035 93.6943C42.9005 99.5164 43.056 103.598 45.9678 108.889C46.3353 109.556 46.9382 110.255 47.6699 110.906H16.7666C18.7844 110.166 21.1762 109.112 22.8105 108.159C23.1084 107.986 24.3901 107.129 24.4922 106.896C24.5441 106.776 24.2899 106.675 24.3418 106.461C24.4214 106.133 25.1152 105.767 25.293 105.577C25.6483 105.198 25.8808 104.696 26.3125 104.271C26.5886 103.997 27.7477 103.018 28.0488 102.969C28.8827 102.833 30.157 103.831 30.1133 102.627C29.1618 102.041 29.5202 101.447 30.5127 101.371C30.7918 101.35 31.6414 101.821 31.5107 101.149C31.3494 100.32 31.1636 100.29 31.9072 99.6416C33.1402 98.5678 35.1169 97.4341 35.4014 95.6445C35.4369 95.4141 35.2016 95.2215 35.5186 94.9531C36.3169 94.2779 37.894 95.0664 38.3916 93.6699C38.4709 93.4503 38.4463 93.1356 38.5557 92.9512C38.6186 92.8454 38.8569 92.7883 38.9717 92.6338C39.3732 92.0832 39.0835 90.8335 39.1709 90.1611L38.5615 90.0088L39.1191 89.5586C39.3267 89.6426 39.2399 90.0244 39.2725 90.0576C39.3244 90.1119 39.8578 90.0332 39.959 89.9355C40.0385 89.855 40.234 89.2001 40.1855 89.1553H39.7285C39.5344 88.8109 40.0708 88.6075 40.2295 88.3418C40.3498 88.1385 40.355 87.8671 40.4697 87.6719C41.197 86.4489 42.4302 85.9171 43.3379 84.9707C43.6058 84.6914 43.756 84.3361 44.0977 84.0107C44.2917 83.8264 44.6309 83.6939 44.7568 83.5557C44.94 83.3523 44.9129 83.0536 45.0469 82.834C45.7523 81.6599 47.4198 80.4534 48.374 79.377C48.9755 78.6964 49.465 77.9071 50.0527 77.2129ZM47.9854 0C72.2842 1.13123 91.6377 21.188 91.6377 45.7666V110.906H62.749C63.428 110.409 63.8634 109.705 64.5977 109.181C65.6665 108.419 66.9378 108.08 67.9766 107.392C74.2649 103.21 80.7424 96.9481 85.6309 91.2236C87.438 89.1085 90.2399 86.0147 91.123 83.4658C91.3773 82.7337 91.6917 81.9826 91.6289 81.1963L91.6348 81.1904C91.4926 81.1796 91.3584 81.1902 91.2217 81.2363C90.8362 81.3719 88.4033 84.0919 87.9219 84.6182C82.2706 90.7873 77.1112 97.8434 69.9727 102.407C66.2571 104.783 62.4297 106.35 58.3916 108.062C56.579 108.829 52.9811 109.308 51.0508 108.988C49.2819 108.695 48.716 108.46 48.2539 106.719C47.8875 105.341 47.3264 102.261 47.3154 100.886C47.31 100.04 47.7477 98.9331 47.9062 98.0654C49.2624 90.5947 52.9266 81.6701 57.249 75.3682C59.2202 72.4913 61.178 70.7337 63.5264 68.2852C64.4858 67.2846 65.2291 66.0833 66.1641 65.0557C68.0751 62.9568 70.3718 61.2349 72.7285 59.6621L72.9502 59.6299C73.713 59.9905 74.4239 60.0558 74.957 60.7744C76.8786 63.3614 72.8762 67.1357 71.583 69.2236C71.4135 69.5599 71.3731 70.0757 71.6328 70.374C71.7726 70.5364 72.2417 70.6796 72.4658 70.7041C73.0973 70.7746 75.0087 70.7914 75.6104 70.6992C77.2945 70.4389 79.4707 66.0971 79.6895 64.5596C80.2854 60.3647 77.3085 57.5312 73.3525 56.9209C71.7834 56.6796 71.7937 56.994 70.5283 57.1865C68.8469 57.4441 68.0943 57.0377 66.3828 58.0166C62.7247 60.1156 57.8578 65.3436 55.3535 68.7549C54.0249 70.5662 53.0904 72.7115 51.625 74.333C50.5615 75.5126 49.3366 76.5809 48.2676 77.7578C46.4221 79.7916 44.7673 82.0095 42.8809 84.0107C41.3006 85.692 39.4257 87.2436 37.8975 88.9492C34.696 92.5205 31.8002 95.4244 28.041 98.4316C27.2563 99.0581 26.6081 99.8472 25.8535 100.498C23.2809 102.708 19.9129 105.255 16.9355 106.879C15.6123 107.6 14.1849 108.646 13.3701 106.824C12.5583 105.004 12.7682 100.744 12.9404 98.6836C13.0171 97.7673 13.4496 96.9052 13.5371 95.9482C13.6574 94.6385 13.5479 93.6317 13.9307 92.3057C14.286 91.0776 14.521 90.3237 14.7998 89.0332C15.2919 86.7581 16.0161 85.1254 16.6504 83.0049C17.7549 79.3142 18.5732 75.4827 19.8555 71.8652C21.9743 65.8861 23.7152 59.7791 25.8477 53.8135C28.5325 46.3075 31.683 38.9531 34.417 31.458C35.2481 29.1748 36.1558 26.9319 37.0088 24.6514C38.9035 19.5723 40.8413 14.4411 43.25 9.56543C44.2233 7.59137 45.399 6.17859 46.4707 4.3916C46.8665 3.73277 47.6789 1.32218 47.9854 0ZM8.88867 99.9854H8.8916L8.58301 100.04C8.38895 99.7039 8.60436 99.3915 8.98145 99.3398L8.88867 99.9854ZM37.0908 91.4736C37.2136 91.4086 37.2818 91.3355 37.4482 91.376C37.4018 91.7013 37.5632 92.2946 37.3477 92.5361L37.1641 92.6699C36.8562 92.8839 36.271 93.273 36.1992 93.3096C35.8958 93.4641 35.5509 93.5183 35.2119 93.4912C34.9774 93.282 36.8229 91.6119 37.0908 91.4736ZM47.4385 87.3135C47.2581 87.7934 46.873 86.7859 47.4111 86.8369L47.4385 87.3135ZM47.7207 85.2256C47.9665 85.1797 48.0021 85.4263 48.125 85.5781H48.1221L47.9717 85.7275L47.7314 85.5645L47.7207 85.2256ZM48.4287 83.3086C48.5244 83.2463 48.7645 83.3306 48.8301 83.458L48.4775 84.1113C48.2126 84.0297 48.3713 83.3436 48.4287 83.3057V83.3086ZM50.46 79.9814C50.4846 80.3584 50.4815 80.9518 49.9512 80.8867C49.9293 80.461 49.9187 79.9815 50.46 79.9814ZM51.2666 77.9229C51.286 77.8229 51.5444 77.8499 51.5752 77.8662C51.7801 77.999 51.5594 78.5652 51.3271 78.666C51.0565 78.4708 51.19 78.164 51.2666 77.9199V77.9229ZM53.3086 74.5361C53.2813 74.8588 53.4396 75.092 53.3467 75.4229C53.2236 75.8648 52.6884 76.2196 52.5381 75.6475C52.4539 75.3272 53.1908 74.3957 53.3086 74.5361ZM35.2891 13.8584C36.1035 13.6905 35.9966 14.6499 35.4443 14.7285C34.843 14.815 34.6439 13.9913 35.2891 13.8584ZM36.7402 11.8223C36.5762 11.1226 36.4427 10.2845 37.457 10.5557C37.7604 11.117 37.4155 11.8412 36.7402 11.8223Z" fill="#E0DCD0"/>
<path d="M2.10547 153.773C1.63151 152.242 1.39453 150.62 1.39453 148.906C1.39453 147.193 1.63151 145.575 2.10547 144.053C2.57943 142.521 3.24479 141.173 4.10156 140.006C4.95833 138.83 5.96094 137.818 7.10938 136.971C8.26693 136.114 9.54753 135.462 10.9512 135.016C12.3639 134.569 13.8359 134.346 15.3672 134.346C16.6615 134.346 17.9238 134.464 19.1543 134.701C20.3939 134.938 21.5195 135.275 22.5312 135.713C23.5521 136.15 24.3724 136.725 24.9922 137.436C25.612 138.146 25.9219 138.935 25.9219 139.801C25.9219 140.102 25.8763 140.361 25.7852 140.58C25.7031 140.79 25.5983 140.945 25.4707 141.045C25.3522 141.136 25.2292 141.209 25.1016 141.264C24.9831 141.309 24.8828 141.332 24.8008 141.332L24.6641 141.346C24.5547 140.571 24.2311 139.796 23.6934 139.021C23.1556 138.247 22.4766 137.559 21.6562 136.957C20.8451 136.346 19.8835 135.854 18.7715 135.48C17.6595 135.098 16.5247 134.906 15.3672 134.906C13.763 134.906 12.2409 135.248 10.8008 135.932C9.36979 136.606 8.12565 137.545 7.06836 138.748C6.01107 139.951 5.17253 141.432 4.55273 143.191C3.94206 144.951 3.63672 146.855 3.63672 148.906C3.63672 150.957 3.94206 152.862 4.55273 154.621C5.17253 156.38 6.01107 157.861 7.06836 159.064C8.12565 160.268 9.36979 161.211 10.8008 161.895C12.2409 162.569 13.763 162.906 15.3672 162.906C15.9961 162.906 16.6797 162.824 17.418 162.66C18.1562 162.487 18.8945 162.232 19.6328 161.895C20.3802 161.557 21.0547 161.161 21.6562 160.705C22.2669 160.249 22.7637 159.702 23.1465 159.064C23.5293 158.426 23.7207 157.757 23.7207 157.055V147.73H26.127V159.912C25.4434 160.942 24.0807 161.794 22.0391 162.469C19.9974 163.134 17.7734 163.467 15.3672 163.467C13.8359 163.467 12.3639 163.243 10.9512 162.797C9.54753 162.35 8.26693 161.703 7.10938 160.855C5.96094 159.999 4.95833 158.987 4.10156 157.82C3.24479 156.645 2.57943 155.296 2.10547 153.773ZM40.9883 163.467C39.4388 163.467 38.0488 163.312 36.8184 163.002C35.597 162.701 34.5762 162.286 33.7559 161.758C32.9447 161.229 32.2702 160.591 31.7324 159.844C31.2038 159.096 30.821 158.303 30.584 157.465C30.3561 156.617 30.2422 155.706 30.2422 154.73V134.906H32.4707C32.4342 144.176 32.416 149.503 32.416 150.889V155.906C32.416 156.717 32.5254 157.465 32.7441 158.148C32.972 158.823 33.2682 159.397 33.6328 159.871C33.9974 160.336 34.4303 160.755 34.9316 161.129C35.4329 161.493 35.9388 161.785 36.4492 162.004C36.9688 162.223 37.5156 162.405 38.0898 162.551C38.6641 162.688 39.1836 162.783 39.6484 162.838C40.1133 162.883 40.5599 162.906 40.9883 162.906C41.4531 162.906 41.8997 162.893 42.3281 162.865C42.7565 162.838 43.2669 162.77 43.8594 162.66C44.4609 162.551 45.0124 162.41 45.5137 162.236C46.015 162.063 46.5208 161.812 47.0312 161.484C47.5508 161.156 47.9883 160.778 48.3438 160.35C48.6992 159.912 48.9909 159.365 49.2188 158.709C49.4466 158.044 49.5605 157.305 49.5605 156.494V134.906H51.8027V159.488C50.8639 160.746 49.4329 161.726 47.5098 162.428C45.5957 163.12 43.4219 163.467 40.9883 163.467ZM57.0527 162.906H54.5918L64.1348 136.219L63.5469 134.906H66.0215L78.5039 162.906H76.043L73.9922 158.34C73.5547 157.355 72.8346 156.48 71.832 155.715C70.8385 154.94 69.763 154.361 68.6055 153.979C67.4479 153.587 66.3314 153.391 65.2559 153.391C63.4056 153.391 61.6784 153.969 60.0742 155.127C59.7734 155.346 59.4727 155.71 59.1719 156.221C58.8802 156.722 58.6706 157.205 58.543 157.67L57.0527 162.906ZM60.1016 152.297C59.9648 152.798 60.015 153.049 60.252 153.049C60.3704 153.049 60.5755 152.976 60.8672 152.83C61.9609 152.229 63.1458 151.928 64.4219 151.928C65.6888 151.928 66.9648 152.201 68.25 152.748C69.5443 153.286 70.752 154.01 71.873 154.922C72.1921 155.186 72.3926 155.286 72.4746 155.223C72.5566 155.159 72.5111 154.94 72.3379 154.566L65.1191 138.379C64.9551 137.987 64.7773 137.791 64.5859 137.791C64.3854 137.791 64.2168 138.014 64.0801 138.461L60.1016 152.297ZM80.8281 162.906V134.906H93.707C94.6914 134.906 95.5983 135.007 96.4277 135.207C97.2663 135.408 97.9772 135.672 98.5605 136C99.153 136.328 99.6771 136.72 100.133 137.176C100.598 137.622 100.971 138.087 101.254 138.57C101.536 139.044 101.769 139.55 101.951 140.088C102.143 140.617 102.27 141.109 102.334 141.564C102.407 142.02 102.443 142.462 102.443 142.891C102.443 143.319 102.407 143.761 102.334 144.217C102.27 144.663 102.143 145.151 101.951 145.68C101.769 146.208 101.536 146.71 101.254 147.184C100.971 147.658 100.598 148.122 100.133 148.578C99.6771 149.025 99.153 149.412 98.5605 149.74C97.9772 150.068 97.2663 150.337 96.4277 150.547C95.5983 150.747 94.6914 150.852 93.707 150.861H92.9004C92.6908 150.861 92.5404 150.88 92.4492 150.916C92.3581 150.943 92.3216 150.993 92.3398 151.066C92.3581 151.13 92.4082 151.208 92.4902 151.299C92.5814 151.39 92.7181 151.508 92.9004 151.654C93.3652 152.019 93.8757 152.511 94.4316 153.131C94.9876 153.751 95.4707 154.329 95.8809 154.867C96.3001 155.405 96.9017 156.198 97.6855 157.246C97.7311 157.31 97.7676 157.365 97.7949 157.41C97.8314 157.447 97.8724 157.497 97.918 157.561C97.9635 157.615 98.0046 157.67 98.041 157.725C98.8522 158.818 99.7454 159.844 100.721 160.801C101.696 161.749 102.53 162.451 103.223 162.906H100.064C99.5358 162.587 98.9616 162.118 98.3418 161.498C97.722 160.869 97.1296 160.195 96.5645 159.475C95.9993 158.745 95.416 157.98 94.8145 157.178C94.2129 156.367 93.625 155.592 93.0508 154.854C92.4766 154.115 91.916 153.445 91.3691 152.844C90.8314 152.242 90.2891 151.764 89.7422 151.408C89.2044 151.044 88.7077 150.861 88.252 150.861H85.75V150.301H91.2461C94.0078 150.301 96.1178 149.649 97.5762 148.346C99.0436 147.033 99.7773 145.215 99.7773 142.891C99.7773 140.566 99.0436 138.748 97.5762 137.436C96.1178 136.123 94.0078 135.467 91.2461 135.467H84.5195C83.9727 135.467 83.5898 135.581 83.3711 135.809C83.1523 136.036 83.043 136.51 83.043 137.23L83.0703 162.906H80.8281ZM106.039 134.906H114.885C116.735 134.906 118.476 135.257 120.107 135.959C121.748 136.661 123.156 137.627 124.332 138.857C125.508 140.079 126.433 141.56 127.107 143.301C127.791 145.042 128.133 146.91 128.133 148.906C128.133 150.902 127.791 152.771 127.107 154.512C126.433 156.253 125.508 157.738 124.332 158.969C123.156 160.19 121.748 161.152 120.107 161.854C118.476 162.555 116.735 162.906 114.885 162.906H106.039V134.906ZM108.281 136.807C108.281 137.326 108.277 141.09 108.268 148.1C108.258 155.1 108.254 159.26 108.254 160.582C108.254 161.311 108.368 161.812 108.596 162.086C108.824 162.35 109.202 162.482 109.73 162.482C110.022 162.482 110.601 162.487 111.467 162.496C112.333 162.505 112.884 162.51 113.121 162.51C114.552 162.51 115.883 162.327 117.113 161.963C118.353 161.589 119.424 161.079 120.326 160.432C121.229 159.775 122.031 159.014 122.732 158.148C123.434 157.283 123.999 156.339 124.428 155.318C124.856 154.298 125.18 153.249 125.398 152.174C125.617 151.098 125.727 150.009 125.727 148.906C125.727 147.576 125.576 146.277 125.275 145.01C124.975 143.743 124.492 142.526 123.826 141.359C123.161 140.193 122.345 139.176 121.379 138.311C120.422 137.436 119.232 136.738 117.811 136.219C116.398 135.699 114.835 135.439 113.121 135.439C112.884 135.439 112.333 135.444 111.467 135.453C110.601 135.462 110.022 135.467 109.73 135.467C109.275 135.467 108.933 135.562 108.705 135.754C108.477 135.945 108.336 136.296 108.281 136.807ZM131.77 162.906V134.906H134.012V162.906H131.77ZM139.275 162.906H136.814L146.357 136.219L145.77 134.906H148.244L160.727 162.906H158.266L156.215 158.34C155.777 157.355 155.057 156.48 154.055 155.715C153.061 154.94 151.986 154.361 150.828 153.979C149.671 153.587 148.554 153.391 147.479 153.391C145.628 153.391 143.901 153.969 142.297 155.127C141.996 155.346 141.695 155.71 141.395 156.221C141.103 156.722 140.893 157.205 140.766 157.67L139.275 162.906ZM142.324 152.297C142.188 152.798 142.238 153.049 142.475 153.049C142.593 153.049 142.798 152.976 143.09 152.83C144.184 152.229 145.368 151.928 146.645 151.928C147.911 151.928 149.188 152.201 150.473 152.748C151.767 153.286 152.975 154.01 154.096 154.922C154.415 155.186 154.615 155.286 154.697 155.223C154.779 155.159 154.734 154.94 154.561 154.566L147.342 138.379C147.178 137.987 147 137.791 146.809 137.791C146.608 137.791 146.439 138.014 146.303 138.461L142.324 152.297ZM163.051 162.906V134.906H165.348C170.534 142.262 176.486 150.679 183.203 160.158C183.404 160.441 183.581 160.582 183.736 160.582C183.955 160.582 184.051 160.34 184.023 159.857L182.342 134.906H184.693V162.906H182.451C181.23 161.184 178.605 157.492 174.576 151.832C170.557 146.163 167.207 141.437 164.527 137.654C164.327 137.372 164.149 137.23 163.994 137.23C163.785 137.23 163.693 137.472 163.721 137.955L165.402 162.906H163.051ZM3.02148 201.906H0.560547L10.1035 175.219L9.51562 173.906H11.9902L24.4727 201.906H22.0117L19.9609 197.34C19.5234 196.355 18.8034 195.48 17.8008 194.715C16.8073 193.94 15.7318 193.361 14.5742 192.979C13.4167 192.587 12.3001 192.391 11.2246 192.391C9.37435 192.391 7.64714 192.969 6.04297 194.127C5.74219 194.346 5.44141 194.71 5.14062 195.221C4.84896 195.722 4.63932 196.205 4.51172 196.67L3.02148 201.906ZM6.07031 191.297C5.93359 191.798 5.98372 192.049 6.2207 192.049C6.33919 192.049 6.54427 191.976 6.83594 191.83C7.92969 191.229 9.11458 190.928 10.3906 190.928C11.6576 190.928 12.9336 191.201 14.2188 191.748C15.513 192.286 16.7207 193.01 17.8418 193.922C18.1608 194.186 18.3613 194.286 18.4434 194.223C18.5254 194.159 18.4798 193.94 18.3066 193.566L11.0879 177.379C10.9238 176.987 10.7461 176.791 10.5547 176.791C10.3542 176.791 10.1855 177.014 10.0488 177.461L6.07031 191.297ZM36.5586 202.467C35.0091 202.467 33.6191 202.312 32.3887 202.002C31.1673 201.701 30.1465 201.286 29.3262 200.758C28.515 200.229 27.8405 199.591 27.3027 198.844C26.7741 198.096 26.3913 197.303 26.1543 196.465C25.9264 195.617 25.8125 194.706 25.8125 193.73V173.906H28.041C28.0046 183.176 27.9863 188.503 27.9863 189.889V194.906C27.9863 195.717 28.0957 196.465 28.3145 197.148C28.5423 197.823 28.8385 198.397 29.2031 198.871C29.5677 199.336 30.0007 199.755 30.502 200.129C31.0033 200.493 31.5091 200.785 32.0195 201.004C32.5391 201.223 33.0859 201.405 33.6602 201.551C34.2344 201.688 34.7539 201.783 35.2188 201.838C35.6836 201.883 36.1302 201.906 36.5586 201.906C37.0234 201.906 37.4701 201.893 37.8984 201.865C38.3268 201.838 38.8372 201.77 39.4297 201.66C40.0312 201.551 40.5827 201.41 41.084 201.236C41.5853 201.063 42.0911 200.812 42.6016 200.484C43.1211 200.156 43.5586 199.778 43.9141 199.35C44.2695 198.912 44.5612 198.365 44.7891 197.709C45.0169 197.044 45.1309 196.305 45.1309 195.494V173.906H47.373V198.488C46.4342 199.746 45.0033 200.726 43.0801 201.428C41.166 202.12 38.9922 202.467 36.5586 202.467ZM51.2832 173.906H72.8438V176.395C71.7956 175.939 70.3281 175.506 68.4414 175.096C66.5638 174.676 65.306 174.467 64.668 174.467C64.1393 174.467 63.7565 174.604 63.5195 174.877C63.2917 175.141 63.1777 175.638 63.1777 176.367V201.906H60.9355V176.367C60.9355 175.638 60.8216 175.141 60.5938 174.877C60.3659 174.604 59.9876 174.467 59.459 174.467C58.821 174.467 57.5586 174.676 55.6719 175.096C53.7943 175.506 52.3314 175.939 51.2832 176.395V173.906ZM78.9961 201.906H76.7539V173.906H78.9961V188.631C80.1719 187.264 81.6621 186.234 83.4668 185.541C85.2806 184.839 87.1855 184.488 89.1816 184.488C91.834 184.488 94.1309 185.04 96.0723 186.143V173.906H98.3145V201.906H96.0723V188.412C96.0723 187.41 95.5938 186.648 94.6367 186.129C93.6888 185.6 92.4583 185.336 90.9453 185.336C90.0977 185.336 89.2181 185.423 88.3066 185.596C87.4043 185.769 86.5065 186.02 85.6133 186.348C84.7292 186.667 83.8861 187.081 83.084 187.592C82.291 188.093 81.5892 188.658 80.9785 189.287C80.3678 189.907 79.8848 190.627 79.5293 191.447C79.1738 192.268 78.9961 193.133 78.9961 194.045V201.906ZM115.91 202.467C114.379 202.467 112.907 202.243 111.494 201.797C110.09 201.35 108.81 200.703 107.652 199.855C106.504 198.999 105.501 197.987 104.645 196.82C103.788 195.645 103.122 194.296 102.648 192.773C102.174 191.242 101.938 189.62 101.938 187.906C101.938 186.193 102.174 184.575 102.648 183.053C103.122 181.521 103.788 180.173 104.645 179.006C105.501 177.83 106.504 176.818 107.652 175.971C108.81 175.114 110.09 174.462 111.494 174.016C112.907 173.569 114.379 173.346 115.91 173.346C117.824 173.346 119.633 173.701 121.338 174.412C123.051 175.114 124.537 176.089 125.795 177.338C127.062 178.587 128.064 180.127 128.803 181.959C129.541 183.791 129.91 185.773 129.91 187.906C129.91 190.039 129.541 192.021 128.803 193.854C128.064 195.686 127.062 197.226 125.795 198.475C124.537 199.723 123.051 200.703 121.338 201.414C119.633 202.116 117.824 202.467 115.91 202.467ZM105.096 182.191C104.485 183.951 104.18 185.855 104.18 187.906C104.18 189.957 104.485 191.862 105.096 193.621C105.715 195.38 106.554 196.861 107.611 198.064C108.669 199.268 109.913 200.211 111.344 200.895C112.784 201.569 114.306 201.906 115.91 201.906C117.514 201.906 119.036 201.569 120.477 200.895C121.917 200.211 123.165 199.268 124.223 198.064C125.289 196.861 126.132 195.38 126.752 193.621C127.372 191.862 127.682 189.957 127.682 187.906C127.682 185.855 127.372 183.951 126.752 182.191C126.132 180.432 125.289 178.951 124.223 177.748C123.165 176.545 121.917 175.606 120.477 174.932C119.036 174.248 117.514 173.906 115.91 173.906C114.306 173.906 112.784 174.248 111.344 174.932C109.913 175.606 108.669 176.545 107.611 177.748C106.554 178.951 105.715 180.432 105.096 182.191ZM133.547 201.906V173.906H146.426C147.41 173.906 148.317 174.007 149.146 174.207C149.985 174.408 150.696 174.672 151.279 175C151.872 175.328 152.396 175.72 152.852 176.176C153.316 176.622 153.69 177.087 153.973 177.57C154.255 178.044 154.488 178.55 154.67 179.088C154.861 179.617 154.989 180.109 155.053 180.564C155.126 181.02 155.162 181.462 155.162 181.891C155.162 182.319 155.126 182.761 155.053 183.217C154.989 183.663 154.861 184.151 154.67 184.68C154.488 185.208 154.255 185.71 153.973 186.184C153.69 186.658 153.316 187.122 152.852 187.578C152.396 188.025 151.872 188.412 151.279 188.74C150.696 189.068 149.985 189.337 149.146 189.547C148.317 189.747 147.41 189.852 146.426 189.861H145.619C145.41 189.861 145.259 189.88 145.168 189.916C145.077 189.943 145.04 189.993 145.059 190.066C145.077 190.13 145.127 190.208 145.209 190.299C145.3 190.39 145.437 190.508 145.619 190.654C146.084 191.019 146.594 191.511 147.15 192.131C147.706 192.751 148.189 193.329 148.6 193.867C149.019 194.405 149.62 195.198 150.404 196.246C150.45 196.31 150.486 196.365 150.514 196.41C150.55 196.447 150.591 196.497 150.637 196.561C150.682 196.615 150.723 196.67 150.76 196.725C151.571 197.818 152.464 198.844 153.439 199.801C154.415 200.749 155.249 201.451 155.941 201.906H152.783C152.255 201.587 151.68 201.118 151.061 200.498C150.441 199.869 149.848 199.195 149.283 198.475C148.718 197.745 148.135 196.98 147.533 196.178C146.932 195.367 146.344 194.592 145.77 193.854C145.195 193.115 144.635 192.445 144.088 191.844C143.55 191.242 143.008 190.764 142.461 190.408C141.923 190.044 141.426 189.861 140.971 189.861H138.469V189.301H143.965C146.727 189.301 148.837 188.649 150.295 187.346C151.762 186.033 152.496 184.215 152.496 181.891C152.496 179.566 151.762 177.748 150.295 176.436C148.837 175.123 146.727 174.467 143.965 174.467H137.238C136.691 174.467 136.309 174.581 136.09 174.809C135.871 175.036 135.762 175.51 135.762 176.23L135.789 201.906H133.547ZM158.758 201.906V173.906H161V201.906H158.758ZM186.006 201.906H163.803L182.26 175.643C182.497 175.296 182.561 175.023 182.451 174.822C182.351 174.613 182.091 174.512 181.672 174.521C175.283 174.713 169.96 175.255 165.703 176.148V173.906H186.197L167.754 200.197C167.517 200.544 167.449 200.822 167.549 201.031C167.658 201.232 167.923 201.327 168.342 201.318C176.08 201.063 181.968 200.512 186.006 199.664V201.906ZM189.779 201.906H187.318L196.861 175.219L196.273 173.906H198.748L211.23 201.906H208.77L206.719 197.34C206.281 196.355 205.561 195.48 204.559 194.715C203.565 193.94 202.49 193.361 201.332 192.979C200.174 192.587 199.058 192.391 197.982 192.391C196.132 192.391 194.405 192.969 192.801 194.127C192.5 194.346 192.199 194.71 191.898 195.221C191.607 195.722 191.397 196.205 191.27 196.67L189.779 201.906ZM192.828 191.297C192.691 191.798 192.742 192.049 192.979 192.049C193.097 192.049 193.302 191.976 193.594 191.83C194.688 191.229 195.872 190.928 197.148 190.928C198.415 190.928 199.691 191.201 200.977 191.748C202.271 192.286 203.479 193.01 204.6 193.922C204.919 194.186 205.119 194.286 205.201 194.223C205.283 194.159 205.238 193.94 205.064 193.566L197.846 177.379C197.682 176.987 197.504 176.791 197.312 176.791C197.112 176.791 196.943 177.014 196.807 177.461L192.828 191.297ZM206.268 173.906H227.828V176.395C226.78 175.939 225.312 175.506 223.426 175.096C221.548 174.676 220.29 174.467 219.652 174.467C219.124 174.467 218.741 174.604 218.504 174.877C218.276 175.141 218.162 175.638 218.162 176.367V201.906H215.92V176.367C215.92 175.638 215.806 175.141 215.578 174.877C215.35 174.604 214.972 174.467 214.443 174.467C213.805 174.467 212.543 174.676 210.656 175.096C208.779 175.506 207.316 175.939 206.268 176.395V173.906ZM231.738 201.906V173.906H233.98V201.906H231.738ZM251.59 202.467C250.059 202.467 248.587 202.243 247.174 201.797C245.77 201.35 244.49 200.703 243.332 199.855C242.184 198.999 241.181 197.987 240.324 196.82C239.467 195.645 238.802 194.296 238.328 192.773C237.854 191.242 237.617 189.62 237.617 187.906C237.617 186.193 237.854 184.575 238.328 183.053C238.802 181.521 239.467 180.173 240.324 179.006C241.181 177.83 242.184 176.818 243.332 175.971C244.49 175.114 245.77 174.462 247.174 174.016C248.587 173.569 250.059 173.346 251.59 173.346C253.504 173.346 255.313 173.701 257.018 174.412C258.731 175.114 260.217 176.089 261.475 177.338C262.742 178.587 263.744 180.127 264.482 181.959C265.221 183.791 265.59 185.773 265.59 187.906C265.59 190.039 265.221 192.021 264.482 193.854C263.744 195.686 262.742 197.226 261.475 198.475C260.217 199.723 258.731 200.703 257.018 201.414C255.313 202.116 253.504 202.467 251.59 202.467ZM240.775 182.191C240.165 183.951 239.859 185.855 239.859 187.906C239.859 189.957 240.165 191.862 240.775 193.621C241.395 195.38 242.234 196.861 243.291 198.064C244.348 199.268 245.592 200.211 247.023 200.895C248.464 201.569 249.986 201.906 251.59 201.906C253.194 201.906 254.716 201.569 256.156 200.895C257.596 200.211 258.845 199.268 259.902 198.064C260.969 196.861 261.812 195.38 262.432 193.621C263.051 191.862 263.361 189.957 263.361 187.906C263.361 185.855 263.051 183.951 262.432 182.191C261.812 180.432 260.969 178.951 259.902 177.748C258.845 176.545 257.596 175.606 256.156 174.932C254.716 174.248 253.194 173.906 251.59 173.906C249.986 173.906 248.464 174.248 247.023 174.932C245.592 175.606 244.348 176.545 243.291 177.748C242.234 178.951 241.395 180.432 240.775 182.191ZM269.227 201.906V173.906H271.523C276.71 181.262 282.661 189.679 289.379 199.158C289.579 199.441 289.757 199.582 289.912 199.582C290.131 199.582 290.227 199.34 290.199 198.857L288.518 173.906H290.869V201.906H288.627C287.406 200.184 284.781 196.492 280.752 190.832C276.732 185.163 273.383 180.437 270.703 176.654C270.503 176.372 270.325 176.23 270.17 176.23C269.96 176.23 269.869 176.472 269.896 176.955L271.578 201.906H269.227Z" fill="#383637"/>
<path d="M0.352 237.906L4.992 226.706H5.92L10.56 237.906H9.536L8.368 235.09H2.544L1.392 237.906H0.352ZM2.928 234.194H8L5.456 228.034L2.928 234.194ZM15.7926 238.114C13.3126 238.114 11.5686 236.306 11.5686 233.762C11.5686 231.218 13.3126 229.426 15.7926 229.426C17.7606 229.426 19.3766 230.594 19.8566 232.386H18.9126C18.3686 231.074 17.2166 230.322 15.7926 230.322C13.8406 230.322 12.4966 231.73 12.4966 233.762C12.4966 235.81 13.8406 237.218 15.7926 237.218C17.3126 237.218 18.4966 236.37 18.9606 235.01H19.9366C19.3766 236.946 17.8246 238.114 15.7926 238.114ZM22.4605 237.906V226.066H23.3885V233.266H24.6045C26.1405 233.266 26.8125 232.866 27.3405 231.474L28.0445 229.634H29.0365L28.2045 231.826C27.8365 232.754 27.4045 233.346 26.7485 233.698L29.4365 237.906H28.3325L25.8845 234.018C25.5005 234.098 25.0685 234.13 24.5725 234.13H23.3885V237.906H22.4605ZM31.7261 237.906V229.634H32.5101L32.5901 231.234C33.2461 230.05 34.3981 229.426 35.7261 229.426C37.8861 229.426 39.2141 230.946 39.2141 233.33V237.906H38.2861V233.41C38.2861 231.506 37.2621 230.322 35.6141 230.322C33.8701 230.322 32.6541 231.65 32.6541 233.618V237.906H31.7261ZM45.9675 238.114C43.4075 238.114 41.6155 236.322 41.6155 233.762C41.6155 231.218 43.4075 229.426 45.9675 229.426C48.5115 229.426 50.3035 231.218 50.3035 233.762C50.3035 236.322 48.5115 238.114 45.9675 238.114ZM42.5435 233.762C42.5435 235.81 43.9355 237.218 45.9675 237.218C47.9835 237.218 49.3755 235.81 49.3755 233.762C49.3755 231.73 47.9835 230.322 45.9675 230.322C43.9355 230.322 42.5435 231.73 42.5435 233.762ZM54.2499 237.906L51.2739 229.634H52.2659L54.7139 236.514L55.8819 233.506L57.3699 229.634H58.2339L59.7379 233.506L60.9059 236.514L63.3699 229.634H64.3459L61.3539 237.906H60.4579L59.0339 234.21L57.8019 230.994L55.1459 237.906H54.2499ZM66.3511 237.906V226.066H67.2791V237.906H66.3511ZM74.0739 238.114C71.5619 238.114 69.8499 236.338 69.8499 233.762C69.8499 231.202 71.5779 229.426 74.0899 229.426C76.6979 229.426 78.3779 231.346 78.3139 234.146H70.7939C70.9539 236.018 72.2339 237.234 74.0739 237.234C75.4179 237.234 76.4899 236.61 77.0339 235.538L78.0739 235.554C77.4339 237.138 75.9299 238.114 74.0739 238.114ZM70.7939 233.33H77.4019C77.1779 231.458 75.8979 230.306 74.0899 230.306C72.2499 230.306 70.9539 231.506 70.7939 233.33ZM84.3711 238.114C81.8751 238.114 80.1311 236.274 80.1311 233.762C80.1311 231.25 81.8751 229.426 84.3711 229.426C85.8911 229.426 87.1231 230.098 87.8591 231.17V226.066H88.7871V237.906H88.0191L87.9071 236.274C87.1871 237.41 85.9231 238.114 84.3711 238.114ZM81.0591 233.762C81.0591 235.794 82.4511 237.218 84.4831 237.218C86.4991 237.218 87.8911 235.794 87.8911 233.762C87.8911 231.746 86.4991 230.322 84.4831 230.322C82.4511 230.322 81.0591 231.746 81.0591 233.762ZM95.7175 241.314C93.6855 241.314 92.1815 240.242 91.8615 238.562H92.8055C93.0775 239.714 94.1975 240.434 95.7175 240.434C97.6215 240.434 98.8375 239.314 98.8375 237.538V236.194C98.1015 237.202 96.9175 237.81 95.5095 237.81C93.0935 237.81 91.3655 236.05 91.3655 233.618C91.3655 231.186 93.0935 229.426 95.5095 229.426C96.9655 229.426 98.1655 230.066 98.9015 231.122L98.9815 229.634H99.7655V237.57C99.7655 239.794 98.1335 241.314 95.7175 241.314ZM92.2935 233.618C92.2935 235.554 93.6535 236.898 95.6055 236.898C97.5415 236.898 98.9015 235.554 98.9015 233.618C98.9015 231.682 97.5415 230.322 95.6055 230.322C93.6535 230.322 92.2935 231.682 92.2935 233.618ZM106.558 238.114C104.046 238.114 102.334 236.338 102.334 233.762C102.334 231.202 104.062 229.426 106.574 229.426C109.182 229.426 110.862 231.346 110.798 234.146H103.278C103.438 236.018 104.718 237.234 106.558 237.234C107.902 237.234 108.974 236.61 109.518 235.538L110.558 235.554C109.918 237.138 108.414 238.114 106.558 238.114ZM103.278 233.33H109.886C109.662 231.458 108.382 230.306 106.574 230.306C104.734 230.306 103.438 231.506 103.278 233.33ZM113.336 237.906V229.634H114.12L114.2 230.978C114.776 229.97 115.784 229.426 117.064 229.426C118.504 229.426 119.608 230.146 120.088 231.41C120.648 230.146 121.784 229.426 123.24 229.426C125.32 229.426 126.664 230.85 126.664 233.154V237.906H125.736V233.298C125.736 231.458 124.712 230.322 123.128 230.322C121.512 230.322 120.456 231.49 120.456 233.362V237.906H119.528V233.298C119.528 231.458 118.52 230.322 116.936 230.322C115.32 230.322 114.264 231.49 114.264 233.362V237.906H113.336ZM133.277 238.114C130.765 238.114 129.053 236.338 129.053 233.762C129.053 231.202 130.781 229.426 133.293 229.426C135.901 229.426 137.581 231.346 137.517 234.146H129.997C130.157 236.018 131.437 237.234 133.277 237.234C134.621 237.234 135.693 236.61 136.237 235.538L137.277 235.554C136.637 237.138 135.133 238.114 133.277 238.114ZM129.997 233.33H136.605C136.381 231.458 135.101 230.306 133.293 230.306C131.453 230.306 130.157 231.506 129.997 233.33ZM140.054 237.906V229.634H140.838L140.918 231.234C141.574 230.05 142.726 229.426 144.054 229.426C146.214 229.426 147.542 230.946 147.542 233.33V237.906H146.614V233.41C146.614 231.506 145.59 230.322 143.942 230.322C142.198 230.322 140.982 231.65 140.982 233.618V237.906H140.054ZM153.758 237.906C151.998 237.906 151.054 236.914 151.054 235.042V230.482H149.246V229.634H150.302C150.926 229.634 151.102 229.474 151.166 228.866L151.246 227.602H151.982V229.634H154.846V230.482H151.982V235.01C151.982 236.37 152.542 237.01 153.79 237.01H154.958V237.906H153.758ZM164.702 238.114C162.43 238.114 161.022 237.01 161.022 235.186C161.022 233.81 161.822 232.77 163.486 232.018C162.51 230.946 161.934 230.05 161.934 229.042C161.934 227.522 163.198 226.498 165.054 226.498C166.926 226.498 168.19 227.57 168.19 229.122C168.19 230.514 167.214 231.522 165.07 232.338L168.094 235.442C168.542 234.674 168.782 233.682 168.798 232.482H169.726C169.71 233.97 169.39 235.202 168.766 236.13L170.51 237.906H169.262L168.206 236.818C167.358 237.666 166.174 238.114 164.702 238.114ZM161.95 235.17C161.95 236.45 163.006 237.218 164.718 237.218C165.902 237.218 166.862 236.85 167.534 236.162L164.142 232.69C162.67 233.298 161.95 234.13 161.95 235.17ZM162.846 229.042C162.846 229.746 163.278 230.466 164.414 231.666C166.462 230.882 167.278 230.162 167.278 229.122C167.278 228.05 166.414 227.362 165.054 227.362C163.71 227.362 162.846 228.018 162.846 229.042ZM181.282 238.114C177.986 238.114 175.602 235.714 175.602 232.306C175.602 228.898 177.986 226.498 181.282 226.498C183.842 226.498 185.938 227.986 186.674 230.338H185.65C185.01 228.562 183.346 227.474 181.298 227.474C178.562 227.474 176.594 229.442 176.594 232.306C176.594 235.17 178.562 237.138 181.298 237.138C183.394 237.138 185.122 236.002 185.746 234.146H186.77C186.082 236.562 183.922 238.114 181.282 238.114ZM192.905 238.114C190.345 238.114 188.553 236.322 188.553 233.762C188.553 231.218 190.345 229.426 192.905 229.426C195.449 229.426 197.241 231.218 197.241 233.762C197.241 236.322 195.449 238.114 192.905 238.114ZM189.481 233.762C189.481 235.81 190.873 237.218 192.905 237.218C194.921 237.218 196.313 235.81 196.313 233.762C196.313 231.73 194.921 230.322 192.905 230.322C190.873 230.322 189.481 231.73 189.481 233.762ZM199.82 237.906V229.634H200.604L200.684 231.234C201.34 230.05 202.492 229.426 203.82 229.426C205.98 229.426 207.308 230.946 207.308 233.33V237.906H206.38V233.41C206.38 231.506 205.356 230.322 203.708 230.322C201.964 230.322 200.748 231.65 200.748 233.618V237.906H199.82ZM213.277 238.114C211.181 238.114 209.853 237.058 209.789 235.41H210.701C210.797 236.578 211.709 237.266 213.293 237.266C214.749 237.266 215.629 236.706 215.629 235.794C215.629 234.93 214.845 234.402 213.085 234.098C210.925 233.73 209.949 232.962 209.949 231.698C209.949 230.29 211.149 229.426 213.085 229.426C215.037 229.426 216.269 230.354 216.397 231.938H215.469C215.373 230.85 214.525 230.258 213.085 230.258C211.709 230.258 210.877 230.818 210.877 231.714C210.877 232.53 211.565 232.978 213.405 233.33C215.501 233.73 216.541 234.562 216.541 235.81C216.541 237.202 215.277 238.114 213.277 238.114ZM222.73 238.114C220.218 238.114 218.506 236.338 218.506 233.762C218.506 231.202 220.234 229.426 222.746 229.426C225.354 229.426 227.034 231.346 226.97 234.146H219.45C219.61 236.018 220.89 237.234 222.73 237.234C224.074 237.234 225.146 236.61 225.69 235.538L226.73 235.554C226.09 237.138 224.586 238.114 222.73 238.114ZM219.45 233.33H226.058C225.834 231.458 224.554 230.306 222.746 230.306C220.906 230.306 219.61 231.506 219.45 233.33ZM229.507 237.906V229.634H230.291L230.371 231.234C231.027 230.05 232.179 229.426 233.507 229.426C235.667 229.426 236.995 230.946 236.995 233.33V237.906H236.067V233.41C236.067 231.506 235.043 230.322 233.395 230.322C231.651 230.322 230.435 231.65 230.435 233.618V237.906H229.507ZM243.211 237.906C241.451 237.906 240.507 236.914 240.507 235.042V230.482H238.699V229.634H239.755C240.379 229.634 240.555 229.474 240.619 228.866L240.699 227.602H241.435V229.634H244.299V230.482H241.435V235.01C241.435 236.37 241.995 237.01 243.243 237.01H244.411V237.906H243.211Z" fill="#5B5852"/>
</svg>
