<svg width="366" height="283" viewBox="0 0 366 283" fill="none" xmlns="http://www.w3.org/2000/svg">
<path d="M39.9453 0.321289C39.6338 1.16044 39.3391 1.99171 39.0156 2.74316C37.3342 6.65348 35.4723 10.4771 33.9385 14.4443C32.7574 17.4977 31.6991 20.6355 30.6328 23.7188C31.3354 23.7132 31.259 22.7499 31.4941 22.2021C31.6174 21.9172 32.0982 21.1689 32.3633 21.0469C32.7734 20.8598 33.5277 21.1803 33.4648 21.625C32.642 23.5828 32.2598 25.6845 31.5244 27.6748C30.9011 29.3615 30.3349 31.0402 29.7197 32.7432C27.8688 37.8601 25.5552 42.9445 23.8164 48.0615C21.3449 55.337 19.42 62.8133 16.6504 69.9912C15.4803 73.0229 14.8241 76.0493 13.8535 79.1162C13.2794 80.9276 12.3035 83.3685 12.041 85.1826C11.9864 85.5649 12.0908 85.9961 12.0088 86.3594C11.954 86.5953 11.5984 87.029 11.4727 87.3408C10.7727 89.0872 10.0205 92.7534 9.71973 94.6787C9.63498 95.2237 9.64093 96.753 9.46875 97.0488C9.30749 97.3226 9.13502 97.2523 9.08301 96.9678C8.99552 96.477 9.04434 95.0989 9.07715 94.543C9.17013 93.0326 9.56976 91.4976 9.78027 89.998C9.94699 88.8106 9.85908 88.6555 10.3184 87.5059C10.7776 86.3535 10.9012 85.4557 11.1035 84.249C12.2136 77.5973 14.6663 71.7294 16.375 65.2783C16.6949 64.0662 17.2227 62.3848 17.3184 61.1699C17.3266 61.0587 17.3944 60.7961 17.2197 60.8203C15.0243 69.0448 11.8476 76.9819 9.62207 85.1982C8.86474 87.9995 8.15387 90.8419 7.86133 93.7354C7.81217 94.2153 7.91834 94.7605 7.85547 95.2432C7.78431 95.7935 7.47853 96.4821 7.38281 97.0947C7.0192 99.4647 7.0871 103.687 7.98926 105.916C8.77393 107.855 9.73689 107.977 11.1641 109.219C11.6341 109.628 12.2528 110.357 12.9062 110.906H0V45.7666C0 22.4516 17.4142 3.20438 39.9453 0.321289ZM50.0527 77.2129C50.1184 77.137 50.441 76.6321 50.5586 76.7568C47.7972 82.1179 45.3284 87.7611 44.1035 93.6943C42.9005 99.5164 43.056 103.598 45.9678 108.889C46.3353 109.556 46.9382 110.255 47.6699 110.906H16.7666C18.7844 110.166 21.1762 109.112 22.8105 108.159C23.1084 107.986 24.3901 107.129 24.4922 106.896C24.5441 106.776 24.2899 106.675 24.3418 106.461C24.4214 106.133 25.1152 105.767 25.293 105.577C25.6483 105.198 25.8808 104.696 26.3125 104.271C26.5886 103.997 27.7477 103.018 28.0488 102.969C28.8827 102.833 30.157 103.831 30.1133 102.627C29.1618 102.041 29.5202 101.447 30.5127 101.371C30.7918 101.35 31.6414 101.821 31.5107 101.149C31.3494 100.32 31.1636 100.29 31.9072 99.6416C33.1402 98.5678 35.1169 97.4341 35.4014 95.6445C35.4369 95.4141 35.2016 95.2215 35.5186 94.9531C36.3169 94.2779 37.894 95.0664 38.3916 93.6699C38.4709 93.4503 38.4463 93.1356 38.5557 92.9512C38.6186 92.8454 38.8569 92.7883 38.9717 92.6338C39.3732 92.0832 39.0835 90.8335 39.1709 90.1611L38.5615 90.0088L39.1191 89.5586C39.3267 89.6426 39.2399 90.0244 39.2725 90.0576C39.3244 90.1119 39.8578 90.0332 39.959 89.9355C40.0385 89.855 40.234 89.2001 40.1855 89.1553H39.7285C39.5344 88.8109 40.0708 88.6075 40.2295 88.3418C40.3498 88.1385 40.355 87.8671 40.4697 87.6719C41.197 86.4489 42.4302 85.9171 43.3379 84.9707C43.6058 84.6914 43.756 84.3361 44.0977 84.0107C44.2917 83.8264 44.6309 83.6939 44.7568 83.5557C44.94 83.3523 44.9129 83.0536 45.0469 82.834C45.7523 81.6599 47.4198 80.4534 48.374 79.377C48.9755 78.6964 49.465 77.9071 50.0527 77.2129ZM47.9854 0C72.2842 1.13123 91.6377 21.188 91.6377 45.7666V110.906H62.749C63.428 110.409 63.8634 109.705 64.5977 109.181C65.6665 108.419 66.9378 108.08 67.9766 107.392C74.2649 103.21 80.7424 96.9481 85.6309 91.2236C87.438 89.1085 90.2399 86.0147 91.123 83.4658C91.3773 82.7337 91.6917 81.9826 91.6289 81.1963L91.6348 81.1904C91.4926 81.1796 91.3584 81.1902 91.2217 81.2363C90.8362 81.3719 88.4033 84.0919 87.9219 84.6182C82.2706 90.7873 77.1112 97.8434 69.9727 102.407C66.2571 104.783 62.4297 106.35 58.3916 108.062C56.579 108.829 52.9811 109.308 51.0508 108.988C49.2819 108.695 48.716 108.46 48.2539 106.719C47.8875 105.341 47.3264 102.261 47.3154 100.886C47.31 100.04 47.7477 98.9331 47.9062 98.0654C49.2624 90.5947 52.9266 81.6701 57.249 75.3682C59.2202 72.4913 61.178 70.7337 63.5264 68.2852C64.4858 67.2846 65.2292 66.0833 66.1641 65.0557C68.0751 62.9568 70.3718 61.2349 72.7285 59.6621L72.9502 59.6299C73.713 59.9905 74.4239 60.0558 74.957 60.7744C76.8786 63.3614 72.8762 67.1357 71.583 69.2236C71.4135 69.5599 71.3731 70.0757 71.6328 70.374C71.7726 70.5364 72.2416 70.6796 72.4658 70.7041C73.0973 70.7746 75.0087 70.7914 75.6104 70.6992C77.2945 70.4389 79.4707 66.0971 79.6895 64.5596C80.2854 60.3647 77.3085 57.5312 73.3525 56.9209C71.7834 56.6796 71.7937 56.994 70.5283 57.1865C68.8469 57.4441 68.0943 57.0377 66.3828 58.0166C62.7247 60.1156 57.8578 65.3436 55.3535 68.7549C54.0249 70.5662 53.0904 72.7115 51.625 74.333C50.5615 75.5126 49.3366 76.5809 48.2676 77.7578C46.4221 79.7916 44.7673 82.0095 42.8809 84.0107C41.3006 85.692 39.4257 87.2436 37.8975 88.9492C34.696 92.5205 31.8002 95.4244 28.041 98.4316C27.2563 99.058 26.6081 99.8472 25.8535 100.498C23.2809 102.708 19.9129 105.255 16.9355 106.879C15.6123 107.6 14.1849 108.647 13.3701 106.824C12.5583 105.004 12.7682 100.744 12.9404 98.6836C13.0171 97.7673 13.4496 96.9052 13.5371 95.9482C13.6574 94.6385 13.5479 93.6317 13.9307 92.3057C14.286 91.0776 14.521 90.3237 14.7998 89.0332C15.2919 86.7581 16.0161 85.1254 16.6504 83.0049C17.7549 79.3143 18.5732 75.4827 19.8555 71.8652C21.9743 65.8861 23.7152 59.7791 25.8477 53.8135C28.5325 46.3075 31.683 38.9531 34.417 31.458C35.2481 29.1748 36.1558 26.9319 37.0088 24.6514C38.9035 19.5723 40.8413 14.4411 43.25 9.56543C44.2233 7.59137 45.399 6.17858 46.4707 4.3916C46.8665 3.73277 47.6789 1.32218 47.9854 0ZM8.88867 99.9854H8.8916L8.58301 100.04C8.38895 99.7039 8.60436 99.3915 8.98145 99.3398L8.88867 99.9854ZM37.0908 91.4736C37.2136 91.4086 37.2818 91.3355 37.4482 91.376C37.4018 91.7013 37.5632 92.2946 37.3477 92.5361L37.1641 92.6699C36.8562 92.8839 36.271 93.273 36.1992 93.3096C35.8958 93.4641 35.5509 93.5183 35.2119 93.4912C34.9774 93.282 36.8229 91.6119 37.0908 91.4736ZM47.4385 87.3135C47.2581 87.7933 46.873 86.7859 47.4111 86.8369L47.4385 87.3135ZM47.7207 85.2256C47.9665 85.1797 48.0021 85.4263 48.125 85.5781H48.1221L47.9717 85.7275L47.7314 85.5645L47.7207 85.2256ZM48.4287 83.3086C48.5244 83.2463 48.7645 83.3306 48.8301 83.458L48.4775 84.1113C48.2126 84.0297 48.3713 83.3436 48.4287 83.3057V83.3086ZM50.46 79.9814C50.4846 80.3584 50.4815 80.9518 49.9512 80.8867C49.9293 80.461 49.9187 79.9815 50.46 79.9814ZM51.2666 77.9229C51.286 77.8229 51.5444 77.8499 51.5752 77.8662C51.7801 77.999 51.5594 78.5652 51.3271 78.666C51.0565 78.4708 51.19 78.164 51.2666 77.9199V77.9229ZM53.3086 74.5361C53.2813 74.8588 53.4396 75.0921 53.3467 75.4229C53.2236 75.8648 52.6884 76.2196 52.5381 75.6475C52.454 75.3272 53.1908 74.3957 53.3086 74.5361ZM35.2891 13.8584C36.1035 13.6905 35.9966 14.6499 35.4443 14.7285C34.843 14.815 34.6439 13.9913 35.2891 13.8584ZM36.7402 11.8223C36.5762 11.1226 36.4427 10.2845 37.457 10.5557C37.7604 11.117 37.4155 11.8412 36.7402 11.8223Z" fill="#BCBFAD"/>
<path d="M4.48438 162.906H2.24219V134.906H4.48438V149.631C5.66016 148.264 7.15039 147.234 8.95508 146.541C10.7689 145.839 12.6738 145.488 14.6699 145.488C17.3223 145.488 19.6191 146.04 21.5605 147.143V134.906H23.8027V162.906H21.5605V149.412C21.5605 148.41 21.082 147.648 20.125 147.129C19.1771 146.6 17.9466 146.336 16.4336 146.336C15.5859 146.336 14.7064 146.423 13.7949 146.596C12.8926 146.769 11.9948 147.02 11.1016 147.348C10.2174 147.667 9.37435 148.081 8.57227 148.592C7.7793 149.093 7.07747 149.658 6.4668 150.287C5.85612 150.907 5.37305 151.627 5.01758 152.447C4.66211 153.268 4.48438 154.133 4.48438 155.045V162.906ZM41.3984 163.467C39.8672 163.467 38.3952 163.243 36.9824 162.797C35.5788 162.35 34.2982 161.703 33.1406 160.855C31.9922 159.999 30.9896 158.987 30.1328 157.82C29.276 156.645 28.6107 155.296 28.1367 153.773C27.6628 152.242 27.4258 150.62 27.4258 148.906C27.4258 147.193 27.6628 145.575 28.1367 144.053C28.6107 142.521 29.276 141.173 30.1328 140.006C30.9896 138.83 31.9922 137.818 33.1406 136.971C34.2982 136.114 35.5788 135.462 36.9824 135.016C38.3952 134.569 39.8672 134.346 41.3984 134.346C43.3125 134.346 45.1217 134.701 46.8262 135.412C48.5397 136.114 50.0254 137.089 51.2832 138.338C52.5501 139.587 53.5527 141.127 54.291 142.959C55.0293 144.791 55.3984 146.773 55.3984 148.906C55.3984 151.039 55.0293 153.021 54.291 154.854C53.5527 156.686 52.5501 158.226 51.2832 159.475C50.0254 160.723 48.5397 161.703 46.8262 162.414C45.1217 163.116 43.3125 163.467 41.3984 163.467ZM30.584 143.191C29.9733 144.951 29.668 146.855 29.668 148.906C29.668 150.957 29.9733 152.862 30.584 154.621C31.2038 156.38 32.0423 157.861 33.0996 159.064C34.1569 160.268 35.401 161.211 36.832 161.895C38.2721 162.569 39.7943 162.906 41.3984 162.906C43.0026 162.906 44.5247 162.569 45.9648 161.895C47.4049 161.211 48.6536 160.268 49.7109 159.064C50.7773 157.861 51.6204 156.38 52.2402 154.621C52.86 152.862 53.1699 150.957 53.1699 148.906C53.1699 146.855 52.86 144.951 52.2402 143.191C51.6204 141.432 50.7773 139.951 49.7109 138.748C48.6536 137.545 47.4049 136.606 45.9648 135.932C44.5247 135.248 43.0026 134.906 41.3984 134.906C39.7943 134.906 38.2721 135.248 36.832 135.932C35.401 136.606 34.1569 137.545 33.0996 138.748C32.0423 139.951 31.2038 141.432 30.584 143.191ZM59.0352 162.906V134.906H71.9141C72.8984 134.906 73.8053 135.007 74.6348 135.207C75.4733 135.408 76.1842 135.672 76.7676 136C77.36 136.328 77.8841 136.72 78.3398 137.176C78.8047 137.622 79.1784 138.087 79.4609 138.57C79.7435 139.044 79.9759 139.55 80.1582 140.088C80.3496 140.617 80.4772 141.109 80.541 141.564C80.6139 142.02 80.6504 142.462 80.6504 142.891C80.6504 143.319 80.6139 143.761 80.541 144.217C80.4772 144.663 80.3496 145.151 80.1582 145.68C79.9759 146.208 79.7435 146.71 79.4609 147.184C79.1784 147.658 78.8047 148.122 78.3398 148.578C77.8841 149.025 77.36 149.412 76.7676 149.74C76.1842 150.068 75.4733 150.337 74.6348 150.547C73.8053 150.747 72.8984 150.852 71.9141 150.861H71.1074C70.8978 150.861 70.7474 150.88 70.6562 150.916C70.5651 150.943 70.5286 150.993 70.5469 151.066C70.5651 151.13 70.6152 151.208 70.6973 151.299C70.7884 151.39 70.9251 151.508 71.1074 151.654C71.5723 152.019 72.0827 152.511 72.6387 153.131C73.1947 153.751 73.6777 154.329 74.0879 154.867C74.5072 155.405 75.1087 156.198 75.8926 157.246C75.9382 157.31 75.9746 157.365 76.002 157.41C76.0384 157.447 76.0794 157.497 76.125 157.561C76.1706 157.615 76.2116 157.67 76.248 157.725C77.0592 158.818 77.9525 159.844 78.9277 160.801C79.903 161.749 80.737 162.451 81.4297 162.906H78.2715C77.7428 162.587 77.1686 162.118 76.5488 161.498C75.929 160.869 75.3366 160.195 74.7715 159.475C74.2064 158.745 73.623 157.98 73.0215 157.178C72.4199 156.367 71.832 155.592 71.2578 154.854C70.6836 154.115 70.123 153.445 69.5762 152.844C69.0384 152.242 68.4961 151.764 67.9492 151.408C67.4115 151.044 66.9147 150.861 66.459 150.861H63.957V150.301H69.4531C72.2148 150.301 74.3249 149.649 75.7832 148.346C77.2507 147.033 77.9844 145.215 77.9844 142.891C77.9844 140.566 77.2507 138.748 75.7832 137.436C74.3249 136.123 72.2148 135.467 69.4531 135.467H62.7266C62.1797 135.467 61.7969 135.581 61.5781 135.809C61.3594 136.036 61.25 136.51 61.25 137.23L61.2773 162.906H59.0352ZM86.5977 162.906H84.2461V134.906H86.543L95.7852 152.215C95.9766 152.589 96.1908 152.775 96.4277 152.775C96.6465 152.775 96.8516 152.579 97.043 152.188L105.137 134.906H107.707V162.906H105.355V137.955C105.355 137.718 105.324 137.536 105.26 137.408C105.196 137.271 105.114 137.203 105.014 137.203C104.859 137.203 104.704 137.354 104.549 137.654C104.403 137.919 103.596 139.614 102.129 142.74C100.671 145.857 99.2441 148.911 97.8496 151.9L95.7578 156.385C89.3503 144.363 86.0052 138.119 85.7227 137.654C85.5677 137.354 85.4036 137.203 85.2305 137.203C85.1302 137.203 85.0482 137.271 84.9844 137.408C84.9297 137.545 84.9069 137.727 84.916 137.955L86.5977 162.906ZM125.316 163.467C123.785 163.467 122.313 163.243 120.9 162.797C119.497 162.35 118.216 161.703 117.059 160.855C115.91 159.999 114.908 158.987 114.051 157.82C113.194 156.645 112.529 155.296 112.055 153.773C111.581 152.242 111.344 150.62 111.344 148.906C111.344 147.193 111.581 145.575 112.055 144.053C112.529 142.521 113.194 141.173 114.051 140.006C114.908 138.83 115.91 137.818 117.059 136.971C118.216 136.114 119.497 135.462 120.9 135.016C122.313 134.569 123.785 134.346 125.316 134.346C127.23 134.346 129.04 134.701 130.744 135.412C132.458 136.114 133.943 137.089 135.201 138.338C136.468 139.587 137.471 141.127 138.209 142.959C138.947 144.791 139.316 146.773 139.316 148.906C139.316 151.039 138.947 153.021 138.209 154.854C137.471 156.686 136.468 158.226 135.201 159.475C133.943 160.723 132.458 161.703 130.744 162.414C129.04 163.116 127.23 163.467 125.316 163.467ZM114.502 143.191C113.891 144.951 113.586 146.855 113.586 148.906C113.586 150.957 113.891 152.862 114.502 154.621C115.122 156.38 115.96 157.861 117.018 159.064C118.075 160.268 119.319 161.211 120.75 161.895C122.19 162.569 123.712 162.906 125.316 162.906C126.921 162.906 128.443 162.569 129.883 161.895C131.323 161.211 132.572 160.268 133.629 159.064C134.695 157.861 135.538 156.38 136.158 154.621C136.778 152.862 137.088 150.957 137.088 148.906C137.088 146.855 136.778 144.951 136.158 143.191C135.538 141.432 134.695 139.951 133.629 138.748C132.572 137.545 131.323 136.606 129.883 135.932C128.443 135.248 126.921 134.906 125.316 134.906C123.712 134.906 122.19 135.248 120.75 135.932C119.319 136.606 118.075 137.545 117.018 138.748C115.96 139.951 115.122 141.432 114.502 143.191ZM142.953 162.906V134.906H145.25C150.436 142.262 156.388 150.679 163.105 160.158C163.306 160.441 163.484 160.582 163.639 160.582C163.857 160.582 163.953 160.34 163.926 159.857L162.244 134.906H164.596V162.906H162.354C161.132 161.184 158.507 157.492 154.479 151.832C150.459 146.163 147.109 141.437 144.43 137.654C144.229 137.372 144.051 137.23 143.896 137.23C143.687 137.23 143.596 137.472 143.623 137.955L145.305 162.906H142.953ZM169.066 162.906V134.906H188.467V137.395C187.027 136.911 184.68 136.469 181.426 136.068C178.181 135.667 175.292 135.467 172.758 135.467C172.229 135.467 171.851 135.604 171.623 135.877C171.395 136.141 171.281 136.638 171.281 137.367V146.213C171.281 146.632 171.409 146.974 171.664 147.238C171.919 147.493 172.257 147.621 172.676 147.621H185.719V149.973C184.042 149.562 181.836 149.18 179.102 148.824C176.367 148.469 174.234 148.291 172.703 148.291C172.275 148.291 171.933 148.396 171.678 148.605C171.432 148.815 171.309 149.12 171.309 149.521L171.281 160.445C171.281 161.174 171.395 161.676 171.623 161.949C171.851 162.214 172.229 162.346 172.758 162.346C175.292 162.346 178.181 162.145 181.426 161.744C184.68 161.343 187.027 160.901 188.467 160.418V162.906H169.066ZM2.24219 173.906H15.1211C16.1055 173.906 17.0124 174.007 17.8418 174.207C18.6803 174.408 19.3913 174.672 19.9746 175C20.5671 175.328 21.0911 175.72 21.5469 176.176C22.0117 176.622 22.3854 177.087 22.668 177.57C22.9505 178.044 23.1829 178.55 23.3652 179.088C23.5566 179.617 23.6842 180.109 23.748 180.564C23.821 181.02 23.8574 181.462 23.8574 181.891C23.8574 182.319 23.821 182.761 23.748 183.217C23.6842 183.673 23.5566 184.165 23.3652 184.693C23.1829 185.222 22.9505 185.728 22.668 186.211C22.3854 186.685 22.0117 187.15 21.5469 187.605C21.0911 188.052 20.5671 188.439 19.9746 188.768C19.3913 189.096 18.6803 189.36 17.8418 189.561C17.0124 189.761 16.1055 189.861 15.1211 189.861H4.48438V201.906H2.24219V173.906ZM4.48438 187.906C4.48438 188.326 4.61198 188.663 4.86719 188.918C5.1224 189.173 5.45964 189.301 5.87891 189.301H12.6602C15.4219 189.301 17.5319 188.649 18.9902 187.346C20.4577 186.033 21.1914 184.215 21.1914 181.891C21.1914 179.566 20.4577 177.743 18.9902 176.422C17.5319 175.1 15.4219 174.439 12.6602 174.439C11.8398 174.439 10.5957 174.444 8.92773 174.453C7.25977 174.462 6.27083 174.467 5.96094 174.467C5.43229 174.467 5.05404 174.604 4.82617 174.877C4.59831 175.141 4.48438 175.638 4.48438 176.367V187.906ZM27.6172 201.906V173.906H47.0176V176.395C45.5775 175.911 43.2305 175.469 39.9766 175.068C36.7318 174.667 33.8424 174.467 31.3086 174.467C30.7799 174.467 30.4017 174.604 30.1738 174.877C29.946 175.141 29.832 175.638 29.832 176.367V185.213C29.832 185.632 29.9596 185.974 30.2148 186.238C30.4701 186.493 30.8073 186.621 31.2266 186.621H44.2695V188.973C42.5924 188.562 40.3867 188.18 37.6523 187.824C34.918 187.469 32.7852 187.291 31.2539 187.291C30.8255 187.291 30.4837 187.396 30.2285 187.605C29.9824 187.815 29.8594 188.12 29.8594 188.521L29.832 199.445C29.832 200.174 29.946 200.676 30.1738 200.949C30.4017 201.214 30.7799 201.346 31.3086 201.346C33.8424 201.346 36.7318 201.145 39.9766 200.744C43.2305 200.343 45.5775 199.901 47.0176 199.418V201.906H27.6172ZM70.3418 201.906H50.9414V173.906H53.1562V199.445C53.1562 200.174 53.2702 200.676 53.498 200.949C53.7259 201.214 54.1042 201.346 54.6328 201.346C57.1667 201.346 60.056 201.145 63.3008 200.744C66.5547 200.343 68.9017 199.901 70.3418 199.418V201.906ZM93.2285 201.906H73.8281V173.906H76.043V199.445C76.043 200.174 76.1569 200.676 76.3848 200.949C76.6126 201.214 76.9909 201.346 77.5195 201.346C80.0534 201.346 82.9427 201.145 86.1875 200.744C89.4414 200.343 91.7884 199.901 93.2285 199.418V201.906ZM96.7148 201.906V173.906H116.115V176.395C114.675 175.911 112.328 175.469 109.074 175.068C105.829 174.667 102.94 174.467 100.406 174.467C99.8776 174.467 99.4993 174.604 99.2715 174.877C99.0436 175.141 98.9297 175.638 98.9297 176.367V185.213C98.9297 185.632 99.0573 185.974 99.3125 186.238C99.5677 186.493 99.9049 186.621 100.324 186.621H113.367V188.973C111.69 188.562 109.484 188.18 106.75 187.824C104.016 187.469 101.883 187.291 100.352 187.291C99.9232 187.291 99.5814 187.396 99.3262 187.605C99.0801 187.815 98.957 188.12 98.957 188.521L98.9297 199.445C98.9297 200.174 99.0436 200.676 99.2715 200.949C99.4993 201.214 99.8776 201.346 100.406 201.346C102.94 201.346 105.829 201.145 109.074 200.744C112.328 200.343 114.675 199.901 116.115 199.418V201.906H96.7148ZM119.479 173.906H141.039V176.395C139.991 175.939 138.523 175.506 136.637 175.096C134.759 174.676 133.501 174.467 132.863 174.467C132.335 174.467 131.952 174.604 131.715 174.877C131.487 175.141 131.373 175.638 131.373 176.367V201.906H129.131V176.367C129.131 175.638 129.017 175.141 128.789 174.877C128.561 174.604 128.183 174.467 127.654 174.467C127.016 174.467 125.754 174.676 123.867 175.096C121.99 175.506 120.527 175.939 119.479 176.395V173.906ZM1.68164 212.906H23.2422V215.395C22.194 214.939 20.7266 214.506 18.8398 214.096C16.9622 213.676 15.7044 213.467 15.0664 213.467C14.5378 213.467 14.1549 213.604 13.918 213.877C13.6901 214.141 13.5762 214.638 13.5762 215.367V240.906H11.334V215.367C11.334 214.638 11.2201 214.141 10.9922 213.877C10.7643 213.604 10.3861 213.467 9.85742 213.467C9.2194 213.467 7.95703 213.676 6.07031 214.096C4.19271 214.506 2.72982 214.939 1.68164 215.395V212.906ZM29.3945 240.906H27.1523V212.906H29.3945V227.631C30.5703 226.264 32.0605 225.234 33.8652 224.541C35.679 223.839 37.584 223.488 39.5801 223.488C42.2324 223.488 44.5293 224.04 46.4707 225.143V212.906H48.7129V240.906H46.4707V227.412C46.4707 226.41 45.9922 225.648 45.0352 225.129C44.0872 224.6 42.8568 224.336 41.3438 224.336C40.4961 224.336 39.6165 224.423 38.7051 224.596C37.8027 224.769 36.9049 225.02 36.0117 225.348C35.1276 225.667 34.2845 226.081 33.4824 226.592C32.6895 227.093 31.9876 227.658 31.377 228.287C30.7663 228.907 30.2832 229.627 29.9277 230.447C29.5723 231.268 29.3945 232.133 29.3945 233.045V240.906ZM53.1836 240.906V212.906H72.584V215.395C71.1439 214.911 68.7969 214.469 65.543 214.068C62.2982 213.667 59.4089 213.467 56.875 213.467C56.3464 213.467 55.9681 213.604 55.7402 213.877C55.5124 214.141 55.3984 214.638 55.3984 215.367V224.213C55.3984 224.632 55.526 224.974 55.7812 225.238C56.0365 225.493 56.3737 225.621 56.793 225.621H69.8359V227.973C68.1589 227.562 65.9531 227.18 63.2188 226.824C60.4844 226.469 58.3516 226.291 56.8203 226.291C56.3919 226.291 56.0501 226.396 55.7949 226.605C55.5488 226.815 55.4258 227.12 55.4258 227.521L55.3984 238.445C55.3984 239.174 55.5124 239.676 55.7402 239.949C55.9681 240.214 56.3464 240.346 56.875 240.346C59.4089 240.346 62.2982 240.145 65.543 239.744C68.7969 239.343 71.1439 238.901 72.584 238.418V240.906H53.1836ZM76.5078 240.906V212.906H89.3867C90.3711 212.906 91.278 213.007 92.1074 213.207C92.946 213.408 93.6569 213.672 94.2402 214C94.8327 214.328 95.3568 214.72 95.8125 215.176C96.2773 215.622 96.651 216.087 96.9336 216.57C97.2161 217.044 97.4486 217.55 97.6309 218.088C97.8223 218.617 97.9499 219.109 98.0137 219.564C98.0866 220.02 98.123 220.462 98.123 220.891C98.123 221.319 98.0866 221.761 98.0137 222.217C97.9499 222.663 97.8223 223.151 97.6309 223.68C97.4486 224.208 97.2161 224.71 96.9336 225.184C96.651 225.658 96.2773 226.122 95.8125 226.578C95.3568 227.025 94.8327 227.412 94.2402 227.74C93.6569 228.068 92.946 228.337 92.1074 228.547C91.278 228.747 90.3711 228.852 89.3867 228.861H88.5801C88.3704 228.861 88.2201 228.88 88.1289 228.916C88.0378 228.943 88.0013 228.993 88.0195 229.066C88.0378 229.13 88.0879 229.208 88.1699 229.299C88.2611 229.39 88.3978 229.508 88.5801 229.654C89.0449 230.019 89.5553 230.511 90.1113 231.131C90.6673 231.751 91.1504 232.329 91.5605 232.867C91.9798 233.405 92.5814 234.198 93.3652 235.246C93.4108 235.31 93.4473 235.365 93.4746 235.41C93.5111 235.447 93.5521 235.497 93.5977 235.561C93.6432 235.615 93.6842 235.67 93.7207 235.725C94.5319 236.818 95.4251 237.844 96.4004 238.801C97.3757 239.749 98.2096 240.451 98.9023 240.906H95.7441C95.2155 240.587 94.6413 240.118 94.0215 239.498C93.4017 238.869 92.8092 238.195 92.2441 237.475C91.679 236.745 91.0957 235.98 90.4941 235.178C89.8926 234.367 89.3047 233.592 88.7305 232.854C88.1562 232.115 87.5957 231.445 87.0488 230.844C86.5111 230.242 85.9688 229.764 85.4219 229.408C84.8841 229.044 84.3874 228.861 83.9316 228.861H81.4297V228.301H86.9258C89.6875 228.301 91.7975 227.649 93.2559 226.346C94.7233 225.033 95.457 223.215 95.457 220.891C95.457 218.566 94.7233 216.748 93.2559 215.436C91.7975 214.123 89.6875 213.467 86.9258 213.467H80.1992C79.6523 213.467 79.2695 213.581 79.0508 213.809C78.832 214.036 78.7227 214.51 78.7227 215.23L78.75 240.906H76.5078ZM102.498 240.906H100.037L109.58 214.219L108.992 212.906H111.467L123.949 240.906H121.488L119.438 236.34C119 235.355 118.28 234.48 117.277 233.715C116.284 232.94 115.208 232.361 114.051 231.979C112.893 231.587 111.777 231.391 110.701 231.391C108.851 231.391 107.124 231.969 105.52 233.127C105.219 233.346 104.918 233.71 104.617 234.221C104.326 234.722 104.116 235.205 103.988 235.67L102.498 240.906ZM105.547 230.297C105.41 230.798 105.46 231.049 105.697 231.049C105.816 231.049 106.021 230.976 106.312 230.83C107.406 230.229 108.591 229.928 109.867 229.928C111.134 229.928 112.41 230.201 113.695 230.748C114.99 231.286 116.197 232.01 117.318 232.922C117.637 233.186 117.838 233.286 117.92 233.223C118.002 233.159 117.956 232.94 117.783 232.566L110.564 216.379C110.4 215.987 110.223 215.791 110.031 215.791C109.831 215.791 109.662 216.014 109.525 216.461L105.547 230.297ZM126.273 212.906H139.152C140.137 212.906 141.044 213.007 141.873 213.207C142.712 213.408 143.423 213.672 144.006 214C144.598 214.328 145.122 214.72 145.578 215.176C146.043 215.622 146.417 216.087 146.699 216.57C146.982 217.044 147.214 217.55 147.396 218.088C147.588 218.617 147.715 219.109 147.779 219.564C147.852 220.02 147.889 220.462 147.889 220.891C147.889 221.319 147.852 221.761 147.779 222.217C147.715 222.673 147.588 223.165 147.396 223.693C147.214 224.222 146.982 224.728 146.699 225.211C146.417 225.685 146.043 226.15 145.578 226.605C145.122 227.052 144.598 227.439 144.006 227.768C143.423 228.096 142.712 228.36 141.873 228.561C141.044 228.761 140.137 228.861 139.152 228.861H128.516V240.906H126.273V212.906ZM128.516 226.906C128.516 227.326 128.643 227.663 128.898 227.918C129.154 228.173 129.491 228.301 129.91 228.301H136.691C139.453 228.301 141.563 227.649 143.021 226.346C144.489 225.033 145.223 223.215 145.223 220.891C145.223 218.566 144.489 216.743 143.021 215.422C141.563 214.1 139.453 213.439 136.691 213.439C135.871 213.439 134.627 213.444 132.959 213.453C131.291 213.462 130.302 213.467 129.992 213.467C129.464 213.467 129.085 213.604 128.857 213.877C128.63 214.141 128.516 214.638 128.516 215.367V226.906ZM157.732 226.715L148.094 212.906H150.473L159.688 226.291C159.906 226.628 160.13 226.797 160.357 226.797C160.631 226.797 160.872 226.61 161.082 226.236L168.697 212.906H171.117L161.479 226.715C161.251 227.043 161.068 227.444 160.932 227.918C160.795 228.392 160.727 228.848 160.727 229.285V240.906H158.484V229.285C158.484 228.848 158.416 228.392 158.279 227.918C158.143 227.444 157.96 227.043 157.732 226.715Z" fill="#383637"/>
<path d="M1.808 276.906V265.706H2.784V276.906H1.808ZM6.24175 276.906V268.634H7.02575L7.10575 270.234C7.76175 269.05 8.91375 268.426 10.2418 268.426C12.4018 268.426 13.7298 269.946 13.7298 272.33V276.906H12.8018V272.41C12.8018 270.506 11.7778 269.322 10.1298 269.322C8.38575 269.322 7.16975 270.65 7.16975 272.618V276.906H6.24175ZM17.4793 267.674C17.4793 265.786 18.4073 264.858 20.2473 264.858H21.5433V265.738H20.3273C18.9833 265.738 18.4073 266.33 18.4073 267.738V268.634H21.4633V269.482H18.4073V276.906H17.4793V269.482H15.5913V268.634H17.4793V267.674ZM26.7175 277.114C24.1575 277.114 22.3655 275.322 22.3655 272.762C22.3655 270.218 24.1575 268.426 26.7175 268.426C29.2615 268.426 31.0535 270.218 31.0535 272.762C31.0535 275.322 29.2615 277.114 26.7175 277.114ZM23.2935 272.762C23.2935 274.81 24.6855 276.218 26.7175 276.218C28.7335 276.218 30.1255 274.81 30.1255 272.762C30.1255 270.73 28.7335 269.322 26.7175 269.322C24.6855 269.322 23.2935 270.73 23.2935 272.762ZM33.6324 276.906V268.634H34.4164L34.5124 270.49C35.0724 269.242 36.0164 268.634 37.5524 268.634H38.2404V269.498H37.5204C35.7444 269.498 34.5604 270.586 34.5604 273.098V276.906H33.6324ZM40.5699 276.906V268.634H41.3539L41.4339 269.978C42.0099 268.97 43.0179 268.426 44.2979 268.426C45.7379 268.426 46.8419 269.146 47.3219 270.41C47.8819 269.146 49.0179 268.426 50.4739 268.426C52.5539 268.426 53.8979 269.85 53.8979 272.154V276.906H52.9699V272.298C52.9699 270.458 51.9459 269.322 50.3619 269.322C48.7459 269.322 47.6899 270.49 47.6899 272.362V276.906H46.7619V272.298C46.7619 270.458 45.7539 269.322 44.1699 269.322C42.5539 269.322 41.4979 270.49 41.4979 272.362V276.906H40.5699ZM60.5114 277.114C57.9994 277.114 56.2874 275.338 56.2874 272.762C56.2874 270.202 58.0154 268.426 60.5274 268.426C63.1354 268.426 64.8154 270.346 64.7514 273.146H57.2314C57.3914 275.018 58.6714 276.234 60.5114 276.234C61.8554 276.234 62.9274 275.61 63.4714 274.538L64.5114 274.554C63.8714 276.138 62.3674 277.114 60.5114 277.114ZM57.2314 272.33H63.8394C63.6154 270.458 62.3354 269.306 60.5274 269.306C58.6874 269.306 57.3914 270.506 57.2314 272.33ZM70.8086 277.114C68.3126 277.114 66.5686 275.274 66.5686 272.762C66.5686 270.25 68.3126 268.426 70.8086 268.426C72.3286 268.426 73.5606 269.098 74.2966 270.17V265.066H75.2246V276.906H74.4566L74.3446 275.274C73.6246 276.41 72.3606 277.114 70.8086 277.114ZM67.4966 272.762C67.4966 274.794 68.8886 276.218 70.9206 276.218C72.9366 276.218 74.3286 274.794 74.3286 272.762C74.3286 270.746 72.9366 269.322 70.9206 269.322C68.8886 269.322 67.4966 270.746 67.4966 272.762ZM87.4071 277.114C84.1111 277.114 81.7271 274.714 81.7271 271.306C81.7271 267.898 84.1111 265.498 87.4071 265.498C89.9671 265.498 92.0631 266.986 92.7991 269.338H91.7751C91.1351 267.562 89.4711 266.474 87.4231 266.474C84.6871 266.474 82.7191 268.442 82.7191 271.306C82.7191 274.17 84.6871 276.138 87.4231 276.138C89.5191 276.138 91.2471 275.002 91.8711 273.146H92.8951C92.2071 275.562 90.0471 277.114 87.4071 277.114ZM99.03 277.114C96.47 277.114 94.678 275.322 94.678 272.762C94.678 270.218 96.47 268.426 99.03 268.426C101.574 268.426 103.366 270.218 103.366 272.762C103.366 275.322 101.574 277.114 99.03 277.114ZM95.606 272.762C95.606 274.81 96.998 276.218 99.03 276.218C101.046 276.218 102.438 274.81 102.438 272.762C102.438 270.73 101.046 269.322 99.03 269.322C96.998 269.322 95.606 270.73 95.606 272.762ZM105.945 276.906V268.634H106.729L106.809 270.234C107.465 269.05 108.617 268.426 109.945 268.426C112.105 268.426 113.433 269.946 113.433 272.33V276.906H112.505V272.41C112.505 270.506 111.481 269.322 109.833 269.322C108.089 269.322 106.873 270.65 106.873 272.618V276.906H105.945ZM119.402 277.114C117.306 277.114 115.978 276.058 115.914 274.41H116.826C116.922 275.578 117.834 276.266 119.418 276.266C120.874 276.266 121.754 275.706 121.754 274.794C121.754 273.93 120.97 273.402 119.21 273.098C117.05 272.73 116.074 271.962 116.074 270.698C116.074 269.29 117.274 268.426 119.21 268.426C121.162 268.426 122.394 269.354 122.522 270.938H121.594C121.498 269.85 120.65 269.258 119.21 269.258C117.834 269.258 117.002 269.818 117.002 270.714C117.002 271.53 117.69 271.978 119.53 272.33C121.626 272.73 122.666 273.562 122.666 274.81C122.666 276.202 121.402 277.114 119.402 277.114ZM128.855 277.114C126.343 277.114 124.631 275.338 124.631 272.762C124.631 270.202 126.359 268.426 128.871 268.426C131.479 268.426 133.159 270.346 133.095 273.146H125.575C125.735 275.018 127.015 276.234 128.855 276.234C130.199 276.234 131.271 275.61 131.815 274.538L132.855 274.554C132.215 276.138 130.711 277.114 128.855 277.114ZM125.575 272.33H132.183C131.959 270.458 130.679 269.306 128.871 269.306C127.031 269.306 125.735 270.506 125.575 272.33ZM135.632 276.906V268.634H136.416L136.496 270.234C137.152 269.05 138.304 268.426 139.632 268.426C141.792 268.426 143.12 269.946 143.12 272.33V276.906H142.192V272.41C142.192 270.506 141.168 269.322 139.52 269.322C137.776 269.322 136.56 270.65 136.56 272.618V276.906H135.632ZM149.336 276.906C147.576 276.906 146.632 275.914 146.632 274.042V269.482H144.824V268.634H145.88C146.504 268.634 146.68 268.474 146.744 267.866L146.824 266.602H147.56V268.634H150.424V269.482H147.56V274.01C147.56 275.37 148.12 276.01 149.368 276.01H150.536V276.906H149.336ZM160.196 276.906C158.436 276.906 157.492 275.914 157.492 274.042V269.482H155.684V268.634H156.74C157.364 268.634 157.539 268.474 157.604 267.866L157.684 266.602H158.42V268.634H161.284V269.482H158.42V274.01C158.42 275.37 158.98 276.01 160.228 276.01H161.396V276.906H160.196ZM167.108 277.114C164.548 277.114 162.756 275.322 162.756 272.762C162.756 270.218 164.548 268.426 167.108 268.426C169.652 268.426 171.444 270.218 171.444 272.762C171.444 275.322 169.652 277.114 167.108 277.114ZM163.684 272.762C163.684 274.81 165.076 276.218 167.108 276.218C169.124 276.218 170.516 274.81 170.516 272.762C170.516 270.73 169.124 269.322 167.108 269.322C165.076 269.322 163.684 270.73 163.684 272.762ZM179.902 276.906V266.634H176.046V265.706H184.734V266.634H180.862V276.906H179.902ZM185.242 276.906V268.634H186.026L186.122 270.49C186.682 269.242 187.626 268.634 189.162 268.634H189.85V269.498H189.13C187.354 269.498 186.17 270.586 186.17 273.098V276.906H185.242ZM195.043 277.114C192.531 277.114 190.819 275.338 190.819 272.762C190.819 270.202 192.547 268.426 195.059 268.426C197.667 268.426 199.347 270.346 199.283 273.146H191.763C191.923 275.018 193.203 276.234 195.043 276.234C196.387 276.234 197.459 275.61 198.003 274.538L199.043 274.554C198.403 276.138 196.899 277.114 195.043 277.114ZM191.763 272.33H198.371C198.147 270.458 196.867 269.306 195.059 269.306C193.219 269.306 191.923 270.506 191.763 272.33ZM204.303 277.034C202.383 277.034 201.183 276.09 201.183 274.57C201.183 273.098 202.303 272.17 203.999 272.17H207.647V271.578C207.647 270.202 206.639 269.29 205.103 269.29C203.855 269.29 202.879 269.93 202.543 270.922H201.599C201.999 269.386 203.327 268.426 205.087 268.426C207.151 268.426 208.575 269.69 208.575 271.53V276.906H207.807L207.711 275.482C206.991 276.474 205.775 277.034 204.303 277.034ZM202.111 274.554C202.111 275.562 202.959 276.202 204.335 276.202C206.255 276.202 207.663 275.002 207.663 273.338V272.986H204.031C202.895 272.986 202.111 273.61 202.111 274.554ZM214.789 276.906C213.029 276.906 212.085 275.914 212.085 274.042V269.482H210.277V268.634H211.333C211.957 268.634 212.133 268.474 212.197 267.866L212.277 266.602H213.013V268.634H215.877V269.482H213.013V274.01C213.013 275.37 213.573 276.01 214.821 276.01H215.989V276.906H214.789ZM218.476 276.906V268.634H219.26L219.34 269.978C219.916 268.97 220.924 268.426 222.204 268.426C223.644 268.426 224.748 269.146 225.228 270.41C225.788 269.146 226.924 268.426 228.38 268.426C230.46 268.426 231.804 269.85 231.804 272.154V276.906H230.876V272.298C230.876 270.458 229.852 269.322 228.268 269.322C226.652 269.322 225.596 270.49 225.596 272.362V276.906H224.668V272.298C224.668 270.458 223.66 269.322 222.076 269.322C220.46 269.322 219.404 270.49 219.404 272.362V276.906H218.476ZM238.418 277.114C235.906 277.114 234.194 275.338 234.194 272.762C234.194 270.202 235.922 268.426 238.434 268.426C241.042 268.426 242.722 270.346 242.658 273.146H235.138C235.298 275.018 236.578 276.234 238.418 276.234C239.762 276.234 240.834 275.61 241.378 274.538L242.418 274.554C241.778 276.138 240.274 277.114 238.418 277.114ZM235.138 272.33H241.746C241.522 270.458 240.242 269.306 238.434 269.306C236.594 269.306 235.298 270.506 235.138 272.33ZM245.195 276.906V268.634H245.979L246.059 270.234C246.715 269.05 247.867 268.426 249.195 268.426C251.355 268.426 252.683 269.946 252.683 272.33V276.906H251.755V272.41C251.755 270.506 250.731 269.322 249.083 269.322C247.339 269.322 246.123 270.65 246.123 272.618V276.906H245.195ZM258.899 276.906C257.139 276.906 256.195 275.914 256.195 274.042V269.482H254.387V268.634H255.443C256.067 268.634 256.243 268.474 256.307 267.866L256.387 266.602H257.123V268.634H259.987V269.482H257.123V274.01C257.123 275.37 257.683 276.01 258.931 276.01H260.099V276.906H258.899Z" fill="#5B5852"/>
</svg>
