<svg width="366" height="283" viewBox="0 0 366 283" fill="none" xmlns="http://www.w3.org/2000/svg">
<path d="M39.9453 0.321289C39.6338 1.16044 39.3391 1.99171 39.0156 2.74316C37.3342 6.65348 35.4723 10.4771 33.9385 14.4443C32.7574 17.4977 31.6991 20.6355 30.6328 23.7188C31.3354 23.7132 31.259 22.7499 31.4941 22.2021C31.6174 21.9172 32.0982 21.1689 32.3633 21.0469C32.7734 20.8598 33.5277 21.1803 33.4648 21.625C32.642 23.5828 32.2598 25.6845 31.5244 27.6748C30.9011 29.3615 30.3349 31.0402 29.7197 32.7432C27.8688 37.8601 25.5552 42.9445 23.8164 48.0615C21.3449 55.337 19.42 62.8133 16.6504 69.9912C15.4803 73.0229 14.8241 76.0493 13.8535 79.1162C13.2794 80.9276 12.3035 83.3685 12.041 85.1826C11.9864 85.5649 12.0908 85.9961 12.0088 86.3594C11.954 86.5953 11.5984 87.029 11.4727 87.3408C10.7727 89.0872 10.0205 92.7534 9.71973 94.6787C9.63498 95.2237 9.64093 96.753 9.46875 97.0488C9.30749 97.3226 9.13502 97.2523 9.08301 96.9678C8.99552 96.477 9.04434 95.0989 9.07715 94.543C9.17013 93.0326 9.56976 91.4976 9.78027 89.998C9.94699 88.8106 9.85908 88.6555 10.3184 87.5059C10.7776 86.3535 10.9012 85.4557 11.1035 84.249C12.2136 77.5973 14.6663 71.7294 16.375 65.2783C16.6949 64.0662 17.2227 62.3848 17.3184 61.1699C17.3266 61.0587 17.3944 60.7961 17.2197 60.8203C15.0243 69.0448 11.8476 76.9819 9.62207 85.1982C8.86474 87.9995 8.15387 90.8419 7.86133 93.7354C7.81217 94.2153 7.91834 94.7605 7.85547 95.2432C7.78431 95.7935 7.47853 96.4821 7.38281 97.0947C7.0192 99.4647 7.0871 103.687 7.98926 105.916C8.77393 107.855 9.73689 107.977 11.1641 109.219C11.6341 109.628 12.2528 110.357 12.9062 110.906H0V45.7666C0 22.4516 17.4142 3.20438 39.9453 0.321289ZM50.0527 77.2129C50.1184 77.137 50.441 76.6321 50.5586 76.7568C47.7972 82.1179 45.3284 87.7611 44.1035 93.6943C42.9005 99.5164 43.056 103.598 45.9678 108.889C46.3353 109.556 46.9382 110.255 47.6699 110.906H16.7666C18.7844 110.166 21.1762 109.112 22.8105 108.159C23.1084 107.986 24.3901 107.129 24.4922 106.896C24.5441 106.776 24.2899 106.675 24.3418 106.461C24.4214 106.133 25.1152 105.767 25.293 105.577C25.6483 105.198 25.8808 104.696 26.3125 104.271C26.5886 103.997 27.7477 103.018 28.0488 102.969C28.8827 102.833 30.157 103.831 30.1133 102.627C29.1618 102.041 29.5202 101.447 30.5127 101.371C30.7918 101.35 31.6414 101.821 31.5107 101.149C31.3494 100.32 31.1636 100.29 31.9072 99.6416C33.1402 98.5678 35.1169 97.4341 35.4014 95.6445C35.4369 95.4141 35.2016 95.2215 35.5186 94.9531C36.3169 94.2779 37.894 95.0664 38.3916 93.6699C38.4709 93.4503 38.4463 93.1356 38.5557 92.9512C38.6186 92.8454 38.8569 92.7883 38.9717 92.6338C39.3732 92.0832 39.0835 90.8335 39.1709 90.1611L38.5615 90.0088L39.1191 89.5586C39.3267 89.6426 39.2399 90.0244 39.2725 90.0576C39.3244 90.1119 39.8578 90.0332 39.959 89.9355C40.0385 89.855 40.234 89.2001 40.1855 89.1553H39.7285C39.5344 88.8109 40.0708 88.6075 40.2295 88.3418C40.3498 88.1385 40.355 87.8671 40.4697 87.6719C41.197 86.4489 42.4302 85.9171 43.3379 84.9707C43.6058 84.6914 43.756 84.3361 44.0977 84.0107C44.2917 83.8264 44.6309 83.6939 44.7568 83.5557C44.94 83.3523 44.9129 83.0536 45.0469 82.834C45.7523 81.6599 47.4198 80.4534 48.374 79.377C48.9755 78.6964 49.465 77.9071 50.0527 77.2129ZM47.9854 0C72.2842 1.13123 91.6377 21.188 91.6377 45.7666V110.906H62.749C63.428 110.409 63.8634 109.705 64.5977 109.181C65.6665 108.419 66.9378 108.08 67.9766 107.392C74.2649 103.21 80.7424 96.9481 85.6309 91.2236C87.438 89.1085 90.2399 86.0147 91.123 83.4658C91.3773 82.7337 91.6917 81.9826 91.6289 81.1963L91.6348 81.1904C91.4926 81.1796 91.3584 81.1902 91.2217 81.2363C90.8362 81.3719 88.4033 84.0919 87.9219 84.6182C82.2706 90.7873 77.1112 97.8434 69.9727 102.407C66.2571 104.783 62.4297 106.35 58.3916 108.062C56.579 108.829 52.9811 109.308 51.0508 108.988C49.2819 108.695 48.716 108.46 48.2539 106.719C47.8875 105.341 47.3264 102.261 47.3154 100.886C47.31 100.04 47.7477 98.9331 47.9062 98.0654C49.2624 90.5947 52.9266 81.6701 57.249 75.3682C59.2202 72.4913 61.178 70.7337 63.5264 68.2852C64.4858 67.2846 65.2292 66.0833 66.1641 65.0557C68.0751 62.9568 70.3718 61.2349 72.7285 59.6621L72.9502 59.6299C73.713 59.9905 74.4239 60.0558 74.957 60.7744C76.8786 63.3614 72.8762 67.1357 71.583 69.2236C71.4135 69.5599 71.3731 70.0757 71.6328 70.374C71.7726 70.5364 72.2416 70.6796 72.4658 70.7041C73.0973 70.7746 75.0087 70.7914 75.6104 70.6992C77.2945 70.4389 79.4707 66.0971 79.6895 64.5596C80.2854 60.3647 77.3085 57.5312 73.3525 56.9209C71.7834 56.6796 71.7937 56.994 70.5283 57.1865C68.8469 57.4441 68.0943 57.0377 66.3828 58.0166C62.7247 60.1156 57.8578 65.3436 55.3535 68.7549C54.0249 70.5662 53.0904 72.7115 51.625 74.333C50.5615 75.5126 49.3366 76.5809 48.2676 77.7578C46.4221 79.7916 44.7673 82.0095 42.8809 84.0107C41.3006 85.692 39.4257 87.2436 37.8975 88.9492C34.696 92.5205 31.8002 95.4244 28.041 98.4316C27.2563 99.058 26.6081 99.8472 25.8535 100.498C23.2809 102.708 19.9129 105.255 16.9355 106.879C15.6123 107.6 14.1849 108.647 13.3701 106.824C12.5583 105.004 12.7682 100.744 12.9404 98.6836C13.0171 97.7673 13.4496 96.9052 13.5371 95.9482C13.6574 94.6385 13.5479 93.6317 13.9307 92.3057C14.286 91.0776 14.521 90.3237 14.7998 89.0332C15.2919 86.7581 16.0161 85.1254 16.6504 83.0049C17.7549 79.3143 18.5732 75.4827 19.8555 71.8652C21.9743 65.8861 23.7152 59.7791 25.8477 53.8135C28.5325 46.3075 31.683 38.9531 34.417 31.458C35.2481 29.1748 36.1558 26.9319 37.0088 24.6514C38.9035 19.5723 40.8413 14.4411 43.25 9.56543C44.2233 7.59137 45.399 6.17858 46.4707 4.3916C46.8665 3.73277 47.6789 1.32218 47.9854 0ZM8.88867 99.9854H8.8916L8.58301 100.04C8.38895 99.7039 8.60436 99.3915 8.98145 99.3398L8.88867 99.9854ZM37.0908 91.4736C37.2136 91.4086 37.2818 91.3355 37.4482 91.376C37.4018 91.7013 37.5632 92.2946 37.3477 92.5361L37.1641 92.6699C36.8562 92.8839 36.271 93.273 36.1992 93.3096C35.8958 93.4641 35.5509 93.5183 35.2119 93.4912C34.9774 93.282 36.8229 91.6119 37.0908 91.4736ZM47.4385 87.3135C47.2581 87.7933 46.873 86.7859 47.4111 86.8369L47.4385 87.3135ZM47.7207 85.2256C47.9665 85.1797 48.0021 85.4263 48.125 85.5781H48.1221L47.9717 85.7275L47.7314 85.5645L47.7207 85.2256ZM48.4287 83.3086C48.5244 83.2463 48.7645 83.3306 48.8301 83.458L48.4775 84.1113C48.2126 84.0297 48.3713 83.3436 48.4287 83.3057V83.3086ZM50.46 79.9814C50.4846 80.3584 50.4815 80.9518 49.9512 80.8867C49.9293 80.461 49.9187 79.9815 50.46 79.9814ZM51.2666 77.9229C51.286 77.8229 51.5444 77.8499 51.5752 77.8662C51.7801 77.999 51.5594 78.5652 51.3271 78.666C51.0565 78.4708 51.19 78.164 51.2666 77.9199V77.9229ZM53.3086 74.5361C53.2813 74.8588 53.4396 75.0921 53.3467 75.4229C53.2236 75.8648 52.6884 76.2196 52.5381 75.6475C52.454 75.3272 53.1908 74.3957 53.3086 74.5361ZM35.2891 13.8584C36.1035 13.6905 35.9966 14.6499 35.4443 14.7285C34.843 14.815 34.6439 13.9913 35.2891 13.8584ZM36.7402 11.8223C36.5762 11.1226 36.4427 10.2845 37.457 10.5557C37.7604 11.117 37.4155 11.8412 36.7402 11.8223Z" fill="#E0DDD7"/>
<path d="M2.24219 162.906V134.906H15.1211C16.1055 134.906 17.0124 135.007 17.8418 135.207C18.6803 135.408 19.3913 135.672 19.9746 136C20.5671 136.328 21.0911 136.72 21.5469 137.176C22.0117 137.622 22.3854 138.087 22.668 138.57C22.9505 139.044 23.1829 139.55 23.3652 140.088C23.5566 140.617 23.6842 141.109 23.748 141.564C23.821 142.02 23.8574 142.462 23.8574 142.891C23.8574 143.319 23.821 143.761 23.748 144.217C23.6842 144.663 23.5566 145.151 23.3652 145.68C23.1829 146.208 22.9505 146.71 22.668 147.184C22.3854 147.658 22.0117 148.122 21.5469 148.578C21.0911 149.025 20.5671 149.412 19.9746 149.74C19.3913 150.068 18.6803 150.337 17.8418 150.547C17.0124 150.747 16.1055 150.852 15.1211 150.861H14.3145C14.1048 150.861 13.9544 150.88 13.8633 150.916C13.7721 150.943 13.7357 150.993 13.7539 151.066C13.7721 151.13 13.8223 151.208 13.9043 151.299C13.9954 151.39 14.1322 151.508 14.3145 151.654C14.7793 152.019 15.2897 152.511 15.8457 153.131C16.4017 153.751 16.8848 154.329 17.2949 154.867C17.7142 155.405 18.3158 156.198 19.0996 157.246C19.1452 157.31 19.1816 157.365 19.209 157.41C19.2454 157.447 19.2865 157.497 19.332 157.561C19.3776 157.615 19.4186 157.67 19.4551 157.725C20.2663 158.818 21.1595 159.844 22.1348 160.801C23.11 161.749 23.944 162.451 24.6367 162.906H21.4785C20.9499 162.587 20.3757 162.118 19.7559 161.498C19.1361 160.869 18.5436 160.195 17.9785 159.475C17.4134 158.745 16.8301 157.98 16.2285 157.178C15.627 156.367 15.0391 155.592 14.4648 154.854C13.8906 154.115 13.3301 153.445 12.7832 152.844C12.2454 152.242 11.7031 151.764 11.1562 151.408C10.6185 151.044 10.1217 150.861 9.66602 150.861H7.16406V150.301H12.6602C15.4219 150.301 17.5319 149.649 18.9902 148.346C20.4577 147.033 21.1914 145.215 21.1914 142.891C21.1914 140.566 20.4577 138.748 18.9902 137.436C17.5319 136.123 15.4219 135.467 12.6602 135.467H5.93359C5.38672 135.467 5.00391 135.581 4.78516 135.809C4.56641 136.036 4.45703 136.51 4.45703 137.23L4.48438 162.906H2.24219ZM27.4531 162.906V134.906H46.8535V137.395C45.4134 136.911 43.0664 136.469 39.8125 136.068C36.5677 135.667 33.6784 135.467 31.1445 135.467C30.6159 135.467 30.2376 135.604 30.0098 135.877C29.7819 136.141 29.668 136.638 29.668 137.367V146.213C29.668 146.632 29.7956 146.974 30.0508 147.238C30.306 147.493 30.6432 147.621 31.0625 147.621H44.1055V149.973C42.4284 149.562 40.2227 149.18 37.4883 148.824C34.7539 148.469 32.6211 148.291 31.0898 148.291C30.6615 148.291 30.3197 148.396 30.0645 148.605C29.8184 148.815 29.6953 149.12 29.6953 149.521L29.668 160.445C29.668 161.174 29.7819 161.676 30.0098 161.949C30.2376 162.214 30.6159 162.346 31.1445 162.346C33.6784 162.346 36.5677 162.145 39.8125 161.744C43.0664 161.343 45.4134 160.901 46.8535 160.418V162.906H27.4531ZM70.1777 162.906H50.7773V134.906H52.9922V160.445C52.9922 161.174 53.1061 161.676 53.334 161.949C53.5618 162.214 53.9401 162.346 54.4688 162.346C57.0026 162.346 59.8919 162.145 63.1367 161.744C66.3906 161.343 68.7376 160.901 70.1777 160.418V162.906ZM73.6641 162.906V134.906H93.0645V137.395C91.6243 136.911 89.2773 136.469 86.0234 136.068C82.7786 135.667 79.8893 135.467 77.3555 135.467C76.8268 135.467 76.4486 135.604 76.2207 135.877C75.9928 136.141 75.8789 136.638 75.8789 137.367V146.213C75.8789 146.632 76.0065 146.974 76.2617 147.238C76.5169 147.493 76.8542 147.621 77.2734 147.621H90.3164V149.973C88.6393 149.562 86.4336 149.18 83.6992 148.824C80.9648 148.469 78.832 148.291 77.3008 148.291C76.8724 148.291 76.5306 148.396 76.2754 148.605C76.0293 148.815 75.9062 149.12 75.9062 149.521L75.8789 160.445C75.8789 161.174 75.9928 161.676 76.2207 161.949C76.4486 162.214 76.8268 162.346 77.3555 162.346C79.8893 162.346 82.7786 162.145 86.0234 161.744C89.2773 161.343 91.6243 160.901 93.0645 160.418V162.906H73.6641ZM97.7676 162.906H95.3066L104.85 136.219L104.262 134.906H106.736L119.219 162.906H116.758L114.707 158.34C114.27 157.355 113.549 156.48 112.547 155.715C111.553 154.94 110.478 154.361 109.32 153.979C108.163 153.587 107.046 153.391 105.971 153.391C104.12 153.391 102.393 153.969 100.789 155.127C100.488 155.346 100.188 155.71 99.8867 156.221C99.5951 156.722 99.3854 157.205 99.2578 157.67L97.7676 162.906ZM100.816 152.297C100.68 152.798 100.73 153.049 100.967 153.049C101.085 153.049 101.29 152.976 101.582 152.83C102.676 152.229 103.861 151.928 105.137 151.928C106.404 151.928 107.68 152.201 108.965 152.748C110.259 153.286 111.467 154.01 112.588 154.922C112.907 155.186 113.107 155.286 113.189 155.223C113.271 155.159 113.226 154.94 113.053 154.566L105.834 138.379C105.67 137.987 105.492 137.791 105.301 137.791C105.1 137.791 104.932 138.014 104.795 138.461L100.816 152.297ZM119.998 157C119.998 156.271 120.199 155.669 120.6 155.195C121.01 154.721 121.497 154.484 122.062 154.484C122.509 154.484 122.91 154.639 123.266 154.949C122.518 155.204 122.145 155.824 122.145 156.809C122.145 157.802 122.582 158.773 123.457 159.721C124.332 160.66 125.499 161.425 126.957 162.018C128.424 162.61 129.956 162.906 131.551 162.906C132.526 162.906 133.465 162.815 134.367 162.633C135.27 162.441 136.108 162.154 136.883 161.771C137.667 161.389 138.346 160.924 138.92 160.377C139.494 159.83 139.945 159.174 140.273 158.408C140.602 157.643 140.766 156.809 140.766 155.906C140.766 155.186 140.661 154.535 140.451 153.951C140.251 153.368 139.995 152.871 139.686 152.461C139.376 152.051 138.947 151.682 138.4 151.354C137.863 151.016 137.343 150.747 136.842 150.547C136.35 150.337 135.721 150.141 134.955 149.959C134.199 149.777 133.533 149.635 132.959 149.535C132.385 149.435 131.669 149.316 130.812 149.18C130.047 149.061 129.468 148.97 129.076 148.906C128.684 148.842 128.137 148.738 127.436 148.592C126.734 148.446 126.191 148.314 125.809 148.195C125.426 148.068 124.947 147.895 124.373 147.676C123.799 147.457 123.352 147.229 123.033 146.992C122.714 146.755 122.363 146.464 121.98 146.117C121.598 145.771 121.306 145.402 121.105 145.01C120.914 144.609 120.75 144.144 120.613 143.615C120.477 143.087 120.408 142.517 120.408 141.906C120.408 140.849 120.627 139.892 121.064 139.035C121.502 138.169 122.081 137.454 122.801 136.889C123.53 136.314 124.378 135.831 125.344 135.439C126.319 135.048 127.322 134.77 128.352 134.605C129.382 134.432 130.439 134.346 131.523 134.346C132.453 134.346 133.383 134.4 134.312 134.51C135.242 134.619 136.163 134.801 137.074 135.057C137.995 135.303 138.806 135.608 139.508 135.973C140.21 136.337 140.775 136.802 141.203 137.367C141.641 137.932 141.859 138.557 141.859 139.24C141.859 140.225 141.486 140.844 140.738 141.1C140.474 139.833 139.863 138.725 138.906 137.777C137.958 136.829 136.801 136.114 135.434 135.631C134.076 135.148 132.617 134.906 131.059 134.906C128.37 134.906 126.255 135.503 124.715 136.697C123.174 137.882 122.404 139.573 122.404 141.77C122.404 142.326 122.505 142.827 122.705 143.273C122.915 143.72 123.229 144.103 123.648 144.422C124.077 144.741 124.528 145.014 125.002 145.242C125.485 145.47 126.087 145.675 126.807 145.857C127.527 146.04 128.192 146.19 128.803 146.309C129.423 146.427 130.17 146.564 131.045 146.719C131.874 146.855 132.503 146.965 132.932 147.047C133.36 147.129 133.966 147.257 134.75 147.43C135.534 147.594 136.145 147.753 136.582 147.908C137.02 148.054 137.562 148.255 138.209 148.51C138.856 148.765 139.367 149.029 139.74 149.303C140.114 149.576 140.52 149.913 140.957 150.314C141.404 150.715 141.741 151.144 141.969 151.6C142.197 152.055 142.388 152.584 142.543 153.186C142.707 153.787 142.789 154.434 142.789 155.127C142.789 156.239 142.579 157.26 142.16 158.189C141.741 159.11 141.171 159.894 140.451 160.541C139.731 161.179 138.888 161.721 137.922 162.168C136.965 162.615 135.949 162.943 134.873 163.152C133.798 163.362 132.69 163.467 131.551 163.467C129.29 163.467 127.281 163.198 125.521 162.66C123.771 162.113 122.413 161.352 121.447 160.377C120.481 159.393 119.998 158.267 119.998 157ZM146.316 162.906V134.906H165.717V137.395C164.277 136.911 161.93 136.469 158.676 136.068C155.431 135.667 152.542 135.467 150.008 135.467C149.479 135.467 149.101 135.604 148.873 135.877C148.645 136.141 148.531 136.638 148.531 137.367V146.213C148.531 146.632 148.659 146.974 148.914 147.238C149.169 147.493 149.507 147.621 149.926 147.621H162.969V149.973C161.292 149.562 159.086 149.18 156.352 148.824C153.617 148.469 151.484 148.291 149.953 148.291C149.525 148.291 149.183 148.396 148.928 148.605C148.682 148.815 148.559 149.12 148.559 149.521L148.531 160.445C148.531 161.174 148.645 161.676 148.873 161.949C149.101 162.214 149.479 162.346 150.008 162.346C152.542 162.346 155.431 162.145 158.676 161.744C161.93 161.343 164.277 160.901 165.717 160.418V162.906H146.316ZM191.16 163.467C189.629 163.467 188.157 163.243 186.744 162.797C185.34 162.35 184.06 161.703 182.902 160.855C181.754 159.999 180.751 158.987 179.895 157.82C179.038 156.645 178.372 155.296 177.898 153.773C177.424 152.242 177.188 150.62 177.188 148.906C177.188 147.193 177.424 145.575 177.898 144.053C178.372 142.521 179.038 141.173 179.895 140.006C180.751 138.83 181.754 137.818 182.902 136.971C184.06 136.114 185.34 135.462 186.744 135.016C188.157 134.569 189.629 134.346 191.16 134.346C193.074 134.346 194.883 134.701 196.588 135.412C198.301 136.114 199.787 137.089 201.045 138.338C202.312 139.587 203.314 141.127 204.053 142.959C204.791 144.791 205.16 146.773 205.16 148.906C205.16 151.039 204.791 153.021 204.053 154.854C203.314 156.686 202.312 158.226 201.045 159.475C199.787 160.723 198.301 161.703 196.588 162.414C194.883 163.116 193.074 163.467 191.16 163.467ZM180.346 143.191C179.735 144.951 179.43 146.855 179.43 148.906C179.43 150.957 179.735 152.862 180.346 154.621C180.965 156.38 181.804 157.861 182.861 159.064C183.919 160.268 185.163 161.211 186.594 161.895C188.034 162.569 189.556 162.906 191.16 162.906C192.764 162.906 194.286 162.569 195.727 161.895C197.167 161.211 198.415 160.268 199.473 159.064C200.539 157.861 201.382 156.38 202.002 154.621C202.622 152.862 202.932 150.957 202.932 148.906C202.932 146.855 202.622 144.951 202.002 143.191C201.382 141.432 200.539 139.951 199.473 138.748C198.415 137.545 197.167 136.606 195.727 135.932C194.286 135.248 192.764 134.906 191.16 134.906C189.556 134.906 188.034 135.248 186.594 135.932C185.163 136.606 183.919 137.545 182.861 138.748C181.804 139.951 180.965 141.432 180.346 143.191ZM211.039 162.906H208.797V134.906H228.197V137.395C226.757 136.911 224.41 136.469 221.156 136.068C217.911 135.667 215.022 135.467 212.488 135.467C211.96 135.467 211.581 135.604 211.354 135.877C211.126 136.141 211.012 136.638 211.012 137.367V146.213C211.012 146.632 211.139 146.974 211.395 147.238C211.65 147.493 211.987 147.621 212.406 147.621H225.449V149.973C223.772 149.562 221.566 149.18 218.832 148.824C216.098 148.469 213.965 148.291 212.434 148.291C212.005 148.291 211.663 148.396 211.408 148.605C211.162 148.815 211.039 149.12 211.039 149.521V162.906ZM2.24219 201.906V173.906H4.48438V201.906H2.24219ZM8.96875 201.906V173.906H11.2656C16.4518 181.262 22.4036 189.679 29.1211 199.158C29.3216 199.441 29.4993 199.582 29.6543 199.582C29.873 199.582 29.9688 199.34 29.9414 198.857L28.2598 173.906H30.6113V201.906H28.3691C27.1478 200.184 24.5228 196.492 20.4941 190.832C16.4746 185.163 13.125 180.437 10.4453 176.654C10.2448 176.372 10.0671 176.23 9.91211 176.23C9.70247 176.23 9.61133 176.472 9.63867 176.955L11.3203 201.906H8.96875ZM37.3242 201.906H35.082V173.906H54.4824V176.395C53.0423 175.911 50.6953 175.469 47.4414 175.068C44.1966 174.667 41.3073 174.467 38.7734 174.467C38.2448 174.467 37.8665 174.604 37.6387 174.877C37.4108 175.141 37.2969 175.638 37.2969 176.367V185.213C37.2969 185.632 37.4245 185.974 37.6797 186.238C37.9349 186.493 38.2721 186.621 38.6914 186.621H51.7344V188.973C50.0573 188.562 47.8516 188.18 45.1172 187.824C42.3828 187.469 40.25 187.291 38.7188 187.291C38.2904 187.291 37.9486 187.396 37.6934 187.605C37.4473 187.815 37.3242 188.12 37.3242 188.521V201.906ZM70.4102 202.467C68.8789 202.467 67.4069 202.243 65.9941 201.797C64.5905 201.35 63.3099 200.703 62.1523 199.855C61.0039 198.999 60.0013 197.987 59.1445 196.82C58.2878 195.645 57.6224 194.296 57.1484 192.773C56.6745 191.242 56.4375 189.62 56.4375 187.906C56.4375 186.193 56.6745 184.575 57.1484 183.053C57.6224 181.521 58.2878 180.173 59.1445 179.006C60.0013 177.83 61.0039 176.818 62.1523 175.971C63.3099 175.114 64.5905 174.462 65.9941 174.016C67.4069 173.569 68.8789 173.346 70.4102 173.346C72.3242 173.346 74.1335 173.701 75.8379 174.412C77.5514 175.114 79.0371 176.089 80.2949 177.338C81.5618 178.587 82.5645 180.127 83.3027 181.959C84.041 183.791 84.4102 185.773 84.4102 187.906C84.4102 190.039 84.041 192.021 83.3027 193.854C82.5645 195.686 81.5618 197.226 80.2949 198.475C79.0371 199.723 77.5514 200.703 75.8379 201.414C74.1335 202.116 72.3242 202.467 70.4102 202.467ZM59.5957 182.191C58.985 183.951 58.6797 185.855 58.6797 187.906C58.6797 189.957 58.985 191.862 59.5957 193.621C60.2155 195.38 61.054 196.861 62.1113 198.064C63.1686 199.268 64.4128 200.211 65.8438 200.895C67.2839 201.569 68.806 201.906 70.4102 201.906C72.0143 201.906 73.5365 201.569 74.9766 200.895C76.4167 200.211 77.6654 199.268 78.7227 198.064C79.7891 196.861 80.6322 195.38 81.252 193.621C81.8717 191.862 82.1816 189.957 82.1816 187.906C82.1816 185.855 81.8717 183.951 81.252 182.191C80.6322 180.432 79.7891 178.951 78.7227 177.748C77.6654 176.545 76.4167 175.606 74.9766 174.932C73.5365 174.248 72.0143 173.906 70.4102 173.906C68.806 173.906 67.2839 174.248 65.8438 174.932C64.4128 175.606 63.1686 176.545 62.1113 177.748C61.054 178.951 60.2155 180.432 59.5957 182.191ZM88.0469 201.906V173.906H100.926C101.91 173.906 102.817 174.007 103.646 174.207C104.485 174.408 105.196 174.672 105.779 175C106.372 175.328 106.896 175.72 107.352 176.176C107.816 176.622 108.19 177.087 108.473 177.57C108.755 178.044 108.988 178.55 109.17 179.088C109.361 179.617 109.489 180.109 109.553 180.564C109.626 181.02 109.662 181.462 109.662 181.891C109.662 182.319 109.626 182.761 109.553 183.217C109.489 183.663 109.361 184.151 109.17 184.68C108.988 185.208 108.755 185.71 108.473 186.184C108.19 186.658 107.816 187.122 107.352 187.578C106.896 188.025 106.372 188.412 105.779 188.74C105.196 189.068 104.485 189.337 103.646 189.547C102.817 189.747 101.91 189.852 100.926 189.861H100.119C99.9095 189.861 99.7591 189.88 99.668 189.916C99.5768 189.943 99.5404 189.993 99.5586 190.066C99.5768 190.13 99.627 190.208 99.709 190.299C99.8001 190.39 99.9368 190.508 100.119 190.654C100.584 191.019 101.094 191.511 101.65 192.131C102.206 192.751 102.689 193.329 103.1 193.867C103.519 194.405 104.12 195.198 104.904 196.246C104.95 196.31 104.986 196.365 105.014 196.41C105.05 196.447 105.091 196.497 105.137 196.561C105.182 196.615 105.223 196.67 105.26 196.725C106.071 197.818 106.964 198.844 107.939 199.801C108.915 200.749 109.749 201.451 110.441 201.906H107.283C106.755 201.587 106.18 201.118 105.561 200.498C104.941 199.869 104.348 199.195 103.783 198.475C103.218 197.745 102.635 196.98 102.033 196.178C101.432 195.367 100.844 194.592 100.27 193.854C99.6953 193.115 99.1348 192.445 98.5879 191.844C98.0501 191.242 97.5078 190.764 96.9609 190.408C96.4232 190.044 95.9264 189.861 95.4707 189.861H92.9688V189.301H98.4648C101.227 189.301 103.337 188.649 104.795 187.346C106.262 186.033 106.996 184.215 106.996 181.891C106.996 179.566 106.262 177.748 104.795 176.436C103.337 175.123 101.227 174.467 98.4648 174.467H91.7383C91.1914 174.467 90.8086 174.581 90.5898 174.809C90.3711 175.036 90.2617 175.51 90.2617 176.23L90.2891 201.906H88.0469ZM115.609 201.906H113.258V173.906H115.555L124.797 191.215C124.988 191.589 125.202 191.775 125.439 191.775C125.658 191.775 125.863 191.579 126.055 191.188L134.148 173.906H136.719V201.906H134.367V176.955C134.367 176.718 134.335 176.536 134.271 176.408C134.208 176.271 134.126 176.203 134.025 176.203C133.87 176.203 133.715 176.354 133.561 176.654C133.415 176.919 132.608 178.614 131.141 181.74C129.682 184.857 128.256 187.911 126.861 190.9L124.77 195.385C118.362 183.363 115.017 177.119 114.734 176.654C114.579 176.354 114.415 176.203 114.242 176.203C114.142 176.203 114.06 176.271 113.996 176.408C113.941 176.545 113.919 176.727 113.928 176.955L115.609 201.906ZM141.982 201.906H139.521L149.064 175.219L148.477 173.906H150.951L163.434 201.906H160.973L158.922 197.34C158.484 196.355 157.764 195.48 156.762 194.715C155.768 193.94 154.693 193.361 153.535 192.979C152.378 192.587 151.261 192.391 150.186 192.391C148.335 192.391 146.608 192.969 145.004 194.127C144.703 194.346 144.402 194.71 144.102 195.221C143.81 195.722 143.6 196.205 143.473 196.67L141.982 201.906ZM145.031 191.297C144.895 191.798 144.945 192.049 145.182 192.049C145.3 192.049 145.505 191.976 145.797 191.83C146.891 191.229 148.076 190.928 149.352 190.928C150.618 190.928 151.895 191.201 153.18 191.748C154.474 192.286 155.682 193.01 156.803 193.922C157.122 194.186 157.322 194.286 157.404 194.223C157.486 194.159 157.441 193.94 157.268 193.566L150.049 177.379C149.885 176.987 149.707 176.791 149.516 176.791C149.315 176.791 149.146 177.014 149.01 177.461L145.031 191.297ZM158.471 173.906H180.031V176.395C178.983 175.939 177.516 175.506 175.629 175.096C173.751 174.676 172.493 174.467 171.855 174.467C171.327 174.467 170.944 174.604 170.707 174.877C170.479 175.141 170.365 175.638 170.365 176.367V201.906H168.123V176.367C168.123 175.638 168.009 175.141 167.781 174.877C167.553 174.604 167.175 174.467 166.646 174.467C166.008 174.467 164.746 174.676 162.859 175.096C160.982 175.506 159.519 175.939 158.471 176.395V173.906ZM183.941 201.906V173.906H186.184V201.906H183.941ZM203.793 202.467C202.262 202.467 200.79 202.243 199.377 201.797C197.973 201.35 196.693 200.703 195.535 199.855C194.387 198.999 193.384 197.987 192.527 196.82C191.671 195.645 191.005 194.296 190.531 192.773C190.057 191.242 189.82 189.62 189.82 187.906C189.82 186.193 190.057 184.575 190.531 183.053C191.005 181.521 191.671 180.173 192.527 179.006C193.384 177.83 194.387 176.818 195.535 175.971C196.693 175.114 197.973 174.462 199.377 174.016C200.79 173.569 202.262 173.346 203.793 173.346C205.707 173.346 207.516 173.701 209.221 174.412C210.934 175.114 212.42 176.089 213.678 177.338C214.945 178.587 215.947 180.127 216.686 181.959C217.424 183.791 217.793 185.773 217.793 187.906C217.793 190.039 217.424 192.021 216.686 193.854C215.947 195.686 214.945 197.226 213.678 198.475C212.42 199.723 210.934 200.703 209.221 201.414C207.516 202.116 205.707 202.467 203.793 202.467ZM192.979 182.191C192.368 183.951 192.062 185.855 192.062 187.906C192.062 189.957 192.368 191.862 192.979 193.621C193.598 195.38 194.437 196.861 195.494 198.064C196.551 199.268 197.796 200.211 199.227 200.895C200.667 201.569 202.189 201.906 203.793 201.906C205.397 201.906 206.919 201.569 208.359 200.895C209.799 200.211 211.048 199.268 212.105 198.064C213.172 196.861 214.015 195.38 214.635 193.621C215.255 191.862 215.564 189.957 215.564 187.906C215.564 185.855 215.255 183.951 214.635 182.191C214.015 180.432 213.172 178.951 212.105 177.748C211.048 176.545 209.799 175.606 208.359 174.932C206.919 174.248 205.397 173.906 203.793 173.906C202.189 173.906 200.667 174.248 199.227 174.932C197.796 175.606 196.551 176.545 195.494 177.748C194.437 178.951 193.598 180.432 192.979 182.191ZM221.43 201.906V173.906H223.727C228.913 181.262 234.865 189.679 241.582 199.158C241.783 199.441 241.96 199.582 242.115 199.582C242.334 199.582 242.43 199.34 242.402 198.857L240.721 173.906H243.072V201.906H240.83C239.609 200.184 236.984 196.492 232.955 190.832C228.936 185.163 225.586 180.437 222.906 176.654C222.706 176.372 222.528 176.23 222.373 176.23C222.163 176.23 222.072 176.472 222.1 176.955L223.781 201.906H221.43ZM1.95508 227.467V226.906H24.3633V227.467H1.95508ZM28.0137 212.906H49.5742V215.395C48.526 214.939 47.0586 214.506 45.1719 214.096C43.2943 213.676 42.0365 213.467 41.3984 213.467C40.8698 213.467 40.487 213.604 40.25 213.877C40.0221 214.141 39.9082 214.638 39.9082 215.367V240.906H37.666V215.367C37.666 214.638 37.5521 214.141 37.3242 213.877C37.0964 213.604 36.7181 213.467 36.1895 213.467C35.5514 213.467 34.2891 213.676 32.4023 214.096C30.5247 214.506 29.0618 214.939 28.0137 215.395V212.906ZM63.5195 241.467C61.9883 241.467 60.5163 241.243 59.1035 240.797C57.6999 240.35 56.4193 239.703 55.2617 238.855C54.1133 237.999 53.1107 236.987 52.2539 235.82C51.3971 234.645 50.7318 233.296 50.2578 231.773C49.7839 230.242 49.5469 228.62 49.5469 226.906C49.5469 225.193 49.7839 223.575 50.2578 222.053C50.7318 220.521 51.3971 219.173 52.2539 218.006C53.1107 216.83 54.1133 215.818 55.2617 214.971C56.4193 214.114 57.6999 213.462 59.1035 213.016C60.5163 212.569 61.9883 212.346 63.5195 212.346C65.4336 212.346 67.2428 212.701 68.9473 213.412C70.6608 214.114 72.1465 215.089 73.4043 216.338C74.6712 217.587 75.6738 219.127 76.4121 220.959C77.1504 222.791 77.5195 224.773 77.5195 226.906C77.5195 229.039 77.1504 231.021 76.4121 232.854C75.6738 234.686 74.6712 236.226 73.4043 237.475C72.1465 238.723 70.6608 239.703 68.9473 240.414C67.2428 241.116 65.4336 241.467 63.5195 241.467ZM52.7051 221.191C52.0944 222.951 51.7891 224.855 51.7891 226.906C51.7891 228.957 52.0944 230.862 52.7051 232.621C53.3249 234.38 54.1634 235.861 55.2207 237.064C56.278 238.268 57.5221 239.211 58.9531 239.895C60.3932 240.569 61.9154 240.906 63.5195 240.906C65.1237 240.906 66.6458 240.569 68.0859 239.895C69.526 239.211 70.7747 238.268 71.832 237.064C72.8984 235.861 73.7415 234.38 74.3613 232.621C74.9811 230.862 75.291 228.957 75.291 226.906C75.291 224.855 74.9811 222.951 74.3613 221.191C73.7415 219.432 72.8984 217.951 71.832 216.748C70.7747 215.545 69.526 214.606 68.0859 213.932C66.6458 213.248 65.1237 212.906 63.5195 212.906C61.9154 212.906 60.3932 213.248 58.9531 213.932C57.5221 214.606 56.278 215.545 55.2207 216.748C54.1634 217.951 53.3249 219.432 52.7051 221.191ZM108.951 240.906H89.5508V212.906H91.7656V238.445C91.7656 239.174 91.8796 239.676 92.1074 239.949C92.3353 240.214 92.7135 240.346 93.2422 240.346C95.776 240.346 98.6654 240.145 101.91 239.744C105.164 239.343 107.511 238.901 108.951 238.418V240.906ZM109.484 231.773C109.01 230.242 108.773 228.62 108.773 226.906C108.773 225.193 109.01 223.575 109.484 222.053C109.958 220.521 110.624 219.173 111.48 218.006C112.337 216.83 113.34 215.818 114.488 214.971C115.646 214.114 116.926 213.462 118.33 213.016C119.743 212.569 121.215 212.346 122.746 212.346C124.04 212.346 125.303 212.464 126.533 212.701C127.773 212.938 128.898 213.275 129.91 213.713C130.931 214.15 131.751 214.725 132.371 215.436C132.991 216.146 133.301 216.935 133.301 217.801C133.301 218.102 133.255 218.361 133.164 218.58C133.082 218.79 132.977 218.945 132.85 219.045C132.731 219.136 132.608 219.209 132.48 219.264C132.362 219.309 132.262 219.332 132.18 219.332L132.043 219.346C131.934 218.571 131.61 217.796 131.072 217.021C130.535 216.247 129.855 215.559 129.035 214.957C128.224 214.346 127.262 213.854 126.15 213.48C125.038 213.098 123.904 212.906 122.746 212.906C121.142 212.906 119.62 213.248 118.18 213.932C116.749 214.606 115.505 215.545 114.447 216.748C113.39 217.951 112.551 219.432 111.932 221.191C111.321 222.951 111.016 224.855 111.016 226.906C111.016 228.957 111.321 230.862 111.932 232.621C112.551 234.38 113.39 235.861 114.447 237.064C115.505 238.268 116.749 239.211 118.18 239.895C119.62 240.569 121.142 240.906 122.746 240.906C123.803 240.906 124.874 240.733 125.959 240.387C127.053 240.04 128.06 239.576 128.98 238.992C129.901 238.4 130.744 237.748 131.51 237.037C132.285 236.317 132.95 235.561 133.506 234.768V237.912C132.822 238.942 131.46 239.794 129.418 240.469C127.376 241.134 125.152 241.467 122.746 241.467C121.215 241.467 119.743 241.243 118.33 240.797C116.926 240.35 115.646 239.703 114.488 238.855C113.34 237.999 112.337 236.987 111.48 235.82C110.624 234.645 109.958 233.296 109.484 231.773Z" fill="#383637"/>
<path d="M0.352 276.906L4.992 265.706H5.92L10.56 276.906H9.536L8.368 274.09H2.544L1.392 276.906H0.352ZM2.928 273.194H8L5.456 267.034L2.928 273.194ZM15.7926 277.114C13.3126 277.114 11.5686 275.306 11.5686 272.762C11.5686 270.218 13.3126 268.426 15.7926 268.426C17.7606 268.426 19.3766 269.594 19.8566 271.386H18.9126C18.3686 270.074 17.2166 269.322 15.7926 269.322C13.8406 269.322 12.4966 270.73 12.4966 272.762C12.4966 274.81 13.8406 276.218 15.7926 276.218C17.3126 276.218 18.4966 275.37 18.9606 274.01H19.9366C19.3766 275.946 17.8246 277.114 15.7926 277.114ZM22.4605 276.906V265.066H23.3885V272.266H24.6045C26.1405 272.266 26.8125 271.866 27.3405 270.474L28.0445 268.634H29.0365L28.2045 270.826C27.8365 271.754 27.4045 272.346 26.7485 272.698L29.4365 276.906H28.3325L25.8845 273.018C25.5005 273.098 25.0685 273.13 24.5725 273.13H23.3885V276.906H22.4605ZM31.7261 276.906V268.634H32.5101L32.5901 270.234C33.2461 269.05 34.3981 268.426 35.7261 268.426C37.8861 268.426 39.2141 269.946 39.2141 272.33V276.906H38.2861V272.41C38.2861 270.506 37.2621 269.322 35.6141 269.322C33.8701 269.322 32.6541 270.65 32.6541 272.618V276.906H31.7261ZM45.9675 277.114C43.4075 277.114 41.6155 275.322 41.6155 272.762C41.6155 270.218 43.4075 268.426 45.9675 268.426C48.5115 268.426 50.3035 270.218 50.3035 272.762C50.3035 275.322 48.5115 277.114 45.9675 277.114ZM42.5435 272.762C42.5435 274.81 43.9355 276.218 45.9675 276.218C47.9835 276.218 49.3755 274.81 49.3755 272.762C49.3755 270.73 47.9835 269.322 45.9675 269.322C43.9355 269.322 42.5435 270.73 42.5435 272.762ZM54.2499 276.906L51.2739 268.634H52.2659L54.7139 275.514L55.8819 272.506L57.3699 268.634H58.2339L59.7379 272.506L60.9059 275.514L63.3699 268.634H64.3459L61.3539 276.906H60.4579L59.0339 273.21L57.8019 269.994L55.1459 276.906H54.2499ZM66.3511 276.906V265.066H67.2791V276.906H66.3511ZM74.0739 277.114C71.5619 277.114 69.8499 275.338 69.8499 272.762C69.8499 270.202 71.5779 268.426 74.0899 268.426C76.6979 268.426 78.3779 270.346 78.3139 273.146H70.7939C70.9539 275.018 72.2339 276.234 74.0739 276.234C75.4179 276.234 76.4899 275.61 77.0339 274.538L78.0739 274.554C77.4339 276.138 75.9299 277.114 74.0739 277.114ZM70.7939 272.33H77.4019C77.1779 270.458 75.8979 269.306 74.0899 269.306C72.2499 269.306 70.9539 270.506 70.7939 272.33ZM84.3711 277.114C81.8751 277.114 80.1311 275.274 80.1311 272.762C80.1311 270.25 81.8751 268.426 84.3711 268.426C85.8911 268.426 87.1231 269.098 87.8591 270.17V265.066H88.7871V276.906H88.0191L87.9071 275.274C87.1871 276.41 85.9231 277.114 84.3711 277.114ZM81.0591 272.762C81.0591 274.794 82.4511 276.218 84.4831 276.218C86.4991 276.218 87.8911 274.794 87.8911 272.762C87.8911 270.746 86.4991 269.322 84.4831 269.322C82.4511 269.322 81.0591 270.746 81.0591 272.762ZM95.7175 280.314C93.6855 280.314 92.1815 279.242 91.8615 277.562H92.8055C93.0775 278.714 94.1975 279.434 95.7175 279.434C97.6215 279.434 98.8375 278.314 98.8375 276.538V275.194C98.1015 276.202 96.9175 276.81 95.5095 276.81C93.0935 276.81 91.3655 275.05 91.3655 272.618C91.3655 270.186 93.0935 268.426 95.5095 268.426C96.9655 268.426 98.1655 269.066 98.9015 270.122L98.9815 268.634H99.7655V276.57C99.7655 278.794 98.1335 280.314 95.7175 280.314ZM92.2935 272.618C92.2935 274.554 93.6535 275.898 95.6055 275.898C97.5415 275.898 98.9015 274.554 98.9015 272.618C98.9015 270.682 97.5415 269.322 95.6055 269.322C93.6535 269.322 92.2935 270.682 92.2935 272.618ZM106.558 277.114C104.046 277.114 102.334 275.338 102.334 272.762C102.334 270.202 104.062 268.426 106.574 268.426C109.182 268.426 110.862 270.346 110.798 273.146H103.278C103.438 275.018 104.718 276.234 106.558 276.234C107.902 276.234 108.974 275.61 109.518 274.538L110.558 274.554C109.918 276.138 108.414 277.114 106.558 277.114ZM103.278 272.33H109.886C109.662 270.458 108.382 269.306 106.574 269.306C104.734 269.306 103.438 270.506 103.278 272.33ZM113.336 276.906V268.634H114.12L114.2 269.978C114.776 268.97 115.784 268.426 117.064 268.426C118.504 268.426 119.608 269.146 120.088 270.41C120.648 269.146 121.784 268.426 123.24 268.426C125.32 268.426 126.664 269.85 126.664 272.154V276.906H125.736V272.298C125.736 270.458 124.712 269.322 123.128 269.322C121.512 269.322 120.456 270.49 120.456 272.362V276.906H119.528V272.298C119.528 270.458 118.52 269.322 116.936 269.322C115.32 269.322 114.264 270.49 114.264 272.362V276.906H113.336ZM133.277 277.114C130.765 277.114 129.053 275.338 129.053 272.762C129.053 270.202 130.781 268.426 133.293 268.426C135.901 268.426 137.581 270.346 137.517 273.146H129.997C130.157 275.018 131.437 276.234 133.277 276.234C134.621 276.234 135.693 275.61 136.237 274.538L137.277 274.554C136.637 276.138 135.133 277.114 133.277 277.114ZM129.997 272.33H136.605C136.381 270.458 135.101 269.306 133.293 269.306C131.453 269.306 130.157 270.506 129.997 272.33ZM140.054 276.906V268.634H140.838L140.918 270.234C141.574 269.05 142.726 268.426 144.054 268.426C146.214 268.426 147.542 269.946 147.542 272.33V276.906H146.614V272.41C146.614 270.506 145.59 269.322 143.942 269.322C142.198 269.322 140.982 270.65 140.982 272.618V276.906H140.054ZM153.758 276.906C151.998 276.906 151.054 275.914 151.054 274.042V269.482H149.246V268.634H150.302C150.926 268.634 151.102 268.474 151.166 267.866L151.246 266.602H151.982V268.634H154.846V269.482H151.982V274.01C151.982 275.37 152.542 276.01 153.79 276.01H154.958V276.906H153.758ZM164.702 277.114C162.43 277.114 161.022 276.01 161.022 274.186C161.022 272.81 161.822 271.77 163.486 271.018C162.51 269.946 161.934 269.05 161.934 268.042C161.934 266.522 163.198 265.498 165.054 265.498C166.926 265.498 168.19 266.57 168.19 268.122C168.19 269.514 167.214 270.522 165.07 271.338L168.094 274.442C168.542 273.674 168.782 272.682 168.798 271.482H169.726C169.71 272.97 169.39 274.202 168.766 275.13L170.51 276.906H169.262L168.206 275.818C167.358 276.666 166.174 277.114 164.702 277.114ZM161.95 274.17C161.95 275.45 163.006 276.218 164.718 276.218C165.902 276.218 166.862 275.85 167.534 275.162L164.142 271.69C162.67 272.298 161.95 273.13 161.95 274.17ZM162.846 268.042C162.846 268.746 163.278 269.466 164.414 270.666C166.462 269.882 167.278 269.162 167.278 268.122C167.278 267.05 166.414 266.362 165.054 266.362C163.71 266.362 162.846 267.018 162.846 268.042ZM181.282 277.114C177.986 277.114 175.602 274.714 175.602 271.306C175.602 267.898 177.986 265.498 181.282 265.498C183.842 265.498 185.938 266.986 186.674 269.338H185.65C185.01 267.562 183.346 266.474 181.298 266.474C178.562 266.474 176.594 268.442 176.594 271.306C176.594 274.17 178.562 276.138 181.298 276.138C183.394 276.138 185.122 275.002 185.746 273.146H186.77C186.082 275.562 183.922 277.114 181.282 277.114ZM192.905 277.114C190.345 277.114 188.553 275.322 188.553 272.762C188.553 270.218 190.345 268.426 192.905 268.426C195.449 268.426 197.241 270.218 197.241 272.762C197.241 275.322 195.449 277.114 192.905 277.114ZM189.481 272.762C189.481 274.81 190.873 276.218 192.905 276.218C194.921 276.218 196.313 274.81 196.313 272.762C196.313 270.73 194.921 269.322 192.905 269.322C190.873 269.322 189.481 270.73 189.481 272.762ZM199.82 276.906V268.634H200.604L200.684 270.234C201.34 269.05 202.492 268.426 203.82 268.426C205.98 268.426 207.308 269.946 207.308 272.33V276.906H206.38V272.41C206.38 270.506 205.356 269.322 203.708 269.322C201.964 269.322 200.748 270.65 200.748 272.618V276.906H199.82ZM213.277 277.114C211.181 277.114 209.853 276.058 209.789 274.41H210.701C210.797 275.578 211.709 276.266 213.293 276.266C214.749 276.266 215.629 275.706 215.629 274.794C215.629 273.93 214.845 273.402 213.085 273.098C210.925 272.73 209.949 271.962 209.949 270.698C209.949 269.29 211.149 268.426 213.085 268.426C215.037 268.426 216.269 269.354 216.397 270.938H215.469C215.373 269.85 214.525 269.258 213.085 269.258C211.709 269.258 210.877 269.818 210.877 270.714C210.877 271.53 211.565 271.978 213.405 272.33C215.501 272.73 216.541 273.562 216.541 274.81C216.541 276.202 215.277 277.114 213.277 277.114ZM222.73 277.114C220.218 277.114 218.506 275.338 218.506 272.762C218.506 270.202 220.234 268.426 222.746 268.426C225.354 268.426 227.034 270.346 226.97 273.146H219.45C219.61 275.018 220.89 276.234 222.73 276.234C224.074 276.234 225.146 275.61 225.69 274.538L226.73 274.554C226.09 276.138 224.586 277.114 222.73 277.114ZM219.45 272.33H226.058C225.834 270.458 224.554 269.306 222.746 269.306C220.906 269.306 219.61 270.506 219.45 272.33ZM229.507 276.906V268.634H230.291L230.371 270.234C231.027 269.05 232.179 268.426 233.507 268.426C235.667 268.426 236.995 269.946 236.995 272.33V276.906H236.067V272.41C236.067 270.506 235.043 269.322 233.395 269.322C231.651 269.322 230.435 270.65 230.435 272.618V276.906H229.507ZM243.211 276.906C241.451 276.906 240.507 275.914 240.507 274.042V269.482H238.699V268.634H239.755C240.379 268.634 240.555 268.474 240.619 267.866L240.699 266.602H241.435V268.634H244.299V269.482H241.435V274.01C241.435 275.37 241.995 276.01 243.243 276.01H244.411V276.906H243.211Z" fill="#5B5852"/>
</svg>
