<svg width="366" height="283" viewBox="0 0 366 283" fill="none" xmlns="http://www.w3.org/2000/svg">
<path d="M39.9453 0.321289C39.6338 1.16044 39.3391 1.99171 39.0156 2.74316C37.3342 6.65348 35.4723 10.4771 33.9385 14.4443C32.7574 17.4977 31.6991 20.6355 30.6328 23.7188C31.3354 23.7132 31.259 22.7499 31.4941 22.2021C31.6174 21.9172 32.0982 21.1689 32.3633 21.0469C32.7734 20.8598 33.5277 21.1803 33.4648 21.625C32.642 23.5828 32.2598 25.6845 31.5244 27.6748C30.9011 29.3615 30.3349 31.0402 29.7197 32.7432C27.8688 37.8601 25.5552 42.9445 23.8164 48.0615C21.3449 55.337 19.42 62.8133 16.6504 69.9912C15.4803 73.0229 14.8241 76.0493 13.8535 79.1162C13.2794 80.9276 12.3035 83.3685 12.041 85.1826C11.9864 85.5649 12.0908 85.9961 12.0088 86.3594C11.954 86.5953 11.5984 87.029 11.4727 87.3408C10.7727 89.0872 10.0205 92.7534 9.71973 94.6787C9.63498 95.2237 9.64093 96.753 9.46875 97.0488C9.30749 97.3226 9.13502 97.2523 9.08301 96.9678C8.99552 96.477 9.04434 95.0989 9.07715 94.543C9.17013 93.0326 9.56976 91.4976 9.78027 89.998C9.94699 88.8106 9.85908 88.6555 10.3184 87.5059C10.7776 86.3535 10.9012 85.4557 11.1035 84.249C12.2136 77.5973 14.6663 71.7294 16.375 65.2783C16.6949 64.0662 17.2227 62.3848 17.3184 61.1699C17.3266 61.0587 17.3944 60.7961 17.2197 60.8203C15.0243 69.0448 11.8476 76.9819 9.62207 85.1982C8.86474 87.9995 8.15387 90.8419 7.86133 93.7354C7.81217 94.2153 7.91834 94.7605 7.85547 95.2432C7.78431 95.7935 7.47853 96.4821 7.38281 97.0947C7.0192 99.4647 7.0871 103.687 7.98926 105.916C8.77393 107.855 9.73689 107.977 11.1641 109.219C11.6341 109.628 12.2528 110.357 12.9062 110.906H0V45.7666C0 22.4516 17.4142 3.20438 39.9453 0.321289ZM50.0527 77.2129C50.1184 77.137 50.441 76.6321 50.5586 76.7568C47.7972 82.1179 45.3284 87.7611 44.1035 93.6943C42.9005 99.5164 43.056 103.598 45.9678 108.889C46.3353 109.556 46.9382 110.255 47.6699 110.906H16.7666C18.7844 110.166 21.1762 109.112 22.8105 108.159C23.1084 107.986 24.3901 107.129 24.4922 106.896C24.5441 106.776 24.2899 106.675 24.3418 106.461C24.4214 106.133 25.1152 105.767 25.293 105.577C25.6483 105.198 25.8808 104.696 26.3125 104.271C26.5886 103.997 27.7477 103.018 28.0488 102.969C28.8827 102.833 30.157 103.831 30.1133 102.627C29.1618 102.041 29.5202 101.447 30.5127 101.371C30.7918 101.35 31.6414 101.821 31.5107 101.149C31.3494 100.32 31.1636 100.29 31.9072 99.6416C33.1402 98.5678 35.1169 97.4341 35.4014 95.6445C35.4369 95.4141 35.2016 95.2215 35.5186 94.9531C36.3169 94.2779 37.894 95.0664 38.3916 93.6699C38.4709 93.4503 38.4463 93.1356 38.5557 92.9512C38.6186 92.8454 38.8569 92.7883 38.9717 92.6338C39.3732 92.0832 39.0835 90.8335 39.1709 90.1611L38.5615 90.0088L39.1191 89.5586C39.3267 89.6426 39.2399 90.0244 39.2725 90.0576C39.3244 90.1119 39.8578 90.0332 39.959 89.9355C40.0385 89.855 40.234 89.2001 40.1855 89.1553H39.7285C39.5344 88.8109 40.0708 88.6075 40.2295 88.3418C40.3498 88.1385 40.355 87.8671 40.4697 87.6719C41.197 86.4489 42.4302 85.9171 43.3379 84.9707C43.6058 84.6914 43.756 84.3361 44.0977 84.0107C44.2917 83.8264 44.6309 83.6939 44.7568 83.5557C44.94 83.3523 44.9129 83.0536 45.0469 82.834C45.7523 81.6599 47.4198 80.4534 48.374 79.377C48.9755 78.6964 49.465 77.9071 50.0527 77.2129ZM47.9854 0C72.2842 1.13123 91.6377 21.188 91.6377 45.7666V110.906H62.749C63.428 110.409 63.8634 109.705 64.5977 109.181C65.6665 108.419 66.9378 108.08 67.9766 107.392C74.2649 103.21 80.7424 96.9481 85.6309 91.2236C87.438 89.1085 90.2399 86.0147 91.123 83.4658C91.3773 82.7337 91.6917 81.9826 91.6289 81.1963L91.6348 81.1904C91.4926 81.1796 91.3584 81.1902 91.2217 81.2363C90.8362 81.3719 88.4033 84.0919 87.9219 84.6182C82.2706 90.7873 77.1112 97.8434 69.9727 102.407C66.2571 104.783 62.4297 106.35 58.3916 108.062C56.579 108.829 52.9811 109.308 51.0508 108.988C49.2819 108.695 48.716 108.46 48.2539 106.719C47.8875 105.341 47.3264 102.261 47.3154 100.886C47.31 100.04 47.7477 98.9331 47.9062 98.0654C49.2624 90.5947 52.9266 81.6701 57.249 75.3682C59.2202 72.4913 61.178 70.7337 63.5264 68.2852C64.4858 67.2846 65.2292 66.0833 66.1641 65.0557C68.0751 62.9568 70.3718 61.2349 72.7285 59.6621L72.9502 59.6299C73.713 59.9905 74.4239 60.0558 74.957 60.7744C76.8786 63.3614 72.8762 67.1357 71.583 69.2236C71.4135 69.5599 71.3731 70.0757 71.6328 70.374C71.7726 70.5364 72.2416 70.6796 72.4658 70.7041C73.0973 70.7746 75.0087 70.7914 75.6104 70.6992C77.2945 70.4389 79.4707 66.0971 79.6895 64.5596C80.2854 60.3647 77.3085 57.5312 73.3525 56.9209C71.7834 56.6796 71.7937 56.994 70.5283 57.1865C68.8469 57.4441 68.0943 57.0377 66.3828 58.0166C62.7247 60.1156 57.8578 65.3436 55.3535 68.7549C54.0249 70.5662 53.0904 72.7115 51.625 74.333C50.5615 75.5126 49.3366 76.5809 48.2676 77.7578C46.4221 79.7916 44.7673 82.0095 42.8809 84.0107C41.3006 85.692 39.4257 87.2436 37.8975 88.9492C34.696 92.5205 31.8002 95.4244 28.041 98.4316C27.2563 99.058 26.6081 99.8472 25.8535 100.498C23.2809 102.708 19.9129 105.255 16.9355 106.879C15.6123 107.6 14.1849 108.647 13.3701 106.824C12.5583 105.004 12.7682 100.744 12.9404 98.6836C13.0171 97.7673 13.4496 96.9052 13.5371 95.9482C13.6574 94.6385 13.5479 93.6317 13.9307 92.3057C14.286 91.0776 14.521 90.3237 14.7998 89.0332C15.2919 86.7581 16.0161 85.1254 16.6504 83.0049C17.7549 79.3143 18.5732 75.4827 19.8555 71.8652C21.9743 65.8861 23.7152 59.7791 25.8477 53.8135C28.5325 46.3075 31.683 38.9531 34.417 31.458C35.2481 29.1748 36.1558 26.9319 37.0088 24.6514C38.9035 19.5723 40.8413 14.4411 43.25 9.56543C44.2233 7.59137 45.399 6.17858 46.4707 4.3916C46.8665 3.73277 47.6789 1.32218 47.9854 0ZM8.88867 99.9854H8.8916L8.58301 100.04C8.38895 99.7039 8.60436 99.3915 8.98145 99.3398L8.88867 99.9854ZM37.0908 91.4736C37.2136 91.4086 37.2818 91.3355 37.4482 91.376C37.4018 91.7013 37.5632 92.2946 37.3477 92.5361L37.1641 92.6699C36.8562 92.8839 36.271 93.273 36.1992 93.3096C35.8958 93.4641 35.5509 93.5183 35.2119 93.4912C34.9774 93.282 36.8229 91.6119 37.0908 91.4736ZM47.4385 87.3135C47.2581 87.7933 46.873 86.7859 47.4111 86.8369L47.4385 87.3135ZM47.7207 85.2256C47.9665 85.1797 48.0021 85.4263 48.125 85.5781H48.1221L47.9717 85.7275L47.7314 85.5645L47.7207 85.2256ZM48.4287 83.3086C48.5244 83.2463 48.7645 83.3306 48.8301 83.458L48.4775 84.1113C48.2126 84.0297 48.3713 83.3436 48.4287 83.3057V83.3086ZM50.46 79.9814C50.4846 80.3584 50.4815 80.9518 49.9512 80.8867C49.9293 80.461 49.9187 79.9815 50.46 79.9814ZM51.2666 77.9229C51.286 77.8229 51.5444 77.8499 51.5752 77.8662C51.7801 77.999 51.5594 78.5652 51.3271 78.666C51.0565 78.4708 51.19 78.164 51.2666 77.9199V77.9229ZM53.3086 74.5361C53.2813 74.8588 53.4396 75.0921 53.3467 75.4229C53.2236 75.8648 52.6884 76.2196 52.5381 75.6475C52.454 75.3272 53.1908 74.3957 53.3086 74.5361ZM35.2891 13.8584C36.1035 13.6905 35.9966 14.6499 35.4443 14.7285C34.843 14.815 34.6439 13.9913 35.2891 13.8584ZM36.7402 11.8223C36.5762 11.1226 36.4427 10.2845 37.457 10.5557C37.7604 11.117 37.4155 11.8412 36.7402 11.8223Z" fill="#99948B"/>
<path d="M15.3672 163.467C13.8359 163.467 12.3639 163.243 10.9512 162.797C9.54753 162.35 8.26693 161.703 7.10938 160.855C5.96094 159.999 4.95833 158.987 4.10156 157.82C3.24479 156.645 2.57943 155.296 2.10547 153.773C1.63151 152.242 1.39453 150.62 1.39453 148.906C1.39453 147.193 1.63151 145.575 2.10547 144.053C2.57943 142.521 3.24479 141.173 4.10156 140.006C4.95833 138.83 5.96094 137.818 7.10938 136.971C8.26693 136.114 9.54753 135.462 10.9512 135.016C12.3639 134.569 13.8359 134.346 15.3672 134.346C17.2812 134.346 19.0905 134.701 20.7949 135.412C22.5085 136.114 23.9941 137.089 25.252 138.338C26.5189 139.587 27.5215 141.127 28.2598 142.959C28.998 144.791 29.3672 146.773 29.3672 148.906C29.3672 151.039 28.998 153.021 28.2598 154.854C27.5215 156.686 26.5189 158.226 25.252 159.475C23.9941 160.723 22.5085 161.703 20.7949 162.414C19.0905 163.116 17.2812 163.467 15.3672 163.467ZM4.55273 143.191C3.94206 144.951 3.63672 146.855 3.63672 148.906C3.63672 150.957 3.94206 152.862 4.55273 154.621C5.17253 156.38 6.01107 157.861 7.06836 159.064C8.12565 160.268 9.36979 161.211 10.8008 161.895C12.2409 162.569 13.763 162.906 15.3672 162.906C16.9714 162.906 18.4935 162.569 19.9336 161.895C21.3737 161.211 22.6224 160.268 23.6797 159.064C24.7461 157.861 25.5892 156.38 26.209 154.621C26.8288 152.862 27.1387 150.957 27.1387 148.906C27.1387 146.855 26.8288 144.951 26.209 143.191C25.5892 141.432 24.7461 139.951 23.6797 138.748C22.6224 137.545 21.3737 136.606 19.9336 135.932C18.4935 135.248 16.9714 134.906 15.3672 134.906C13.763 134.906 12.2409 135.248 10.8008 135.932C9.36979 136.606 8.12565 137.545 7.06836 138.748C6.01107 139.951 5.17253 141.432 4.55273 143.191ZM35.2461 162.906H33.0039V134.906H52.4043V137.395C50.9642 136.911 48.6172 136.469 45.3633 136.068C42.1185 135.667 39.2292 135.467 36.6953 135.467C36.1667 135.467 35.7884 135.604 35.5605 135.877C35.3327 136.141 35.2188 136.638 35.2188 137.367V146.213C35.2188 146.632 35.3464 146.974 35.6016 147.238C35.8568 147.493 36.194 147.621 36.6133 147.621H49.6562V149.973C47.9792 149.562 45.7734 149.18 43.0391 148.824C40.3047 148.469 38.1719 148.291 36.6406 148.291C36.2122 148.291 35.8704 148.396 35.6152 148.605C35.3691 148.815 35.2461 149.12 35.2461 149.521V162.906ZM58.5703 162.906H56.3281V134.906H75.7285V137.395C74.2884 136.911 71.9414 136.469 68.6875 136.068C65.4427 135.667 62.5534 135.467 60.0195 135.467C59.4909 135.467 59.1126 135.604 58.8848 135.877C58.6569 136.141 58.543 136.638 58.543 137.367V146.213C58.543 146.632 58.6706 146.974 58.9258 147.238C59.181 147.493 59.5182 147.621 59.9375 147.621H72.9805V149.973C71.3034 149.562 69.0977 149.18 66.3633 148.824C63.6289 148.469 61.4961 148.291 59.9648 148.291C59.5365 148.291 59.1947 148.396 58.9395 148.605C58.6934 148.815 58.5703 149.12 58.5703 149.521V162.906ZM79.3652 149.467V148.906H87.7734V149.467H79.3652ZM111.385 162.906H91.9844V134.906H94.1992V160.445C94.1992 161.174 94.3132 161.676 94.541 161.949C94.7689 162.214 95.1471 162.346 95.6758 162.346C98.2096 162.346 101.099 162.145 104.344 161.744C107.598 161.343 109.945 160.901 111.385 160.418V162.906ZM115.65 162.906H113.189L122.732 136.219L122.145 134.906H124.619L137.102 162.906H134.641L132.59 158.34C132.152 157.355 131.432 156.48 130.43 155.715C129.436 154.94 128.361 154.361 127.203 153.979C126.046 153.587 124.929 153.391 123.854 153.391C122.003 153.391 120.276 153.969 118.672 155.127C118.371 155.346 118.07 155.71 117.77 156.221C117.478 156.722 117.268 157.205 117.141 157.67L115.65 162.906ZM118.699 152.297C118.562 152.798 118.613 153.049 118.85 153.049C118.968 153.049 119.173 152.976 119.465 152.83C120.559 152.229 121.743 151.928 123.02 151.928C124.286 151.928 125.562 152.201 126.848 152.748C128.142 153.286 129.35 154.01 130.471 154.922C130.79 155.186 130.99 155.286 131.072 155.223C131.154 155.159 131.109 154.94 130.936 154.566L123.717 138.379C123.553 137.987 123.375 137.791 123.184 137.791C122.983 137.791 122.814 138.014 122.678 138.461L118.699 152.297ZM152.305 162.906H139.426V134.906H151.689C152.601 134.906 153.435 134.993 154.191 135.166C154.948 135.33 155.577 135.544 156.078 135.809C156.579 136.073 157.021 136.392 157.404 136.766C157.787 137.139 158.083 137.513 158.293 137.887C158.503 138.251 158.671 138.648 158.799 139.076C158.936 139.495 159.022 139.86 159.059 140.17C159.095 140.48 159.113 140.79 159.113 141.1C159.113 141.464 159.059 141.861 158.949 142.289C158.849 142.708 158.662 143.173 158.389 143.684C158.115 144.194 157.773 144.663 157.363 145.092C156.953 145.52 156.402 145.908 155.709 146.254C155.025 146.6 154.255 146.842 153.398 146.979C154.255 147.051 155.048 147.206 155.777 147.443C156.507 147.68 157.126 147.967 157.637 148.305C158.147 148.642 158.603 149.034 159.004 149.48C159.414 149.927 159.742 150.378 159.988 150.834C160.243 151.29 160.449 151.768 160.604 152.27C160.768 152.771 160.882 153.236 160.945 153.664C161.009 154.092 161.041 154.512 161.041 154.922C161.041 155.35 161.005 155.792 160.932 156.248C160.868 156.704 160.74 157.201 160.549 157.738C160.367 158.267 160.134 158.773 159.852 159.256C159.569 159.73 159.195 160.195 158.73 160.65C158.275 161.097 157.751 161.484 157.158 161.812C156.575 162.141 155.864 162.405 155.025 162.605C154.196 162.806 153.289 162.906 152.305 162.906ZM141.641 160.445C141.641 161.174 141.755 161.676 141.982 161.949C142.21 162.214 142.589 162.346 143.117 162.346H149.844C152.605 162.346 154.715 161.689 156.174 160.377C157.641 159.064 158.375 157.246 158.375 154.922C158.375 152.598 157.641 150.766 156.174 149.426C154.706 148.086 152.596 147.416 149.844 147.416H143.062C142.643 147.416 142.306 147.548 142.051 147.812C141.796 148.068 141.668 148.405 141.668 148.824C141.65 152.725 141.641 156.599 141.641 160.445ZM141.668 136.807V145.461C141.668 145.88 141.796 146.217 142.051 146.473C142.306 146.728 142.643 146.855 143.062 146.855H150.008C151.074 146.855 152.04 146.701 152.906 146.391C153.781 146.072 154.497 145.648 155.053 145.119C155.609 144.581 156.037 143.962 156.338 143.26C156.639 142.549 156.789 141.797 156.789 141.004C156.789 139.382 156.192 138.055 154.998 137.025C153.804 135.986 152.141 135.467 150.008 135.467H143.117C142.661 135.467 142.32 135.562 142.092 135.754C141.864 135.945 141.723 136.296 141.668 136.807ZM164.582 162.906V134.906H183.982V137.395C182.542 136.911 180.195 136.469 176.941 136.068C173.697 135.667 170.807 135.467 168.273 135.467C167.745 135.467 167.367 135.604 167.139 135.877C166.911 136.141 166.797 136.638 166.797 137.367V146.213C166.797 146.632 166.924 146.974 167.18 147.238C167.435 147.493 167.772 147.621 168.191 147.621H181.234V149.973C179.557 149.562 177.352 149.18 174.617 148.824C171.883 148.469 169.75 148.291 168.219 148.291C167.79 148.291 167.449 148.396 167.193 148.605C166.947 148.815 166.824 149.12 166.824 149.521L166.797 160.445C166.797 161.174 166.911 161.676 167.139 161.949C167.367 162.214 167.745 162.346 168.273 162.346C170.807 162.346 173.697 162.145 176.941 161.744C180.195 161.343 182.542 160.901 183.982 160.418V162.906H164.582ZM207.307 162.906H187.906V134.906H190.121V160.445C190.121 161.174 190.235 161.676 190.463 161.949C190.691 162.214 191.069 162.346 191.598 162.346C194.132 162.346 197.021 162.145 200.266 161.744C203.52 161.343 205.867 160.901 207.307 160.418V162.906ZM4.59375 201.906H2.24219V173.906H4.53906L13.7812 191.215C13.9727 191.589 14.1868 191.775 14.4238 191.775C14.6426 191.775 14.8477 191.579 15.0391 191.188L23.1328 173.906H25.7031V201.906H23.3516V176.955C23.3516 176.718 23.3197 176.536 23.2559 176.408C23.1921 176.271 23.11 176.203 23.0098 176.203C22.8548 176.203 22.6999 176.354 22.5449 176.654C22.3991 176.919 21.5924 178.614 20.125 181.74C18.6667 184.857 17.2402 187.911 15.8457 190.9L13.7539 195.385C7.34635 183.363 4.0013 177.119 3.71875 176.654C3.5638 176.354 3.39974 176.203 3.22656 176.203C3.1263 176.203 3.04427 176.271 2.98047 176.408C2.92578 176.545 2.90299 176.727 2.91211 176.955L4.59375 201.906ZM30.1875 201.906V173.906H49.5879V176.395C48.1478 175.911 45.8008 175.469 42.5469 175.068C39.3021 174.667 36.4128 174.467 33.8789 174.467C33.3503 174.467 32.972 174.604 32.7441 174.877C32.5163 175.141 32.4023 175.638 32.4023 176.367V185.213C32.4023 185.632 32.5299 185.974 32.7852 186.238C33.0404 186.493 33.3776 186.621 33.7969 186.621H46.8398V188.973C45.1628 188.562 42.957 188.18 40.2227 187.824C37.4883 187.469 35.3555 187.291 33.8242 187.291C33.3958 187.291 33.054 187.396 32.7988 187.605C32.5527 187.815 32.4297 188.12 32.4297 188.521L32.4023 199.445C32.4023 200.174 32.5163 200.676 32.7441 200.949C32.972 201.214 33.3503 201.346 33.8789 201.346C36.4128 201.346 39.3021 201.145 42.5469 200.744C45.8008 200.343 48.1478 199.901 49.5879 199.418V201.906H30.1875ZM53.5117 173.906H62.3574C64.2077 173.906 65.9486 174.257 67.5801 174.959C69.2207 175.661 70.6289 176.627 71.8047 177.857C72.9805 179.079 73.9056 180.56 74.5801 182.301C75.2637 184.042 75.6055 185.91 75.6055 187.906C75.6055 189.902 75.2637 191.771 74.5801 193.512C73.9056 195.253 72.9805 196.738 71.8047 197.969C70.6289 199.19 69.2207 200.152 67.5801 200.854C65.9486 201.555 64.2077 201.906 62.3574 201.906H53.5117V173.906ZM55.7539 175.807C55.7539 176.326 55.7493 180.09 55.7402 187.1C55.7311 194.1 55.7266 198.26 55.7266 199.582C55.7266 200.311 55.8405 200.812 56.0684 201.086C56.2962 201.35 56.6745 201.482 57.2031 201.482C57.4948 201.482 58.0736 201.487 58.9395 201.496C59.8053 201.505 60.3568 201.51 60.5938 201.51C62.0247 201.51 63.3555 201.327 64.5859 200.963C65.8255 200.589 66.8965 200.079 67.7988 199.432C68.7012 198.775 69.5033 198.014 70.2051 197.148C70.9069 196.283 71.472 195.339 71.9004 194.318C72.3288 193.298 72.6523 192.249 72.8711 191.174C73.0898 190.098 73.1992 189.009 73.1992 187.906C73.1992 186.576 73.0488 185.277 72.748 184.01C72.4473 182.743 71.9642 181.526 71.2988 180.359C70.6335 179.193 69.8177 178.176 68.8516 177.311C67.8945 176.436 66.7051 175.738 65.2832 175.219C63.8704 174.699 62.3073 174.439 60.5938 174.439C60.3568 174.439 59.8053 174.444 58.9395 174.453C58.0736 174.462 57.4948 174.467 57.2031 174.467C56.7474 174.467 56.4056 174.562 56.1777 174.754C55.9499 174.945 55.8086 175.296 55.7539 175.807ZM79.2422 201.906V173.906H81.4844V201.906H79.2422ZM85.832 192.773C85.3581 191.242 85.1211 189.62 85.1211 187.906C85.1211 186.193 85.3581 184.575 85.832 183.053C86.306 181.521 86.9714 180.173 87.8281 179.006C88.6849 177.83 89.6875 176.818 90.8359 175.971C91.9935 175.114 93.2741 174.462 94.6777 174.016C96.0905 173.569 97.5625 173.346 99.0938 173.346C100.388 173.346 101.65 173.464 102.881 173.701C104.12 173.938 105.246 174.275 106.258 174.713C107.279 175.15 108.099 175.725 108.719 176.436C109.339 177.146 109.648 177.935 109.648 178.801C109.648 179.102 109.603 179.361 109.512 179.58C109.43 179.79 109.325 179.945 109.197 180.045C109.079 180.136 108.956 180.209 108.828 180.264C108.71 180.309 108.609 180.332 108.527 180.332L108.391 180.346C108.281 179.571 107.958 178.796 107.42 178.021C106.882 177.247 106.203 176.559 105.383 175.957C104.572 175.346 103.61 174.854 102.498 174.48C101.386 174.098 100.251 173.906 99.0938 173.906C97.4896 173.906 95.9674 174.248 94.5273 174.932C93.0964 175.606 91.8522 176.545 90.7949 177.748C89.7376 178.951 88.8991 180.432 88.2793 182.191C87.6686 183.951 87.3633 185.855 87.3633 187.906C87.3633 189.957 87.6686 191.862 88.2793 193.621C88.8991 195.38 89.7376 196.861 90.7949 198.064C91.8522 199.268 93.0964 200.211 94.5273 200.895C95.9674 201.569 97.4896 201.906 99.0938 201.906C100.151 201.906 101.222 201.733 102.307 201.387C103.4 201.04 104.408 200.576 105.328 199.992C106.249 199.4 107.092 198.748 107.857 198.037C108.632 197.317 109.298 196.561 109.854 195.768V198.912C109.17 199.942 107.807 200.794 105.766 201.469C103.724 202.134 101.5 202.467 99.0938 202.467C97.5625 202.467 96.0905 202.243 94.6777 201.797C93.2741 201.35 91.9935 200.703 90.8359 199.855C89.6875 198.999 88.6849 197.987 87.8281 196.82C86.9714 195.645 86.306 194.296 85.832 192.773ZM114.256 201.906H111.795L121.338 175.219L120.75 173.906H123.225L135.707 201.906H133.246L131.195 197.34C130.758 196.355 130.038 195.48 129.035 194.715C128.042 193.94 126.966 193.361 125.809 192.979C124.651 192.587 123.535 192.391 122.459 192.391C120.609 192.391 118.882 192.969 117.277 194.127C116.977 194.346 116.676 194.71 116.375 195.221C116.083 195.722 115.874 196.205 115.746 196.67L114.256 201.906ZM117.305 191.297C117.168 191.798 117.218 192.049 117.455 192.049C117.574 192.049 117.779 191.976 118.07 191.83C119.164 191.229 120.349 190.928 121.625 190.928C122.892 190.928 124.168 191.201 125.453 191.748C126.747 192.286 127.955 193.01 129.076 193.922C129.395 194.186 129.596 194.286 129.678 194.223C129.76 194.159 129.714 193.94 129.541 193.566L122.322 177.379C122.158 176.987 121.98 176.791 121.789 176.791C121.589 176.791 121.42 177.014 121.283 177.461L117.305 191.297ZM130.744 173.906H152.305V176.395C151.257 175.939 149.789 175.506 147.902 175.096C146.025 174.676 144.767 174.467 144.129 174.467C143.6 174.467 143.217 174.604 142.98 174.877C142.753 175.141 142.639 175.638 142.639 176.367V201.906H140.396V176.367C140.396 175.638 140.283 175.141 140.055 174.877C139.827 174.604 139.449 174.467 138.92 174.467C138.282 174.467 137.02 174.676 135.133 175.096C133.255 175.506 131.792 175.939 130.744 176.395V173.906ZM156.215 201.906V173.906H158.457V201.906H156.215ZM176.066 202.467C174.535 202.467 173.063 202.243 171.65 201.797C170.247 201.35 168.966 200.703 167.809 199.855C166.66 198.999 165.658 197.987 164.801 196.82C163.944 195.645 163.279 194.296 162.805 192.773C162.331 191.242 162.094 189.62 162.094 187.906C162.094 186.193 162.331 184.575 162.805 183.053C163.279 181.521 163.944 180.173 164.801 179.006C165.658 177.83 166.66 176.818 167.809 175.971C168.966 175.114 170.247 174.462 171.65 174.016C173.063 173.569 174.535 173.346 176.066 173.346C177.98 173.346 179.79 173.701 181.494 174.412C183.208 175.114 184.693 176.089 185.951 177.338C187.218 178.587 188.221 180.127 188.959 181.959C189.697 183.791 190.066 185.773 190.066 187.906C190.066 190.039 189.697 192.021 188.959 193.854C188.221 195.686 187.218 197.226 185.951 198.475C184.693 199.723 183.208 200.703 181.494 201.414C179.79 202.116 177.98 202.467 176.066 202.467ZM165.252 182.191C164.641 183.951 164.336 185.855 164.336 187.906C164.336 189.957 164.641 191.862 165.252 193.621C165.872 195.38 166.71 196.861 167.768 198.064C168.825 199.268 170.069 200.211 171.5 200.895C172.94 201.569 174.462 201.906 176.066 201.906C177.671 201.906 179.193 201.569 180.633 200.895C182.073 200.211 183.322 199.268 184.379 198.064C185.445 196.861 186.288 195.38 186.908 193.621C187.528 191.862 187.838 189.957 187.838 187.906C187.838 185.855 187.528 183.951 186.908 182.191C186.288 180.432 185.445 178.951 184.379 177.748C183.322 176.545 182.073 175.606 180.633 174.932C179.193 174.248 177.671 173.906 176.066 173.906C174.462 173.906 172.94 174.248 171.5 174.932C170.069 175.606 168.825 176.545 167.768 177.748C166.71 178.951 165.872 180.432 165.252 182.191ZM193.703 201.906V173.906H196C201.186 181.262 207.138 189.679 213.855 199.158C214.056 199.441 214.234 199.582 214.389 199.582C214.607 199.582 214.703 199.34 214.676 198.857L212.994 173.906H215.346V201.906H213.104C211.882 200.184 209.257 196.492 205.229 190.832C201.209 185.163 197.859 180.437 195.18 176.654C194.979 176.372 194.801 176.23 194.646 176.23C194.437 176.23 194.346 176.472 194.373 176.955L196.055 201.906H193.703Z" fill="#383637"/>
<path d="M1.808 237.906V226.706H2.784V237.906H1.808ZM6.24175 237.906V229.634H7.02575L7.10575 231.234C7.76175 230.05 8.91375 229.426 10.2418 229.426C12.4018 229.426 13.7298 230.946 13.7298 233.33V237.906H12.8018V233.41C12.8018 231.506 11.7778 230.322 10.1298 230.322C8.38575 230.322 7.16975 231.65 7.16975 233.618V237.906H6.24175ZM17.4793 228.674C17.4793 226.786 18.4073 225.858 20.2473 225.858H21.5433V226.738H20.3273C18.9833 226.738 18.4073 227.33 18.4073 228.738V229.634H21.4633V230.482H18.4073V237.906H17.4793V230.482H15.5913V229.634H17.4793V228.674ZM26.7175 238.114C24.1575 238.114 22.3655 236.322 22.3655 233.762C22.3655 231.218 24.1575 229.426 26.7175 229.426C29.2615 229.426 31.0535 231.218 31.0535 233.762C31.0535 236.322 29.2615 238.114 26.7175 238.114ZM23.2935 233.762C23.2935 235.81 24.6855 237.218 26.7175 237.218C28.7335 237.218 30.1255 235.81 30.1255 233.762C30.1255 231.73 28.7335 230.322 26.7175 230.322C24.6855 230.322 23.2935 231.73 23.2935 233.762ZM33.6324 237.906V229.634H34.4164L34.5124 231.49C35.0724 230.242 36.0164 229.634 37.5524 229.634H38.2404V230.498H37.5204C35.7444 230.498 34.5604 231.586 34.5604 234.098V237.906H33.6324ZM40.5699 237.906V229.634H41.3539L41.4339 230.978C42.0099 229.97 43.0179 229.426 44.2979 229.426C45.7379 229.426 46.8419 230.146 47.3219 231.41C47.8819 230.146 49.0179 229.426 50.4739 229.426C52.5539 229.426 53.8979 230.85 53.8979 233.154V237.906H52.9699V233.298C52.9699 231.458 51.9459 230.322 50.3619 230.322C48.7459 230.322 47.6899 231.49 47.6899 233.362V237.906H46.7619V233.298C46.7619 231.458 45.7539 230.322 44.1699 230.322C42.5539 230.322 41.4979 231.49 41.4979 233.362V237.906H40.5699ZM60.5114 238.114C57.9994 238.114 56.2874 236.338 56.2874 233.762C56.2874 231.202 58.0154 229.426 60.5274 229.426C63.1354 229.426 64.8154 231.346 64.7514 234.146H57.2314C57.3914 236.018 58.6714 237.234 60.5114 237.234C61.8554 237.234 62.9274 236.61 63.4714 235.538L64.5114 235.554C63.8714 237.138 62.3674 238.114 60.5114 238.114ZM57.2314 233.33H63.8394C63.6154 231.458 62.3354 230.306 60.5274 230.306C58.6874 230.306 57.3914 231.506 57.2314 233.33ZM70.8086 238.114C68.3126 238.114 66.5686 236.274 66.5686 233.762C66.5686 231.25 68.3126 229.426 70.8086 229.426C72.3286 229.426 73.5606 230.098 74.2966 231.17V226.066H75.2246V237.906H74.4566L74.3446 236.274C73.6246 237.41 72.3606 238.114 70.8086 238.114ZM67.4966 233.762C67.4966 235.794 68.8886 237.218 70.9206 237.218C72.9366 237.218 74.3286 235.794 74.3286 233.762C74.3286 231.746 72.9366 230.322 70.9206 230.322C68.8886 230.322 67.4966 231.746 67.4966 233.762ZM87.4071 238.114C84.1111 238.114 81.7271 235.714 81.7271 232.306C81.7271 228.898 84.1111 226.498 87.4071 226.498C89.9671 226.498 92.0631 227.986 92.7991 230.338H91.7751C91.1351 228.562 89.4711 227.474 87.4231 227.474C84.6871 227.474 82.7191 229.442 82.7191 232.306C82.7191 235.17 84.6871 237.138 87.4231 237.138C89.5191 237.138 91.2471 236.002 91.8711 234.146H92.8951C92.2071 236.562 90.0471 238.114 87.4071 238.114ZM99.03 238.114C96.47 238.114 94.678 236.322 94.678 233.762C94.678 231.218 96.47 229.426 99.03 229.426C101.574 229.426 103.366 231.218 103.366 233.762C103.366 236.322 101.574 238.114 99.03 238.114ZM95.606 233.762C95.606 235.81 96.998 237.218 99.03 237.218C101.046 237.218 102.438 235.81 102.438 233.762C102.438 231.73 101.046 230.322 99.03 230.322C96.998 230.322 95.606 231.73 95.606 233.762ZM105.945 237.906V229.634H106.729L106.809 231.234C107.465 230.05 108.617 229.426 109.945 229.426C112.105 229.426 113.433 230.946 113.433 233.33V237.906H112.505V233.41C112.505 231.506 111.481 230.322 109.833 230.322C108.089 230.322 106.873 231.65 106.873 233.618V237.906H105.945ZM119.402 238.114C117.306 238.114 115.978 237.058 115.914 235.41H116.826C116.922 236.578 117.834 237.266 119.418 237.266C120.874 237.266 121.754 236.706 121.754 235.794C121.754 234.93 120.97 234.402 119.21 234.098C117.05 233.73 116.074 232.962 116.074 231.698C116.074 230.29 117.274 229.426 119.21 229.426C121.162 229.426 122.394 230.354 122.522 231.938H121.594C121.498 230.85 120.65 230.258 119.21 230.258C117.834 230.258 117.002 230.818 117.002 231.714C117.002 232.53 117.69 232.978 119.53 233.33C121.626 233.73 122.666 234.562 122.666 235.81C122.666 237.202 121.402 238.114 119.402 238.114ZM128.855 238.114C126.343 238.114 124.631 236.338 124.631 233.762C124.631 231.202 126.359 229.426 128.871 229.426C131.479 229.426 133.159 231.346 133.095 234.146H125.575C125.735 236.018 127.015 237.234 128.855 237.234C130.199 237.234 131.271 236.61 131.815 235.538L132.855 235.554C132.215 237.138 130.711 238.114 128.855 238.114ZM125.575 233.33H132.183C131.959 231.458 130.679 230.306 128.871 230.306C127.031 230.306 125.735 231.506 125.575 233.33ZM135.632 237.906V229.634H136.416L136.496 231.234C137.152 230.05 138.304 229.426 139.632 229.426C141.792 229.426 143.12 230.946 143.12 233.33V237.906H142.192V233.41C142.192 231.506 141.168 230.322 139.52 230.322C137.776 230.322 136.56 231.65 136.56 233.618V237.906H135.632ZM149.336 237.906C147.576 237.906 146.632 236.914 146.632 235.042V230.482H144.824V229.634H145.88C146.504 229.634 146.68 229.474 146.744 228.866L146.824 227.602H147.56V229.634H150.424V230.482H147.56V235.01C147.56 236.37 148.12 237.01 149.368 237.01H150.536V237.906H149.336ZM160.196 237.906C158.436 237.906 157.492 236.914 157.492 235.042V230.482H155.684V229.634H156.74C157.364 229.634 157.539 229.474 157.604 228.866L157.684 227.602H158.42V229.634H161.284V230.482H158.42V235.01C158.42 236.37 158.98 237.01 160.228 237.01H161.396V237.906H160.196ZM167.108 238.114C164.548 238.114 162.756 236.322 162.756 233.762C162.756 231.218 164.548 229.426 167.108 229.426C169.652 229.426 171.444 231.218 171.444 233.762C171.444 236.322 169.652 238.114 167.108 238.114ZM163.684 233.762C163.684 235.81 165.076 237.218 167.108 237.218C169.124 237.218 170.516 235.81 170.516 233.762C170.516 231.73 169.124 230.322 167.108 230.322C165.076 230.322 163.684 231.73 163.684 233.762ZM179.902 237.906V227.634H176.046V226.706H184.734V227.634H180.862V237.906H179.902ZM185.242 237.906V229.634H186.026L186.122 231.49C186.682 230.242 187.626 229.634 189.162 229.634H189.85V230.498H189.13C187.354 230.498 186.17 231.586 186.17 234.098V237.906H185.242ZM195.043 238.114C192.531 238.114 190.819 236.338 190.819 233.762C190.819 231.202 192.547 229.426 195.059 229.426C197.667 229.426 199.347 231.346 199.283 234.146H191.763C191.923 236.018 193.203 237.234 195.043 237.234C196.387 237.234 197.459 236.61 198.003 235.538L199.043 235.554C198.403 237.138 196.899 238.114 195.043 238.114ZM191.763 233.33H198.371C198.147 231.458 196.867 230.306 195.059 230.306C193.219 230.306 191.923 231.506 191.763 233.33ZM204.303 238.034C202.383 238.034 201.183 237.09 201.183 235.57C201.183 234.098 202.303 233.17 203.999 233.17H207.647V232.578C207.647 231.202 206.639 230.29 205.103 230.29C203.855 230.29 202.879 230.93 202.543 231.922H201.599C201.999 230.386 203.327 229.426 205.087 229.426C207.151 229.426 208.575 230.69 208.575 232.53V237.906H207.807L207.711 236.482C206.991 237.474 205.775 238.034 204.303 238.034ZM202.111 235.554C202.111 236.562 202.959 237.202 204.335 237.202C206.255 237.202 207.663 236.002 207.663 234.338V233.986H204.031C202.895 233.986 202.111 234.61 202.111 235.554ZM214.789 237.906C213.029 237.906 212.085 236.914 212.085 235.042V230.482H210.277V229.634H211.333C211.957 229.634 212.133 229.474 212.197 228.866L212.277 227.602H213.013V229.634H215.877V230.482H213.013V235.01C213.013 236.37 213.573 237.01 214.821 237.01H215.989V237.906H214.789ZM218.476 237.906V229.634H219.26L219.34 230.978C219.916 229.97 220.924 229.426 222.204 229.426C223.644 229.426 224.748 230.146 225.228 231.41C225.788 230.146 226.924 229.426 228.38 229.426C230.46 229.426 231.804 230.85 231.804 233.154V237.906H230.876V233.298C230.876 231.458 229.852 230.322 228.268 230.322C226.652 230.322 225.596 231.49 225.596 233.362V237.906H224.668V233.298C224.668 231.458 223.66 230.322 222.076 230.322C220.46 230.322 219.404 231.49 219.404 233.362V237.906H218.476ZM238.418 238.114C235.906 238.114 234.194 236.338 234.194 233.762C234.194 231.202 235.922 229.426 238.434 229.426C241.042 229.426 242.722 231.346 242.658 234.146H235.138C235.298 236.018 236.578 237.234 238.418 237.234C239.762 237.234 240.834 236.61 241.378 235.538L242.418 235.554C241.778 237.138 240.274 238.114 238.418 238.114ZM235.138 233.33H241.746C241.522 231.458 240.242 230.306 238.434 230.306C236.594 230.306 235.298 231.506 235.138 233.33ZM245.195 237.906V229.634H245.979L246.059 231.234C246.715 230.05 247.867 229.426 249.195 229.426C251.355 229.426 252.683 230.946 252.683 233.33V237.906H251.755V233.41C251.755 231.506 250.731 230.322 249.083 230.322C247.339 230.322 246.123 231.65 246.123 233.618V237.906H245.195ZM258.899 237.906C257.139 237.906 256.195 236.914 256.195 235.042V230.482H254.387V229.634H255.443C256.067 229.634 256.243 229.474 256.307 228.866L256.387 227.602H257.123V229.634H259.987V230.482H257.123V235.01C257.123 236.37 257.683 237.01 258.931 237.01H260.099V237.906H258.899Z" fill="#5B5852"/>
</svg>
