<svg width="366" height="283" viewBox="0 0 366 283" fill="none" xmlns="http://www.w3.org/2000/svg">
<path d="M39.9453 0.321289C39.6338 1.16044 39.3391 1.99171 39.0156 2.74316C37.3342 6.65348 35.4723 10.4771 33.9385 14.4443C32.7574 17.4977 31.6991 20.6355 30.6328 23.7188C31.3354 23.7132 31.259 22.7499 31.4941 22.2021C31.6174 21.9172 32.0982 21.1689 32.3633 21.0469C32.7734 20.8598 33.5277 21.1803 33.4648 21.625C32.642 23.5828 32.2598 25.6845 31.5244 27.6748C30.9011 29.3615 30.3349 31.0402 29.7197 32.7432C27.8688 37.8601 25.5552 42.9445 23.8164 48.0615C21.3449 55.337 19.42 62.8133 16.6504 69.9912C15.4803 73.0229 14.8241 76.0493 13.8535 79.1162C13.2794 80.9276 12.3035 83.3685 12.041 85.1826C11.9864 85.5649 12.0908 85.9961 12.0088 86.3594C11.954 86.5953 11.5984 87.029 11.4727 87.3408C10.7727 89.0872 10.0205 92.7534 9.71973 94.6787C9.63498 95.2237 9.64093 96.753 9.46875 97.0488C9.30749 97.3226 9.13502 97.2523 9.08301 96.9678C8.99552 96.477 9.04434 95.0989 9.07715 94.543C9.17013 93.0326 9.56976 91.4976 9.78027 89.998C9.94699 88.8106 9.85908 88.6555 10.3184 87.5059C10.7776 86.3535 10.9012 85.4557 11.1035 84.249C12.2136 77.5973 14.6663 71.7294 16.375 65.2783C16.6949 64.0662 17.2227 62.3848 17.3184 61.1699C17.3266 61.0587 17.3944 60.7961 17.2197 60.8203C15.0243 69.0448 11.8476 76.9819 9.62207 85.1982C8.86474 87.9995 8.15387 90.8419 7.86133 93.7354C7.81217 94.2153 7.91834 94.7605 7.85547 95.2432C7.78431 95.7935 7.47853 96.4821 7.38281 97.0947C7.0192 99.4647 7.0871 103.687 7.98926 105.916C8.77393 107.855 9.73689 107.977 11.1641 109.219C11.6341 109.628 12.2528 110.357 12.9062 110.906H0V45.7666C0 22.4516 17.4142 3.20438 39.9453 0.321289ZM50.0527 77.2129C50.1184 77.137 50.441 76.6321 50.5586 76.7568C47.7972 82.1179 45.3284 87.7611 44.1035 93.6943C42.9005 99.5164 43.056 103.598 45.9678 108.889C46.3353 109.556 46.9382 110.255 47.6699 110.906H16.7666C18.7844 110.166 21.1762 109.112 22.8105 108.159C23.1084 107.986 24.3901 107.129 24.4922 106.896C24.5441 106.776 24.2899 106.675 24.3418 106.461C24.4214 106.133 25.1152 105.767 25.293 105.577C25.6483 105.198 25.8808 104.696 26.3125 104.271C26.5886 103.997 27.7477 103.018 28.0488 102.969C28.8827 102.833 30.157 103.831 30.1133 102.627C29.1618 102.041 29.5202 101.447 30.5127 101.371C30.7918 101.35 31.6414 101.821 31.5107 101.149C31.3494 100.32 31.1636 100.29 31.9072 99.6416C33.1402 98.5678 35.1169 97.4341 35.4014 95.6445C35.4369 95.4141 35.2016 95.2215 35.5186 94.9531C36.3169 94.2779 37.894 95.0664 38.3916 93.6699C38.4709 93.4503 38.4463 93.1356 38.5557 92.9512C38.6186 92.8454 38.8569 92.7883 38.9717 92.6338C39.3732 92.0832 39.0835 90.8335 39.1709 90.1611L38.5615 90.0088L39.1191 89.5586C39.3267 89.6426 39.2399 90.0244 39.2725 90.0576C39.3244 90.1119 39.8578 90.0332 39.959 89.9355C40.0385 89.855 40.234 89.2001 40.1855 89.1553H39.7285C39.5344 88.8109 40.0708 88.6075 40.2295 88.3418C40.3498 88.1385 40.355 87.8671 40.4697 87.6719C41.197 86.4489 42.4302 85.9171 43.3379 84.9707C43.6058 84.6914 43.756 84.3361 44.0977 84.0107C44.2917 83.8264 44.6309 83.6939 44.7568 83.5557C44.94 83.3523 44.9129 83.0536 45.0469 82.834C45.7523 81.6599 47.4198 80.4534 48.374 79.377C48.9755 78.6964 49.465 77.9071 50.0527 77.2129ZM47.9854 0C72.2842 1.13123 91.6377 21.188 91.6377 45.7666V110.906H62.749C63.428 110.409 63.8634 109.705 64.5977 109.181C65.6665 108.419 66.9378 108.08 67.9766 107.392C74.2649 103.21 80.7424 96.9481 85.6309 91.2236C87.438 89.1085 90.2399 86.0147 91.123 83.4658C91.3773 82.7337 91.6917 81.9826 91.6289 81.1963L91.6348 81.1904C91.4926 81.1796 91.3584 81.1902 91.2217 81.2363C90.8362 81.3719 88.4033 84.0919 87.9219 84.6182C82.2706 90.7873 77.1112 97.8434 69.9727 102.407C66.2571 104.783 62.4297 106.35 58.3916 108.062C56.579 108.829 52.9811 109.308 51.0508 108.988C49.2819 108.695 48.716 108.46 48.2539 106.719C47.8875 105.341 47.3264 102.261 47.3154 100.886C47.31 100.04 47.7477 98.9331 47.9062 98.0654C49.2624 90.5947 52.9266 81.6701 57.249 75.3682C59.2202 72.4913 61.178 70.7337 63.5264 68.2852C64.4858 67.2846 65.2292 66.0833 66.1641 65.0557C68.0751 62.9568 70.3718 61.2349 72.7285 59.6621L72.9502 59.6299C73.713 59.9905 74.4239 60.0558 74.957 60.7744C76.8786 63.3614 72.8762 67.1357 71.583 69.2236C71.4135 69.5599 71.3731 70.0757 71.6328 70.374C71.7726 70.5364 72.2416 70.6796 72.4658 70.7041C73.0973 70.7746 75.0087 70.7914 75.6104 70.6992C77.2945 70.4389 79.4707 66.0971 79.6895 64.5596C80.2854 60.3647 77.3085 57.5312 73.3525 56.9209C71.7834 56.6796 71.7937 56.994 70.5283 57.1865C68.8469 57.4441 68.0943 57.0377 66.3828 58.0166C62.7247 60.1156 57.8578 65.3436 55.3535 68.7549C54.0249 70.5662 53.0904 72.7115 51.625 74.333C50.5615 75.5126 49.3366 76.5809 48.2676 77.7578C46.4221 79.7916 44.7673 82.0095 42.8809 84.0107C41.3006 85.692 39.4257 87.2436 37.8975 88.9492C34.696 92.5205 31.8002 95.4244 28.041 98.4316C27.2563 99.058 26.6081 99.8472 25.8535 100.498C23.2809 102.708 19.9129 105.255 16.9355 106.879C15.6123 107.6 14.1849 108.647 13.3701 106.824C12.5583 105.004 12.7682 100.744 12.9404 98.6836C13.0171 97.7673 13.4496 96.9052 13.5371 95.9482C13.6574 94.6385 13.5479 93.6317 13.9307 92.3057C14.286 91.0776 14.521 90.3237 14.7998 89.0332C15.2919 86.7581 16.0161 85.1254 16.6504 83.0049C17.7549 79.3143 18.5732 75.4827 19.8555 71.8652C21.9743 65.8861 23.7152 59.7791 25.8477 53.8135C28.5325 46.3075 31.683 38.9531 34.417 31.458C35.2481 29.1748 36.1558 26.9319 37.0088 24.6514C38.9035 19.5723 40.8413 14.4411 43.25 9.56543C44.2233 7.59137 45.399 6.17858 46.4707 4.3916C46.8665 3.73277 47.6789 1.32218 47.9854 0ZM8.88867 99.9854H8.8916L8.58301 100.04C8.38895 99.7039 8.60436 99.3915 8.98145 99.3398L8.88867 99.9854ZM37.0908 91.4736C37.2136 91.4086 37.2818 91.3355 37.4482 91.376C37.4018 91.7013 37.5632 92.2946 37.3477 92.5361L37.1641 92.6699C36.8562 92.8839 36.271 93.273 36.1992 93.3096C35.8958 93.4641 35.5509 93.5183 35.2119 93.4912C34.9774 93.282 36.8229 91.6119 37.0908 91.4736ZM47.4385 87.3135C47.2581 87.7933 46.873 86.7859 47.4111 86.8369L47.4385 87.3135ZM47.7207 85.2256C47.9665 85.1797 48.0021 85.4263 48.125 85.5781H48.1221L47.9717 85.7275L47.7314 85.5645L47.7207 85.2256ZM48.4287 83.3086C48.5244 83.2463 48.7645 83.3306 48.8301 83.458L48.4775 84.1113C48.2126 84.0297 48.3713 83.3436 48.4287 83.3057V83.3086ZM50.46 79.9814C50.4846 80.3584 50.4815 80.9518 49.9512 80.8867C49.9293 80.461 49.9187 79.9815 50.46 79.9814ZM51.2666 77.9229C51.286 77.8229 51.5444 77.8499 51.5752 77.8662C51.7801 77.999 51.5594 78.5652 51.3271 78.666C51.0565 78.4708 51.19 78.164 51.2666 77.9199V77.9229ZM53.3086 74.5361C53.2813 74.8588 53.4396 75.0921 53.3467 75.4229C53.2236 75.8648 52.6884 76.2196 52.5381 75.6475C52.454 75.3272 53.1908 74.3957 53.3086 74.5361ZM35.2891 13.8584C36.1035 13.6905 35.9966 14.6499 35.4443 14.7285C34.843 14.815 34.6439 13.9913 35.2891 13.8584ZM36.7402 11.8223C36.5762 11.1226 36.4427 10.2845 37.457 10.5557C37.7604 11.117 37.4155 11.8412 36.7402 11.8223Z" fill="#383637"/>
<path d="M4.59375 162.906H2.24219V134.906H4.53906L13.7812 152.215C13.9727 152.589 14.1868 152.775 14.4238 152.775C14.6426 152.775 14.8477 152.579 15.0391 152.188L23.1328 134.906H25.7031V162.906H23.3516V137.955C23.3516 137.718 23.3197 137.536 23.2559 137.408C23.1921 137.271 23.11 137.203 23.0098 137.203C22.8548 137.203 22.6999 137.354 22.5449 137.654C22.3991 137.919 21.5924 139.614 20.125 142.74C18.6667 145.857 17.2402 148.911 15.8457 151.9L13.7539 156.385C7.34635 144.363 4.0013 138.119 3.71875 137.654C3.5638 137.354 3.39974 137.203 3.22656 137.203C3.1263 137.203 3.04427 137.271 2.98047 137.408C2.92578 137.545 2.90299 137.727 2.91211 137.955L4.59375 162.906ZM30.1875 162.906V134.906H49.5879V137.395C48.1478 136.911 45.8008 136.469 42.5469 136.068C39.3021 135.667 36.4128 135.467 33.8789 135.467C33.3503 135.467 32.972 135.604 32.7441 135.877C32.5163 136.141 32.4023 136.638 32.4023 137.367V146.213C32.4023 146.632 32.5299 146.974 32.7852 147.238C33.0404 147.493 33.3776 147.621 33.7969 147.621H46.8398V149.973C45.1628 149.562 42.957 149.18 40.2227 148.824C37.4883 148.469 35.3555 148.291 33.8242 148.291C33.3958 148.291 33.054 148.396 32.7988 148.605C32.5527 148.815 32.4297 149.12 32.4297 149.521L32.4023 160.445C32.4023 161.174 32.5163 161.676 32.7441 161.949C32.972 162.214 33.3503 162.346 33.8789 162.346C36.4128 162.346 39.3021 162.145 42.5469 161.744C45.8008 161.343 48.1478 160.901 49.5879 160.418V162.906H30.1875ZM55.8633 162.906H53.5117V134.906H55.8086L65.0508 152.215C65.2422 152.589 65.4564 152.775 65.6934 152.775C65.9121 152.775 66.1172 152.579 66.3086 152.188L74.4023 134.906H76.9727V162.906H74.6211V137.955C74.6211 137.718 74.5892 137.536 74.5254 137.408C74.4616 137.271 74.3796 137.203 74.2793 137.203C74.1243 137.203 73.9694 137.354 73.8145 137.654C73.6686 137.919 72.862 139.614 71.3945 142.74C69.9362 145.857 68.5098 148.911 67.1152 151.9L65.0234 156.385C58.6159 144.363 55.2708 138.119 54.9883 137.654C54.8333 137.354 54.6693 137.203 54.4961 137.203C54.3958 137.203 54.3138 137.271 54.25 137.408C54.1953 137.545 54.1725 137.727 54.1816 137.955L55.8633 162.906ZM94.3359 162.906H81.457V134.906H93.7207C94.6322 134.906 95.4661 134.993 96.2227 135.166C96.9792 135.33 97.6081 135.544 98.1094 135.809C98.6107 136.073 99.0527 136.392 99.4355 136.766C99.8184 137.139 100.115 137.513 100.324 137.887C100.534 138.251 100.702 138.648 100.83 139.076C100.967 139.495 101.053 139.86 101.09 140.17C101.126 140.48 101.145 140.79 101.145 141.1C101.145 141.464 101.09 141.861 100.98 142.289C100.88 142.708 100.693 143.173 100.42 143.684C100.146 144.194 99.8047 144.663 99.3945 145.092C98.9844 145.52 98.4329 145.908 97.7402 146.254C97.0566 146.6 96.2865 146.842 95.4297 146.979C96.2865 147.051 97.0794 147.206 97.8086 147.443C98.5378 147.68 99.1576 147.967 99.668 148.305C100.178 148.642 100.634 149.034 101.035 149.48C101.445 149.927 101.773 150.378 102.02 150.834C102.275 151.29 102.48 151.768 102.635 152.27C102.799 152.771 102.913 153.236 102.977 153.664C103.04 154.092 103.072 154.512 103.072 154.922C103.072 155.35 103.036 155.792 102.963 156.248C102.899 156.704 102.771 157.201 102.58 157.738C102.398 158.267 102.165 158.773 101.883 159.256C101.6 159.73 101.227 160.195 100.762 160.65C100.306 161.097 99.7819 161.484 99.1895 161.812C98.6061 162.141 97.8952 162.405 97.0566 162.605C96.2272 162.806 95.3203 162.906 94.3359 162.906ZM83.6719 160.445C83.6719 161.174 83.7858 161.676 84.0137 161.949C84.2415 162.214 84.6198 162.346 85.1484 162.346H91.875C94.6367 162.346 96.7467 161.689 98.2051 160.377C99.6725 159.064 100.406 157.246 100.406 154.922C100.406 152.598 99.6725 150.766 98.2051 149.426C96.7376 148.086 94.6276 147.416 91.875 147.416H85.0938C84.6745 147.416 84.3372 147.548 84.082 147.812C83.8268 148.068 83.6992 148.405 83.6992 148.824C83.681 152.725 83.6719 156.599 83.6719 160.445ZM83.6992 136.807V145.461C83.6992 145.88 83.8268 146.217 84.082 146.473C84.3372 146.728 84.6745 146.855 85.0938 146.855H92.0391C93.1055 146.855 94.0716 146.701 94.9375 146.391C95.8125 146.072 96.528 145.648 97.084 145.119C97.64 144.581 98.0684 143.962 98.3691 143.26C98.6699 142.549 98.8203 141.797 98.8203 141.004C98.8203 139.382 98.2233 138.055 97.0293 137.025C95.8353 135.986 94.1719 135.467 92.0391 135.467H85.1484C84.6927 135.467 84.3509 135.562 84.123 135.754C83.8952 135.945 83.7539 136.296 83.6992 136.807ZM106.613 162.906V134.906H126.014V137.395C124.574 136.911 122.227 136.469 118.973 136.068C115.728 135.667 112.839 135.467 110.305 135.467C109.776 135.467 109.398 135.604 109.17 135.877C108.942 136.141 108.828 136.638 108.828 137.367V146.213C108.828 146.632 108.956 146.974 109.211 147.238C109.466 147.493 109.803 147.621 110.223 147.621H123.266V149.973C121.589 149.562 119.383 149.18 116.648 148.824C113.914 148.469 111.781 148.291 110.25 148.291C109.822 148.291 109.48 148.396 109.225 148.605C108.979 148.815 108.855 149.12 108.855 149.521L108.828 160.445C108.828 161.174 108.942 161.676 109.17 161.949C109.398 162.214 109.776 162.346 110.305 162.346C112.839 162.346 115.728 162.145 118.973 161.744C122.227 161.343 124.574 160.901 126.014 160.418V162.906H106.613ZM129.938 162.906V134.906H142.816C143.801 134.906 144.708 135.007 145.537 135.207C146.376 135.408 147.087 135.672 147.67 136C148.262 136.328 148.786 136.72 149.242 137.176C149.707 137.622 150.081 138.087 150.363 138.57C150.646 139.044 150.878 139.55 151.061 140.088C151.252 140.617 151.38 141.109 151.443 141.564C151.516 142.02 151.553 142.462 151.553 142.891C151.553 143.319 151.516 143.761 151.443 144.217C151.38 144.663 151.252 145.151 151.061 145.68C150.878 146.208 150.646 146.71 150.363 147.184C150.081 147.658 149.707 148.122 149.242 148.578C148.786 149.025 148.262 149.412 147.67 149.74C147.087 150.068 146.376 150.337 145.537 150.547C144.708 150.747 143.801 150.852 142.816 150.861H142.01C141.8 150.861 141.65 150.88 141.559 150.916C141.467 150.943 141.431 150.993 141.449 151.066C141.467 151.13 141.518 151.208 141.6 151.299C141.691 151.39 141.827 151.508 142.01 151.654C142.475 152.019 142.985 152.511 143.541 153.131C144.097 153.751 144.58 154.329 144.99 154.867C145.41 155.405 146.011 156.198 146.795 157.246C146.84 157.31 146.877 157.365 146.904 157.41C146.941 157.447 146.982 157.497 147.027 157.561C147.073 157.615 147.114 157.67 147.15 157.725C147.962 158.818 148.855 159.844 149.83 160.801C150.805 161.749 151.639 162.451 152.332 162.906H149.174C148.645 162.587 148.071 162.118 147.451 161.498C146.831 160.869 146.239 160.195 145.674 159.475C145.109 158.745 144.525 157.98 143.924 157.178C143.322 156.367 142.734 155.592 142.16 154.854C141.586 154.115 141.025 153.445 140.479 152.844C139.941 152.242 139.398 151.764 138.852 151.408C138.314 151.044 137.817 150.861 137.361 150.861H134.859V150.301H140.355C143.117 150.301 145.227 149.649 146.686 148.346C148.153 147.033 148.887 145.215 148.887 142.891C148.887 140.566 148.153 138.748 146.686 137.436C145.227 136.123 143.117 135.467 140.355 135.467H133.629C133.082 135.467 132.699 135.581 132.48 135.809C132.262 136.036 132.152 136.51 132.152 137.23L132.18 162.906H129.938ZM154.451 157C154.451 156.271 154.652 155.669 155.053 155.195C155.463 154.721 155.951 154.484 156.516 154.484C156.962 154.484 157.363 154.639 157.719 154.949C156.971 155.204 156.598 155.824 156.598 156.809C156.598 157.802 157.035 158.773 157.91 159.721C158.785 160.66 159.952 161.425 161.41 162.018C162.878 162.61 164.409 162.906 166.004 162.906C166.979 162.906 167.918 162.815 168.82 162.633C169.723 162.441 170.561 162.154 171.336 161.771C172.12 161.389 172.799 160.924 173.373 160.377C173.947 159.83 174.398 159.174 174.727 158.408C175.055 157.643 175.219 156.809 175.219 155.906C175.219 155.186 175.114 154.535 174.904 153.951C174.704 153.368 174.449 152.871 174.139 152.461C173.829 152.051 173.4 151.682 172.854 151.354C172.316 151.016 171.796 150.747 171.295 150.547C170.803 150.337 170.174 150.141 169.408 149.959C168.652 149.777 167.986 149.635 167.412 149.535C166.838 149.435 166.122 149.316 165.266 149.18C164.5 149.061 163.921 148.97 163.529 148.906C163.137 148.842 162.59 148.738 161.889 148.592C161.187 148.446 160.645 148.314 160.262 148.195C159.879 148.068 159.4 147.895 158.826 147.676C158.252 147.457 157.805 147.229 157.486 146.992C157.167 146.755 156.816 146.464 156.434 146.117C156.051 145.771 155.759 145.402 155.559 145.01C155.367 144.609 155.203 144.144 155.066 143.615C154.93 143.087 154.861 142.517 154.861 141.906C154.861 140.849 155.08 139.892 155.518 139.035C155.955 138.169 156.534 137.454 157.254 136.889C157.983 136.314 158.831 135.831 159.797 135.439C160.772 135.048 161.775 134.77 162.805 134.605C163.835 134.432 164.892 134.346 165.977 134.346C166.906 134.346 167.836 134.4 168.766 134.51C169.695 134.619 170.616 134.801 171.527 135.057C172.448 135.303 173.259 135.608 173.961 135.973C174.663 136.337 175.228 136.802 175.656 137.367C176.094 137.932 176.312 138.557 176.312 139.24C176.312 140.225 175.939 140.844 175.191 141.1C174.927 139.833 174.316 138.725 173.359 137.777C172.411 136.829 171.254 136.114 169.887 135.631C168.529 135.148 167.07 134.906 165.512 134.906C162.823 134.906 160.708 135.503 159.168 136.697C157.628 137.882 156.857 139.573 156.857 141.77C156.857 142.326 156.958 142.827 157.158 143.273C157.368 143.72 157.682 144.103 158.102 144.422C158.53 144.741 158.981 145.014 159.455 145.242C159.938 145.47 160.54 145.675 161.26 145.857C161.98 146.04 162.645 146.19 163.256 146.309C163.876 146.427 164.623 146.564 165.498 146.719C166.327 146.855 166.956 146.965 167.385 147.047C167.813 147.129 168.419 147.257 169.203 147.43C169.987 147.594 170.598 147.753 171.035 147.908C171.473 148.054 172.015 148.255 172.662 148.51C173.309 148.765 173.82 149.029 174.193 149.303C174.567 149.576 174.973 149.913 175.41 150.314C175.857 150.715 176.194 151.144 176.422 151.6C176.65 152.055 176.841 152.584 176.996 153.186C177.16 153.787 177.242 154.434 177.242 155.127C177.242 156.239 177.033 157.26 176.613 158.189C176.194 159.11 175.624 159.894 174.904 160.541C174.184 161.179 173.341 161.721 172.375 162.168C171.418 162.615 170.402 162.943 169.326 163.152C168.251 163.362 167.143 163.467 166.004 163.467C163.743 163.467 161.734 163.198 159.975 162.66C158.225 162.113 156.867 161.352 155.9 160.377C154.934 159.393 154.451 158.267 154.451 157ZM183.012 162.906H180.77V134.906H183.012V149.631C184.188 148.264 185.678 147.234 187.482 146.541C189.296 145.839 191.201 145.488 193.197 145.488C195.85 145.488 198.146 146.04 200.088 147.143V134.906H202.33V162.906H200.088V149.412C200.088 148.41 199.609 147.648 198.652 147.129C197.704 146.6 196.474 146.336 194.961 146.336C194.113 146.336 193.234 146.423 192.322 146.596C191.42 146.769 190.522 147.02 189.629 147.348C188.745 147.667 187.902 148.081 187.1 148.592C186.307 149.093 185.605 149.658 184.994 150.287C184.383 150.907 183.9 151.627 183.545 152.447C183.189 153.268 183.012 154.133 183.012 155.045V162.906ZM206.801 162.906V134.906H209.043V162.906H206.801ZM213.527 134.906H226.406C227.391 134.906 228.298 135.007 229.127 135.207C229.965 135.408 230.676 135.672 231.26 136C231.852 136.328 232.376 136.72 232.832 137.176C233.297 137.622 233.671 138.087 233.953 138.57C234.236 139.044 234.468 139.55 234.65 140.088C234.842 140.617 234.969 141.109 235.033 141.564C235.106 142.02 235.143 142.462 235.143 142.891C235.143 143.319 235.106 143.761 235.033 144.217C234.969 144.673 234.842 145.165 234.65 145.693C234.468 146.222 234.236 146.728 233.953 147.211C233.671 147.685 233.297 148.15 232.832 148.605C232.376 149.052 231.852 149.439 231.26 149.768C230.676 150.096 229.965 150.36 229.127 150.561C228.298 150.761 227.391 150.861 226.406 150.861H215.77V162.906H213.527V134.906ZM215.77 148.906C215.77 149.326 215.897 149.663 216.152 149.918C216.408 150.173 216.745 150.301 217.164 150.301H223.945C226.707 150.301 228.817 149.649 230.275 148.346C231.743 147.033 232.477 145.215 232.477 142.891C232.477 140.566 231.743 138.743 230.275 137.422C228.817 136.1 226.707 135.439 223.945 135.439C223.125 135.439 221.881 135.444 220.213 135.453C218.545 135.462 217.556 135.467 217.246 135.467C216.717 135.467 216.339 135.604 216.111 135.877C215.883 136.141 215.77 136.638 215.77 137.367V148.906ZM3.02148 201.906H0.560547L10.1035 175.219L9.51562 173.906H11.9902L24.4727 201.906H22.0117L19.9609 197.34C19.5234 196.355 18.8034 195.48 17.8008 194.715C16.8073 193.94 15.7318 193.361 14.5742 192.979C13.4167 192.587 12.3001 192.391 11.2246 192.391C9.37435 192.391 7.64714 192.969 6.04297 194.127C5.74219 194.346 5.44141 194.71 5.14062 195.221C4.84896 195.722 4.63932 196.205 4.51172 196.67L3.02148 201.906ZM6.07031 191.297C5.93359 191.798 5.98372 192.049 6.2207 192.049C6.33919 192.049 6.54427 191.976 6.83594 191.83C7.92969 191.229 9.11458 190.928 10.3906 190.928C11.6576 190.928 12.9336 191.201 14.2188 191.748C15.513 192.286 16.7207 193.01 17.8418 193.922C18.1608 194.186 18.3613 194.286 18.4434 194.223C18.5254 194.159 18.4798 193.94 18.3066 193.566L11.0879 177.379C10.9238 176.987 10.7461 176.791 10.5547 176.791C10.3542 176.791 10.1855 177.014 10.0488 177.461L6.07031 191.297ZM24.418 192.773C23.944 191.242 23.707 189.62 23.707 187.906C23.707 186.193 23.944 184.575 24.418 183.053C24.8919 181.521 25.5573 180.173 26.4141 179.006C27.2708 177.83 28.2734 176.818 29.4219 175.971C30.5794 175.114 31.86 174.462 33.2637 174.016C34.6764 173.569 36.1484 173.346 37.6797 173.346C38.974 173.346 40.2363 173.464 41.4668 173.701C42.7064 173.938 43.832 174.275 44.8438 174.713C45.8646 175.15 46.6849 175.725 47.3047 176.436C47.9245 177.146 48.2344 177.935 48.2344 178.801C48.2344 179.102 48.1888 179.361 48.0977 179.58C48.0156 179.79 47.9108 179.945 47.7832 180.045C47.6647 180.136 47.5417 180.209 47.4141 180.264C47.2956 180.309 47.1953 180.332 47.1133 180.332L46.9766 180.346C46.8672 179.571 46.5436 178.796 46.0059 178.021C45.4681 177.247 44.7891 176.559 43.9688 175.957C43.1576 175.346 42.196 174.854 41.084 174.48C39.972 174.098 38.8372 173.906 37.6797 173.906C36.0755 173.906 34.5534 174.248 33.1133 174.932C31.6823 175.606 30.4382 176.545 29.3809 177.748C28.3236 178.951 27.485 180.432 26.8652 182.191C26.2546 183.951 25.9492 185.855 25.9492 187.906C25.9492 189.957 26.2546 191.862 26.8652 193.621C27.485 195.38 28.3236 196.861 29.3809 198.064C30.4382 199.268 31.6823 200.211 33.1133 200.895C34.5534 201.569 36.0755 201.906 37.6797 201.906C38.3086 201.906 38.9922 201.824 39.7305 201.66C40.4688 201.487 41.207 201.232 41.9453 200.895C42.6927 200.557 43.3672 200.161 43.9688 199.705C44.5794 199.249 45.0762 198.702 45.459 198.064C45.8418 197.426 46.0332 196.757 46.0332 196.055V186.73H48.4395V198.912C47.7559 199.942 46.3932 200.794 44.3516 201.469C42.3099 202.134 40.0859 202.467 37.6797 202.467C36.1484 202.467 34.6764 202.243 33.2637 201.797C31.86 201.35 30.5794 200.703 29.4219 199.855C28.2734 198.999 27.2708 197.987 26.4141 196.82C25.5573 195.645 24.8919 194.296 24.418 192.773ZM52.6914 201.906V173.906H65.5703C66.5547 173.906 67.4616 174.007 68.291 174.207C69.1296 174.408 69.8405 174.672 70.4238 175C71.0163 175.328 71.5404 175.72 71.9961 176.176C72.4609 176.622 72.8346 177.087 73.1172 177.57C73.3997 178.044 73.6322 178.55 73.8145 179.088C74.0059 179.617 74.1335 180.109 74.1973 180.564C74.2702 181.02 74.3066 181.462 74.3066 181.891C74.3066 182.319 74.2702 182.761 74.1973 183.217C74.1335 183.663 74.0059 184.151 73.8145 184.68C73.6322 185.208 73.3997 185.71 73.1172 186.184C72.8346 186.658 72.4609 187.122 71.9961 187.578C71.5404 188.025 71.0163 188.412 70.4238 188.74C69.8405 189.068 69.1296 189.337 68.291 189.547C67.4616 189.747 66.5547 189.852 65.5703 189.861H64.7637C64.554 189.861 64.4036 189.88 64.3125 189.916C64.2214 189.943 64.1849 189.993 64.2031 190.066C64.2214 190.13 64.2715 190.208 64.3535 190.299C64.4447 190.39 64.5814 190.508 64.7637 190.654C65.2285 191.019 65.7389 191.511 66.2949 192.131C66.8509 192.751 67.334 193.329 67.7441 193.867C68.1634 194.405 68.765 195.198 69.5488 196.246C69.5944 196.31 69.6309 196.365 69.6582 196.41C69.6947 196.447 69.7357 196.497 69.7812 196.561C69.8268 196.615 69.8678 196.67 69.9043 196.725C70.7155 197.818 71.6087 198.844 72.584 199.801C73.5592 200.749 74.3932 201.451 75.0859 201.906H71.9277C71.3991 201.587 70.8249 201.118 70.2051 200.498C69.5853 199.869 68.9928 199.195 68.4277 198.475C67.8626 197.745 67.2793 196.98 66.6777 196.178C66.0762 195.367 65.4883 194.592 64.9141 193.854C64.3398 193.115 63.7793 192.445 63.2324 191.844C62.6947 191.242 62.1523 190.764 61.6055 190.408C61.0677 190.044 60.571 189.861 60.1152 189.861H57.6133V189.301H63.1094C65.8711 189.301 67.9811 188.649 69.4395 187.346C70.9069 186.033 71.6406 184.215 71.6406 181.891C71.6406 179.566 70.9069 177.748 69.4395 176.436C67.9811 175.123 65.8711 174.467 63.1094 174.467H56.3828C55.8359 174.467 55.4531 174.581 55.2344 174.809C55.0156 175.036 54.9062 175.51 54.9062 176.23L54.9336 201.906H52.6914ZM77.9023 201.906V173.906H97.3027V176.395C95.8626 175.911 93.5156 175.469 90.2617 175.068C87.0169 174.667 84.1276 174.467 81.5938 174.467C81.0651 174.467 80.6868 174.604 80.459 174.877C80.2311 175.141 80.1172 175.638 80.1172 176.367V185.213C80.1172 185.632 80.2448 185.974 80.5 186.238C80.7552 186.493 81.0924 186.621 81.5117 186.621H94.5547V188.973C92.8776 188.562 90.6719 188.18 87.9375 187.824C85.2031 187.469 83.0703 187.291 81.5391 187.291C81.1107 187.291 80.7689 187.396 80.5137 187.605C80.2676 187.815 80.1445 188.12 80.1445 188.521L80.1172 199.445C80.1172 200.174 80.2311 200.676 80.459 200.949C80.6868 201.214 81.0651 201.346 81.5938 201.346C84.1276 201.346 87.0169 201.145 90.2617 200.744C93.5156 200.343 95.8626 199.901 97.3027 199.418V201.906H77.9023ZM101.227 201.906V173.906H120.627V176.395C119.187 175.911 116.84 175.469 113.586 175.068C110.341 174.667 107.452 174.467 104.918 174.467C104.389 174.467 104.011 174.604 103.783 174.877C103.555 175.141 103.441 175.638 103.441 176.367V185.213C103.441 185.632 103.569 185.974 103.824 186.238C104.079 186.493 104.417 186.621 104.836 186.621H117.879V188.973C116.202 188.562 113.996 188.18 111.262 187.824C108.527 187.469 106.395 187.291 104.863 187.291C104.435 187.291 104.093 187.396 103.838 187.605C103.592 187.815 103.469 188.12 103.469 188.521L103.441 199.445C103.441 200.174 103.555 200.676 103.783 200.949C104.011 201.214 104.389 201.346 104.918 201.346C107.452 201.346 110.341 201.145 113.586 200.744C116.84 200.343 119.187 199.901 120.627 199.418V201.906H101.227ZM126.902 201.906H124.551V173.906H126.848L136.09 191.215C136.281 191.589 136.495 191.775 136.732 191.775C136.951 191.775 137.156 191.579 137.348 191.188L145.441 173.906H148.012V201.906H145.66V176.955C145.66 176.718 145.628 176.536 145.564 176.408C145.501 176.271 145.419 176.203 145.318 176.203C145.163 176.203 145.008 176.354 144.854 176.654C144.708 176.919 143.901 178.614 142.434 181.74C140.975 184.857 139.549 187.911 138.154 190.9L136.062 195.385C129.655 183.363 126.31 177.119 126.027 176.654C125.872 176.354 125.708 176.203 125.535 176.203C125.435 176.203 125.353 176.271 125.289 176.408C125.234 176.545 125.212 176.727 125.221 176.955L126.902 201.906ZM152.496 201.906V173.906H171.896V176.395C170.456 175.911 168.109 175.469 164.855 175.068C161.611 174.667 158.721 174.467 156.188 174.467C155.659 174.467 155.281 174.604 155.053 174.877C154.825 175.141 154.711 175.638 154.711 176.367V185.213C154.711 185.632 154.839 185.974 155.094 186.238C155.349 186.493 155.686 186.621 156.105 186.621H169.148V188.973C167.471 188.562 165.266 188.18 162.531 187.824C159.797 187.469 157.664 187.291 156.133 187.291C155.704 187.291 155.363 187.396 155.107 187.605C154.861 187.815 154.738 188.12 154.738 188.521L154.711 199.445C154.711 200.174 154.825 200.676 155.053 200.949C155.281 201.214 155.659 201.346 156.188 201.346C158.721 201.346 161.611 201.145 164.855 200.744C168.109 200.343 170.456 199.901 171.896 199.418V201.906H152.496ZM175.82 201.906V173.906H178.117C183.303 181.262 189.255 189.679 195.973 199.158C196.173 199.441 196.351 199.582 196.506 199.582C196.725 199.582 196.82 199.34 196.793 198.857L195.111 173.906H197.463V201.906H195.221C193.999 200.184 191.374 196.492 187.346 190.832C183.326 185.163 179.977 180.437 177.297 176.654C177.096 176.372 176.919 176.23 176.764 176.23C176.554 176.23 176.463 176.472 176.49 176.955L178.172 201.906H175.82ZM201.373 173.906H222.934V176.395C221.885 175.939 220.418 175.506 218.531 175.096C216.654 174.676 215.396 174.467 214.758 174.467C214.229 174.467 213.846 174.604 213.609 174.877C213.382 175.141 213.268 175.638 213.268 176.367V201.906H211.025V176.367C211.025 175.638 210.911 175.141 210.684 174.877C210.456 174.604 210.077 174.467 209.549 174.467C208.911 174.467 207.648 174.676 205.762 175.096C203.884 175.506 202.421 175.939 201.373 176.395V173.906Z" fill="#383637"/>
<path d="M0.352 237.906L4.992 226.706H5.92L10.56 237.906H9.536L8.368 235.09H2.544L1.392 237.906H0.352ZM2.928 234.194H8L5.456 228.034L2.928 234.194ZM15.7926 238.114C13.3126 238.114 11.5686 236.306 11.5686 233.762C11.5686 231.218 13.3126 229.426 15.7926 229.426C17.7606 229.426 19.3766 230.594 19.8566 232.386H18.9126C18.3686 231.074 17.2166 230.322 15.7926 230.322C13.8406 230.322 12.4966 231.73 12.4966 233.762C12.4966 235.81 13.8406 237.218 15.7926 237.218C17.3126 237.218 18.4966 236.37 18.9606 235.01H19.9366C19.3766 236.946 17.8246 238.114 15.7926 238.114ZM22.4605 237.906V226.066H23.3885V233.266H24.6045C26.1405 233.266 26.8125 232.866 27.3405 231.474L28.0445 229.634H29.0365L28.2045 231.826C27.8365 232.754 27.4045 233.346 26.7485 233.698L29.4365 237.906H28.3325L25.8845 234.018C25.5005 234.098 25.0685 234.13 24.5725 234.13H23.3885V237.906H22.4605ZM31.7261 237.906V229.634H32.5101L32.5901 231.234C33.2461 230.05 34.3981 229.426 35.7261 229.426C37.8861 229.426 39.2141 230.946 39.2141 233.33V237.906H38.2861V233.41C38.2861 231.506 37.2621 230.322 35.6141 230.322C33.8701 230.322 32.6541 231.65 32.6541 233.618V237.906H31.7261ZM45.9675 238.114C43.4075 238.114 41.6155 236.322 41.6155 233.762C41.6155 231.218 43.4075 229.426 45.9675 229.426C48.5115 229.426 50.3035 231.218 50.3035 233.762C50.3035 236.322 48.5115 238.114 45.9675 238.114ZM42.5435 233.762C42.5435 235.81 43.9355 237.218 45.9675 237.218C47.9835 237.218 49.3755 235.81 49.3755 233.762C49.3755 231.73 47.9835 230.322 45.9675 230.322C43.9355 230.322 42.5435 231.73 42.5435 233.762ZM54.2499 237.906L51.2739 229.634H52.2659L54.7139 236.514L55.8819 233.506L57.3699 229.634H58.2339L59.7379 233.506L60.9059 236.514L63.3699 229.634H64.3459L61.3539 237.906H60.4579L59.0339 234.21L57.8019 230.994L55.1459 237.906H54.2499ZM66.3511 237.906V226.066H67.2791V237.906H66.3511ZM74.0739 238.114C71.5619 238.114 69.8499 236.338 69.8499 233.762C69.8499 231.202 71.5779 229.426 74.0899 229.426C76.6979 229.426 78.3779 231.346 78.3139 234.146H70.7939C70.9539 236.018 72.2339 237.234 74.0739 237.234C75.4179 237.234 76.4899 236.61 77.0339 235.538L78.0739 235.554C77.4339 237.138 75.9299 238.114 74.0739 238.114ZM70.7939 233.33H77.4019C77.1779 231.458 75.8979 230.306 74.0899 230.306C72.2499 230.306 70.9539 231.506 70.7939 233.33ZM84.3711 238.114C81.8751 238.114 80.1311 236.274 80.1311 233.762C80.1311 231.25 81.8751 229.426 84.3711 229.426C85.8911 229.426 87.1231 230.098 87.8591 231.17V226.066H88.7871V237.906H88.0191L87.9071 236.274C87.1871 237.41 85.9231 238.114 84.3711 238.114ZM81.0591 233.762C81.0591 235.794 82.4511 237.218 84.4831 237.218C86.4991 237.218 87.8911 235.794 87.8911 233.762C87.8911 231.746 86.4991 230.322 84.4831 230.322C82.4511 230.322 81.0591 231.746 81.0591 233.762ZM95.7175 241.314C93.6855 241.314 92.1815 240.242 91.8615 238.562H92.8055C93.0775 239.714 94.1975 240.434 95.7175 240.434C97.6215 240.434 98.8375 239.314 98.8375 237.538V236.194C98.1015 237.202 96.9175 237.81 95.5095 237.81C93.0935 237.81 91.3655 236.05 91.3655 233.618C91.3655 231.186 93.0935 229.426 95.5095 229.426C96.9655 229.426 98.1655 230.066 98.9015 231.122L98.9815 229.634H99.7655V237.57C99.7655 239.794 98.1335 241.314 95.7175 241.314ZM92.2935 233.618C92.2935 235.554 93.6535 236.898 95.6055 236.898C97.5415 236.898 98.9015 235.554 98.9015 233.618C98.9015 231.682 97.5415 230.322 95.6055 230.322C93.6535 230.322 92.2935 231.682 92.2935 233.618ZM106.558 238.114C104.046 238.114 102.334 236.338 102.334 233.762C102.334 231.202 104.062 229.426 106.574 229.426C109.182 229.426 110.862 231.346 110.798 234.146H103.278C103.438 236.018 104.718 237.234 106.558 237.234C107.902 237.234 108.974 236.61 109.518 235.538L110.558 235.554C109.918 237.138 108.414 238.114 106.558 238.114ZM103.278 233.33H109.886C109.662 231.458 108.382 230.306 106.574 230.306C104.734 230.306 103.438 231.506 103.278 233.33ZM113.336 237.906V229.634H114.12L114.2 230.978C114.776 229.97 115.784 229.426 117.064 229.426C118.504 229.426 119.608 230.146 120.088 231.41C120.648 230.146 121.784 229.426 123.24 229.426C125.32 229.426 126.664 230.85 126.664 233.154V237.906H125.736V233.298C125.736 231.458 124.712 230.322 123.128 230.322C121.512 230.322 120.456 231.49 120.456 233.362V237.906H119.528V233.298C119.528 231.458 118.52 230.322 116.936 230.322C115.32 230.322 114.264 231.49 114.264 233.362V237.906H113.336ZM133.277 238.114C130.765 238.114 129.053 236.338 129.053 233.762C129.053 231.202 130.781 229.426 133.293 229.426C135.901 229.426 137.581 231.346 137.517 234.146H129.997C130.157 236.018 131.437 237.234 133.277 237.234C134.621 237.234 135.693 236.61 136.237 235.538L137.277 235.554C136.637 237.138 135.133 238.114 133.277 238.114ZM129.997 233.33H136.605C136.381 231.458 135.101 230.306 133.293 230.306C131.453 230.306 130.157 231.506 129.997 233.33ZM140.054 237.906V229.634H140.838L140.918 231.234C141.574 230.05 142.726 229.426 144.054 229.426C146.214 229.426 147.542 230.946 147.542 233.33V237.906H146.614V233.41C146.614 231.506 145.59 230.322 143.942 230.322C142.198 230.322 140.982 231.65 140.982 233.618V237.906H140.054ZM153.758 237.906C151.998 237.906 151.054 236.914 151.054 235.042V230.482H149.246V229.634H150.302C150.926 229.634 151.102 229.474 151.166 228.866L151.246 227.602H151.982V229.634H154.846V230.482H151.982V235.01C151.982 236.37 152.542 237.01 153.79 237.01H154.958V237.906H153.758ZM164.702 238.114C162.43 238.114 161.022 237.01 161.022 235.186C161.022 233.81 161.822 232.77 163.486 232.018C162.51 230.946 161.934 230.05 161.934 229.042C161.934 227.522 163.198 226.498 165.054 226.498C166.926 226.498 168.19 227.57 168.19 229.122C168.19 230.514 167.214 231.522 165.07 232.338L168.094 235.442C168.542 234.674 168.782 233.682 168.798 232.482H169.726C169.71 233.97 169.39 235.202 168.766 236.13L170.51 237.906H169.262L168.206 236.818C167.358 237.666 166.174 238.114 164.702 238.114ZM161.95 235.17C161.95 236.45 163.006 237.218 164.718 237.218C165.902 237.218 166.862 236.85 167.534 236.162L164.142 232.69C162.67 233.298 161.95 234.13 161.95 235.17ZM162.846 229.042C162.846 229.746 163.278 230.466 164.414 231.666C166.462 230.882 167.278 230.162 167.278 229.122C167.278 228.05 166.414 227.362 165.054 227.362C163.71 227.362 162.846 228.018 162.846 229.042ZM181.282 238.114C177.986 238.114 175.602 235.714 175.602 232.306C175.602 228.898 177.986 226.498 181.282 226.498C183.842 226.498 185.938 227.986 186.674 230.338H185.65C185.01 228.562 183.346 227.474 181.298 227.474C178.562 227.474 176.594 229.442 176.594 232.306C176.594 235.17 178.562 237.138 181.298 237.138C183.394 237.138 185.122 236.002 185.746 234.146H186.77C186.082 236.562 183.922 238.114 181.282 238.114ZM192.905 238.114C190.345 238.114 188.553 236.322 188.553 233.762C188.553 231.218 190.345 229.426 192.905 229.426C195.449 229.426 197.241 231.218 197.241 233.762C197.241 236.322 195.449 238.114 192.905 238.114ZM189.481 233.762C189.481 235.81 190.873 237.218 192.905 237.218C194.921 237.218 196.313 235.81 196.313 233.762C196.313 231.73 194.921 230.322 192.905 230.322C190.873 230.322 189.481 231.73 189.481 233.762ZM199.82 237.906V229.634H200.604L200.684 231.234C201.34 230.05 202.492 229.426 203.82 229.426C205.98 229.426 207.308 230.946 207.308 233.33V237.906H206.38V233.41C206.38 231.506 205.356 230.322 203.708 230.322C201.964 230.322 200.748 231.65 200.748 233.618V237.906H199.82ZM213.277 238.114C211.181 238.114 209.853 237.058 209.789 235.41H210.701C210.797 236.578 211.709 237.266 213.293 237.266C214.749 237.266 215.629 236.706 215.629 235.794C215.629 234.93 214.845 234.402 213.085 234.098C210.925 233.73 209.949 232.962 209.949 231.698C209.949 230.29 211.149 229.426 213.085 229.426C215.037 229.426 216.269 230.354 216.397 231.938H215.469C215.373 230.85 214.525 230.258 213.085 230.258C211.709 230.258 210.877 230.818 210.877 231.714C210.877 232.53 211.565 232.978 213.405 233.33C215.501 233.73 216.541 234.562 216.541 235.81C216.541 237.202 215.277 238.114 213.277 238.114ZM222.73 238.114C220.218 238.114 218.506 236.338 218.506 233.762C218.506 231.202 220.234 229.426 222.746 229.426C225.354 229.426 227.034 231.346 226.97 234.146H219.45C219.61 236.018 220.89 237.234 222.73 237.234C224.074 237.234 225.146 236.61 225.69 235.538L226.73 235.554C226.09 237.138 224.586 238.114 222.73 238.114ZM219.45 233.33H226.058C225.834 231.458 224.554 230.306 222.746 230.306C220.906 230.306 219.61 231.506 219.45 233.33ZM229.507 237.906V229.634H230.291L230.371 231.234C231.027 230.05 232.179 229.426 233.507 229.426C235.667 229.426 236.995 230.946 236.995 233.33V237.906H236.067V233.41C236.067 231.506 235.043 230.322 233.395 230.322C231.651 230.322 230.435 231.65 230.435 233.618V237.906H229.507ZM243.211 237.906C241.451 237.906 240.507 236.914 240.507 235.042V230.482H238.699V229.634H239.755C240.379 229.634 240.555 229.474 240.619 228.866L240.699 227.602H241.435V229.634H244.299V230.482H241.435V235.01C241.435 236.37 241.995 237.01 243.243 237.01H244.411V237.906H243.211Z" fill="#5B5852"/>
</svg>
