<svg width="366" height="283" viewBox="0 0 366 283" fill="none" xmlns="http://www.w3.org/2000/svg">
<path d="M39.9453 0.321289C39.6338 1.16044 39.3391 1.99171 39.0156 2.74316C37.3342 6.65348 35.4723 10.4771 33.9385 14.4443C32.7574 17.4977 31.6991 20.6355 30.6328 23.7188C31.3354 23.7132 31.259 22.7499 31.4941 22.2021C31.6174 21.9172 32.0982 21.1689 32.3633 21.0469C32.7734 20.8598 33.5277 21.1803 33.4648 21.625C32.642 23.5828 32.2598 25.6845 31.5244 27.6748C30.9011 29.3615 30.3349 31.0402 29.7197 32.7432C27.8688 37.8601 25.5552 42.9445 23.8164 48.0615C21.3449 55.337 19.42 62.8133 16.6504 69.9912C15.4803 73.0229 14.8241 76.0493 13.8535 79.1162C13.2794 80.9276 12.3035 83.3685 12.041 85.1826C11.9864 85.5649 12.0908 85.9961 12.0088 86.3594C11.954 86.5953 11.5984 87.029 11.4727 87.3408C10.7727 89.0872 10.0205 92.7534 9.71973 94.6787C9.63498 95.2237 9.64093 96.753 9.46875 97.0488C9.30749 97.3226 9.13502 97.2523 9.08301 96.9678C8.99552 96.477 9.04434 95.0989 9.07715 94.543C9.17013 93.0326 9.56976 91.4976 9.78027 89.998C9.94699 88.8106 9.85908 88.6555 10.3184 87.5059C10.7776 86.3535 10.9012 85.4557 11.1035 84.249C12.2136 77.5973 14.6663 71.7294 16.375 65.2783C16.6949 64.0662 17.2227 62.3848 17.3184 61.1699C17.3266 61.0587 17.3944 60.7961 17.2197 60.8203C15.0243 69.0448 11.8476 76.9819 9.62207 85.1982C8.86474 87.9995 8.15387 90.8419 7.86133 93.7354C7.81217 94.2153 7.91834 94.7605 7.85547 95.2432C7.78431 95.7935 7.47853 96.4821 7.38281 97.0947C7.0192 99.4647 7.0871 103.687 7.98926 105.916C8.77393 107.855 9.73689 107.977 11.1641 109.219C11.6341 109.628 12.2528 110.357 12.9062 110.906H0V45.7666C0 22.4516 17.4142 3.20438 39.9453 0.321289ZM50.0527 77.2129C50.1184 77.137 50.441 76.6321 50.5586 76.7568C47.7972 82.1179 45.3284 87.7611 44.1035 93.6943C42.9005 99.5164 43.056 103.598 45.9678 108.889C46.3353 109.556 46.9382 110.255 47.6699 110.906H16.7666C18.7844 110.166 21.1762 109.112 22.8105 108.159C23.1084 107.986 24.3901 107.129 24.4922 106.896C24.5441 106.776 24.2899 106.675 24.3418 106.461C24.4214 106.133 25.1152 105.767 25.293 105.577C25.6483 105.198 25.8808 104.696 26.3125 104.271C26.5886 103.997 27.7477 103.018 28.0488 102.969C28.8827 102.833 30.157 103.831 30.1133 102.627C29.1618 102.041 29.5202 101.447 30.5127 101.371C30.7918 101.35 31.6414 101.821 31.5107 101.149C31.3494 100.32 31.1636 100.29 31.9072 99.6416C33.1402 98.5678 35.1169 97.4341 35.4014 95.6445C35.4369 95.4141 35.2016 95.2215 35.5186 94.9531C36.3169 94.2779 37.894 95.0664 38.3916 93.6699C38.4709 93.4503 38.4463 93.1356 38.5557 92.9512C38.6186 92.8454 38.8569 92.7883 38.9717 92.6338C39.3732 92.0832 39.0835 90.8335 39.1709 90.1611L38.5615 90.0088L39.1191 89.5586C39.3267 89.6426 39.2399 90.0244 39.2725 90.0576C39.3244 90.1119 39.8578 90.0332 39.959 89.9355C40.0385 89.855 40.234 89.2001 40.1855 89.1553H39.7285C39.5344 88.8109 40.0708 88.6075 40.2295 88.3418C40.3498 88.1385 40.355 87.8671 40.4697 87.6719C41.197 86.4489 42.4302 85.9171 43.3379 84.9707C43.6058 84.6914 43.756 84.3361 44.0977 84.0107C44.2917 83.8264 44.6309 83.6939 44.7568 83.5557C44.94 83.3523 44.9129 83.0536 45.0469 82.834C45.7523 81.6599 47.4198 80.4534 48.374 79.377C48.9755 78.6964 49.465 77.9071 50.0527 77.2129ZM47.9854 0C72.2842 1.13123 91.6377 21.188 91.6377 45.7666V110.906H62.749C63.428 110.409 63.8634 109.705 64.5977 109.181C65.6665 108.419 66.9378 108.08 67.9766 107.392C74.2649 103.21 80.7424 96.9481 85.6309 91.2236C87.438 89.1085 90.2399 86.0147 91.123 83.4658C91.3773 82.7337 91.6917 81.9826 91.6289 81.1963L91.6348 81.1904C91.4926 81.1796 91.3584 81.1902 91.2217 81.2363C90.8362 81.3719 88.4033 84.0919 87.9219 84.6182C82.2706 90.7873 77.1112 97.8434 69.9727 102.407C66.2571 104.783 62.4297 106.35 58.3916 108.062C56.579 108.829 52.9811 109.308 51.0508 108.988C49.2819 108.695 48.716 108.46 48.2539 106.719C47.8875 105.341 47.3264 102.261 47.3154 100.886C47.31 100.04 47.7477 98.9331 47.9062 98.0654C49.2624 90.5947 52.9266 81.6701 57.249 75.3682C59.2202 72.4913 61.178 70.7337 63.5264 68.2852C64.4858 67.2846 65.2292 66.0833 66.1641 65.0557C68.0751 62.9568 70.3718 61.2349 72.7285 59.6621L72.9502 59.6299C73.713 59.9905 74.4239 60.0558 74.957 60.7744C76.8786 63.3614 72.8762 67.1357 71.583 69.2236C71.4135 69.5599 71.3731 70.0757 71.6328 70.374C71.7726 70.5364 72.2416 70.6796 72.4658 70.7041C73.0973 70.7746 75.0087 70.7914 75.6104 70.6992C77.2945 70.4389 79.4707 66.0971 79.6895 64.5596C80.2854 60.3647 77.3085 57.5312 73.3525 56.9209C71.7834 56.6796 71.7937 56.994 70.5283 57.1865C68.8469 57.4441 68.0943 57.0377 66.3828 58.0166C62.7247 60.1156 57.8578 65.3436 55.3535 68.7549C54.0249 70.5662 53.0904 72.7115 51.625 74.333C50.5615 75.5126 49.3366 76.5809 48.2676 77.7578C46.4221 79.7916 44.7673 82.0095 42.8809 84.0107C41.3006 85.692 39.4257 87.2436 37.8975 88.9492C34.696 92.5205 31.8002 95.4244 28.041 98.4316C27.2563 99.058 26.6081 99.8472 25.8535 100.498C23.2809 102.708 19.9129 105.255 16.9355 106.879C15.6123 107.6 14.1849 108.647 13.3701 106.824C12.5583 105.004 12.7682 100.744 12.9404 98.6836C13.0171 97.7673 13.4496 96.9052 13.5371 95.9482C13.6574 94.6385 13.5479 93.6317 13.9307 92.3057C14.286 91.0776 14.521 90.3237 14.7998 89.0332C15.2919 86.7581 16.0161 85.1254 16.6504 83.0049C17.7549 79.3143 18.5732 75.4827 19.8555 71.8652C21.9743 65.8861 23.7152 59.7791 25.8477 53.8135C28.5325 46.3075 31.683 38.9531 34.417 31.458C35.2481 29.1748 36.1558 26.9319 37.0088 24.6514C38.9035 19.5723 40.8413 14.4411 43.25 9.56543C44.2233 7.59137 45.399 6.17858 46.4707 4.3916C46.8665 3.73277 47.6789 1.32218 47.9854 0ZM8.88867 99.9854H8.8916L8.58301 100.04C8.38895 99.7039 8.60436 99.3915 8.98145 99.3398L8.88867 99.9854ZM37.0908 91.4736C37.2136 91.4086 37.2818 91.3355 37.4482 91.376C37.4018 91.7013 37.5632 92.2946 37.3477 92.5361L37.1641 92.6699C36.8562 92.8839 36.271 93.273 36.1992 93.3096C35.8958 93.4641 35.5509 93.5183 35.2119 93.4912C34.9774 93.282 36.8229 91.6119 37.0908 91.4736ZM47.4385 87.3135C47.2581 87.7933 46.873 86.7859 47.4111 86.8369L47.4385 87.3135ZM47.7207 85.2256C47.9665 85.1797 48.0021 85.4263 48.125 85.5781H48.1221L47.9717 85.7275L47.7314 85.5645L47.7207 85.2256ZM48.4287 83.3086C48.5244 83.2463 48.7645 83.3306 48.8301 83.458L48.4775 84.1113C48.2126 84.0297 48.3713 83.3436 48.4287 83.3057V83.3086ZM50.46 79.9814C50.4846 80.3584 50.4815 80.9518 49.9512 80.8867C49.9293 80.461 49.9187 79.9815 50.46 79.9814ZM51.2666 77.9229C51.286 77.8229 51.5444 77.8499 51.5752 77.8662C51.7801 77.999 51.5594 78.5652 51.3271 78.666C51.0565 78.4708 51.19 78.164 51.2666 77.9199V77.9229ZM53.3086 74.5361C53.2813 74.8588 53.4396 75.0921 53.3467 75.4229C53.2236 75.8648 52.6884 76.2196 52.5381 75.6475C52.454 75.3272 53.1908 74.3957 53.3086 74.5361ZM35.2891 13.8584C36.1035 13.6905 35.9966 14.6499 35.4443 14.7285C34.843 14.815 34.6439 13.9913 35.2891 13.8584ZM36.7402 11.8223C36.5762 11.1226 36.4427 10.2845 37.457 10.5557C37.7604 11.117 37.4155 11.8412 36.7402 11.8223Z" fill="#A88158"/>
<path d="M2.24219 134.906H15.1211C16.1055 134.906 17.0124 135.007 17.8418 135.207C18.6803 135.408 19.3913 135.672 19.9746 136C20.5671 136.328 21.0911 136.72 21.5469 137.176C22.0117 137.622 22.3854 138.087 22.668 138.57C22.9505 139.044 23.1829 139.55 23.3652 140.088C23.5566 140.617 23.6842 141.109 23.748 141.564C23.821 142.02 23.8574 142.462 23.8574 142.891C23.8574 143.319 23.821 143.761 23.748 144.217C23.6842 144.673 23.5566 145.165 23.3652 145.693C23.1829 146.222 22.9505 146.728 22.668 147.211C22.3854 147.685 22.0117 148.15 21.5469 148.605C21.0911 149.052 20.5671 149.439 19.9746 149.768C19.3913 150.096 18.6803 150.36 17.8418 150.561C17.0124 150.761 16.1055 150.861 15.1211 150.861H4.48438V162.906H2.24219V134.906ZM4.48438 148.906C4.48438 149.326 4.61198 149.663 4.86719 149.918C5.1224 150.173 5.45964 150.301 5.87891 150.301H12.6602C15.4219 150.301 17.5319 149.649 18.9902 148.346C20.4577 147.033 21.1914 145.215 21.1914 142.891C21.1914 140.566 20.4577 138.743 18.9902 137.422C17.5319 136.1 15.4219 135.439 12.6602 135.439C11.8398 135.439 10.5957 135.444 8.92773 135.453C7.25977 135.462 6.27083 135.467 5.96094 135.467C5.43229 135.467 5.05404 135.604 4.82617 135.877C4.59831 136.141 4.48438 136.638 4.48438 137.367V148.906ZM27.6172 162.906V134.906H47.0176V137.395C45.5775 136.911 43.2305 136.469 39.9766 136.068C36.7318 135.667 33.8424 135.467 31.3086 135.467C30.7799 135.467 30.4017 135.604 30.1738 135.877C29.946 136.141 29.832 136.638 29.832 137.367V146.213C29.832 146.632 29.9596 146.974 30.2148 147.238C30.4701 147.493 30.8073 147.621 31.2266 147.621H44.2695V149.973C42.5924 149.562 40.3867 149.18 37.6523 148.824C34.918 148.469 32.7852 148.291 31.2539 148.291C30.8255 148.291 30.4837 148.396 30.2285 148.605C29.9824 148.815 29.8594 149.12 29.8594 149.521L29.832 160.445C29.832 161.174 29.946 161.676 30.1738 161.949C30.4017 162.214 30.7799 162.346 31.3086 162.346C33.8424 162.346 36.7318 162.145 39.9766 161.744C43.2305 161.343 45.5775 160.901 47.0176 160.418V162.906H27.6172ZM50.9414 162.906V134.906H63.8203C64.8047 134.906 65.7116 135.007 66.541 135.207C67.3796 135.408 68.0905 135.672 68.6738 136C69.2663 136.328 69.7904 136.72 70.2461 137.176C70.7109 137.622 71.0846 138.087 71.3672 138.57C71.6497 139.044 71.8822 139.55 72.0645 140.088C72.2559 140.617 72.3835 141.109 72.4473 141.564C72.5202 142.02 72.5566 142.462 72.5566 142.891C72.5566 143.319 72.5202 143.761 72.4473 144.217C72.3835 144.663 72.2559 145.151 72.0645 145.68C71.8822 146.208 71.6497 146.71 71.3672 147.184C71.0846 147.658 70.7109 148.122 70.2461 148.578C69.7904 149.025 69.2663 149.412 68.6738 149.74C68.0905 150.068 67.3796 150.337 66.541 150.547C65.7116 150.747 64.8047 150.852 63.8203 150.861H63.0137C62.804 150.861 62.6536 150.88 62.5625 150.916C62.4714 150.943 62.4349 150.993 62.4531 151.066C62.4714 151.13 62.5215 151.208 62.6035 151.299C62.6947 151.39 62.8314 151.508 63.0137 151.654C63.4785 152.019 63.9889 152.511 64.5449 153.131C65.1009 153.751 65.584 154.329 65.9941 154.867C66.4134 155.405 67.015 156.198 67.7988 157.246C67.8444 157.31 67.8809 157.365 67.9082 157.41C67.9447 157.447 67.9857 157.497 68.0312 157.561C68.0768 157.615 68.1178 157.67 68.1543 157.725C68.9655 158.818 69.8587 159.844 70.834 160.801C71.8092 161.749 72.6432 162.451 73.3359 162.906H70.1777C69.6491 162.587 69.0749 162.118 68.4551 161.498C67.8353 160.869 67.2428 160.195 66.6777 159.475C66.1126 158.745 65.5293 157.98 64.9277 157.178C64.3262 156.367 63.7383 155.592 63.1641 154.854C62.5898 154.115 62.0293 153.445 61.4824 152.844C60.9447 152.242 60.4023 151.764 59.8555 151.408C59.3177 151.044 58.821 150.861 58.3652 150.861H55.8633V150.301H61.3594C64.1211 150.301 66.2311 149.649 67.6895 148.346C69.1569 147.033 69.8906 145.215 69.8906 142.891C69.8906 140.566 69.1569 138.748 67.6895 137.436C66.2311 136.123 64.1211 135.467 61.3594 135.467H54.6328C54.0859 135.467 53.7031 135.581 53.4844 135.809C53.2656 136.036 53.1562 136.51 53.1562 137.23L53.1836 162.906H50.9414ZM78.5039 162.906H76.1523V134.906H78.4492L87.6914 152.215C87.8828 152.589 88.097 152.775 88.334 152.775C88.5527 152.775 88.7578 152.579 88.9492 152.188L97.043 134.906H99.6133V162.906H97.2617V137.955C97.2617 137.718 97.2298 137.536 97.166 137.408C97.1022 137.271 97.0202 137.203 96.9199 137.203C96.765 137.203 96.61 137.354 96.4551 137.654C96.3092 137.919 95.5026 139.614 94.0352 142.74C92.5768 145.857 91.1504 148.911 89.7559 151.9L87.6641 156.385C81.2565 144.363 77.9115 138.119 77.6289 137.654C77.474 137.354 77.3099 137.203 77.1367 137.203C77.0365 137.203 76.9544 137.271 76.8906 137.408C76.8359 137.545 76.8132 137.727 76.8223 137.955L78.5039 162.906ZM104.877 162.906H102.416L111.959 136.219L111.371 134.906H113.846L126.328 162.906H123.867L121.816 158.34C121.379 157.355 120.659 156.48 119.656 155.715C118.663 154.94 117.587 154.361 116.43 153.979C115.272 153.587 114.156 153.391 113.08 153.391C111.23 153.391 109.503 153.969 107.898 155.127C107.598 155.346 107.297 155.71 106.996 156.221C106.704 156.722 106.495 157.205 106.367 157.67L104.877 162.906ZM107.926 152.297C107.789 152.798 107.839 153.049 108.076 153.049C108.195 153.049 108.4 152.976 108.691 152.83C109.785 152.229 110.97 151.928 112.246 151.928C113.513 151.928 114.789 152.201 116.074 152.748C117.368 153.286 118.576 154.01 119.697 154.922C120.016 155.186 120.217 155.286 120.299 155.223C120.381 155.159 120.335 154.94 120.162 154.566L112.943 138.379C112.779 137.987 112.602 137.791 112.41 137.791C112.21 137.791 112.041 138.014 111.904 138.461L107.926 152.297ZM128.652 162.906V134.906H130.949C136.135 142.262 142.087 150.679 148.805 160.158C149.005 160.441 149.183 160.582 149.338 160.582C149.557 160.582 149.652 160.34 149.625 159.857L147.943 134.906H150.295V162.906H148.053C146.831 161.184 144.206 157.492 140.178 151.832C136.158 146.163 132.809 141.437 130.129 137.654C129.928 137.372 129.751 137.23 129.596 137.23C129.386 137.23 129.295 137.472 129.322 137.955L131.004 162.906H128.652ZM154.766 162.906V134.906H174.166V137.395C172.726 136.911 170.379 136.469 167.125 136.068C163.88 135.667 160.991 135.467 158.457 135.467C157.928 135.467 157.55 135.604 157.322 135.877C157.094 136.141 156.98 136.638 156.98 137.367V146.213C156.98 146.632 157.108 146.974 157.363 147.238C157.618 147.493 157.956 147.621 158.375 147.621H171.418V149.973C169.741 149.562 167.535 149.18 164.801 148.824C162.066 148.469 159.934 148.291 158.402 148.291C157.974 148.291 157.632 148.396 157.377 148.605C157.131 148.815 157.008 149.12 157.008 149.521L156.98 160.445C156.98 161.174 157.094 161.676 157.322 161.949C157.55 162.214 157.928 162.346 158.457 162.346C160.991 162.346 163.88 162.145 167.125 161.744C170.379 161.343 172.726 160.901 174.166 160.418V162.906H154.766ZM178.09 162.906V134.906H180.387C185.573 142.262 191.525 150.679 198.242 160.158C198.443 160.441 198.62 160.582 198.775 160.582C198.994 160.582 199.09 160.34 199.062 159.857L197.381 134.906H199.732V162.906H197.49C196.269 161.184 193.644 157.492 189.615 151.832C185.596 146.163 182.246 141.437 179.566 137.654C179.366 137.372 179.188 137.23 179.033 137.23C178.824 137.23 178.732 137.472 178.76 137.955L180.441 162.906H178.09ZM203.643 134.906H225.203V137.395C224.155 136.939 222.688 136.506 220.801 136.096C218.923 135.676 217.665 135.467 217.027 135.467C216.499 135.467 216.116 135.604 215.879 135.877C215.651 136.141 215.537 136.638 215.537 137.367V162.906H213.295V137.367C213.295 136.638 213.181 136.141 212.953 135.877C212.725 135.604 212.347 135.467 211.818 135.467C211.18 135.467 209.918 135.676 208.031 136.096C206.154 136.506 204.691 136.939 203.643 137.395V134.906ZM2.10547 192.773C1.63151 191.242 1.39453 189.62 1.39453 187.906C1.39453 186.193 1.63151 184.575 2.10547 183.053C2.57943 181.521 3.24479 180.173 4.10156 179.006C4.95833 177.83 5.96094 176.818 7.10938 175.971C8.26693 175.114 9.54753 174.462 10.9512 174.016C12.3639 173.569 13.8359 173.346 15.3672 173.346C16.6615 173.346 17.9238 173.464 19.1543 173.701C20.3939 173.938 21.5195 174.275 22.5312 174.713C23.5521 175.15 24.3724 175.725 24.9922 176.436C25.612 177.146 25.9219 177.935 25.9219 178.801C25.9219 179.102 25.8763 179.361 25.7852 179.58C25.7031 179.79 25.5983 179.945 25.4707 180.045C25.3522 180.136 25.2292 180.209 25.1016 180.264C24.9831 180.309 24.8828 180.332 24.8008 180.332L24.6641 180.346C24.5547 179.571 24.2311 178.796 23.6934 178.021C23.1556 177.247 22.4766 176.559 21.6562 175.957C20.8451 175.346 19.8835 174.854 18.7715 174.48C17.6595 174.098 16.5247 173.906 15.3672 173.906C13.763 173.906 12.2409 174.248 10.8008 174.932C9.36979 175.606 8.12565 176.545 7.06836 177.748C6.01107 178.951 5.17253 180.432 4.55273 182.191C3.94206 183.951 3.63672 185.855 3.63672 187.906C3.63672 189.957 3.94206 191.862 4.55273 193.621C5.17253 195.38 6.01107 196.861 7.06836 198.064C8.12565 199.268 9.36979 200.211 10.8008 200.895C12.2409 201.569 13.763 201.906 15.3672 201.906C16.4245 201.906 17.4954 201.733 18.5801 201.387C19.6738 201.04 20.681 200.576 21.6016 199.992C22.5221 199.4 23.3652 198.748 24.1309 198.037C24.9056 197.317 25.571 196.561 26.127 195.768V198.912C25.4434 199.942 24.0807 200.794 22.0391 201.469C19.9974 202.134 17.7734 202.467 15.3672 202.467C13.8359 202.467 12.3639 202.243 10.9512 201.797C9.54753 201.35 8.26693 200.703 7.10938 199.855C5.96094 198.999 4.95833 197.987 4.10156 196.82C3.24479 195.645 2.57943 194.296 2.10547 192.773ZM42.875 202.467C41.3438 202.467 39.8717 202.243 38.459 201.797C37.0553 201.35 35.7747 200.703 34.6172 199.855C33.4688 198.999 32.4661 197.987 31.6094 196.82C30.7526 195.645 30.0872 194.296 29.6133 192.773C29.1393 191.242 28.9023 189.62 28.9023 187.906C28.9023 186.193 29.1393 184.575 29.6133 183.053C30.0872 181.521 30.7526 180.173 31.6094 179.006C32.4661 177.83 33.4688 176.818 34.6172 175.971C35.7747 175.114 37.0553 174.462 38.459 174.016C39.8717 173.569 41.3438 173.346 42.875 173.346C44.7891 173.346 46.5983 173.701 48.3027 174.412C50.0163 175.114 51.502 176.089 52.7598 177.338C54.0267 178.587 55.0293 180.127 55.7676 181.959C56.5059 183.791 56.875 185.773 56.875 187.906C56.875 190.039 56.5059 192.021 55.7676 193.854C55.0293 195.686 54.0267 197.226 52.7598 198.475C51.502 199.723 50.0163 200.703 48.3027 201.414C46.5983 202.116 44.7891 202.467 42.875 202.467ZM32.0605 182.191C31.4499 183.951 31.1445 185.855 31.1445 187.906C31.1445 189.957 31.4499 191.862 32.0605 193.621C32.6803 195.38 33.5189 196.861 34.5762 198.064C35.6335 199.268 36.8776 200.211 38.3086 200.895C39.7487 201.569 41.2708 201.906 42.875 201.906C44.4792 201.906 46.0013 201.569 47.4414 200.895C48.8815 200.211 50.1302 199.268 51.1875 198.064C52.2539 196.861 53.097 195.38 53.7168 193.621C54.3366 191.862 54.6465 189.957 54.6465 187.906C54.6465 185.855 54.3366 183.951 53.7168 182.191C53.097 180.432 52.2539 178.951 51.1875 177.748C50.1302 176.545 48.8815 175.606 47.4414 174.932C46.0013 174.248 44.4792 173.906 42.875 173.906C41.2708 173.906 39.7487 174.248 38.3086 174.932C36.8776 175.606 35.6335 176.545 34.5762 177.748C33.5189 178.951 32.6803 180.432 32.0605 182.191ZM59.8145 196C59.8145 195.271 60.015 194.669 60.416 194.195C60.8262 193.721 61.3138 193.484 61.8789 193.484C62.3255 193.484 62.7266 193.639 63.082 193.949C62.3346 194.204 61.9609 194.824 61.9609 195.809C61.9609 196.802 62.3984 197.773 63.2734 198.721C64.1484 199.66 65.3151 200.425 66.7734 201.018C68.2409 201.61 69.7721 201.906 71.3672 201.906C72.3424 201.906 73.2812 201.815 74.1836 201.633C75.0859 201.441 75.9245 201.154 76.6992 200.771C77.4831 200.389 78.1621 199.924 78.7363 199.377C79.3105 198.83 79.7617 198.174 80.0898 197.408C80.418 196.643 80.582 195.809 80.582 194.906C80.582 194.186 80.4772 193.535 80.2676 192.951C80.0671 192.368 79.8118 191.871 79.502 191.461C79.1921 191.051 78.7637 190.682 78.2168 190.354C77.679 190.016 77.1595 189.747 76.6582 189.547C76.166 189.337 75.5371 189.141 74.7715 188.959C74.015 188.777 73.3496 188.635 72.7754 188.535C72.2012 188.435 71.4857 188.316 70.6289 188.18C69.8633 188.061 69.2845 187.97 68.8926 187.906C68.5007 187.842 67.9538 187.738 67.252 187.592C66.5501 187.446 66.0078 187.314 65.625 187.195C65.2422 187.068 64.7637 186.895 64.1895 186.676C63.6152 186.457 63.1686 186.229 62.8496 185.992C62.5306 185.755 62.1797 185.464 61.7969 185.117C61.4141 184.771 61.1224 184.402 60.9219 184.01C60.7305 183.609 60.5664 183.144 60.4297 182.615C60.293 182.087 60.2246 181.517 60.2246 180.906C60.2246 179.849 60.4434 178.892 60.8809 178.035C61.3184 177.169 61.8971 176.454 62.6172 175.889C63.3464 175.314 64.194 174.831 65.1602 174.439C66.1354 174.048 67.138 173.77 68.168 173.605C69.1979 173.432 70.2552 173.346 71.3398 173.346C72.2695 173.346 73.1992 173.4 74.1289 173.51C75.0586 173.619 75.9792 173.801 76.8906 174.057C77.8112 174.303 78.6224 174.608 79.3242 174.973C80.026 175.337 80.5911 175.802 81.0195 176.367C81.457 176.932 81.6758 177.557 81.6758 178.24C81.6758 179.225 81.3021 179.844 80.5547 180.1C80.2904 178.833 79.6797 177.725 78.7227 176.777C77.7747 175.829 76.6172 175.114 75.25 174.631C73.8919 174.148 72.4336 173.906 70.875 173.906C68.1862 173.906 66.0716 174.503 64.5312 175.697C62.9909 176.882 62.2207 178.573 62.2207 180.77C62.2207 181.326 62.321 181.827 62.5215 182.273C62.7311 182.72 63.0456 183.103 63.4648 183.422C63.8932 183.741 64.3444 184.014 64.8184 184.242C65.3014 184.47 65.903 184.675 66.623 184.857C67.3431 185.04 68.0085 185.19 68.6191 185.309C69.2389 185.427 69.9863 185.564 70.8613 185.719C71.6908 185.855 72.3197 185.965 72.748 186.047C73.1764 186.129 73.7826 186.257 74.5664 186.43C75.3503 186.594 75.9609 186.753 76.3984 186.908C76.8359 187.054 77.3783 187.255 78.0254 187.51C78.6725 187.765 79.1829 188.029 79.5566 188.303C79.9303 188.576 80.3359 188.913 80.7734 189.314C81.2201 189.715 81.5573 190.144 81.7852 190.6C82.013 191.055 82.2044 191.584 82.3594 192.186C82.5234 192.787 82.6055 193.434 82.6055 194.127C82.6055 195.239 82.3958 196.26 81.9766 197.189C81.5573 198.11 80.9876 198.894 80.2676 199.541C79.5475 200.179 78.7044 200.721 77.7383 201.168C76.7812 201.615 75.765 201.943 74.6895 202.152C73.6139 202.362 72.5065 202.467 71.3672 202.467C69.1068 202.467 67.097 202.198 65.3379 201.66C63.5879 201.113 62.2298 200.352 61.2637 199.377C60.2975 198.393 59.8145 197.267 59.8145 196ZM88.4844 201.906H86.1328V173.906H88.4297L97.6719 191.215C97.8633 191.589 98.0775 191.775 98.3145 191.775C98.5332 191.775 98.7383 191.579 98.9297 191.188L107.023 173.906H109.594V201.906H107.242V176.955C107.242 176.718 107.21 176.536 107.146 176.408C107.083 176.271 107.001 176.203 106.9 176.203C106.745 176.203 106.59 176.354 106.436 176.654C106.29 176.919 105.483 178.614 104.016 181.74C102.557 184.857 101.131 187.911 99.7363 190.9L97.6445 195.385C91.237 183.363 87.8919 177.119 87.6094 176.654C87.4544 176.354 87.2904 176.203 87.1172 176.203C87.0169 176.203 86.9349 176.271 86.8711 176.408C86.8164 176.545 86.7936 176.727 86.8027 176.955L88.4844 201.906ZM114.078 201.906V173.906H133.479V176.395C132.038 175.911 129.691 175.469 126.438 175.068C123.193 174.667 120.303 174.467 117.77 174.467C117.241 174.467 116.863 174.604 116.635 174.877C116.407 175.141 116.293 175.638 116.293 176.367V185.213C116.293 185.632 116.421 185.974 116.676 186.238C116.931 186.493 117.268 186.621 117.688 186.621H130.73V188.973C129.053 188.562 126.848 188.18 124.113 187.824C121.379 187.469 119.246 187.291 117.715 187.291C117.286 187.291 116.945 187.396 116.689 187.605C116.443 187.815 116.32 188.12 116.32 188.521L116.293 199.445C116.293 200.174 116.407 200.676 116.635 200.949C116.863 201.214 117.241 201.346 117.77 201.346C120.303 201.346 123.193 201.145 126.438 200.744C129.691 200.343 132.038 199.901 133.479 199.418V201.906H114.078ZM136.842 173.906H158.402V176.395C157.354 175.939 155.887 175.506 154 175.096C152.122 174.676 150.865 174.467 150.227 174.467C149.698 174.467 149.315 174.604 149.078 174.877C148.85 175.141 148.736 175.638 148.736 176.367V201.906H146.494V176.367C146.494 175.638 146.38 175.141 146.152 174.877C145.924 174.604 145.546 174.467 145.018 174.467C144.38 174.467 143.117 174.676 141.23 175.096C139.353 175.506 137.89 175.939 136.842 176.395V173.906ZM162.312 201.906V173.906H164.555V201.906H162.312ZM168.902 192.773C168.428 191.242 168.191 189.62 168.191 187.906C168.191 186.193 168.428 184.575 168.902 183.053C169.376 181.521 170.042 180.173 170.898 179.006C171.755 177.83 172.758 176.818 173.906 175.971C175.064 175.114 176.344 174.462 177.748 174.016C179.161 173.569 180.633 173.346 182.164 173.346C183.458 173.346 184.721 173.464 185.951 173.701C187.191 173.938 188.316 174.275 189.328 174.713C190.349 175.15 191.169 175.725 191.789 176.436C192.409 177.146 192.719 177.935 192.719 178.801C192.719 179.102 192.673 179.361 192.582 179.58C192.5 179.79 192.395 179.945 192.268 180.045C192.149 180.136 192.026 180.209 191.898 180.264C191.78 180.309 191.68 180.332 191.598 180.332L191.461 180.346C191.352 179.571 191.028 178.796 190.49 178.021C189.952 177.247 189.273 176.559 188.453 175.957C187.642 175.346 186.68 174.854 185.568 174.48C184.456 174.098 183.322 173.906 182.164 173.906C180.56 173.906 179.038 174.248 177.598 174.932C176.167 175.606 174.923 176.545 173.865 177.748C172.808 178.951 171.969 180.432 171.35 182.191C170.739 183.951 170.434 185.855 170.434 187.906C170.434 189.957 170.739 191.862 171.35 193.621C171.969 195.38 172.808 196.861 173.865 198.064C174.923 199.268 176.167 200.211 177.598 200.895C179.038 201.569 180.56 201.906 182.164 201.906C183.221 201.906 184.292 201.733 185.377 201.387C186.471 201.04 187.478 200.576 188.398 199.992C189.319 199.4 190.162 198.748 190.928 198.037C191.702 197.317 192.368 196.561 192.924 195.768V198.912C192.24 199.942 190.878 200.794 188.836 201.469C186.794 202.134 184.57 202.467 182.164 202.467C180.633 202.467 179.161 202.243 177.748 201.797C176.344 201.35 175.064 200.703 173.906 199.855C172.758 198.999 171.755 197.987 170.898 196.82C170.042 195.645 169.376 194.296 168.902 192.773ZM195.85 196C195.85 195.271 196.05 194.669 196.451 194.195C196.861 193.721 197.349 193.484 197.914 193.484C198.361 193.484 198.762 193.639 199.117 193.949C198.37 194.204 197.996 194.824 197.996 195.809C197.996 196.802 198.434 197.773 199.309 198.721C200.184 199.66 201.35 200.425 202.809 201.018C204.276 201.61 205.807 201.906 207.402 201.906C208.378 201.906 209.316 201.815 210.219 201.633C211.121 201.441 211.96 201.154 212.734 200.771C213.518 200.389 214.197 199.924 214.771 199.377C215.346 198.83 215.797 198.174 216.125 197.408C216.453 196.643 216.617 195.809 216.617 194.906C216.617 194.186 216.512 193.535 216.303 192.951C216.102 192.368 215.847 191.871 215.537 191.461C215.227 191.051 214.799 190.682 214.252 190.354C213.714 190.016 213.195 189.747 212.693 189.547C212.201 189.337 211.572 189.141 210.807 188.959C210.05 188.777 209.385 188.635 208.811 188.535C208.236 188.435 207.521 188.316 206.664 188.18C205.898 188.061 205.32 187.97 204.928 187.906C204.536 187.842 203.989 187.738 203.287 187.592C202.585 187.446 202.043 187.314 201.66 187.195C201.277 187.068 200.799 186.895 200.225 186.676C199.65 186.457 199.204 186.229 198.885 185.992C198.566 185.755 198.215 185.464 197.832 185.117C197.449 184.771 197.158 184.402 196.957 184.01C196.766 183.609 196.602 183.144 196.465 182.615C196.328 182.087 196.26 181.517 196.26 180.906C196.26 179.849 196.479 178.892 196.916 178.035C197.354 177.169 197.932 176.454 198.652 175.889C199.382 175.314 200.229 174.831 201.195 174.439C202.171 174.048 203.173 173.77 204.203 173.605C205.233 173.432 206.29 173.346 207.375 173.346C208.305 173.346 209.234 173.4 210.164 173.51C211.094 173.619 212.014 173.801 212.926 174.057C213.846 174.303 214.658 174.608 215.359 174.973C216.061 175.337 216.626 175.802 217.055 176.367C217.492 176.932 217.711 177.557 217.711 178.24C217.711 179.225 217.337 179.844 216.59 180.1C216.326 178.833 215.715 177.725 214.758 176.777C213.81 175.829 212.652 175.114 211.285 174.631C209.927 174.148 208.469 173.906 206.91 173.906C204.221 173.906 202.107 174.503 200.566 175.697C199.026 176.882 198.256 178.573 198.256 180.77C198.256 181.326 198.356 181.827 198.557 182.273C198.766 182.72 199.081 183.103 199.5 183.422C199.928 183.741 200.38 184.014 200.854 184.242C201.337 184.47 201.938 184.675 202.658 184.857C203.378 185.04 204.044 185.19 204.654 185.309C205.274 185.427 206.021 185.564 206.896 185.719C207.726 185.855 208.355 185.965 208.783 186.047C209.212 186.129 209.818 186.257 210.602 186.43C211.385 186.594 211.996 186.753 212.434 186.908C212.871 187.054 213.413 187.255 214.061 187.51C214.708 187.765 215.218 188.029 215.592 188.303C215.965 188.576 216.371 188.913 216.809 189.314C217.255 189.715 217.592 190.144 217.82 190.6C218.048 191.055 218.24 191.584 218.395 192.186C218.559 192.787 218.641 193.434 218.641 194.127C218.641 195.239 218.431 196.26 218.012 197.189C217.592 198.11 217.023 198.894 216.303 199.541C215.583 200.179 214.74 200.721 213.773 201.168C212.816 201.615 211.8 201.943 210.725 202.152C209.649 202.362 208.542 202.467 207.402 202.467C205.142 202.467 203.132 202.198 201.373 201.66C199.623 201.113 198.265 200.352 197.299 199.377C196.333 198.393 195.85 197.267 195.85 196Z" fill="#383637"/>
<path d="M1.808 237.906V226.706H2.784V237.906H1.808ZM6.24175 237.906V229.634H7.02575L7.10575 231.234C7.76175 230.05 8.91375 229.426 10.2418 229.426C12.4018 229.426 13.7298 230.946 13.7298 233.33V237.906H12.8018V233.41C12.8018 231.506 11.7778 230.322 10.1298 230.322C8.38575 230.322 7.16975 231.65 7.16975 233.618V237.906H6.24175ZM17.4793 228.674C17.4793 226.786 18.4073 225.858 20.2473 225.858H21.5433V226.738H20.3273C18.9833 226.738 18.4073 227.33 18.4073 228.738V229.634H21.4633V230.482H18.4073V237.906H17.4793V230.482H15.5913V229.634H17.4793V228.674ZM26.7175 238.114C24.1575 238.114 22.3655 236.322 22.3655 233.762C22.3655 231.218 24.1575 229.426 26.7175 229.426C29.2615 229.426 31.0535 231.218 31.0535 233.762C31.0535 236.322 29.2615 238.114 26.7175 238.114ZM23.2935 233.762C23.2935 235.81 24.6855 237.218 26.7175 237.218C28.7335 237.218 30.1255 235.81 30.1255 233.762C30.1255 231.73 28.7335 230.322 26.7175 230.322C24.6855 230.322 23.2935 231.73 23.2935 233.762ZM33.6324 237.906V229.634H34.4164L34.5124 231.49C35.0724 230.242 36.0164 229.634 37.5524 229.634H38.2404V230.498H37.5204C35.7444 230.498 34.5604 231.586 34.5604 234.098V237.906H33.6324ZM40.5699 237.906V229.634H41.3539L41.4339 230.978C42.0099 229.97 43.0179 229.426 44.2979 229.426C45.7379 229.426 46.8419 230.146 47.3219 231.41C47.8819 230.146 49.0179 229.426 50.4739 229.426C52.5539 229.426 53.8979 230.85 53.8979 233.154V237.906H52.9699V233.298C52.9699 231.458 51.9459 230.322 50.3619 230.322C48.7459 230.322 47.6899 231.49 47.6899 233.362V237.906H46.7619V233.298C46.7619 231.458 45.7539 230.322 44.1699 230.322C42.5539 230.322 41.4979 231.49 41.4979 233.362V237.906H40.5699ZM60.5114 238.114C57.9994 238.114 56.2874 236.338 56.2874 233.762C56.2874 231.202 58.0154 229.426 60.5274 229.426C63.1354 229.426 64.8154 231.346 64.7514 234.146H57.2314C57.3914 236.018 58.6714 237.234 60.5114 237.234C61.8554 237.234 62.9274 236.61 63.4714 235.538L64.5114 235.554C63.8714 237.138 62.3674 238.114 60.5114 238.114ZM57.2314 233.33H63.8394C63.6154 231.458 62.3354 230.306 60.5274 230.306C58.6874 230.306 57.3914 231.506 57.2314 233.33ZM70.8086 238.114C68.3126 238.114 66.5686 236.274 66.5686 233.762C66.5686 231.25 68.3126 229.426 70.8086 229.426C72.3286 229.426 73.5606 230.098 74.2966 231.17V226.066H75.2246V237.906H74.4566L74.3446 236.274C73.6246 237.41 72.3606 238.114 70.8086 238.114ZM67.4966 233.762C67.4966 235.794 68.8886 237.218 70.9206 237.218C72.9366 237.218 74.3286 235.794 74.3286 233.762C74.3286 231.746 72.9366 230.322 70.9206 230.322C68.8886 230.322 67.4966 231.746 67.4966 233.762ZM87.4071 238.114C84.1111 238.114 81.7271 235.714 81.7271 232.306C81.7271 228.898 84.1111 226.498 87.4071 226.498C89.9671 226.498 92.0631 227.986 92.7991 230.338H91.7751C91.1351 228.562 89.4711 227.474 87.4231 227.474C84.6871 227.474 82.7191 229.442 82.7191 232.306C82.7191 235.17 84.6871 237.138 87.4231 237.138C89.5191 237.138 91.2471 236.002 91.8711 234.146H92.8951C92.2071 236.562 90.0471 238.114 87.4071 238.114ZM99.03 238.114C96.47 238.114 94.678 236.322 94.678 233.762C94.678 231.218 96.47 229.426 99.03 229.426C101.574 229.426 103.366 231.218 103.366 233.762C103.366 236.322 101.574 238.114 99.03 238.114ZM95.606 233.762C95.606 235.81 96.998 237.218 99.03 237.218C101.046 237.218 102.438 235.81 102.438 233.762C102.438 231.73 101.046 230.322 99.03 230.322C96.998 230.322 95.606 231.73 95.606 233.762ZM105.945 237.906V229.634H106.729L106.809 231.234C107.465 230.05 108.617 229.426 109.945 229.426C112.105 229.426 113.433 230.946 113.433 233.33V237.906H112.505V233.41C112.505 231.506 111.481 230.322 109.833 230.322C108.089 230.322 106.873 231.65 106.873 233.618V237.906H105.945ZM119.402 238.114C117.306 238.114 115.978 237.058 115.914 235.41H116.826C116.922 236.578 117.834 237.266 119.418 237.266C120.874 237.266 121.754 236.706 121.754 235.794C121.754 234.93 120.97 234.402 119.21 234.098C117.05 233.73 116.074 232.962 116.074 231.698C116.074 230.29 117.274 229.426 119.21 229.426C121.162 229.426 122.394 230.354 122.522 231.938H121.594C121.498 230.85 120.65 230.258 119.21 230.258C117.834 230.258 117.002 230.818 117.002 231.714C117.002 232.53 117.69 232.978 119.53 233.33C121.626 233.73 122.666 234.562 122.666 235.81C122.666 237.202 121.402 238.114 119.402 238.114ZM128.855 238.114C126.343 238.114 124.631 236.338 124.631 233.762C124.631 231.202 126.359 229.426 128.871 229.426C131.479 229.426 133.159 231.346 133.095 234.146H125.575C125.735 236.018 127.015 237.234 128.855 237.234C130.199 237.234 131.271 236.61 131.815 235.538L132.855 235.554C132.215 237.138 130.711 238.114 128.855 238.114ZM125.575 233.33H132.183C131.959 231.458 130.679 230.306 128.871 230.306C127.031 230.306 125.735 231.506 125.575 233.33ZM135.632 237.906V229.634H136.416L136.496 231.234C137.152 230.05 138.304 229.426 139.632 229.426C141.792 229.426 143.12 230.946 143.12 233.33V237.906H142.192V233.41C142.192 231.506 141.168 230.322 139.52 230.322C137.776 230.322 136.56 231.65 136.56 233.618V237.906H135.632ZM149.336 237.906C147.576 237.906 146.632 236.914 146.632 235.042V230.482H144.824V229.634H145.88C146.504 229.634 146.68 229.474 146.744 228.866L146.824 227.602H147.56V229.634H150.424V230.482H147.56V235.01C147.56 236.37 148.12 237.01 149.368 237.01H150.536V237.906H149.336ZM160.196 237.906C158.436 237.906 157.492 236.914 157.492 235.042V230.482H155.684V229.634H156.74C157.364 229.634 157.539 229.474 157.604 228.866L157.684 227.602H158.42V229.634H161.284V230.482H158.42V235.01C158.42 236.37 158.98 237.01 160.228 237.01H161.396V237.906H160.196ZM167.108 238.114C164.548 238.114 162.756 236.322 162.756 233.762C162.756 231.218 164.548 229.426 167.108 229.426C169.652 229.426 171.444 231.218 171.444 233.762C171.444 236.322 169.652 238.114 167.108 238.114ZM163.684 233.762C163.684 235.81 165.076 237.218 167.108 237.218C169.124 237.218 170.516 235.81 170.516 233.762C170.516 231.73 169.124 230.322 167.108 230.322C165.076 230.322 163.684 231.73 163.684 233.762ZM179.902 237.906V227.634H176.046V226.706H184.734V227.634H180.862V237.906H179.902ZM185.242 237.906V229.634H186.026L186.122 231.49C186.682 230.242 187.626 229.634 189.162 229.634H189.85V230.498H189.13C187.354 230.498 186.17 231.586 186.17 234.098V237.906H185.242ZM195.043 238.114C192.531 238.114 190.819 236.338 190.819 233.762C190.819 231.202 192.547 229.426 195.059 229.426C197.667 229.426 199.347 231.346 199.283 234.146H191.763C191.923 236.018 193.203 237.234 195.043 237.234C196.387 237.234 197.459 236.61 198.003 235.538L199.043 235.554C198.403 237.138 196.899 238.114 195.043 238.114ZM191.763 233.33H198.371C198.147 231.458 196.867 230.306 195.059 230.306C193.219 230.306 191.923 231.506 191.763 233.33ZM204.303 238.034C202.383 238.034 201.183 237.09 201.183 235.57C201.183 234.098 202.303 233.17 203.999 233.17H207.647V232.578C207.647 231.202 206.639 230.29 205.103 230.29C203.855 230.29 202.879 230.93 202.543 231.922H201.599C201.999 230.386 203.327 229.426 205.087 229.426C207.151 229.426 208.575 230.69 208.575 232.53V237.906H207.807L207.711 236.482C206.991 237.474 205.775 238.034 204.303 238.034ZM202.111 235.554C202.111 236.562 202.959 237.202 204.335 237.202C206.255 237.202 207.663 236.002 207.663 234.338V233.986H204.031C202.895 233.986 202.111 234.61 202.111 235.554ZM214.789 237.906C213.029 237.906 212.085 236.914 212.085 235.042V230.482H210.277V229.634H211.333C211.957 229.634 212.133 229.474 212.197 228.866L212.277 227.602H213.013V229.634H215.877V230.482H213.013V235.01C213.013 236.37 213.573 237.01 214.821 237.01H215.989V237.906H214.789ZM218.476 237.906V229.634H219.26L219.34 230.978C219.916 229.97 220.924 229.426 222.204 229.426C223.644 229.426 224.748 230.146 225.228 231.41C225.788 230.146 226.924 229.426 228.38 229.426C230.46 229.426 231.804 230.85 231.804 233.154V237.906H230.876V233.298C230.876 231.458 229.852 230.322 228.268 230.322C226.652 230.322 225.596 231.49 225.596 233.362V237.906H224.668V233.298C224.668 231.458 223.66 230.322 222.076 230.322C220.46 230.322 219.404 231.49 219.404 233.362V237.906H218.476ZM238.418 238.114C235.906 238.114 234.194 236.338 234.194 233.762C234.194 231.202 235.922 229.426 238.434 229.426C241.042 229.426 242.722 231.346 242.658 234.146H235.138C235.298 236.018 236.578 237.234 238.418 237.234C239.762 237.234 240.834 236.61 241.378 235.538L242.418 235.554C241.778 237.138 240.274 238.114 238.418 238.114ZM235.138 233.33H241.746C241.522 231.458 240.242 230.306 238.434 230.306C236.594 230.306 235.298 231.506 235.138 233.33ZM245.195 237.906V229.634H245.979L246.059 231.234C246.715 230.05 247.867 229.426 249.195 229.426C251.355 229.426 252.683 230.946 252.683 233.33V237.906H251.755V233.41C251.755 231.506 250.731 230.322 249.083 230.322C247.339 230.322 246.123 231.65 246.123 233.618V237.906H245.195ZM258.899 237.906C257.139 237.906 256.195 236.914 256.195 235.042V230.482H254.387V229.634H255.443C256.067 229.634 256.243 229.474 256.307 228.866L256.387 227.602H257.123V229.634H259.987V230.482H257.123V235.01C257.123 236.37 257.683 237.01 258.931 237.01H260.099V237.906H258.899Z" fill="#5B5852"/>
</svg>
