<svg width="366" height="283" viewBox="0 0 366 283" fill="none" xmlns="http://www.w3.org/2000/svg">
<path d="M39.9453 0.321289C39.6338 1.16044 39.3391 1.99171 39.0156 2.74316C37.3342 6.65348 35.4723 10.4771 33.9385 14.4443C32.7574 17.4977 31.6991 20.6355 30.6328 23.7188C31.3354 23.7132 31.259 22.7499 31.4941 22.2021C31.6174 21.9172 32.0982 21.1689 32.3633 21.0469C32.7734 20.8598 33.5277 21.1803 33.4648 21.625C32.642 23.5828 32.2598 25.6845 31.5244 27.6748C30.9011 29.3615 30.3349 31.0402 29.7197 32.7432C27.8688 37.8601 25.5552 42.9445 23.8164 48.0615C21.3449 55.337 19.42 62.8133 16.6504 69.9912C15.4803 73.0229 14.8241 76.0493 13.8535 79.1162C13.2794 80.9276 12.3035 83.3685 12.041 85.1826C11.9864 85.5649 12.0908 85.9961 12.0088 86.3594C11.954 86.5953 11.5984 87.029 11.4727 87.3408C10.7727 89.0872 10.0205 92.7534 9.71973 94.6787C9.63498 95.2237 9.64093 96.753 9.46875 97.0488C9.30749 97.3226 9.13502 97.2523 9.08301 96.9678C8.99552 96.477 9.04434 95.0989 9.07715 94.543C9.17013 93.0326 9.56976 91.4976 9.78027 89.998C9.94699 88.8106 9.85908 88.6555 10.3184 87.5059C10.7776 86.3535 10.9012 85.4557 11.1035 84.249C12.2136 77.5973 14.6663 71.7294 16.375 65.2783C16.6949 64.0662 17.2227 62.3848 17.3184 61.1699C17.3266 61.0587 17.3944 60.7961 17.2197 60.8203C15.0243 69.0448 11.8476 76.9819 9.62207 85.1982C8.86474 87.9995 8.15387 90.8419 7.86133 93.7354C7.81217 94.2153 7.91834 94.7605 7.85547 95.2432C7.78431 95.7935 7.47853 96.4821 7.38281 97.0947C7.0192 99.4647 7.0871 103.687 7.98926 105.916C8.77393 107.855 9.73689 107.977 11.1641 109.219C11.6341 109.628 12.2528 110.357 12.9062 110.906H0V45.7666C0 22.4516 17.4142 3.20438 39.9453 0.321289ZM50.0527 77.2129C50.1184 77.137 50.441 76.6321 50.5586 76.7568C47.7972 82.1179 45.3284 87.7611 44.1035 93.6943C42.9005 99.5164 43.056 103.598 45.9678 108.889C46.3353 109.556 46.9382 110.255 47.6699 110.906H16.7666C18.7844 110.166 21.1762 109.112 22.8105 108.159C23.1084 107.986 24.3901 107.129 24.4922 106.896C24.5441 106.776 24.2899 106.675 24.3418 106.461C24.4214 106.133 25.1152 105.767 25.293 105.577C25.6483 105.198 25.8808 104.696 26.3125 104.271C26.5886 103.997 27.7477 103.018 28.0488 102.969C28.8827 102.833 30.157 103.831 30.1133 102.627C29.1618 102.041 29.5202 101.447 30.5127 101.371C30.7918 101.35 31.6414 101.821 31.5107 101.149C31.3494 100.32 31.1636 100.29 31.9072 99.6416C33.1402 98.5678 35.1169 97.4341 35.4014 95.6445C35.4369 95.4141 35.2016 95.2215 35.5186 94.9531C36.3169 94.2779 37.894 95.0664 38.3916 93.6699C38.4709 93.4503 38.4463 93.1356 38.5557 92.9512C38.6186 92.8454 38.8569 92.7883 38.9717 92.6338C39.3732 92.0832 39.0835 90.8335 39.1709 90.1611L38.5615 90.0088L39.1191 89.5586C39.3267 89.6426 39.2399 90.0244 39.2725 90.0576C39.3244 90.1119 39.8578 90.0332 39.959 89.9355C40.0385 89.855 40.234 89.2001 40.1855 89.1553H39.7285C39.5344 88.8109 40.0708 88.6075 40.2295 88.3418C40.3498 88.1385 40.355 87.8671 40.4697 87.6719C41.197 86.4489 42.4302 85.9171 43.3379 84.9707C43.6058 84.6914 43.756 84.3361 44.0977 84.0107C44.2917 83.8264 44.6309 83.6939 44.7568 83.5557C44.94 83.3523 44.9129 83.0536 45.0469 82.834C45.7523 81.6599 47.4198 80.4534 48.374 79.377C48.9755 78.6964 49.465 77.9071 50.0527 77.2129ZM47.9854 0C72.2842 1.13123 91.6377 21.188 91.6377 45.7666V110.906H62.749C63.428 110.409 63.8634 109.705 64.5977 109.181C65.6665 108.419 66.9378 108.08 67.9766 107.392C74.2649 103.21 80.7424 96.9481 85.6309 91.2236C87.438 89.1085 90.2399 86.0147 91.123 83.4658C91.3773 82.7337 91.6917 81.9826 91.6289 81.1963L91.6348 81.1904C91.4926 81.1796 91.3584 81.1902 91.2217 81.2363C90.8362 81.3719 88.4033 84.0919 87.9219 84.6182C82.2706 90.7873 77.1112 97.8434 69.9727 102.407C66.2571 104.783 62.4297 106.35 58.3916 108.062C56.579 108.829 52.9811 109.308 51.0508 108.988C49.2819 108.695 48.716 108.46 48.2539 106.719C47.8875 105.341 47.3264 102.261 47.3154 100.886C47.31 100.04 47.7477 98.9331 47.9062 98.0654C49.2624 90.5947 52.9266 81.6701 57.249 75.3682C59.2202 72.4913 61.178 70.7337 63.5264 68.2852C64.4858 67.2846 65.2292 66.0833 66.1641 65.0557C68.0751 62.9568 70.3718 61.2349 72.7285 59.6621L72.9502 59.6299C73.713 59.9905 74.4239 60.0558 74.957 60.7744C76.8786 63.3614 72.8762 67.1357 71.583 69.2236C71.4135 69.5599 71.3731 70.0757 71.6328 70.374C71.7726 70.5364 72.2416 70.6796 72.4658 70.7041C73.0973 70.7746 75.0087 70.7914 75.6104 70.6992C77.2945 70.4389 79.4707 66.0971 79.6895 64.5596C80.2854 60.3647 77.3085 57.5312 73.3525 56.9209C71.7834 56.6796 71.7937 56.994 70.5283 57.1865C68.8469 57.4441 68.0943 57.0377 66.3828 58.0166C62.7247 60.1156 57.8578 65.3436 55.3535 68.7549C54.0249 70.5662 53.0904 72.7115 51.625 74.333C50.5615 75.5126 49.3366 76.5809 48.2676 77.7578C46.4221 79.7916 44.7673 82.0095 42.8809 84.0107C41.3006 85.692 39.4257 87.2436 37.8975 88.9492C34.696 92.5205 31.8002 95.4244 28.041 98.4316C27.2563 99.058 26.6081 99.8472 25.8535 100.498C23.2809 102.708 19.9129 105.255 16.9355 106.879C15.6123 107.6 14.1849 108.647 13.3701 106.824C12.5583 105.004 12.7682 100.744 12.9404 98.6836C13.0171 97.7673 13.4496 96.9052 13.5371 95.9482C13.6574 94.6385 13.5479 93.6317 13.9307 92.3057C14.286 91.0776 14.521 90.3237 14.7998 89.0332C15.2919 86.7581 16.0161 85.1254 16.6504 83.0049C17.7549 79.3143 18.5732 75.4827 19.8555 71.8652C21.9743 65.8861 23.7152 59.7791 25.8477 53.8135C28.5325 46.3075 31.683 38.9531 34.417 31.458C35.2481 29.1748 36.1558 26.9319 37.0088 24.6514C38.9035 19.5723 40.8413 14.4411 43.25 9.56543C44.2233 7.59137 45.399 6.17858 46.4707 4.3916C46.8665 3.73277 47.6789 1.32218 47.9854 0ZM8.88867 99.9854H8.8916L8.58301 100.04C8.38895 99.7039 8.60436 99.3915 8.98145 99.3398L8.88867 99.9854ZM37.0908 91.4736C37.2136 91.4086 37.2818 91.3355 37.4482 91.376C37.4018 91.7013 37.5632 92.2946 37.3477 92.5361L37.1641 92.6699C36.8562 92.8839 36.271 93.273 36.1992 93.3096C35.8958 93.4641 35.5509 93.5183 35.2119 93.4912C34.9774 93.282 36.8229 91.6119 37.0908 91.4736ZM47.4385 87.3135C47.2581 87.7933 46.873 86.7859 47.4111 86.8369L47.4385 87.3135ZM47.7207 85.2256C47.9665 85.1797 48.0021 85.4263 48.125 85.5781H48.1221L47.9717 85.7275L47.7314 85.5645L47.7207 85.2256ZM48.4287 83.3086C48.5244 83.2463 48.7645 83.3306 48.8301 83.458L48.4775 84.1113C48.2126 84.0297 48.3713 83.3436 48.4287 83.3057V83.3086ZM50.46 79.9814C50.4846 80.3584 50.4815 80.9518 49.9512 80.8867C49.9293 80.461 49.9187 79.9815 50.46 79.9814ZM51.2666 77.9229C51.286 77.8229 51.5444 77.8499 51.5752 77.8662C51.7801 77.999 51.5594 78.5652 51.3271 78.666C51.0565 78.4708 51.19 78.164 51.2666 77.9199V77.9229ZM53.3086 74.5361C53.2813 74.8588 53.4396 75.0921 53.3467 75.4229C53.2236 75.8648 52.6884 76.2196 52.5381 75.6475C52.454 75.3272 53.1908 74.3957 53.3086 74.5361ZM35.2891 13.8584C36.1035 13.6905 35.9966 14.6499 35.4443 14.7285C34.843 14.815 34.6439 13.9913 35.2891 13.8584ZM36.7402 11.8223C36.5762 11.1226 36.4427 10.2845 37.457 10.5557C37.7604 11.117 37.4155 11.8412 36.7402 11.8223Z" fill="#778059"/>
<path d="M2.24219 134.906H15.1211C16.1055 134.906 17.0124 135.007 17.8418 135.207C18.6803 135.408 19.3913 135.672 19.9746 136C20.5671 136.328 21.0911 136.72 21.5469 137.176C22.0117 137.622 22.3854 138.087 22.668 138.57C22.9505 139.044 23.1829 139.55 23.3652 140.088C23.5566 140.617 23.6842 141.109 23.748 141.564C23.821 142.02 23.8574 142.462 23.8574 142.891C23.8574 143.319 23.821 143.761 23.748 144.217C23.6842 144.673 23.5566 145.165 23.3652 145.693C23.1829 146.222 22.9505 146.728 22.668 147.211C22.3854 147.685 22.0117 148.15 21.5469 148.605C21.0911 149.052 20.5671 149.439 19.9746 149.768C19.3913 150.096 18.6803 150.36 17.8418 150.561C17.0124 150.761 16.1055 150.861 15.1211 150.861H4.48438V162.906H2.24219V134.906ZM4.48438 148.906C4.48438 149.326 4.61198 149.663 4.86719 149.918C5.1224 150.173 5.45964 150.301 5.87891 150.301H12.6602C15.4219 150.301 17.5319 149.649 18.9902 148.346C20.4577 147.033 21.1914 145.215 21.1914 142.891C21.1914 140.566 20.4577 138.743 18.9902 137.422C17.5319 136.1 15.4219 135.439 12.6602 135.439C11.8398 135.439 10.5957 135.444 8.92773 135.453C7.25977 135.462 6.27083 135.467 5.96094 135.467C5.43229 135.467 5.05404 135.604 4.82617 135.877C4.59831 136.141 4.48438 136.638 4.48438 137.367V148.906ZM27.6172 162.906V134.906H40.4961C41.4805 134.906 42.3874 135.007 43.2168 135.207C44.0553 135.408 44.7663 135.672 45.3496 136C45.9421 136.328 46.4661 136.72 46.9219 137.176C47.3867 137.622 47.7604 138.087 48.043 138.57C48.3255 139.044 48.5579 139.55 48.7402 140.088C48.9316 140.617 49.0592 141.109 49.123 141.564C49.196 142.02 49.2324 142.462 49.2324 142.891C49.2324 143.319 49.196 143.761 49.123 144.217C49.0592 144.663 48.9316 145.151 48.7402 145.68C48.5579 146.208 48.3255 146.71 48.043 147.184C47.7604 147.658 47.3867 148.122 46.9219 148.578C46.4661 149.025 45.9421 149.412 45.3496 149.74C44.7663 150.068 44.0553 150.337 43.2168 150.547C42.3874 150.747 41.4805 150.852 40.4961 150.861H39.6895C39.4798 150.861 39.3294 150.88 39.2383 150.916C39.1471 150.943 39.1107 150.993 39.1289 151.066C39.1471 151.13 39.1973 151.208 39.2793 151.299C39.3704 151.39 39.5072 151.508 39.6895 151.654C40.1543 152.019 40.6647 152.511 41.2207 153.131C41.7767 153.751 42.2598 154.329 42.6699 154.867C43.0892 155.405 43.6908 156.198 44.4746 157.246C44.5202 157.31 44.5566 157.365 44.584 157.41C44.6204 157.447 44.6615 157.497 44.707 157.561C44.7526 157.615 44.7936 157.67 44.8301 157.725C45.6413 158.818 46.5345 159.844 47.5098 160.801C48.485 161.749 49.319 162.451 50.0117 162.906H46.8535C46.3249 162.587 45.7507 162.118 45.1309 161.498C44.5111 160.869 43.9186 160.195 43.3535 159.475C42.7884 158.745 42.2051 157.98 41.6035 157.178C41.002 156.367 40.4141 155.592 39.8398 154.854C39.2656 154.115 38.7051 153.445 38.1582 152.844C37.6204 152.242 37.0781 151.764 36.5312 151.408C35.9935 151.044 35.4967 150.861 35.041 150.861H32.5391V150.301H38.0352C40.7969 150.301 42.9069 149.649 44.3652 148.346C45.8327 147.033 46.5664 145.215 46.5664 142.891C46.5664 140.566 45.8327 138.748 44.3652 137.436C42.9069 136.123 40.7969 135.467 38.0352 135.467H31.3086C30.7617 135.467 30.3789 135.581 30.1602 135.809C29.9414 136.036 29.832 136.51 29.832 137.23L29.8594 162.906H27.6172ZM52.8281 134.906H65.707C66.6914 134.906 67.5983 135.007 68.4277 135.207C69.2663 135.408 69.9772 135.672 70.5605 136C71.153 136.328 71.6771 136.72 72.1328 137.176C72.5977 137.622 72.9714 138.087 73.2539 138.57C73.5365 139.044 73.7689 139.55 73.9512 140.088C74.1426 140.617 74.2702 141.109 74.334 141.564C74.4069 142.02 74.4434 142.462 74.4434 142.891C74.4434 143.319 74.4069 143.761 74.334 144.217C74.2702 144.673 74.1426 145.165 73.9512 145.693C73.7689 146.222 73.5365 146.728 73.2539 147.211C72.9714 147.685 72.5977 148.15 72.1328 148.605C71.6771 149.052 71.153 149.439 70.5605 149.768C69.9772 150.096 69.2663 150.36 68.4277 150.561C67.5983 150.761 66.6914 150.861 65.707 150.861H55.0703V162.906H52.8281V134.906ZM55.0703 148.906C55.0703 149.326 55.1979 149.663 55.4531 149.918C55.7083 150.173 56.0456 150.301 56.4648 150.301H63.2461C66.0078 150.301 68.1178 149.649 69.5762 148.346C71.0436 147.033 71.7773 145.215 71.7773 142.891C71.7773 140.566 71.0436 138.743 69.5762 137.422C68.1178 136.1 66.0078 135.439 63.2461 135.439C62.4258 135.439 61.1816 135.444 59.5137 135.453C57.8457 135.462 56.8568 135.467 56.5469 135.467C56.0182 135.467 55.64 135.604 55.4121 135.877C55.1842 136.141 55.0703 136.638 55.0703 137.367V148.906ZM86.5977 162.906V134.906H88.8398V162.906H86.5977ZM93.3242 162.906V134.906H95.6211C100.807 142.262 106.759 150.679 113.477 160.158C113.677 160.441 113.855 160.582 114.01 160.582C114.229 160.582 114.324 160.34 114.297 159.857L112.615 134.906H114.967V162.906H112.725C111.503 161.184 108.878 157.492 104.85 151.832C100.83 146.163 97.4805 141.437 94.8008 137.654C94.6003 137.372 94.4225 137.23 94.2676 137.23C94.0579 137.23 93.9668 137.472 93.9941 137.955L95.6758 162.906H93.3242ZM111.303 166.488L111.645 165.955C112.419 166.611 113.549 166.939 115.035 166.939C115.865 166.939 116.589 166.789 117.209 166.488C117.838 166.188 118.33 165.782 118.686 165.271C119.041 164.761 119.305 164.21 119.479 163.617C119.652 163.025 119.738 162.396 119.738 161.73V134.906H121.98V160.979C121.98 161.535 121.908 162.1 121.762 162.674C121.616 163.248 121.37 163.827 121.023 164.41C120.686 164.993 120.267 165.508 119.766 165.955C119.264 166.411 118.622 166.78 117.838 167.062C117.063 167.354 116.202 167.5 115.254 167.5C113.622 167.5 112.305 167.163 111.303 166.488ZM126.465 162.906V134.906H145.865V137.395C144.425 136.911 142.078 136.469 138.824 136.068C135.579 135.667 132.69 135.467 130.156 135.467C129.628 135.467 129.249 135.604 129.021 135.877C128.794 136.141 128.68 136.638 128.68 137.367V146.213C128.68 146.632 128.807 146.974 129.062 147.238C129.318 147.493 129.655 147.621 130.074 147.621H143.117V149.973C141.44 149.562 139.234 149.18 136.5 148.824C133.766 148.469 131.633 148.291 130.102 148.291C129.673 148.291 129.331 148.396 129.076 148.605C128.83 148.815 128.707 149.12 128.707 149.521L128.68 160.445C128.68 161.174 128.794 161.676 129.021 161.949C129.249 162.214 129.628 162.346 130.156 162.346C132.69 162.346 135.579 162.145 138.824 161.744C142.078 161.343 144.425 160.901 145.865 160.418V162.906H126.465ZM148.531 153.773C148.057 152.242 147.82 150.62 147.82 148.906C147.82 147.193 148.057 145.575 148.531 144.053C149.005 142.521 149.671 141.173 150.527 140.006C151.384 138.83 152.387 137.818 153.535 136.971C154.693 136.114 155.973 135.462 157.377 135.016C158.79 134.569 160.262 134.346 161.793 134.346C163.087 134.346 164.35 134.464 165.58 134.701C166.82 134.938 167.945 135.275 168.957 135.713C169.978 136.15 170.798 136.725 171.418 137.436C172.038 138.146 172.348 138.935 172.348 139.801C172.348 140.102 172.302 140.361 172.211 140.58C172.129 140.79 172.024 140.945 171.896 141.045C171.778 141.136 171.655 141.209 171.527 141.264C171.409 141.309 171.309 141.332 171.227 141.332L171.09 141.346C170.98 140.571 170.657 139.796 170.119 139.021C169.581 138.247 168.902 137.559 168.082 136.957C167.271 136.346 166.309 135.854 165.197 135.48C164.085 135.098 162.951 134.906 161.793 134.906C160.189 134.906 158.667 135.248 157.227 135.932C155.796 136.606 154.551 137.545 153.494 138.748C152.437 139.951 151.598 141.432 150.979 143.191C150.368 144.951 150.062 146.855 150.062 148.906C150.062 150.957 150.368 152.862 150.979 154.621C151.598 156.38 152.437 157.861 153.494 159.064C154.551 160.268 155.796 161.211 157.227 161.895C158.667 162.569 160.189 162.906 161.793 162.906C162.85 162.906 163.921 162.733 165.006 162.387C166.1 162.04 167.107 161.576 168.027 160.992C168.948 160.4 169.791 159.748 170.557 159.037C171.331 158.317 171.997 157.561 172.553 156.768V159.912C171.869 160.942 170.507 161.794 168.465 162.469C166.423 163.134 164.199 163.467 161.793 163.467C160.262 163.467 158.79 163.243 157.377 162.797C155.973 162.35 154.693 161.703 153.535 160.855C152.387 159.999 151.384 158.987 150.527 157.82C149.671 156.645 149.005 155.296 148.531 153.773ZM174.494 134.906H196.055V137.395C195.007 136.939 193.539 136.506 191.652 136.096C189.775 135.676 188.517 135.467 187.879 135.467C187.35 135.467 186.967 135.604 186.73 135.877C186.503 136.141 186.389 136.638 186.389 137.367V162.906H184.146V137.367C184.146 136.638 184.033 136.141 183.805 135.877C183.577 135.604 183.199 135.467 182.67 135.467C182.032 135.467 180.77 135.676 178.883 136.096C177.005 136.506 175.542 136.939 174.494 137.395V134.906ZM199.965 162.906V134.906H202.207V162.906H199.965ZM219.816 163.467C218.285 163.467 216.813 163.243 215.4 162.797C213.997 162.35 212.716 161.703 211.559 160.855C210.41 159.999 209.408 158.987 208.551 157.82C207.694 156.645 207.029 155.296 206.555 153.773C206.081 152.242 205.844 150.62 205.844 148.906C205.844 147.193 206.081 145.575 206.555 144.053C207.029 142.521 207.694 141.173 208.551 140.006C209.408 138.83 210.41 137.818 211.559 136.971C212.716 136.114 213.997 135.462 215.4 135.016C216.813 134.569 218.285 134.346 219.816 134.346C221.73 134.346 223.54 134.701 225.244 135.412C226.958 136.114 228.443 137.089 229.701 138.338C230.968 139.587 231.971 141.127 232.709 142.959C233.447 144.791 233.816 146.773 233.816 148.906C233.816 151.039 233.447 153.021 232.709 154.854C231.971 156.686 230.968 158.226 229.701 159.475C228.443 160.723 226.958 161.703 225.244 162.414C223.54 163.116 221.73 163.467 219.816 163.467ZM209.002 143.191C208.391 144.951 208.086 146.855 208.086 148.906C208.086 150.957 208.391 152.862 209.002 154.621C209.622 156.38 210.46 157.861 211.518 159.064C212.575 160.268 213.819 161.211 215.25 161.895C216.69 162.569 218.212 162.906 219.816 162.906C221.421 162.906 222.943 162.569 224.383 161.895C225.823 161.211 227.072 160.268 228.129 159.064C229.195 157.861 230.038 156.38 230.658 154.621C231.278 152.862 231.588 150.957 231.588 148.906C231.588 146.855 231.278 144.951 230.658 143.191C230.038 141.432 229.195 139.951 228.129 138.748C227.072 137.545 225.823 136.606 224.383 135.932C222.943 135.248 221.421 134.906 219.816 134.906C218.212 134.906 216.69 135.248 215.25 135.932C213.819 136.606 212.575 137.545 211.518 138.748C210.46 139.951 209.622 141.432 209.002 143.191ZM237.453 162.906V134.906H239.75C244.936 142.262 250.888 150.679 257.605 160.158C257.806 160.441 257.984 160.582 258.139 160.582C258.357 160.582 258.453 160.34 258.426 159.857L256.744 134.906H259.096V162.906H256.854C255.632 161.184 253.007 157.492 248.979 151.832C244.959 146.163 241.609 141.437 238.93 137.654C238.729 137.372 238.551 137.23 238.396 137.23C238.187 137.23 238.096 137.472 238.123 137.955L239.805 162.906H237.453ZM1.68164 173.906H23.2422V176.395C22.194 175.939 20.7266 175.506 18.8398 175.096C16.9622 174.676 15.7044 174.467 15.0664 174.467C14.5378 174.467 14.1549 174.604 13.918 174.877C13.6901 175.141 13.5762 175.638 13.5762 176.367V201.906H11.334V176.367C11.334 175.638 11.2201 175.141 10.9922 174.877C10.7643 174.604 10.3861 174.467 9.85742 174.467C9.2194 174.467 7.95703 174.676 6.07031 175.096C4.19271 175.506 2.72982 175.939 1.68164 176.395V173.906ZM29.3945 201.906H27.1523V173.906H29.3945V188.631C30.5703 187.264 32.0605 186.234 33.8652 185.541C35.679 184.839 37.584 184.488 39.5801 184.488C42.2324 184.488 44.5293 185.04 46.4707 186.143V173.906H48.7129V201.906H46.4707V188.412C46.4707 187.41 45.9922 186.648 45.0352 186.129C44.0872 185.6 42.8568 185.336 41.3438 185.336C40.4961 185.336 39.6165 185.423 38.7051 185.596C37.8027 185.769 36.9049 186.02 36.0117 186.348C35.1276 186.667 34.2845 187.081 33.4824 187.592C32.6895 188.093 31.9876 188.658 31.377 189.287C30.7663 189.907 30.2832 190.627 29.9277 191.447C29.5723 192.268 29.3945 193.133 29.3945 194.045V201.906ZM53.1836 201.906V173.906H72.584V176.395C71.1439 175.911 68.7969 175.469 65.543 175.068C62.2982 174.667 59.4089 174.467 56.875 174.467C56.3464 174.467 55.9681 174.604 55.7402 174.877C55.5124 175.141 55.3984 175.638 55.3984 176.367V185.213C55.3984 185.632 55.526 185.974 55.7812 186.238C56.0365 186.493 56.3737 186.621 56.793 186.621H69.8359V188.973C68.1589 188.562 65.9531 188.18 63.2188 187.824C60.4844 187.469 58.3516 187.291 56.8203 187.291C56.3919 187.291 56.0501 187.396 55.7949 187.605C55.5488 187.815 55.4258 188.12 55.4258 188.521L55.3984 199.445C55.3984 200.174 55.5124 200.676 55.7402 200.949C55.9681 201.214 56.3464 201.346 56.875 201.346C59.4089 201.346 62.2982 201.145 65.543 200.744C68.7969 200.343 71.1439 199.901 72.584 199.418V201.906H53.1836ZM76.5078 201.906V173.906H89.3867C90.3711 173.906 91.278 174.007 92.1074 174.207C92.946 174.408 93.6569 174.672 94.2402 175C94.8327 175.328 95.3568 175.72 95.8125 176.176C96.2773 176.622 96.651 177.087 96.9336 177.57C97.2161 178.044 97.4486 178.55 97.6309 179.088C97.8223 179.617 97.9499 180.109 98.0137 180.564C98.0866 181.02 98.123 181.462 98.123 181.891C98.123 182.319 98.0866 182.761 98.0137 183.217C97.9499 183.663 97.8223 184.151 97.6309 184.68C97.4486 185.208 97.2161 185.71 96.9336 186.184C96.651 186.658 96.2773 187.122 95.8125 187.578C95.3568 188.025 94.8327 188.412 94.2402 188.74C93.6569 189.068 92.946 189.337 92.1074 189.547C91.278 189.747 90.3711 189.852 89.3867 189.861H88.5801C88.3704 189.861 88.2201 189.88 88.1289 189.916C88.0378 189.943 88.0013 189.993 88.0195 190.066C88.0378 190.13 88.0879 190.208 88.1699 190.299C88.2611 190.39 88.3978 190.508 88.5801 190.654C89.0449 191.019 89.5553 191.511 90.1113 192.131C90.6673 192.751 91.1504 193.329 91.5605 193.867C91.9798 194.405 92.5814 195.198 93.3652 196.246C93.4108 196.31 93.4473 196.365 93.4746 196.41C93.5111 196.447 93.5521 196.497 93.5977 196.561C93.6432 196.615 93.6842 196.67 93.7207 196.725C94.5319 197.818 95.4251 198.844 96.4004 199.801C97.3757 200.749 98.2096 201.451 98.9023 201.906H95.7441C95.2155 201.587 94.6413 201.118 94.0215 200.498C93.4017 199.869 92.8092 199.195 92.2441 198.475C91.679 197.745 91.0957 196.98 90.4941 196.178C89.8926 195.367 89.3047 194.592 88.7305 193.854C88.1562 193.115 87.5957 192.445 87.0488 191.844C86.5111 191.242 85.9688 190.764 85.4219 190.408C84.8841 190.044 84.3874 189.861 83.9316 189.861H81.4297V189.301H86.9258C89.6875 189.301 91.7975 188.649 93.2559 187.346C94.7233 186.033 95.457 184.215 95.457 181.891C95.457 179.566 94.7233 177.748 93.2559 176.436C91.7975 175.123 89.6875 174.467 86.9258 174.467H80.1992C79.6523 174.467 79.2695 174.581 79.0508 174.809C78.832 175.036 78.7227 175.51 78.7227 176.23L78.75 201.906H76.5078ZM102.498 201.906H100.037L109.58 175.219L108.992 173.906H111.467L123.949 201.906H121.488L119.438 197.34C119 196.355 118.28 195.48 117.277 194.715C116.284 193.94 115.208 193.361 114.051 192.979C112.893 192.587 111.777 192.391 110.701 192.391C108.851 192.391 107.124 192.969 105.52 194.127C105.219 194.346 104.918 194.71 104.617 195.221C104.326 195.722 104.116 196.205 103.988 196.67L102.498 201.906ZM105.547 191.297C105.41 191.798 105.46 192.049 105.697 192.049C105.816 192.049 106.021 191.976 106.312 191.83C107.406 191.229 108.591 190.928 109.867 190.928C111.134 190.928 112.41 191.201 113.695 191.748C114.99 192.286 116.197 193.01 117.318 193.922C117.637 194.186 117.838 194.286 117.92 194.223C118.002 194.159 117.956 193.94 117.783 193.566L110.564 177.379C110.4 176.987 110.223 176.791 110.031 176.791C109.831 176.791 109.662 177.014 109.525 177.461L105.547 191.297ZM126.273 173.906H139.152C140.137 173.906 141.044 174.007 141.873 174.207C142.712 174.408 143.423 174.672 144.006 175C144.598 175.328 145.122 175.72 145.578 176.176C146.043 176.622 146.417 177.087 146.699 177.57C146.982 178.044 147.214 178.55 147.396 179.088C147.588 179.617 147.715 180.109 147.779 180.564C147.852 181.02 147.889 181.462 147.889 181.891C147.889 182.319 147.852 182.761 147.779 183.217C147.715 183.673 147.588 184.165 147.396 184.693C147.214 185.222 146.982 185.728 146.699 186.211C146.417 186.685 146.043 187.15 145.578 187.605C145.122 188.052 144.598 188.439 144.006 188.768C143.423 189.096 142.712 189.36 141.873 189.561C141.044 189.761 140.137 189.861 139.152 189.861H128.516V201.906H126.273V173.906ZM128.516 187.906C128.516 188.326 128.643 188.663 128.898 188.918C129.154 189.173 129.491 189.301 129.91 189.301H136.691C139.453 189.301 141.563 188.649 143.021 187.346C144.489 186.033 145.223 184.215 145.223 181.891C145.223 179.566 144.489 177.743 143.021 176.422C141.563 175.1 139.453 174.439 136.691 174.439C135.871 174.439 134.627 174.444 132.959 174.453C131.291 174.462 130.302 174.467 129.992 174.467C129.464 174.467 129.085 174.604 128.857 174.877C128.63 175.141 128.516 175.638 128.516 176.367V187.906ZM157.732 187.715L148.094 173.906H150.473L159.688 187.291C159.906 187.628 160.13 187.797 160.357 187.797C160.631 187.797 160.872 187.61 161.082 187.236L168.697 173.906H171.117L161.479 187.715C161.251 188.043 161.068 188.444 160.932 188.918C160.795 189.392 160.727 189.848 160.727 190.285V201.906H158.484V190.285C158.484 189.848 158.416 189.392 158.279 188.918C158.143 188.444 157.96 188.043 157.732 187.715Z" fill="#383637"/>
<path d="M1.808 237.906V226.706H2.784V237.906H1.808ZM6.24175 237.906V229.634H7.02575L7.10575 231.234C7.76175 230.05 8.91375 229.426 10.2418 229.426C12.4018 229.426 13.7298 230.946 13.7298 233.33V237.906H12.8018V233.41C12.8018 231.506 11.7778 230.322 10.1298 230.322C8.38575 230.322 7.16975 231.65 7.16975 233.618V237.906H6.24175ZM17.4793 228.674C17.4793 226.786 18.4073 225.858 20.2473 225.858H21.5433V226.738H20.3273C18.9833 226.738 18.4073 227.33 18.4073 228.738V229.634H21.4633V230.482H18.4073V237.906H17.4793V230.482H15.5913V229.634H17.4793V228.674ZM26.7175 238.114C24.1575 238.114 22.3655 236.322 22.3655 233.762C22.3655 231.218 24.1575 229.426 26.7175 229.426C29.2615 229.426 31.0535 231.218 31.0535 233.762C31.0535 236.322 29.2615 238.114 26.7175 238.114ZM23.2935 233.762C23.2935 235.81 24.6855 237.218 26.7175 237.218C28.7335 237.218 30.1255 235.81 30.1255 233.762C30.1255 231.73 28.7335 230.322 26.7175 230.322C24.6855 230.322 23.2935 231.73 23.2935 233.762ZM33.6324 237.906V229.634H34.4164L34.5124 231.49C35.0724 230.242 36.0164 229.634 37.5524 229.634H38.2404V230.498H37.5204C35.7444 230.498 34.5604 231.586 34.5604 234.098V237.906H33.6324ZM40.5699 237.906V229.634H41.3539L41.4339 230.978C42.0099 229.97 43.0179 229.426 44.2979 229.426C45.7379 229.426 46.8419 230.146 47.3219 231.41C47.8819 230.146 49.0179 229.426 50.4739 229.426C52.5539 229.426 53.8979 230.85 53.8979 233.154V237.906H52.9699V233.298C52.9699 231.458 51.9459 230.322 50.3619 230.322C48.7459 230.322 47.6899 231.49 47.6899 233.362V237.906H46.7619V233.298C46.7619 231.458 45.7539 230.322 44.1699 230.322C42.5539 230.322 41.4979 231.49 41.4979 233.362V237.906H40.5699ZM60.5114 238.114C57.9994 238.114 56.2874 236.338 56.2874 233.762C56.2874 231.202 58.0154 229.426 60.5274 229.426C63.1354 229.426 64.8154 231.346 64.7514 234.146H57.2314C57.3914 236.018 58.6714 237.234 60.5114 237.234C61.8554 237.234 62.9274 236.61 63.4714 235.538L64.5114 235.554C63.8714 237.138 62.3674 238.114 60.5114 238.114ZM57.2314 233.33H63.8394C63.6154 231.458 62.3354 230.306 60.5274 230.306C58.6874 230.306 57.3914 231.506 57.2314 233.33ZM70.8086 238.114C68.3126 238.114 66.5686 236.274 66.5686 233.762C66.5686 231.25 68.3126 229.426 70.8086 229.426C72.3286 229.426 73.5606 230.098 74.2966 231.17V226.066H75.2246V237.906H74.4566L74.3446 236.274C73.6246 237.41 72.3606 238.114 70.8086 238.114ZM67.4966 233.762C67.4966 235.794 68.8886 237.218 70.9206 237.218C72.9366 237.218 74.3286 235.794 74.3286 233.762C74.3286 231.746 72.9366 230.322 70.9206 230.322C68.8886 230.322 67.4966 231.746 67.4966 233.762ZM87.4071 238.114C84.1111 238.114 81.7271 235.714 81.7271 232.306C81.7271 228.898 84.1111 226.498 87.4071 226.498C89.9671 226.498 92.0631 227.986 92.7991 230.338H91.7751C91.1351 228.562 89.4711 227.474 87.4231 227.474C84.6871 227.474 82.7191 229.442 82.7191 232.306C82.7191 235.17 84.6871 237.138 87.4231 237.138C89.5191 237.138 91.2471 236.002 91.8711 234.146H92.8951C92.2071 236.562 90.0471 238.114 87.4071 238.114ZM99.03 238.114C96.47 238.114 94.678 236.322 94.678 233.762C94.678 231.218 96.47 229.426 99.03 229.426C101.574 229.426 103.366 231.218 103.366 233.762C103.366 236.322 101.574 238.114 99.03 238.114ZM95.606 233.762C95.606 235.81 96.998 237.218 99.03 237.218C101.046 237.218 102.438 235.81 102.438 233.762C102.438 231.73 101.046 230.322 99.03 230.322C96.998 230.322 95.606 231.73 95.606 233.762ZM105.945 237.906V229.634H106.729L106.809 231.234C107.465 230.05 108.617 229.426 109.945 229.426C112.105 229.426 113.433 230.946 113.433 233.33V237.906H112.505V233.41C112.505 231.506 111.481 230.322 109.833 230.322C108.089 230.322 106.873 231.65 106.873 233.618V237.906H105.945ZM119.402 238.114C117.306 238.114 115.978 237.058 115.914 235.41H116.826C116.922 236.578 117.834 237.266 119.418 237.266C120.874 237.266 121.754 236.706 121.754 235.794C121.754 234.93 120.97 234.402 119.21 234.098C117.05 233.73 116.074 232.962 116.074 231.698C116.074 230.29 117.274 229.426 119.21 229.426C121.162 229.426 122.394 230.354 122.522 231.938H121.594C121.498 230.85 120.65 230.258 119.21 230.258C117.834 230.258 117.002 230.818 117.002 231.714C117.002 232.53 117.69 232.978 119.53 233.33C121.626 233.73 122.666 234.562 122.666 235.81C122.666 237.202 121.402 238.114 119.402 238.114ZM128.855 238.114C126.343 238.114 124.631 236.338 124.631 233.762C124.631 231.202 126.359 229.426 128.871 229.426C131.479 229.426 133.159 231.346 133.095 234.146H125.575C125.735 236.018 127.015 237.234 128.855 237.234C130.199 237.234 131.271 236.61 131.815 235.538L132.855 235.554C132.215 237.138 130.711 238.114 128.855 238.114ZM125.575 233.33H132.183C131.959 231.458 130.679 230.306 128.871 230.306C127.031 230.306 125.735 231.506 125.575 233.33ZM135.632 237.906V229.634H136.416L136.496 231.234C137.152 230.05 138.304 229.426 139.632 229.426C141.792 229.426 143.12 230.946 143.12 233.33V237.906H142.192V233.41C142.192 231.506 141.168 230.322 139.52 230.322C137.776 230.322 136.56 231.65 136.56 233.618V237.906H135.632ZM149.336 237.906C147.576 237.906 146.632 236.914 146.632 235.042V230.482H144.824V229.634H145.88C146.504 229.634 146.68 229.474 146.744 228.866L146.824 227.602H147.56V229.634H150.424V230.482H147.56V235.01C147.56 236.37 148.12 237.01 149.368 237.01H150.536V237.906H149.336ZM160.196 237.906C158.436 237.906 157.492 236.914 157.492 235.042V230.482H155.684V229.634H156.74C157.364 229.634 157.539 229.474 157.604 228.866L157.684 227.602H158.42V229.634H161.284V230.482H158.42V235.01C158.42 236.37 158.98 237.01 160.228 237.01H161.396V237.906H160.196ZM167.108 238.114C164.548 238.114 162.756 236.322 162.756 233.762C162.756 231.218 164.548 229.426 167.108 229.426C169.652 229.426 171.444 231.218 171.444 233.762C171.444 236.322 169.652 238.114 167.108 238.114ZM163.684 233.762C163.684 235.81 165.076 237.218 167.108 237.218C169.124 237.218 170.516 235.81 170.516 233.762C170.516 231.73 169.124 230.322 167.108 230.322C165.076 230.322 163.684 231.73 163.684 233.762ZM179.902 237.906V227.634H176.046V226.706H184.734V227.634H180.862V237.906H179.902ZM185.242 237.906V229.634H186.026L186.122 231.49C186.682 230.242 187.626 229.634 189.162 229.634H189.85V230.498H189.13C187.354 230.498 186.17 231.586 186.17 234.098V237.906H185.242ZM195.043 238.114C192.531 238.114 190.819 236.338 190.819 233.762C190.819 231.202 192.547 229.426 195.059 229.426C197.667 229.426 199.347 231.346 199.283 234.146H191.763C191.923 236.018 193.203 237.234 195.043 237.234C196.387 237.234 197.459 236.61 198.003 235.538L199.043 235.554C198.403 237.138 196.899 238.114 195.043 238.114ZM191.763 233.33H198.371C198.147 231.458 196.867 230.306 195.059 230.306C193.219 230.306 191.923 231.506 191.763 233.33ZM204.303 238.034C202.383 238.034 201.183 237.09 201.183 235.57C201.183 234.098 202.303 233.17 203.999 233.17H207.647V232.578C207.647 231.202 206.639 230.29 205.103 230.29C203.855 230.29 202.879 230.93 202.543 231.922H201.599C201.999 230.386 203.327 229.426 205.087 229.426C207.151 229.426 208.575 230.69 208.575 232.53V237.906H207.807L207.711 236.482C206.991 237.474 205.775 238.034 204.303 238.034ZM202.111 235.554C202.111 236.562 202.959 237.202 204.335 237.202C206.255 237.202 207.663 236.002 207.663 234.338V233.986H204.031C202.895 233.986 202.111 234.61 202.111 235.554ZM214.789 237.906C213.029 237.906 212.085 236.914 212.085 235.042V230.482H210.277V229.634H211.333C211.957 229.634 212.133 229.474 212.197 228.866L212.277 227.602H213.013V229.634H215.877V230.482H213.013V235.01C213.013 236.37 213.573 237.01 214.821 237.01H215.989V237.906H214.789ZM218.476 237.906V229.634H219.26L219.34 230.978C219.916 229.97 220.924 229.426 222.204 229.426C223.644 229.426 224.748 230.146 225.228 231.41C225.788 230.146 226.924 229.426 228.38 229.426C230.46 229.426 231.804 230.85 231.804 233.154V237.906H230.876V233.298C230.876 231.458 229.852 230.322 228.268 230.322C226.652 230.322 225.596 231.49 225.596 233.362V237.906H224.668V233.298C224.668 231.458 223.66 230.322 222.076 230.322C220.46 230.322 219.404 231.49 219.404 233.362V237.906H218.476ZM238.418 238.114C235.906 238.114 234.194 236.338 234.194 233.762C234.194 231.202 235.922 229.426 238.434 229.426C241.042 229.426 242.722 231.346 242.658 234.146H235.138C235.298 236.018 236.578 237.234 238.418 237.234C239.762 237.234 240.834 236.61 241.378 235.538L242.418 235.554C241.778 237.138 240.274 238.114 238.418 238.114ZM235.138 233.33H241.746C241.522 231.458 240.242 230.306 238.434 230.306C236.594 230.306 235.298 231.506 235.138 233.33ZM245.195 237.906V229.634H245.979L246.059 231.234C246.715 230.05 247.867 229.426 249.195 229.426C251.355 229.426 252.683 230.946 252.683 233.33V237.906H251.755V233.41C251.755 231.506 250.731 230.322 249.083 230.322C247.339 230.322 246.123 231.65 246.123 233.618V237.906H245.195ZM258.899 237.906C257.139 237.906 256.195 236.914 256.195 235.042V230.482H254.387V229.634H255.443C256.067 229.634 256.243 229.474 256.307 228.866L256.387 227.602H257.123V229.634H259.987V230.482H257.123V235.01C257.123 236.37 257.683 237.01 258.931 237.01H260.099V237.906H258.899Z" fill="#5B5852"/>
</svg>
