<svg width="366" height="283" viewBox="0 0 366 283" fill="none" xmlns="http://www.w3.org/2000/svg">
<path d="M39.9453 0.321289C39.6338 1.16044 39.3391 1.99171 39.0156 2.74316C37.3342 6.65348 35.4723 10.4771 33.9385 14.4443C32.7574 17.4977 31.6991 20.6355 30.6328 23.7188C31.3354 23.7132 31.259 22.7499 31.4941 22.2021C31.6174 21.9172 32.0982 21.1689 32.3633 21.0469C32.7734 20.8598 33.5277 21.1803 33.4648 21.625C32.642 23.5828 32.2598 25.6845 31.5244 27.6748C30.9011 29.3615 30.3349 31.0402 29.7197 32.7432C27.8688 37.8601 25.5552 42.9445 23.8164 48.0615C21.3449 55.337 19.42 62.8133 16.6504 69.9912C15.4803 73.0229 14.8241 76.0493 13.8535 79.1162C13.2794 80.9276 12.3035 83.3685 12.041 85.1826C11.9864 85.5649 12.0908 85.9961 12.0088 86.3594C11.954 86.5953 11.5984 87.029 11.4727 87.3408C10.7727 89.0872 10.0205 92.7534 9.71973 94.6787C9.63498 95.2237 9.64093 96.753 9.46875 97.0488C9.30749 97.3226 9.13502 97.2523 9.08301 96.9678C8.99552 96.477 9.04434 95.0989 9.07715 94.543C9.17013 93.0326 9.56976 91.4976 9.78027 89.998C9.94699 88.8106 9.85908 88.6555 10.3184 87.5059C10.7776 86.3535 10.9012 85.4557 11.1035 84.249C12.2136 77.5973 14.6663 71.7294 16.375 65.2783C16.6949 64.0662 17.2227 62.3848 17.3184 61.1699C17.3266 61.0587 17.3944 60.7961 17.2197 60.8203C15.0243 69.0448 11.8476 76.9819 9.62207 85.1982C8.86474 87.9995 8.15387 90.8419 7.86133 93.7354C7.81217 94.2153 7.91834 94.7605 7.85547 95.2432C7.78431 95.7935 7.47853 96.4821 7.38281 97.0947C7.0192 99.4647 7.0871 103.687 7.98926 105.916C8.77393 107.855 9.73689 107.977 11.1641 109.219C11.6341 109.628 12.2528 110.357 12.9062 110.906H0V45.7666C0 22.4516 17.4142 3.20438 39.9453 0.321289ZM50.0527 77.2129C50.1184 77.137 50.441 76.6321 50.5586 76.7568C47.7972 82.1179 45.3284 87.7611 44.1035 93.6943C42.9005 99.5164 43.056 103.598 45.9678 108.889C46.3353 109.556 46.9382 110.255 47.6699 110.906H16.7666C18.7844 110.166 21.1762 109.112 22.8105 108.159C23.1084 107.986 24.3901 107.129 24.4922 106.896C24.5441 106.776 24.2899 106.675 24.3418 106.461C24.4214 106.133 25.1152 105.767 25.293 105.577C25.6483 105.198 25.8808 104.696 26.3125 104.271C26.5886 103.997 27.7477 103.018 28.0488 102.969C28.8827 102.833 30.157 103.831 30.1133 102.627C29.1618 102.041 29.5202 101.447 30.5127 101.371C30.7918 101.35 31.6414 101.821 31.5107 101.149C31.3494 100.32 31.1636 100.29 31.9072 99.6416C33.1402 98.5678 35.1169 97.4341 35.4014 95.6445C35.4369 95.4141 35.2016 95.2215 35.5186 94.9531C36.3169 94.2779 37.894 95.0664 38.3916 93.6699C38.4709 93.4503 38.4463 93.1356 38.5557 92.9512C38.6186 92.8454 38.8569 92.7883 38.9717 92.6338C39.3732 92.0832 39.0835 90.8335 39.1709 90.1611L38.5615 90.0088L39.1191 89.5586C39.3267 89.6426 39.2399 90.0244 39.2725 90.0576C39.3244 90.1119 39.8578 90.0332 39.959 89.9355C40.0385 89.855 40.234 89.2001 40.1855 89.1553H39.7285C39.5344 88.8109 40.0708 88.6075 40.2295 88.3418C40.3498 88.1385 40.355 87.8671 40.4697 87.6719C41.197 86.4489 42.4302 85.9171 43.3379 84.9707C43.6058 84.6914 43.756 84.3361 44.0977 84.0107C44.2917 83.8264 44.6309 83.6939 44.7568 83.5557C44.94 83.3523 44.9129 83.0536 45.0469 82.834C45.7523 81.6599 47.4198 80.4534 48.374 79.377C48.9755 78.6964 49.465 77.9071 50.0527 77.2129ZM47.9854 0C72.2842 1.13123 91.6377 21.188 91.6377 45.7666V110.906H62.749C63.428 110.409 63.8634 109.705 64.5977 109.181C65.6665 108.419 66.9378 108.08 67.9766 107.392C74.2649 103.21 80.7424 96.9481 85.6309 91.2236C87.438 89.1085 90.2399 86.0147 91.123 83.4658C91.3773 82.7337 91.6917 81.9826 91.6289 81.1963L91.6348 81.1904C91.4926 81.1796 91.3584 81.1902 91.2217 81.2363C90.8362 81.3719 88.4033 84.0919 87.9219 84.6182C82.2706 90.7873 77.1112 97.8434 69.9727 102.407C66.2571 104.783 62.4297 106.35 58.3916 108.062C56.579 108.829 52.9811 109.308 51.0508 108.988C49.2819 108.695 48.716 108.46 48.2539 106.719C47.8875 105.341 47.3264 102.261 47.3154 100.886C47.31 100.04 47.7477 98.9331 47.9062 98.0654C49.2624 90.5947 52.9266 81.6701 57.249 75.3682C59.2202 72.4913 61.178 70.7337 63.5264 68.2852C64.4858 67.2846 65.2292 66.0833 66.1641 65.0557C68.0751 62.9568 70.3718 61.2349 72.7285 59.6621L72.9502 59.6299C73.713 59.9905 74.4239 60.0558 74.957 60.7744C76.8786 63.3614 72.8762 67.1357 71.583 69.2236C71.4135 69.5599 71.3731 70.0757 71.6328 70.374C71.7726 70.5364 72.2416 70.6796 72.4658 70.7041C73.0973 70.7746 75.0087 70.7914 75.6104 70.6992C77.2945 70.4389 79.4707 66.0971 79.6895 64.5596C80.2854 60.3647 77.3085 57.5312 73.3525 56.9209C71.7834 56.6796 71.7937 56.994 70.5283 57.1865C68.8469 57.4441 68.0943 57.0377 66.3828 58.0166C62.7247 60.1156 57.8578 65.3436 55.3535 68.7549C54.0249 70.5662 53.0904 72.7115 51.625 74.333C50.5615 75.5126 49.3366 76.5809 48.2676 77.7578C46.4221 79.7916 44.7673 82.0095 42.8809 84.0107C41.3006 85.692 39.4257 87.2436 37.8975 88.9492C34.696 92.5205 31.8002 95.4244 28.041 98.4316C27.2563 99.058 26.6081 99.8472 25.8535 100.498C23.2809 102.708 19.9129 105.255 16.9355 106.879C15.6123 107.6 14.1849 108.647 13.3701 106.824C12.5583 105.004 12.7682 100.744 12.9404 98.6836C13.0171 97.7673 13.4496 96.9052 13.5371 95.9482C13.6574 94.6385 13.5479 93.6317 13.9307 92.3057C14.286 91.0776 14.521 90.3237 14.7998 89.0332C15.2919 86.7581 16.0161 85.1254 16.6504 83.0049C17.7549 79.3143 18.5732 75.4827 19.8555 71.8652C21.9743 65.8861 23.7152 59.7791 25.8477 53.8135C28.5325 46.3075 31.683 38.9531 34.417 31.458C35.2481 29.1748 36.1558 26.9319 37.0088 24.6514C38.9035 19.5723 40.8413 14.4411 43.25 9.56543C44.2233 7.59137 45.399 6.17858 46.4707 4.3916C46.8665 3.73277 47.6789 1.32218 47.9854 0ZM8.88867 99.9854H8.8916L8.58301 100.04C8.38895 99.7039 8.60436 99.3915 8.98145 99.3398L8.88867 99.9854ZM37.0908 91.4736C37.2136 91.4086 37.2818 91.3355 37.4482 91.376C37.4018 91.7013 37.5632 92.2946 37.3477 92.5361L37.1641 92.6699C36.8562 92.8839 36.271 93.273 36.1992 93.3096C35.8958 93.4641 35.5509 93.5183 35.2119 93.4912C34.9774 93.282 36.8229 91.6119 37.0908 91.4736ZM47.4385 87.3135C47.2581 87.7933 46.873 86.7859 47.4111 86.8369L47.4385 87.3135ZM47.7207 85.2256C47.9665 85.1797 48.0021 85.4263 48.125 85.5781H48.1221L47.9717 85.7275L47.7314 85.5645L47.7207 85.2256ZM48.4287 83.3086C48.5244 83.2463 48.7645 83.3306 48.8301 83.458L48.4775 84.1113C48.2126 84.0297 48.3713 83.3436 48.4287 83.3057V83.3086ZM50.46 79.9814C50.4846 80.3584 50.4815 80.9518 49.9512 80.8867C49.9293 80.461 49.9187 79.9815 50.46 79.9814ZM51.2666 77.9229C51.286 77.8229 51.5444 77.8499 51.5752 77.8662C51.7801 77.999 51.5594 78.5652 51.3271 78.666C51.0565 78.4708 51.19 78.164 51.2666 77.9199V77.9229ZM53.3086 74.5361C53.2813 74.8588 53.4396 75.0921 53.3467 75.4229C53.2236 75.8648 52.6884 76.2196 52.5381 75.6475C52.454 75.3272 53.1908 74.3957 53.3086 74.5361ZM35.2891 13.8584C36.1035 13.6905 35.9966 14.6499 35.4443 14.7285C34.843 14.815 34.6439 13.9913 35.2891 13.8584ZM36.7402 11.8223C36.5762 11.1226 36.4427 10.2845 37.457 10.5557C37.7604 11.117 37.4155 11.8412 36.7402 11.8223Z" fill="#99948B"/>
<path d="M2.24219 162.906V134.906H15.1211C16.1055 134.906 17.0124 135.007 17.8418 135.207C18.6803 135.408 19.3913 135.672 19.9746 136C20.5671 136.328 21.0911 136.72 21.5469 137.176C22.0117 137.622 22.3854 138.087 22.668 138.57C22.9505 139.044 23.1829 139.55 23.3652 140.088C23.5566 140.617 23.6842 141.109 23.748 141.564C23.821 142.02 23.8574 142.462 23.8574 142.891C23.8574 143.319 23.821 143.761 23.748 144.217C23.6842 144.663 23.5566 145.151 23.3652 145.68C23.1829 146.208 22.9505 146.71 22.668 147.184C22.3854 147.658 22.0117 148.122 21.5469 148.578C21.0911 149.025 20.5671 149.412 19.9746 149.74C19.3913 150.068 18.6803 150.337 17.8418 150.547C17.0124 150.747 16.1055 150.852 15.1211 150.861H14.3145C14.1048 150.861 13.9544 150.88 13.8633 150.916C13.7721 150.943 13.7357 150.993 13.7539 151.066C13.7721 151.13 13.8223 151.208 13.9043 151.299C13.9954 151.39 14.1322 151.508 14.3145 151.654C14.7793 152.019 15.2897 152.511 15.8457 153.131C16.4017 153.751 16.8848 154.329 17.2949 154.867C17.7142 155.405 18.3158 156.198 19.0996 157.246C19.1452 157.31 19.1816 157.365 19.209 157.41C19.2454 157.447 19.2865 157.497 19.332 157.561C19.3776 157.615 19.4186 157.67 19.4551 157.725C20.2663 158.818 21.1595 159.844 22.1348 160.801C23.11 161.749 23.944 162.451 24.6367 162.906H21.4785C20.9499 162.587 20.3757 162.118 19.7559 161.498C19.1361 160.869 18.5436 160.195 17.9785 159.475C17.4134 158.745 16.8301 157.98 16.2285 157.178C15.627 156.367 15.0391 155.592 14.4648 154.854C13.8906 154.115 13.3301 153.445 12.7832 152.844C12.2454 152.242 11.7031 151.764 11.1562 151.408C10.6185 151.044 10.1217 150.861 9.66602 150.861H7.16406V150.301H12.6602C15.4219 150.301 17.5319 149.649 18.9902 148.346C20.4577 147.033 21.1914 145.215 21.1914 142.891C21.1914 140.566 20.4577 138.748 18.9902 137.436C17.5319 136.123 15.4219 135.467 12.6602 135.467H5.93359C5.38672 135.467 5.00391 135.581 4.78516 135.809C4.56641 136.036 4.45703 136.51 4.45703 137.23L4.48438 162.906H2.24219ZM27.4531 162.906V134.906H46.8535V137.395C45.4134 136.911 43.0664 136.469 39.8125 136.068C36.5677 135.667 33.6784 135.467 31.1445 135.467C30.6159 135.467 30.2376 135.604 30.0098 135.877C29.7819 136.141 29.668 136.638 29.668 137.367V146.213C29.668 146.632 29.7956 146.974 30.0508 147.238C30.306 147.493 30.6432 147.621 31.0625 147.621H44.1055V149.973C42.4284 149.562 40.2227 149.18 37.4883 148.824C34.7539 148.469 32.6211 148.291 31.0898 148.291C30.6615 148.291 30.3197 148.396 30.0645 148.605C29.8184 148.815 29.6953 149.12 29.6953 149.521L29.668 160.445C29.668 161.174 29.7819 161.676 30.0098 161.949C30.2376 162.214 30.6159 162.346 31.1445 162.346C33.6784 162.346 36.5677 162.145 39.8125 161.744C43.0664 161.343 45.4134 160.901 46.8535 160.418V162.906H27.4531ZM53.0195 162.906H50.7773V134.906H70.1777V137.395C68.7376 136.911 66.3906 136.469 63.1367 136.068C59.8919 135.667 57.0026 135.467 54.4688 135.467C53.9401 135.467 53.5618 135.604 53.334 135.877C53.1061 136.141 52.9922 136.638 52.9922 137.367V146.213C52.9922 146.632 53.1198 146.974 53.375 147.238C53.6302 147.493 53.9674 147.621 54.3867 147.621H67.4297V149.973C65.7526 149.562 63.5469 149.18 60.8125 148.824C58.0781 148.469 55.9453 148.291 54.4141 148.291C53.9857 148.291 53.6439 148.396 53.3887 148.605C53.1426 148.815 53.0195 149.12 53.0195 149.521V162.906ZM74.1016 162.906V134.906H76.3438V162.906H74.1016ZM100.229 162.906H80.8281V134.906H83.043V160.445C83.043 161.174 83.1569 161.676 83.3848 161.949C83.6126 162.214 83.9909 162.346 84.5195 162.346C87.0534 162.346 89.9427 162.145 93.1875 161.744C96.4414 161.343 98.7884 160.901 100.229 160.418V162.906ZM123.115 162.906H103.715V134.906H105.93V160.445C105.93 161.174 106.044 161.676 106.271 161.949C106.499 162.214 106.878 162.346 107.406 162.346C109.94 162.346 112.829 162.145 116.074 161.744C119.328 161.343 121.675 160.901 123.115 160.418V162.906ZM2.24219 201.906V173.906H15.1211C16.1055 173.906 17.0124 174.007 17.8418 174.207C18.6803 174.408 19.3913 174.672 19.9746 175C20.5671 175.328 21.0911 175.72 21.5469 176.176C22.0117 176.622 22.3854 177.087 22.668 177.57C22.9505 178.044 23.1829 178.55 23.3652 179.088C23.5566 179.617 23.6842 180.109 23.748 180.564C23.821 181.02 23.8574 181.462 23.8574 181.891C23.8574 182.319 23.821 182.761 23.748 183.217C23.6842 183.663 23.5566 184.151 23.3652 184.68C23.1829 185.208 22.9505 185.71 22.668 186.184C22.3854 186.658 22.0117 187.122 21.5469 187.578C21.0911 188.025 20.5671 188.412 19.9746 188.74C19.3913 189.068 18.6803 189.337 17.8418 189.547C17.0124 189.747 16.1055 189.852 15.1211 189.861H14.3145C14.1048 189.861 13.9544 189.88 13.8633 189.916C13.7721 189.943 13.7357 189.993 13.7539 190.066C13.7721 190.13 13.8223 190.208 13.9043 190.299C13.9954 190.39 14.1322 190.508 14.3145 190.654C14.7793 191.019 15.2897 191.511 15.8457 192.131C16.4017 192.751 16.8848 193.329 17.2949 193.867C17.7142 194.405 18.3158 195.198 19.0996 196.246C19.1452 196.31 19.1816 196.365 19.209 196.41C19.2454 196.447 19.2865 196.497 19.332 196.561C19.3776 196.615 19.4186 196.67 19.4551 196.725C20.2663 197.818 21.1595 198.844 22.1348 199.801C23.11 200.749 23.944 201.451 24.6367 201.906H21.4785C20.9499 201.587 20.3757 201.118 19.7559 200.498C19.1361 199.869 18.5436 199.195 17.9785 198.475C17.4134 197.745 16.8301 196.98 16.2285 196.178C15.627 195.367 15.0391 194.592 14.4648 193.854C13.8906 193.115 13.3301 192.445 12.7832 191.844C12.2454 191.242 11.7031 190.764 11.1562 190.408C10.6185 190.044 10.1217 189.861 9.66602 189.861H7.16406V189.301H12.6602C15.4219 189.301 17.5319 188.649 18.9902 187.346C20.4577 186.033 21.1914 184.215 21.1914 181.891C21.1914 179.566 20.4577 177.748 18.9902 176.436C17.5319 175.123 15.4219 174.467 12.6602 174.467H5.93359C5.38672 174.467 5.00391 174.581 4.78516 174.809C4.56641 175.036 4.45703 175.51 4.45703 176.23L4.48438 201.906H2.24219ZM27.4531 201.906V173.906H46.8535V176.395C45.4134 175.911 43.0664 175.469 39.8125 175.068C36.5677 174.667 33.6784 174.467 31.1445 174.467C30.6159 174.467 30.2376 174.604 30.0098 174.877C29.7819 175.141 29.668 175.638 29.668 176.367V185.213C29.668 185.632 29.7956 185.974 30.0508 186.238C30.306 186.493 30.6432 186.621 31.0625 186.621H44.1055V188.973C42.4284 188.562 40.2227 188.18 37.4883 187.824C34.7539 187.469 32.6211 187.291 31.0898 187.291C30.6615 187.291 30.3197 187.396 30.0645 187.605C29.8184 187.815 29.6953 188.12 29.6953 188.521L29.668 199.445C29.668 200.174 29.7819 200.676 30.0098 200.949C30.2376 201.214 30.6159 201.346 31.1445 201.346C33.6784 201.346 36.5677 201.145 39.8125 200.744C43.0664 200.343 45.4134 199.901 46.8535 199.418V201.906H27.4531ZM62.7812 202.439C61.25 202.439 59.778 202.216 58.3652 201.77C56.9616 201.323 55.681 200.676 54.5234 199.828C53.375 198.971 52.3724 197.96 51.5156 196.793C50.6589 195.617 49.9935 194.268 49.5195 192.746C49.0456 191.215 48.8086 189.592 48.8086 187.879C48.8086 186.165 49.0456 184.548 49.5195 183.025C49.9935 181.494 50.6589 180.145 51.5156 178.979C52.3724 177.803 53.375 176.791 54.5234 175.943C55.681 175.087 56.9616 174.435 58.3652 173.988C59.778 173.542 61.25 173.318 62.7812 173.318C64.6953 173.318 66.5046 173.674 68.209 174.385C69.9225 175.087 71.4082 176.062 72.666 177.311C73.9329 178.559 74.9355 180.1 75.6738 181.932C76.4121 183.764 76.7812 185.746 76.7812 187.879C76.7812 191.005 76.0247 193.744 74.5117 196.096C72.9987 198.447 70.9935 200.179 68.4961 201.291C68.0951 201.473 67.8672 201.688 67.8125 201.934C67.7578 202.189 67.8854 202.449 68.1953 202.713C69.599 203.907 71.1849 204.504 72.9531 204.504C74.2109 204.504 75.1999 204.208 75.9199 203.615C76.6491 203.032 76.9772 202.38 76.9043 201.66C77.3509 201.651 77.6745 201.797 77.875 202.098C78.0846 202.398 78.1895 202.772 78.1895 203.219C78.1895 204.057 77.8249 204.773 77.0957 205.365C76.3757 205.967 75.5645 206.268 74.6621 206.268C73.2493 206.268 71.9688 205.99 70.8203 205.434C69.6719 204.887 68.5599 204.076 67.4844 203C67.1927 202.708 66.8372 202.494 66.418 202.357C65.9987 202.23 65.5794 202.193 65.1602 202.248C64.2487 202.376 63.4557 202.439 62.7812 202.439ZM51.0508 187.879C51.0508 190.203 51.4427 192.34 52.2266 194.291C52.3542 194.646 52.4954 194.824 52.6504 194.824C52.8145 194.824 52.9648 194.61 53.1016 194.182C53.7305 192.423 54.9427 191.543 56.7383 191.543C57.349 191.543 57.946 191.666 58.5293 191.912C59.1217 192.158 59.6367 192.459 60.0742 192.814C60.5208 193.17 60.9902 193.639 61.4824 194.223C61.9746 194.797 62.3802 195.321 62.6992 195.795C63.0273 196.269 63.4193 196.848 63.875 197.531C64.3398 198.206 64.7135 198.73 64.9961 199.104C65.1419 199.304 65.3926 199.632 65.748 200.088C66.1309 200.553 66.6003 200.785 67.1562 200.785C67.4297 200.785 67.6803 200.721 67.9082 200.594C69.9225 199.5 71.5312 197.841 72.7344 195.617C73.9466 193.384 74.5527 190.805 74.5527 187.879C74.5527 185.828 74.2428 183.923 73.623 182.164C73.0033 180.405 72.1602 178.924 71.0938 177.721C70.0365 176.518 68.7878 175.579 67.3477 174.904C65.9076 174.221 64.3854 173.879 62.7812 173.879C61.1771 173.879 59.6549 174.221 58.2148 174.904C56.7839 175.579 55.5397 176.518 54.4824 177.721C53.4251 178.924 52.5866 180.405 51.9668 182.164C51.3561 183.923 51.0508 185.828 51.0508 187.879ZM53.457 195.043C53.3841 195.444 53.4115 195.886 53.5391 196.369C53.6667 196.843 53.8672 197.253 54.1406 197.6C55.2161 198.967 56.4967 200.024 57.9824 200.771C59.4681 201.51 61.0677 201.879 62.7812 201.879C63.4193 201.879 64.0482 201.824 64.668 201.715C65.069 201.642 65.3151 201.469 65.4062 201.195C65.5065 200.922 65.4245 200.617 65.1602 200.279C64.7682 199.778 63.8477 198.502 62.3984 196.451C62.1797 196.132 61.9928 195.872 61.8379 195.672C61.6829 195.462 61.4688 195.193 61.1953 194.865C60.931 194.528 60.6849 194.25 60.457 194.031C60.2383 193.803 59.9694 193.562 59.6504 193.307C59.3314 193.042 59.026 192.833 58.7344 192.678C58.4427 192.523 58.1146 192.395 57.75 192.295C57.3854 192.186 57.0208 192.131 56.6562 192.131C56.1367 192.131 55.6764 192.217 55.2754 192.391C54.8835 192.555 54.569 192.787 54.332 193.088C54.0951 193.38 53.9036 193.685 53.7578 194.004C53.6211 194.323 53.5208 194.669 53.457 195.043ZM91.1641 202.467C89.6146 202.467 88.2246 202.312 86.9941 202.002C85.7728 201.701 84.752 201.286 83.9316 200.758C83.1204 200.229 82.446 199.591 81.9082 198.844C81.3796 198.096 80.9967 197.303 80.7598 196.465C80.5319 195.617 80.418 194.706 80.418 193.73V173.906H82.6465C82.61 183.176 82.5918 188.503 82.5918 189.889V194.906C82.5918 195.717 82.7012 196.465 82.9199 197.148C83.1478 197.823 83.444 198.397 83.8086 198.871C84.1732 199.336 84.6061 199.755 85.1074 200.129C85.6087 200.493 86.1146 200.785 86.625 201.004C87.1445 201.223 87.6914 201.405 88.2656 201.551C88.8398 201.688 89.3594 201.783 89.8242 201.838C90.2891 201.883 90.7357 201.906 91.1641 201.906C91.6289 201.906 92.0755 201.893 92.5039 201.865C92.9323 201.838 93.4427 201.77 94.0352 201.66C94.6367 201.551 95.1882 201.41 95.6895 201.236C96.1908 201.063 96.6966 200.812 97.207 200.484C97.7266 200.156 98.1641 199.778 98.5195 199.35C98.875 198.912 99.1667 198.365 99.3945 197.709C99.6224 197.044 99.7363 196.305 99.7363 195.494V173.906H101.979V198.488C101.04 199.746 99.6087 200.726 97.6855 201.428C95.7715 202.12 93.5977 202.467 91.1641 202.467ZM106.449 201.906V173.906H125.85V176.395C124.41 175.911 122.062 175.469 118.809 175.068C115.564 174.667 112.674 174.467 110.141 174.467C109.612 174.467 109.234 174.604 109.006 174.877C108.778 175.141 108.664 175.638 108.664 176.367V185.213C108.664 185.632 108.792 185.974 109.047 186.238C109.302 186.493 109.639 186.621 110.059 186.621H123.102V188.973C121.424 188.562 119.219 188.18 116.484 187.824C113.75 187.469 111.617 187.291 110.086 187.291C109.658 187.291 109.316 187.396 109.061 187.605C108.814 187.815 108.691 188.12 108.691 188.521L108.664 199.445C108.664 200.174 108.778 200.676 109.006 200.949C109.234 201.214 109.612 201.346 110.141 201.346C112.674 201.346 115.564 201.145 118.809 200.744C122.062 200.343 124.41 199.901 125.85 199.418V201.906H106.449ZM127.955 196C127.955 195.271 128.156 194.669 128.557 194.195C128.967 193.721 129.454 193.484 130.02 193.484C130.466 193.484 130.867 193.639 131.223 193.949C130.475 194.204 130.102 194.824 130.102 195.809C130.102 196.802 130.539 197.773 131.414 198.721C132.289 199.66 133.456 200.425 134.914 201.018C136.382 201.61 137.913 201.906 139.508 201.906C140.483 201.906 141.422 201.815 142.324 201.633C143.227 201.441 144.065 201.154 144.84 200.771C145.624 200.389 146.303 199.924 146.877 199.377C147.451 198.83 147.902 198.174 148.23 197.408C148.559 196.643 148.723 195.809 148.723 194.906C148.723 194.186 148.618 193.535 148.408 192.951C148.208 192.368 147.952 191.871 147.643 191.461C147.333 191.051 146.904 190.682 146.357 190.354C145.82 190.016 145.3 189.747 144.799 189.547C144.307 189.337 143.678 189.141 142.912 188.959C142.156 188.777 141.49 188.635 140.916 188.535C140.342 188.435 139.626 188.316 138.77 188.18C138.004 188.061 137.425 187.97 137.033 187.906C136.641 187.842 136.094 187.738 135.393 187.592C134.691 187.446 134.148 187.314 133.766 187.195C133.383 187.068 132.904 186.895 132.33 186.676C131.756 186.457 131.309 186.229 130.99 185.992C130.671 185.755 130.32 185.464 129.938 185.117C129.555 184.771 129.263 184.402 129.062 184.01C128.871 183.609 128.707 183.144 128.57 182.615C128.434 182.087 128.365 181.517 128.365 180.906C128.365 179.849 128.584 178.892 129.021 178.035C129.459 177.169 130.038 176.454 130.758 175.889C131.487 175.314 132.335 174.831 133.301 174.439C134.276 174.048 135.279 173.77 136.309 173.605C137.339 173.432 138.396 173.346 139.48 173.346C140.41 173.346 141.34 173.4 142.27 173.51C143.199 173.619 144.12 173.801 145.031 174.057C145.952 174.303 146.763 174.608 147.465 174.973C148.167 175.337 148.732 175.802 149.16 176.367C149.598 176.932 149.816 177.557 149.816 178.24C149.816 179.225 149.443 179.844 148.695 180.1C148.431 178.833 147.82 177.725 146.863 176.777C145.915 175.829 144.758 175.114 143.391 174.631C142.033 174.148 140.574 173.906 139.016 173.906C136.327 173.906 134.212 174.503 132.672 175.697C131.132 176.882 130.361 178.573 130.361 180.77C130.361 181.326 130.462 181.827 130.662 182.273C130.872 182.72 131.186 183.103 131.605 183.422C132.034 183.741 132.485 184.014 132.959 184.242C133.442 184.47 134.044 184.675 134.764 184.857C135.484 185.04 136.149 185.19 136.76 185.309C137.38 185.427 138.127 185.564 139.002 185.719C139.831 185.855 140.46 185.965 140.889 186.047C141.317 186.129 141.923 186.257 142.707 186.43C143.491 186.594 144.102 186.753 144.539 186.908C144.977 187.054 145.519 187.255 146.166 187.51C146.813 187.765 147.324 188.029 147.697 188.303C148.071 188.576 148.477 188.913 148.914 189.314C149.361 189.715 149.698 190.144 149.926 190.6C150.154 191.055 150.345 191.584 150.5 192.186C150.664 192.787 150.746 193.434 150.746 194.127C150.746 195.239 150.536 196.26 150.117 197.189C149.698 198.11 149.128 198.894 148.408 199.541C147.688 200.179 146.845 200.721 145.879 201.168C144.922 201.615 143.906 201.943 142.83 202.152C141.755 202.362 140.647 202.467 139.508 202.467C137.247 202.467 135.238 202.198 133.479 201.66C131.729 201.113 130.37 200.352 129.404 199.377C128.438 198.393 127.955 197.267 127.955 196ZM152.018 173.906H173.578V176.395C172.53 175.939 171.062 175.506 169.176 175.096C167.298 174.676 166.04 174.467 165.402 174.467C164.874 174.467 164.491 174.604 164.254 174.877C164.026 175.141 163.912 175.638 163.912 176.367V201.906H161.67V176.367C161.67 175.638 161.556 175.141 161.328 174.877C161.1 174.604 160.722 174.467 160.193 174.467C159.555 174.467 158.293 174.676 156.406 175.096C154.529 175.506 153.066 175.939 152.018 176.395V173.906Z" fill="#383637"/>
<path d="M0.352 237.906L4.992 226.706H5.92L10.56 237.906H9.536L8.368 235.09H2.544L1.392 237.906H0.352ZM2.928 234.194H8L5.456 228.034L2.928 234.194ZM15.7926 238.114C13.3126 238.114 11.5686 236.306 11.5686 233.762C11.5686 231.218 13.3126 229.426 15.7926 229.426C17.7606 229.426 19.3766 230.594 19.8566 232.386H18.9126C18.3686 231.074 17.2166 230.322 15.7926 230.322C13.8406 230.322 12.4966 231.73 12.4966 233.762C12.4966 235.81 13.8406 237.218 15.7926 237.218C17.3126 237.218 18.4966 236.37 18.9606 235.01H19.9366C19.3766 236.946 17.8246 238.114 15.7926 238.114ZM22.4605 237.906V226.066H23.3885V233.266H24.6045C26.1405 233.266 26.8125 232.866 27.3405 231.474L28.0445 229.634H29.0365L28.2045 231.826C27.8365 232.754 27.4045 233.346 26.7485 233.698L29.4365 237.906H28.3325L25.8845 234.018C25.5005 234.098 25.0685 234.13 24.5725 234.13H23.3885V237.906H22.4605ZM31.7261 237.906V229.634H32.5101L32.5901 231.234C33.2461 230.05 34.3981 229.426 35.7261 229.426C37.8861 229.426 39.2141 230.946 39.2141 233.33V237.906H38.2861V233.41C38.2861 231.506 37.2621 230.322 35.6141 230.322C33.8701 230.322 32.6541 231.65 32.6541 233.618V237.906H31.7261ZM45.9675 238.114C43.4075 238.114 41.6155 236.322 41.6155 233.762C41.6155 231.218 43.4075 229.426 45.9675 229.426C48.5115 229.426 50.3035 231.218 50.3035 233.762C50.3035 236.322 48.5115 238.114 45.9675 238.114ZM42.5435 233.762C42.5435 235.81 43.9355 237.218 45.9675 237.218C47.9835 237.218 49.3755 235.81 49.3755 233.762C49.3755 231.73 47.9835 230.322 45.9675 230.322C43.9355 230.322 42.5435 231.73 42.5435 233.762ZM54.2499 237.906L51.2739 229.634H52.2659L54.7139 236.514L55.8819 233.506L57.3699 229.634H58.2339L59.7379 233.506L60.9059 236.514L63.3699 229.634H64.3459L61.3539 237.906H60.4579L59.0339 234.21L57.8019 230.994L55.1459 237.906H54.2499ZM66.3511 237.906V226.066H67.2791V237.906H66.3511ZM74.0739 238.114C71.5619 238.114 69.8499 236.338 69.8499 233.762C69.8499 231.202 71.5779 229.426 74.0899 229.426C76.6979 229.426 78.3779 231.346 78.3139 234.146H70.7939C70.9539 236.018 72.2339 237.234 74.0739 237.234C75.4179 237.234 76.4899 236.61 77.0339 235.538L78.0739 235.554C77.4339 237.138 75.9299 238.114 74.0739 238.114ZM70.7939 233.33H77.4019C77.1779 231.458 75.8979 230.306 74.0899 230.306C72.2499 230.306 70.9539 231.506 70.7939 233.33ZM84.3711 238.114C81.8751 238.114 80.1311 236.274 80.1311 233.762C80.1311 231.25 81.8751 229.426 84.3711 229.426C85.8911 229.426 87.1231 230.098 87.8591 231.17V226.066H88.7871V237.906H88.0191L87.9071 236.274C87.1871 237.41 85.9231 238.114 84.3711 238.114ZM81.0591 233.762C81.0591 235.794 82.4511 237.218 84.4831 237.218C86.4991 237.218 87.8911 235.794 87.8911 233.762C87.8911 231.746 86.4991 230.322 84.4831 230.322C82.4511 230.322 81.0591 231.746 81.0591 233.762ZM95.7175 241.314C93.6855 241.314 92.1815 240.242 91.8615 238.562H92.8055C93.0775 239.714 94.1975 240.434 95.7175 240.434C97.6215 240.434 98.8375 239.314 98.8375 237.538V236.194C98.1015 237.202 96.9175 237.81 95.5095 237.81C93.0935 237.81 91.3655 236.05 91.3655 233.618C91.3655 231.186 93.0935 229.426 95.5095 229.426C96.9655 229.426 98.1655 230.066 98.9015 231.122L98.9815 229.634H99.7655V237.57C99.7655 239.794 98.1335 241.314 95.7175 241.314ZM92.2935 233.618C92.2935 235.554 93.6535 236.898 95.6055 236.898C97.5415 236.898 98.9015 235.554 98.9015 233.618C98.9015 231.682 97.5415 230.322 95.6055 230.322C93.6535 230.322 92.2935 231.682 92.2935 233.618ZM106.558 238.114C104.046 238.114 102.334 236.338 102.334 233.762C102.334 231.202 104.062 229.426 106.574 229.426C109.182 229.426 110.862 231.346 110.798 234.146H103.278C103.438 236.018 104.718 237.234 106.558 237.234C107.902 237.234 108.974 236.61 109.518 235.538L110.558 235.554C109.918 237.138 108.414 238.114 106.558 238.114ZM103.278 233.33H109.886C109.662 231.458 108.382 230.306 106.574 230.306C104.734 230.306 103.438 231.506 103.278 233.33ZM113.336 237.906V229.634H114.12L114.2 230.978C114.776 229.97 115.784 229.426 117.064 229.426C118.504 229.426 119.608 230.146 120.088 231.41C120.648 230.146 121.784 229.426 123.24 229.426C125.32 229.426 126.664 230.85 126.664 233.154V237.906H125.736V233.298C125.736 231.458 124.712 230.322 123.128 230.322C121.512 230.322 120.456 231.49 120.456 233.362V237.906H119.528V233.298C119.528 231.458 118.52 230.322 116.936 230.322C115.32 230.322 114.264 231.49 114.264 233.362V237.906H113.336ZM133.277 238.114C130.765 238.114 129.053 236.338 129.053 233.762C129.053 231.202 130.781 229.426 133.293 229.426C135.901 229.426 137.581 231.346 137.517 234.146H129.997C130.157 236.018 131.437 237.234 133.277 237.234C134.621 237.234 135.693 236.61 136.237 235.538L137.277 235.554C136.637 237.138 135.133 238.114 133.277 238.114ZM129.997 233.33H136.605C136.381 231.458 135.101 230.306 133.293 230.306C131.453 230.306 130.157 231.506 129.997 233.33ZM140.054 237.906V229.634H140.838L140.918 231.234C141.574 230.05 142.726 229.426 144.054 229.426C146.214 229.426 147.542 230.946 147.542 233.33V237.906H146.614V233.41C146.614 231.506 145.59 230.322 143.942 230.322C142.198 230.322 140.982 231.65 140.982 233.618V237.906H140.054ZM153.758 237.906C151.998 237.906 151.054 236.914 151.054 235.042V230.482H149.246V229.634H150.302C150.926 229.634 151.102 229.474 151.166 228.866L151.246 227.602H151.982V229.634H154.846V230.482H151.982V235.01C151.982 236.37 152.542 237.01 153.79 237.01H154.958V237.906H153.758ZM164.702 238.114C162.43 238.114 161.022 237.01 161.022 235.186C161.022 233.81 161.822 232.77 163.486 232.018C162.51 230.946 161.934 230.05 161.934 229.042C161.934 227.522 163.198 226.498 165.054 226.498C166.926 226.498 168.19 227.57 168.19 229.122C168.19 230.514 167.214 231.522 165.07 232.338L168.094 235.442C168.542 234.674 168.782 233.682 168.798 232.482H169.726C169.71 233.97 169.39 235.202 168.766 236.13L170.51 237.906H169.262L168.206 236.818C167.358 237.666 166.174 238.114 164.702 238.114ZM161.95 235.17C161.95 236.45 163.006 237.218 164.718 237.218C165.902 237.218 166.862 236.85 167.534 236.162L164.142 232.69C162.67 233.298 161.95 234.13 161.95 235.17ZM162.846 229.042C162.846 229.746 163.278 230.466 164.414 231.666C166.462 230.882 167.278 230.162 167.278 229.122C167.278 228.05 166.414 227.362 165.054 227.362C163.71 227.362 162.846 228.018 162.846 229.042ZM181.282 238.114C177.986 238.114 175.602 235.714 175.602 232.306C175.602 228.898 177.986 226.498 181.282 226.498C183.842 226.498 185.938 227.986 186.674 230.338H185.65C185.01 228.562 183.346 227.474 181.298 227.474C178.562 227.474 176.594 229.442 176.594 232.306C176.594 235.17 178.562 237.138 181.298 237.138C183.394 237.138 185.122 236.002 185.746 234.146H186.77C186.082 236.562 183.922 238.114 181.282 238.114ZM192.905 238.114C190.345 238.114 188.553 236.322 188.553 233.762C188.553 231.218 190.345 229.426 192.905 229.426C195.449 229.426 197.241 231.218 197.241 233.762C197.241 236.322 195.449 238.114 192.905 238.114ZM189.481 233.762C189.481 235.81 190.873 237.218 192.905 237.218C194.921 237.218 196.313 235.81 196.313 233.762C196.313 231.73 194.921 230.322 192.905 230.322C190.873 230.322 189.481 231.73 189.481 233.762ZM199.82 237.906V229.634H200.604L200.684 231.234C201.34 230.05 202.492 229.426 203.82 229.426C205.98 229.426 207.308 230.946 207.308 233.33V237.906H206.38V233.41C206.38 231.506 205.356 230.322 203.708 230.322C201.964 230.322 200.748 231.65 200.748 233.618V237.906H199.82ZM213.277 238.114C211.181 238.114 209.853 237.058 209.789 235.41H210.701C210.797 236.578 211.709 237.266 213.293 237.266C214.749 237.266 215.629 236.706 215.629 235.794C215.629 234.93 214.845 234.402 213.085 234.098C210.925 233.73 209.949 232.962 209.949 231.698C209.949 230.29 211.149 229.426 213.085 229.426C215.037 229.426 216.269 230.354 216.397 231.938H215.469C215.373 230.85 214.525 230.258 213.085 230.258C211.709 230.258 210.877 230.818 210.877 231.714C210.877 232.53 211.565 232.978 213.405 233.33C215.501 233.73 216.541 234.562 216.541 235.81C216.541 237.202 215.277 238.114 213.277 238.114ZM222.73 238.114C220.218 238.114 218.506 236.338 218.506 233.762C218.506 231.202 220.234 229.426 222.746 229.426C225.354 229.426 227.034 231.346 226.97 234.146H219.45C219.61 236.018 220.89 237.234 222.73 237.234C224.074 237.234 225.146 236.61 225.69 235.538L226.73 235.554C226.09 237.138 224.586 238.114 222.73 238.114ZM219.45 233.33H226.058C225.834 231.458 224.554 230.306 222.746 230.306C220.906 230.306 219.61 231.506 219.45 233.33ZM229.507 237.906V229.634H230.291L230.371 231.234C231.027 230.05 232.179 229.426 233.507 229.426C235.667 229.426 236.995 230.946 236.995 233.33V237.906H236.067V233.41C236.067 231.506 235.043 230.322 233.395 230.322C231.651 230.322 230.435 231.65 230.435 233.618V237.906H229.507ZM243.211 237.906C241.451 237.906 240.507 236.914 240.507 235.042V230.482H238.699V229.634H239.755C240.379 229.634 240.555 229.474 240.619 228.866L240.699 227.602H241.435V229.634H244.299V230.482H241.435V235.01C241.435 236.37 241.995 237.01 243.243 237.01H244.411V237.906H243.211Z" fill="#5B5852"/>
</svg>
