<svg width="366" height="283" viewBox="0 0 366 283" fill="none" xmlns="http://www.w3.org/2000/svg">
<path d="M39.9453 0.321289C39.6338 1.16044 39.3391 1.99171 39.0156 2.74316C37.3342 6.65348 35.4723 10.4771 33.9385 14.4443C32.7574 17.4977 31.6991 20.6355 30.6328 23.7188C31.3354 23.7132 31.259 22.7499 31.4941 22.2021C31.6174 21.9172 32.0982 21.1689 32.3633 21.0469C32.7734 20.8598 33.5277 21.1803 33.4648 21.625C32.642 23.5828 32.2598 25.6845 31.5244 27.6748C30.9011 29.3615 30.3349 31.0402 29.7197 32.7432C27.8688 37.8601 25.5552 42.9445 23.8164 48.0615C21.3449 55.337 19.42 62.8133 16.6504 69.9912C15.4803 73.0229 14.8241 76.0493 13.8535 79.1162C13.2794 80.9276 12.3035 83.3685 12.041 85.1826C11.9864 85.5649 12.0908 85.9961 12.0088 86.3594C11.954 86.5953 11.5984 87.029 11.4727 87.3408C10.7727 89.0872 10.0205 92.7534 9.71973 94.6787C9.63498 95.2237 9.64093 96.753 9.46875 97.0488C9.30749 97.3226 9.13502 97.2523 9.08301 96.9678C8.99552 96.477 9.04434 95.0989 9.07715 94.543C9.17013 93.0326 9.56976 91.4976 9.78027 89.998C9.94699 88.8106 9.85908 88.6555 10.3184 87.5059C10.7776 86.3535 10.9012 85.4557 11.1035 84.249C12.2136 77.5973 14.6663 71.7294 16.375 65.2783C16.6949 64.0662 17.2227 62.3848 17.3184 61.1699C17.3266 61.0587 17.3944 60.7961 17.2197 60.8203C15.0243 69.0448 11.8476 76.9819 9.62207 85.1982C8.86474 87.9995 8.15387 90.8419 7.86133 93.7354C7.81217 94.2153 7.91834 94.7605 7.85547 95.2432C7.78431 95.7935 7.47853 96.4821 7.38281 97.0947C7.0192 99.4647 7.0871 103.687 7.98926 105.916C8.77393 107.855 9.73689 107.977 11.1641 109.219C11.6341 109.628 12.2528 110.357 12.9062 110.906H0V45.7666C0 22.4516 17.4142 3.20438 39.9453 0.321289ZM50.0527 77.2129C50.1184 77.137 50.441 76.6321 50.5586 76.7568C47.7972 82.1179 45.3284 87.7611 44.1035 93.6943C42.9005 99.5164 43.056 103.598 45.9678 108.889C46.3353 109.556 46.9382 110.255 47.6699 110.906H16.7666C18.7844 110.166 21.1762 109.112 22.8105 108.159C23.1084 107.986 24.3901 107.129 24.4922 106.896C24.5441 106.776 24.2899 106.675 24.3418 106.461C24.4214 106.133 25.1152 105.767 25.293 105.577C25.6483 105.198 25.8808 104.696 26.3125 104.271C26.5886 103.997 27.7477 103.018 28.0488 102.969C28.8827 102.833 30.157 103.831 30.1133 102.627C29.1618 102.041 29.5202 101.447 30.5127 101.371C30.7918 101.35 31.6414 101.821 31.5107 101.149C31.3494 100.32 31.1636 100.29 31.9072 99.6416C33.1402 98.5678 35.1169 97.4341 35.4014 95.6445C35.4369 95.4141 35.2016 95.2215 35.5186 94.9531C36.3169 94.2779 37.894 95.0664 38.3916 93.6699C38.4709 93.4503 38.4463 93.1356 38.5557 92.9512C38.6186 92.8454 38.8569 92.7883 38.9717 92.6338C39.3732 92.0832 39.0835 90.8335 39.1709 90.1611L38.5615 90.0088L39.1191 89.5586C39.3267 89.6426 39.2399 90.0244 39.2725 90.0576C39.3244 90.1119 39.8578 90.0332 39.959 89.9355C40.0385 89.855 40.234 89.2001 40.1855 89.1553H39.7285C39.5344 88.8109 40.0708 88.6075 40.2295 88.3418C40.3498 88.1385 40.355 87.8671 40.4697 87.6719C41.197 86.4489 42.4302 85.9171 43.3379 84.9707C43.6058 84.6914 43.756 84.3361 44.0977 84.0107C44.2917 83.8264 44.6309 83.6939 44.7568 83.5557C44.94 83.3523 44.9129 83.0536 45.0469 82.834C45.7523 81.6599 47.4198 80.4534 48.374 79.377C48.9755 78.6964 49.465 77.9071 50.0527 77.2129ZM47.9854 0C72.2842 1.13123 91.6377 21.188 91.6377 45.7666V110.906H62.749C63.428 110.409 63.8634 109.705 64.5977 109.181C65.6665 108.419 66.9378 108.08 67.9766 107.392C74.2649 103.21 80.7424 96.9481 85.6309 91.2236C87.438 89.1085 90.2399 86.0147 91.123 83.4658C91.3773 82.7337 91.6917 81.9826 91.6289 81.1963L91.6348 81.1904C91.4926 81.1796 91.3584 81.1902 91.2217 81.2363C90.8362 81.3719 88.4033 84.0919 87.9219 84.6182C82.2706 90.7873 77.1112 97.8434 69.9727 102.407C66.2571 104.783 62.4297 106.35 58.3916 108.062C56.579 108.829 52.9811 109.308 51.0508 108.988C49.2819 108.695 48.716 108.46 48.2539 106.719C47.8875 105.341 47.3264 102.261 47.3154 100.886C47.31 100.04 47.7477 98.9331 47.9062 98.0654C49.2624 90.5947 52.9266 81.6701 57.249 75.3682C59.2202 72.4913 61.178 70.7337 63.5264 68.2852C64.4858 67.2846 65.2292 66.0833 66.1641 65.0557C68.0751 62.9568 70.3718 61.2349 72.7285 59.6621L72.9502 59.6299C73.713 59.9905 74.4239 60.0558 74.957 60.7744C76.8786 63.3614 72.8762 67.1357 71.583 69.2236C71.4135 69.5599 71.3731 70.0757 71.6328 70.374C71.7726 70.5364 72.2416 70.6796 72.4658 70.7041C73.0973 70.7746 75.0087 70.7914 75.6104 70.6992C77.2945 70.4389 79.4707 66.0971 79.6895 64.5596C80.2854 60.3647 77.3085 57.5312 73.3525 56.9209C71.7834 56.6796 71.7937 56.994 70.5283 57.1865C68.8469 57.4441 68.0943 57.0377 66.3828 58.0166C62.7247 60.1156 57.8578 65.3436 55.3535 68.7549C54.0249 70.5662 53.0904 72.7115 51.625 74.333C50.5615 75.5126 49.3366 76.5809 48.2676 77.7578C46.4221 79.7916 44.7673 82.0095 42.8809 84.0107C41.3006 85.692 39.4257 87.2436 37.8975 88.9492C34.696 92.5205 31.8002 95.4244 28.041 98.4316C27.2563 99.058 26.6081 99.8472 25.8535 100.498C23.2809 102.708 19.9129 105.255 16.9355 106.879C15.6123 107.6 14.1849 108.647 13.3701 106.824C12.5583 105.004 12.7682 100.744 12.9404 98.6836C13.0171 97.7673 13.4496 96.9052 13.5371 95.9482C13.6574 94.6385 13.5479 93.6317 13.9307 92.3057C14.286 91.0776 14.521 90.3237 14.7998 89.0332C15.2919 86.7581 16.0161 85.1254 16.6504 83.0049C17.7549 79.3143 18.5732 75.4827 19.8555 71.8652C21.9743 65.8861 23.7152 59.7791 25.8477 53.8135C28.5325 46.3075 31.683 38.9531 34.417 31.458C35.2481 29.1748 36.1558 26.9319 37.0088 24.6514C38.9035 19.5723 40.8413 14.4411 43.25 9.56543C44.2233 7.59137 45.399 6.17858 46.4707 4.3916C46.8665 3.73277 47.6789 1.32218 47.9854 0ZM8.88867 99.9854H8.8916L8.58301 100.04C8.38895 99.7039 8.60436 99.3915 8.98145 99.3398L8.88867 99.9854ZM37.0908 91.4736C37.2136 91.4086 37.2818 91.3355 37.4482 91.376C37.4018 91.7013 37.5632 92.2946 37.3477 92.5361L37.1641 92.6699C36.8562 92.8839 36.271 93.273 36.1992 93.3096C35.8958 93.4641 35.5509 93.5183 35.2119 93.4912C34.9774 93.282 36.8229 91.6119 37.0908 91.4736ZM47.4385 87.3135C47.2581 87.7933 46.873 86.7859 47.4111 86.8369L47.4385 87.3135ZM47.7207 85.2256C47.9665 85.1797 48.0021 85.4263 48.125 85.5781H48.1221L47.9717 85.7275L47.7314 85.5645L47.7207 85.2256ZM48.4287 83.3086C48.5244 83.2463 48.7645 83.3306 48.8301 83.458L48.4775 84.1113C48.2126 84.0297 48.3713 83.3436 48.4287 83.3057V83.3086ZM50.46 79.9814C50.4846 80.3584 50.4815 80.9518 49.9512 80.8867C49.9293 80.461 49.9187 79.9815 50.46 79.9814ZM51.2666 77.9229C51.286 77.8229 51.5444 77.8499 51.5752 77.8662C51.7801 77.999 51.5594 78.5652 51.3271 78.666C51.0565 78.4708 51.19 78.164 51.2666 77.9199V77.9229ZM53.3086 74.5361C53.2813 74.8588 53.4396 75.0921 53.3467 75.4229C53.2236 75.8648 52.6884 76.2196 52.5381 75.6475C52.454 75.3272 53.1908 74.3957 53.3086 74.5361ZM35.2891 13.8584C36.1035 13.6905 35.9966 14.6499 35.4443 14.7285C34.843 14.815 34.6439 13.9913 35.2891 13.8584ZM36.7402 11.8223C36.5762 11.1226 36.4427 10.2845 37.457 10.5557C37.7604 11.117 37.4155 11.8412 36.7402 11.8223Z" fill="#444D52"/>
<path d="M1.54492 157C1.54492 156.271 1.74544 155.669 2.14648 155.195C2.55664 154.721 3.04427 154.484 3.60938 154.484C4.05599 154.484 4.45703 154.639 4.8125 154.949C4.0651 155.204 3.69141 155.824 3.69141 156.809C3.69141 157.802 4.12891 158.773 5.00391 159.721C5.87891 160.66 7.04557 161.425 8.50391 162.018C9.97135 162.61 11.5026 162.906 13.0977 162.906C14.0729 162.906 15.0117 162.815 15.9141 162.633C16.8164 162.441 17.6549 162.154 18.4297 161.771C19.2135 161.389 19.8926 160.924 20.4668 160.377C21.041 159.83 21.4922 159.174 21.8203 158.408C22.1484 157.643 22.3125 156.809 22.3125 155.906C22.3125 155.186 22.2077 154.535 21.998 153.951C21.7975 153.368 21.5423 152.871 21.2324 152.461C20.9225 152.051 20.4941 151.682 19.9473 151.354C19.4095 151.016 18.89 150.747 18.3887 150.547C17.8965 150.337 17.2676 150.141 16.502 149.959C15.7454 149.777 15.0801 149.635 14.5059 149.535C13.9316 149.435 13.2161 149.316 12.3594 149.18C11.5938 149.061 11.015 148.97 10.623 148.906C10.2311 148.842 9.68424 148.738 8.98242 148.592C8.2806 148.446 7.73828 148.314 7.35547 148.195C6.97266 148.068 6.49414 147.895 5.91992 147.676C5.3457 147.457 4.89909 147.229 4.58008 146.992C4.26107 146.755 3.91016 146.464 3.52734 146.117C3.14453 145.771 2.85286 145.402 2.65234 145.01C2.46094 144.609 2.29688 144.144 2.16016 143.615C2.02344 143.087 1.95508 142.517 1.95508 141.906C1.95508 140.849 2.17383 139.892 2.61133 139.035C3.04883 138.169 3.6276 137.454 4.34766 136.889C5.07682 136.314 5.92448 135.831 6.89062 135.439C7.86589 135.048 8.86849 134.77 9.89844 134.605C10.9284 134.432 11.9857 134.346 13.0703 134.346C14 134.346 14.9297 134.4 15.8594 134.51C16.7891 134.619 17.7096 134.801 18.6211 135.057C19.5417 135.303 20.3529 135.608 21.0547 135.973C21.7565 136.337 22.3216 136.802 22.75 137.367C23.1875 137.932 23.4062 138.557 23.4062 139.24C23.4062 140.225 23.0326 140.844 22.2852 141.1C22.0208 139.833 21.4102 138.725 20.4531 137.777C19.5052 136.829 18.3477 136.114 16.9805 135.631C15.6224 135.148 14.1641 134.906 12.6055 134.906C9.91667 134.906 7.80208 135.503 6.26172 136.697C4.72135 137.882 3.95117 139.573 3.95117 141.77C3.95117 142.326 4.05143 142.827 4.25195 143.273C4.46159 143.72 4.77604 144.103 5.19531 144.422C5.6237 144.741 6.07487 145.014 6.54883 145.242C7.0319 145.47 7.63346 145.675 8.35352 145.857C9.07357 146.04 9.73893 146.19 10.3496 146.309C10.9694 146.427 11.7168 146.564 12.5918 146.719C13.4212 146.855 14.0501 146.965 14.4785 147.047C14.9069 147.129 15.513 147.257 16.2969 147.43C17.0807 147.594 17.6914 147.753 18.1289 147.908C18.5664 148.054 19.1087 148.255 19.7559 148.51C20.403 148.765 20.9134 149.029 21.2871 149.303C21.6608 149.576 22.0664 149.913 22.5039 150.314C22.9505 150.715 23.2878 151.144 23.5156 151.6C23.7435 152.055 23.9349 152.584 24.0898 153.186C24.2539 153.787 24.3359 154.434 24.3359 155.127C24.3359 156.239 24.1263 157.26 23.707 158.189C23.2878 159.11 22.7181 159.894 21.998 160.541C21.278 161.179 20.4349 161.721 19.4688 162.168C18.5117 162.615 17.4954 162.943 16.4199 163.152C15.3444 163.362 14.237 163.467 13.0977 163.467C10.8372 163.467 8.82747 163.198 7.06836 162.66C5.31836 162.113 3.96029 161.352 2.99414 160.377C2.02799 159.393 1.54492 158.267 1.54492 157ZM27.7266 153.773C27.2526 152.242 27.0156 150.62 27.0156 148.906C27.0156 147.193 27.2526 145.575 27.7266 144.053C28.2005 142.521 28.8659 141.173 29.7227 140.006C30.5794 138.83 31.582 137.818 32.7305 136.971C33.888 136.114 35.1686 135.462 36.5723 135.016C37.985 134.569 39.457 134.346 40.9883 134.346C42.2826 134.346 43.5449 134.464 44.7754 134.701C46.015 134.938 47.1406 135.275 48.1523 135.713C49.1732 136.15 49.9935 136.725 50.6133 137.436C51.2331 138.146 51.543 138.935 51.543 139.801C51.543 140.102 51.4974 140.361 51.4062 140.58C51.3242 140.79 51.2194 140.945 51.0918 141.045C50.9733 141.136 50.8503 141.209 50.7227 141.264C50.6042 141.309 50.5039 141.332 50.4219 141.332L50.2852 141.346C50.1758 140.571 49.8522 139.796 49.3145 139.021C48.7767 138.247 48.0977 137.559 47.2773 136.957C46.4661 136.346 45.5046 135.854 44.3926 135.48C43.2806 135.098 42.1458 134.906 40.9883 134.906C39.3841 134.906 37.862 135.248 36.4219 135.932C34.9909 136.606 33.7467 137.545 32.6895 138.748C31.6322 139.951 30.7936 141.432 30.1738 143.191C29.5632 144.951 29.2578 146.855 29.2578 148.906C29.2578 150.957 29.5632 152.862 30.1738 154.621C30.7936 156.38 31.6322 157.861 32.6895 159.064C33.7467 160.268 34.9909 161.211 36.4219 161.895C37.862 162.569 39.3841 162.906 40.9883 162.906C42.0456 162.906 43.1165 162.733 44.2012 162.387C45.2949 162.04 46.3021 161.576 47.2227 160.992C48.1432 160.4 48.9863 159.748 49.752 159.037C50.5267 158.317 51.1921 157.561 51.748 156.768V159.912C51.0645 160.942 49.7018 161.794 47.6602 162.469C45.6185 163.134 43.3945 163.467 40.9883 163.467C39.457 163.467 37.985 163.243 36.5723 162.797C35.1686 162.35 33.888 161.703 32.7305 160.855C31.582 159.999 30.5794 158.987 29.7227 157.82C28.8659 156.645 28.2005 155.296 27.7266 153.773ZM65.9805 163.467C64.431 163.467 63.041 163.312 61.8105 163.002C60.5892 162.701 59.5684 162.286 58.748 161.758C57.9368 161.229 57.2624 160.591 56.7246 159.844C56.196 159.096 55.8132 158.303 55.5762 157.465C55.3483 156.617 55.2344 155.706 55.2344 154.73V134.906H57.4629C57.4264 144.176 57.4082 149.503 57.4082 150.889V155.906C57.4082 156.717 57.5176 157.465 57.7363 158.148C57.9642 158.823 58.2604 159.397 58.625 159.871C58.9896 160.336 59.4225 160.755 59.9238 161.129C60.4251 161.493 60.931 161.785 61.4414 162.004C61.9609 162.223 62.5078 162.405 63.082 162.551C63.6562 162.688 64.1758 162.783 64.6406 162.838C65.1055 162.883 65.5521 162.906 65.9805 162.906C66.4453 162.906 66.8919 162.893 67.3203 162.865C67.7487 162.838 68.2591 162.77 68.8516 162.66C69.4531 162.551 70.0046 162.41 70.5059 162.236C71.0072 162.063 71.513 161.812 72.0234 161.484C72.543 161.156 72.9805 160.778 73.3359 160.35C73.6914 159.912 73.9831 159.365 74.2109 158.709C74.4388 158.044 74.5527 157.305 74.5527 156.494V134.906H76.7949V159.488C75.8561 160.746 74.4251 161.726 72.502 162.428C70.5879 163.12 68.4141 163.467 65.9805 163.467ZM100.666 162.906H81.2656V134.906H83.4805V160.445C83.4805 161.174 83.5944 161.676 83.8223 161.949C84.0501 162.214 84.4284 162.346 84.957 162.346C87.4909 162.346 90.3802 162.145 93.625 161.744C96.8789 161.343 99.2259 160.901 100.666 160.418V162.906ZM104.152 134.906H117.031C118.016 134.906 118.923 135.007 119.752 135.207C120.59 135.408 121.301 135.672 121.885 136C122.477 136.328 123.001 136.72 123.457 137.176C123.922 137.622 124.296 138.087 124.578 138.57C124.861 139.044 125.093 139.55 125.275 140.088C125.467 140.617 125.594 141.109 125.658 141.564C125.731 142.02 125.768 142.462 125.768 142.891C125.768 143.319 125.731 143.761 125.658 144.217C125.594 144.673 125.467 145.165 125.275 145.693C125.093 146.222 124.861 146.728 124.578 147.211C124.296 147.685 123.922 148.15 123.457 148.605C123.001 149.052 122.477 149.439 121.885 149.768C121.301 150.096 120.59 150.36 119.752 150.561C118.923 150.761 118.016 150.861 117.031 150.861H106.395V162.906H104.152V134.906ZM106.395 148.906C106.395 149.326 106.522 149.663 106.777 149.918C107.033 150.173 107.37 150.301 107.789 150.301H114.57C117.332 150.301 119.442 149.649 120.9 148.346C122.368 147.033 123.102 145.215 123.102 142.891C123.102 140.566 122.368 138.743 120.9 137.422C119.442 136.1 117.332 135.439 114.57 135.439C113.75 135.439 112.506 135.444 110.838 135.453C109.17 135.462 108.181 135.467 107.871 135.467C107.342 135.467 106.964 135.604 106.736 135.877C106.508 136.141 106.395 136.638 106.395 137.367V148.906ZM127.846 134.906H149.406V137.395C148.358 136.939 146.891 136.506 145.004 136.096C143.126 135.676 141.868 135.467 141.23 135.467C140.702 135.467 140.319 135.604 140.082 135.877C139.854 136.141 139.74 136.638 139.74 137.367V162.906H137.498V137.367C137.498 136.638 137.384 136.141 137.156 135.877C136.928 135.604 136.55 135.467 136.021 135.467C135.383 135.467 134.121 135.676 132.234 136.096C130.357 136.506 128.894 136.939 127.846 137.395V134.906ZM153.316 162.906V134.906H166.195C167.18 134.906 168.087 135.007 168.916 135.207C169.755 135.408 170.465 135.672 171.049 136C171.641 136.328 172.165 136.72 172.621 137.176C173.086 137.622 173.46 138.087 173.742 138.57C174.025 139.044 174.257 139.55 174.439 140.088C174.631 140.617 174.758 141.109 174.822 141.564C174.895 142.02 174.932 142.462 174.932 142.891C174.932 143.319 174.895 143.761 174.822 144.217C174.758 144.663 174.631 145.151 174.439 145.68C174.257 146.208 174.025 146.71 173.742 147.184C173.46 147.658 173.086 148.122 172.621 148.578C172.165 149.025 171.641 149.412 171.049 149.74C170.465 150.068 169.755 150.337 168.916 150.547C168.087 150.747 167.18 150.852 166.195 150.861H165.389C165.179 150.861 165.029 150.88 164.938 150.916C164.846 150.943 164.81 150.993 164.828 151.066C164.846 151.13 164.896 151.208 164.979 151.299C165.07 151.39 165.206 151.508 165.389 151.654C165.854 152.019 166.364 152.511 166.92 153.131C167.476 153.751 167.959 154.329 168.369 154.867C168.788 155.405 169.39 156.198 170.174 157.246C170.219 157.31 170.256 157.365 170.283 157.41C170.32 157.447 170.361 157.497 170.406 157.561C170.452 157.615 170.493 157.67 170.529 157.725C171.34 158.818 172.234 159.844 173.209 160.801C174.184 161.749 175.018 162.451 175.711 162.906H172.553C172.024 162.587 171.45 162.118 170.83 161.498C170.21 160.869 169.618 160.195 169.053 159.475C168.488 158.745 167.904 157.98 167.303 157.178C166.701 156.367 166.113 155.592 165.539 154.854C164.965 154.115 164.404 153.445 163.857 152.844C163.32 152.242 162.777 151.764 162.23 151.408C161.693 151.044 161.196 150.861 160.74 150.861H158.238V150.301H163.734C166.496 150.301 168.606 149.649 170.064 148.346C171.532 147.033 172.266 145.215 172.266 142.891C172.266 140.566 171.532 138.748 170.064 137.436C168.606 136.123 166.496 135.467 163.734 135.467H157.008C156.461 135.467 156.078 135.581 155.859 135.809C155.641 136.036 155.531 136.51 155.531 137.23L155.559 162.906H153.316ZM179.307 162.906H176.846L186.389 136.219L185.801 134.906H188.275L200.758 162.906H198.297L196.246 158.34C195.809 157.355 195.089 156.48 194.086 155.715C193.092 154.94 192.017 154.361 190.859 153.979C189.702 153.587 188.585 153.391 187.51 153.391C185.66 153.391 183.932 153.969 182.328 155.127C182.027 155.346 181.727 155.71 181.426 156.221C181.134 156.722 180.924 157.205 180.797 157.67L179.307 162.906ZM182.355 152.297C182.219 152.798 182.269 153.049 182.506 153.049C182.624 153.049 182.829 152.976 183.121 152.83C184.215 152.229 185.4 151.928 186.676 151.928C187.943 151.928 189.219 152.201 190.504 152.748C191.798 153.286 193.006 154.01 194.127 154.922C194.446 155.186 194.646 155.286 194.729 155.223C194.811 155.159 194.765 154.94 194.592 154.566L187.373 138.379C187.209 137.987 187.031 137.791 186.84 137.791C186.639 137.791 186.471 138.014 186.334 138.461L182.355 152.297ZM222.961 161.758C221.174 162.523 219.297 162.906 217.328 162.906C215.359 162.906 213.477 162.523 211.682 161.758C209.895 160.983 208.35 159.949 207.047 158.654C205.753 157.351 204.718 155.806 203.943 154.02C203.178 152.224 202.795 150.342 202.795 148.373C202.795 146.404 203.178 144.527 203.943 142.74C204.718 140.945 205.753 139.4 207.047 138.105C208.35 136.802 209.895 135.768 211.682 135.002C213.477 134.227 215.359 133.84 217.328 133.84C219.297 133.84 221.174 134.227 222.961 135.002C224.757 135.768 226.301 136.802 227.596 138.105C228.899 139.4 229.934 140.945 230.699 142.74C231.474 144.527 231.861 146.404 231.861 148.373C231.861 150.342 231.474 152.224 230.699 154.02C229.934 155.806 228.899 157.351 227.596 158.654C226.301 159.949 224.757 160.983 222.961 161.758ZM204.408 142.973C203.67 144.695 203.301 146.505 203.301 148.4C203.301 150.296 203.67 152.11 204.408 153.842C205.146 155.564 206.14 157.055 207.389 158.312C208.646 159.561 210.137 160.555 211.859 161.293C213.591 162.031 215.405 162.4 217.301 162.4C219.197 162.4 221.006 162.031 222.729 161.293C224.46 160.555 225.951 159.561 227.199 158.312C228.457 157.055 229.455 155.564 230.193 153.842C230.932 152.11 231.301 150.296 231.301 148.4C231.301 146.505 230.932 144.695 230.193 142.973C229.455 141.241 228.457 139.751 227.199 138.502C225.951 137.244 224.46 136.246 222.729 135.508C221.006 134.77 219.197 134.4 217.301 134.4C215.405 134.4 213.591 134.77 211.859 135.508C210.137 136.246 208.646 137.244 207.389 138.502C206.14 139.751 205.146 141.241 204.408 142.973ZM210.082 138.037H219.297C220.272 138.037 221.138 138.174 221.895 138.447C222.66 138.721 223.262 139.062 223.699 139.473C224.146 139.874 224.51 140.343 224.793 140.881C225.085 141.419 225.281 141.92 225.381 142.385C225.481 142.85 225.531 143.305 225.531 143.752C225.531 144.199 225.481 144.65 225.381 145.105C225.281 145.561 225.085 146.058 224.793 146.596C224.51 147.124 224.146 147.594 223.699 148.004C223.262 148.405 222.66 148.747 221.895 149.029C221.138 149.303 220.272 149.449 219.297 149.467H218.709C218.563 149.467 218.458 149.48 218.395 149.508C218.331 149.526 218.303 149.562 218.312 149.617C218.322 149.663 218.358 149.717 218.422 149.781C218.486 149.845 218.581 149.927 218.709 150.027C219.037 150.283 219.397 150.629 219.789 151.066C220.181 151.495 220.518 151.891 220.801 152.256C221.092 152.62 221.516 153.176 222.072 153.924C222.218 154.115 222.327 154.261 222.4 154.361C222.975 155.136 223.608 155.861 224.301 156.535C224.993 157.21 225.59 157.72 226.092 158.066H223.822C223.312 157.757 222.738 157.246 222.1 156.535C221.471 155.815 220.869 155.068 220.295 154.293C219.73 153.518 219.16 152.762 218.586 152.023C218.021 151.276 217.456 150.665 216.891 150.191C216.335 149.708 215.838 149.467 215.4 149.467H213.609V149.043H217.533C219.502 149.043 221.01 148.578 222.059 147.648C223.107 146.71 223.631 145.411 223.631 143.752C223.631 142.084 223.107 140.785 222.059 139.855C221.02 138.926 219.511 138.461 217.533 138.461H212.707C212.333 138.461 212.069 138.543 211.914 138.707C211.759 138.862 211.682 139.199 211.682 139.719V158.066H210.082V138.037ZM2.24219 201.906V173.906H4.48438V201.906H2.24219ZM8.96875 201.906V173.906H11.2656C16.4518 181.262 22.4036 189.679 29.1211 199.158C29.3216 199.441 29.4993 199.582 29.6543 199.582C29.873 199.582 29.9688 199.34 29.9414 198.857L28.2598 173.906H30.6113V201.906H28.3691C27.1478 200.184 24.5228 196.492 20.4941 190.832C16.4746 185.163 13.125 180.437 10.4453 176.654C10.2448 176.372 10.0671 176.23 9.91211 176.23C9.70247 176.23 9.61133 176.472 9.63867 176.955L11.3203 201.906H8.96875ZM26.9473 205.488L27.2891 204.955C28.0638 205.611 29.194 205.939 30.6797 205.939C31.5091 205.939 32.2337 205.789 32.8535 205.488C33.4824 205.188 33.9746 204.782 34.3301 204.271C34.6855 203.761 34.9499 203.21 35.123 202.617C35.2962 202.025 35.3828 201.396 35.3828 200.73V173.906H37.625V199.979C37.625 200.535 37.5521 201.1 37.4062 201.674C37.2604 202.248 37.0143 202.827 36.668 203.41C36.3307 203.993 35.9115 204.508 35.4102 204.955C34.9089 205.411 34.2663 205.78 33.4824 206.062C32.7077 206.354 31.8464 206.5 30.8984 206.5C29.2669 206.5 27.9499 206.163 26.9473 205.488ZM42.1094 201.906V173.906H61.5098V176.395C60.0697 175.911 57.7227 175.469 54.4688 175.068C51.224 174.667 48.3346 174.467 45.8008 174.467C45.2721 174.467 44.8939 174.604 44.666 174.877C44.4382 175.141 44.3242 175.638 44.3242 176.367V185.213C44.3242 185.632 44.4518 185.974 44.707 186.238C44.9622 186.493 45.2995 186.621 45.7188 186.621H58.7617V188.973C57.0846 188.562 54.8789 188.18 52.1445 187.824C49.4102 187.469 47.2773 187.291 45.7461 187.291C45.3177 187.291 44.9759 187.396 44.7207 187.605C44.4746 187.815 44.3516 188.12 44.3516 188.521L44.3242 199.445C44.3242 200.174 44.4382 200.676 44.666 200.949C44.8939 201.214 45.2721 201.346 45.8008 201.346C48.3346 201.346 51.224 201.145 54.4688 200.744C57.7227 200.343 60.0697 199.901 61.5098 199.418V201.906H42.1094ZM64.1758 192.773C63.7018 191.242 63.4648 189.62 63.4648 187.906C63.4648 186.193 63.7018 184.575 64.1758 183.053C64.6497 181.521 65.3151 180.173 66.1719 179.006C67.0286 177.83 68.0312 176.818 69.1797 175.971C70.3372 175.114 71.6178 174.462 73.0215 174.016C74.4342 173.569 75.9062 173.346 77.4375 173.346C78.7318 173.346 79.9941 173.464 81.2246 173.701C82.4642 173.938 83.5898 174.275 84.6016 174.713C85.6224 175.15 86.4427 175.725 87.0625 176.436C87.6823 177.146 87.9922 177.935 87.9922 178.801C87.9922 179.102 87.9466 179.361 87.8555 179.58C87.7734 179.79 87.6686 179.945 87.541 180.045C87.4225 180.136 87.2995 180.209 87.1719 180.264C87.0534 180.309 86.9531 180.332 86.8711 180.332L86.7344 180.346C86.625 179.571 86.3014 178.796 85.7637 178.021C85.2259 177.247 84.5469 176.559 83.7266 175.957C82.9154 175.346 81.9538 174.854 80.8418 174.48C79.7298 174.098 78.5951 173.906 77.4375 173.906C75.8333 173.906 74.3112 174.248 72.8711 174.932C71.4401 175.606 70.196 176.545 69.1387 177.748C68.0814 178.951 67.2428 180.432 66.623 182.191C66.0124 183.951 65.707 185.855 65.707 187.906C65.707 189.957 66.0124 191.862 66.623 193.621C67.2428 195.38 68.0814 196.861 69.1387 198.064C70.196 199.268 71.4401 200.211 72.8711 200.895C74.3112 201.569 75.8333 201.906 77.4375 201.906C78.4948 201.906 79.5658 201.733 80.6504 201.387C81.7441 201.04 82.7513 200.576 83.6719 199.992C84.5924 199.4 85.4355 198.748 86.2012 198.037C86.9759 197.317 87.6413 196.561 88.1973 195.768V198.912C87.5137 199.942 86.151 200.794 84.1094 201.469C82.0677 202.134 79.8438 202.467 77.4375 202.467C75.9062 202.467 74.4342 202.243 73.0215 201.797C71.6178 201.35 70.3372 200.703 69.1797 199.855C68.0312 198.999 67.0286 197.987 66.1719 196.82C65.3151 195.645 64.6497 194.296 64.1758 192.773ZM90.1387 173.906H111.699V176.395C110.651 175.939 109.184 175.506 107.297 175.096C105.419 174.676 104.161 174.467 103.523 174.467C102.995 174.467 102.612 174.604 102.375 174.877C102.147 175.141 102.033 175.638 102.033 176.367V201.906H99.791V176.367C99.791 175.638 99.6771 175.141 99.4492 174.877C99.2214 174.604 98.8431 174.467 98.3145 174.467C97.6764 174.467 96.4141 174.676 94.5273 175.096C92.6497 175.506 91.1868 175.939 90.1387 176.395V173.906ZM109.662 201.906H107.201L116.744 175.219L116.156 173.906H118.631L131.113 201.906H128.652L126.602 197.34C126.164 196.355 125.444 195.48 124.441 194.715C123.448 193.94 122.372 193.361 121.215 192.979C120.057 192.587 118.941 192.391 117.865 192.391C116.015 192.391 114.288 192.969 112.684 194.127C112.383 194.346 112.082 194.71 111.781 195.221C111.49 195.722 111.28 196.205 111.152 196.67L109.662 201.906ZM112.711 191.297C112.574 191.798 112.624 192.049 112.861 192.049C112.98 192.049 113.185 191.976 113.477 191.83C114.57 191.229 115.755 190.928 117.031 190.928C118.298 190.928 119.574 191.201 120.859 191.748C122.154 192.286 123.361 193.01 124.482 193.922C124.801 194.186 125.002 194.286 125.084 194.223C125.166 194.159 125.12 193.94 124.947 193.566L117.729 177.379C117.564 176.987 117.387 176.791 117.195 176.791C116.995 176.791 116.826 177.014 116.689 177.461L112.711 191.297ZM146.316 201.906H133.438V173.906H145.701C146.613 173.906 147.447 173.993 148.203 174.166C148.96 174.33 149.589 174.544 150.09 174.809C150.591 175.073 151.033 175.392 151.416 175.766C151.799 176.139 152.095 176.513 152.305 176.887C152.514 177.251 152.683 177.648 152.811 178.076C152.947 178.495 153.034 178.86 153.07 179.17C153.107 179.48 153.125 179.79 153.125 180.1C153.125 180.464 153.07 180.861 152.961 181.289C152.861 181.708 152.674 182.173 152.4 182.684C152.127 183.194 151.785 183.663 151.375 184.092C150.965 184.52 150.413 184.908 149.721 185.254C149.037 185.6 148.267 185.842 147.41 185.979C148.267 186.051 149.06 186.206 149.789 186.443C150.518 186.68 151.138 186.967 151.648 187.305C152.159 187.642 152.615 188.034 153.016 188.48C153.426 188.927 153.754 189.378 154 189.834C154.255 190.29 154.46 190.768 154.615 191.27C154.779 191.771 154.893 192.236 154.957 192.664C155.021 193.092 155.053 193.512 155.053 193.922C155.053 194.35 155.016 194.792 154.943 195.248C154.88 195.704 154.752 196.201 154.561 196.738C154.378 197.267 154.146 197.773 153.863 198.256C153.581 198.73 153.207 199.195 152.742 199.65C152.286 200.097 151.762 200.484 151.17 200.812C150.587 201.141 149.876 201.405 149.037 201.605C148.208 201.806 147.301 201.906 146.316 201.906ZM135.652 199.445C135.652 200.174 135.766 200.676 135.994 200.949C136.222 201.214 136.6 201.346 137.129 201.346H143.855C146.617 201.346 148.727 200.689 150.186 199.377C151.653 198.064 152.387 196.246 152.387 193.922C152.387 191.598 151.653 189.766 150.186 188.426C148.718 187.086 146.608 186.416 143.855 186.416H137.074C136.655 186.416 136.318 186.548 136.062 186.812C135.807 187.068 135.68 187.405 135.68 187.824C135.661 191.725 135.652 195.599 135.652 199.445ZM135.68 175.807V184.461C135.68 184.88 135.807 185.217 136.062 185.473C136.318 185.728 136.655 185.855 137.074 185.855H144.02C145.086 185.855 146.052 185.701 146.918 185.391C147.793 185.072 148.508 184.648 149.064 184.119C149.62 183.581 150.049 182.962 150.35 182.26C150.65 181.549 150.801 180.797 150.801 180.004C150.801 178.382 150.204 177.055 149.01 176.025C147.816 174.986 146.152 174.467 144.02 174.467H137.129C136.673 174.467 136.331 174.562 136.104 174.754C135.876 174.945 135.734 175.296 135.68 175.807ZM177.994 201.906H158.594V173.906H160.809V199.445C160.809 200.174 160.923 200.676 161.15 200.949C161.378 201.214 161.757 201.346 162.285 201.346C164.819 201.346 167.708 201.145 170.953 200.744C174.207 200.343 176.554 199.901 177.994 199.418V201.906ZM181.48 201.906V173.906H200.881V176.395C199.441 175.911 197.094 175.469 193.84 175.068C190.595 174.667 187.706 174.467 185.172 174.467C184.643 174.467 184.265 174.604 184.037 174.877C183.809 175.141 183.695 175.638 183.695 176.367V185.213C183.695 185.632 183.823 185.974 184.078 186.238C184.333 186.493 184.671 186.621 185.09 186.621H198.133V188.973C196.456 188.562 194.25 188.18 191.516 187.824C188.781 187.469 186.648 187.291 185.117 187.291C184.689 187.291 184.347 187.396 184.092 187.605C183.846 187.815 183.723 188.12 183.723 188.521L183.695 199.445C183.695 200.174 183.809 200.676 184.037 200.949C184.265 201.214 184.643 201.346 185.172 201.346C187.706 201.346 190.595 201.145 193.84 200.744C197.094 200.343 199.441 199.901 200.881 199.418V201.906H181.48ZM202.986 196C202.986 195.271 203.187 194.669 203.588 194.195C203.998 193.721 204.486 193.484 205.051 193.484C205.497 193.484 205.898 193.639 206.254 193.949C205.507 194.204 205.133 194.824 205.133 195.809C205.133 196.802 205.57 197.773 206.445 198.721C207.32 199.66 208.487 200.425 209.945 201.018C211.413 201.61 212.944 201.906 214.539 201.906C215.514 201.906 216.453 201.815 217.355 201.633C218.258 201.441 219.096 201.154 219.871 200.771C220.655 200.389 221.334 199.924 221.908 199.377C222.482 198.83 222.934 198.174 223.262 197.408C223.59 196.643 223.754 195.809 223.754 194.906C223.754 194.186 223.649 193.535 223.439 192.951C223.239 192.368 222.984 191.871 222.674 191.461C222.364 191.051 221.936 190.682 221.389 190.354C220.851 190.016 220.331 189.747 219.83 189.547C219.338 189.337 218.709 189.141 217.943 188.959C217.187 188.777 216.521 188.635 215.947 188.535C215.373 188.435 214.658 188.316 213.801 188.18C213.035 188.061 212.456 187.97 212.064 187.906C211.673 187.842 211.126 187.738 210.424 187.592C209.722 187.446 209.18 187.314 208.797 187.195C208.414 187.068 207.936 186.895 207.361 186.676C206.787 186.457 206.34 186.229 206.021 185.992C205.702 185.755 205.352 185.464 204.969 185.117C204.586 184.771 204.294 184.402 204.094 184.01C203.902 183.609 203.738 183.144 203.602 182.615C203.465 182.087 203.396 181.517 203.396 180.906C203.396 179.849 203.615 178.892 204.053 178.035C204.49 177.169 205.069 176.454 205.789 175.889C206.518 175.314 207.366 174.831 208.332 174.439C209.307 174.048 210.31 173.77 211.34 173.605C212.37 173.432 213.427 173.346 214.512 173.346C215.441 173.346 216.371 173.4 217.301 173.51C218.23 173.619 219.151 173.801 220.062 174.057C220.983 174.303 221.794 174.608 222.496 174.973C223.198 175.337 223.763 175.802 224.191 176.367C224.629 176.932 224.848 177.557 224.848 178.24C224.848 179.225 224.474 179.844 223.727 180.1C223.462 178.833 222.852 177.725 221.895 176.777C220.947 175.829 219.789 175.114 218.422 174.631C217.064 174.148 215.605 173.906 214.047 173.906C211.358 173.906 209.243 174.503 207.703 175.697C206.163 176.882 205.393 178.573 205.393 180.77C205.393 181.326 205.493 181.827 205.693 182.273C205.903 182.72 206.217 183.103 206.637 183.422C207.065 183.741 207.516 184.014 207.99 184.242C208.473 184.47 209.075 184.675 209.795 184.857C210.515 185.04 211.18 185.19 211.791 185.309C212.411 185.427 213.158 185.564 214.033 185.719C214.863 185.855 215.492 185.965 215.92 186.047C216.348 186.129 216.954 186.257 217.738 186.43C218.522 186.594 219.133 186.753 219.57 186.908C220.008 187.054 220.55 187.255 221.197 187.51C221.844 187.765 222.355 188.029 222.729 188.303C223.102 188.576 223.508 188.913 223.945 189.314C224.392 189.715 224.729 190.144 224.957 190.6C225.185 191.055 225.376 191.584 225.531 192.186C225.695 192.787 225.777 193.434 225.777 194.127C225.777 195.239 225.568 196.26 225.148 197.189C224.729 198.11 224.16 198.894 223.439 199.541C222.719 200.179 221.876 200.721 220.91 201.168C219.953 201.615 218.937 201.943 217.861 202.152C216.786 202.362 215.678 202.467 214.539 202.467C212.279 202.467 210.269 202.198 208.51 201.66C206.76 201.113 205.402 200.352 204.436 199.377C203.469 198.393 202.986 197.267 202.986 196Z" fill="#383637"/>
<path d="M1.808 237.906V226.706H2.784V237.906H1.808ZM6.24175 237.906V229.634H7.02575L7.10575 231.234C7.76175 230.05 8.91375 229.426 10.2418 229.426C12.4018 229.426 13.7298 230.946 13.7298 233.33V237.906H12.8018V233.41C12.8018 231.506 11.7778 230.322 10.1298 230.322C8.38575 230.322 7.16975 231.65 7.16975 233.618V237.906H6.24175ZM17.4793 228.674C17.4793 226.786 18.4073 225.858 20.2473 225.858H21.5433V226.738H20.3273C18.9833 226.738 18.4073 227.33 18.4073 228.738V229.634H21.4633V230.482H18.4073V237.906H17.4793V230.482H15.5913V229.634H17.4793V228.674ZM26.7175 238.114C24.1575 238.114 22.3655 236.322 22.3655 233.762C22.3655 231.218 24.1575 229.426 26.7175 229.426C29.2615 229.426 31.0535 231.218 31.0535 233.762C31.0535 236.322 29.2615 238.114 26.7175 238.114ZM23.2935 233.762C23.2935 235.81 24.6855 237.218 26.7175 237.218C28.7335 237.218 30.1255 235.81 30.1255 233.762C30.1255 231.73 28.7335 230.322 26.7175 230.322C24.6855 230.322 23.2935 231.73 23.2935 233.762ZM33.6324 237.906V229.634H34.4164L34.5124 231.49C35.0724 230.242 36.0164 229.634 37.5524 229.634H38.2404V230.498H37.5204C35.7444 230.498 34.5604 231.586 34.5604 234.098V237.906H33.6324ZM40.5699 237.906V229.634H41.3539L41.4339 230.978C42.0099 229.97 43.0179 229.426 44.2979 229.426C45.7379 229.426 46.8419 230.146 47.3219 231.41C47.8819 230.146 49.0179 229.426 50.4739 229.426C52.5539 229.426 53.8979 230.85 53.8979 233.154V237.906H52.9699V233.298C52.9699 231.458 51.9459 230.322 50.3619 230.322C48.7459 230.322 47.6899 231.49 47.6899 233.362V237.906H46.7619V233.298C46.7619 231.458 45.7539 230.322 44.1699 230.322C42.5539 230.322 41.4979 231.49 41.4979 233.362V237.906H40.5699ZM60.5114 238.114C57.9994 238.114 56.2874 236.338 56.2874 233.762C56.2874 231.202 58.0154 229.426 60.5274 229.426C63.1354 229.426 64.8154 231.346 64.7514 234.146H57.2314C57.3914 236.018 58.6714 237.234 60.5114 237.234C61.8554 237.234 62.9274 236.61 63.4714 235.538L64.5114 235.554C63.8714 237.138 62.3674 238.114 60.5114 238.114ZM57.2314 233.33H63.8394C63.6154 231.458 62.3354 230.306 60.5274 230.306C58.6874 230.306 57.3914 231.506 57.2314 233.33ZM70.8086 238.114C68.3126 238.114 66.5686 236.274 66.5686 233.762C66.5686 231.25 68.3126 229.426 70.8086 229.426C72.3286 229.426 73.5606 230.098 74.2966 231.17V226.066H75.2246V237.906H74.4566L74.3446 236.274C73.6246 237.41 72.3606 238.114 70.8086 238.114ZM67.4966 233.762C67.4966 235.794 68.8886 237.218 70.9206 237.218C72.9366 237.218 74.3286 235.794 74.3286 233.762C74.3286 231.746 72.9366 230.322 70.9206 230.322C68.8886 230.322 67.4966 231.746 67.4966 233.762ZM87.4071 238.114C84.1111 238.114 81.7271 235.714 81.7271 232.306C81.7271 228.898 84.1111 226.498 87.4071 226.498C89.9671 226.498 92.0631 227.986 92.7991 230.338H91.7751C91.1351 228.562 89.4711 227.474 87.4231 227.474C84.6871 227.474 82.7191 229.442 82.7191 232.306C82.7191 235.17 84.6871 237.138 87.4231 237.138C89.5191 237.138 91.2471 236.002 91.8711 234.146H92.8951C92.2071 236.562 90.0471 238.114 87.4071 238.114ZM99.03 238.114C96.47 238.114 94.678 236.322 94.678 233.762C94.678 231.218 96.47 229.426 99.03 229.426C101.574 229.426 103.366 231.218 103.366 233.762C103.366 236.322 101.574 238.114 99.03 238.114ZM95.606 233.762C95.606 235.81 96.998 237.218 99.03 237.218C101.046 237.218 102.438 235.81 102.438 233.762C102.438 231.73 101.046 230.322 99.03 230.322C96.998 230.322 95.606 231.73 95.606 233.762ZM105.945 237.906V229.634H106.729L106.809 231.234C107.465 230.05 108.617 229.426 109.945 229.426C112.105 229.426 113.433 230.946 113.433 233.33V237.906H112.505V233.41C112.505 231.506 111.481 230.322 109.833 230.322C108.089 230.322 106.873 231.65 106.873 233.618V237.906H105.945ZM119.402 238.114C117.306 238.114 115.978 237.058 115.914 235.41H116.826C116.922 236.578 117.834 237.266 119.418 237.266C120.874 237.266 121.754 236.706 121.754 235.794C121.754 234.93 120.97 234.402 119.21 234.098C117.05 233.73 116.074 232.962 116.074 231.698C116.074 230.29 117.274 229.426 119.21 229.426C121.162 229.426 122.394 230.354 122.522 231.938H121.594C121.498 230.85 120.65 230.258 119.21 230.258C117.834 230.258 117.002 230.818 117.002 231.714C117.002 232.53 117.69 232.978 119.53 233.33C121.626 233.73 122.666 234.562 122.666 235.81C122.666 237.202 121.402 238.114 119.402 238.114ZM128.855 238.114C126.343 238.114 124.631 236.338 124.631 233.762C124.631 231.202 126.359 229.426 128.871 229.426C131.479 229.426 133.159 231.346 133.095 234.146H125.575C125.735 236.018 127.015 237.234 128.855 237.234C130.199 237.234 131.271 236.61 131.815 235.538L132.855 235.554C132.215 237.138 130.711 238.114 128.855 238.114ZM125.575 233.33H132.183C131.959 231.458 130.679 230.306 128.871 230.306C127.031 230.306 125.735 231.506 125.575 233.33ZM135.632 237.906V229.634H136.416L136.496 231.234C137.152 230.05 138.304 229.426 139.632 229.426C141.792 229.426 143.12 230.946 143.12 233.33V237.906H142.192V233.41C142.192 231.506 141.168 230.322 139.52 230.322C137.776 230.322 136.56 231.65 136.56 233.618V237.906H135.632ZM149.336 237.906C147.576 237.906 146.632 236.914 146.632 235.042V230.482H144.824V229.634H145.88C146.504 229.634 146.68 229.474 146.744 228.866L146.824 227.602H147.56V229.634H150.424V230.482H147.56V235.01C147.56 236.37 148.12 237.01 149.368 237.01H150.536V237.906H149.336ZM160.196 237.906C158.436 237.906 157.492 236.914 157.492 235.042V230.482H155.684V229.634H156.74C157.364 229.634 157.539 229.474 157.604 228.866L157.684 227.602H158.42V229.634H161.284V230.482H158.42V235.01C158.42 236.37 158.98 237.01 160.228 237.01H161.396V237.906H160.196ZM167.108 238.114C164.548 238.114 162.756 236.322 162.756 233.762C162.756 231.218 164.548 229.426 167.108 229.426C169.652 229.426 171.444 231.218 171.444 233.762C171.444 236.322 169.652 238.114 167.108 238.114ZM163.684 233.762C163.684 235.81 165.076 237.218 167.108 237.218C169.124 237.218 170.516 235.81 170.516 233.762C170.516 231.73 169.124 230.322 167.108 230.322C165.076 230.322 163.684 231.73 163.684 233.762ZM179.902 237.906V227.634H176.046V226.706H184.734V227.634H180.862V237.906H179.902ZM185.242 237.906V229.634H186.026L186.122 231.49C186.682 230.242 187.626 229.634 189.162 229.634H189.85V230.498H189.13C187.354 230.498 186.17 231.586 186.17 234.098V237.906H185.242ZM195.043 238.114C192.531 238.114 190.819 236.338 190.819 233.762C190.819 231.202 192.547 229.426 195.059 229.426C197.667 229.426 199.347 231.346 199.283 234.146H191.763C191.923 236.018 193.203 237.234 195.043 237.234C196.387 237.234 197.459 236.61 198.003 235.538L199.043 235.554C198.403 237.138 196.899 238.114 195.043 238.114ZM191.763 233.33H198.371C198.147 231.458 196.867 230.306 195.059 230.306C193.219 230.306 191.923 231.506 191.763 233.33ZM204.303 238.034C202.383 238.034 201.183 237.09 201.183 235.57C201.183 234.098 202.303 233.17 203.999 233.17H207.647V232.578C207.647 231.202 206.639 230.29 205.103 230.29C203.855 230.29 202.879 230.93 202.543 231.922H201.599C201.999 230.386 203.327 229.426 205.087 229.426C207.151 229.426 208.575 230.69 208.575 232.53V237.906H207.807L207.711 236.482C206.991 237.474 205.775 238.034 204.303 238.034ZM202.111 235.554C202.111 236.562 202.959 237.202 204.335 237.202C206.255 237.202 207.663 236.002 207.663 234.338V233.986H204.031C202.895 233.986 202.111 234.61 202.111 235.554ZM214.789 237.906C213.029 237.906 212.085 236.914 212.085 235.042V230.482H210.277V229.634H211.333C211.957 229.634 212.133 229.474 212.197 228.866L212.277 227.602H213.013V229.634H215.877V230.482H213.013V235.01C213.013 236.37 213.573 237.01 214.821 237.01H215.989V237.906H214.789ZM218.476 237.906V229.634H219.26L219.34 230.978C219.916 229.97 220.924 229.426 222.204 229.426C223.644 229.426 224.748 230.146 225.228 231.41C225.788 230.146 226.924 229.426 228.38 229.426C230.46 229.426 231.804 230.85 231.804 233.154V237.906H230.876V233.298C230.876 231.458 229.852 230.322 228.268 230.322C226.652 230.322 225.596 231.49 225.596 233.362V237.906H224.668V233.298C224.668 231.458 223.66 230.322 222.076 230.322C220.46 230.322 219.404 231.49 219.404 233.362V237.906H218.476ZM238.418 238.114C235.906 238.114 234.194 236.338 234.194 233.762C234.194 231.202 235.922 229.426 238.434 229.426C241.042 229.426 242.722 231.346 242.658 234.146H235.138C235.298 236.018 236.578 237.234 238.418 237.234C239.762 237.234 240.834 236.61 241.378 235.538L242.418 235.554C241.778 237.138 240.274 238.114 238.418 238.114ZM235.138 233.33H241.746C241.522 231.458 240.242 230.306 238.434 230.306C236.594 230.306 235.298 231.506 235.138 233.33ZM245.195 237.906V229.634H245.979L246.059 231.234C246.715 230.05 247.867 229.426 249.195 229.426C251.355 229.426 252.683 230.946 252.683 233.33V237.906H251.755V233.41C251.755 231.506 250.731 230.322 249.083 230.322C247.339 230.322 246.123 231.65 246.123 233.618V237.906H245.195ZM258.899 237.906C257.139 237.906 256.195 236.914 256.195 235.042V230.482H254.387V229.634H255.443C256.067 229.634 256.243 229.474 256.307 228.866L256.387 227.602H257.123V229.634H259.987V230.482H257.123V235.01C257.123 236.37 257.683 237.01 258.931 237.01H260.099V237.906H258.899Z" fill="#5B5852"/>
</svg>
