<svg width="366" height="283" viewBox="0 0 366 283" fill="none" xmlns="http://www.w3.org/2000/svg">
<path d="M39.9453 0.321289C39.6338 1.16044 39.3391 1.99171 39.0156 2.74316C37.3342 6.65348 35.4723 10.4771 33.9385 14.4443C32.7574 17.4977 31.6991 20.6355 30.6328 23.7188C31.3354 23.7132 31.259 22.7499 31.4941 22.2021C31.6174 21.9172 32.0982 21.1689 32.3633 21.0469C32.7734 20.8598 33.5277 21.1803 33.4648 21.625C32.642 23.5828 32.2598 25.6845 31.5244 27.6748C30.9011 29.3615 30.3349 31.0402 29.7197 32.7432C27.8688 37.8601 25.5552 42.9445 23.8164 48.0615C21.3449 55.337 19.42 62.8133 16.6504 69.9912C15.4803 73.0229 14.8241 76.0493 13.8535 79.1162C13.2794 80.9276 12.3035 83.3685 12.041 85.1826C11.9864 85.5649 12.0908 85.9961 12.0088 86.3594C11.954 86.5953 11.5984 87.029 11.4727 87.3408C10.7727 89.0872 10.0205 92.7534 9.71973 94.6787C9.63498 95.2237 9.64093 96.753 9.46875 97.0488C9.30749 97.3226 9.13502 97.2523 9.08301 96.9678C8.99552 96.477 9.04434 95.0989 9.07715 94.543C9.17013 93.0326 9.56976 91.4976 9.78027 89.998C9.94699 88.8106 9.85908 88.6555 10.3184 87.5059C10.7776 86.3535 10.9012 85.4557 11.1035 84.249C12.2136 77.5973 14.6663 71.7294 16.375 65.2783C16.6949 64.0662 17.2227 62.3848 17.3184 61.1699C17.3266 61.0587 17.3944 60.7961 17.2197 60.8203C15.0243 69.0448 11.8476 76.9819 9.62207 85.1982C8.86474 87.9995 8.15387 90.8419 7.86133 93.7354C7.81217 94.2153 7.91834 94.7605 7.85547 95.2432C7.78431 95.7935 7.47853 96.4821 7.38281 97.0947C7.0192 99.4647 7.0871 103.687 7.98926 105.916C8.77393 107.855 9.73689 107.977 11.1641 109.219C11.6341 109.628 12.2528 110.357 12.9062 110.906H0V45.7666C0 22.4516 17.4142 3.20438 39.9453 0.321289ZM50.0527 77.2129C50.1184 77.137 50.441 76.6321 50.5586 76.7568C47.7972 82.1179 45.3284 87.7611 44.1035 93.6943C42.9005 99.5164 43.056 103.598 45.9678 108.889C46.3353 109.556 46.9382 110.255 47.6699 110.906H16.7666C18.7844 110.166 21.1762 109.112 22.8105 108.159C23.1084 107.986 24.3901 107.129 24.4922 106.896C24.5441 106.776 24.2899 106.675 24.3418 106.461C24.4214 106.133 25.1152 105.767 25.293 105.577C25.6483 105.198 25.8808 104.696 26.3125 104.271C26.5886 103.997 27.7477 103.018 28.0488 102.969C28.8827 102.833 30.157 103.831 30.1133 102.627C29.1618 102.041 29.5202 101.447 30.5127 101.371C30.7918 101.35 31.6414 101.821 31.5107 101.149C31.3494 100.32 31.1636 100.29 31.9072 99.6416C33.1402 98.5678 35.1169 97.4341 35.4014 95.6445C35.4369 95.4141 35.2016 95.2215 35.5186 94.9531C36.3169 94.2779 37.894 95.0664 38.3916 93.6699C38.4709 93.4503 38.4463 93.1356 38.5557 92.9512C38.6186 92.8454 38.8569 92.7883 38.9717 92.6338C39.3732 92.0832 39.0835 90.8335 39.1709 90.1611L38.5615 90.0088L39.1191 89.5586C39.3267 89.6426 39.2399 90.0244 39.2725 90.0576C39.3244 90.1119 39.8578 90.0332 39.959 89.9355C40.0385 89.855 40.234 89.2001 40.1855 89.1553H39.7285C39.5344 88.8109 40.0708 88.6075 40.2295 88.3418C40.3498 88.1385 40.355 87.8671 40.4697 87.6719C41.197 86.4489 42.4302 85.9171 43.3379 84.9707C43.6058 84.6914 43.756 84.3361 44.0977 84.0107C44.2917 83.8264 44.6309 83.6939 44.7568 83.5557C44.94 83.3523 44.9129 83.0536 45.0469 82.834C45.7523 81.6599 47.4198 80.4534 48.374 79.377C48.9755 78.6964 49.465 77.9071 50.0527 77.2129ZM47.9854 0C72.2842 1.13123 91.6377 21.188 91.6377 45.7666V110.906H62.749C63.428 110.409 63.8634 109.705 64.5977 109.181C65.6665 108.419 66.9378 108.08 67.9766 107.392C74.2649 103.21 80.7424 96.9481 85.6309 91.2236C87.438 89.1085 90.2399 86.0147 91.123 83.4658C91.3773 82.7337 91.6917 81.9826 91.6289 81.1963L91.6348 81.1904C91.4926 81.1796 91.3584 81.1902 91.2217 81.2363C90.8362 81.3719 88.4033 84.0919 87.9219 84.6182C82.2706 90.7873 77.1112 97.8434 69.9727 102.407C66.2571 104.783 62.4297 106.35 58.3916 108.062C56.579 108.829 52.9811 109.308 51.0508 108.988C49.2819 108.695 48.716 108.46 48.2539 106.719C47.8875 105.341 47.3264 102.261 47.3154 100.886C47.31 100.04 47.7477 98.9331 47.9062 98.0654C49.2624 90.5947 52.9266 81.6701 57.249 75.3682C59.2202 72.4913 61.178 70.7337 63.5264 68.2852C64.4858 67.2846 65.2292 66.0833 66.1641 65.0557C68.0751 62.9568 70.3718 61.2349 72.7285 59.6621L72.9502 59.6299C73.713 59.9905 74.4239 60.0558 74.957 60.7744C76.8786 63.3614 72.8762 67.1357 71.583 69.2236C71.4135 69.5599 71.3731 70.0757 71.6328 70.374C71.7726 70.5364 72.2416 70.6796 72.4658 70.7041C73.0973 70.7746 75.0087 70.7914 75.6104 70.6992C77.2945 70.4389 79.4707 66.0971 79.6895 64.5596C80.2854 60.3647 77.3085 57.5312 73.3525 56.9209C71.7834 56.6796 71.7937 56.994 70.5283 57.1865C68.8469 57.4441 68.0943 57.0377 66.3828 58.0166C62.7247 60.1156 57.8578 65.3436 55.3535 68.7549C54.0249 70.5662 53.0904 72.7115 51.625 74.333C50.5615 75.5126 49.3366 76.5809 48.2676 77.7578C46.4221 79.7916 44.7673 82.0095 42.8809 84.0107C41.3006 85.692 39.4257 87.2436 37.8975 88.9492C34.696 92.5205 31.8002 95.4244 28.041 98.4316C27.2563 99.058 26.6081 99.8472 25.8535 100.498C23.2809 102.708 19.9129 105.255 16.9355 106.879C15.6123 107.6 14.1849 108.647 13.3701 106.824C12.5583 105.004 12.7682 100.744 12.9404 98.6836C13.0171 97.7673 13.4496 96.9052 13.5371 95.9482C13.6574 94.6385 13.5479 93.6317 13.9307 92.3057C14.286 91.0776 14.521 90.3237 14.7998 89.0332C15.2919 86.7581 16.0161 85.1254 16.6504 83.0049C17.7549 79.3143 18.5732 75.4827 19.8555 71.8652C21.9743 65.8861 23.7152 59.7791 25.8477 53.8135C28.5325 46.3075 31.683 38.9531 34.417 31.458C35.2481 29.1748 36.1558 26.9319 37.0088 24.6514C38.9035 19.5723 40.8413 14.4411 43.25 9.56543C44.2233 7.59137 45.399 6.17858 46.4707 4.3916C46.8665 3.73277 47.6789 1.32218 47.9854 0ZM8.88867 99.9854H8.8916L8.58301 100.04C8.38895 99.7039 8.60436 99.3915 8.98145 99.3398L8.88867 99.9854ZM37.0908 91.4736C37.2136 91.4086 37.2818 91.3355 37.4482 91.376C37.4018 91.7013 37.5632 92.2946 37.3477 92.5361L37.1641 92.6699C36.8562 92.8839 36.271 93.273 36.1992 93.3096C35.8958 93.4641 35.5509 93.5183 35.2119 93.4912C34.9774 93.282 36.8229 91.6119 37.0908 91.4736ZM47.4385 87.3135C47.2581 87.7933 46.873 86.7859 47.4111 86.8369L47.4385 87.3135ZM47.7207 85.2256C47.9665 85.1797 48.0021 85.4263 48.125 85.5781H48.1221L47.9717 85.7275L47.7314 85.5645L47.7207 85.2256ZM48.4287 83.3086C48.5244 83.2463 48.7645 83.3306 48.8301 83.458L48.4775 84.1113C48.2126 84.0297 48.3713 83.3436 48.4287 83.3057V83.3086ZM50.46 79.9814C50.4846 80.3584 50.4815 80.9518 49.9512 80.8867C49.9293 80.461 49.9187 79.9815 50.46 79.9814ZM51.2666 77.9229C51.286 77.8229 51.5444 77.8499 51.5752 77.8662C51.7801 77.999 51.5594 78.5652 51.3271 78.666C51.0565 78.4708 51.19 78.164 51.2666 77.9199V77.9229ZM53.3086 74.5361C53.2813 74.8588 53.4396 75.0921 53.3467 75.4229C53.2236 75.8648 52.6884 76.2196 52.5381 75.6475C52.454 75.3272 53.1908 74.3957 53.3086 74.5361ZM35.2891 13.8584C36.1035 13.6905 35.9966 14.6499 35.4443 14.7285C34.843 14.815 34.6439 13.9913 35.2891 13.8584ZM36.7402 11.8223C36.5762 11.1226 36.4427 10.2845 37.457 10.5557C37.7604 11.117 37.4155 11.8412 36.7402 11.8223Z" fill="#523F2B"/>
<path d="M1.54492 157C1.54492 156.271 1.74544 155.669 2.14648 155.195C2.55664 154.721 3.04427 154.484 3.60938 154.484C4.05599 154.484 4.45703 154.639 4.8125 154.949C4.0651 155.204 3.69141 155.824 3.69141 156.809C3.69141 157.802 4.12891 158.773 5.00391 159.721C5.87891 160.66 7.04557 161.425 8.50391 162.018C9.97135 162.61 11.5026 162.906 13.0977 162.906C14.0729 162.906 15.0117 162.815 15.9141 162.633C16.8164 162.441 17.6549 162.154 18.4297 161.771C19.2135 161.389 19.8926 160.924 20.4668 160.377C21.041 159.83 21.4922 159.174 21.8203 158.408C22.1484 157.643 22.3125 156.809 22.3125 155.906C22.3125 155.186 22.2077 154.535 21.998 153.951C21.7975 153.368 21.5423 152.871 21.2324 152.461C20.9225 152.051 20.4941 151.682 19.9473 151.354C19.4095 151.016 18.89 150.747 18.3887 150.547C17.8965 150.337 17.2676 150.141 16.502 149.959C15.7454 149.777 15.0801 149.635 14.5059 149.535C13.9316 149.435 13.2161 149.316 12.3594 149.18C11.5938 149.061 11.015 148.97 10.623 148.906C10.2311 148.842 9.68424 148.738 8.98242 148.592C8.2806 148.446 7.73828 148.314 7.35547 148.195C6.97266 148.068 6.49414 147.895 5.91992 147.676C5.3457 147.457 4.89909 147.229 4.58008 146.992C4.26107 146.755 3.91016 146.464 3.52734 146.117C3.14453 145.771 2.85286 145.402 2.65234 145.01C2.46094 144.609 2.29688 144.144 2.16016 143.615C2.02344 143.087 1.95508 142.517 1.95508 141.906C1.95508 140.849 2.17383 139.892 2.61133 139.035C3.04883 138.169 3.6276 137.454 4.34766 136.889C5.07682 136.314 5.92448 135.831 6.89062 135.439C7.86589 135.048 8.86849 134.77 9.89844 134.605C10.9284 134.432 11.9857 134.346 13.0703 134.346C14 134.346 14.9297 134.4 15.8594 134.51C16.7891 134.619 17.7096 134.801 18.6211 135.057C19.5417 135.303 20.3529 135.608 21.0547 135.973C21.7565 136.337 22.3216 136.802 22.75 137.367C23.1875 137.932 23.4062 138.557 23.4062 139.24C23.4062 140.225 23.0326 140.844 22.2852 141.1C22.0208 139.833 21.4102 138.725 20.4531 137.777C19.5052 136.829 18.3477 136.114 16.9805 135.631C15.6224 135.148 14.1641 134.906 12.6055 134.906C9.91667 134.906 7.80208 135.503 6.26172 136.697C4.72135 137.882 3.95117 139.573 3.95117 141.77C3.95117 142.326 4.05143 142.827 4.25195 143.273C4.46159 143.72 4.77604 144.103 5.19531 144.422C5.6237 144.741 6.07487 145.014 6.54883 145.242C7.0319 145.47 7.63346 145.675 8.35352 145.857C9.07357 146.04 9.73893 146.19 10.3496 146.309C10.9694 146.427 11.7168 146.564 12.5918 146.719C13.4212 146.855 14.0501 146.965 14.4785 147.047C14.9069 147.129 15.513 147.257 16.2969 147.43C17.0807 147.594 17.6914 147.753 18.1289 147.908C18.5664 148.054 19.1087 148.255 19.7559 148.51C20.403 148.765 20.9134 149.029 21.2871 149.303C21.6608 149.576 22.0664 149.913 22.5039 150.314C22.9505 150.715 23.2878 151.144 23.5156 151.6C23.7435 152.055 23.9349 152.584 24.0898 153.186C24.2539 153.787 24.3359 154.434 24.3359 155.127C24.3359 156.239 24.1263 157.26 23.707 158.189C23.2878 159.11 22.7181 159.894 21.998 160.541C21.278 161.179 20.4349 161.721 19.4688 162.168C18.5117 162.615 17.4954 162.943 16.4199 163.152C15.3444 163.362 14.237 163.467 13.0977 163.467C10.8372 163.467 8.82747 163.198 7.06836 162.66C5.31836 162.113 3.96029 161.352 2.99414 160.377C2.02799 159.393 1.54492 158.267 1.54492 157ZM27.8633 162.906V134.906H30.0781V146.445C30.0781 146.965 30.224 147.225 30.5156 147.225C30.6979 147.225 30.903 147.124 31.1309 146.924C34.3574 144.117 38.6732 140.111 44.0781 134.906H47.5781L32.1973 146.773C31.86 147.029 31.7188 147.238 31.7734 147.402C31.8281 147.566 32.0651 147.648 32.4844 147.648H33.0723C33.6191 147.648 34.1387 147.726 34.6309 147.881C35.123 148.027 35.6061 148.268 36.0801 148.605C36.554 148.943 37.0007 149.312 37.4199 149.713C37.8392 150.114 38.2995 150.638 38.8008 151.285C39.3021 151.923 39.7715 152.548 40.209 153.158C40.6556 153.769 41.1888 154.521 41.8086 155.414C42.1641 155.924 42.4329 156.312 42.6152 156.576C43.554 157.925 44.5658 159.183 45.6504 160.35C46.7441 161.507 47.6738 162.359 48.4395 162.906H45.1309C44.5384 162.514 43.8958 161.94 43.2031 161.184C42.5104 160.418 41.8451 159.593 41.207 158.709C40.569 157.816 39.9128 156.872 39.2383 155.879C38.5638 154.876 37.8939 153.924 37.2285 153.021C36.5723 152.11 35.9251 151.29 35.2871 150.561C34.6582 149.822 34.0202 149.234 33.373 148.797C32.7259 148.35 32.1198 148.127 31.5547 148.127H31.3359C30.4974 148.154 30.0781 148.619 30.0781 149.521L30.1055 162.906H27.8633ZM51.2422 162.906V134.906H53.4844V162.906H51.2422ZM57.9688 162.906V134.906H60.2656C65.4518 142.262 71.4036 150.679 78.1211 160.158C78.3216 160.441 78.4993 160.582 78.6543 160.582C78.873 160.582 78.9688 160.34 78.9414 159.857L77.2598 134.906H79.6113V162.906H77.3691C76.1478 161.184 73.5228 157.492 69.4941 151.832C65.4746 146.163 62.125 141.437 59.4453 137.654C59.2448 137.372 59.0671 137.23 58.9121 137.23C58.7025 137.23 58.6113 137.472 58.6387 137.955L60.3203 162.906H57.9688ZM84.082 134.906H96.9609C97.9453 134.906 98.8522 135.007 99.6816 135.207C100.52 135.408 101.231 135.672 101.814 136C102.407 136.328 102.931 136.72 103.387 137.176C103.852 137.622 104.225 138.087 104.508 138.57C104.79 139.044 105.023 139.55 105.205 140.088C105.396 140.617 105.524 141.109 105.588 141.564C105.661 142.02 105.697 142.462 105.697 142.891C105.697 143.319 105.661 143.761 105.588 144.217C105.524 144.673 105.396 145.165 105.205 145.693C105.023 146.222 104.79 146.728 104.508 147.211C104.225 147.685 103.852 148.15 103.387 148.605C102.931 149.052 102.407 149.439 101.814 149.768C101.231 150.096 100.52 150.36 99.6816 150.561C98.8522 150.761 97.9453 150.861 96.9609 150.861H86.3242V162.906H84.082V134.906ZM86.3242 148.906C86.3242 149.326 86.4518 149.663 86.707 149.918C86.9622 150.173 87.2995 150.301 87.7188 150.301H94.5C97.2617 150.301 99.3717 149.649 100.83 148.346C102.298 147.033 103.031 145.215 103.031 142.891C103.031 140.566 102.298 138.743 100.83 137.422C99.3717 136.1 97.2617 135.439 94.5 135.439C93.6797 135.439 92.4355 135.444 90.7676 135.453C89.0996 135.462 88.1107 135.467 87.8008 135.467C87.2721 135.467 86.8939 135.604 86.666 135.877C86.4382 136.141 86.3242 136.638 86.3242 137.367V148.906ZM109.457 162.906V134.906H128.857V137.395C127.417 136.911 125.07 136.469 121.816 136.068C118.572 135.667 115.682 135.467 113.148 135.467C112.62 135.467 112.242 135.604 112.014 135.877C111.786 136.141 111.672 136.638 111.672 137.367V146.213C111.672 146.632 111.799 146.974 112.055 147.238C112.31 147.493 112.647 147.621 113.066 147.621H126.109V149.973C124.432 149.562 122.227 149.18 119.492 148.824C116.758 148.469 114.625 148.291 113.094 148.291C112.665 148.291 112.324 148.396 112.068 148.605C111.822 148.815 111.699 149.12 111.699 149.521L111.672 160.445C111.672 161.174 111.786 161.676 112.014 161.949C112.242 162.214 112.62 162.346 113.148 162.346C115.682 162.346 118.572 162.145 121.816 161.744C125.07 161.343 127.417 160.901 128.857 160.418V162.906H109.457ZM132.781 162.906V134.906H135.078C140.264 142.262 146.216 150.679 152.934 160.158C153.134 160.441 153.312 160.582 153.467 160.582C153.686 160.582 153.781 160.34 153.754 159.857L152.072 134.906H154.424V162.906H152.182C150.96 161.184 148.335 157.492 144.307 151.832C140.287 146.163 136.938 141.437 134.258 137.654C134.057 137.372 133.88 137.23 133.725 137.23C133.515 137.23 133.424 137.472 133.451 137.955L135.133 162.906H132.781ZM178.773 161.758C176.987 162.523 175.109 162.906 173.141 162.906C171.172 162.906 169.29 162.523 167.494 161.758C165.708 160.983 164.163 159.949 162.859 158.654C161.565 157.351 160.531 155.806 159.756 154.02C158.99 152.224 158.607 150.342 158.607 148.373C158.607 146.404 158.99 144.527 159.756 142.74C160.531 140.945 161.565 139.4 162.859 138.105C164.163 136.802 165.708 135.768 167.494 135.002C169.29 134.227 171.172 133.84 173.141 133.84C175.109 133.84 176.987 134.227 178.773 135.002C180.569 135.768 182.114 136.802 183.408 138.105C184.712 139.4 185.746 140.945 186.512 142.74C187.286 144.527 187.674 146.404 187.674 148.373C187.674 150.342 187.286 152.224 186.512 154.02C185.746 155.806 184.712 157.351 183.408 158.654C182.114 159.949 180.569 160.983 178.773 161.758ZM160.221 142.973C159.482 144.695 159.113 146.505 159.113 148.4C159.113 150.296 159.482 152.11 160.221 153.842C160.959 155.564 161.952 157.055 163.201 158.312C164.459 159.561 165.949 160.555 167.672 161.293C169.404 162.031 171.217 162.4 173.113 162.4C175.009 162.4 176.818 162.031 178.541 161.293C180.273 160.555 181.763 159.561 183.012 158.312C184.27 157.055 185.268 155.564 186.006 153.842C186.744 152.11 187.113 150.296 187.113 148.4C187.113 146.505 186.744 144.695 186.006 142.973C185.268 141.241 184.27 139.751 183.012 138.502C181.763 137.244 180.273 136.246 178.541 135.508C176.818 134.77 175.009 134.4 173.113 134.4C171.217 134.4 169.404 134.77 167.672 135.508C165.949 136.246 164.459 137.244 163.201 138.502C161.952 139.751 160.959 141.241 160.221 142.973ZM165.895 138.037H175.109C176.085 138.037 176.951 138.174 177.707 138.447C178.473 138.721 179.074 139.062 179.512 139.473C179.958 139.874 180.323 140.343 180.605 140.881C180.897 141.419 181.093 141.92 181.193 142.385C181.294 142.85 181.344 143.305 181.344 143.752C181.344 144.199 181.294 144.65 181.193 145.105C181.093 145.561 180.897 146.058 180.605 146.596C180.323 147.124 179.958 147.594 179.512 148.004C179.074 148.405 178.473 148.747 177.707 149.029C176.951 149.303 176.085 149.449 175.109 149.467H174.521C174.376 149.467 174.271 149.48 174.207 149.508C174.143 149.526 174.116 149.562 174.125 149.617C174.134 149.663 174.171 149.717 174.234 149.781C174.298 149.845 174.394 149.927 174.521 150.027C174.85 150.283 175.21 150.629 175.602 151.066C175.993 151.495 176.331 151.891 176.613 152.256C176.905 152.62 177.329 153.176 177.885 153.924C178.031 154.115 178.14 154.261 178.213 154.361C178.787 155.136 179.421 155.861 180.113 156.535C180.806 157.21 181.403 157.72 181.904 158.066H179.635C179.124 157.757 178.55 157.246 177.912 156.535C177.283 155.815 176.682 155.068 176.107 154.293C175.542 153.518 174.973 152.762 174.398 152.023C173.833 151.276 173.268 150.665 172.703 150.191C172.147 149.708 171.65 149.467 171.213 149.467H169.422V149.043H173.346C175.314 149.043 176.823 148.578 177.871 147.648C178.919 146.71 179.443 145.411 179.443 143.752C179.443 142.084 178.919 140.785 177.871 139.855C176.832 138.926 175.324 138.461 173.346 138.461H168.52C168.146 138.461 167.882 138.543 167.727 138.707C167.572 138.862 167.494 139.199 167.494 139.719V158.066H165.895V138.037ZM4.59375 201.906H2.24219V173.906H4.53906L13.7812 191.215C13.9727 191.589 14.1868 191.775 14.4238 191.775C14.6426 191.775 14.8477 191.579 15.0391 191.188L23.1328 173.906H25.7031V201.906H23.3516V176.955C23.3516 176.718 23.3197 176.536 23.2559 176.408C23.1921 176.271 23.11 176.203 23.0098 176.203C22.8548 176.203 22.6999 176.354 22.5449 176.654C22.3991 176.919 21.5924 178.614 20.125 181.74C18.6667 184.857 17.2402 187.911 15.8457 190.9L13.7539 195.385C7.34635 183.363 4.0013 177.119 3.71875 176.654C3.5638 176.354 3.39974 176.203 3.22656 176.203C3.1263 176.203 3.04427 176.271 2.98047 176.408C2.92578 176.545 2.90299 176.727 2.91211 176.955L4.59375 201.906ZM30.1875 201.906V173.906H32.4297V201.906H30.1875ZM36.7773 192.773C36.3034 191.242 36.0664 189.62 36.0664 187.906C36.0664 186.193 36.3034 184.575 36.7773 183.053C37.2513 181.521 37.9167 180.173 38.7734 179.006C39.6302 177.83 40.6328 176.818 41.7812 175.971C42.9388 175.114 44.2194 174.462 45.623 174.016C47.0358 173.569 48.5078 173.346 50.0391 173.346C51.3333 173.346 52.5957 173.464 53.8262 173.701C55.0658 173.938 56.1914 174.275 57.2031 174.713C58.224 175.15 59.0443 175.725 59.6641 176.436C60.2839 177.146 60.5938 177.935 60.5938 178.801C60.5938 179.102 60.5482 179.361 60.457 179.58C60.375 179.79 60.2702 179.945 60.1426 180.045C60.0241 180.136 59.901 180.209 59.7734 180.264C59.6549 180.309 59.5547 180.332 59.4727 180.332L59.3359 180.346C59.2266 179.571 58.903 178.796 58.3652 178.021C57.8275 177.247 57.1484 176.559 56.3281 175.957C55.5169 175.346 54.5553 174.854 53.4434 174.48C52.3314 174.098 51.1966 173.906 50.0391 173.906C48.4349 173.906 46.9128 174.248 45.4727 174.932C44.0417 175.606 42.7975 176.545 41.7402 177.748C40.6829 178.951 39.8444 180.432 39.2246 182.191C38.6139 183.951 38.3086 185.855 38.3086 187.906C38.3086 189.957 38.6139 191.862 39.2246 193.621C39.8444 195.38 40.6829 196.861 41.7402 198.064C42.7975 199.268 44.0417 200.211 45.4727 200.895C46.9128 201.569 48.4349 201.906 50.0391 201.906C51.0964 201.906 52.1673 201.733 53.252 201.387C54.3457 201.04 55.3529 200.576 56.2734 199.992C57.194 199.4 58.0371 198.748 58.8027 198.037C59.5775 197.317 60.2428 196.561 60.7988 195.768V198.912C60.1152 199.942 58.7526 200.794 56.7109 201.469C54.6693 202.134 52.4453 202.467 50.0391 202.467C48.5078 202.467 47.0358 202.243 45.623 201.797C44.2194 201.35 42.9388 200.703 41.7812 199.855C40.6328 198.999 39.6302 197.987 38.7734 196.82C37.9167 195.645 37.2513 194.296 36.7773 192.773ZM64.4219 201.906V173.906H77.3008C78.2852 173.906 79.1921 174.007 80.0215 174.207C80.86 174.408 81.571 174.672 82.1543 175C82.7467 175.328 83.2708 175.72 83.7266 176.176C84.1914 176.622 84.5651 177.087 84.8477 177.57C85.1302 178.044 85.3626 178.55 85.5449 179.088C85.7363 179.617 85.8639 180.109 85.9277 180.564C86.0007 181.02 86.0371 181.462 86.0371 181.891C86.0371 182.319 86.0007 182.761 85.9277 183.217C85.8639 183.663 85.7363 184.151 85.5449 184.68C85.3626 185.208 85.1302 185.71 84.8477 186.184C84.5651 186.658 84.1914 187.122 83.7266 187.578C83.2708 188.025 82.7467 188.412 82.1543 188.74C81.571 189.068 80.86 189.337 80.0215 189.547C79.1921 189.747 78.2852 189.852 77.3008 189.861H76.4941C76.2845 189.861 76.1341 189.88 76.043 189.916C75.9518 189.943 75.9154 189.993 75.9336 190.066C75.9518 190.13 76.002 190.208 76.084 190.299C76.1751 190.39 76.3118 190.508 76.4941 190.654C76.959 191.019 77.4694 191.511 78.0254 192.131C78.5814 192.751 79.0645 193.329 79.4746 193.867C79.8939 194.405 80.4954 195.198 81.2793 196.246C81.3249 196.31 81.3613 196.365 81.3887 196.41C81.4251 196.447 81.4661 196.497 81.5117 196.561C81.5573 196.615 81.5983 196.67 81.6348 196.725C82.446 197.818 83.3392 198.844 84.3145 199.801C85.2897 200.749 86.1237 201.451 86.8164 201.906H83.6582C83.1296 201.587 82.5553 201.118 81.9355 200.498C81.3158 199.869 80.7233 199.195 80.1582 198.475C79.5931 197.745 79.0098 196.98 78.4082 196.178C77.8066 195.367 77.2188 194.592 76.6445 193.854C76.0703 193.115 75.5098 192.445 74.9629 191.844C74.4251 191.242 73.8828 190.764 73.3359 190.408C72.7982 190.044 72.3014 189.861 71.8457 189.861H69.3438V189.301H74.8398C77.6016 189.301 79.7116 188.649 81.1699 187.346C82.6374 186.033 83.3711 184.215 83.3711 181.891C83.3711 179.566 82.6374 177.748 81.1699 176.436C79.7116 175.123 77.6016 174.467 74.8398 174.467H68.1133C67.5664 174.467 67.1836 174.581 66.9648 174.809C66.7461 175.036 66.6367 175.51 66.6367 176.23L66.6641 201.906H64.4219ZM102.758 202.467C101.227 202.467 99.7546 202.243 98.3418 201.797C96.9382 201.35 95.6576 200.703 94.5 199.855C93.3516 198.999 92.349 197.987 91.4922 196.82C90.6354 195.645 89.9701 194.296 89.4961 192.773C89.0221 191.242 88.7852 189.62 88.7852 187.906C88.7852 186.193 89.0221 184.575 89.4961 183.053C89.9701 181.521 90.6354 180.173 91.4922 179.006C92.349 177.83 93.3516 176.818 94.5 175.971C95.6576 175.114 96.9382 174.462 98.3418 174.016C99.7546 173.569 101.227 173.346 102.758 173.346C104.672 173.346 106.481 173.701 108.186 174.412C109.899 175.114 111.385 176.089 112.643 177.338C113.91 178.587 114.912 180.127 115.65 181.959C116.389 183.791 116.758 185.773 116.758 187.906C116.758 190.039 116.389 192.021 115.65 193.854C114.912 195.686 113.91 197.226 112.643 198.475C111.385 199.723 109.899 200.703 108.186 201.414C106.481 202.116 104.672 202.467 102.758 202.467ZM91.9434 182.191C91.3327 183.951 91.0273 185.855 91.0273 187.906C91.0273 189.957 91.3327 191.862 91.9434 193.621C92.5632 195.38 93.4017 196.861 94.459 198.064C95.5163 199.268 96.7604 200.211 98.1914 200.895C99.6315 201.569 101.154 201.906 102.758 201.906C104.362 201.906 105.884 201.569 107.324 200.895C108.764 200.211 110.013 199.268 111.07 198.064C112.137 196.861 112.98 195.38 113.6 193.621C114.219 191.862 114.529 189.957 114.529 187.906C114.529 185.855 114.219 183.951 113.6 182.191C112.98 180.432 112.137 178.951 111.07 177.748C110.013 176.545 108.764 175.606 107.324 174.932C105.884 174.248 104.362 173.906 102.758 173.906C101.154 173.906 99.6315 174.248 98.1914 174.932C96.7604 175.606 95.5163 176.545 94.459 177.748C93.4017 178.951 92.5632 180.432 91.9434 182.191ZM120.395 201.906V173.906H122.691C127.878 181.262 133.829 189.679 140.547 199.158C140.747 199.441 140.925 199.582 141.08 199.582C141.299 199.582 141.395 199.34 141.367 198.857L139.686 173.906H142.037V201.906H139.795C138.574 200.184 135.949 196.492 131.92 190.832C127.9 185.163 124.551 180.437 121.871 176.654C121.671 176.372 121.493 176.23 121.338 176.23C121.128 176.23 121.037 176.472 121.064 176.955L122.746 201.906H120.395ZM146.508 201.906V173.906H165.908V176.395C164.468 175.911 162.121 175.469 158.867 175.068C155.622 174.667 152.733 174.467 150.199 174.467C149.671 174.467 149.292 174.604 149.064 174.877C148.837 175.141 148.723 175.638 148.723 176.367V185.213C148.723 185.632 148.85 185.974 149.105 186.238C149.361 186.493 149.698 186.621 150.117 186.621H163.16V188.973C161.483 188.562 159.277 188.18 156.543 187.824C153.809 187.469 151.676 187.291 150.145 187.291C149.716 187.291 149.374 187.396 149.119 187.605C148.873 187.815 148.75 188.12 148.75 188.521L148.723 199.445C148.723 200.174 148.837 200.676 149.064 200.949C149.292 201.214 149.671 201.346 150.199 201.346C152.733 201.346 155.622 201.145 158.867 200.744C162.121 200.343 164.468 199.901 165.908 199.418V201.906H146.508ZM169.832 201.906V173.906H189.232V176.395C187.792 175.911 185.445 175.469 182.191 175.068C178.947 174.667 176.057 174.467 173.523 174.467C172.995 174.467 172.617 174.604 172.389 174.877C172.161 175.141 172.047 175.638 172.047 176.367V185.213C172.047 185.632 172.174 185.974 172.43 186.238C172.685 186.493 173.022 186.621 173.441 186.621H186.484V188.973C184.807 188.562 182.602 188.18 179.867 187.824C177.133 187.469 175 187.291 173.469 187.291C173.04 187.291 172.699 187.396 172.443 187.605C172.197 187.815 172.074 188.12 172.074 188.521L172.047 199.445C172.047 200.174 172.161 200.676 172.389 200.949C172.617 201.214 172.995 201.346 173.523 201.346C176.057 201.346 178.947 201.145 182.191 200.744C185.445 200.343 187.792 199.901 189.232 199.418V201.906H169.832ZM193.156 173.906H202.002C203.852 173.906 205.593 174.257 207.225 174.959C208.865 175.661 210.273 176.627 211.449 177.857C212.625 179.079 213.55 180.56 214.225 182.301C214.908 184.042 215.25 185.91 215.25 187.906C215.25 189.902 214.908 191.771 214.225 193.512C213.55 195.253 212.625 196.738 211.449 197.969C210.273 199.19 208.865 200.152 207.225 200.854C205.593 201.555 203.852 201.906 202.002 201.906H193.156V173.906ZM195.398 175.807C195.398 176.326 195.394 180.09 195.385 187.1C195.376 194.1 195.371 198.26 195.371 199.582C195.371 200.311 195.485 200.812 195.713 201.086C195.941 201.35 196.319 201.482 196.848 201.482C197.139 201.482 197.718 201.487 198.584 201.496C199.45 201.505 200.001 201.51 200.238 201.51C201.669 201.51 203 201.327 204.23 200.963C205.47 200.589 206.541 200.079 207.443 199.432C208.346 198.775 209.148 198.014 209.85 197.148C210.551 196.283 211.117 195.339 211.545 194.318C211.973 193.298 212.297 192.249 212.516 191.174C212.734 190.098 212.844 189.009 212.844 187.906C212.844 186.576 212.693 185.277 212.393 184.01C212.092 182.743 211.609 181.526 210.943 180.359C210.278 179.193 209.462 178.176 208.496 177.311C207.539 176.436 206.35 175.738 204.928 175.219C203.515 174.699 201.952 174.439 200.238 174.439C200.001 174.439 199.45 174.444 198.584 174.453C197.718 174.462 197.139 174.467 196.848 174.467C196.392 174.467 196.05 174.562 195.822 174.754C195.594 174.945 195.453 175.296 195.398 175.807ZM238.287 201.906H218.887V173.906H221.102V199.445C221.102 200.174 221.215 200.676 221.443 200.949C221.671 201.214 222.049 201.346 222.578 201.346C225.112 201.346 228.001 201.145 231.246 200.744C234.5 200.343 236.847 199.901 238.287 199.418V201.906ZM241.773 201.906V173.906H244.016V201.906H241.773ZM248.5 201.906V173.906H250.797C255.983 181.262 261.935 189.679 268.652 199.158C268.853 199.441 269.031 199.582 269.186 199.582C269.404 199.582 269.5 199.34 269.473 198.857L267.791 173.906H270.143V201.906H267.9C266.679 200.184 264.054 196.492 260.025 190.832C256.006 185.163 252.656 180.437 249.977 176.654C249.776 176.372 249.598 176.23 249.443 176.23C249.234 176.23 249.143 176.472 249.17 176.955L250.852 201.906H248.5ZM274.477 192.773C274.003 191.242 273.766 189.62 273.766 187.906C273.766 186.193 274.003 184.575 274.477 183.053C274.951 181.521 275.616 180.173 276.473 179.006C277.329 177.83 278.332 176.818 279.48 175.971C280.638 175.114 281.919 174.462 283.322 174.016C284.735 173.569 286.207 173.346 287.738 173.346C289.033 173.346 290.295 173.464 291.525 173.701C292.765 173.938 293.891 174.275 294.902 174.713C295.923 175.15 296.743 175.725 297.363 176.436C297.983 177.146 298.293 177.935 298.293 178.801C298.293 179.102 298.247 179.361 298.156 179.58C298.074 179.79 297.969 179.945 297.842 180.045C297.723 180.136 297.6 180.209 297.473 180.264C297.354 180.309 297.254 180.332 297.172 180.332L297.035 180.346C296.926 179.571 296.602 178.796 296.064 178.021C295.527 177.247 294.848 176.559 294.027 175.957C293.216 175.346 292.255 174.854 291.143 174.48C290.031 174.098 288.896 173.906 287.738 173.906C286.134 173.906 284.612 174.248 283.172 174.932C281.741 175.606 280.497 176.545 279.439 177.748C278.382 178.951 277.544 180.432 276.924 182.191C276.313 183.951 276.008 185.855 276.008 187.906C276.008 189.957 276.313 191.862 276.924 193.621C277.544 195.38 278.382 196.861 279.439 198.064C280.497 199.268 281.741 200.211 283.172 200.895C284.612 201.569 286.134 201.906 287.738 201.906C288.367 201.906 289.051 201.824 289.789 201.66C290.527 201.487 291.266 201.232 292.004 200.895C292.751 200.557 293.426 200.161 294.027 199.705C294.638 199.249 295.135 198.702 295.518 198.064C295.9 197.426 296.092 196.757 296.092 196.055V186.73H298.498V198.912C297.814 199.942 296.452 200.794 294.41 201.469C292.368 202.134 290.145 202.467 287.738 202.467C286.207 202.467 284.735 202.243 283.322 201.797C281.919 201.35 280.638 200.703 279.48 199.855C278.332 198.999 277.329 197.987 276.473 196.82C275.616 195.645 274.951 194.296 274.477 192.773Z" fill="#383637"/>
<path d="M1.808 237.906V226.706H2.784V237.906H1.808ZM6.24175 237.906V229.634H7.02575L7.10575 231.234C7.76175 230.05 8.91375 229.426 10.2418 229.426C12.4018 229.426 13.7298 230.946 13.7298 233.33V237.906H12.8018V233.41C12.8018 231.506 11.7778 230.322 10.1298 230.322C8.38575 230.322 7.16975 231.65 7.16975 233.618V237.906H6.24175ZM17.4793 228.674C17.4793 226.786 18.4073 225.858 20.2473 225.858H21.5433V226.738H20.3273C18.9833 226.738 18.4073 227.33 18.4073 228.738V229.634H21.4633V230.482H18.4073V237.906H17.4793V230.482H15.5913V229.634H17.4793V228.674ZM26.7175 238.114C24.1575 238.114 22.3655 236.322 22.3655 233.762C22.3655 231.218 24.1575 229.426 26.7175 229.426C29.2615 229.426 31.0535 231.218 31.0535 233.762C31.0535 236.322 29.2615 238.114 26.7175 238.114ZM23.2935 233.762C23.2935 235.81 24.6855 237.218 26.7175 237.218C28.7335 237.218 30.1255 235.81 30.1255 233.762C30.1255 231.73 28.7335 230.322 26.7175 230.322C24.6855 230.322 23.2935 231.73 23.2935 233.762ZM33.6324 237.906V229.634H34.4164L34.5124 231.49C35.0724 230.242 36.0164 229.634 37.5524 229.634H38.2404V230.498H37.5204C35.7444 230.498 34.5604 231.586 34.5604 234.098V237.906H33.6324ZM40.5699 237.906V229.634H41.3539L41.4339 230.978C42.0099 229.97 43.0179 229.426 44.2979 229.426C45.7379 229.426 46.8419 230.146 47.3219 231.41C47.8819 230.146 49.0179 229.426 50.4739 229.426C52.5539 229.426 53.8979 230.85 53.8979 233.154V237.906H52.9699V233.298C52.9699 231.458 51.9459 230.322 50.3619 230.322C48.7459 230.322 47.6899 231.49 47.6899 233.362V237.906H46.7619V233.298C46.7619 231.458 45.7539 230.322 44.1699 230.322C42.5539 230.322 41.4979 231.49 41.4979 233.362V237.906H40.5699ZM60.5114 238.114C57.9994 238.114 56.2874 236.338 56.2874 233.762C56.2874 231.202 58.0154 229.426 60.5274 229.426C63.1354 229.426 64.8154 231.346 64.7514 234.146H57.2314C57.3914 236.018 58.6714 237.234 60.5114 237.234C61.8554 237.234 62.9274 236.61 63.4714 235.538L64.5114 235.554C63.8714 237.138 62.3674 238.114 60.5114 238.114ZM57.2314 233.33H63.8394C63.6154 231.458 62.3354 230.306 60.5274 230.306C58.6874 230.306 57.3914 231.506 57.2314 233.33ZM70.8086 238.114C68.3126 238.114 66.5686 236.274 66.5686 233.762C66.5686 231.25 68.3126 229.426 70.8086 229.426C72.3286 229.426 73.5606 230.098 74.2966 231.17V226.066H75.2246V237.906H74.4566L74.3446 236.274C73.6246 237.41 72.3606 238.114 70.8086 238.114ZM67.4966 233.762C67.4966 235.794 68.8886 237.218 70.9206 237.218C72.9366 237.218 74.3286 235.794 74.3286 233.762C74.3286 231.746 72.9366 230.322 70.9206 230.322C68.8886 230.322 67.4966 231.746 67.4966 233.762ZM87.4071 238.114C84.1111 238.114 81.7271 235.714 81.7271 232.306C81.7271 228.898 84.1111 226.498 87.4071 226.498C89.9671 226.498 92.0631 227.986 92.7991 230.338H91.7751C91.1351 228.562 89.4711 227.474 87.4231 227.474C84.6871 227.474 82.7191 229.442 82.7191 232.306C82.7191 235.17 84.6871 237.138 87.4231 237.138C89.5191 237.138 91.2471 236.002 91.8711 234.146H92.8951C92.2071 236.562 90.0471 238.114 87.4071 238.114ZM99.03 238.114C96.47 238.114 94.678 236.322 94.678 233.762C94.678 231.218 96.47 229.426 99.03 229.426C101.574 229.426 103.366 231.218 103.366 233.762C103.366 236.322 101.574 238.114 99.03 238.114ZM95.606 233.762C95.606 235.81 96.998 237.218 99.03 237.218C101.046 237.218 102.438 235.81 102.438 233.762C102.438 231.73 101.046 230.322 99.03 230.322C96.998 230.322 95.606 231.73 95.606 233.762ZM105.945 237.906V229.634H106.729L106.809 231.234C107.465 230.05 108.617 229.426 109.945 229.426C112.105 229.426 113.433 230.946 113.433 233.33V237.906H112.505V233.41C112.505 231.506 111.481 230.322 109.833 230.322C108.089 230.322 106.873 231.65 106.873 233.618V237.906H105.945ZM119.402 238.114C117.306 238.114 115.978 237.058 115.914 235.41H116.826C116.922 236.578 117.834 237.266 119.418 237.266C120.874 237.266 121.754 236.706 121.754 235.794C121.754 234.93 120.97 234.402 119.21 234.098C117.05 233.73 116.074 232.962 116.074 231.698C116.074 230.29 117.274 229.426 119.21 229.426C121.162 229.426 122.394 230.354 122.522 231.938H121.594C121.498 230.85 120.65 230.258 119.21 230.258C117.834 230.258 117.002 230.818 117.002 231.714C117.002 232.53 117.69 232.978 119.53 233.33C121.626 233.73 122.666 234.562 122.666 235.81C122.666 237.202 121.402 238.114 119.402 238.114ZM128.855 238.114C126.343 238.114 124.631 236.338 124.631 233.762C124.631 231.202 126.359 229.426 128.871 229.426C131.479 229.426 133.159 231.346 133.095 234.146H125.575C125.735 236.018 127.015 237.234 128.855 237.234C130.199 237.234 131.271 236.61 131.815 235.538L132.855 235.554C132.215 237.138 130.711 238.114 128.855 238.114ZM125.575 233.33H132.183C131.959 231.458 130.679 230.306 128.871 230.306C127.031 230.306 125.735 231.506 125.575 233.33ZM135.632 237.906V229.634H136.416L136.496 231.234C137.152 230.05 138.304 229.426 139.632 229.426C141.792 229.426 143.12 230.946 143.12 233.33V237.906H142.192V233.41C142.192 231.506 141.168 230.322 139.52 230.322C137.776 230.322 136.56 231.65 136.56 233.618V237.906H135.632ZM149.336 237.906C147.576 237.906 146.632 236.914 146.632 235.042V230.482H144.824V229.634H145.88C146.504 229.634 146.68 229.474 146.744 228.866L146.824 227.602H147.56V229.634H150.424V230.482H147.56V235.01C147.56 236.37 148.12 237.01 149.368 237.01H150.536V237.906H149.336ZM160.196 237.906C158.436 237.906 157.492 236.914 157.492 235.042V230.482H155.684V229.634H156.74C157.364 229.634 157.539 229.474 157.604 228.866L157.684 227.602H158.42V229.634H161.284V230.482H158.42V235.01C158.42 236.37 158.98 237.01 160.228 237.01H161.396V237.906H160.196ZM167.108 238.114C164.548 238.114 162.756 236.322 162.756 233.762C162.756 231.218 164.548 229.426 167.108 229.426C169.652 229.426 171.444 231.218 171.444 233.762C171.444 236.322 169.652 238.114 167.108 238.114ZM163.684 233.762C163.684 235.81 165.076 237.218 167.108 237.218C169.124 237.218 170.516 235.81 170.516 233.762C170.516 231.73 169.124 230.322 167.108 230.322C165.076 230.322 163.684 231.73 163.684 233.762ZM179.902 237.906V227.634H176.046V226.706H184.734V227.634H180.862V237.906H179.902ZM185.242 237.906V229.634H186.026L186.122 231.49C186.682 230.242 187.626 229.634 189.162 229.634H189.85V230.498H189.13C187.354 230.498 186.17 231.586 186.17 234.098V237.906H185.242ZM195.043 238.114C192.531 238.114 190.819 236.338 190.819 233.762C190.819 231.202 192.547 229.426 195.059 229.426C197.667 229.426 199.347 231.346 199.283 234.146H191.763C191.923 236.018 193.203 237.234 195.043 237.234C196.387 237.234 197.459 236.61 198.003 235.538L199.043 235.554C198.403 237.138 196.899 238.114 195.043 238.114ZM191.763 233.33H198.371C198.147 231.458 196.867 230.306 195.059 230.306C193.219 230.306 191.923 231.506 191.763 233.33ZM204.303 238.034C202.383 238.034 201.183 237.09 201.183 235.57C201.183 234.098 202.303 233.17 203.999 233.17H207.647V232.578C207.647 231.202 206.639 230.29 205.103 230.29C203.855 230.29 202.879 230.93 202.543 231.922H201.599C201.999 230.386 203.327 229.426 205.087 229.426C207.151 229.426 208.575 230.69 208.575 232.53V237.906H207.807L207.711 236.482C206.991 237.474 205.775 238.034 204.303 238.034ZM202.111 235.554C202.111 236.562 202.959 237.202 204.335 237.202C206.255 237.202 207.663 236.002 207.663 234.338V233.986H204.031C202.895 233.986 202.111 234.61 202.111 235.554ZM214.789 237.906C213.029 237.906 212.085 236.914 212.085 235.042V230.482H210.277V229.634H211.333C211.957 229.634 212.133 229.474 212.197 228.866L212.277 227.602H213.013V229.634H215.877V230.482H213.013V235.01C213.013 236.37 213.573 237.01 214.821 237.01H215.989V237.906H214.789ZM218.476 237.906V229.634H219.26L219.34 230.978C219.916 229.97 220.924 229.426 222.204 229.426C223.644 229.426 224.748 230.146 225.228 231.41C225.788 230.146 226.924 229.426 228.38 229.426C230.46 229.426 231.804 230.85 231.804 233.154V237.906H230.876V233.298C230.876 231.458 229.852 230.322 228.268 230.322C226.652 230.322 225.596 231.49 225.596 233.362V237.906H224.668V233.298C224.668 231.458 223.66 230.322 222.076 230.322C220.46 230.322 219.404 231.49 219.404 233.362V237.906H218.476ZM238.418 238.114C235.906 238.114 234.194 236.338 234.194 233.762C234.194 231.202 235.922 229.426 238.434 229.426C241.042 229.426 242.722 231.346 242.658 234.146H235.138C235.298 236.018 236.578 237.234 238.418 237.234C239.762 237.234 240.834 236.61 241.378 235.538L242.418 235.554C241.778 237.138 240.274 238.114 238.418 238.114ZM235.138 233.33H241.746C241.522 231.458 240.242 230.306 238.434 230.306C236.594 230.306 235.298 231.506 235.138 233.33ZM245.195 237.906V229.634H245.979L246.059 231.234C246.715 230.05 247.867 229.426 249.195 229.426C251.355 229.426 252.683 230.946 252.683 233.33V237.906H251.755V233.41C251.755 231.506 250.731 230.322 249.083 230.322C247.339 230.322 246.123 231.65 246.123 233.618V237.906H245.195ZM258.899 237.906C257.139 237.906 256.195 236.914 256.195 235.042V230.482H254.387V229.634H255.443C256.067 229.634 256.243 229.474 256.307 228.866L256.387 227.602H257.123V229.634H259.987V230.482H257.123V235.01C257.123 236.37 257.683 237.01 258.931 237.01H260.099V237.906H258.899Z" fill="#5B5852"/>
</svg>
