<svg width="366" height="283" viewBox="0 0 366 283" fill="none" xmlns="http://www.w3.org/2000/svg">
<path d="M39.9453 0.321289C39.6338 1.16044 39.3391 1.99171 39.0156 2.74316C37.3342 6.65348 35.4723 10.4771 33.9385 14.4443C32.7574 17.4977 31.6991 20.6355 30.6328 23.7188C31.3354 23.7132 31.259 22.7499 31.4941 22.2021C31.6174 21.9172 32.0982 21.1689 32.3633 21.0469C32.7734 20.8598 33.5277 21.1803 33.4648 21.625C32.642 23.5828 32.2598 25.6845 31.5244 27.6748C30.9011 29.3615 30.3349 31.0402 29.7197 32.7432C27.8688 37.8601 25.5552 42.9445 23.8164 48.0615C21.3449 55.337 19.42 62.8133 16.6504 69.9912C15.4803 73.0229 14.8241 76.0493 13.8535 79.1162C13.2794 80.9276 12.3035 83.3685 12.041 85.1826C11.9864 85.5649 12.0908 85.9961 12.0088 86.3594C11.954 86.5953 11.5984 87.029 11.4727 87.3408C10.7727 89.0872 10.0205 92.7534 9.71973 94.6787C9.63498 95.2237 9.64093 96.753 9.46875 97.0488C9.30749 97.3226 9.13502 97.2523 9.08301 96.9678C8.99552 96.477 9.04434 95.0989 9.07715 94.543C9.17013 93.0326 9.56976 91.4976 9.78027 89.998C9.94699 88.8106 9.85908 88.6555 10.3184 87.5059C10.7776 86.3535 10.9012 85.4557 11.1035 84.249C12.2136 77.5973 14.6663 71.7294 16.375 65.2783C16.6949 64.0662 17.2227 62.3848 17.3184 61.1699C17.3266 61.0587 17.3944 60.7961 17.2197 60.8203C15.0243 69.0448 11.8476 76.9819 9.62207 85.1982C8.86474 87.9995 8.15387 90.8419 7.86133 93.7354C7.81217 94.2153 7.91834 94.7605 7.85547 95.2432C7.78431 95.7935 7.47853 96.4821 7.38281 97.0947C7.0192 99.4647 7.0871 103.687 7.98926 105.916C8.77393 107.855 9.73689 107.977 11.1641 109.219C11.6341 109.628 12.2528 110.357 12.9062 110.906H0V45.7666C0 22.4516 17.4142 3.20438 39.9453 0.321289ZM50.0527 77.2129C50.1184 77.137 50.441 76.6321 50.5586 76.7568C47.7972 82.1179 45.3284 87.7611 44.1035 93.6943C42.9005 99.5164 43.056 103.598 45.9678 108.889C46.3353 109.556 46.9382 110.255 47.6699 110.906H16.7666C18.7844 110.166 21.1762 109.112 22.8105 108.159C23.1084 107.986 24.3901 107.129 24.4922 106.896C24.5441 106.776 24.2899 106.675 24.3418 106.461C24.4214 106.133 25.1152 105.767 25.293 105.577C25.6483 105.198 25.8808 104.696 26.3125 104.271C26.5886 103.997 27.7477 103.018 28.0488 102.969C28.8827 102.833 30.157 103.831 30.1133 102.627C29.1618 102.041 29.5202 101.447 30.5127 101.371C30.7918 101.35 31.6414 101.821 31.5107 101.149C31.3494 100.32 31.1636 100.29 31.9072 99.6416C33.1402 98.5678 35.1169 97.4341 35.4014 95.6445C35.4369 95.4141 35.2016 95.2215 35.5186 94.9531C36.3169 94.2779 37.894 95.0664 38.3916 93.6699C38.4709 93.4503 38.4463 93.1356 38.5557 92.9512C38.6186 92.8454 38.8569 92.7883 38.9717 92.6338C39.3732 92.0832 39.0835 90.8335 39.1709 90.1611L38.5615 90.0088L39.1191 89.5586C39.3267 89.6426 39.2399 90.0244 39.2725 90.0576C39.3244 90.1119 39.8578 90.0332 39.959 89.9355C40.0385 89.855 40.234 89.2001 40.1855 89.1553H39.7285C39.5344 88.8109 40.0708 88.6075 40.2295 88.3418C40.3498 88.1385 40.355 87.8671 40.4697 87.6719C41.197 86.4489 42.4302 85.9171 43.3379 84.9707C43.6058 84.6914 43.756 84.3361 44.0977 84.0107C44.2917 83.8264 44.6309 83.6939 44.7568 83.5557C44.94 83.3523 44.9129 83.0536 45.0469 82.834C45.7523 81.6599 47.4198 80.4534 48.374 79.377C48.9755 78.6964 49.465 77.9071 50.0527 77.2129ZM47.9854 0C72.2842 1.13123 91.6377 21.188 91.6377 45.7666V110.906H62.749C63.428 110.409 63.8634 109.705 64.5977 109.181C65.6665 108.419 66.9378 108.08 67.9766 107.392C74.2649 103.21 80.7424 96.9481 85.6309 91.2236C87.438 89.1085 90.2399 86.0147 91.123 83.4658C91.3773 82.7337 91.6917 81.9826 91.6289 81.1963L91.6348 81.1904C91.4926 81.1796 91.3584 81.1902 91.2217 81.2363C90.8362 81.3719 88.4033 84.0919 87.9219 84.6182C82.2706 90.7873 77.1112 97.8434 69.9727 102.407C66.2571 104.783 62.4297 106.35 58.3916 108.062C56.579 108.829 52.9811 109.308 51.0508 108.988C49.2819 108.695 48.716 108.46 48.2539 106.719C47.8875 105.341 47.3264 102.261 47.3154 100.886C47.31 100.04 47.7477 98.9331 47.9062 98.0654C49.2624 90.5947 52.9266 81.6701 57.249 75.3682C59.2202 72.4913 61.178 70.7337 63.5264 68.2852C64.4858 67.2846 65.2292 66.0833 66.1641 65.0557C68.0751 62.9568 70.3718 61.2349 72.7285 59.6621L72.9502 59.6299C73.713 59.9905 74.4239 60.0558 74.957 60.7744C76.8786 63.3614 72.8762 67.1357 71.583 69.2236C71.4135 69.5599 71.3731 70.0757 71.6328 70.374C71.7726 70.5364 72.2416 70.6796 72.4658 70.7041C73.0973 70.7746 75.0087 70.7914 75.6104 70.6992C77.2945 70.4389 79.4707 66.0971 79.6895 64.5596C80.2854 60.3647 77.3085 57.5312 73.3525 56.9209C71.7834 56.6796 71.7937 56.994 70.5283 57.1865C68.8469 57.4441 68.0943 57.0377 66.3828 58.0166C62.7247 60.1156 57.8578 65.3436 55.3535 68.7549C54.0249 70.5662 53.0904 72.7115 51.625 74.333C50.5615 75.5126 49.3366 76.5809 48.2676 77.7578C46.4221 79.7916 44.7673 82.0095 42.8809 84.0107C41.3006 85.692 39.4257 87.2436 37.8975 88.9492C34.696 92.5205 31.8002 95.4244 28.041 98.4316C27.2563 99.058 26.6081 99.8472 25.8535 100.498C23.2809 102.708 19.9129 105.255 16.9355 106.879C15.6123 107.6 14.1849 108.647 13.3701 106.824C12.5583 105.004 12.7682 100.744 12.9404 98.6836C13.0171 97.7673 13.4496 96.9052 13.5371 95.9482C13.6574 94.6385 13.5479 93.6317 13.9307 92.3057C14.286 91.0776 14.521 90.3237 14.7998 89.0332C15.2919 86.7581 16.0161 85.1254 16.6504 83.0049C17.7549 79.3143 18.5732 75.4827 19.8555 71.8652C21.9743 65.8861 23.7152 59.7791 25.8477 53.8135C28.5325 46.3075 31.683 38.9531 34.417 31.458C35.2481 29.1748 36.1558 26.9319 37.0088 24.6514C38.9035 19.5723 40.8413 14.4411 43.25 9.56543C44.2233 7.59137 45.399 6.17858 46.4707 4.3916C46.8665 3.73277 47.6789 1.32218 47.9854 0ZM8.88867 99.9854H8.8916L8.58301 100.04C8.38895 99.7039 8.60436 99.3915 8.98145 99.3398L8.88867 99.9854ZM37.0908 91.4736C37.2136 91.4086 37.2818 91.3355 37.4482 91.376C37.4018 91.7013 37.5632 92.2946 37.3477 92.5361L37.1641 92.6699C36.8562 92.8839 36.271 93.273 36.1992 93.3096C35.8958 93.4641 35.5509 93.5183 35.2119 93.4912C34.9774 93.282 36.8229 91.6119 37.0908 91.4736ZM47.4385 87.3135C47.2581 87.7933 46.873 86.7859 47.4111 86.8369L47.4385 87.3135ZM47.7207 85.2256C47.9665 85.1797 48.0021 85.4263 48.125 85.5781H48.1221L47.9717 85.7275L47.7314 85.5645L47.7207 85.2256ZM48.4287 83.3086C48.5244 83.2463 48.7645 83.3306 48.8301 83.458L48.4775 84.1113C48.2126 84.0297 48.3713 83.3436 48.4287 83.3057V83.3086ZM50.46 79.9814C50.4846 80.3584 50.4815 80.9518 49.9512 80.8867C49.9293 80.461 49.9187 79.9815 50.46 79.9814ZM51.2666 77.9229C51.286 77.8229 51.5444 77.8499 51.5752 77.8662C51.7801 77.999 51.5594 78.5652 51.3271 78.666C51.0565 78.4708 51.19 78.164 51.2666 77.9199V77.9229ZM53.3086 74.5361C53.2813 74.8588 53.4396 75.0921 53.3467 75.4229C53.2236 75.8648 52.6884 76.2196 52.5381 75.6475C52.454 75.3272 53.1908 74.3957 53.3086 74.5361ZM35.2891 13.8584C36.1035 13.6905 35.9966 14.6499 35.4443 14.7285C34.843 14.815 34.6439 13.9913 35.2891 13.8584ZM36.7402 11.8223C36.5762 11.1226 36.4427 10.2845 37.457 10.5557C37.7604 11.117 37.4155 11.8412 36.7402 11.8223Z" fill="#E0DCD0"/>
<path d="M1.68164 134.906H23.2422V137.395C22.194 136.939 20.7266 136.506 18.8398 136.096C16.9622 135.676 15.7044 135.467 15.0664 135.467C14.5378 135.467 14.1549 135.604 13.918 135.877C13.6901 136.141 13.5762 136.638 13.5762 137.367V162.906H11.334V137.367C11.334 136.638 11.2201 136.141 10.9922 135.877C10.7643 135.604 10.3861 135.467 9.85742 135.467C9.2194 135.467 7.95703 135.676 6.07031 136.096C4.19271 136.506 2.72982 136.939 1.68164 137.395V134.906ZM37.1875 163.467C35.6562 163.467 34.1842 163.243 32.7715 162.797C31.3678 162.35 30.0872 161.703 28.9297 160.855C27.7812 159.999 26.7786 158.987 25.9219 157.82C25.0651 156.645 24.3997 155.296 23.9258 153.773C23.4518 152.242 23.2148 150.62 23.2148 148.906C23.2148 147.193 23.4518 145.575 23.9258 144.053C24.3997 142.521 25.0651 141.173 25.9219 140.006C26.7786 138.83 27.7812 137.818 28.9297 136.971C30.0872 136.114 31.3678 135.462 32.7715 135.016C34.1842 134.569 35.6562 134.346 37.1875 134.346C39.1016 134.346 40.9108 134.701 42.6152 135.412C44.3288 136.114 45.8145 137.089 47.0723 138.338C48.3392 139.587 49.3418 141.127 50.0801 142.959C50.8184 144.791 51.1875 146.773 51.1875 148.906C51.1875 151.039 50.8184 153.021 50.0801 154.854C49.3418 156.686 48.3392 158.226 47.0723 159.475C45.8145 160.723 44.3288 161.703 42.6152 162.414C40.9108 163.116 39.1016 163.467 37.1875 163.467ZM26.373 143.191C25.7624 144.951 25.457 146.855 25.457 148.906C25.457 150.957 25.7624 152.862 26.373 154.621C26.9928 156.38 27.8314 157.861 28.8887 159.064C29.946 160.268 31.1901 161.211 32.6211 161.895C34.0612 162.569 35.5833 162.906 37.1875 162.906C38.7917 162.906 40.3138 162.569 41.7539 161.895C43.194 161.211 44.4427 160.268 45.5 159.064C46.5664 157.861 47.4095 156.38 48.0293 154.621C48.6491 152.862 48.959 150.957 48.959 148.906C48.959 146.855 48.6491 144.951 48.0293 143.191C47.4095 141.432 46.5664 139.951 45.5 138.748C44.4427 137.545 43.194 136.606 41.7539 135.932C40.3138 135.248 38.7917 134.906 37.1875 134.906C35.5833 134.906 34.0612 135.248 32.6211 135.932C31.1901 136.606 29.946 137.545 28.8887 138.748C27.8314 139.951 26.9928 141.432 26.373 143.191ZM54.8242 162.906V134.906H67.7031C68.6875 134.906 69.5944 135.007 70.4238 135.207C71.2624 135.408 71.9733 135.672 72.5566 136C73.1491 136.328 73.6732 136.72 74.1289 137.176C74.5938 137.622 74.9674 138.087 75.25 138.57C75.5326 139.044 75.765 139.55 75.9473 140.088C76.1387 140.617 76.2663 141.109 76.3301 141.564C76.403 142.02 76.4395 142.462 76.4395 142.891C76.4395 143.319 76.403 143.761 76.3301 144.217C76.2663 144.663 76.1387 145.151 75.9473 145.68C75.765 146.208 75.5326 146.71 75.25 147.184C74.9674 147.658 74.5938 148.122 74.1289 148.578C73.6732 149.025 73.1491 149.412 72.5566 149.74C71.9733 150.068 71.2624 150.337 70.4238 150.547C69.5944 150.747 68.6875 150.852 67.7031 150.861H66.8965C66.6868 150.861 66.5365 150.88 66.4453 150.916C66.3542 150.943 66.3177 150.993 66.3359 151.066C66.3542 151.13 66.4043 151.208 66.4863 151.299C66.5775 151.39 66.7142 151.508 66.8965 151.654C67.3613 152.019 67.8717 152.511 68.4277 153.131C68.9837 153.751 69.4668 154.329 69.877 154.867C70.2962 155.405 70.8978 156.198 71.6816 157.246C71.7272 157.31 71.7637 157.365 71.791 157.41C71.8275 157.447 71.8685 157.497 71.9141 157.561C71.9596 157.615 72.0007 157.67 72.0371 157.725C72.8483 158.818 73.7415 159.844 74.7168 160.801C75.6921 161.749 76.526 162.451 77.2188 162.906H74.0605C73.5319 162.587 72.9577 162.118 72.3379 161.498C71.7181 160.869 71.1257 160.195 70.5605 159.475C69.9954 158.745 69.4121 157.98 68.8105 157.178C68.209 156.367 67.6211 155.592 67.0469 154.854C66.4727 154.115 65.9121 153.445 65.3652 152.844C64.8275 152.242 64.2852 151.764 63.7383 151.408C63.2005 151.044 62.7038 150.861 62.248 150.861H59.7461V150.301H65.2422C68.0039 150.301 70.1139 149.649 71.5723 148.346C73.0397 147.033 73.7734 145.215 73.7734 142.891C73.7734 140.566 73.0397 138.748 71.5723 137.436C70.1139 136.123 68.0039 135.467 65.2422 135.467H58.5156C57.9688 135.467 57.5859 135.581 57.3672 135.809C57.1484 136.036 57.0391 136.51 57.0391 137.23L57.0664 162.906H54.8242ZM80.8145 162.906H78.3535L87.8965 136.219L87.3086 134.906H89.7832L102.266 162.906H99.8047L97.7539 158.34C97.3164 157.355 96.5964 156.48 95.5938 155.715C94.6003 154.94 93.5247 154.361 92.3672 153.979C91.2096 153.587 90.0931 153.391 89.0176 153.391C87.1673 153.391 85.4401 153.969 83.8359 155.127C83.5352 155.346 83.2344 155.71 82.9336 156.221C82.6419 156.722 82.4323 157.205 82.3047 157.67L80.8145 162.906ZM83.8633 152.297C83.7266 152.798 83.7767 153.049 84.0137 153.049C84.1322 153.049 84.3372 152.976 84.6289 152.83C85.7227 152.229 86.9076 151.928 88.1836 151.928C89.4505 151.928 90.7266 152.201 92.0117 152.748C93.306 153.286 94.5137 154.01 95.6348 154.922C95.9538 155.186 96.1543 155.286 96.2363 155.223C96.3184 155.159 96.2728 154.94 96.0996 154.566L88.8809 138.379C88.7168 137.987 88.5391 137.791 88.3477 137.791C88.1471 137.791 87.9785 138.014 87.8418 138.461L83.8633 152.297ZM104.59 134.906H113.436C115.286 134.906 117.027 135.257 118.658 135.959C120.299 136.661 121.707 137.627 122.883 138.857C124.059 140.079 124.984 141.56 125.658 143.301C126.342 145.042 126.684 146.91 126.684 148.906C126.684 150.902 126.342 152.771 125.658 154.512C124.984 156.253 124.059 157.738 122.883 158.969C121.707 160.19 120.299 161.152 118.658 161.854C117.027 162.555 115.286 162.906 113.436 162.906H104.59V134.906ZM106.832 136.807C106.832 137.326 106.827 141.09 106.818 148.1C106.809 155.1 106.805 159.26 106.805 160.582C106.805 161.311 106.919 161.812 107.146 162.086C107.374 162.35 107.753 162.482 108.281 162.482C108.573 162.482 109.152 162.487 110.018 162.496C110.883 162.505 111.435 162.51 111.672 162.51C113.103 162.51 114.434 162.327 115.664 161.963C116.904 161.589 117.975 161.079 118.877 160.432C119.779 159.775 120.581 159.014 121.283 158.148C121.985 157.283 122.55 156.339 122.979 155.318C123.407 154.298 123.73 153.249 123.949 152.174C124.168 151.098 124.277 150.009 124.277 148.906C124.277 147.576 124.127 146.277 123.826 145.01C123.525 143.743 123.042 142.526 122.377 141.359C121.712 140.193 120.896 139.176 119.93 138.311C118.973 137.436 117.783 136.738 116.361 136.219C114.949 135.699 113.385 135.439 111.672 135.439C111.435 135.439 110.883 135.444 110.018 135.453C109.152 135.462 108.573 135.467 108.281 135.467C107.826 135.467 107.484 135.562 107.256 135.754C107.028 135.945 106.887 136.296 106.832 136.807ZM143.445 163.467C141.914 163.467 140.442 163.243 139.029 162.797C137.626 162.35 136.345 161.703 135.188 160.855C134.039 159.999 133.036 158.987 132.18 157.82C131.323 156.645 130.658 155.296 130.184 153.773C129.71 152.242 129.473 150.62 129.473 148.906C129.473 147.193 129.71 145.575 130.184 144.053C130.658 142.521 131.323 141.173 132.18 140.006C133.036 138.83 134.039 137.818 135.188 136.971C136.345 136.114 137.626 135.462 139.029 135.016C140.442 134.569 141.914 134.346 143.445 134.346C145.359 134.346 147.169 134.701 148.873 135.412C150.587 136.114 152.072 137.089 153.33 138.338C154.597 139.587 155.6 141.127 156.338 142.959C157.076 144.791 157.445 146.773 157.445 148.906C157.445 151.039 157.076 153.021 156.338 154.854C155.6 156.686 154.597 158.226 153.33 159.475C152.072 160.723 150.587 161.703 148.873 162.414C147.169 163.116 145.359 163.467 143.445 163.467ZM132.631 143.191C132.02 144.951 131.715 146.855 131.715 148.906C131.715 150.957 132.02 152.862 132.631 154.621C133.251 156.38 134.089 157.861 135.146 159.064C136.204 160.268 137.448 161.211 138.879 161.895C140.319 162.569 141.841 162.906 143.445 162.906C145.049 162.906 146.572 162.569 148.012 161.895C149.452 161.211 150.701 160.268 151.758 159.064C152.824 157.861 153.667 156.38 154.287 154.621C154.907 152.862 155.217 150.957 155.217 148.906C155.217 146.855 154.907 144.951 154.287 143.191C153.667 141.432 152.824 139.951 151.758 138.748C150.701 137.545 149.452 136.606 148.012 135.932C146.572 135.248 145.049 134.906 143.445 134.906C141.841 134.906 140.319 135.248 138.879 135.932C137.448 136.606 136.204 137.545 135.146 138.748C134.089 139.951 133.251 141.432 132.631 143.191ZM180.482 162.906H161.082V134.906H163.297V160.445C163.297 161.174 163.411 161.676 163.639 161.949C163.867 162.214 164.245 162.346 164.773 162.346C167.307 162.346 170.197 162.145 173.441 161.744C176.695 161.343 179.042 160.901 180.482 160.418V162.906ZM2.24219 201.906V173.906H4.48438V201.906H2.24219ZM8.96875 201.906V173.906H11.2656C16.4518 181.262 22.4036 189.679 29.1211 199.158C29.3216 199.441 29.4993 199.582 29.6543 199.582C29.873 199.582 29.9688 199.34 29.9414 198.857L28.2598 173.906H30.6113V201.906H28.3691C27.1478 200.184 24.5228 196.492 20.4941 190.832C16.4746 185.163 13.125 180.437 10.4453 176.654C10.2448 176.372 10.0671 176.23 9.91211 176.23C9.70247 176.23 9.61133 176.472 9.63867 176.955L11.3203 201.906H8.96875ZM26.9473 205.488L27.2891 204.955C28.0638 205.611 29.194 205.939 30.6797 205.939C31.5091 205.939 32.2337 205.789 32.8535 205.488C33.4824 205.188 33.9746 204.782 34.3301 204.271C34.6855 203.761 34.9499 203.21 35.123 202.617C35.2962 202.025 35.3828 201.396 35.3828 200.73V173.906H37.625V199.979C37.625 200.535 37.5521 201.1 37.4062 201.674C37.2604 202.248 37.0143 202.827 36.668 203.41C36.3307 203.993 35.9115 204.508 35.4102 204.955C34.9089 205.411 34.2663 205.78 33.4824 206.062C32.7077 206.354 31.8464 206.5 30.8984 206.5C29.2669 206.5 27.9499 206.163 26.9473 205.488ZM42.1094 201.906V173.906H61.5098V176.395C60.0697 175.911 57.7227 175.469 54.4688 175.068C51.224 174.667 48.3346 174.467 45.8008 174.467C45.2721 174.467 44.8939 174.604 44.666 174.877C44.4382 175.141 44.3242 175.638 44.3242 176.367V185.213C44.3242 185.632 44.4518 185.974 44.707 186.238C44.9622 186.493 45.2995 186.621 45.7188 186.621H58.7617V188.973C57.0846 188.562 54.8789 188.18 52.1445 187.824C49.4102 187.469 47.2773 187.291 45.7461 187.291C45.3177 187.291 44.9759 187.396 44.7207 187.605C44.4746 187.815 44.3516 188.12 44.3516 188.521L44.3242 199.445C44.3242 200.174 44.4382 200.676 44.666 200.949C44.8939 201.214 45.2721 201.346 45.8008 201.346C48.3346 201.346 51.224 201.145 54.4688 200.744C57.7227 200.343 60.0697 199.901 61.5098 199.418V201.906H42.1094ZM64.1758 192.773C63.7018 191.242 63.4648 189.62 63.4648 187.906C63.4648 186.193 63.7018 184.575 64.1758 183.053C64.6497 181.521 65.3151 180.173 66.1719 179.006C67.0286 177.83 68.0312 176.818 69.1797 175.971C70.3372 175.114 71.6178 174.462 73.0215 174.016C74.4342 173.569 75.9062 173.346 77.4375 173.346C78.7318 173.346 79.9941 173.464 81.2246 173.701C82.4642 173.938 83.5898 174.275 84.6016 174.713C85.6224 175.15 86.4427 175.725 87.0625 176.436C87.6823 177.146 87.9922 177.935 87.9922 178.801C87.9922 179.102 87.9466 179.361 87.8555 179.58C87.7734 179.79 87.6686 179.945 87.541 180.045C87.4225 180.136 87.2995 180.209 87.1719 180.264C87.0534 180.309 86.9531 180.332 86.8711 180.332L86.7344 180.346C86.625 179.571 86.3014 178.796 85.7637 178.021C85.2259 177.247 84.5469 176.559 83.7266 175.957C82.9154 175.346 81.9538 174.854 80.8418 174.48C79.7298 174.098 78.5951 173.906 77.4375 173.906C75.8333 173.906 74.3112 174.248 72.8711 174.932C71.4401 175.606 70.196 176.545 69.1387 177.748C68.0814 178.951 67.2428 180.432 66.623 182.191C66.0124 183.951 65.707 185.855 65.707 187.906C65.707 189.957 66.0124 191.862 66.623 193.621C67.2428 195.38 68.0814 196.861 69.1387 198.064C70.196 199.268 71.4401 200.211 72.8711 200.895C74.3112 201.569 75.8333 201.906 77.4375 201.906C78.4948 201.906 79.5658 201.733 80.6504 201.387C81.7441 201.04 82.7513 200.576 83.6719 199.992C84.5924 199.4 85.4355 198.748 86.2012 198.037C86.9759 197.317 87.6413 196.561 88.1973 195.768V198.912C87.5137 199.942 86.151 200.794 84.1094 201.469C82.0677 202.134 79.8438 202.467 77.4375 202.467C75.9062 202.467 74.4342 202.243 73.0215 201.797C71.6178 201.35 70.3372 200.703 69.1797 199.855C68.0312 198.999 67.0286 197.987 66.1719 196.82C65.3151 195.645 64.6497 194.296 64.1758 192.773ZM90.1387 173.906H111.699V176.395C110.651 175.939 109.184 175.506 107.297 175.096C105.419 174.676 104.161 174.467 103.523 174.467C102.995 174.467 102.612 174.604 102.375 174.877C102.147 175.141 102.033 175.638 102.033 176.367V201.906H99.791V176.367C99.791 175.638 99.6771 175.141 99.4492 174.877C99.2214 174.604 98.8431 174.467 98.3145 174.467C97.6764 174.467 96.4141 174.676 94.5273 175.096C92.6497 175.506 91.1868 175.939 90.1387 176.395V173.906ZM115.609 201.906V173.906H117.852V201.906H115.609ZM135.461 202.467C133.93 202.467 132.458 202.243 131.045 201.797C129.641 201.35 128.361 200.703 127.203 199.855C126.055 198.999 125.052 197.987 124.195 196.82C123.339 195.645 122.673 194.296 122.199 192.773C121.725 191.242 121.488 189.62 121.488 187.906C121.488 186.193 121.725 184.575 122.199 183.053C122.673 181.521 123.339 180.173 124.195 179.006C125.052 177.83 126.055 176.818 127.203 175.971C128.361 175.114 129.641 174.462 131.045 174.016C132.458 173.569 133.93 173.346 135.461 173.346C137.375 173.346 139.184 173.701 140.889 174.412C142.602 175.114 144.088 176.089 145.346 177.338C146.613 178.587 147.615 180.127 148.354 181.959C149.092 183.791 149.461 185.773 149.461 187.906C149.461 190.039 149.092 192.021 148.354 193.854C147.615 195.686 146.613 197.226 145.346 198.475C144.088 199.723 142.602 200.703 140.889 201.414C139.184 202.116 137.375 202.467 135.461 202.467ZM124.646 182.191C124.036 183.951 123.73 185.855 123.73 187.906C123.73 189.957 124.036 191.862 124.646 193.621C125.266 195.38 126.105 196.861 127.162 198.064C128.219 199.268 129.464 200.211 130.895 200.895C132.335 201.569 133.857 201.906 135.461 201.906C137.065 201.906 138.587 201.569 140.027 200.895C141.467 200.211 142.716 199.268 143.773 198.064C144.84 196.861 145.683 195.38 146.303 193.621C146.923 191.862 147.232 189.957 147.232 187.906C147.232 185.855 146.923 183.951 146.303 182.191C145.683 180.432 144.84 178.951 143.773 177.748C142.716 176.545 141.467 175.606 140.027 174.932C138.587 174.248 137.065 173.906 135.461 173.906C133.857 173.906 132.335 174.248 130.895 174.932C129.464 175.606 128.219 176.545 127.162 177.748C126.105 178.951 125.266 180.432 124.646 182.191ZM153.098 201.906V173.906H155.395C160.581 181.262 166.533 189.679 173.25 199.158C173.451 199.441 173.628 199.582 173.783 199.582C174.002 199.582 174.098 199.34 174.07 198.857L172.389 173.906H174.74V201.906H172.498C171.277 200.184 168.652 196.492 164.623 190.832C160.604 185.163 157.254 180.437 154.574 176.654C154.374 176.372 154.196 176.23 154.041 176.23C153.831 176.23 153.74 176.472 153.768 176.955L155.449 201.906H153.098Z" fill="#383637"/>
<path d="M1.808 237.906V226.706H2.784V237.906H1.808ZM6.24175 237.906V229.634H7.02575L7.10575 231.234C7.76175 230.05 8.91375 229.426 10.2418 229.426C12.4018 229.426 13.7298 230.946 13.7298 233.33V237.906H12.8018V233.41C12.8018 231.506 11.7778 230.322 10.1298 230.322C8.38575 230.322 7.16975 231.65 7.16975 233.618V237.906H6.24175ZM17.4793 228.674C17.4793 226.786 18.4073 225.858 20.2473 225.858H21.5433V226.738H20.3273C18.9833 226.738 18.4073 227.33 18.4073 228.738V229.634H21.4633V230.482H18.4073V237.906H17.4793V230.482H15.5913V229.634H17.4793V228.674ZM26.7175 238.114C24.1575 238.114 22.3655 236.322 22.3655 233.762C22.3655 231.218 24.1575 229.426 26.7175 229.426C29.2615 229.426 31.0535 231.218 31.0535 233.762C31.0535 236.322 29.2615 238.114 26.7175 238.114ZM23.2935 233.762C23.2935 235.81 24.6855 237.218 26.7175 237.218C28.7335 237.218 30.1255 235.81 30.1255 233.762C30.1255 231.73 28.7335 230.322 26.7175 230.322C24.6855 230.322 23.2935 231.73 23.2935 233.762ZM33.6324 237.906V229.634H34.4164L34.5124 231.49C35.0724 230.242 36.0164 229.634 37.5524 229.634H38.2404V230.498H37.5204C35.7444 230.498 34.5604 231.586 34.5604 234.098V237.906H33.6324ZM40.5699 237.906V229.634H41.3539L41.4339 230.978C42.0099 229.97 43.0179 229.426 44.2979 229.426C45.7379 229.426 46.8419 230.146 47.3219 231.41C47.8819 230.146 49.0179 229.426 50.4739 229.426C52.5539 229.426 53.8979 230.85 53.8979 233.154V237.906H52.9699V233.298C52.9699 231.458 51.9459 230.322 50.3619 230.322C48.7459 230.322 47.6899 231.49 47.6899 233.362V237.906H46.7619V233.298C46.7619 231.458 45.7539 230.322 44.1699 230.322C42.5539 230.322 41.4979 231.49 41.4979 233.362V237.906H40.5699ZM60.5114 238.114C57.9994 238.114 56.2874 236.338 56.2874 233.762C56.2874 231.202 58.0154 229.426 60.5274 229.426C63.1354 229.426 64.8154 231.346 64.7514 234.146H57.2314C57.3914 236.018 58.6714 237.234 60.5114 237.234C61.8554 237.234 62.9274 236.61 63.4714 235.538L64.5114 235.554C63.8714 237.138 62.3674 238.114 60.5114 238.114ZM57.2314 233.33H63.8394C63.6154 231.458 62.3354 230.306 60.5274 230.306C58.6874 230.306 57.3914 231.506 57.2314 233.33ZM70.8086 238.114C68.3126 238.114 66.5686 236.274 66.5686 233.762C66.5686 231.25 68.3126 229.426 70.8086 229.426C72.3286 229.426 73.5606 230.098 74.2966 231.17V226.066H75.2246V237.906H74.4566L74.3446 236.274C73.6246 237.41 72.3606 238.114 70.8086 238.114ZM67.4966 233.762C67.4966 235.794 68.8886 237.218 70.9206 237.218C72.9366 237.218 74.3286 235.794 74.3286 233.762C74.3286 231.746 72.9366 230.322 70.9206 230.322C68.8886 230.322 67.4966 231.746 67.4966 233.762ZM87.4071 238.114C84.1111 238.114 81.7271 235.714 81.7271 232.306C81.7271 228.898 84.1111 226.498 87.4071 226.498C89.9671 226.498 92.0631 227.986 92.7991 230.338H91.7751C91.1351 228.562 89.4711 227.474 87.4231 227.474C84.6871 227.474 82.7191 229.442 82.7191 232.306C82.7191 235.17 84.6871 237.138 87.4231 237.138C89.5191 237.138 91.2471 236.002 91.8711 234.146H92.8951C92.2071 236.562 90.0471 238.114 87.4071 238.114ZM99.03 238.114C96.47 238.114 94.678 236.322 94.678 233.762C94.678 231.218 96.47 229.426 99.03 229.426C101.574 229.426 103.366 231.218 103.366 233.762C103.366 236.322 101.574 238.114 99.03 238.114ZM95.606 233.762C95.606 235.81 96.998 237.218 99.03 237.218C101.046 237.218 102.438 235.81 102.438 233.762C102.438 231.73 101.046 230.322 99.03 230.322C96.998 230.322 95.606 231.73 95.606 233.762ZM105.945 237.906V229.634H106.729L106.809 231.234C107.465 230.05 108.617 229.426 109.945 229.426C112.105 229.426 113.433 230.946 113.433 233.33V237.906H112.505V233.41C112.505 231.506 111.481 230.322 109.833 230.322C108.089 230.322 106.873 231.65 106.873 233.618V237.906H105.945ZM119.402 238.114C117.306 238.114 115.978 237.058 115.914 235.41H116.826C116.922 236.578 117.834 237.266 119.418 237.266C120.874 237.266 121.754 236.706 121.754 235.794C121.754 234.93 120.97 234.402 119.21 234.098C117.05 233.73 116.074 232.962 116.074 231.698C116.074 230.29 117.274 229.426 119.21 229.426C121.162 229.426 122.394 230.354 122.522 231.938H121.594C121.498 230.85 120.65 230.258 119.21 230.258C117.834 230.258 117.002 230.818 117.002 231.714C117.002 232.53 117.69 232.978 119.53 233.33C121.626 233.73 122.666 234.562 122.666 235.81C122.666 237.202 121.402 238.114 119.402 238.114ZM128.855 238.114C126.343 238.114 124.631 236.338 124.631 233.762C124.631 231.202 126.359 229.426 128.871 229.426C131.479 229.426 133.159 231.346 133.095 234.146H125.575C125.735 236.018 127.015 237.234 128.855 237.234C130.199 237.234 131.271 236.61 131.815 235.538L132.855 235.554C132.215 237.138 130.711 238.114 128.855 238.114ZM125.575 233.33H132.183C131.959 231.458 130.679 230.306 128.871 230.306C127.031 230.306 125.735 231.506 125.575 233.33ZM135.632 237.906V229.634H136.416L136.496 231.234C137.152 230.05 138.304 229.426 139.632 229.426C141.792 229.426 143.12 230.946 143.12 233.33V237.906H142.192V233.41C142.192 231.506 141.168 230.322 139.52 230.322C137.776 230.322 136.56 231.65 136.56 233.618V237.906H135.632ZM149.336 237.906C147.576 237.906 146.632 236.914 146.632 235.042V230.482H144.824V229.634H145.88C146.504 229.634 146.68 229.474 146.744 228.866L146.824 227.602H147.56V229.634H150.424V230.482H147.56V235.01C147.56 236.37 148.12 237.01 149.368 237.01H150.536V237.906H149.336ZM160.196 237.906C158.436 237.906 157.492 236.914 157.492 235.042V230.482H155.684V229.634H156.74C157.364 229.634 157.539 229.474 157.604 228.866L157.684 227.602H158.42V229.634H161.284V230.482H158.42V235.01C158.42 236.37 158.98 237.01 160.228 237.01H161.396V237.906H160.196ZM167.108 238.114C164.548 238.114 162.756 236.322 162.756 233.762C162.756 231.218 164.548 229.426 167.108 229.426C169.652 229.426 171.444 231.218 171.444 233.762C171.444 236.322 169.652 238.114 167.108 238.114ZM163.684 233.762C163.684 235.81 165.076 237.218 167.108 237.218C169.124 237.218 170.516 235.81 170.516 233.762C170.516 231.73 169.124 230.322 167.108 230.322C165.076 230.322 163.684 231.73 163.684 233.762ZM179.902 237.906V227.634H176.046V226.706H184.734V227.634H180.862V237.906H179.902ZM185.242 237.906V229.634H186.026L186.122 231.49C186.682 230.242 187.626 229.634 189.162 229.634H189.85V230.498H189.13C187.354 230.498 186.17 231.586 186.17 234.098V237.906H185.242ZM195.043 238.114C192.531 238.114 190.819 236.338 190.819 233.762C190.819 231.202 192.547 229.426 195.059 229.426C197.667 229.426 199.347 231.346 199.283 234.146H191.763C191.923 236.018 193.203 237.234 195.043 237.234C196.387 237.234 197.459 236.61 198.003 235.538L199.043 235.554C198.403 237.138 196.899 238.114 195.043 238.114ZM191.763 233.33H198.371C198.147 231.458 196.867 230.306 195.059 230.306C193.219 230.306 191.923 231.506 191.763 233.33ZM204.303 238.034C202.383 238.034 201.183 237.09 201.183 235.57C201.183 234.098 202.303 233.17 203.999 233.17H207.647V232.578C207.647 231.202 206.639 230.29 205.103 230.29C203.855 230.29 202.879 230.93 202.543 231.922H201.599C201.999 230.386 203.327 229.426 205.087 229.426C207.151 229.426 208.575 230.69 208.575 232.53V237.906H207.807L207.711 236.482C206.991 237.474 205.775 238.034 204.303 238.034ZM202.111 235.554C202.111 236.562 202.959 237.202 204.335 237.202C206.255 237.202 207.663 236.002 207.663 234.338V233.986H204.031C202.895 233.986 202.111 234.61 202.111 235.554ZM214.789 237.906C213.029 237.906 212.085 236.914 212.085 235.042V230.482H210.277V229.634H211.333C211.957 229.634 212.133 229.474 212.197 228.866L212.277 227.602H213.013V229.634H215.877V230.482H213.013V235.01C213.013 236.37 213.573 237.01 214.821 237.01H215.989V237.906H214.789ZM218.476 237.906V229.634H219.26L219.34 230.978C219.916 229.97 220.924 229.426 222.204 229.426C223.644 229.426 224.748 230.146 225.228 231.41C225.788 230.146 226.924 229.426 228.38 229.426C230.46 229.426 231.804 230.85 231.804 233.154V237.906H230.876V233.298C230.876 231.458 229.852 230.322 228.268 230.322C226.652 230.322 225.596 231.49 225.596 233.362V237.906H224.668V233.298C224.668 231.458 223.66 230.322 222.076 230.322C220.46 230.322 219.404 231.49 219.404 233.362V237.906H218.476ZM238.418 238.114C235.906 238.114 234.194 236.338 234.194 233.762C234.194 231.202 235.922 229.426 238.434 229.426C241.042 229.426 242.722 231.346 242.658 234.146H235.138C235.298 236.018 236.578 237.234 238.418 237.234C239.762 237.234 240.834 236.61 241.378 235.538L242.418 235.554C241.778 237.138 240.274 238.114 238.418 238.114ZM235.138 233.33H241.746C241.522 231.458 240.242 230.306 238.434 230.306C236.594 230.306 235.298 231.506 235.138 233.33ZM245.195 237.906V229.634H245.979L246.059 231.234C246.715 230.05 247.867 229.426 249.195 229.426C251.355 229.426 252.683 230.946 252.683 233.33V237.906H251.755V233.41C251.755 231.506 250.731 230.322 249.083 230.322C247.339 230.322 246.123 231.65 246.123 233.618V237.906H245.195ZM258.899 237.906C257.139 237.906 256.195 236.914 256.195 235.042V230.482H254.387V229.634H255.443C256.067 229.634 256.243 229.474 256.307 228.866L256.387 227.602H257.123V229.634H259.987V230.482H257.123V235.01C257.123 236.37 257.683 237.01 258.931 237.01H260.099V237.906H258.899Z" fill="#5B5852"/>
</svg>
