<svg width="366" height="283" viewBox="0 0 366 283" fill="none" xmlns="http://www.w3.org/2000/svg">
<path d="M39.9453 0.321289C39.6338 1.16044 39.3391 1.99171 39.0156 2.74316C37.3342 6.65348 35.4723 10.4771 33.9385 14.4443C32.7574 17.4977 31.6991 20.6355 30.6328 23.7188C31.3354 23.7132 31.259 22.7499 31.4941 22.2021C31.6174 21.9172 32.0982 21.1689 32.3633 21.0469C32.7734 20.8598 33.5277 21.1803 33.4648 21.625C32.642 23.5828 32.2598 25.6845 31.5244 27.6748C30.9011 29.3615 30.3349 31.0402 29.7197 32.7432C27.8688 37.8601 25.5552 42.9445 23.8164 48.0615C21.3449 55.337 19.42 62.8133 16.6504 69.9912C15.4803 73.0229 14.8241 76.0493 13.8535 79.1162C13.2794 80.9276 12.3035 83.3685 12.041 85.1826C11.9864 85.5649 12.0908 85.9961 12.0088 86.3594C11.954 86.5953 11.5984 87.029 11.4727 87.3408C10.7727 89.0872 10.0205 92.7534 9.71973 94.6787C9.63498 95.2237 9.64093 96.753 9.46875 97.0488C9.30749 97.3226 9.13502 97.2523 9.08301 96.9678C8.99552 96.477 9.04434 95.0989 9.07715 94.543C9.17013 93.0326 9.56976 91.4976 9.78027 89.998C9.94699 88.8106 9.85908 88.6555 10.3184 87.5059C10.7776 86.3535 10.9012 85.4557 11.1035 84.249C12.2136 77.5973 14.6663 71.7294 16.375 65.2783C16.6949 64.0662 17.2227 62.3848 17.3184 61.1699C17.3266 61.0587 17.3944 60.7961 17.2197 60.8203C15.0243 69.0448 11.8476 76.9819 9.62207 85.1982C8.86474 87.9995 8.15387 90.8419 7.86133 93.7354C7.81217 94.2153 7.91834 94.7605 7.85547 95.2432C7.78431 95.7935 7.47853 96.4821 7.38281 97.0947C7.0192 99.4647 7.0871 103.687 7.98926 105.916C8.77393 107.855 9.73689 107.977 11.1641 109.219C11.6341 109.628 12.2528 110.357 12.9062 110.906H0V45.7666C0 22.4516 17.4142 3.20438 39.9453 0.321289ZM50.0527 77.2129C50.1184 77.137 50.441 76.6321 50.5586 76.7568C47.7972 82.1179 45.3284 87.7611 44.1035 93.6943C42.9005 99.5164 43.056 103.598 45.9678 108.889C46.3353 109.556 46.9382 110.255 47.6699 110.906H16.7666C18.7844 110.166 21.1762 109.112 22.8105 108.159C23.1084 107.986 24.3901 107.129 24.4922 106.896C24.5441 106.776 24.2899 106.675 24.3418 106.461C24.4214 106.133 25.1152 105.767 25.293 105.577C25.6483 105.198 25.8808 104.696 26.3125 104.271C26.5886 103.997 27.7477 103.018 28.0488 102.969C28.8827 102.833 30.157 103.831 30.1133 102.627C29.1618 102.041 29.5202 101.447 30.5127 101.371C30.7918 101.35 31.6414 101.821 31.5107 101.149C31.3494 100.32 31.1636 100.29 31.9072 99.6416C33.1402 98.5678 35.1169 97.4341 35.4014 95.6445C35.4369 95.4141 35.2016 95.2215 35.5186 94.9531C36.3169 94.2779 37.894 95.0664 38.3916 93.6699C38.4709 93.4503 38.4463 93.1356 38.5557 92.9512C38.6186 92.8454 38.8569 92.7883 38.9717 92.6338C39.3732 92.0832 39.0835 90.8335 39.1709 90.1611L38.5615 90.0088L39.1191 89.5586C39.3267 89.6426 39.2399 90.0244 39.2725 90.0576C39.3244 90.1119 39.8578 90.0332 39.959 89.9355C40.0385 89.855 40.234 89.2001 40.1855 89.1553H39.7285C39.5344 88.8109 40.0708 88.6075 40.2295 88.3418C40.3498 88.1385 40.355 87.8671 40.4697 87.6719C41.197 86.4489 42.4302 85.9171 43.3379 84.9707C43.6058 84.6914 43.756 84.3361 44.0977 84.0107C44.2917 83.8264 44.6309 83.6939 44.7568 83.5557C44.94 83.3523 44.9129 83.0536 45.0469 82.834C45.7523 81.6599 47.4198 80.4534 48.374 79.377C48.9755 78.6964 49.465 77.9071 50.0527 77.2129ZM47.9854 0C72.2842 1.13123 91.6377 21.188 91.6377 45.7666V110.906H62.749C63.428 110.409 63.8634 109.705 64.5977 109.181C65.6665 108.419 66.9378 108.08 67.9766 107.392C74.2649 103.21 80.7424 96.9481 85.6309 91.2236C87.438 89.1085 90.2399 86.0147 91.123 83.4658C91.3773 82.7337 91.6917 81.9826 91.6289 81.1963L91.6348 81.1904C91.4926 81.1796 91.3584 81.1902 91.2217 81.2363C90.8362 81.3719 88.4033 84.0919 87.9219 84.6182C82.2706 90.7873 77.1112 97.8434 69.9727 102.407C66.2571 104.783 62.4297 106.35 58.3916 108.062C56.579 108.829 52.9811 109.308 51.0508 108.988C49.2819 108.695 48.716 108.46 48.2539 106.719C47.8875 105.341 47.3264 102.261 47.3154 100.886C47.31 100.04 47.7477 98.9331 47.9062 98.0654C49.2624 90.5947 52.9266 81.6701 57.249 75.3682C59.2202 72.4913 61.178 70.7337 63.5264 68.2852C64.4858 67.2846 65.2292 66.0833 66.1641 65.0557C68.0751 62.9568 70.3718 61.2349 72.7285 59.6621L72.9502 59.6299C73.713 59.9905 74.4239 60.0558 74.957 60.7744C76.8786 63.3614 72.8762 67.1357 71.583 69.2236C71.4135 69.5599 71.3731 70.0757 71.6328 70.374C71.7726 70.5364 72.2416 70.6796 72.4658 70.7041C73.0973 70.7746 75.0087 70.7914 75.6104 70.6992C77.2945 70.4389 79.4707 66.0971 79.6895 64.5596C80.2854 60.3647 77.3085 57.5312 73.3525 56.9209C71.7834 56.6796 71.7937 56.994 70.5283 57.1865C68.8469 57.4441 68.0943 57.0377 66.3828 58.0166C62.7247 60.1156 57.8578 65.3436 55.3535 68.7549C54.0249 70.5662 53.0904 72.7115 51.625 74.333C50.5615 75.5126 49.3366 76.5809 48.2676 77.7578C46.4221 79.7916 44.7673 82.0095 42.8809 84.0107C41.3006 85.692 39.4257 87.2436 37.8975 88.9492C34.696 92.5205 31.8002 95.4244 28.041 98.4316C27.2563 99.058 26.6081 99.8472 25.8535 100.498C23.2809 102.708 19.9129 105.255 16.9355 106.879C15.6123 107.6 14.1849 108.647 13.3701 106.824C12.5583 105.004 12.7682 100.744 12.9404 98.6836C13.0171 97.7673 13.4496 96.9052 13.5371 95.9482C13.6574 94.6385 13.5479 93.6317 13.9307 92.3057C14.286 91.0776 14.521 90.3237 14.7998 89.0332C15.2919 86.7581 16.0161 85.1254 16.6504 83.0049C17.7549 79.3143 18.5732 75.4827 19.8555 71.8652C21.9743 65.8861 23.7152 59.7791 25.8477 53.8135C28.5325 46.3075 31.683 38.9531 34.417 31.458C35.2481 29.1748 36.1558 26.9319 37.0088 24.6514C38.9035 19.5723 40.8413 14.4411 43.25 9.56543C44.2233 7.59137 45.399 6.17858 46.4707 4.3916C46.8665 3.73277 47.6789 1.32218 47.9854 0ZM8.88867 99.9854H8.8916L8.58301 100.04C8.38895 99.7039 8.60436 99.3915 8.98145 99.3398L8.88867 99.9854ZM37.0908 91.4736C37.2136 91.4086 37.2818 91.3355 37.4482 91.376C37.4018 91.7013 37.5632 92.2946 37.3477 92.5361L37.1641 92.6699C36.8562 92.8839 36.271 93.273 36.1992 93.3096C35.8958 93.4641 35.5509 93.5183 35.2119 93.4912C34.9774 93.282 36.8229 91.6119 37.0908 91.4736ZM47.4385 87.3135C47.2581 87.7933 46.873 86.7859 47.4111 86.8369L47.4385 87.3135ZM47.7207 85.2256C47.9665 85.1797 48.0021 85.4263 48.125 85.5781H48.1221L47.9717 85.7275L47.7314 85.5645L47.7207 85.2256ZM48.4287 83.3086C48.5244 83.2463 48.7645 83.3306 48.8301 83.458L48.4775 84.1113C48.2126 84.0297 48.3713 83.3436 48.4287 83.3057V83.3086ZM50.46 79.9814C50.4846 80.3584 50.4815 80.9518 49.9512 80.8867C49.9293 80.461 49.9187 79.9815 50.46 79.9814ZM51.2666 77.9229C51.286 77.8229 51.5444 77.8499 51.5752 77.8662C51.7801 77.999 51.5594 78.5652 51.3271 78.666C51.0565 78.4708 51.19 78.164 51.2666 77.9199V77.9229ZM53.3086 74.5361C53.2813 74.8588 53.4396 75.0921 53.3467 75.4229C53.2236 75.8648 52.6884 76.2196 52.5381 75.6475C52.454 75.3272 53.1908 74.3957 53.3086 74.5361ZM35.2891 13.8584C36.1035 13.6905 35.9966 14.6499 35.4443 14.7285C34.843 14.815 34.6439 13.9913 35.2891 13.8584ZM36.7402 11.8223C36.5762 11.1226 36.4427 10.2845 37.457 10.5557C37.7604 11.117 37.4155 11.8412 36.7402 11.8223Z" fill="#4C5239"/>
<path d="M0.0820312 134.906H2.54297L13.4668 159.434C13.6309 159.826 13.8086 160.021 14 160.021C14.2005 160.021 14.3691 159.798 14.5059 159.352L17.2539 149.809C17.3633 149.408 17.3997 148.961 17.3633 148.469C17.3359 147.977 17.2402 147.544 17.0762 147.17L11.5938 134.906H14.0547L18.0332 143.807C18.1973 144.18 18.3659 144.367 18.5391 144.367C18.7305 144.367 18.8809 144.162 18.9902 143.752L21.5332 134.906H23.9941L20.0703 146.021C19.9336 146.404 19.8698 146.842 19.8789 147.334C19.8971 147.826 19.9928 148.259 20.166 148.633L24.9785 159.434C25.1426 159.826 25.3203 160.021 25.5117 160.021C25.7122 160.021 25.8809 159.798 26.0176 159.352L33.0449 134.906H35.5059L25.5938 162.906H24.0762L19.0723 151.709C18.9173 151.335 18.7305 151.148 18.5117 151.148C18.3294 151.148 18.1699 151.344 18.0332 151.736L14.082 162.906H12.5781L0.0820312 134.906ZM38.3086 162.906V134.906H57.709V137.395C56.2689 136.911 53.9219 136.469 50.668 136.068C47.4232 135.667 44.5339 135.467 42 135.467C41.4714 135.467 41.0931 135.604 40.8652 135.877C40.6374 136.141 40.5234 136.638 40.5234 137.367V146.213C40.5234 146.632 40.651 146.974 40.9062 147.238C41.1615 147.493 41.4987 147.621 41.918 147.621H54.9609V149.973C53.2839 149.562 51.0781 149.18 48.3438 148.824C45.6094 148.469 43.4766 148.291 41.9453 148.291C41.5169 148.291 41.1751 148.396 40.9199 148.605C40.6738 148.815 40.5508 149.12 40.5508 149.521L40.5234 160.445C40.5234 161.174 40.6374 161.676 40.8652 161.949C41.0931 162.214 41.4714 162.346 42 162.346C44.5339 162.346 47.4232 162.145 50.668 161.744C53.9219 161.343 56.2689 160.901 57.709 160.418V162.906H38.3086ZM61.6328 162.906V134.906H63.875V162.906H61.6328ZM68.2227 153.773C67.7487 152.242 67.5117 150.62 67.5117 148.906C67.5117 147.193 67.7487 145.575 68.2227 144.053C68.6966 142.521 69.362 141.173 70.2188 140.006C71.0755 138.83 72.0781 137.818 73.2266 136.971C74.3841 136.114 75.6647 135.462 77.0684 135.016C78.4811 134.569 79.9531 134.346 81.4844 134.346C82.7786 134.346 84.041 134.464 85.2715 134.701C86.5111 134.938 87.6367 135.275 88.6484 135.713C89.6693 136.15 90.4896 136.725 91.1094 137.436C91.7292 138.146 92.0391 138.935 92.0391 139.801C92.0391 140.102 91.9935 140.361 91.9023 140.58C91.8203 140.79 91.7155 140.945 91.5879 141.045C91.4694 141.136 91.3464 141.209 91.2188 141.264C91.1003 141.309 91 141.332 90.918 141.332L90.7812 141.346C90.6719 140.571 90.3483 139.796 89.8105 139.021C89.2728 138.247 88.5938 137.559 87.7734 136.957C86.9622 136.346 86.0007 135.854 84.8887 135.48C83.7767 135.098 82.6419 134.906 81.4844 134.906C79.8802 134.906 78.3581 135.248 76.918 135.932C75.487 136.606 74.2428 137.545 73.1855 138.748C72.1283 139.951 71.2897 141.432 70.6699 143.191C70.0592 144.951 69.7539 146.855 69.7539 148.906C69.7539 150.957 70.0592 152.862 70.6699 154.621C71.2897 156.38 72.1283 157.861 73.1855 159.064C74.2428 160.268 75.487 161.211 76.918 161.895C78.3581 162.569 79.8802 162.906 81.4844 162.906C82.1133 162.906 82.7969 162.824 83.5352 162.66C84.2734 162.487 85.0117 162.232 85.75 161.895C86.4974 161.557 87.1719 161.161 87.7734 160.705C88.3841 160.249 88.8809 159.702 89.2637 159.064C89.6465 158.426 89.8379 157.757 89.8379 157.055V147.73H92.2441V159.912C91.5605 160.942 90.1979 161.794 88.1562 162.469C86.1146 163.134 83.8906 163.467 81.4844 163.467C79.9531 163.467 78.4811 163.243 77.0684 162.797C75.6647 162.35 74.3841 161.703 73.2266 160.855C72.0781 159.999 71.0755 158.987 70.2188 157.82C69.362 156.645 68.6966 155.296 68.2227 153.773ZM98.7383 162.906H96.4961V134.906H98.7383V149.631C99.9141 148.264 101.404 147.234 103.209 146.541C105.023 145.839 106.928 145.488 108.924 145.488C111.576 145.488 113.873 146.04 115.814 147.143V134.906H118.057V162.906H115.814V149.412C115.814 148.41 115.336 147.648 114.379 147.129C113.431 146.6 112.201 146.336 110.688 146.336C109.84 146.336 108.96 146.423 108.049 146.596C107.146 146.769 106.249 147.02 105.355 147.348C104.471 147.667 103.628 148.081 102.826 148.592C102.033 149.093 101.331 149.658 100.721 150.287C100.11 150.907 99.627 151.627 99.2715 152.447C98.916 153.268 98.7383 154.133 98.7383 155.045V162.906ZM121.967 134.906H143.527V137.395C142.479 136.939 141.012 136.506 139.125 136.096C137.247 135.676 135.99 135.467 135.352 135.467C134.823 135.467 134.44 135.604 134.203 135.877C133.975 136.141 133.861 136.638 133.861 137.367V162.906H131.619V137.367C131.619 136.638 131.505 136.141 131.277 135.877C131.049 135.604 130.671 135.467 130.143 135.467C129.505 135.467 128.242 135.676 126.355 136.096C124.478 136.506 123.015 136.939 121.967 137.395V134.906ZM175.232 162.906H155.832V134.906H158.047V160.445C158.047 161.174 158.161 161.676 158.389 161.949C158.617 162.214 158.995 162.346 159.523 162.346C162.057 162.346 164.947 162.145 168.191 161.744C171.445 161.343 173.792 160.901 175.232 160.418V162.906ZM189.027 163.467C187.496 163.467 186.024 163.243 184.611 162.797C183.208 162.35 181.927 161.703 180.77 160.855C179.621 159.999 178.618 158.987 177.762 157.82C176.905 156.645 176.24 155.296 175.766 153.773C175.292 152.242 175.055 150.62 175.055 148.906C175.055 147.193 175.292 145.575 175.766 144.053C176.24 142.521 176.905 141.173 177.762 140.006C178.618 138.83 179.621 137.818 180.77 136.971C181.927 136.114 183.208 135.462 184.611 135.016C186.024 134.569 187.496 134.346 189.027 134.346C190.941 134.346 192.751 134.701 194.455 135.412C196.169 136.114 197.654 137.089 198.912 138.338C200.179 139.587 201.182 141.127 201.92 142.959C202.658 144.791 203.027 146.773 203.027 148.906C203.027 151.039 202.658 153.021 201.92 154.854C201.182 156.686 200.179 158.226 198.912 159.475C197.654 160.723 196.169 161.703 194.455 162.414C192.751 163.116 190.941 163.467 189.027 163.467ZM178.213 143.191C177.602 144.951 177.297 146.855 177.297 148.906C177.297 150.957 177.602 152.862 178.213 154.621C178.833 156.38 179.671 157.861 180.729 159.064C181.786 160.268 183.03 161.211 184.461 161.895C185.901 162.569 187.423 162.906 189.027 162.906C190.632 162.906 192.154 162.569 193.594 161.895C195.034 161.211 196.283 160.268 197.34 159.064C198.406 157.861 199.249 156.38 199.869 154.621C200.489 152.862 200.799 150.957 200.799 148.906C200.799 146.855 200.489 144.951 199.869 143.191C199.249 141.432 198.406 139.951 197.34 138.748C196.283 137.545 195.034 136.606 193.594 135.932C192.154 135.248 190.632 134.906 189.027 134.906C187.423 134.906 185.901 135.248 184.461 135.932C183.03 136.606 181.786 137.545 180.729 138.748C179.671 139.951 178.833 141.432 178.213 143.191ZM205.967 157C205.967 156.271 206.167 155.669 206.568 155.195C206.979 154.721 207.466 154.484 208.031 154.484C208.478 154.484 208.879 154.639 209.234 154.949C208.487 155.204 208.113 155.824 208.113 156.809C208.113 157.802 208.551 158.773 209.426 159.721C210.301 160.66 211.467 161.425 212.926 162.018C214.393 162.61 215.924 162.906 217.52 162.906C218.495 162.906 219.434 162.815 220.336 162.633C221.238 162.441 222.077 162.154 222.852 161.771C223.635 161.389 224.314 160.924 224.889 160.377C225.463 159.83 225.914 159.174 226.242 158.408C226.57 157.643 226.734 156.809 226.734 155.906C226.734 155.186 226.63 154.535 226.42 153.951C226.219 153.368 225.964 152.871 225.654 152.461C225.344 152.051 224.916 151.682 224.369 151.354C223.831 151.016 223.312 150.747 222.811 150.547C222.318 150.337 221.689 150.141 220.924 149.959C220.167 149.777 219.502 149.635 218.928 149.535C218.354 149.435 217.638 149.316 216.781 149.18C216.016 149.061 215.437 148.97 215.045 148.906C214.653 148.842 214.106 148.738 213.404 148.592C212.702 148.446 212.16 148.314 211.777 148.195C211.395 148.068 210.916 147.895 210.342 147.676C209.768 147.457 209.321 147.229 209.002 146.992C208.683 146.755 208.332 146.464 207.949 146.117C207.566 145.771 207.275 145.402 207.074 145.01C206.883 144.609 206.719 144.144 206.582 143.615C206.445 143.087 206.377 142.517 206.377 141.906C206.377 140.849 206.596 139.892 207.033 139.035C207.471 138.169 208.049 137.454 208.77 136.889C209.499 136.314 210.346 135.831 211.312 135.439C212.288 135.048 213.29 134.77 214.32 134.605C215.35 134.432 216.408 134.346 217.492 134.346C218.422 134.346 219.352 134.4 220.281 134.51C221.211 134.619 222.132 134.801 223.043 135.057C223.964 135.303 224.775 135.608 225.477 135.973C226.178 136.337 226.743 136.802 227.172 137.367C227.609 137.932 227.828 138.557 227.828 139.24C227.828 140.225 227.454 140.844 226.707 141.1C226.443 139.833 225.832 138.725 224.875 137.777C223.927 136.829 222.77 136.114 221.402 135.631C220.044 135.148 218.586 134.906 217.027 134.906C214.339 134.906 212.224 135.503 210.684 136.697C209.143 137.882 208.373 139.573 208.373 141.77C208.373 142.326 208.473 142.827 208.674 143.273C208.883 143.72 209.198 144.103 209.617 144.422C210.046 144.741 210.497 145.014 210.971 145.242C211.454 145.47 212.055 145.675 212.775 145.857C213.495 146.04 214.161 146.19 214.771 146.309C215.391 146.427 216.139 146.564 217.014 146.719C217.843 146.855 218.472 146.965 218.9 147.047C219.329 147.129 219.935 147.257 220.719 147.43C221.503 147.594 222.113 147.753 222.551 147.908C222.988 148.054 223.531 148.255 224.178 148.51C224.825 148.765 225.335 149.029 225.709 149.303C226.083 149.576 226.488 149.913 226.926 150.314C227.372 150.715 227.71 151.144 227.938 151.6C228.165 152.055 228.357 152.584 228.512 153.186C228.676 153.787 228.758 154.434 228.758 155.127C228.758 156.239 228.548 157.26 228.129 158.189C227.71 159.11 227.14 159.894 226.42 160.541C225.7 161.179 224.857 161.721 223.891 162.168C222.934 162.615 221.917 162.943 220.842 163.152C219.766 163.362 218.659 163.467 217.52 163.467C215.259 163.467 213.249 163.198 211.49 162.66C209.74 162.113 208.382 161.352 207.416 160.377C206.45 159.393 205.967 158.267 205.967 157ZM231.588 157C231.588 156.271 231.788 155.669 232.189 155.195C232.6 154.721 233.087 154.484 233.652 154.484C234.099 154.484 234.5 154.639 234.855 154.949C234.108 155.204 233.734 155.824 233.734 156.809C233.734 157.802 234.172 158.773 235.047 159.721C235.922 160.66 237.089 161.425 238.547 162.018C240.014 162.61 241.546 162.906 243.141 162.906C244.116 162.906 245.055 162.815 245.957 162.633C246.859 162.441 247.698 162.154 248.473 161.771C249.257 161.389 249.936 160.924 250.51 160.377C251.084 159.83 251.535 159.174 251.863 158.408C252.191 157.643 252.355 156.809 252.355 155.906C252.355 155.186 252.251 154.535 252.041 153.951C251.84 153.368 251.585 152.871 251.275 152.461C250.965 152.051 250.537 151.682 249.99 151.354C249.452 151.016 248.933 150.747 248.432 150.547C247.939 150.337 247.311 150.141 246.545 149.959C245.788 149.777 245.123 149.635 244.549 149.535C243.975 149.435 243.259 149.316 242.402 149.18C241.637 149.061 241.058 148.97 240.666 148.906C240.274 148.842 239.727 148.738 239.025 148.592C238.324 148.446 237.781 148.314 237.398 148.195C237.016 148.068 236.537 147.895 235.963 147.676C235.389 147.457 234.942 147.229 234.623 146.992C234.304 146.755 233.953 146.464 233.57 146.117C233.188 145.771 232.896 145.402 232.695 145.01C232.504 144.609 232.34 144.144 232.203 143.615C232.066 143.087 231.998 142.517 231.998 141.906C231.998 140.849 232.217 139.892 232.654 139.035C233.092 138.169 233.671 137.454 234.391 136.889C235.12 136.314 235.967 135.831 236.934 135.439C237.909 135.048 238.911 134.77 239.941 134.605C240.971 134.432 242.029 134.346 243.113 134.346C244.043 134.346 244.973 134.4 245.902 134.51C246.832 134.619 247.753 134.801 248.664 135.057C249.585 135.303 250.396 135.608 251.098 135.973C251.799 136.337 252.365 136.802 252.793 137.367C253.23 137.932 253.449 138.557 253.449 139.24C253.449 140.225 253.076 140.844 252.328 141.1C252.064 139.833 251.453 138.725 250.496 137.777C249.548 136.829 248.391 136.114 247.023 135.631C245.665 135.148 244.207 134.906 242.648 134.906C239.96 134.906 237.845 135.503 236.305 136.697C234.764 137.882 233.994 139.573 233.994 141.77C233.994 142.326 234.094 142.827 234.295 143.273C234.505 143.72 234.819 144.103 235.238 144.422C235.667 144.741 236.118 145.014 236.592 145.242C237.075 145.47 237.676 145.675 238.396 145.857C239.117 146.04 239.782 146.19 240.393 146.309C241.012 146.427 241.76 146.564 242.635 146.719C243.464 146.855 244.093 146.965 244.521 147.047C244.95 147.129 245.556 147.257 246.34 147.43C247.124 147.594 247.734 147.753 248.172 147.908C248.609 148.054 249.152 148.255 249.799 148.51C250.446 148.765 250.956 149.029 251.33 149.303C251.704 149.576 252.109 149.913 252.547 150.314C252.993 150.715 253.331 151.144 253.559 151.6C253.786 152.055 253.978 152.584 254.133 153.186C254.297 153.787 254.379 154.434 254.379 155.127C254.379 156.239 254.169 157.26 253.75 158.189C253.331 159.11 252.761 159.894 252.041 160.541C251.321 161.179 250.478 161.721 249.512 162.168C248.555 162.615 247.538 162.943 246.463 163.152C245.387 163.362 244.28 163.467 243.141 163.467C240.88 163.467 238.87 163.198 237.111 162.66C235.361 162.113 234.003 161.352 233.037 160.377C232.071 159.393 231.588 158.267 231.588 157ZM2.24219 201.906V173.906H4.48438V201.906H2.24219ZM8.96875 201.906V173.906H11.2656C16.4518 181.262 22.4036 189.679 29.1211 199.158C29.3216 199.441 29.4993 199.582 29.6543 199.582C29.873 199.582 29.9688 199.34 29.9414 198.857L28.2598 173.906H30.6113V201.906H28.3691C27.1478 200.184 24.5228 196.492 20.4941 190.832C16.4746 185.163 13.125 180.437 10.4453 176.654C10.2448 176.372 10.0671 176.23 9.91211 176.23C9.70247 176.23 9.61133 176.472 9.63867 176.955L11.3203 201.906H8.96875ZM26.9473 205.488L27.2891 204.955C28.0638 205.611 29.194 205.939 30.6797 205.939C31.5091 205.939 32.2337 205.789 32.8535 205.488C33.4824 205.188 33.9746 204.782 34.3301 204.271C34.6855 203.761 34.9499 203.21 35.123 202.617C35.2962 202.025 35.3828 201.396 35.3828 200.73V173.906H37.625V199.979C37.625 200.535 37.5521 201.1 37.4062 201.674C37.2604 202.248 37.0143 202.827 36.668 203.41C36.3307 203.993 35.9115 204.508 35.4102 204.955C34.9089 205.411 34.2663 205.78 33.4824 206.062C32.7077 206.354 31.8464 206.5 30.8984 206.5C29.2669 206.5 27.9499 206.163 26.9473 205.488ZM42.1094 201.906V173.906H61.5098V176.395C60.0697 175.911 57.7227 175.469 54.4688 175.068C51.224 174.667 48.3346 174.467 45.8008 174.467C45.2721 174.467 44.8939 174.604 44.666 174.877C44.4382 175.141 44.3242 175.638 44.3242 176.367V185.213C44.3242 185.632 44.4518 185.974 44.707 186.238C44.9622 186.493 45.2995 186.621 45.7188 186.621H58.7617V188.973C57.0846 188.562 54.8789 188.18 52.1445 187.824C49.4102 187.469 47.2773 187.291 45.7461 187.291C45.3177 187.291 44.9759 187.396 44.7207 187.605C44.4746 187.815 44.3516 188.12 44.3516 188.521L44.3242 199.445C44.3242 200.174 44.4382 200.676 44.666 200.949C44.8939 201.214 45.2721 201.346 45.8008 201.346C48.3346 201.346 51.224 201.145 54.4688 200.744C57.7227 200.343 60.0697 199.901 61.5098 199.418V201.906H42.1094ZM64.1758 192.773C63.7018 191.242 63.4648 189.62 63.4648 187.906C63.4648 186.193 63.7018 184.575 64.1758 183.053C64.6497 181.521 65.3151 180.173 66.1719 179.006C67.0286 177.83 68.0312 176.818 69.1797 175.971C70.3372 175.114 71.6178 174.462 73.0215 174.016C74.4342 173.569 75.9062 173.346 77.4375 173.346C78.7318 173.346 79.9941 173.464 81.2246 173.701C82.4642 173.938 83.5898 174.275 84.6016 174.713C85.6224 175.15 86.4427 175.725 87.0625 176.436C87.6823 177.146 87.9922 177.935 87.9922 178.801C87.9922 179.102 87.9466 179.361 87.8555 179.58C87.7734 179.79 87.6686 179.945 87.541 180.045C87.4225 180.136 87.2995 180.209 87.1719 180.264C87.0534 180.309 86.9531 180.332 86.8711 180.332L86.7344 180.346C86.625 179.571 86.3014 178.796 85.7637 178.021C85.2259 177.247 84.5469 176.559 83.7266 175.957C82.9154 175.346 81.9538 174.854 80.8418 174.48C79.7298 174.098 78.5951 173.906 77.4375 173.906C75.8333 173.906 74.3112 174.248 72.8711 174.932C71.4401 175.606 70.196 176.545 69.1387 177.748C68.0814 178.951 67.2428 180.432 66.623 182.191C66.0124 183.951 65.707 185.855 65.707 187.906C65.707 189.957 66.0124 191.862 66.623 193.621C67.2428 195.38 68.0814 196.861 69.1387 198.064C70.196 199.268 71.4401 200.211 72.8711 200.895C74.3112 201.569 75.8333 201.906 77.4375 201.906C78.4948 201.906 79.5658 201.733 80.6504 201.387C81.7441 201.04 82.7513 200.576 83.6719 199.992C84.5924 199.4 85.4355 198.748 86.2012 198.037C86.9759 197.317 87.6413 196.561 88.1973 195.768V198.912C87.5137 199.942 86.151 200.794 84.1094 201.469C82.0677 202.134 79.8438 202.467 77.4375 202.467C75.9062 202.467 74.4342 202.243 73.0215 201.797C71.6178 201.35 70.3372 200.703 69.1797 199.855C68.0312 198.999 67.0286 197.987 66.1719 196.82C65.3151 195.645 64.6497 194.296 64.1758 192.773ZM90.1387 173.906H111.699V176.395C110.651 175.939 109.184 175.506 107.297 175.096C105.419 174.676 104.161 174.467 103.523 174.467C102.995 174.467 102.612 174.604 102.375 174.877C102.147 175.141 102.033 175.638 102.033 176.367V201.906H99.791V176.367C99.791 175.638 99.6771 175.141 99.4492 174.877C99.2214 174.604 98.8431 174.467 98.3145 174.467C97.6764 174.467 96.4141 174.676 94.5273 175.096C92.6497 175.506 91.1868 175.939 90.1387 176.395V173.906ZM115.609 201.906V173.906H117.852V201.906H115.609ZM135.461 202.467C133.93 202.467 132.458 202.243 131.045 201.797C129.641 201.35 128.361 200.703 127.203 199.855C126.055 198.999 125.052 197.987 124.195 196.82C123.339 195.645 122.673 194.296 122.199 192.773C121.725 191.242 121.488 189.62 121.488 187.906C121.488 186.193 121.725 184.575 122.199 183.053C122.673 181.521 123.339 180.173 124.195 179.006C125.052 177.83 126.055 176.818 127.203 175.971C128.361 175.114 129.641 174.462 131.045 174.016C132.458 173.569 133.93 173.346 135.461 173.346C137.375 173.346 139.184 173.701 140.889 174.412C142.602 175.114 144.088 176.089 145.346 177.338C146.613 178.587 147.615 180.127 148.354 181.959C149.092 183.791 149.461 185.773 149.461 187.906C149.461 190.039 149.092 192.021 148.354 193.854C147.615 195.686 146.613 197.226 145.346 198.475C144.088 199.723 142.602 200.703 140.889 201.414C139.184 202.116 137.375 202.467 135.461 202.467ZM124.646 182.191C124.036 183.951 123.73 185.855 123.73 187.906C123.73 189.957 124.036 191.862 124.646 193.621C125.266 195.38 126.105 196.861 127.162 198.064C128.219 199.268 129.464 200.211 130.895 200.895C132.335 201.569 133.857 201.906 135.461 201.906C137.065 201.906 138.587 201.569 140.027 200.895C141.467 200.211 142.716 199.268 143.773 198.064C144.84 196.861 145.683 195.38 146.303 193.621C146.923 191.862 147.232 189.957 147.232 187.906C147.232 185.855 146.923 183.951 146.303 182.191C145.683 180.432 144.84 178.951 143.773 177.748C142.716 176.545 141.467 175.606 140.027 174.932C138.587 174.248 137.065 173.906 135.461 173.906C133.857 173.906 132.335 174.248 130.895 174.932C129.464 175.606 128.219 176.545 127.162 177.748C126.105 178.951 125.266 180.432 124.646 182.191ZM153.098 201.906V173.906H155.395C160.581 181.262 166.533 189.679 173.25 199.158C173.451 199.441 173.628 199.582 173.783 199.582C174.002 199.582 174.098 199.34 174.07 198.857L172.389 173.906H174.74V201.906H172.498C171.277 200.184 168.652 196.492 164.623 190.832C160.604 185.163 157.254 180.437 154.574 176.654C154.374 176.372 154.196 176.23 154.041 176.23C153.831 176.23 153.74 176.472 153.768 176.955L155.449 201.906H153.098Z" fill="#383637"/>
<path d="M1.808 237.906V226.706H2.784V237.906H1.808ZM6.24175 237.906V229.634H7.02575L7.10575 231.234C7.76175 230.05 8.91375 229.426 10.2418 229.426C12.4018 229.426 13.7298 230.946 13.7298 233.33V237.906H12.8018V233.41C12.8018 231.506 11.7778 230.322 10.1298 230.322C8.38575 230.322 7.16975 231.65 7.16975 233.618V237.906H6.24175ZM17.4793 228.674C17.4793 226.786 18.4073 225.858 20.2473 225.858H21.5433V226.738H20.3273C18.9833 226.738 18.4073 227.33 18.4073 228.738V229.634H21.4633V230.482H18.4073V237.906H17.4793V230.482H15.5913V229.634H17.4793V228.674ZM26.7175 238.114C24.1575 238.114 22.3655 236.322 22.3655 233.762C22.3655 231.218 24.1575 229.426 26.7175 229.426C29.2615 229.426 31.0535 231.218 31.0535 233.762C31.0535 236.322 29.2615 238.114 26.7175 238.114ZM23.2935 233.762C23.2935 235.81 24.6855 237.218 26.7175 237.218C28.7335 237.218 30.1255 235.81 30.1255 233.762C30.1255 231.73 28.7335 230.322 26.7175 230.322C24.6855 230.322 23.2935 231.73 23.2935 233.762ZM33.6324 237.906V229.634H34.4164L34.5124 231.49C35.0724 230.242 36.0164 229.634 37.5524 229.634H38.2404V230.498H37.5204C35.7444 230.498 34.5604 231.586 34.5604 234.098V237.906H33.6324ZM40.5699 237.906V229.634H41.3539L41.4339 230.978C42.0099 229.97 43.0179 229.426 44.2979 229.426C45.7379 229.426 46.8419 230.146 47.3219 231.41C47.8819 230.146 49.0179 229.426 50.4739 229.426C52.5539 229.426 53.8979 230.85 53.8979 233.154V237.906H52.9699V233.298C52.9699 231.458 51.9459 230.322 50.3619 230.322C48.7459 230.322 47.6899 231.49 47.6899 233.362V237.906H46.7619V233.298C46.7619 231.458 45.7539 230.322 44.1699 230.322C42.5539 230.322 41.4979 231.49 41.4979 233.362V237.906H40.5699ZM60.5114 238.114C57.9994 238.114 56.2874 236.338 56.2874 233.762C56.2874 231.202 58.0154 229.426 60.5274 229.426C63.1354 229.426 64.8154 231.346 64.7514 234.146H57.2314C57.3914 236.018 58.6714 237.234 60.5114 237.234C61.8554 237.234 62.9274 236.61 63.4714 235.538L64.5114 235.554C63.8714 237.138 62.3674 238.114 60.5114 238.114ZM57.2314 233.33H63.8394C63.6154 231.458 62.3354 230.306 60.5274 230.306C58.6874 230.306 57.3914 231.506 57.2314 233.33ZM70.8086 238.114C68.3126 238.114 66.5686 236.274 66.5686 233.762C66.5686 231.25 68.3126 229.426 70.8086 229.426C72.3286 229.426 73.5606 230.098 74.2966 231.17V226.066H75.2246V237.906H74.4566L74.3446 236.274C73.6246 237.41 72.3606 238.114 70.8086 238.114ZM67.4966 233.762C67.4966 235.794 68.8886 237.218 70.9206 237.218C72.9366 237.218 74.3286 235.794 74.3286 233.762C74.3286 231.746 72.9366 230.322 70.9206 230.322C68.8886 230.322 67.4966 231.746 67.4966 233.762ZM87.4071 238.114C84.1111 238.114 81.7271 235.714 81.7271 232.306C81.7271 228.898 84.1111 226.498 87.4071 226.498C89.9671 226.498 92.0631 227.986 92.7991 230.338H91.7751C91.1351 228.562 89.4711 227.474 87.4231 227.474C84.6871 227.474 82.7191 229.442 82.7191 232.306C82.7191 235.17 84.6871 237.138 87.4231 237.138C89.5191 237.138 91.2471 236.002 91.8711 234.146H92.8951C92.2071 236.562 90.0471 238.114 87.4071 238.114ZM99.03 238.114C96.47 238.114 94.678 236.322 94.678 233.762C94.678 231.218 96.47 229.426 99.03 229.426C101.574 229.426 103.366 231.218 103.366 233.762C103.366 236.322 101.574 238.114 99.03 238.114ZM95.606 233.762C95.606 235.81 96.998 237.218 99.03 237.218C101.046 237.218 102.438 235.81 102.438 233.762C102.438 231.73 101.046 230.322 99.03 230.322C96.998 230.322 95.606 231.73 95.606 233.762ZM105.945 237.906V229.634H106.729L106.809 231.234C107.465 230.05 108.617 229.426 109.945 229.426C112.105 229.426 113.433 230.946 113.433 233.33V237.906H112.505V233.41C112.505 231.506 111.481 230.322 109.833 230.322C108.089 230.322 106.873 231.65 106.873 233.618V237.906H105.945ZM119.402 238.114C117.306 238.114 115.978 237.058 115.914 235.41H116.826C116.922 236.578 117.834 237.266 119.418 237.266C120.874 237.266 121.754 236.706 121.754 235.794C121.754 234.93 120.97 234.402 119.21 234.098C117.05 233.73 116.074 232.962 116.074 231.698C116.074 230.29 117.274 229.426 119.21 229.426C121.162 229.426 122.394 230.354 122.522 231.938H121.594C121.498 230.85 120.65 230.258 119.21 230.258C117.834 230.258 117.002 230.818 117.002 231.714C117.002 232.53 117.69 232.978 119.53 233.33C121.626 233.73 122.666 234.562 122.666 235.81C122.666 237.202 121.402 238.114 119.402 238.114ZM128.855 238.114C126.343 238.114 124.631 236.338 124.631 233.762C124.631 231.202 126.359 229.426 128.871 229.426C131.479 229.426 133.159 231.346 133.095 234.146H125.575C125.735 236.018 127.015 237.234 128.855 237.234C130.199 237.234 131.271 236.61 131.815 235.538L132.855 235.554C132.215 237.138 130.711 238.114 128.855 238.114ZM125.575 233.33H132.183C131.959 231.458 130.679 230.306 128.871 230.306C127.031 230.306 125.735 231.506 125.575 233.33ZM135.632 237.906V229.634H136.416L136.496 231.234C137.152 230.05 138.304 229.426 139.632 229.426C141.792 229.426 143.12 230.946 143.12 233.33V237.906H142.192V233.41C142.192 231.506 141.168 230.322 139.52 230.322C137.776 230.322 136.56 231.65 136.56 233.618V237.906H135.632ZM149.336 237.906C147.576 237.906 146.632 236.914 146.632 235.042V230.482H144.824V229.634H145.88C146.504 229.634 146.68 229.474 146.744 228.866L146.824 227.602H147.56V229.634H150.424V230.482H147.56V235.01C147.56 236.37 148.12 237.01 149.368 237.01H150.536V237.906H149.336ZM160.196 237.906C158.436 237.906 157.492 236.914 157.492 235.042V230.482H155.684V229.634H156.74C157.364 229.634 157.539 229.474 157.604 228.866L157.684 227.602H158.42V229.634H161.284V230.482H158.42V235.01C158.42 236.37 158.98 237.01 160.228 237.01H161.396V237.906H160.196ZM167.108 238.114C164.548 238.114 162.756 236.322 162.756 233.762C162.756 231.218 164.548 229.426 167.108 229.426C169.652 229.426 171.444 231.218 171.444 233.762C171.444 236.322 169.652 238.114 167.108 238.114ZM163.684 233.762C163.684 235.81 165.076 237.218 167.108 237.218C169.124 237.218 170.516 235.81 170.516 233.762C170.516 231.73 169.124 230.322 167.108 230.322C165.076 230.322 163.684 231.73 163.684 233.762ZM179.902 237.906V227.634H176.046V226.706H184.734V227.634H180.862V237.906H179.902ZM185.242 237.906V229.634H186.026L186.122 231.49C186.682 230.242 187.626 229.634 189.162 229.634H189.85V230.498H189.13C187.354 230.498 186.17 231.586 186.17 234.098V237.906H185.242ZM195.043 238.114C192.531 238.114 190.819 236.338 190.819 233.762C190.819 231.202 192.547 229.426 195.059 229.426C197.667 229.426 199.347 231.346 199.283 234.146H191.763C191.923 236.018 193.203 237.234 195.043 237.234C196.387 237.234 197.459 236.61 198.003 235.538L199.043 235.554C198.403 237.138 196.899 238.114 195.043 238.114ZM191.763 233.33H198.371C198.147 231.458 196.867 230.306 195.059 230.306C193.219 230.306 191.923 231.506 191.763 233.33ZM204.303 238.034C202.383 238.034 201.183 237.09 201.183 235.57C201.183 234.098 202.303 233.17 203.999 233.17H207.647V232.578C207.647 231.202 206.639 230.29 205.103 230.29C203.855 230.29 202.879 230.93 202.543 231.922H201.599C201.999 230.386 203.327 229.426 205.087 229.426C207.151 229.426 208.575 230.69 208.575 232.53V237.906H207.807L207.711 236.482C206.991 237.474 205.775 238.034 204.303 238.034ZM202.111 235.554C202.111 236.562 202.959 237.202 204.335 237.202C206.255 237.202 207.663 236.002 207.663 234.338V233.986H204.031C202.895 233.986 202.111 234.61 202.111 235.554ZM214.789 237.906C213.029 237.906 212.085 236.914 212.085 235.042V230.482H210.277V229.634H211.333C211.957 229.634 212.133 229.474 212.197 228.866L212.277 227.602H213.013V229.634H215.877V230.482H213.013V235.01C213.013 236.37 213.573 237.01 214.821 237.01H215.989V237.906H214.789ZM218.476 237.906V229.634H219.26L219.34 230.978C219.916 229.97 220.924 229.426 222.204 229.426C223.644 229.426 224.748 230.146 225.228 231.41C225.788 230.146 226.924 229.426 228.38 229.426C230.46 229.426 231.804 230.85 231.804 233.154V237.906H230.876V233.298C230.876 231.458 229.852 230.322 228.268 230.322C226.652 230.322 225.596 231.49 225.596 233.362V237.906H224.668V233.298C224.668 231.458 223.66 230.322 222.076 230.322C220.46 230.322 219.404 231.49 219.404 233.362V237.906H218.476ZM238.418 238.114C235.906 238.114 234.194 236.338 234.194 233.762C234.194 231.202 235.922 229.426 238.434 229.426C241.042 229.426 242.722 231.346 242.658 234.146H235.138C235.298 236.018 236.578 237.234 238.418 237.234C239.762 237.234 240.834 236.61 241.378 235.538L242.418 235.554C241.778 237.138 240.274 238.114 238.418 238.114ZM235.138 233.33H241.746C241.522 231.458 240.242 230.306 238.434 230.306C236.594 230.306 235.298 231.506 235.138 233.33ZM245.195 237.906V229.634H245.979L246.059 231.234C246.715 230.05 247.867 229.426 249.195 229.426C251.355 229.426 252.683 230.946 252.683 233.33V237.906H251.755V233.41C251.755 231.506 250.731 230.322 249.083 230.322C247.339 230.322 246.123 231.65 246.123 233.618V237.906H245.195ZM258.899 237.906C257.139 237.906 256.195 236.914 256.195 235.042V230.482H254.387V229.634H255.443C256.067 229.634 256.243 229.474 256.307 228.866L256.387 227.602H257.123V229.634H259.987V230.482H257.123V235.01C257.123 236.37 257.683 237.01 258.931 237.01H260.099V237.906H258.899Z" fill="#5B5852"/>
</svg>
